<?xml version="1.0" standalone="no"?>
<!DOCTYPE svg PUBLIC "-//W3C//DTD SVG 1.1//EN" "http://www.w3.org/Graphics/SVG/1.1/DTD/svg11.dtd">
<svg width="156mm" height="242mm" viewBox="-28 -214 156 242" xmlns="http://www.w3.org/2000/svg" version="1.1">
<title>OpenSCAD Model</title>
<path d="
M 4.68452,-164.443 L 7.72542,-165.224 L 10.6445,-166.379 L 13.3957,-167.892 L 15.9356,-169.737 L 18.2242,-171.886
 L 20.2254,-174.305 L 21.9077,-176.956 L 23.2444,-179.797 L 24.2146,-182.783 L 24.8029,-185.867 L 25,-189
 L 24.8029,-192.133 L 24.2146,-195.217 L 23.2444,-198.203 L 21.9077,-201.044 L 20.2254,-203.695 L 18.2242,-206.114
 L 15.9356,-208.263 L 13.3957,-210.108 L 10.6445,-211.621 L 7.72542,-212.776 L 4.68452,-213.557 L 1.56975,-213.951
 L -1.56975,-213.951 L -4.68452,-213.557 L -7.72542,-212.776 L -10.6445,-211.621 L -13.3957,-210.108 L -15.9356,-208.263
 L -18.2242,-206.114 L -20.2254,-203.695 L -21.9077,-201.044 L -23.2444,-198.203 L -24.2146,-195.217 L -24.8029,-192.133
 L -25,-189 L -24.8029,-185.867 L -24.2146,-182.783 L -23.2444,-179.797 L -21.9077,-176.956 L -20.2254,-174.305
 L -18.2242,-171.886 L -15.9356,-169.737 L -13.3957,-167.892 L -10.6445,-166.379 L -7.72542,-165.224 L -4.68452,-164.443
 L -1.56975,-164.049 L 1.56975,-164.049 z
M -0.0941772,-210.003 L -0.281067,-210.027 L -0.463516,-210.073 L -0.638657,-210.143 L -0.803726,-210.234 L -0.956131,-210.344
 L -1.09344,-210.473 L -1.21352,-210.618 L -1.31445,-210.777 L -1.39465,-210.948 L -1.45287,-211.127 L -1.48816,-211.312
 L -1.5,-211.5 L -1.48816,-211.688 L -1.45287,-211.873 L -1.39465,-212.052 L -1.31445,-212.223 L -1.21352,-212.382
 L -1.09344,-212.527 L -0.956131,-212.656 L -0.803726,-212.766 L -0.638657,-212.857 L -0.463516,-212.927 L -0.281067,-212.973
 L -0.0941772,-212.997 L 0.0941772,-212.997 L 0.281067,-212.973 L 0.463516,-212.927 L 0.638657,-212.857 L 0.803726,-212.766
 L 0.956131,-212.656 L 1.09344,-212.527 L 1.21352,-212.382 L 1.31445,-212.223 L 1.39465,-212.052 L 1.45287,-211.873
 L 1.48816,-211.688 L 1.5,-211.5 L 1.48816,-211.312 L 1.45287,-211.127 L 1.39465,-210.948 L 1.31445,-210.777
 L 1.21352,-210.618 L 1.09344,-210.473 L 0.956131,-210.344 L 0.803726,-210.234 L 0.638657,-210.143 L 0.463516,-210.073
 L 0.281067,-210.027 L 0.0941772,-210.003 z
M -7.76701,-205.682 L -7.99127,-205.71 L -8.21022,-205.766 L -8.42039,-205.849 L -8.61848,-205.958 L -8.80136,-206.091
 L -8.96614,-206.246 L -9.11023,-206.42 L -9.23134,-206.611 L -9.32759,-206.815 L -9.39745,-207.03 L -9.4398,-207.252
 L -9.45399,-207.478 L -9.4398,-207.704 L -9.39745,-207.926 L -9.32759,-208.141 L -9.23134,-208.345 L -9.11023,-208.536
 L -8.96614,-208.71 L -8.80136,-208.865 L -8.61848,-208.998 L -8.42039,-209.107 L -8.21022,-209.19 L -7.99127,-209.246
 L -7.76701,-209.274 L -7.54097,-209.274 L -7.31671,-209.246 L -7.09776,-209.19 L -6.88759,-209.107 L -6.6895,-208.998
 L -6.50662,-208.865 L -6.34184,-208.71 L -6.19777,-208.536 L -6.07664,-208.345 L -5.98039,-208.141 L -5.91054,-207.926
 L -5.86818,-207.704 L -5.85399,-207.478 L -5.86818,-207.252 L -5.91054,-207.03 L -5.98039,-206.815 L -6.07664,-206.611
 L -6.19777,-206.42 L -6.34184,-206.246 L -6.50662,-206.091 L -6.6895,-205.958 L -6.88759,-205.849 L -7.09776,-205.766
 L -7.31671,-205.71 L -7.54097,-205.682 z
M -1.00464,-173.032 L -2.99809,-173.283 L -4.94426,-173.783 L -6.81245,-174.523 L -8.57323,-175.491 L -10.1988,-176.672
 L -11.6635,-178.047 L -12.9443,-179.595 L -14.0209,-181.292 L -14.8764,-183.11 L -15.4973,-185.021 L -15.8738,-186.995
 L -16,-189 L -15.8738,-191.005 L -15.4973,-192.979 L -14.8764,-194.89 L -14.0209,-196.708 L -12.9443,-198.405
 L -11.6635,-199.953 L -10.1988,-201.328 L -8.57323,-202.509 L -6.81245,-203.477 L -4.94426,-204.217 L -2.99809,-204.717
 L -1.00464,-204.968 L 1.00464,-204.968 L 2.99809,-204.717 L 4.94426,-204.217 L 6.81245,-203.477 L 8.57323,-202.509
 L 10.1988,-201.328 L 11.6635,-199.953 L 12.9443,-198.405 L 14.0209,-196.708 L 14.8764,-194.89 L 15.4973,-192.979
 L 15.8738,-191.005 L 16,-189 L 15.8738,-186.995 L 15.4973,-185.021 L 14.8764,-183.11 L 14.0209,-181.292
 L 12.9443,-179.595 L 11.6635,-178.047 L 10.1988,-176.672 L 8.57323,-175.491 L 6.81245,-174.523 L 4.94426,-173.783
 L 2.99809,-173.283 L 1.00464,-173.032 z
M 2.34225,-176.721 L 3.8627,-177.112 L 5.32224,-177.69 L 6.69783,-178.446 L 7.96779,-179.369 L 9.11211,-180.443
 L 10.1127,-181.653 L 10.9538,-182.978 L 11.6222,-184.398 L 12.1073,-185.891 L 12.4014,-187.433 L 12.5,-189
 L 12.4014,-190.567 L 12.1073,-192.109 L 11.6222,-193.602 L 10.9538,-195.022 L 10.1127,-196.347 L 9.11211,-197.557
 L 7.96779,-198.631 L 6.69783,-199.554 L 5.32224,-200.31 L 3.8627,-200.888 L 2.34225,-201.279 L 0.784866,-201.475
 L -0.784866,-201.475 L -2.34225,-201.279 L -3.8627,-200.888 L -5.32224,-200.31 L -6.69783,-199.554 L -7.96779,-198.631
 L -9.11211,-197.557 L -10.1127,-196.347 L -10.9538,-195.022 L -11.6222,-193.602 L -12.1073,-192.109 L -12.4014,-190.567
 L -12.5,-189 L -12.4014,-187.433 L -12.1073,-185.891 L -11.6222,-184.398 L -10.9538,-182.978 L -10.1127,-181.653
 L -9.11211,-180.443 L -7.96779,-179.369 L -6.69783,-178.446 L -5.32224,-177.69 L -3.8627,-177.112 L -2.34225,-176.721
 L -0.784866,-176.525 L 0.784866,-176.525 z
M 18.365,-194.858 L 18.1407,-194.886 L 17.9218,-194.942 L 17.7116,-195.025 L 17.5135,-195.134 L 17.3306,-195.267
 L 17.1658,-195.422 L 17.0218,-195.596 L 16.9006,-195.787 L 16.8044,-195.991 L 16.7345,-196.206 L 16.6922,-196.428
 L 16.678,-196.654 L 16.6922,-196.88 L 16.7345,-197.102 L 16.8044,-197.317 L 16.9006,-197.521 L 17.0218,-197.712
 L 17.1658,-197.886 L 17.3306,-198.041 L 17.5135,-198.174 L 17.7116,-198.283 L 17.9218,-198.366 L 18.1407,-198.422
 L 18.365,-198.45 L 18.591,-198.45 L 18.8153,-198.422 L 19.0342,-198.366 L 19.2444,-198.283 L 19.4425,-198.174
 L 19.6254,-198.041 L 19.7901,-197.886 L 19.9342,-197.712 L 20.0553,-197.521 L 20.1516,-197.317 L 20.2214,-197.102
 L 20.2638,-196.88 L 20.278,-196.654 L 20.2638,-196.428 L 20.2214,-196.206 L 20.1516,-195.991 L 20.0553,-195.787
 L 19.9342,-195.596 L 19.7901,-195.422 L 19.6254,-195.267 L 19.4425,-195.134 L 19.2444,-195.025 L 19.0342,-194.942
 L 18.8153,-194.886 L 18.591,-194.858 z
M 22.4058,-187.503 L 22.2189,-187.527 L 22.0365,-187.573 L 21.8613,-187.643 L 21.6963,-187.734 L 21.5439,-187.844
 L 21.4065,-187.973 L 21.2865,-188.118 L 21.1855,-188.277 L 21.1053,-188.448 L 21.0471,-188.627 L 21.0118,-188.812
 L 21,-189 L 21.0118,-189.188 L 21.0471,-189.373 L 21.1053,-189.552 L 21.1855,-189.723 L 21.2865,-189.882
 L 21.4065,-190.027 L 21.5439,-190.156 L 21.6963,-190.266 L 21.8613,-190.357 L 22.0365,-190.427 L 22.2189,-190.473
 L 22.4058,-190.497 L 22.5942,-190.497 L 22.7811,-190.473 L 22.9635,-190.427 L 23.1387,-190.357 L 23.3037,-190.266
 L 23.4561,-190.156 L 23.5934,-190.027 L 23.7135,-189.882 L 23.8145,-189.723 L 23.8947,-189.552 L 23.9529,-189.373
 L 23.9882,-189.188 L 24,-189 L 23.9882,-188.812 L 23.9529,-188.627 L 23.8947,-188.448 L 23.8145,-188.277
 L 23.7135,-188.118 L 23.5934,-187.973 L 23.4561,-187.844 L 23.3037,-187.734 L 23.1387,-187.643 L 22.9635,-187.573
 L 22.7811,-187.527 L 22.5942,-187.503 z
M -22.5942,-187.503 L -22.7811,-187.527 L -22.9635,-187.573 L -23.1387,-187.643 L -23.3037,-187.734 L -23.4561,-187.844
 L -23.5934,-187.973 L -23.7135,-188.118 L -23.8145,-188.277 L -23.8947,-188.448 L -23.9529,-188.627 L -23.9882,-188.812
 L -24,-189 L -23.9882,-189.188 L -23.9529,-189.373 L -23.8947,-189.552 L -23.8145,-189.723 L -23.7135,-189.882
 L -23.5934,-190.027 L -23.4561,-190.156 L -23.3037,-190.266 L -23.1387,-190.357 L -22.9635,-190.427 L -22.7811,-190.473
 L -22.5942,-190.497 L -22.4058,-190.497 L -22.2189,-190.473 L -22.0365,-190.427 L -21.8613,-190.357 L -21.6963,-190.266
 L -21.5439,-190.156 L -21.4065,-190.027 L -21.2865,-189.882 L -21.1855,-189.723 L -21.1053,-189.552 L -21.0471,-189.373
 L -21.0118,-189.188 L -21,-189 L -21.0118,-188.812 L -21.0471,-188.627 L -21.1053,-188.448 L -21.1855,-188.277
 L -21.2865,-188.118 L -21.4065,-187.973 L -21.5439,-187.844 L -21.6963,-187.734 L -21.8613,-187.643 L -22.0365,-187.573
 L -22.2189,-187.527 L -22.4058,-187.503 z
M -18.591,-179.55 L -18.8153,-179.578 L -19.0342,-179.634 L -19.2444,-179.717 L -19.4425,-179.826 L -19.6254,-179.959
 L -19.7901,-180.114 L -19.9342,-180.288 L -20.0553,-180.479 L -20.1516,-180.683 L -20.2214,-180.898 L -20.2638,-181.12
 L -20.278,-181.346 L -20.2638,-181.572 L -20.2214,-181.794 L -20.1516,-182.009 L -20.0553,-182.213 L -19.9342,-182.404
 L -19.7901,-182.578 L -19.6254,-182.733 L -19.4425,-182.866 L -19.2444,-182.975 L -19.0342,-183.058 L -18.8153,-183.114
 L -18.591,-183.142 L -18.365,-183.142 L -18.1407,-183.114 L -17.9218,-183.058 L -17.7116,-182.975 L -17.5135,-182.866
 L -17.3306,-182.733 L -17.1658,-182.578 L -17.0218,-182.404 L -16.9006,-182.213 L -16.8044,-182.009 L -16.7345,-181.794
 L -16.6922,-181.572 L -16.678,-181.346 L -16.6922,-181.12 L -16.7345,-180.898 L -16.8044,-180.683 L -16.9006,-180.479
 L -17.0218,-180.288 L -17.1658,-180.114 L -17.3306,-179.959 L -17.5135,-179.826 L -17.7116,-179.717 L -17.9218,-179.634
 L -18.1407,-179.578 L -18.365,-179.55 z
M 7.54097,-168.726 L 7.31671,-168.754 L 7.09776,-168.81 L 6.88759,-168.893 L 6.6895,-169.002 L 6.50662,-169.135
 L 6.34184,-169.29 L 6.19777,-169.464 L 6.07664,-169.655 L 5.98039,-169.859 L 5.91054,-170.074 L 5.86818,-170.296
 L 5.85399,-170.522 L 5.86818,-170.748 L 5.91054,-170.97 L 5.98039,-171.185 L 6.07664,-171.389 L 6.19777,-171.58
 L 6.34184,-171.754 L 6.50662,-171.909 L 6.6895,-172.042 L 6.88759,-172.151 L 7.09776,-172.234 L 7.31671,-172.29
 L 7.54097,-172.318 L 7.76701,-172.318 L 7.99127,-172.29 L 8.21022,-172.234 L 8.42039,-172.151 L 8.61848,-172.042
 L 8.80136,-171.909 L 8.96614,-171.754 L 9.11023,-171.58 L 9.23134,-171.389 L 9.32759,-171.185 L 9.39745,-170.97
 L 9.4398,-170.748 L 9.45399,-170.522 L 9.4398,-170.296 L 9.39745,-170.074 L 9.32759,-169.859 L 9.23134,-169.655
 L 9.11023,-169.464 L 8.96614,-169.29 L 8.80136,-169.135 L 8.61848,-169.002 L 8.42039,-168.893 L 8.21022,-168.81
 L 7.99127,-168.754 L 7.76701,-168.726 z
M -0.0941772,-165.003 L -0.281067,-165.027 L -0.463516,-165.073 L -0.638657,-165.143 L -0.803726,-165.234 L -0.956131,-165.344
 L -1.09344,-165.473 L -1.21352,-165.618 L -1.31445,-165.777 L -1.39465,-165.948 L -1.45287,-166.127 L -1.48816,-166.312
 L -1.5,-166.5 L -1.48816,-166.688 L -1.45287,-166.873 L -1.39465,-167.052 L -1.31445,-167.223 L -1.21352,-167.382
 L -1.09344,-167.527 L -0.956131,-167.656 L -0.803726,-167.766 L -0.638657,-167.857 L -0.463516,-167.927 L -0.281067,-167.973
 L -0.0941772,-167.997 L 0.0941772,-167.997 L 0.281067,-167.973 L 0.463516,-167.927 L 0.638657,-167.857 L 0.803726,-167.766
 L 0.956131,-167.656 L 1.09344,-167.527 L 1.21352,-167.382 L 1.31445,-167.223 L 1.39465,-167.052 L 1.45287,-166.873
 L 1.48816,-166.688 L 1.5,-166.5 L 1.48816,-166.312 L 1.45287,-166.127 L 1.39465,-165.948 L 1.31445,-165.777
 L 1.21352,-165.618 L 1.09344,-165.473 L 0.956131,-165.344 L 0.803726,-165.234 L 0.638657,-165.143 L 0.463516,-165.073
 L 0.281067,-165.027 L 0.0941772,-165.003 z
M 104.685,-164.443 L 107.725,-165.224 L 110.644,-166.379 L 113.396,-167.892 L 115.936,-169.737 L 118.224,-171.886
 L 120.225,-174.305 L 121.908,-176.956 L 123.244,-179.797 L 124.215,-182.783 L 124.803,-185.867 L 125,-189
 L 124.803,-192.133 L 124.215,-195.217 L 123.244,-198.203 L 121.908,-201.044 L 120.225,-203.695 L 118.224,-206.114
 L 115.936,-208.263 L 113.396,-210.108 L 110.644,-211.621 L 107.725,-212.776 L 104.685,-213.557 L 101.57,-213.951
 L 98.4302,-213.951 L 95.3155,-213.557 L 92.2746,-212.776 L 89.3555,-211.621 L 86.6043,-210.108 L 84.0644,-208.263
 L 81.7758,-206.114 L 79.7746,-203.695 L 78.0923,-201.044 L 76.7556,-198.203 L 75.7854,-195.217 L 75.1971,-192.133
 L 75,-189 L 75.1971,-185.867 L 75.7854,-182.783 L 76.7556,-179.797 L 78.0923,-176.956 L 79.7746,-174.305
 L 81.7758,-171.886 L 84.0644,-169.737 L 86.6043,-167.892 L 89.3555,-166.379 L 92.2746,-165.224 L 95.3155,-164.443
 L 98.4302,-164.049 L 101.57,-164.049 z
M 99.9058,-210.003 L 99.7189,-210.027 L 99.5365,-210.073 L 99.3613,-210.143 L 99.1963,-210.234 L 99.0439,-210.344
 L 98.9065,-210.473 L 98.7865,-210.618 L 98.6855,-210.777 L 98.6053,-210.948 L 98.5471,-211.127 L 98.5118,-211.312
 L 98.5,-211.5 L 98.5118,-211.688 L 98.5471,-211.873 L 98.6053,-212.052 L 98.6855,-212.223 L 98.7865,-212.382
 L 98.9065,-212.527 L 99.0439,-212.656 L 99.1963,-212.766 L 99.3613,-212.857 L 99.5365,-212.927 L 99.7189,-212.973
 L 99.9058,-212.997 L 100.094,-212.997 L 100.281,-212.973 L 100.464,-212.927 L 100.639,-212.857 L 100.804,-212.766
 L 100.956,-212.656 L 101.093,-212.527 L 101.214,-212.382 L 101.314,-212.223 L 101.395,-212.052 L 101.453,-211.873
 L 101.488,-211.688 L 101.5,-211.5 L 101.488,-211.312 L 101.453,-211.127 L 101.395,-210.948 L 101.314,-210.777
 L 101.214,-210.618 L 101.093,-210.473 L 100.956,-210.344 L 100.804,-210.234 L 100.639,-210.143 L 100.464,-210.073
 L 100.281,-210.027 L 100.094,-210.003 z
M 107.541,-205.682 L 107.317,-205.71 L 107.098,-205.766 L 106.888,-205.849 L 106.69,-205.958 L 106.507,-206.091
 L 106.342,-206.246 L 106.198,-206.42 L 106.077,-206.611 L 105.98,-206.815 L 105.911,-207.03 L 105.868,-207.252
 L 105.854,-207.478 L 105.868,-207.704 L 105.911,-207.926 L 105.98,-208.141 L 106.077,-208.345 L 106.198,-208.536
 L 106.342,-208.71 L 106.507,-208.865 L 106.69,-208.998 L 106.888,-209.107 L 107.098,-209.19 L 107.317,-209.246
 L 107.541,-209.274 L 107.767,-209.274 L 107.991,-209.246 L 108.21,-209.19 L 108.42,-209.107 L 108.618,-208.998
 L 108.801,-208.865 L 108.966,-208.71 L 109.11,-208.536 L 109.231,-208.345 L 109.328,-208.141 L 109.397,-207.926
 L 109.44,-207.704 L 109.454,-207.478 L 109.44,-207.252 L 109.397,-207.03 L 109.328,-206.815 L 109.231,-206.611
 L 109.11,-206.42 L 108.966,-206.246 L 108.801,-206.091 L 108.618,-205.958 L 108.42,-205.849 L 108.21,-205.766
 L 107.991,-205.71 L 107.767,-205.682 z
M 114.903,-202.453 L 114.71,-202.477 L 114.521,-202.526 L 114.34,-202.598 L 114.169,-202.691 L 114.012,-202.806
 L 113.87,-202.939 L 113.746,-203.089 L 113.642,-203.253 L 113.559,-203.429 L 113.499,-203.615 L 113.462,-203.806
 L 113.45,-204 L 113.462,-204.194 L 113.499,-204.385 L 113.559,-204.571 L 113.642,-204.747 L 113.746,-204.911
 L 113.87,-205.061 L 114.012,-205.194 L 114.169,-205.309 L 114.34,-205.402 L 114.521,-205.474 L 114.71,-205.523
 L 114.903,-205.547 L 115.097,-205.547 L 115.29,-205.523 L 115.479,-205.474 L 115.66,-205.402 L 115.831,-205.309
 L 115.988,-205.194 L 116.13,-205.061 L 116.254,-204.911 L 116.358,-204.747 L 116.441,-204.571 L 116.501,-204.385
 L 116.538,-204.194 L 116.55,-204 L 116.538,-203.806 L 116.501,-203.615 L 116.441,-203.429 L 116.358,-203.253
 L 116.254,-203.089 L 116.13,-202.939 L 115.988,-202.806 L 115.831,-202.691 L 115.66,-202.598 L 115.479,-202.526
 L 115.29,-202.477 L 115.097,-202.453 z
M 84.9027,-202.453 L 84.7095,-202.477 L 84.521,-202.526 L 84.34,-202.598 L 84.1695,-202.691 L 84.012,-202.806
 L 83.8701,-202.939 L 83.746,-203.089 L 83.6417,-203.253 L 83.5588,-203.429 L 83.4987,-203.615 L 83.4622,-203.806
 L 83.45,-204 L 83.4622,-204.194 L 83.4987,-204.385 L 83.5588,-204.571 L 83.6417,-204.747 L 83.746,-204.911
 L 83.8701,-205.061 L 84.012,-205.194 L 84.1695,-205.309 L 84.34,-205.402 L 84.521,-205.474 L 84.7095,-205.523
 L 84.9027,-205.547 L 85.0973,-205.547 L 85.2904,-205.523 L 85.479,-205.474 L 85.66,-205.402 L 85.8305,-205.309
 L 85.988,-205.194 L 86.1299,-205.061 L 86.254,-204.911 L 86.3583,-204.747 L 86.4411,-204.571 L 86.5013,-204.385
 L 86.5378,-204.194 L 86.55,-204 L 86.5378,-203.806 L 86.5013,-203.615 L 86.4411,-203.429 L 86.3583,-203.253
 L 86.254,-203.089 L 86.1299,-202.939 L 85.988,-202.806 L 85.8305,-202.691 L 85.66,-202.598 L 85.479,-202.526
 L 85.2904,-202.477 L 85.0973,-202.453 z
M 98.9953,-173.032 L 97.0019,-173.283 L 95.0557,-173.783 L 93.1875,-174.523 L 91.4268,-175.491 L 89.8012,-176.672
 L 88.3365,-178.047 L 87.0557,-179.595 L 85.9791,-181.292 L 85.1236,-183.11 L 84.5027,-185.021 L 84.1262,-186.995
 L 84,-189 L 84.1262,-191.005 L 84.5027,-192.979 L 85.1236,-194.89 L 85.9791,-196.708 L 87.0557,-198.405
 L 88.3365,-199.953 L 89.8012,-201.328 L 91.4268,-202.509 L 93.1875,-203.477 L 95.0557,-204.217 L 97.0019,-204.717
 L 98.9953,-204.968 L 101.005,-204.968 L 102.998,-204.717 L 104.944,-204.217 L 106.812,-203.477 L 108.573,-202.509
 L 110.199,-201.328 L 111.663,-199.953 L 112.944,-198.405 L 114.021,-196.708 L 114.876,-194.89 L 115.497,-192.979
 L 115.874,-191.005 L 116,-189 L 115.874,-186.995 L 115.497,-185.021 L 114.876,-183.11 L 114.021,-181.292
 L 112.944,-179.595 L 111.663,-178.047 L 110.199,-176.672 L 108.573,-175.491 L 106.812,-174.523 L 104.944,-173.783
 L 102.998,-173.283 L 101.005,-173.032 z
M 102.342,-176.721 L 103.863,-177.112 L 105.322,-177.69 L 106.698,-178.446 L 107.968,-179.369 L 109.112,-180.443
 L 110.113,-181.653 L 110.954,-182.978 L 111.622,-184.398 L 112.107,-185.891 L 112.401,-187.433 L 112.5,-189
 L 112.401,-190.567 L 112.107,-192.109 L 111.622,-193.602 L 110.954,-195.022 L 110.113,-196.347 L 109.112,-197.557
 L 107.968,-198.631 L 106.698,-199.554 L 105.322,-200.31 L 103.863,-200.888 L 102.342,-201.279 L 100.785,-201.475
 L 99.2151,-201.475 L 97.6577,-201.279 L 96.1373,-200.888 L 94.6777,-200.31 L 93.3022,-199.554 L 92.0322,-198.631
 L 90.8879,-197.557 L 89.8873,-196.347 L 89.0462,-195.022 L 88.3778,-193.602 L 87.8927,-192.109 L 87.5986,-190.567
 L 87.5,-189 L 87.5986,-187.433 L 87.8927,-185.891 L 88.3778,-184.398 L 89.0462,-182.978 L 89.8873,-181.653
 L 90.8879,-180.443 L 92.0322,-179.369 L 93.3022,-178.446 L 94.6777,-177.69 L 96.1373,-177.112 L 97.6577,-176.721
 L 99.2151,-176.525 L 100.785,-176.525 z
M 81.409,-194.858 L 81.1847,-194.886 L 80.9658,-194.942 L 80.7556,-195.025 L 80.5575,-195.134 L 80.3746,-195.267
 L 80.2099,-195.422 L 80.0658,-195.596 L 79.9446,-195.787 L 79.8484,-195.991 L 79.7785,-196.206 L 79.7362,-196.428
 L 79.722,-196.654 L 79.7362,-196.88 L 79.7785,-197.102 L 79.8484,-197.317 L 79.9446,-197.521 L 80.0658,-197.712
 L 80.2099,-197.886 L 80.3746,-198.041 L 80.5575,-198.174 L 80.7556,-198.283 L 80.9658,-198.366 L 81.1847,-198.422
 L 81.409,-198.45 L 81.635,-198.45 L 81.8593,-198.422 L 82.0782,-198.366 L 82.2884,-198.283 L 82.4865,-198.174
 L 82.6694,-198.041 L 82.8341,-197.886 L 82.9782,-197.712 L 83.0993,-197.521 L 83.1956,-197.317 L 83.2654,-197.102
 L 83.3078,-196.88 L 83.322,-196.654 L 83.3078,-196.428 L 83.2654,-196.206 L 83.1956,-195.991 L 83.0993,-195.787
 L 82.9782,-195.596 L 82.8341,-195.422 L 82.6694,-195.267 L 82.4865,-195.134 L 82.2884,-195.025 L 82.0782,-194.942
 L 81.8593,-194.886 L 81.635,-194.858 z
M 77.4058,-187.503 L 77.2189,-187.527 L 77.0365,-187.573 L 76.8613,-187.643 L 76.6963,-187.734 L 76.5439,-187.844
 L 76.4065,-187.973 L 76.2865,-188.118 L 76.1855,-188.277 L 76.1053,-188.448 L 76.0471,-188.627 L 76.0118,-188.812
 L 76,-189 L 76.0118,-189.188 L 76.0471,-189.373 L 76.1053,-189.552 L 76.1855,-189.723 L 76.2865,-189.882
 L 76.4065,-190.027 L 76.5439,-190.156 L 76.6963,-190.266 L 76.8613,-190.357 L 77.0365,-190.427 L 77.2189,-190.473
 L 77.4058,-190.497 L 77.5942,-190.497 L 77.7811,-190.473 L 77.9635,-190.427 L 78.1387,-190.357 L 78.3037,-190.266
 L 78.4561,-190.156 L 78.5934,-190.027 L 78.7135,-189.882 L 78.8145,-189.723 L 78.8947,-189.552 L 78.9529,-189.373
 L 78.9882,-189.188 L 79,-189 L 78.9882,-188.812 L 78.9529,-188.627 L 78.8947,-188.448 L 78.8145,-188.277
 L 78.7135,-188.118 L 78.5934,-187.973 L 78.4561,-187.844 L 78.3037,-187.734 L 78.1387,-187.643 L 77.9635,-187.573
 L 77.7811,-187.527 L 77.5942,-187.503 z
M 122.406,-187.503 L 122.219,-187.527 L 122.036,-187.573 L 121.861,-187.643 L 121.696,-187.734 L 121.544,-187.844
 L 121.407,-187.973 L 121.286,-188.118 L 121.186,-188.277 L 121.105,-188.448 L 121.047,-188.627 L 121.012,-188.812
 L 121,-189 L 121.012,-189.188 L 121.047,-189.373 L 121.105,-189.552 L 121.186,-189.723 L 121.286,-189.882
 L 121.407,-190.027 L 121.544,-190.156 L 121.696,-190.266 L 121.861,-190.357 L 122.036,-190.427 L 122.219,-190.473
 L 122.406,-190.497 L 122.594,-190.497 L 122.781,-190.473 L 122.964,-190.427 L 123.139,-190.357 L 123.304,-190.266
 L 123.456,-190.156 L 123.593,-190.027 L 123.714,-189.882 L 123.814,-189.723 L 123.895,-189.552 L 123.953,-189.373
 L 123.988,-189.188 L 124,-189 L 123.988,-188.812 L 123.953,-188.627 L 123.895,-188.448 L 123.814,-188.277
 L 123.714,-188.118 L 123.593,-187.973 L 123.456,-187.844 L 123.304,-187.734 L 123.139,-187.643 L 122.964,-187.573
 L 122.781,-187.527 L 122.594,-187.503 z
M 118.365,-179.55 L 118.141,-179.578 L 117.922,-179.634 L 117.712,-179.717 L 117.514,-179.826 L 117.331,-179.959
 L 117.166,-180.114 L 117.022,-180.288 L 116.901,-180.479 L 116.804,-180.683 L 116.735,-180.898 L 116.692,-181.12
 L 116.678,-181.346 L 116.692,-181.572 L 116.735,-181.794 L 116.804,-182.009 L 116.901,-182.213 L 117.022,-182.404
 L 117.166,-182.578 L 117.331,-182.733 L 117.514,-182.866 L 117.712,-182.975 L 117.922,-183.058 L 118.141,-183.114
 L 118.365,-183.142 L 118.591,-183.142 L 118.815,-183.114 L 119.034,-183.058 L 119.244,-182.975 L 119.442,-182.866
 L 119.625,-182.733 L 119.79,-182.578 L 119.934,-182.404 L 120.055,-182.213 L 120.152,-182.009 L 120.221,-181.794
 L 120.264,-181.572 L 120.278,-181.346 L 120.264,-181.12 L 120.221,-180.898 L 120.152,-180.683 L 120.055,-180.479
 L 119.934,-180.288 L 119.79,-180.114 L 119.625,-179.959 L 119.442,-179.826 L 119.244,-179.717 L 119.034,-179.634
 L 118.815,-179.578 L 118.591,-179.55 z
M 114.903,-172.453 L 114.71,-172.477 L 114.521,-172.526 L 114.34,-172.598 L 114.169,-172.691 L 114.012,-172.806
 L 113.87,-172.939 L 113.746,-173.089 L 113.642,-173.253 L 113.559,-173.429 L 113.499,-173.615 L 113.462,-173.806
 L 113.45,-174 L 113.462,-174.194 L 113.499,-174.385 L 113.559,-174.571 L 113.642,-174.747 L 113.746,-174.911
 L 113.87,-175.061 L 114.012,-175.194 L 114.169,-175.309 L 114.34,-175.402 L 114.521,-175.474 L 114.71,-175.523
 L 114.903,-175.547 L 115.097,-175.547 L 115.29,-175.523 L 115.479,-175.474 L 115.66,-175.402 L 115.831,-175.309
 L 115.988,-175.194 L 116.13,-175.061 L 116.254,-174.911 L 116.358,-174.747 L 116.441,-174.571 L 116.501,-174.385
 L 116.538,-174.194 L 116.55,-174 L 116.538,-173.806 L 116.501,-173.615 L 116.441,-173.429 L 116.358,-173.253
 L 116.254,-173.089 L 116.13,-172.939 L 115.988,-172.806 L 115.831,-172.691 L 115.66,-172.598 L 115.479,-172.526
 L 115.29,-172.477 L 115.097,-172.453 z
M 84.9027,-172.453 L 84.7095,-172.477 L 84.521,-172.526 L 84.34,-172.598 L 84.1695,-172.691 L 84.012,-172.806
 L 83.8701,-172.939 L 83.746,-173.089 L 83.6417,-173.253 L 83.5588,-173.429 L 83.4987,-173.615 L 83.4622,-173.806
 L 83.45,-174 L 83.4622,-174.194 L 83.4987,-174.385 L 83.5588,-174.571 L 83.6417,-174.747 L 83.746,-174.911
 L 83.8701,-175.061 L 84.012,-175.194 L 84.1695,-175.309 L 84.34,-175.402 L 84.521,-175.474 L 84.7095,-175.523
 L 84.9027,-175.547 L 85.0973,-175.547 L 85.2904,-175.523 L 85.479,-175.474 L 85.66,-175.402 L 85.8305,-175.309
 L 85.988,-175.194 L 86.1299,-175.061 L 86.254,-174.911 L 86.3583,-174.747 L 86.4411,-174.571 L 86.5013,-174.385
 L 86.5378,-174.194 L 86.55,-174 L 86.5378,-173.806 L 86.5013,-173.615 L 86.4411,-173.429 L 86.3583,-173.253
 L 86.254,-173.089 L 86.1299,-172.939 L 85.988,-172.806 L 85.8305,-172.691 L 85.66,-172.598 L 85.479,-172.526
 L 85.2904,-172.477 L 85.0973,-172.453 z
M 92.233,-168.726 L 92.0087,-168.754 L 91.7898,-168.81 L 91.5796,-168.893 L 91.3815,-169.002 L 91.1986,-169.135
 L 91.0339,-169.29 L 90.8898,-169.464 L 90.7686,-169.655 L 90.6724,-169.859 L 90.6026,-170.074 L 90.5602,-170.296
 L 90.546,-170.522 L 90.5602,-170.748 L 90.6026,-170.97 L 90.6724,-171.185 L 90.7686,-171.389 L 90.8898,-171.58
 L 91.0339,-171.754 L 91.1986,-171.909 L 91.3815,-172.042 L 91.5796,-172.151 L 91.7898,-172.234 L 92.0087,-172.29
 L 92.233,-172.318 L 92.459,-172.318 L 92.6833,-172.29 L 92.9022,-172.234 L 93.1124,-172.151 L 93.3105,-172.042
 L 93.4934,-171.909 L 93.6581,-171.754 L 93.8022,-171.58 L 93.9234,-171.389 L 94.0196,-171.185 L 94.0894,-170.97
 L 94.1318,-170.748 L 94.146,-170.522 L 94.1318,-170.296 L 94.0894,-170.074 L 94.0196,-169.859 L 93.9234,-169.655
 L 93.8022,-169.464 L 93.6581,-169.29 L 93.4934,-169.135 L 93.3105,-169.002 L 93.1124,-168.893 L 92.9022,-168.81
 L 92.6833,-168.754 L 92.459,-168.726 z
M 99.9058,-165.003 L 99.7189,-165.027 L 99.5365,-165.073 L 99.3613,-165.143 L 99.1963,-165.234 L 99.0439,-165.344
 L 98.9065,-165.473 L 98.7865,-165.618 L 98.6855,-165.777 L 98.6053,-165.948 L 98.5471,-166.127 L 98.5118,-166.312
 L 98.5,-166.5 L 98.5118,-166.688 L 98.5471,-166.873 L 98.6053,-167.052 L 98.6855,-167.223 L 98.7865,-167.382
 L 98.9065,-167.527 L 99.0439,-167.656 L 99.1963,-167.766 L 99.3613,-167.857 L 99.5365,-167.927 L 99.7189,-167.973
 L 99.9058,-167.997 L 100.094,-167.997 L 100.281,-167.973 L 100.464,-167.927 L 100.639,-167.857 L 100.804,-167.766
 L 100.956,-167.656 L 101.093,-167.527 L 101.214,-167.382 L 101.314,-167.223 L 101.395,-167.052 L 101.453,-166.873
 L 101.488,-166.688 L 101.5,-166.5 L 101.488,-166.312 L 101.453,-166.127 L 101.395,-165.948 L 101.314,-165.777
 L 101.214,-165.618 L 101.093,-165.473 L 100.956,-165.344 L 100.804,-165.234 L 100.639,-165.143 L 100.464,-165.073
 L 100.281,-165.027 L 100.094,-165.003 z
M 105.153,27.0129 L 108.498,26.1541 L 111.709,24.8827 L 114.735,23.219 L 117.529,21.1891 L 120.047,18.825
 L 122.248,16.1641 L 124.098,13.2482 L 125.569,10.1234 L 126.636,6.83896 L 127.283,3.44666 L 127.5,-0
 L 127.283,-3.44666 L 126.636,-6.83896 L 125.569,-10.1234 L 124.098,-13.2482 L 122.248,-16.1641 L 120.047,-18.825
 L 117.529,-21.1891 L 114.735,-23.219 L 111.709,-24.8827 L 108.498,-26.1541 L 105.153,-27.0129 L 101.727,-27.4457
 L 98.2733,-27.4457 L 94.847,-27.0129 L 91.502,-26.1541 L 88.2911,-24.8827 L 85.2648,-23.219 L 82.4708,-21.1891
 L 79.9534,-18.825 L 77.752,-16.1641 L 75.9016,-13.2482 L 74.4311,-10.1234 L 73.364,-6.83896 L 72.7168,-3.44666
 L 72.5,-0 L 72.7168,3.44666 L 73.364,6.83896 L 74.4311,10.1234 L 75.9016,13.2482 L 77.752,16.1641
 L 79.9534,18.825 L 82.4708,21.1891 L 85.2648,23.219 L 88.2911,24.8827 L 91.502,26.1541 L 94.847,27.0129
 L 98.2733,27.4457 L 101.727,27.4457 z
M 99.9058,-21.003 L 99.7189,-21.0266 L 99.5365,-21.0734 L 99.3613,-21.1427 L 99.1963,-21.2335 L 99.0439,-21.3442
 L 98.9065,-21.4732 L 98.7865,-21.6183 L 98.6855,-21.7774 L 98.6053,-21.9478 L 98.5471,-22.127 L 98.5118,-22.312
 L 98.5,-22.5 L 98.5118,-22.688 L 98.5471,-22.873 L 98.6053,-23.0522 L 98.6855,-23.2226 L 98.7865,-23.3817
 L 98.9065,-23.5268 L 99.0439,-23.6558 L 99.1963,-23.7665 L 99.3613,-23.8572 L 99.5365,-23.9266 L 99.7189,-23.9734
 L 99.9058,-23.997 L 100.094,-23.997 L 100.281,-23.9734 L 100.464,-23.9266 L 100.639,-23.8572 L 100.804,-23.7665
 L 100.956,-23.6558 L 101.093,-23.5268 L 101.214,-23.3817 L 101.314,-23.2226 L 101.395,-23.0522 L 101.453,-22.873
 L 101.488,-22.688 L 101.5,-22.5 L 101.488,-22.312 L 101.453,-22.127 L 101.395,-21.9478 L 101.314,-21.7774
 L 101.214,-21.6183 L 101.093,-21.4732 L 100.956,-21.3442 L 100.804,-21.2335 L 100.639,-21.1427 L 100.464,-21.0734
 L 100.281,-21.0266 L 100.094,-21.003 z
M 107.541,-16.6815 L 107.317,-16.7099 L 107.098,-16.7661 L 106.888,-16.8493 L 106.69,-16.9582 L 106.507,-17.0911
 L 106.342,-17.2458 L 106.198,-17.42 L 106.077,-17.6108 L 105.98,-17.8154 L 105.911,-18.0303 L 105.868,-18.2524
 L 105.854,-18.478 L 105.868,-18.7036 L 105.911,-18.9256 L 105.98,-19.1406 L 106.077,-19.3452 L 106.198,-19.536
 L 106.342,-19.7102 L 106.507,-19.8649 L 106.69,-19.9978 L 106.888,-20.1067 L 107.098,-20.1899 L 107.317,-20.2461
 L 107.541,-20.2744 L 107.767,-20.2744 L 107.991,-20.2461 L 108.21,-20.1899 L 108.42,-20.1067 L 108.618,-19.9978
 L 108.801,-19.8649 L 108.966,-19.7102 L 109.11,-19.536 L 109.231,-19.3452 L 109.328,-19.1406 L 109.397,-18.9256
 L 109.44,-18.7036 L 109.454,-18.478 L 109.44,-18.2524 L 109.397,-18.0303 L 109.328,-17.8154 L 109.231,-17.6108
 L 109.11,-17.42 L 108.966,-17.2458 L 108.801,-17.0911 L 108.618,-16.9582 L 108.42,-16.8493 L 108.21,-16.7661
 L 107.991,-16.7099 L 107.767,-16.6815 z
M 83.5575,-12.5015 L 82.115,-15 L 83.5575,-17.4985 L 86.4425,-17.4985 L 87.885,-15 L 86.4425,-12.5015
 z
M 113.558,-12.5015 L 112.115,-15 L 113.558,-17.4985 L 116.442,-17.4985 L 117.885,-15 L 116.442,-12.5015
 z
M 99.0738,14.7209 L 97.2361,14.4887 L 95.442,14.0281 L 93.7198,13.3462 L 92.0966,12.4538 L 90.598,11.3651
 L 89.2477,10.0971 L 88.067,8.66983 L 87.0745,7.10587 L 86.2858,5.42982 L 85.7134,3.66817 L 85.3663,1.84866
 L 85.25,-0 L 85.3663,-1.84866 L 85.7134,-3.66817 L 86.2858,-5.42982 L 87.0745,-7.10587 L 88.067,-8.66983
 L 89.2477,-10.0971 L 90.598,-11.3651 L 92.0966,-12.4538 L 93.7198,-13.3462 L 95.442,-14.0281 L 97.2361,-14.4887
 L 99.0738,-14.7209 L 100.926,-14.7209 L 102.764,-14.4887 L 104.558,-14.0281 L 106.28,-13.3462 L 107.903,-12.4538
 L 109.402,-11.3651 L 110.752,-10.0971 L 111.933,-8.66983 L 112.926,-7.10587 L 113.714,-5.42982 L 114.287,-3.66817
 L 114.634,-1.84866 L 114.75,-0 L 114.634,1.84866 L 114.287,3.66817 L 113.714,5.42982 L 112.926,7.10587
 L 111.933,8.66983 L 110.752,10.0971 L 109.402,11.3651 L 107.903,12.4538 L 106.28,13.3462 L 104.558,14.0281
 L 102.764,14.4887 L 100.926,14.7209 z
M 102.576,13.5064 L 104.249,13.077 L 105.854,12.4414 L 107.368,11.6095 L 108.765,10.5945 L 110.023,9.41252
 L 111.124,8.08205 L 112.049,6.6241 L 112.784,5.06171 L 113.318,3.41948 L 113.642,1.72333 L 113.75,-0
 L 113.642,-1.72333 L 113.318,-3.41948 L 112.784,-5.06171 L 112.049,-6.6241 L 111.124,-8.08205 L 110.023,-9.41252
 L 108.765,-10.5945 L 107.368,-11.6095 L 105.854,-12.4414 L 104.249,-13.077 L 102.576,-13.5064 L 100.863,-13.7229
 L 99.1366,-13.7229 L 97.4235,-13.5064 L 95.751,-13.077 L 94.1455,-12.4414 L 92.6324,-11.6095 L 91.2354,-10.5945
 L 89.9767,-9.41252 L 88.876,-8.08205 L 87.9508,-6.6241 L 87.2156,-5.06171 L 86.682,-3.41948 L 86.3584,-1.72333
 L 86.25,-0 L 86.3584,1.72333 L 86.682,3.41948 L 87.2156,5.06171 L 87.9508,6.6241 L 88.876,8.08205
 L 89.9767,9.41252 L 91.2354,10.5945 L 92.6324,11.6095 L 94.1455,12.4414 L 95.751,13.077 L 97.4235,13.5064
 L 99.1366,13.7229 L 100.863,13.7229 z
M 81.409,-5.85754 L 81.1847,-5.88588 L 80.9658,-5.94209 L 80.7556,-6.0253 L 80.5575,-6.1342 L 80.3746,-6.26707
 L 80.2099,-6.42181 L 80.0658,-6.59598 L 79.9446,-6.78683 L 79.8484,-6.99136 L 79.7785,-7.20634 L 79.7362,-7.42839
 L 79.722,-7.65399 L 79.7362,-7.87959 L 79.7785,-8.10164 L 79.8484,-8.31662 L 79.9446,-8.52115 L 80.0658,-8.71201
 L 80.2099,-8.88618 L 80.3746,-9.04092 L 80.5575,-9.17378 L 80.7556,-9.28268 L 80.9658,-9.36589 L 81.1847,-9.4221
 L 81.409,-9.45044 L 81.635,-9.45044 L 81.8593,-9.4221 L 82.0782,-9.36589 L 82.2884,-9.28268 L 82.4865,-9.17378
 L 82.6694,-9.04092 L 82.8341,-8.88618 L 82.9782,-8.71201 L 83.0993,-8.52115 L 83.1956,-8.31662 L 83.2654,-8.10164
 L 83.3078,-7.87959 L 83.322,-7.65399 L 83.3078,-7.42839 L 83.2654,-7.20634 L 83.1956,-6.99136 L 83.0993,-6.78683
 L 82.9782,-6.59598 L 82.8341,-6.42181 L 82.6694,-6.26707 L 82.4865,-6.1342 L 82.2884,-6.0253 L 82.0782,-5.94209
 L 81.8593,-5.88588 L 81.635,-5.85754 z
M 122.406,1.49704 L 122.219,1.47342 L 122.036,1.42657 L 121.861,1.35724 L 121.696,1.26648 L 121.544,1.15576
 L 121.407,1.02681 L 121.286,0.881668 L 121.186,0.722626 L 121.105,0.552185 L 121.047,0.373032 L 121.012,0.187988
 L 121,-0 L 121.012,-0.187988 L 121.047,-0.373032 L 121.105,-0.552185 L 121.186,-0.722626 L 121.286,-0.881668
 L 121.407,-1.02681 L 121.544,-1.15576 L 121.696,-1.26648 L 121.861,-1.35724 L 122.036,-1.42657 L 122.219,-1.47342
 L 122.406,-1.49704 L 122.594,-1.49704 L 122.781,-1.47342 L 122.964,-1.42657 L 123.139,-1.35724 L 123.304,-1.26648
 L 123.456,-1.15576 L 123.593,-1.02681 L 123.714,-0.881668 L 123.814,-0.722626 L 123.895,-0.552185 L 123.953,-0.373032
 L 123.988,-0.187988 L 124,-0 L 123.988,0.187988 L 123.953,0.373032 L 123.895,0.552185 L 123.814,0.722626
 L 123.714,0.881668 L 123.593,1.02681 L 123.456,1.15576 L 123.304,1.26648 L 123.139,1.35724 L 122.964,1.42657
 L 122.781,1.47342 L 122.594,1.49704 z
M 77.4058,1.49704 L 77.2189,1.47342 L 77.0365,1.42657 L 76.8613,1.35724 L 76.6963,1.26648 L 76.5439,1.15576
 L 76.4065,1.02681 L 76.2865,0.881668 L 76.1855,0.722626 L 76.1053,0.552185 L 76.0471,0.373032 L 76.0118,0.187988
 L 76,-0 L 76.0118,-0.187988 L 76.0471,-0.373032 L 76.1053,-0.552185 L 76.1855,-0.722626 L 76.2865,-0.881668
 L 76.4065,-1.02681 L 76.5439,-1.15576 L 76.6963,-1.26648 L 76.8613,-1.35724 L 77.0365,-1.42657 L 77.2189,-1.47342
 L 77.4058,-1.49704 L 77.5942,-1.49704 L 77.7811,-1.47342 L 77.9635,-1.42657 L 78.1387,-1.35724 L 78.3037,-1.26648
 L 78.4561,-1.15576 L 78.5934,-1.02681 L 78.7135,-0.881668 L 78.8145,-0.722626 L 78.8947,-0.552185 L 78.9529,-0.373032
 L 78.9882,-0.187988 L 79,-0 L 78.9882,0.187988 L 78.9529,0.373032 L 78.8947,0.552185 L 78.8145,0.722626
 L 78.7135,0.881668 L 78.5934,1.02681 L 78.4561,1.15576 L 78.3037,1.26648 L 78.1387,1.35724 L 77.9635,1.42657
 L 77.7811,1.47342 L 77.5942,1.49704 z
M 118.365,9.45044 L 118.141,9.4221 L 117.922,9.36589 L 117.712,9.28268 L 117.514,9.17378 L 117.331,9.04092
 L 117.166,8.88618 L 117.022,8.71201 L 116.901,8.52115 L 116.804,8.31662 L 116.735,8.10164 L 116.692,7.87959
 L 116.678,7.65399 L 116.692,7.42839 L 116.735,7.20634 L 116.804,6.99136 L 116.901,6.78683 L 117.022,6.59598
 L 117.166,6.42181 L 117.331,6.26707 L 117.514,6.1342 L 117.712,6.0253 L 117.922,5.94209 L 118.141,5.88588
 L 118.365,5.85754 L 118.591,5.85754 L 118.815,5.88588 L 119.034,5.94209 L 119.244,6.0253 L 119.442,6.1342
 L 119.625,6.26707 L 119.79,6.42181 L 119.934,6.59598 L 120.055,6.78683 L 120.152,6.99136 L 120.221,7.20634
 L 120.264,7.42839 L 120.278,7.65399 L 120.264,7.87959 L 120.221,8.10164 L 120.152,8.31662 L 120.055,8.52115
 L 119.934,8.71201 L 119.79,8.88618 L 119.625,9.04092 L 119.442,9.17378 L 119.244,9.28268 L 119.034,9.36589
 L 118.815,9.4221 L 118.591,9.45044 z
M 83.5575,17.4985 L 82.115,15 L 83.5575,12.5015 L 86.4425,12.5015 L 87.885,15 L 86.4425,17.4985
 z
M 113.558,17.4985 L 112.115,15 L 113.558,12.5015 L 116.442,12.5015 L 117.885,15 L 116.442,17.4985
 z
M 92.233,20.2744 L 92.0087,20.2461 L 91.7898,20.1899 L 91.5796,20.1067 L 91.3815,19.9978 L 91.1986,19.8649
 L 91.0339,19.7102 L 90.8898,19.536 L 90.7686,19.3452 L 90.6724,19.1406 L 90.6026,18.9256 L 90.5602,18.7036
 L 90.546,18.478 L 90.5602,18.2524 L 90.6026,18.0303 L 90.6724,17.8154 L 90.7686,17.6108 L 90.8898,17.42
 L 91.0339,17.2458 L 91.1986,17.0911 L 91.3815,16.9582 L 91.5796,16.8493 L 91.7898,16.7661 L 92.0087,16.7099
 L 92.233,16.6815 L 92.459,16.6815 L 92.6833,16.7099 L 92.9022,16.7661 L 93.1124,16.8493 L 93.3105,16.9582
 L 93.4934,17.0911 L 93.6581,17.2458 L 93.8022,17.42 L 93.9234,17.6108 L 94.0196,17.8154 L 94.0894,18.0303
 L 94.1318,18.2524 L 94.146,18.478 L 94.1318,18.7036 L 94.0894,18.9256 L 94.0196,19.1406 L 93.9234,19.3452
 L 93.8022,19.536 L 93.6581,19.7102 L 93.4934,19.8649 L 93.3105,19.9978 L 93.1124,20.1067 L 92.9022,20.1899
 L 92.6833,20.2461 L 92.459,20.2744 z
M 99.9058,23.997 L 99.7189,23.9734 L 99.5365,23.9266 L 99.3613,23.8572 L 99.1963,23.7665 L 99.0439,23.6558
 L 98.9065,23.5268 L 98.7865,23.3817 L 98.6855,23.2226 L 98.6053,23.0522 L 98.5471,22.873 L 98.5118,22.688
 L 98.5,22.5 L 98.5118,22.312 L 98.5471,22.127 L 98.6053,21.9478 L 98.6855,21.7774 L 98.7865,21.6183
 L 98.9065,21.4732 L 99.0439,21.3442 L 99.1963,21.2335 L 99.3613,21.1427 L 99.5365,21.0734 L 99.7189,21.0266
 L 99.9058,21.003 L 100.094,21.003 L 100.281,21.0266 L 100.464,21.0734 L 100.639,21.1427 L 100.804,21.2335
 L 100.956,21.3442 L 101.093,21.4732 L 101.214,21.6183 L 101.314,21.7774 L 101.395,21.9478 L 101.453,22.127
 L 101.488,22.312 L 101.5,22.5 L 101.488,22.688 L 101.453,22.873 L 101.395,23.0522 L 101.314,23.2226
 L 101.214,23.3817 L 101.093,23.5268 L 100.956,23.6558 L 100.804,23.7665 L 100.639,23.8572 L 100.464,23.9266
 L 100.281,23.9734 L 100.094,23.997 z
M 5.15298,27.0129 L 8.49796,26.1541 L 11.7089,24.8827 L 14.7352,23.219 L 17.5292,21.1891 L 20.0466,18.825
 L 22.248,16.1641 L 24.0984,13.2482 L 25.5688,10.1234 L 26.636,6.83896 L 27.2831,3.44666 L 27.5,-0
 L 27.2831,-3.44666 L 26.636,-6.83896 L 25.5688,-10.1234 L 24.0984,-13.2482 L 22.248,-16.1641 L 20.0466,-18.825
 L 17.5292,-21.1891 L 14.7352,-23.219 L 11.7089,-24.8827 L 8.49796,-26.1541 L 5.15298,-27.0129 L 1.72673,-27.4457
 L -1.72673,-27.4457 L -5.15298,-27.0129 L -8.49796,-26.1541 L -11.7089,-24.8827 L -14.7352,-23.219 L -17.5292,-21.1891
 L -20.0466,-18.825 L -22.248,-16.1641 L -24.0984,-13.2482 L -25.5688,-10.1234 L -26.636,-6.83896 L -27.2831,-3.44666
 L -27.5,-0 L -27.2831,3.44666 L -26.636,6.83896 L -25.5688,10.1234 L -24.0984,13.2482 L -22.248,16.1641
 L -20.0466,18.825 L -17.5292,21.1891 L -14.7352,23.219 L -11.7089,24.8827 L -8.49796,26.1541 L -5.15298,27.0129
 L -1.72673,27.4457 L 1.72673,27.4457 z
M -0.0941772,-21.003 L -0.281067,-21.0266 L -0.463516,-21.0734 L -0.638657,-21.1427 L -0.803726,-21.2335 L -0.956131,-21.3442
 L -1.09344,-21.4732 L -1.21352,-21.6183 L -1.31445,-21.7774 L -1.39465,-21.9478 L -1.45287,-22.127 L -1.48816,-22.312
 L -1.5,-22.5 L -1.48816,-22.688 L -1.45287,-22.873 L -1.39465,-23.0522 L -1.31445,-23.2226 L -1.21352,-23.3817
 L -1.09344,-23.5268 L -0.956131,-23.6558 L -0.803726,-23.7665 L -0.638657,-23.8572 L -0.463516,-23.9266 L -0.281067,-23.9734
 L -0.0941772,-23.997 L 0.0941772,-23.997 L 0.281067,-23.9734 L 0.463516,-23.9266 L 0.638657,-23.8572 L 0.803726,-23.7665
 L 0.956131,-23.6558 L 1.09344,-23.5268 L 1.21352,-23.3817 L 1.31445,-23.2226 L 1.39465,-23.0522 L 1.45287,-22.873
 L 1.48816,-22.688 L 1.5,-22.5 L 1.48816,-22.312 L 1.45287,-22.127 L 1.39465,-21.9478 L 1.31445,-21.7774
 L 1.21352,-21.6183 L 1.09344,-21.4732 L 0.956131,-21.3442 L 0.803726,-21.2335 L 0.638657,-21.1427 L 0.463516,-21.0734
 L 0.281067,-21.0266 L 0.0941772,-21.003 z
M -9.24074,-15.7297 L -10.8275,-18.478 L -9.24074,-21.2263 L -6.06725,-21.2263 L -4.4805,-18.478 L -6.06725,-15.7297
 z
M -0.926147,14.7209 L -2.76387,14.4887 L -4.558,14.0281 L -6.28024,13.3462 L -7.90344,12.4538 L -9.40199,11.3651
 L -10.7523,10.0971 L -11.933,8.66983 L -12.9255,7.10587 L -13.7142,5.42982 L -14.2866,3.66817 L -14.6337,1.84866
 L -14.75,-0 L -14.6337,-1.84866 L -14.2866,-3.66817 L -13.7142,-5.42982 L -12.9255,-7.10587 L -11.933,-8.66983
 L -10.7523,-10.0971 L -9.40199,-11.3651 L -7.90344,-12.4538 L -6.28024,-13.3462 L -4.558,-14.0281 L -2.76387,-14.4887
 L -0.926147,-14.7209 L 0.926147,-14.7209 L 2.76387,-14.4887 L 4.558,-14.0281 L 6.28024,-13.3462 L 7.90344,-12.4538
 L 9.40199,-11.3651 L 10.7523,-10.0971 L 11.933,-8.66983 L 12.9255,-7.10587 L 13.7142,-5.42982 L 14.2866,-3.66817
 L 14.6337,-1.84866 L 14.75,-0 L 14.6337,1.84866 L 14.2866,3.66817 L 13.7142,5.42982 L 12.9255,7.10587
 L 11.933,8.66983 L 10.7523,10.0971 L 9.40199,11.3651 L 7.90344,12.4538 L 6.28024,13.3462 L 4.558,14.0281
 L 2.76387,14.4887 L 0.926147,14.7209 z
M 2.57649,13.5064 L 4.24898,13.077 L 5.85446,12.4414 L 7.36761,11.6095 L 8.76457,10.5945 L 10.0233,9.41252
 L 11.124,8.08205 L 12.0492,6.6241 L 12.7844,5.06171 L 13.318,3.41948 L 13.6416,1.72333 L 13.75,-0
 L 13.6416,-1.72333 L 13.318,-3.41948 L 12.7844,-5.06171 L 12.0492,-6.6241 L 11.124,-8.08205 L 10.0233,-9.41252
 L 8.76457,-10.5945 L 7.36761,-11.6095 L 5.85446,-12.4414 L 4.24898,-13.077 L 2.57649,-13.5064 L 0.863358,-13.7229
 L -0.863358,-13.7229 L -2.57649,-13.5064 L -4.24898,-13.077 L -5.85446,-12.4414 L -7.36761,-11.6095 L -8.76457,-10.5945
 L -10.0233,-9.41252 L -11.124,-8.08205 L -12.0492,-6.6241 L -12.7844,-5.06171 L -13.318,-3.41948 L -13.6416,-1.72333
 L -13.75,-0 L -13.6416,1.72333 L -13.318,3.41948 L -12.7844,5.06171 L -12.0492,6.6241 L -11.124,8.08205
 L -10.0233,9.41252 L -8.76457,10.5945 L -7.36761,11.6095 L -5.85446,12.4414 L -4.24898,13.077 L -2.57649,13.5064
 L -0.863358,13.7229 L 0.863358,13.7229 z
M 16.8913,-4.90567 L 15.3045,-7.65399 L 16.8913,-10.4023 L 20.0647,-10.4023 L 21.6515,-7.65399 L 20.0647,-4.90567
 z
M -22.5942,1.49704 L -22.7811,1.47342 L -22.9635,1.42657 L -23.1387,1.35724 L -23.3037,1.26648 L -23.4561,1.15576
 L -23.5934,1.02681 L -23.7135,0.881668 L -23.8145,0.722626 L -23.8947,0.552185 L -23.9529,0.373032 L -23.9882,0.187988
 L -24,-0 L -23.9882,-0.187988 L -23.9529,-0.373032 L -23.8947,-0.552185 L -23.8145,-0.722626 L -23.7135,-0.881668
 L -23.5934,-1.02681 L -23.4561,-1.15576 L -23.3037,-1.26648 L -23.1387,-1.35724 L -22.9635,-1.42657 L -22.7811,-1.47342
 L -22.5942,-1.49704 L -22.4058,-1.49704 L -22.2189,-1.47342 L -22.0365,-1.42657 L -21.8613,-1.35724 L -21.6963,-1.26648
 L -21.5439,-1.15576 L -21.4065,-1.02681 L -21.2865,-0.881668 L -21.1855,-0.722626 L -21.1053,-0.552185 L -21.0471,-0.373032
 L -21.0118,-0.187988 L -21,-0 L -21.0118,0.187988 L -21.0471,0.373032 L -21.1053,0.552185 L -21.1855,0.722626
 L -21.2865,0.881668 L -21.4065,1.02681 L -21.5439,1.15576 L -21.6963,1.26648 L -21.8613,1.35724 L -22.0365,1.42657
 L -22.2189,1.47342 L -22.4058,1.49704 z
M 22.4058,1.49704 L 22.2189,1.47342 L 22.0365,1.42657 L 21.8613,1.35724 L 21.6963,1.26648 L 21.5439,1.15576
 L 21.4065,1.02681 L 21.2865,0.881668 L 21.1855,0.722626 L 21.1053,0.552185 L 21.0471,0.373032 L 21.0118,0.187988
 L 21,-0 L 21.0118,-0.187988 L 21.0471,-0.373032 L 21.1053,-0.552185 L 21.1855,-0.722626 L 21.2865,-0.881668
 L 21.4065,-1.02681 L 21.5439,-1.15576 L 21.6963,-1.26648 L 21.8613,-1.35724 L 22.0365,-1.42657 L 22.2189,-1.47342
 L 22.4058,-1.49704 L 22.5942,-1.49704 L 22.7811,-1.47342 L 22.9635,-1.42657 L 23.1387,-1.35724 L 23.3037,-1.26648
 L 23.4561,-1.15576 L 23.5934,-1.02681 L 23.7135,-0.881668 L 23.8145,-0.722626 L 23.8947,-0.552185 L 23.9529,-0.373032
 L 23.9882,-0.187988 L 24,-0 L 23.9882,0.187988 L 23.9529,0.373032 L 23.8947,0.552185 L 23.8145,0.722626
 L 23.7135,0.881668 L 23.5934,1.02681 L 23.4561,1.15576 L 23.3037,1.26648 L 23.1387,1.35724 L 22.9635,1.42657
 L 22.7811,1.47342 L 22.5942,1.49704 z
M -20.0647,10.4023 L -21.6515,7.65399 L -20.0647,4.90567 L -16.8913,4.90567 L -15.3045,7.65399 L -16.8913,10.4023
 z
M 6.06725,21.2263 L 4.4805,18.478 L 6.06725,15.7297 L 9.24074,15.7297 L 10.8275,18.478 L 9.24074,21.2263
 z
M -0.0941772,23.997 L -0.281067,23.9734 L -0.463516,23.9266 L -0.638657,23.8572 L -0.803726,23.7665 L -0.956131,23.6558
 L -1.09344,23.5268 L -1.21352,23.3817 L -1.31445,23.2226 L -1.39465,23.0522 L -1.45287,22.873 L -1.48816,22.688
 L -1.5,22.5 L -1.48816,22.312 L -1.45287,22.127 L -1.39465,21.9478 L -1.31445,21.7774 L -1.21352,21.6183
 L -1.09344,21.4732 L -0.956131,21.3442 L -0.803726,21.2335 L -0.638657,21.1427 L -0.463516,21.0734 L -0.281067,21.0266
 L -0.0941772,21.003 L 0.0941772,21.003 L 0.281067,21.0266 L 0.463516,21.0734 L 0.638657,21.1427 L 0.803726,21.2335
 L 0.956131,21.3442 L 1.09344,21.4732 L 1.21352,21.6183 L 1.31445,21.7774 L 1.39465,21.9478 L 1.45287,22.127
 L 1.48816,22.312 L 1.5,22.5 L 1.48816,22.688 L 1.45287,22.873 L 1.39465,23.0522 L 1.31445,23.2226
 L 1.21352,23.3817 L 1.09344,23.5268 L 0.956131,23.6558 L 0.803726,23.7665 L 0.638657,23.8572 L 0.463516,23.9266
 L 0.281067,23.9734 L 0.0941772,23.997 z
" stroke="black" fill="lightgray" stroke-width="0.5"/>
</svg>
