  0
SECTION
  2
BLOCKS
  0
ENDSEC
  0
SECTION
  2
ENTITIES
  0
LINE
  8
0
 10
4.68452
 20
164.443
 11
7.72542
 21
165.224
  0
LINE
  8
0
 10
7.72542
 20
165.224
 11
10.6445
 21
166.379
  0
LINE
  8
0
 10
10.6445
 20
166.379
 11
13.3957
 21
167.892
  0
LINE
  8
0
 10
13.3957
 20
167.892
 11
15.9356
 21
169.737
  0
LINE
  8
0
 10
15.9356
 20
169.737
 11
18.2242
 21
171.886
  0
LINE
  8
0
 10
18.2242
 20
171.886
 11
20.2254
 21
174.305
  0
LINE
  8
0
 10
20.2254
 20
174.305
 11
21.9077
 21
176.956
  0
LINE
  8
0
 10
21.9077
 20
176.956
 11
23.2444
 21
179.797
  0
LINE
  8
0
 10
23.2444
 20
179.797
 11
24.2146
 21
182.783
  0
LINE
  8
0
 10
24.2146
 20
182.783
 11
24.8029
 21
185.867
  0
LINE
  8
0
 10
24.8029
 20
185.867
 11
25
 21
189
  0
LINE
  8
0
 10
25
 20
189
 11
24.8029
 21
192.133
  0
LINE
  8
0
 10
24.8029
 20
192.133
 11
24.2146
 21
195.217
  0
LINE
  8
0
 10
24.2146
 20
195.217
 11
23.2444
 21
198.203
  0
LINE
  8
0
 10
23.2444
 20
198.203
 11
21.9077
 21
201.044
  0
LINE
  8
0
 10
21.9077
 20
201.044
 11
20.2254
 21
203.695
  0
LINE
  8
0
 10
20.2254
 20
203.695
 11
18.2242
 21
206.114
  0
LINE
  8
0
 10
18.2242
 20
206.114
 11
15.9356
 21
208.263
  0
LINE
  8
0
 10
15.9356
 20
208.263
 11
13.3957
 21
210.108
  0
LINE
  8
0
 10
13.3957
 20
210.108
 11
10.6445
 21
211.621
  0
LINE
  8
0
 10
10.6445
 20
211.621
 11
7.72542
 21
212.776
  0
LINE
  8
0
 10
7.72542
 20
212.776
 11
4.68452
 21
213.557
  0
LINE
  8
0
 10
4.68452
 20
213.557
 11
1.56975
 21
213.951
  0
LINE
  8
0
 10
1.56975
 20
213.951
 11
-1.56975
 21
213.951
  0
LINE
  8
0
 10
-1.56975
 20
213.951
 11
-4.68452
 21
213.557
  0
LINE
  8
0
 10
-4.68452
 20
213.557
 11
-7.72542
 21
212.776
  0
LINE
  8
0
 10
-7.72542
 20
212.776
 11
-10.6445
 21
211.621
  0
LINE
  8
0
 10
-10.6445
 20
211.621
 11
-13.3957
 21
210.108
  0
LINE
  8
0
 10
-13.3957
 20
210.108
 11
-15.9356
 21
208.263
  0
LINE
  8
0
 10
-15.9356
 20
208.263
 11
-18.2242
 21
206.114
  0
LINE
  8
0
 10
-18.2242
 20
206.114
 11
-20.2254
 21
203.695
  0
LINE
  8
0
 10
-20.2254
 20
203.695
 11
-21.9077
 21
201.044
  0
LINE
  8
0
 10
-21.9077
 20
201.044
 11
-23.2444
 21
198.203
  0
LINE
  8
0
 10
-23.2444
 20
198.203
 11
-24.2146
 21
195.217
  0
LINE
  8
0
 10
-24.2146
 20
195.217
 11
-24.8029
 21
192.133
  0
LINE
  8
0
 10
-24.8029
 20
192.133
 11
-25
 21
189
  0
LINE
  8
0
 10
-25
 20
189
 11
-24.8029
 21
185.867
  0
LINE
  8
0
 10
-24.8029
 20
185.867
 11
-24.2146
 21
182.783
  0
LINE
  8
0
 10
-24.2146
 20
182.783
 11
-23.2444
 21
179.797
  0
LINE
  8
0
 10
-23.2444
 20
179.797
 11
-21.9077
 21
176.956
  0
LINE
  8
0
 10
-21.9077
 20
176.956
 11
-20.2254
 21
174.305
  0
LINE
  8
0
 10
-20.2254
 20
174.305
 11
-18.2242
 21
171.886
  0
LINE
  8
0
 10
-18.2242
 20
171.886
 11
-15.9356
 21
169.737
  0
LINE
  8
0
 10
-15.9356
 20
169.737
 11
-13.3957
 21
167.892
  0
LINE
  8
0
 10
-13.3957
 20
167.892
 11
-10.6445
 21
166.379
  0
LINE
  8
0
 10
-10.6445
 20
166.379
 11
-7.72542
 21
165.224
  0
LINE
  8
0
 10
-7.72542
 20
165.224
 11
-4.68452
 21
164.443
  0
LINE
  8
0
 10
-4.68452
 20
164.443
 11
-1.56975
 21
164.049
  0
LINE
  8
0
 10
-1.56975
 20
164.049
 11
1.56975
 21
164.049
  0
LINE
  8
0
 10
1.56975
 20
164.049
 11
4.68452
 21
164.443
  0
LINE
  8
0
 10
-0.0941772
 20
210.003
 11
-0.281067
 21
210.027
  0
LINE
  8
0
 10
-0.281067
 20
210.027
 11
-0.463516
 21
210.073
  0
LINE
  8
0
 10
-0.463516
 20
210.073
 11
-0.638657
 21
210.143
  0
LINE
  8
0
 10
-0.638657
 20
210.143
 11
-0.803726
 21
210.234
  0
LINE
  8
0
 10
-0.803726
 20
210.234
 11
-0.956131
 21
210.344
  0
LINE
  8
0
 10
-0.956131
 20
210.344
 11
-1.09344
 21
210.473
  0
LINE
  8
0
 10
-1.09344
 20
210.473
 11
-1.21352
 21
210.618
  0
LINE
  8
0
 10
-1.21352
 20
210.618
 11
-1.31445
 21
210.777
  0
LINE
  8
0
 10
-1.31445
 20
210.777
 11
-1.39465
 21
210.948
  0
LINE
  8
0
 10
-1.39465
 20
210.948
 11
-1.45287
 21
211.127
  0
LINE
  8
0
 10
-1.45287
 20
211.127
 11
-1.48816
 21
211.312
  0
LINE
  8
0
 10
-1.48816
 20
211.312
 11
-1.5
 21
211.5
  0
LINE
  8
0
 10
-1.5
 20
211.5
 11
-1.48816
 21
211.688
  0
LINE
  8
0
 10
-1.48816
 20
211.688
 11
-1.45287
 21
211.873
  0
LINE
  8
0
 10
-1.45287
 20
211.873
 11
-1.39465
 21
212.052
  0
LINE
  8
0
 10
-1.39465
 20
212.052
 11
-1.31445
 21
212.223
  0
LINE
  8
0
 10
-1.31445
 20
212.223
 11
-1.21352
 21
212.382
  0
LINE
  8
0
 10
-1.21352
 20
212.382
 11
-1.09344
 21
212.527
  0
LINE
  8
0
 10
-1.09344
 20
212.527
 11
-0.956131
 21
212.656
  0
LINE
  8
0
 10
-0.956131
 20
212.656
 11
-0.803726
 21
212.766
  0
LINE
  8
0
 10
-0.803726
 20
212.766
 11
-0.638657
 21
212.857
  0
LINE
  8
0
 10
-0.638657
 20
212.857
 11
-0.463516
 21
212.927
  0
LINE
  8
0
 10
-0.463516
 20
212.927
 11
-0.281067
 21
212.973
  0
LINE
  8
0
 10
-0.281067
 20
212.973
 11
-0.0941772
 21
212.997
  0
LINE
  8
0
 10
-0.0941772
 20
212.997
 11
0.0941772
 21
212.997
  0
LINE
  8
0
 10
0.0941772
 20
212.997
 11
0.281067
 21
212.973
  0
LINE
  8
0
 10
0.281067
 20
212.973
 11
0.463516
 21
212.927
  0
LINE
  8
0
 10
0.463516
 20
212.927
 11
0.638657
 21
212.857
  0
LINE
  8
0
 10
0.638657
 20
212.857
 11
0.803726
 21
212.766
  0
LINE
  8
0
 10
0.803726
 20
212.766
 11
0.956131
 21
212.656
  0
LINE
  8
0
 10
0.956131
 20
212.656
 11
1.09344
 21
212.527
  0
LINE
  8
0
 10
1.09344
 20
212.527
 11
1.21352
 21
212.382
  0
LINE
  8
0
 10
1.21352
 20
212.382
 11
1.31445
 21
212.223
  0
LINE
  8
0
 10
1.31445
 20
212.223
 11
1.39465
 21
212.052
  0
LINE
  8
0
 10
1.39465
 20
212.052
 11
1.45287
 21
211.873
  0
LINE
  8
0
 10
1.45287
 20
211.873
 11
1.48816
 21
211.688
  0
LINE
  8
0
 10
1.48816
 20
211.688
 11
1.5
 21
211.5
  0
LINE
  8
0
 10
1.5
 20
211.5
 11
1.48816
 21
211.312
  0
LINE
  8
0
 10
1.48816
 20
211.312
 11
1.45287
 21
211.127
  0
LINE
  8
0
 10
1.45287
 20
211.127
 11
1.39465
 21
210.948
  0
LINE
  8
0
 10
1.39465
 20
210.948
 11
1.31445
 21
210.777
  0
LINE
  8
0
 10
1.31445
 20
210.777
 11
1.21352
 21
210.618
  0
LINE
  8
0
 10
1.21352
 20
210.618
 11
1.09344
 21
210.473
  0
LINE
  8
0
 10
1.09344
 20
210.473
 11
0.956131
 21
210.344
  0
LINE
  8
0
 10
0.956131
 20
210.344
 11
0.803726
 21
210.234
  0
LINE
  8
0
 10
0.803726
 20
210.234
 11
0.638657
 21
210.143
  0
LINE
  8
0
 10
0.638657
 20
210.143
 11
0.463516
 21
210.073
  0
LINE
  8
0
 10
0.463516
 20
210.073
 11
0.281067
 21
210.027
  0
LINE
  8
0
 10
0.281067
 20
210.027
 11
0.0941772
 21
210.003
  0
LINE
  8
0
 10
0.0941772
 20
210.003
 11
-0.0941772
 21
210.003
  0
LINE
  8
0
 10
-7.76701
 20
205.682
 11
-7.99127
 21
205.71
  0
LINE
  8
0
 10
-7.99127
 20
205.71
 11
-8.21022
 21
205.766
  0
LINE
  8
0
 10
-8.21022
 20
205.766
 11
-8.42039
 21
205.849
  0
LINE
  8
0
 10
-8.42039
 20
205.849
 11
-8.61848
 21
205.958
  0
LINE
  8
0
 10
-8.61848
 20
205.958
 11
-8.80136
 21
206.091
  0
LINE
  8
0
 10
-8.80136
 20
206.091
 11
-8.96614
 21
206.246
  0
LINE
  8
0
 10
-8.96614
 20
206.246
 11
-9.11023
 21
206.42
  0
LINE
  8
0
 10
-9.11023
 20
206.42
 11
-9.23134
 21
206.611
  0
LINE
  8
0
 10
-9.23134
 20
206.611
 11
-9.32759
 21
206.815
  0
LINE
  8
0
 10
-9.32759
 20
206.815
 11
-9.39745
 21
207.03
  0
LINE
  8
0
 10
-9.39745
 20
207.03
 11
-9.4398
 21
207.252
  0
LINE
  8
0
 10
-9.4398
 20
207.252
 11
-9.45399
 21
207.478
  0
LINE
  8
0
 10
-9.45399
 20
207.478
 11
-9.4398
 21
207.704
  0
LINE
  8
0
 10
-9.4398
 20
207.704
 11
-9.39745
 21
207.926
  0
LINE
  8
0
 10
-9.39745
 20
207.926
 11
-9.32759
 21
208.141
  0
LINE
  8
0
 10
-9.32759
 20
208.141
 11
-9.23134
 21
208.345
  0
LINE
  8
0
 10
-9.23134
 20
208.345
 11
-9.11023
 21
208.536
  0
LINE
  8
0
 10
-9.11023
 20
208.536
 11
-8.96614
 21
208.71
  0
LINE
  8
0
 10
-8.96614
 20
208.71
 11
-8.80136
 21
208.865
  0
LINE
  8
0
 10
-8.80136
 20
208.865
 11
-8.61848
 21
208.998
  0
LINE
  8
0
 10
-8.61848
 20
208.998
 11
-8.42039
 21
209.107
  0
LINE
  8
0
 10
-8.42039
 20
209.107
 11
-8.21022
 21
209.19
  0
LINE
  8
0
 10
-8.21022
 20
209.19
 11
-7.99127
 21
209.246
  0
LINE
  8
0
 10
-7.99127
 20
209.246
 11
-7.76701
 21
209.274
  0
LINE
  8
0
 10
-7.76701
 20
209.274
 11
-7.54097
 21
209.274
  0
LINE
  8
0
 10
-7.54097
 20
209.274
 11
-7.31671
 21
209.246
  0
LINE
  8
0
 10
-7.31671
 20
209.246
 11
-7.09776
 21
209.19
  0
LINE
  8
0
 10
-7.09776
 20
209.19
 11
-6.88759
 21
209.107
  0
LINE
  8
0
 10
-6.88759
 20
209.107
 11
-6.6895
 21
208.998
  0
LINE
  8
0
 10
-6.6895
 20
208.998
 11
-6.50662
 21
208.865
  0
LINE
  8
0
 10
-6.50662
 20
208.865
 11
-6.34184
 21
208.71
  0
LINE
  8
0
 10
-6.34184
 20
208.71
 11
-6.19777
 21
208.536
  0
LINE
  8
0
 10
-6.19777
 20
208.536
 11
-6.07664
 21
208.345
  0
LINE
  8
0
 10
-6.07664
 20
208.345
 11
-5.98039
 21
208.141
  0
LINE
  8
0
 10
-5.98039
 20
208.141
 11
-5.91054
 21
207.926
  0
LINE
  8
0
 10
-5.91054
 20
207.926
 11
-5.86818
 21
207.704
  0
LINE
  8
0
 10
-5.86818
 20
207.704
 11
-5.85399
 21
207.478
  0
LINE
  8
0
 10
-5.85399
 20
207.478
 11
-5.86818
 21
207.252
  0
LINE
  8
0
 10
-5.86818
 20
207.252
 11
-5.91054
 21
207.03
  0
LINE
  8
0
 10
-5.91054
 20
207.03
 11
-5.98039
 21
206.815
  0
LINE
  8
0
 10
-5.98039
 20
206.815
 11
-6.07664
 21
206.611
  0
LINE
  8
0
 10
-6.07664
 20
206.611
 11
-6.19777
 21
206.42
  0
LINE
  8
0
 10
-6.19777
 20
206.42
 11
-6.34184
 21
206.246
  0
LINE
  8
0
 10
-6.34184
 20
206.246
 11
-6.50662
 21
206.091
  0
LINE
  8
0
 10
-6.50662
 20
206.091
 11
-6.6895
 21
205.958
  0
LINE
  8
0
 10
-6.6895
 20
205.958
 11
-6.88759
 21
205.849
  0
LINE
  8
0
 10
-6.88759
 20
205.849
 11
-7.09776
 21
205.766
  0
LINE
  8
0
 10
-7.09776
 20
205.766
 11
-7.31671
 21
205.71
  0
LINE
  8
0
 10
-7.31671
 20
205.71
 11
-7.54097
 21
205.682
  0
LINE
  8
0
 10
-7.54097
 20
205.682
 11
-7.76701
 21
205.682
  0
LINE
  8
0
 10
-1.00464
 20
173.032
 11
-2.99809
 21
173.283
  0
LINE
  8
0
 10
-2.99809
 20
173.283
 11
-4.94426
 21
173.783
  0
LINE
  8
0
 10
-4.94426
 20
173.783
 11
-6.81245
 21
174.523
  0
LINE
  8
0
 10
-6.81245
 20
174.523
 11
-8.57323
 21
175.491
  0
LINE
  8
0
 10
-8.57323
 20
175.491
 11
-10.1988
 21
176.672
  0
LINE
  8
0
 10
-10.1988
 20
176.672
 11
-11.6635
 21
178.047
  0
LINE
  8
0
 10
-11.6635
 20
178.047
 11
-12.9443
 21
179.595
  0
LINE
  8
0
 10
-12.9443
 20
179.595
 11
-14.0209
 21
181.292
  0
LINE
  8
0
 10
-14.0209
 20
181.292
 11
-14.8764
 21
183.11
  0
LINE
  8
0
 10
-14.8764
 20
183.11
 11
-15.4973
 21
185.021
  0
LINE
  8
0
 10
-15.4973
 20
185.021
 11
-15.8738
 21
186.995
  0
LINE
  8
0
 10
-15.8738
 20
186.995
 11
-16
 21
189
  0
LINE
  8
0
 10
-16
 20
189
 11
-15.8738
 21
191.005
  0
LINE
  8
0
 10
-15.8738
 20
191.005
 11
-15.4973
 21
192.979
  0
LINE
  8
0
 10
-15.4973
 20
192.979
 11
-14.8764
 21
194.89
  0
LINE
  8
0
 10
-14.8764
 20
194.89
 11
-14.0209
 21
196.708
  0
LINE
  8
0
 10
-14.0209
 20
196.708
 11
-12.9443
 21
198.405
  0
LINE
  8
0
 10
-12.9443
 20
198.405
 11
-11.6635
 21
199.953
  0
LINE
  8
0
 10
-11.6635
 20
199.953
 11
-10.1988
 21
201.328
  0
LINE
  8
0
 10
-10.1988
 20
201.328
 11
-8.57323
 21
202.509
  0
LINE
  8
0
 10
-8.57323
 20
202.509
 11
-6.81245
 21
203.477
  0
LINE
  8
0
 10
-6.81245
 20
203.477
 11
-4.94426
 21
204.217
  0
LINE
  8
0
 10
-4.94426
 20
204.217
 11
-2.99809
 21
204.717
  0
LINE
  8
0
 10
-2.99809
 20
204.717
 11
-1.00464
 21
204.968
  0
LINE
  8
0
 10
-1.00464
 20
204.968
 11
1.00464
 21
204.968
  0
LINE
  8
0
 10
1.00464
 20
204.968
 11
2.99809
 21
204.717
  0
LINE
  8
0
 10
2.99809
 20
204.717
 11
4.94426
 21
204.217
  0
LINE
  8
0
 10
4.94426
 20
204.217
 11
6.81245
 21
203.477
  0
LINE
  8
0
 10
6.81245
 20
203.477
 11
8.57323
 21
202.509
  0
LINE
  8
0
 10
8.57323
 20
202.509
 11
10.1988
 21
201.328
  0
LINE
  8
0
 10
10.1988
 20
201.328
 11
11.6635
 21
199.953
  0
LINE
  8
0
 10
11.6635
 20
199.953
 11
12.9443
 21
198.405
  0
LINE
  8
0
 10
12.9443
 20
198.405
 11
14.0209
 21
196.708
  0
LINE
  8
0
 10
14.0209
 20
196.708
 11
14.8764
 21
194.89
  0
LINE
  8
0
 10
14.8764
 20
194.89
 11
15.4973
 21
192.979
  0
LINE
  8
0
 10
15.4973
 20
192.979
 11
15.8738
 21
191.005
  0
LINE
  8
0
 10
15.8738
 20
191.005
 11
16
 21
189
  0
LINE
  8
0
 10
16
 20
189
 11
15.8738
 21
186.995
  0
LINE
  8
0
 10
15.8738
 20
186.995
 11
15.4973
 21
185.021
  0
LINE
  8
0
 10
15.4973
 20
185.021
 11
14.8764
 21
183.11
  0
LINE
  8
0
 10
14.8764
 20
183.11
 11
14.0209
 21
181.292
  0
LINE
  8
0
 10
14.0209
 20
181.292
 11
12.9443
 21
179.595
  0
LINE
  8
0
 10
12.9443
 20
179.595
 11
11.6635
 21
178.047
  0
LINE
  8
0
 10
11.6635
 20
178.047
 11
10.1988
 21
176.672
  0
LINE
  8
0
 10
10.1988
 20
176.672
 11
8.57323
 21
175.491
  0
LINE
  8
0
 10
8.57323
 20
175.491
 11
6.81245
 21
174.523
  0
LINE
  8
0
 10
6.81245
 20
174.523
 11
4.94426
 21
173.783
  0
LINE
  8
0
 10
4.94426
 20
173.783
 11
2.99809
 21
173.283
  0
LINE
  8
0
 10
2.99809
 20
173.283
 11
1.00464
 21
173.032
  0
LINE
  8
0
 10
1.00464
 20
173.032
 11
-1.00464
 21
173.032
  0
LINE
  8
0
 10
2.34225
 20
176.721
 11
3.8627
 21
177.112
  0
LINE
  8
0
 10
3.8627
 20
177.112
 11
5.32224
 21
177.69
  0
LINE
  8
0
 10
5.32224
 20
177.69
 11
6.69783
 21
178.446
  0
LINE
  8
0
 10
6.69783
 20
178.446
 11
7.96779
 21
179.369
  0
LINE
  8
0
 10
7.96779
 20
179.369
 11
9.11211
 21
180.443
  0
LINE
  8
0
 10
9.11211
 20
180.443
 11
10.1127
 21
181.653
  0
LINE
  8
0
 10
10.1127
 20
181.653
 11
10.9538
 21
182.978
  0
LINE
  8
0
 10
10.9538
 20
182.978
 11
11.6222
 21
184.398
  0
LINE
  8
0
 10
11.6222
 20
184.398
 11
12.1073
 21
185.891
  0
LINE
  8
0
 10
12.1073
 20
185.891
 11
12.4014
 21
187.433
  0
LINE
  8
0
 10
12.4014
 20
187.433
 11
12.5
 21
189
  0
LINE
  8
0
 10
12.5
 20
189
 11
12.4014
 21
190.567
  0
LINE
  8
0
 10
12.4014
 20
190.567
 11
12.1073
 21
192.109
  0
LINE
  8
0
 10
12.1073
 20
192.109
 11
11.6222
 21
193.602
  0
LINE
  8
0
 10
11.6222
 20
193.602
 11
10.9538
 21
195.022
  0
LINE
  8
0
 10
10.9538
 20
195.022
 11
10.1127
 21
196.347
  0
LINE
  8
0
 10
10.1127
 20
196.347
 11
9.11211
 21
197.557
  0
LINE
  8
0
 10
9.11211
 20
197.557
 11
7.96779
 21
198.631
  0
LINE
  8
0
 10
7.96779
 20
198.631
 11
6.69783
 21
199.554
  0
LINE
  8
0
 10
6.69783
 20
199.554
 11
5.32224
 21
200.31
  0
LINE
  8
0
 10
5.32224
 20
200.31
 11
3.8627
 21
200.888
  0
LINE
  8
0
 10
3.8627
 20
200.888
 11
2.34225
 21
201.279
  0
LINE
  8
0
 10
2.34225
 20
201.279
 11
0.784866
 21
201.475
  0
LINE
  8
0
 10
0.784866
 20
201.475
 11
-0.784866
 21
201.475
  0
LINE
  8
0
 10
-0.784866
 20
201.475
 11
-2.34225
 21
201.279
  0
LINE
  8
0
 10
-2.34225
 20
201.279
 11
-3.8627
 21
200.888
  0
LINE
  8
0
 10
-3.8627
 20
200.888
 11
-5.32224
 21
200.31
  0
LINE
  8
0
 10
-5.32224
 20
200.31
 11
-6.69783
 21
199.554
  0
LINE
  8
0
 10
-6.69783
 20
199.554
 11
-7.96779
 21
198.631
  0
LINE
  8
0
 10
-7.96779
 20
198.631
 11
-9.11211
 21
197.557
  0
LINE
  8
0
 10
-9.11211
 20
197.557
 11
-10.1127
 21
196.347
  0
LINE
  8
0
 10
-10.1127
 20
196.347
 11
-10.9538
 21
195.022
  0
LINE
  8
0
 10
-10.9538
 20
195.022
 11
-11.6222
 21
193.602
  0
LINE
  8
0
 10
-11.6222
 20
193.602
 11
-12.1073
 21
192.109
  0
LINE
  8
0
 10
-12.1073
 20
192.109
 11
-12.4014
 21
190.567
  0
LINE
  8
0
 10
-12.4014
 20
190.567
 11
-12.5
 21
189
  0
LINE
  8
0
 10
-12.5
 20
189
 11
-12.4014
 21
187.433
  0
LINE
  8
0
 10
-12.4014
 20
187.433
 11
-12.1073
 21
185.891
  0
LINE
  8
0
 10
-12.1073
 20
185.891
 11
-11.6222
 21
184.398
  0
LINE
  8
0
 10
-11.6222
 20
184.398
 11
-10.9538
 21
182.978
  0
LINE
  8
0
 10
-10.9538
 20
182.978
 11
-10.1127
 21
181.653
  0
LINE
  8
0
 10
-10.1127
 20
181.653
 11
-9.11211
 21
180.443
  0
LINE
  8
0
 10
-9.11211
 20
180.443
 11
-7.96779
 21
179.369
  0
LINE
  8
0
 10
-7.96779
 20
179.369
 11
-6.69783
 21
178.446
  0
LINE
  8
0
 10
-6.69783
 20
178.446
 11
-5.32224
 21
177.69
  0
LINE
  8
0
 10
-5.32224
 20
177.69
 11
-3.8627
 21
177.112
  0
LINE
  8
0
 10
-3.8627
 20
177.112
 11
-2.34225
 21
176.721
  0
LINE
  8
0
 10
-2.34225
 20
176.721
 11
-0.784866
 21
176.525
  0
LINE
  8
0
 10
-0.784866
 20
176.525
 11
0.784866
 21
176.525
  0
LINE
  8
0
 10
0.784866
 20
176.525
 11
2.34225
 21
176.721
  0
LINE
  8
0
 10
18.365
 20
194.858
 11
18.1407
 21
194.886
  0
LINE
  8
0
 10
18.1407
 20
194.886
 11
17.9218
 21
194.942
  0
LINE
  8
0
 10
17.9218
 20
194.942
 11
17.7116
 21
195.025
  0
LINE
  8
0
 10
17.7116
 20
195.025
 11
17.5135
 21
195.134
  0
LINE
  8
0
 10
17.5135
 20
195.134
 11
17.3306
 21
195.267
  0
LINE
  8
0
 10
17.3306
 20
195.267
 11
17.1658
 21
195.422
  0
LINE
  8
0
 10
17.1658
 20
195.422
 11
17.0218
 21
195.596
  0
LINE
  8
0
 10
17.0218
 20
195.596
 11
16.9006
 21
195.787
  0
LINE
  8
0
 10
16.9006
 20
195.787
 11
16.8044
 21
195.991
  0
LINE
  8
0
 10
16.8044
 20
195.991
 11
16.7345
 21
196.206
  0
LINE
  8
0
 10
16.7345
 20
196.206
 11
16.6922
 21
196.428
  0
LINE
  8
0
 10
16.6922
 20
196.428
 11
16.678
 21
196.654
  0
LINE
  8
0
 10
16.678
 20
196.654
 11
16.6922
 21
196.88
  0
LINE
  8
0
 10
16.6922
 20
196.88
 11
16.7345
 21
197.102
  0
LINE
  8
0
 10
16.7345
 20
197.102
 11
16.8044
 21
197.317
  0
LINE
  8
0
 10
16.8044
 20
197.317
 11
16.9006
 21
197.521
  0
LINE
  8
0
 10
16.9006
 20
197.521
 11
17.0218
 21
197.712
  0
LINE
  8
0
 10
17.0218
 20
197.712
 11
17.1658
 21
197.886
  0
LINE
  8
0
 10
17.1658
 20
197.886
 11
17.3306
 21
198.041
  0
LINE
  8
0
 10
17.3306
 20
198.041
 11
17.5135
 21
198.174
  0
LINE
  8
0
 10
17.5135
 20
198.174
 11
17.7116
 21
198.283
  0
LINE
  8
0
 10
17.7116
 20
198.283
 11
17.9218
 21
198.366
  0
LINE
  8
0
 10
17.9218
 20
198.366
 11
18.1407
 21
198.422
  0
LINE
  8
0
 10
18.1407
 20
198.422
 11
18.365
 21
198.45
  0
LINE
  8
0
 10
18.365
 20
198.45
 11
18.591
 21
198.45
  0
LINE
  8
0
 10
18.591
 20
198.45
 11
18.8153
 21
198.422
  0
LINE
  8
0
 10
18.8153
 20
198.422
 11
19.0342
 21
198.366
  0
LINE
  8
0
 10
19.0342
 20
198.366
 11
19.2444
 21
198.283
  0
LINE
  8
0
 10
19.2444
 20
198.283
 11
19.4425
 21
198.174
  0
LINE
  8
0
 10
19.4425
 20
198.174
 11
19.6254
 21
198.041
  0
LINE
  8
0
 10
19.6254
 20
198.041
 11
19.7901
 21
197.886
  0
LINE
  8
0
 10
19.7901
 20
197.886
 11
19.9342
 21
197.712
  0
LINE
  8
0
 10
19.9342
 20
197.712
 11
20.0553
 21
197.521
  0
LINE
  8
0
 10
20.0553
 20
197.521
 11
20.1516
 21
197.317
  0
LINE
  8
0
 10
20.1516
 20
197.317
 11
20.2214
 21
197.102
  0
LINE
  8
0
 10
20.2214
 20
197.102
 11
20.2638
 21
196.88
  0
LINE
  8
0
 10
20.2638
 20
196.88
 11
20.278
 21
196.654
  0
LINE
  8
0
 10
20.278
 20
196.654
 11
20.2638
 21
196.428
  0
LINE
  8
0
 10
20.2638
 20
196.428
 11
20.2214
 21
196.206
  0
LINE
  8
0
 10
20.2214
 20
196.206
 11
20.1516
 21
195.991
  0
LINE
  8
0
 10
20.1516
 20
195.991
 11
20.0553
 21
195.787
  0
LINE
  8
0
 10
20.0553
 20
195.787
 11
19.9342
 21
195.596
  0
LINE
  8
0
 10
19.9342
 20
195.596
 11
19.7901
 21
195.422
  0
LINE
  8
0
 10
19.7901
 20
195.422
 11
19.6254
 21
195.267
  0
LINE
  8
0
 10
19.6254
 20
195.267
 11
19.4425
 21
195.134
  0
LINE
  8
0
 10
19.4425
 20
195.134
 11
19.2444
 21
195.025
  0
LINE
  8
0
 10
19.2444
 20
195.025
 11
19.0342
 21
194.942
  0
LINE
  8
0
 10
19.0342
 20
194.942
 11
18.8153
 21
194.886
  0
LINE
  8
0
 10
18.8153
 20
194.886
 11
18.591
 21
194.858
  0
LINE
  8
0
 10
18.591
 20
194.858
 11
18.365
 21
194.858
  0
LINE
  8
0
 10
22.4058
 20
187.503
 11
22.2189
 21
187.527
  0
LINE
  8
0
 10
22.2189
 20
187.527
 11
22.0365
 21
187.573
  0
LINE
  8
0
 10
22.0365
 20
187.573
 11
21.8613
 21
187.643
  0
LINE
  8
0
 10
21.8613
 20
187.643
 11
21.6963
 21
187.734
  0
LINE
  8
0
 10
21.6963
 20
187.734
 11
21.5439
 21
187.844
  0
LINE
  8
0
 10
21.5439
 20
187.844
 11
21.4065
 21
187.973
  0
LINE
  8
0
 10
21.4065
 20
187.973
 11
21.2865
 21
188.118
  0
LINE
  8
0
 10
21.2865
 20
188.118
 11
21.1855
 21
188.277
  0
LINE
  8
0
 10
21.1855
 20
188.277
 11
21.1053
 21
188.448
  0
LINE
  8
0
 10
21.1053
 20
188.448
 11
21.0471
 21
188.627
  0
LINE
  8
0
 10
21.0471
 20
188.627
 11
21.0118
 21
188.812
  0
LINE
  8
0
 10
21.0118
 20
188.812
 11
21
 21
189
  0
LINE
  8
0
 10
21
 20
189
 11
21.0118
 21
189.188
  0
LINE
  8
0
 10
21.0118
 20
189.188
 11
21.0471
 21
189.373
  0
LINE
  8
0
 10
21.0471
 20
189.373
 11
21.1053
 21
189.552
  0
LINE
  8
0
 10
21.1053
 20
189.552
 11
21.1855
 21
189.723
  0
LINE
  8
0
 10
21.1855
 20
189.723
 11
21.2865
 21
189.882
  0
LINE
  8
0
 10
21.2865
 20
189.882
 11
21.4065
 21
190.027
  0
LINE
  8
0
 10
21.4065
 20
190.027
 11
21.5439
 21
190.156
  0
LINE
  8
0
 10
21.5439
 20
190.156
 11
21.6963
 21
190.266
  0
LINE
  8
0
 10
21.6963
 20
190.266
 11
21.8613
 21
190.357
  0
LINE
  8
0
 10
21.8613
 20
190.357
 11
22.0365
 21
190.427
  0
LINE
  8
0
 10
22.0365
 20
190.427
 11
22.2189
 21
190.473
  0
LINE
  8
0
 10
22.2189
 20
190.473
 11
22.4058
 21
190.497
  0
LINE
  8
0
 10
22.4058
 20
190.497
 11
22.5942
 21
190.497
  0
LINE
  8
0
 10
22.5942
 20
190.497
 11
22.7811
 21
190.473
  0
LINE
  8
0
 10
22.7811
 20
190.473
 11
22.9635
 21
190.427
  0
LINE
  8
0
 10
22.9635
 20
190.427
 11
23.1387
 21
190.357
  0
LINE
  8
0
 10
23.1387
 20
190.357
 11
23.3037
 21
190.266
  0
LINE
  8
0
 10
23.3037
 20
190.266
 11
23.4561
 21
190.156
  0
LINE
  8
0
 10
23.4561
 20
190.156
 11
23.5934
 21
190.027
  0
LINE
  8
0
 10
23.5934
 20
190.027
 11
23.7135
 21
189.882
  0
LINE
  8
0
 10
23.7135
 20
189.882
 11
23.8145
 21
189.723
  0
LINE
  8
0
 10
23.8145
 20
189.723
 11
23.8947
 21
189.552
  0
LINE
  8
0
 10
23.8947
 20
189.552
 11
23.9529
 21
189.373
  0
LINE
  8
0
 10
23.9529
 20
189.373
 11
23.9882
 21
189.188
  0
LINE
  8
0
 10
23.9882
 20
189.188
 11
24
 21
189
  0
LINE
  8
0
 10
24
 20
189
 11
23.9882
 21
188.812
  0
LINE
  8
0
 10
23.9882
 20
188.812
 11
23.9529
 21
188.627
  0
LINE
  8
0
 10
23.9529
 20
188.627
 11
23.8947
 21
188.448
  0
LINE
  8
0
 10
23.8947
 20
188.448
 11
23.8145
 21
188.277
  0
LINE
  8
0
 10
23.8145
 20
188.277
 11
23.7135
 21
188.118
  0
LINE
  8
0
 10
23.7135
 20
188.118
 11
23.5934
 21
187.973
  0
LINE
  8
0
 10
23.5934
 20
187.973
 11
23.4561
 21
187.844
  0
LINE
  8
0
 10
23.4561
 20
187.844
 11
23.3037
 21
187.734
  0
LINE
  8
0
 10
23.3037
 20
187.734
 11
23.1387
 21
187.643
  0
LINE
  8
0
 10
23.1387
 20
187.643
 11
22.9635
 21
187.573
  0
LINE
  8
0
 10
22.9635
 20
187.573
 11
22.7811
 21
187.527
  0
LINE
  8
0
 10
22.7811
 20
187.527
 11
22.5942
 21
187.503
  0
LINE
  8
0
 10
22.5942
 20
187.503
 11
22.4058
 21
187.503
  0
LINE
  8
0
 10
-22.5942
 20
187.503
 11
-22.7811
 21
187.527
  0
LINE
  8
0
 10
-22.7811
 20
187.527
 11
-22.9635
 21
187.573
  0
LINE
  8
0
 10
-22.9635
 20
187.573
 11
-23.1387
 21
187.643
  0
LINE
  8
0
 10
-23.1387
 20
187.643
 11
-23.3037
 21
187.734
  0
LINE
  8
0
 10
-23.3037
 20
187.734
 11
-23.4561
 21
187.844
  0
LINE
  8
0
 10
-23.4561
 20
187.844
 11
-23.5934
 21
187.973
  0
LINE
  8
0
 10
-23.5934
 20
187.973
 11
-23.7135
 21
188.118
  0
LINE
  8
0
 10
-23.7135
 20
188.118
 11
-23.8145
 21
188.277
  0
LINE
  8
0
 10
-23.8145
 20
188.277
 11
-23.8947
 21
188.448
  0
LINE
  8
0
 10
-23.8947
 20
188.448
 11
-23.9529
 21
188.627
  0
LINE
  8
0
 10
-23.9529
 20
188.627
 11
-23.9882
 21
188.812
  0
LINE
  8
0
 10
-23.9882
 20
188.812
 11
-24
 21
189
  0
LINE
  8
0
 10
-24
 20
189
 11
-23.9882
 21
189.188
  0
LINE
  8
0
 10
-23.9882
 20
189.188
 11
-23.9529
 21
189.373
  0
LINE
  8
0
 10
-23.9529
 20
189.373
 11
-23.8947
 21
189.552
  0
LINE
  8
0
 10
-23.8947
 20
189.552
 11
-23.8145
 21
189.723
  0
LINE
  8
0
 10
-23.8145
 20
189.723
 11
-23.7135
 21
189.882
  0
LINE
  8
0
 10
-23.7135
 20
189.882
 11
-23.5934
 21
190.027
  0
LINE
  8
0
 10
-23.5934
 20
190.027
 11
-23.4561
 21
190.156
  0
LINE
  8
0
 10
-23.4561
 20
190.156
 11
-23.3037
 21
190.266
  0
LINE
  8
0
 10
-23.3037
 20
190.266
 11
-23.1387
 21
190.357
  0
LINE
  8
0
 10
-23.1387
 20
190.357
 11
-22.9635
 21
190.427
  0
LINE
  8
0
 10
-22.9635
 20
190.427
 11
-22.7811
 21
190.473
  0
LINE
  8
0
 10
-22.7811
 20
190.473
 11
-22.5942
 21
190.497
  0
LINE
  8
0
 10
-22.5942
 20
190.497
 11
-22.4058
 21
190.497
  0
LINE
  8
0
 10
-22.4058
 20
190.497
 11
-22.2189
 21
190.473
  0
LINE
  8
0
 10
-22.2189
 20
190.473
 11
-22.0365
 21
190.427
  0
LINE
  8
0
 10
-22.0365
 20
190.427
 11
-21.8613
 21
190.357
  0
LINE
  8
0
 10
-21.8613
 20
190.357
 11
-21.6963
 21
190.266
  0
LINE
  8
0
 10
-21.6963
 20
190.266
 11
-21.5439
 21
190.156
  0
LINE
  8
0
 10
-21.5439
 20
190.156
 11
-21.4065
 21
190.027
  0
LINE
  8
0
 10
-21.4065
 20
190.027
 11
-21.2865
 21
189.882
  0
LINE
  8
0
 10
-21.2865
 20
189.882
 11
-21.1855
 21
189.723
  0
LINE
  8
0
 10
-21.1855
 20
189.723
 11
-21.1053
 21
189.552
  0
LINE
  8
0
 10
-21.1053
 20
189.552
 11
-21.0471
 21
189.373
  0
LINE
  8
0
 10
-21.0471
 20
189.373
 11
-21.0118
 21
189.188
  0
LINE
  8
0
 10
-21.0118
 20
189.188
 11
-21
 21
189
  0
LINE
  8
0
 10
-21
 20
189
 11
-21.0118
 21
188.812
  0
LINE
  8
0
 10
-21.0118
 20
188.812
 11
-21.0471
 21
188.627
  0
LINE
  8
0
 10
-21.0471
 20
188.627
 11
-21.1053
 21
188.448
  0
LINE
  8
0
 10
-21.1053
 20
188.448
 11
-21.1855
 21
188.277
  0
LINE
  8
0
 10
-21.1855
 20
188.277
 11
-21.2865
 21
188.118
  0
LINE
  8
0
 10
-21.2865
 20
188.118
 11
-21.4065
 21
187.973
  0
LINE
  8
0
 10
-21.4065
 20
187.973
 11
-21.5439
 21
187.844
  0
LINE
  8
0
 10
-21.5439
 20
187.844
 11
-21.6963
 21
187.734
  0
LINE
  8
0
 10
-21.6963
 20
187.734
 11
-21.8613
 21
187.643
  0
LINE
  8
0
 10
-21.8613
 20
187.643
 11
-22.0365
 21
187.573
  0
LINE
  8
0
 10
-22.0365
 20
187.573
 11
-22.2189
 21
187.527
  0
LINE
  8
0
 10
-22.2189
 20
187.527
 11
-22.4058
 21
187.503
  0
LINE
  8
0
 10
-22.4058
 20
187.503
 11
-22.5942
 21
187.503
  0
LINE
  8
0
 10
-18.591
 20
179.55
 11
-18.8153
 21
179.578
  0
LINE
  8
0
 10
-18.8153
 20
179.578
 11
-19.0342
 21
179.634
  0
LINE
  8
0
 10
-19.0342
 20
179.634
 11
-19.2444
 21
179.717
  0
LINE
  8
0
 10
-19.2444
 20
179.717
 11
-19.4425
 21
179.826
  0
LINE
  8
0
 10
-19.4425
 20
179.826
 11
-19.6254
 21
179.959
  0
LINE
  8
0
 10
-19.6254
 20
179.959
 11
-19.7901
 21
180.114
  0
LINE
  8
0
 10
-19.7901
 20
180.114
 11
-19.9342
 21
180.288
  0
LINE
  8
0
 10
-19.9342
 20
180.288
 11
-20.0553
 21
180.479
  0
LINE
  8
0
 10
-20.0553
 20
180.479
 11
-20.1516
 21
180.683
  0
LINE
  8
0
 10
-20.1516
 20
180.683
 11
-20.2214
 21
180.898
  0
LINE
  8
0
 10
-20.2214
 20
180.898
 11
-20.2638
 21
181.12
  0
LINE
  8
0
 10
-20.2638
 20
181.12
 11
-20.278
 21
181.346
  0
LINE
  8
0
 10
-20.278
 20
181.346
 11
-20.2638
 21
181.572
  0
LINE
  8
0
 10
-20.2638
 20
181.572
 11
-20.2214
 21
181.794
  0
LINE
  8
0
 10
-20.2214
 20
181.794
 11
-20.1516
 21
182.009
  0
LINE
  8
0
 10
-20.1516
 20
182.009
 11
-20.0553
 21
182.213
  0
LINE
  8
0
 10
-20.0553
 20
182.213
 11
-19.9342
 21
182.404
  0
LINE
  8
0
 10
-19.9342
 20
182.404
 11
-19.7901
 21
182.578
  0
LINE
  8
0
 10
-19.7901
 20
182.578
 11
-19.6254
 21
182.733
  0
LINE
  8
0
 10
-19.6254
 20
182.733
 11
-19.4425
 21
182.866
  0
LINE
  8
0
 10
-19.4425
 20
182.866
 11
-19.2444
 21
182.975
  0
LINE
  8
0
 10
-19.2444
 20
182.975
 11
-19.0342
 21
183.058
  0
LINE
  8
0
 10
-19.0342
 20
183.058
 11
-18.8153
 21
183.114
  0
LINE
  8
0
 10
-18.8153
 20
183.114
 11
-18.591
 21
183.142
  0
LINE
  8
0
 10
-18.591
 20
183.142
 11
-18.365
 21
183.142
  0
LINE
  8
0
 10
-18.365
 20
183.142
 11
-18.1407
 21
183.114
  0
LINE
  8
0
 10
-18.1407
 20
183.114
 11
-17.9218
 21
183.058
  0
LINE
  8
0
 10
-17.9218
 20
183.058
 11
-17.7116
 21
182.975
  0
LINE
  8
0
 10
-17.7116
 20
182.975
 11
-17.5135
 21
182.866
  0
LINE
  8
0
 10
-17.5135
 20
182.866
 11
-17.3306
 21
182.733
  0
LINE
  8
0
 10
-17.3306
 20
182.733
 11
-17.1658
 21
182.578
  0
LINE
  8
0
 10
-17.1658
 20
182.578
 11
-17.0218
 21
182.404
  0
LINE
  8
0
 10
-17.0218
 20
182.404
 11
-16.9006
 21
182.213
  0
LINE
  8
0
 10
-16.9006
 20
182.213
 11
-16.8044
 21
182.009
  0
LINE
  8
0
 10
-16.8044
 20
182.009
 11
-16.7345
 21
181.794
  0
LINE
  8
0
 10
-16.7345
 20
181.794
 11
-16.6922
 21
181.572
  0
LINE
  8
0
 10
-16.6922
 20
181.572
 11
-16.678
 21
181.346
  0
LINE
  8
0
 10
-16.678
 20
181.346
 11
-16.6922
 21
181.12
  0
LINE
  8
0
 10
-16.6922
 20
181.12
 11
-16.7345
 21
180.898
  0
LINE
  8
0
 10
-16.7345
 20
180.898
 11
-16.8044
 21
180.683
  0
LINE
  8
0
 10
-16.8044
 20
180.683
 11
-16.9006
 21
180.479
  0
LINE
  8
0
 10
-16.9006
 20
180.479
 11
-17.0218
 21
180.288
  0
LINE
  8
0
 10
-17.0218
 20
180.288
 11
-17.1658
 21
180.114
  0
LINE
  8
0
 10
-17.1658
 20
180.114
 11
-17.3306
 21
179.959
  0
LINE
  8
0
 10
-17.3306
 20
179.959
 11
-17.5135
 21
179.826
  0
LINE
  8
0
 10
-17.5135
 20
179.826
 11
-17.7116
 21
179.717
  0
LINE
  8
0
 10
-17.7116
 20
179.717
 11
-17.9218
 21
179.634
  0
LINE
  8
0
 10
-17.9218
 20
179.634
 11
-18.1407
 21
179.578
  0
LINE
  8
0
 10
-18.1407
 20
179.578
 11
-18.365
 21
179.55
  0
LINE
  8
0
 10
-18.365
 20
179.55
 11
-18.591
 21
179.55
  0
LINE
  8
0
 10
7.54097
 20
168.726
 11
7.31671
 21
168.754
  0
LINE
  8
0
 10
7.31671
 20
168.754
 11
7.09776
 21
168.81
  0
LINE
  8
0
 10
7.09776
 20
168.81
 11
6.88759
 21
168.893
  0
LINE
  8
0
 10
6.88759
 20
168.893
 11
6.6895
 21
169.002
  0
LINE
  8
0
 10
6.6895
 20
169.002
 11
6.50662
 21
169.135
  0
LINE
  8
0
 10
6.50662
 20
169.135
 11
6.34184
 21
169.29
  0
LINE
  8
0
 10
6.34184
 20
169.29
 11
6.19777
 21
169.464
  0
LINE
  8
0
 10
6.19777
 20
169.464
 11
6.07664
 21
169.655
  0
LINE
  8
0
 10
6.07664
 20
169.655
 11
5.98039
 21
169.859
  0
LINE
  8
0
 10
5.98039
 20
169.859
 11
5.91054
 21
170.074
  0
LINE
  8
0
 10
5.91054
 20
170.074
 11
5.86818
 21
170.296
  0
LINE
  8
0
 10
5.86818
 20
170.296
 11
5.85399
 21
170.522
  0
LINE
  8
0
 10
5.85399
 20
170.522
 11
5.86818
 21
170.748
  0
LINE
  8
0
 10
5.86818
 20
170.748
 11
5.91054
 21
170.97
  0
LINE
  8
0
 10
5.91054
 20
170.97
 11
5.98039
 21
171.185
  0
LINE
  8
0
 10
5.98039
 20
171.185
 11
6.07664
 21
171.389
  0
LINE
  8
0
 10
6.07664
 20
171.389
 11
6.19777
 21
171.58
  0
LINE
  8
0
 10
6.19777
 20
171.58
 11
6.34184
 21
171.754
  0
LINE
  8
0
 10
6.34184
 20
171.754
 11
6.50662
 21
171.909
  0
LINE
  8
0
 10
6.50662
 20
171.909
 11
6.6895
 21
172.042
  0
LINE
  8
0
 10
6.6895
 20
172.042
 11
6.88759
 21
172.151
  0
LINE
  8
0
 10
6.88759
 20
172.151
 11
7.09776
 21
172.234
  0
LINE
  8
0
 10
7.09776
 20
172.234
 11
7.31671
 21
172.29
  0
LINE
  8
0
 10
7.31671
 20
172.29
 11
7.54097
 21
172.318
  0
LINE
  8
0
 10
7.54097
 20
172.318
 11
7.76701
 21
172.318
  0
LINE
  8
0
 10
7.76701
 20
172.318
 11
7.99127
 21
172.29
  0
LINE
  8
0
 10
7.99127
 20
172.29
 11
8.21022
 21
172.234
  0
LINE
  8
0
 10
8.21022
 20
172.234
 11
8.42039
 21
172.151
  0
LINE
  8
0
 10
8.42039
 20
172.151
 11
8.61848
 21
172.042
  0
LINE
  8
0
 10
8.61848
 20
172.042
 11
8.80136
 21
171.909
  0
LINE
  8
0
 10
8.80136
 20
171.909
 11
8.96614
 21
171.754
  0
LINE
  8
0
 10
8.96614
 20
171.754
 11
9.11023
 21
171.58
  0
LINE
  8
0
 10
9.11023
 20
171.58
 11
9.23134
 21
171.389
  0
LINE
  8
0
 10
9.23134
 20
171.389
 11
9.32759
 21
171.185
  0
LINE
  8
0
 10
9.32759
 20
171.185
 11
9.39745
 21
170.97
  0
LINE
  8
0
 10
9.39745
 20
170.97
 11
9.4398
 21
170.748
  0
LINE
  8
0
 10
9.4398
 20
170.748
 11
9.45399
 21
170.522
  0
LINE
  8
0
 10
9.45399
 20
170.522
 11
9.4398
 21
170.296
  0
LINE
  8
0
 10
9.4398
 20
170.296
 11
9.39745
 21
170.074
  0
LINE
  8
0
 10
9.39745
 20
170.074
 11
9.32759
 21
169.859
  0
LINE
  8
0
 10
9.32759
 20
169.859
 11
9.23134
 21
169.655
  0
LINE
  8
0
 10
9.23134
 20
169.655
 11
9.11023
 21
169.464
  0
LINE
  8
0
 10
9.11023
 20
169.464
 11
8.96614
 21
169.29
  0
LINE
  8
0
 10
8.96614
 20
169.29
 11
8.80136
 21
169.135
  0
LINE
  8
0
 10
8.80136
 20
169.135
 11
8.61848
 21
169.002
  0
LINE
  8
0
 10
8.61848
 20
169.002
 11
8.42039
 21
168.893
  0
LINE
  8
0
 10
8.42039
 20
168.893
 11
8.21022
 21
168.81
  0
LINE
  8
0
 10
8.21022
 20
168.81
 11
7.99127
 21
168.754
  0
LINE
  8
0
 10
7.99127
 20
168.754
 11
7.76701
 21
168.726
  0
LINE
  8
0
 10
7.76701
 20
168.726
 11
7.54097
 21
168.726
  0
LINE
  8
0
 10
-0.0941772
 20
165.003
 11
-0.281067
 21
165.027
  0
LINE
  8
0
 10
-0.281067
 20
165.027
 11
-0.463516
 21
165.073
  0
LINE
  8
0
 10
-0.463516
 20
165.073
 11
-0.638657
 21
165.143
  0
LINE
  8
0
 10
-0.638657
 20
165.143
 11
-0.803726
 21
165.234
  0
LINE
  8
0
 10
-0.803726
 20
165.234
 11
-0.956131
 21
165.344
  0
LINE
  8
0
 10
-0.956131
 20
165.344
 11
-1.09344
 21
165.473
  0
LINE
  8
0
 10
-1.09344
 20
165.473
 11
-1.21352
 21
165.618
  0
LINE
  8
0
 10
-1.21352
 20
165.618
 11
-1.31445
 21
165.777
  0
LINE
  8
0
 10
-1.31445
 20
165.777
 11
-1.39465
 21
165.948
  0
LINE
  8
0
 10
-1.39465
 20
165.948
 11
-1.45287
 21
166.127
  0
LINE
  8
0
 10
-1.45287
 20
166.127
 11
-1.48816
 21
166.312
  0
LINE
  8
0
 10
-1.48816
 20
166.312
 11
-1.5
 21
166.5
  0
LINE
  8
0
 10
-1.5
 20
166.5
 11
-1.48816
 21
166.688
  0
LINE
  8
0
 10
-1.48816
 20
166.688
 11
-1.45287
 21
166.873
  0
LINE
  8
0
 10
-1.45287
 20
166.873
 11
-1.39465
 21
167.052
  0
LINE
  8
0
 10
-1.39465
 20
167.052
 11
-1.31445
 21
167.223
  0
LINE
  8
0
 10
-1.31445
 20
167.223
 11
-1.21352
 21
167.382
  0
LINE
  8
0
 10
-1.21352
 20
167.382
 11
-1.09344
 21
167.527
  0
LINE
  8
0
 10
-1.09344
 20
167.527
 11
-0.956131
 21
167.656
  0
LINE
  8
0
 10
-0.956131
 20
167.656
 11
-0.803726
 21
167.766
  0
LINE
  8
0
 10
-0.803726
 20
167.766
 11
-0.638657
 21
167.857
  0
LINE
  8
0
 10
-0.638657
 20
167.857
 11
-0.463516
 21
167.927
  0
LINE
  8
0
 10
-0.463516
 20
167.927
 11
-0.281067
 21
167.973
  0
LINE
  8
0
 10
-0.281067
 20
167.973
 11
-0.0941772
 21
167.997
  0
LINE
  8
0
 10
-0.0941772
 20
167.997
 11
0.0941772
 21
167.997
  0
LINE
  8
0
 10
0.0941772
 20
167.997
 11
0.281067
 21
167.973
  0
LINE
  8
0
 10
0.281067
 20
167.973
 11
0.463516
 21
167.927
  0
LINE
  8
0
 10
0.463516
 20
167.927
 11
0.638657
 21
167.857
  0
LINE
  8
0
 10
0.638657
 20
167.857
 11
0.803726
 21
167.766
  0
LINE
  8
0
 10
0.803726
 20
167.766
 11
0.956131
 21
167.656
  0
LINE
  8
0
 10
0.956131
 20
167.656
 11
1.09344
 21
167.527
  0
LINE
  8
0
 10
1.09344
 20
167.527
 11
1.21352
 21
167.382
  0
LINE
  8
0
 10
1.21352
 20
167.382
 11
1.31445
 21
167.223
  0
LINE
  8
0
 10
1.31445
 20
167.223
 11
1.39465
 21
167.052
  0
LINE
  8
0
 10
1.39465
 20
167.052
 11
1.45287
 21
166.873
  0
LINE
  8
0
 10
1.45287
 20
166.873
 11
1.48816
 21
166.688
  0
LINE
  8
0
 10
1.48816
 20
166.688
 11
1.5
 21
166.5
  0
LINE
  8
0
 10
1.5
 20
166.5
 11
1.48816
 21
166.312
  0
LINE
  8
0
 10
1.48816
 20
166.312
 11
1.45287
 21
166.127
  0
LINE
  8
0
 10
1.45287
 20
166.127
 11
1.39465
 21
165.948
  0
LINE
  8
0
 10
1.39465
 20
165.948
 11
1.31445
 21
165.777
  0
LINE
  8
0
 10
1.31445
 20
165.777
 11
1.21352
 21
165.618
  0
LINE
  8
0
 10
1.21352
 20
165.618
 11
1.09344
 21
165.473
  0
LINE
  8
0
 10
1.09344
 20
165.473
 11
0.956131
 21
165.344
  0
LINE
  8
0
 10
0.956131
 20
165.344
 11
0.803726
 21
165.234
  0
LINE
  8
0
 10
0.803726
 20
165.234
 11
0.638657
 21
165.143
  0
LINE
  8
0
 10
0.638657
 20
165.143
 11
0.463516
 21
165.073
  0
LINE
  8
0
 10
0.463516
 20
165.073
 11
0.281067
 21
165.027
  0
LINE
  8
0
 10
0.281067
 20
165.027
 11
0.0941772
 21
165.003
  0
LINE
  8
0
 10
0.0941772
 20
165.003
 11
-0.0941772
 21
165.003
  0
LINE
  8
0
 10
104.685
 20
164.443
 11
107.725
 21
165.224
  0
LINE
  8
0
 10
107.725
 20
165.224
 11
110.644
 21
166.379
  0
LINE
  8
0
 10
110.644
 20
166.379
 11
113.396
 21
167.892
  0
LINE
  8
0
 10
113.396
 20
167.892
 11
115.936
 21
169.737
  0
LINE
  8
0
 10
115.936
 20
169.737
 11
118.224
 21
171.886
  0
LINE
  8
0
 10
118.224
 20
171.886
 11
120.225
 21
174.305
  0
LINE
  8
0
 10
120.225
 20
174.305
 11
121.908
 21
176.956
  0
LINE
  8
0
 10
121.908
 20
176.956
 11
123.244
 21
179.797
  0
LINE
  8
0
 10
123.244
 20
179.797
 11
124.215
 21
182.783
  0
LINE
  8
0
 10
124.215
 20
182.783
 11
124.803
 21
185.867
  0
LINE
  8
0
 10
124.803
 20
185.867
 11
125
 21
189
  0
LINE
  8
0
 10
125
 20
189
 11
124.803
 21
192.133
  0
LINE
  8
0
 10
124.803
 20
192.133
 11
124.215
 21
195.217
  0
LINE
  8
0
 10
124.215
 20
195.217
 11
123.244
 21
198.203
  0
LINE
  8
0
 10
123.244
 20
198.203
 11
121.908
 21
201.044
  0
LINE
  8
0
 10
121.908
 20
201.044
 11
120.225
 21
203.695
  0
LINE
  8
0
 10
120.225
 20
203.695
 11
118.224
 21
206.114
  0
LINE
  8
0
 10
118.224
 20
206.114
 11
115.936
 21
208.263
  0
LINE
  8
0
 10
115.936
 20
208.263
 11
113.396
 21
210.108
  0
LINE
  8
0
 10
113.396
 20
210.108
 11
110.644
 21
211.621
  0
LINE
  8
0
 10
110.644
 20
211.621
 11
107.725
 21
212.776
  0
LINE
  8
0
 10
107.725
 20
212.776
 11
104.685
 21
213.557
  0
LINE
  8
0
 10
104.685
 20
213.557
 11
101.57
 21
213.951
  0
LINE
  8
0
 10
101.57
 20
213.951
 11
98.4302
 21
213.951
  0
LINE
  8
0
 10
98.4302
 20
213.951
 11
95.3155
 21
213.557
  0
LINE
  8
0
 10
95.3155
 20
213.557
 11
92.2746
 21
212.776
  0
LINE
  8
0
 10
92.2746
 20
212.776
 11
89.3555
 21
211.621
  0
LINE
  8
0
 10
89.3555
 20
211.621
 11
86.6043
 21
210.108
  0
LINE
  8
0
 10
86.6043
 20
210.108
 11
84.0644
 21
208.263
  0
LINE
  8
0
 10
84.0644
 20
208.263
 11
81.7758
 21
206.114
  0
LINE
  8
0
 10
81.7758
 20
206.114
 11
79.7746
 21
203.695
  0
LINE
  8
0
 10
79.7746
 20
203.695
 11
78.0923
 21
201.044
  0
LINE
  8
0
 10
78.0923
 20
201.044
 11
76.7556
 21
198.203
  0
LINE
  8
0
 10
76.7556
 20
198.203
 11
75.7854
 21
195.217
  0
LINE
  8
0
 10
75.7854
 20
195.217
 11
75.1971
 21
192.133
  0
LINE
  8
0
 10
75.1971
 20
192.133
 11
75
 21
189
  0
LINE
  8
0
 10
75
 20
189
 11
75.1971
 21
185.867
  0
LINE
  8
0
 10
75.1971
 20
185.867
 11
75.7854
 21
182.783
  0
LINE
  8
0
 10
75.7854
 20
182.783
 11
76.7556
 21
179.797
  0
LINE
  8
0
 10
76.7556
 20
179.797
 11
78.0923
 21
176.956
  0
LINE
  8
0
 10
78.0923
 20
176.956
 11
79.7746
 21
174.305
  0
LINE
  8
0
 10
79.7746
 20
174.305
 11
81.7758
 21
171.886
  0
LINE
  8
0
 10
81.7758
 20
171.886
 11
84.0644
 21
169.737
  0
LINE
  8
0
 10
84.0644
 20
169.737
 11
86.6043
 21
167.892
  0
LINE
  8
0
 10
86.6043
 20
167.892
 11
89.3555
 21
166.379
  0
LINE
  8
0
 10
89.3555
 20
166.379
 11
92.2746
 21
165.224
  0
LINE
  8
0
 10
92.2746
 20
165.224
 11
95.3155
 21
164.443
  0
LINE
  8
0
 10
95.3155
 20
164.443
 11
98.4302
 21
164.049
  0
LINE
  8
0
 10
98.4302
 20
164.049
 11
101.57
 21
164.049
  0
LINE
  8
0
 10
101.57
 20
164.049
 11
104.685
 21
164.443
  0
LINE
  8
0
 10
99.9058
 20
210.003
 11
99.7189
 21
210.027
  0
LINE
  8
0
 10
99.7189
 20
210.027
 11
99.5365
 21
210.073
  0
LINE
  8
0
 10
99.5365
 20
210.073
 11
99.3613
 21
210.143
  0
LINE
  8
0
 10
99.3613
 20
210.143
 11
99.1963
 21
210.234
  0
LINE
  8
0
 10
99.1963
 20
210.234
 11
99.0439
 21
210.344
  0
LINE
  8
0
 10
99.0439
 20
210.344
 11
98.9065
 21
210.473
  0
LINE
  8
0
 10
98.9065
 20
210.473
 11
98.7865
 21
210.618
  0
LINE
  8
0
 10
98.7865
 20
210.618
 11
98.6855
 21
210.777
  0
LINE
  8
0
 10
98.6855
 20
210.777
 11
98.6053
 21
210.948
  0
LINE
  8
0
 10
98.6053
 20
210.948
 11
98.5471
 21
211.127
  0
LINE
  8
0
 10
98.5471
 20
211.127
 11
98.5118
 21
211.312
  0
LINE
  8
0
 10
98.5118
 20
211.312
 11
98.5
 21
211.5
  0
LINE
  8
0
 10
98.5
 20
211.5
 11
98.5118
 21
211.688
  0
LINE
  8
0
 10
98.5118
 20
211.688
 11
98.5471
 21
211.873
  0
LINE
  8
0
 10
98.5471
 20
211.873
 11
98.6053
 21
212.052
  0
LINE
  8
0
 10
98.6053
 20
212.052
 11
98.6855
 21
212.223
  0
LINE
  8
0
 10
98.6855
 20
212.223
 11
98.7865
 21
212.382
  0
LINE
  8
0
 10
98.7865
 20
212.382
 11
98.9065
 21
212.527
  0
LINE
  8
0
 10
98.9065
 20
212.527
 11
99.0439
 21
212.656
  0
LINE
  8
0
 10
99.0439
 20
212.656
 11
99.1963
 21
212.766
  0
LINE
  8
0
 10
99.1963
 20
212.766
 11
99.3613
 21
212.857
  0
LINE
  8
0
 10
99.3613
 20
212.857
 11
99.5365
 21
212.927
  0
LINE
  8
0
 10
99.5365
 20
212.927
 11
99.7189
 21
212.973
  0
LINE
  8
0
 10
99.7189
 20
212.973
 11
99.9058
 21
212.997
  0
LINE
  8
0
 10
99.9058
 20
212.997
 11
100.094
 21
212.997
  0
LINE
  8
0
 10
100.094
 20
212.997
 11
100.281
 21
212.973
  0
LINE
  8
0
 10
100.281
 20
212.973
 11
100.464
 21
212.927
  0
LINE
  8
0
 10
100.464
 20
212.927
 11
100.639
 21
212.857
  0
LINE
  8
0
 10
100.639
 20
212.857
 11
100.804
 21
212.766
  0
LINE
  8
0
 10
100.804
 20
212.766
 11
100.956
 21
212.656
  0
LINE
  8
0
 10
100.956
 20
212.656
 11
101.093
 21
212.527
  0
LINE
  8
0
 10
101.093
 20
212.527
 11
101.214
 21
212.382
  0
LINE
  8
0
 10
101.214
 20
212.382
 11
101.314
 21
212.223
  0
LINE
  8
0
 10
101.314
 20
212.223
 11
101.395
 21
212.052
  0
LINE
  8
0
 10
101.395
 20
212.052
 11
101.453
 21
211.873
  0
LINE
  8
0
 10
101.453
 20
211.873
 11
101.488
 21
211.688
  0
LINE
  8
0
 10
101.488
 20
211.688
 11
101.5
 21
211.5
  0
LINE
  8
0
 10
101.5
 20
211.5
 11
101.488
 21
211.312
  0
LINE
  8
0
 10
101.488
 20
211.312
 11
101.453
 21
211.127
  0
LINE
  8
0
 10
101.453
 20
211.127
 11
101.395
 21
210.948
  0
LINE
  8
0
 10
101.395
 20
210.948
 11
101.314
 21
210.777
  0
LINE
  8
0
 10
101.314
 20
210.777
 11
101.214
 21
210.618
  0
LINE
  8
0
 10
101.214
 20
210.618
 11
101.093
 21
210.473
  0
LINE
  8
0
 10
101.093
 20
210.473
 11
100.956
 21
210.344
  0
LINE
  8
0
 10
100.956
 20
210.344
 11
100.804
 21
210.234
  0
LINE
  8
0
 10
100.804
 20
210.234
 11
100.639
 21
210.143
  0
LINE
  8
0
 10
100.639
 20
210.143
 11
100.464
 21
210.073
  0
LINE
  8
0
 10
100.464
 20
210.073
 11
100.281
 21
210.027
  0
LINE
  8
0
 10
100.281
 20
210.027
 11
100.094
 21
210.003
  0
LINE
  8
0
 10
100.094
 20
210.003
 11
99.9058
 21
210.003
  0
LINE
  8
0
 10
107.541
 20
205.682
 11
107.317
 21
205.71
  0
LINE
  8
0
 10
107.317
 20
205.71
 11
107.098
 21
205.766
  0
LINE
  8
0
 10
107.098
 20
205.766
 11
106.888
 21
205.849
  0
LINE
  8
0
 10
106.888
 20
205.849
 11
106.69
 21
205.958
  0
LINE
  8
0
 10
106.69
 20
205.958
 11
106.507
 21
206.091
  0
LINE
  8
0
 10
106.507
 20
206.091
 11
106.342
 21
206.246
  0
LINE
  8
0
 10
106.342
 20
206.246
 11
106.198
 21
206.42
  0
LINE
  8
0
 10
106.198
 20
206.42
 11
106.077
 21
206.611
  0
LINE
  8
0
 10
106.077
 20
206.611
 11
105.98
 21
206.815
  0
LINE
  8
0
 10
105.98
 20
206.815
 11
105.911
 21
207.03
  0
LINE
  8
0
 10
105.911
 20
207.03
 11
105.868
 21
207.252
  0
LINE
  8
0
 10
105.868
 20
207.252
 11
105.854
 21
207.478
  0
LINE
  8
0
 10
105.854
 20
207.478
 11
105.868
 21
207.704
  0
LINE
  8
0
 10
105.868
 20
207.704
 11
105.911
 21
207.926
  0
LINE
  8
0
 10
105.911
 20
207.926
 11
105.98
 21
208.141
  0
LINE
  8
0
 10
105.98
 20
208.141
 11
106.077
 21
208.345
  0
LINE
  8
0
 10
106.077
 20
208.345
 11
106.198
 21
208.536
  0
LINE
  8
0
 10
106.198
 20
208.536
 11
106.342
 21
208.71
  0
LINE
  8
0
 10
106.342
 20
208.71
 11
106.507
 21
208.865
  0
LINE
  8
0
 10
106.507
 20
208.865
 11
106.69
 21
208.998
  0
LINE
  8
0
 10
106.69
 20
208.998
 11
106.888
 21
209.107
  0
LINE
  8
0
 10
106.888
 20
209.107
 11
107.098
 21
209.19
  0
LINE
  8
0
 10
107.098
 20
209.19
 11
107.317
 21
209.246
  0
LINE
  8
0
 10
107.317
 20
209.246
 11
107.541
 21
209.274
  0
LINE
  8
0
 10
107.541
 20
209.274
 11
107.767
 21
209.274
  0
LINE
  8
0
 10
107.767
 20
209.274
 11
107.991
 21
209.246
  0
LINE
  8
0
 10
107.991
 20
209.246
 11
108.21
 21
209.19
  0
LINE
  8
0
 10
108.21
 20
209.19
 11
108.42
 21
209.107
  0
LINE
  8
0
 10
108.42
 20
209.107
 11
108.618
 21
208.998
  0
LINE
  8
0
 10
108.618
 20
208.998
 11
108.801
 21
208.865
  0
LINE
  8
0
 10
108.801
 20
208.865
 11
108.966
 21
208.71
  0
LINE
  8
0
 10
108.966
 20
208.71
 11
109.11
 21
208.536
  0
LINE
  8
0
 10
109.11
 20
208.536
 11
109.231
 21
208.345
  0
LINE
  8
0
 10
109.231
 20
208.345
 11
109.328
 21
208.141
  0
LINE
  8
0
 10
109.328
 20
208.141
 11
109.397
 21
207.926
  0
LINE
  8
0
 10
109.397
 20
207.926
 11
109.44
 21
207.704
  0
LINE
  8
0
 10
109.44
 20
207.704
 11
109.454
 21
207.478
  0
LINE
  8
0
 10
109.454
 20
207.478
 11
109.44
 21
207.252
  0
LINE
  8
0
 10
109.44
 20
207.252
 11
109.397
 21
207.03
  0
LINE
  8
0
 10
109.397
 20
207.03
 11
109.328
 21
206.815
  0
LINE
  8
0
 10
109.328
 20
206.815
 11
109.231
 21
206.611
  0
LINE
  8
0
 10
109.231
 20
206.611
 11
109.11
 21
206.42
  0
LINE
  8
0
 10
109.11
 20
206.42
 11
108.966
 21
206.246
  0
LINE
  8
0
 10
108.966
 20
206.246
 11
108.801
 21
206.091
  0
LINE
  8
0
 10
108.801
 20
206.091
 11
108.618
 21
205.958
  0
LINE
  8
0
 10
108.618
 20
205.958
 11
108.42
 21
205.849
  0
LINE
  8
0
 10
108.42
 20
205.849
 11
108.21
 21
205.766
  0
LINE
  8
0
 10
108.21
 20
205.766
 11
107.991
 21
205.71
  0
LINE
  8
0
 10
107.991
 20
205.71
 11
107.767
 21
205.682
  0
LINE
  8
0
 10
107.767
 20
205.682
 11
107.541
 21
205.682
  0
LINE
  8
0
 10
114.903
 20
202.453
 11
114.71
 21
202.477
  0
LINE
  8
0
 10
114.71
 20
202.477
 11
114.521
 21
202.526
  0
LINE
  8
0
 10
114.521
 20
202.526
 11
114.34
 21
202.598
  0
LINE
  8
0
 10
114.34
 20
202.598
 11
114.169
 21
202.691
  0
LINE
  8
0
 10
114.169
 20
202.691
 11
114.012
 21
202.806
  0
LINE
  8
0
 10
114.012
 20
202.806
 11
113.87
 21
202.939
  0
LINE
  8
0
 10
113.87
 20
202.939
 11
113.746
 21
203.089
  0
LINE
  8
0
 10
113.746
 20
203.089
 11
113.642
 21
203.253
  0
LINE
  8
0
 10
113.642
 20
203.253
 11
113.559
 21
203.429
  0
LINE
  8
0
 10
113.559
 20
203.429
 11
113.499
 21
203.615
  0
LINE
  8
0
 10
113.499
 20
203.615
 11
113.462
 21
203.806
  0
LINE
  8
0
 10
113.462
 20
203.806
 11
113.45
 21
204
  0
LINE
  8
0
 10
113.45
 20
204
 11
113.462
 21
204.194
  0
LINE
  8
0
 10
113.462
 20
204.194
 11
113.499
 21
204.385
  0
LINE
  8
0
 10
113.499
 20
204.385
 11
113.559
 21
204.571
  0
LINE
  8
0
 10
113.559
 20
204.571
 11
113.642
 21
204.747
  0
LINE
  8
0
 10
113.642
 20
204.747
 11
113.746
 21
204.911
  0
LINE
  8
0
 10
113.746
 20
204.911
 11
113.87
 21
205.061
  0
LINE
  8
0
 10
113.87
 20
205.061
 11
114.012
 21
205.194
  0
LINE
  8
0
 10
114.012
 20
205.194
 11
114.169
 21
205.309
  0
LINE
  8
0
 10
114.169
 20
205.309
 11
114.34
 21
205.402
  0
LINE
  8
0
 10
114.34
 20
205.402
 11
114.521
 21
205.474
  0
LINE
  8
0
 10
114.521
 20
205.474
 11
114.71
 21
205.523
  0
LINE
  8
0
 10
114.71
 20
205.523
 11
114.903
 21
205.547
  0
LINE
  8
0
 10
114.903
 20
205.547
 11
115.097
 21
205.547
  0
LINE
  8
0
 10
115.097
 20
205.547
 11
115.29
 21
205.523
  0
LINE
  8
0
 10
115.29
 20
205.523
 11
115.479
 21
205.474
  0
LINE
  8
0
 10
115.479
 20
205.474
 11
115.66
 21
205.402
  0
LINE
  8
0
 10
115.66
 20
205.402
 11
115.831
 21
205.309
  0
LINE
  8
0
 10
115.831
 20
205.309
 11
115.988
 21
205.194
  0
LINE
  8
0
 10
115.988
 20
205.194
 11
116.13
 21
205.061
  0
LINE
  8
0
 10
116.13
 20
205.061
 11
116.254
 21
204.911
  0
LINE
  8
0
 10
116.254
 20
204.911
 11
116.358
 21
204.747
  0
LINE
  8
0
 10
116.358
 20
204.747
 11
116.441
 21
204.571
  0
LINE
  8
0
 10
116.441
 20
204.571
 11
116.501
 21
204.385
  0
LINE
  8
0
 10
116.501
 20
204.385
 11
116.538
 21
204.194
  0
LINE
  8
0
 10
116.538
 20
204.194
 11
116.55
 21
204
  0
LINE
  8
0
 10
116.55
 20
204
 11
116.538
 21
203.806
  0
LINE
  8
0
 10
116.538
 20
203.806
 11
116.501
 21
203.615
  0
LINE
  8
0
 10
116.501
 20
203.615
 11
116.441
 21
203.429
  0
LINE
  8
0
 10
116.441
 20
203.429
 11
116.358
 21
203.253
  0
LINE
  8
0
 10
116.358
 20
203.253
 11
116.254
 21
203.089
  0
LINE
  8
0
 10
116.254
 20
203.089
 11
116.13
 21
202.939
  0
LINE
  8
0
 10
116.13
 20
202.939
 11
115.988
 21
202.806
  0
LINE
  8
0
 10
115.988
 20
202.806
 11
115.831
 21
202.691
  0
LINE
  8
0
 10
115.831
 20
202.691
 11
115.66
 21
202.598
  0
LINE
  8
0
 10
115.66
 20
202.598
 11
115.479
 21
202.526
  0
LINE
  8
0
 10
115.479
 20
202.526
 11
115.29
 21
202.477
  0
LINE
  8
0
 10
115.29
 20
202.477
 11
115.097
 21
202.453
  0
LINE
  8
0
 10
115.097
 20
202.453
 11
114.903
 21
202.453
  0
LINE
  8
0
 10
84.9027
 20
202.453
 11
84.7095
 21
202.477
  0
LINE
  8
0
 10
84.7095
 20
202.477
 11
84.521
 21
202.526
  0
LINE
  8
0
 10
84.521
 20
202.526
 11
84.34
 21
202.598
  0
LINE
  8
0
 10
84.34
 20
202.598
 11
84.1695
 21
202.691
  0
LINE
  8
0
 10
84.1695
 20
202.691
 11
84.012
 21
202.806
  0
LINE
  8
0
 10
84.012
 20
202.806
 11
83.8701
 21
202.939
  0
LINE
  8
0
 10
83.8701
 20
202.939
 11
83.746
 21
203.089
  0
LINE
  8
0
 10
83.746
 20
203.089
 11
83.6417
 21
203.253
  0
LINE
  8
0
 10
83.6417
 20
203.253
 11
83.5588
 21
203.429
  0
LINE
  8
0
 10
83.5588
 20
203.429
 11
83.4987
 21
203.615
  0
LINE
  8
0
 10
83.4987
 20
203.615
 11
83.4622
 21
203.806
  0
LINE
  8
0
 10
83.4622
 20
203.806
 11
83.45
 21
204
  0
LINE
  8
0
 10
83.45
 20
204
 11
83.4622
 21
204.194
  0
LINE
  8
0
 10
83.4622
 20
204.194
 11
83.4987
 21
204.385
  0
LINE
  8
0
 10
83.4987
 20
204.385
 11
83.5588
 21
204.571
  0
LINE
  8
0
 10
83.5588
 20
204.571
 11
83.6417
 21
204.747
  0
LINE
  8
0
 10
83.6417
 20
204.747
 11
83.746
 21
204.911
  0
LINE
  8
0
 10
83.746
 20
204.911
 11
83.8701
 21
205.061
  0
LINE
  8
0
 10
83.8701
 20
205.061
 11
84.012
 21
205.194
  0
LINE
  8
0
 10
84.012
 20
205.194
 11
84.1695
 21
205.309
  0
LINE
  8
0
 10
84.1695
 20
205.309
 11
84.34
 21
205.402
  0
LINE
  8
0
 10
84.34
 20
205.402
 11
84.521
 21
205.474
  0
LINE
  8
0
 10
84.521
 20
205.474
 11
84.7095
 21
205.523
  0
LINE
  8
0
 10
84.7095
 20
205.523
 11
84.9027
 21
205.547
  0
LINE
  8
0
 10
84.9027
 20
205.547
 11
85.0973
 21
205.547
  0
LINE
  8
0
 10
85.0973
 20
205.547
 11
85.2904
 21
205.523
  0
LINE
  8
0
 10
85.2904
 20
205.523
 11
85.479
 21
205.474
  0
LINE
  8
0
 10
85.479
 20
205.474
 11
85.66
 21
205.402
  0
LINE
  8
0
 10
85.66
 20
205.402
 11
85.8305
 21
205.309
  0
LINE
  8
0
 10
85.8305
 20
205.309
 11
85.988
 21
205.194
  0
LINE
  8
0
 10
85.988
 20
205.194
 11
86.1299
 21
205.061
  0
LINE
  8
0
 10
86.1299
 20
205.061
 11
86.254
 21
204.911
  0
LINE
  8
0
 10
86.254
 20
204.911
 11
86.3583
 21
204.747
  0
LINE
  8
0
 10
86.3583
 20
204.747
 11
86.4411
 21
204.571
  0
LINE
  8
0
 10
86.4411
 20
204.571
 11
86.5013
 21
204.385
  0
LINE
  8
0
 10
86.5013
 20
204.385
 11
86.5378
 21
204.194
  0
LINE
  8
0
 10
86.5378
 20
204.194
 11
86.55
 21
204
  0
LINE
  8
0
 10
86.55
 20
204
 11
86.5378
 21
203.806
  0
LINE
  8
0
 10
86.5378
 20
203.806
 11
86.5013
 21
203.615
  0
LINE
  8
0
 10
86.5013
 20
203.615
 11
86.4411
 21
203.429
  0
LINE
  8
0
 10
86.4411
 20
203.429
 11
86.3583
 21
203.253
  0
LINE
  8
0
 10
86.3583
 20
203.253
 11
86.254
 21
203.089
  0
LINE
  8
0
 10
86.254
 20
203.089
 11
86.1299
 21
202.939
  0
LINE
  8
0
 10
86.1299
 20
202.939
 11
85.988
 21
202.806
  0
LINE
  8
0
 10
85.988
 20
202.806
 11
85.8305
 21
202.691
  0
LINE
  8
0
 10
85.8305
 20
202.691
 11
85.66
 21
202.598
  0
LINE
  8
0
 10
85.66
 20
202.598
 11
85.479
 21
202.526
  0
LINE
  8
0
 10
85.479
 20
202.526
 11
85.2904
 21
202.477
  0
LINE
  8
0
 10
85.2904
 20
202.477
 11
85.0973
 21
202.453
  0
LINE
  8
0
 10
85.0973
 20
202.453
 11
84.9027
 21
202.453
  0
LINE
  8
0
 10
98.9953
 20
173.032
 11
97.0019
 21
173.283
  0
LINE
  8
0
 10
97.0019
 20
173.283
 11
95.0557
 21
173.783
  0
LINE
  8
0
 10
95.0557
 20
173.783
 11
93.1875
 21
174.523
  0
LINE
  8
0
 10
93.1875
 20
174.523
 11
91.4268
 21
175.491
  0
LINE
  8
0
 10
91.4268
 20
175.491
 11
89.8012
 21
176.672
  0
LINE
  8
0
 10
89.8012
 20
176.672
 11
88.3365
 21
178.047
  0
LINE
  8
0
 10
88.3365
 20
178.047
 11
87.0557
 21
179.595
  0
LINE
  8
0
 10
87.0557
 20
179.595
 11
85.9791
 21
181.292
  0
LINE
  8
0
 10
85.9791
 20
181.292
 11
85.1236
 21
183.11
  0
LINE
  8
0
 10
85.1236
 20
183.11
 11
84.5027
 21
185.021
  0
LINE
  8
0
 10
84.5027
 20
185.021
 11
84.1262
 21
186.995
  0
LINE
  8
0
 10
84.1262
 20
186.995
 11
84
 21
189
  0
LINE
  8
0
 10
84
 20
189
 11
84.1262
 21
191.005
  0
LINE
  8
0
 10
84.1262
 20
191.005
 11
84.5027
 21
192.979
  0
LINE
  8
0
 10
84.5027
 20
192.979
 11
85.1236
 21
194.89
  0
LINE
  8
0
 10
85.1236
 20
194.89
 11
85.9791
 21
196.708
  0
LINE
  8
0
 10
85.9791
 20
196.708
 11
87.0557
 21
198.405
  0
LINE
  8
0
 10
87.0557
 20
198.405
 11
88.3365
 21
199.953
  0
LINE
  8
0
 10
88.3365
 20
199.953
 11
89.8012
 21
201.328
  0
LINE
  8
0
 10
89.8012
 20
201.328
 11
91.4268
 21
202.509
  0
LINE
  8
0
 10
91.4268
 20
202.509
 11
93.1875
 21
203.477
  0
LINE
  8
0
 10
93.1875
 20
203.477
 11
95.0557
 21
204.217
  0
LINE
  8
0
 10
95.0557
 20
204.217
 11
97.0019
 21
204.717
  0
LINE
  8
0
 10
97.0019
 20
204.717
 11
98.9953
 21
204.968
  0
LINE
  8
0
 10
98.9953
 20
204.968
 11
101.005
 21
204.968
  0
LINE
  8
0
 10
101.005
 20
204.968
 11
102.998
 21
204.717
  0
LINE
  8
0
 10
102.998
 20
204.717
 11
104.944
 21
204.217
  0
LINE
  8
0
 10
104.944
 20
204.217
 11
106.812
 21
203.477
  0
LINE
  8
0
 10
106.812
 20
203.477
 11
108.573
 21
202.509
  0
LINE
  8
0
 10
108.573
 20
202.509
 11
110.199
 21
201.328
  0
LINE
  8
0
 10
110.199
 20
201.328
 11
111.663
 21
199.953
  0
LINE
  8
0
 10
111.663
 20
199.953
 11
112.944
 21
198.405
  0
LINE
  8
0
 10
112.944
 20
198.405
 11
114.021
 21
196.708
  0
LINE
  8
0
 10
114.021
 20
196.708
 11
114.876
 21
194.89
  0
LINE
  8
0
 10
114.876
 20
194.89
 11
115.497
 21
192.979
  0
LINE
  8
0
 10
115.497
 20
192.979
 11
115.874
 21
191.005
  0
LINE
  8
0
 10
115.874
 20
191.005
 11
116
 21
189
  0
LINE
  8
0
 10
116
 20
189
 11
115.874
 21
186.995
  0
LINE
  8
0
 10
115.874
 20
186.995
 11
115.497
 21
185.021
  0
LINE
  8
0
 10
115.497
 20
185.021
 11
114.876
 21
183.11
  0
LINE
  8
0
 10
114.876
 20
183.11
 11
114.021
 21
181.292
  0
LINE
  8
0
 10
114.021
 20
181.292
 11
112.944
 21
179.595
  0
LINE
  8
0
 10
112.944
 20
179.595
 11
111.663
 21
178.047
  0
LINE
  8
0
 10
111.663
 20
178.047
 11
110.199
 21
176.672
  0
LINE
  8
0
 10
110.199
 20
176.672
 11
108.573
 21
175.491
  0
LINE
  8
0
 10
108.573
 20
175.491
 11
106.812
 21
174.523
  0
LINE
  8
0
 10
106.812
 20
174.523
 11
104.944
 21
173.783
  0
LINE
  8
0
 10
104.944
 20
173.783
 11
102.998
 21
173.283
  0
LINE
  8
0
 10
102.998
 20
173.283
 11
101.005
 21
173.032
  0
LINE
  8
0
 10
101.005
 20
173.032
 11
98.9953
 21
173.032
  0
LINE
  8
0
 10
102.342
 20
176.721
 11
103.863
 21
177.112
  0
LINE
  8
0
 10
103.863
 20
177.112
 11
105.322
 21
177.69
  0
LINE
  8
0
 10
105.322
 20
177.69
 11
106.698
 21
178.446
  0
LINE
  8
0
 10
106.698
 20
178.446
 11
107.968
 21
179.369
  0
LINE
  8
0
 10
107.968
 20
179.369
 11
109.112
 21
180.443
  0
LINE
  8
0
 10
109.112
 20
180.443
 11
110.113
 21
181.653
  0
LINE
  8
0
 10
110.113
 20
181.653
 11
110.954
 21
182.978
  0
LINE
  8
0
 10
110.954
 20
182.978
 11
111.622
 21
184.398
  0
LINE
  8
0
 10
111.622
 20
184.398
 11
112.107
 21
185.891
  0
LINE
  8
0
 10
112.107
 20
185.891
 11
112.401
 21
187.433
  0
LINE
  8
0
 10
112.401
 20
187.433
 11
112.5
 21
189
  0
LINE
  8
0
 10
112.5
 20
189
 11
112.401
 21
190.567
  0
LINE
  8
0
 10
112.401
 20
190.567
 11
112.107
 21
192.109
  0
LINE
  8
0
 10
112.107
 20
192.109
 11
111.622
 21
193.602
  0
LINE
  8
0
 10
111.622
 20
193.602
 11
110.954
 21
195.022
  0
LINE
  8
0
 10
110.954
 20
195.022
 11
110.113
 21
196.347
  0
LINE
  8
0
 10
110.113
 20
196.347
 11
109.112
 21
197.557
  0
LINE
  8
0
 10
109.112
 20
197.557
 11
107.968
 21
198.631
  0
LINE
  8
0
 10
107.968
 20
198.631
 11
106.698
 21
199.554
  0
LINE
  8
0
 10
106.698
 20
199.554
 11
105.322
 21
200.31
  0
LINE
  8
0
 10
105.322
 20
200.31
 11
103.863
 21
200.888
  0
LINE
  8
0
 10
103.863
 20
200.888
 11
102.342
 21
201.279
  0
LINE
  8
0
 10
102.342
 20
201.279
 11
100.785
 21
201.475
  0
LINE
  8
0
 10
100.785
 20
201.475
 11
99.2151
 21
201.475
  0
LINE
  8
0
 10
99.2151
 20
201.475
 11
97.6577
 21
201.279
  0
LINE
  8
0
 10
97.6577
 20
201.279
 11
96.1373
 21
200.888
  0
LINE
  8
0
 10
96.1373
 20
200.888
 11
94.6777
 21
200.31
  0
LINE
  8
0
 10
94.6777
 20
200.31
 11
93.3022
 21
199.554
  0
LINE
  8
0
 10
93.3022
 20
199.554
 11
92.0322
 21
198.631
  0
LINE
  8
0
 10
92.0322
 20
198.631
 11
90.8879
 21
197.557
  0
LINE
  8
0
 10
90.8879
 20
197.557
 11
89.8873
 21
196.347
  0
LINE
  8
0
 10
89.8873
 20
196.347
 11
89.0462
 21
195.022
  0
LINE
  8
0
 10
89.0462
 20
195.022
 11
88.3778
 21
193.602
  0
LINE
  8
0
 10
88.3778
 20
193.602
 11
87.8927
 21
192.109
  0
LINE
  8
0
 10
87.8927
 20
192.109
 11
87.5986
 21
190.567
  0
LINE
  8
0
 10
87.5986
 20
190.567
 11
87.5
 21
189
  0
LINE
  8
0
 10
87.5
 20
189
 11
87.5986
 21
187.433
  0
LINE
  8
0
 10
87.5986
 20
187.433
 11
87.8927
 21
185.891
  0
LINE
  8
0
 10
87.8927
 20
185.891
 11
88.3778
 21
184.398
  0
LINE
  8
0
 10
88.3778
 20
184.398
 11
89.0462
 21
182.978
  0
LINE
  8
0
 10
89.0462
 20
182.978
 11
89.8873
 21
181.653
  0
LINE
  8
0
 10
89.8873
 20
181.653
 11
90.8879
 21
180.443
  0
LINE
  8
0
 10
90.8879
 20
180.443
 11
92.0322
 21
179.369
  0
LINE
  8
0
 10
92.0322
 20
179.369
 11
93.3022
 21
178.446
  0
LINE
  8
0
 10
93.3022
 20
178.446
 11
94.6777
 21
177.69
  0
LINE
  8
0
 10
94.6777
 20
177.69
 11
96.1373
 21
177.112
  0
LINE
  8
0
 10
96.1373
 20
177.112
 11
97.6577
 21
176.721
  0
LINE
  8
0
 10
97.6577
 20
176.721
 11
99.2151
 21
176.525
  0
LINE
  8
0
 10
99.2151
 20
176.525
 11
100.785
 21
176.525
  0
LINE
  8
0
 10
100.785
 20
176.525
 11
102.342
 21
176.721
  0
LINE
  8
0
 10
81.409
 20
194.858
 11
81.1847
 21
194.886
  0
LINE
  8
0
 10
81.1847
 20
194.886
 11
80.9658
 21
194.942
  0
LINE
  8
0
 10
80.9658
 20
194.942
 11
80.7556
 21
195.025
  0
LINE
  8
0
 10
80.7556
 20
195.025
 11
80.5575
 21
195.134
  0
LINE
  8
0
 10
80.5575
 20
195.134
 11
80.3746
 21
195.267
  0
LINE
  8
0
 10
80.3746
 20
195.267
 11
80.2099
 21
195.422
  0
LINE
  8
0
 10
80.2099
 20
195.422
 11
80.0658
 21
195.596
  0
LINE
  8
0
 10
80.0658
 20
195.596
 11
79.9446
 21
195.787
  0
LINE
  8
0
 10
79.9446
 20
195.787
 11
79.8484
 21
195.991
  0
LINE
  8
0
 10
79.8484
 20
195.991
 11
79.7785
 21
196.206
  0
LINE
  8
0
 10
79.7785
 20
196.206
 11
79.7362
 21
196.428
  0
LINE
  8
0
 10
79.7362
 20
196.428
 11
79.722
 21
196.654
  0
LINE
  8
0
 10
79.722
 20
196.654
 11
79.7362
 21
196.88
  0
LINE
  8
0
 10
79.7362
 20
196.88
 11
79.7785
 21
197.102
  0
LINE
  8
0
 10
79.7785
 20
197.102
 11
79.8484
 21
197.317
  0
LINE
  8
0
 10
79.8484
 20
197.317
 11
79.9446
 21
197.521
  0
LINE
  8
0
 10
79.9446
 20
197.521
 11
80.0658
 21
197.712
  0
LINE
  8
0
 10
80.0658
 20
197.712
 11
80.2099
 21
197.886
  0
LINE
  8
0
 10
80.2099
 20
197.886
 11
80.3746
 21
198.041
  0
LINE
  8
0
 10
80.3746
 20
198.041
 11
80.5575
 21
198.174
  0
LINE
  8
0
 10
80.5575
 20
198.174
 11
80.7556
 21
198.283
  0
LINE
  8
0
 10
80.7556
 20
198.283
 11
80.9658
 21
198.366
  0
LINE
  8
0
 10
80.9658
 20
198.366
 11
81.1847
 21
198.422
  0
LINE
  8
0
 10
81.1847
 20
198.422
 11
81.409
 21
198.45
  0
LINE
  8
0
 10
81.409
 20
198.45
 11
81.635
 21
198.45
  0
LINE
  8
0
 10
81.635
 20
198.45
 11
81.8593
 21
198.422
  0
LINE
  8
0
 10
81.8593
 20
198.422
 11
82.0782
 21
198.366
  0
LINE
  8
0
 10
82.0782
 20
198.366
 11
82.2884
 21
198.283
  0
LINE
  8
0
 10
82.2884
 20
198.283
 11
82.4865
 21
198.174
  0
LINE
  8
0
 10
82.4865
 20
198.174
 11
82.6694
 21
198.041
  0
LINE
  8
0
 10
82.6694
 20
198.041
 11
82.8341
 21
197.886
  0
LINE
  8
0
 10
82.8341
 20
197.886
 11
82.9782
 21
197.712
  0
LINE
  8
0
 10
82.9782
 20
197.712
 11
83.0993
 21
197.521
  0
LINE
  8
0
 10
83.0993
 20
197.521
 11
83.1956
 21
197.317
  0
LINE
  8
0
 10
83.1956
 20
197.317
 11
83.2654
 21
197.102
  0
LINE
  8
0
 10
83.2654
 20
197.102
 11
83.3078
 21
196.88
  0
LINE
  8
0
 10
83.3078
 20
196.88
 11
83.322
 21
196.654
  0
LINE
  8
0
 10
83.322
 20
196.654
 11
83.3078
 21
196.428
  0
LINE
  8
0
 10
83.3078
 20
196.428
 11
83.2654
 21
196.206
  0
LINE
  8
0
 10
83.2654
 20
196.206
 11
83.1956
 21
195.991
  0
LINE
  8
0
 10
83.1956
 20
195.991
 11
83.0993
 21
195.787
  0
LINE
  8
0
 10
83.0993
 20
195.787
 11
82.9782
 21
195.596
  0
LINE
  8
0
 10
82.9782
 20
195.596
 11
82.8341
 21
195.422
  0
LINE
  8
0
 10
82.8341
 20
195.422
 11
82.6694
 21
195.267
  0
LINE
  8
0
 10
82.6694
 20
195.267
 11
82.4865
 21
195.134
  0
LINE
  8
0
 10
82.4865
 20
195.134
 11
82.2884
 21
195.025
  0
LINE
  8
0
 10
82.2884
 20
195.025
 11
82.0782
 21
194.942
  0
LINE
  8
0
 10
82.0782
 20
194.942
 11
81.8593
 21
194.886
  0
LINE
  8
0
 10
81.8593
 20
194.886
 11
81.635
 21
194.858
  0
LINE
  8
0
 10
81.635
 20
194.858
 11
81.409
 21
194.858
  0
LINE
  8
0
 10
77.4058
 20
187.503
 11
77.2189
 21
187.527
  0
LINE
  8
0
 10
77.2189
 20
187.527
 11
77.0365
 21
187.573
  0
LINE
  8
0
 10
77.0365
 20
187.573
 11
76.8613
 21
187.643
  0
LINE
  8
0
 10
76.8613
 20
187.643
 11
76.6963
 21
187.734
  0
LINE
  8
0
 10
76.6963
 20
187.734
 11
76.5439
 21
187.844
  0
LINE
  8
0
 10
76.5439
 20
187.844
 11
76.4065
 21
187.973
  0
LINE
  8
0
 10
76.4065
 20
187.973
 11
76.2865
 21
188.118
  0
LINE
  8
0
 10
76.2865
 20
188.118
 11
76.1855
 21
188.277
  0
LINE
  8
0
 10
76.1855
 20
188.277
 11
76.1053
 21
188.448
  0
LINE
  8
0
 10
76.1053
 20
188.448
 11
76.0471
 21
188.627
  0
LINE
  8
0
 10
76.0471
 20
188.627
 11
76.0118
 21
188.812
  0
LINE
  8
0
 10
76.0118
 20
188.812
 11
76
 21
189
  0
LINE
  8
0
 10
76
 20
189
 11
76.0118
 21
189.188
  0
LINE
  8
0
 10
76.0118
 20
189.188
 11
76.0471
 21
189.373
  0
LINE
  8
0
 10
76.0471
 20
189.373
 11
76.1053
 21
189.552
  0
LINE
  8
0
 10
76.1053
 20
189.552
 11
76.1855
 21
189.723
  0
LINE
  8
0
 10
76.1855
 20
189.723
 11
76.2865
 21
189.882
  0
LINE
  8
0
 10
76.2865
 20
189.882
 11
76.4065
 21
190.027
  0
LINE
  8
0
 10
76.4065
 20
190.027
 11
76.5439
 21
190.156
  0
LINE
  8
0
 10
76.5439
 20
190.156
 11
76.6963
 21
190.266
  0
LINE
  8
0
 10
76.6963
 20
190.266
 11
76.8613
 21
190.357
  0
LINE
  8
0
 10
76.8613
 20
190.357
 11
77.0365
 21
190.427
  0
LINE
  8
0
 10
77.0365
 20
190.427
 11
77.2189
 21
190.473
  0
LINE
  8
0
 10
77.2189
 20
190.473
 11
77.4058
 21
190.497
  0
LINE
  8
0
 10
77.4058
 20
190.497
 11
77.5942
 21
190.497
  0
LINE
  8
0
 10
77.5942
 20
190.497
 11
77.7811
 21
190.473
  0
LINE
  8
0
 10
77.7811
 20
190.473
 11
77.9635
 21
190.427
  0
LINE
  8
0
 10
77.9635
 20
190.427
 11
78.1387
 21
190.357
  0
LINE
  8
0
 10
78.1387
 20
190.357
 11
78.3037
 21
190.266
  0
LINE
  8
0
 10
78.3037
 20
190.266
 11
78.4561
 21
190.156
  0
LINE
  8
0
 10
78.4561
 20
190.156
 11
78.5934
 21
190.027
  0
LINE
  8
0
 10
78.5934
 20
190.027
 11
78.7135
 21
189.882
  0
LINE
  8
0
 10
78.7135
 20
189.882
 11
78.8145
 21
189.723
  0
LINE
  8
0
 10
78.8145
 20
189.723
 11
78.8947
 21
189.552
  0
LINE
  8
0
 10
78.8947
 20
189.552
 11
78.9529
 21
189.373
  0
LINE
  8
0
 10
78.9529
 20
189.373
 11
78.9882
 21
189.188
  0
LINE
  8
0
 10
78.9882
 20
189.188
 11
79
 21
189
  0
LINE
  8
0
 10
79
 20
189
 11
78.9882
 21
188.812
  0
LINE
  8
0
 10
78.9882
 20
188.812
 11
78.9529
 21
188.627
  0
LINE
  8
0
 10
78.9529
 20
188.627
 11
78.8947
 21
188.448
  0
LINE
  8
0
 10
78.8947
 20
188.448
 11
78.8145
 21
188.277
  0
LINE
  8
0
 10
78.8145
 20
188.277
 11
78.7135
 21
188.118
  0
LINE
  8
0
 10
78.7135
 20
188.118
 11
78.5934
 21
187.973
  0
LINE
  8
0
 10
78.5934
 20
187.973
 11
78.4561
 21
187.844
  0
LINE
  8
0
 10
78.4561
 20
187.844
 11
78.3037
 21
187.734
  0
LINE
  8
0
 10
78.3037
 20
187.734
 11
78.1387
 21
187.643
  0
LINE
  8
0
 10
78.1387
 20
187.643
 11
77.9635
 21
187.573
  0
LINE
  8
0
 10
77.9635
 20
187.573
 11
77.7811
 21
187.527
  0
LINE
  8
0
 10
77.7811
 20
187.527
 11
77.5942
 21
187.503
  0
LINE
  8
0
 10
77.5942
 20
187.503
 11
77.4058
 21
187.503
  0
LINE
  8
0
 10
122.406
 20
187.503
 11
122.219
 21
187.527
  0
LINE
  8
0
 10
122.219
 20
187.527
 11
122.036
 21
187.573
  0
LINE
  8
0
 10
122.036
 20
187.573
 11
121.861
 21
187.643
  0
LINE
  8
0
 10
121.861
 20
187.643
 11
121.696
 21
187.734
  0
LINE
  8
0
 10
121.696
 20
187.734
 11
121.544
 21
187.844
  0
LINE
  8
0
 10
121.544
 20
187.844
 11
121.407
 21
187.973
  0
LINE
  8
0
 10
121.407
 20
187.973
 11
121.286
 21
188.118
  0
LINE
  8
0
 10
121.286
 20
188.118
 11
121.186
 21
188.277
  0
LINE
  8
0
 10
121.186
 20
188.277
 11
121.105
 21
188.448
  0
LINE
  8
0
 10
121.105
 20
188.448
 11
121.047
 21
188.627
  0
LINE
  8
0
 10
121.047
 20
188.627
 11
121.012
 21
188.812
  0
LINE
  8
0
 10
121.012
 20
188.812
 11
121
 21
189
  0
LINE
  8
0
 10
121
 20
189
 11
121.012
 21
189.188
  0
LINE
  8
0
 10
121.012
 20
189.188
 11
121.047
 21
189.373
  0
LINE
  8
0
 10
121.047
 20
189.373
 11
121.105
 21
189.552
  0
LINE
  8
0
 10
121.105
 20
189.552
 11
121.186
 21
189.723
  0
LINE
  8
0
 10
121.186
 20
189.723
 11
121.286
 21
189.882
  0
LINE
  8
0
 10
121.286
 20
189.882
 11
121.407
 21
190.027
  0
LINE
  8
0
 10
121.407
 20
190.027
 11
121.544
 21
190.156
  0
LINE
  8
0
 10
121.544
 20
190.156
 11
121.696
 21
190.266
  0
LINE
  8
0
 10
121.696
 20
190.266
 11
121.861
 21
190.357
  0
LINE
  8
0
 10
121.861
 20
190.357
 11
122.036
 21
190.427
  0
LINE
  8
0
 10
122.036
 20
190.427
 11
122.219
 21
190.473
  0
LINE
  8
0
 10
122.219
 20
190.473
 11
122.406
 21
190.497
  0
LINE
  8
0
 10
122.406
 20
190.497
 11
122.594
 21
190.497
  0
LINE
  8
0
 10
122.594
 20
190.497
 11
122.781
 21
190.473
  0
LINE
  8
0
 10
122.781
 20
190.473
 11
122.964
 21
190.427
  0
LINE
  8
0
 10
122.964
 20
190.427
 11
123.139
 21
190.357
  0
LINE
  8
0
 10
123.139
 20
190.357
 11
123.304
 21
190.266
  0
LINE
  8
0
 10
123.304
 20
190.266
 11
123.456
 21
190.156
  0
LINE
  8
0
 10
123.456
 20
190.156
 11
123.593
 21
190.027
  0
LINE
  8
0
 10
123.593
 20
190.027
 11
123.714
 21
189.882
  0
LINE
  8
0
 10
123.714
 20
189.882
 11
123.814
 21
189.723
  0
LINE
  8
0
 10
123.814
 20
189.723
 11
123.895
 21
189.552
  0
LINE
  8
0
 10
123.895
 20
189.552
 11
123.953
 21
189.373
  0
LINE
  8
0
 10
123.953
 20
189.373
 11
123.988
 21
189.188
  0
LINE
  8
0
 10
123.988
 20
189.188
 11
124
 21
189
  0
LINE
  8
0
 10
124
 20
189
 11
123.988
 21
188.812
  0
LINE
  8
0
 10
123.988
 20
188.812
 11
123.953
 21
188.627
  0
LINE
  8
0
 10
123.953
 20
188.627
 11
123.895
 21
188.448
  0
LINE
  8
0
 10
123.895
 20
188.448
 11
123.814
 21
188.277
  0
LINE
  8
0
 10
123.814
 20
188.277
 11
123.714
 21
188.118
  0
LINE
  8
0
 10
123.714
 20
188.118
 11
123.593
 21
187.973
  0
LINE
  8
0
 10
123.593
 20
187.973
 11
123.456
 21
187.844
  0
LINE
  8
0
 10
123.456
 20
187.844
 11
123.304
 21
187.734
  0
LINE
  8
0
 10
123.304
 20
187.734
 11
123.139
 21
187.643
  0
LINE
  8
0
 10
123.139
 20
187.643
 11
122.964
 21
187.573
  0
LINE
  8
0
 10
122.964
 20
187.573
 11
122.781
 21
187.527
  0
LINE
  8
0
 10
122.781
 20
187.527
 11
122.594
 21
187.503
  0
LINE
  8
0
 10
122.594
 20
187.503
 11
122.406
 21
187.503
  0
LINE
  8
0
 10
118.365
 20
179.55
 11
118.141
 21
179.578
  0
LINE
  8
0
 10
118.141
 20
179.578
 11
117.922
 21
179.634
  0
LINE
  8
0
 10
117.922
 20
179.634
 11
117.712
 21
179.717
  0
LINE
  8
0
 10
117.712
 20
179.717
 11
117.514
 21
179.826
  0
LINE
  8
0
 10
117.514
 20
179.826
 11
117.331
 21
179.959
  0
LINE
  8
0
 10
117.331
 20
179.959
 11
117.166
 21
180.114
  0
LINE
  8
0
 10
117.166
 20
180.114
 11
117.022
 21
180.288
  0
LINE
  8
0
 10
117.022
 20
180.288
 11
116.901
 21
180.479
  0
LINE
  8
0
 10
116.901
 20
180.479
 11
116.804
 21
180.683
  0
LINE
  8
0
 10
116.804
 20
180.683
 11
116.735
 21
180.898
  0
LINE
  8
0
 10
116.735
 20
180.898
 11
116.692
 21
181.12
  0
LINE
  8
0
 10
116.692
 20
181.12
 11
116.678
 21
181.346
  0
LINE
  8
0
 10
116.678
 20
181.346
 11
116.692
 21
181.572
  0
LINE
  8
0
 10
116.692
 20
181.572
 11
116.735
 21
181.794
  0
LINE
  8
0
 10
116.735
 20
181.794
 11
116.804
 21
182.009
  0
LINE
  8
0
 10
116.804
 20
182.009
 11
116.901
 21
182.213
  0
LINE
  8
0
 10
116.901
 20
182.213
 11
117.022
 21
182.404
  0
LINE
  8
0
 10
117.022
 20
182.404
 11
117.166
 21
182.578
  0
LINE
  8
0
 10
117.166
 20
182.578
 11
117.331
 21
182.733
  0
LINE
  8
0
 10
117.331
 20
182.733
 11
117.514
 21
182.866
  0
LINE
  8
0
 10
117.514
 20
182.866
 11
117.712
 21
182.975
  0
LINE
  8
0
 10
117.712
 20
182.975
 11
117.922
 21
183.058
  0
LINE
  8
0
 10
117.922
 20
183.058
 11
118.141
 21
183.114
  0
LINE
  8
0
 10
118.141
 20
183.114
 11
118.365
 21
183.142
  0
LINE
  8
0
 10
118.365
 20
183.142
 11
118.591
 21
183.142
  0
LINE
  8
0
 10
118.591
 20
183.142
 11
118.815
 21
183.114
  0
LINE
  8
0
 10
118.815
 20
183.114
 11
119.034
 21
183.058
  0
LINE
  8
0
 10
119.034
 20
183.058
 11
119.244
 21
182.975
  0
LINE
  8
0
 10
119.244
 20
182.975
 11
119.442
 21
182.866
  0
LINE
  8
0
 10
119.442
 20
182.866
 11
119.625
 21
182.733
  0
LINE
  8
0
 10
119.625
 20
182.733
 11
119.79
 21
182.578
  0
LINE
  8
0
 10
119.79
 20
182.578
 11
119.934
 21
182.404
  0
LINE
  8
0
 10
119.934
 20
182.404
 11
120.055
 21
182.213
  0
LINE
  8
0
 10
120.055
 20
182.213
 11
120.152
 21
182.009
  0
LINE
  8
0
 10
120.152
 20
182.009
 11
120.221
 21
181.794
  0
LINE
  8
0
 10
120.221
 20
181.794
 11
120.264
 21
181.572
  0
LINE
  8
0
 10
120.264
 20
181.572
 11
120.278
 21
181.346
  0
LINE
  8
0
 10
120.278
 20
181.346
 11
120.264
 21
181.12
  0
LINE
  8
0
 10
120.264
 20
181.12
 11
120.221
 21
180.898
  0
LINE
  8
0
 10
120.221
 20
180.898
 11
120.152
 21
180.683
  0
LINE
  8
0
 10
120.152
 20
180.683
 11
120.055
 21
180.479
  0
LINE
  8
0
 10
120.055
 20
180.479
 11
119.934
 21
180.288
  0
LINE
  8
0
 10
119.934
 20
180.288
 11
119.79
 21
180.114
  0
LINE
  8
0
 10
119.79
 20
180.114
 11
119.625
 21
179.959
  0
LINE
  8
0
 10
119.625
 20
179.959
 11
119.442
 21
179.826
  0
LINE
  8
0
 10
119.442
 20
179.826
 11
119.244
 21
179.717
  0
LINE
  8
0
 10
119.244
 20
179.717
 11
119.034
 21
179.634
  0
LINE
  8
0
 10
119.034
 20
179.634
 11
118.815
 21
179.578
  0
LINE
  8
0
 10
118.815
 20
179.578
 11
118.591
 21
179.55
  0
LINE
  8
0
 10
118.591
 20
179.55
 11
118.365
 21
179.55
  0
LINE
  8
0
 10
114.903
 20
172.453
 11
114.71
 21
172.477
  0
LINE
  8
0
 10
114.71
 20
172.477
 11
114.521
 21
172.526
  0
LINE
  8
0
 10
114.521
 20
172.526
 11
114.34
 21
172.598
  0
LINE
  8
0
 10
114.34
 20
172.598
 11
114.169
 21
172.691
  0
LINE
  8
0
 10
114.169
 20
172.691
 11
114.012
 21
172.806
  0
LINE
  8
0
 10
114.012
 20
172.806
 11
113.87
 21
172.939
  0
LINE
  8
0
 10
113.87
 20
172.939
 11
113.746
 21
173.089
  0
LINE
  8
0
 10
113.746
 20
173.089
 11
113.642
 21
173.253
  0
LINE
  8
0
 10
113.642
 20
173.253
 11
113.559
 21
173.429
  0
LINE
  8
0
 10
113.559
 20
173.429
 11
113.499
 21
173.615
  0
LINE
  8
0
 10
113.499
 20
173.615
 11
113.462
 21
173.806
  0
LINE
  8
0
 10
113.462
 20
173.806
 11
113.45
 21
174
  0
LINE
  8
0
 10
113.45
 20
174
 11
113.462
 21
174.194
  0
LINE
  8
0
 10
113.462
 20
174.194
 11
113.499
 21
174.385
  0
LINE
  8
0
 10
113.499
 20
174.385
 11
113.559
 21
174.571
  0
LINE
  8
0
 10
113.559
 20
174.571
 11
113.642
 21
174.747
  0
LINE
  8
0
 10
113.642
 20
174.747
 11
113.746
 21
174.911
  0
LINE
  8
0
 10
113.746
 20
174.911
 11
113.87
 21
175.061
  0
LINE
  8
0
 10
113.87
 20
175.061
 11
114.012
 21
175.194
  0
LINE
  8
0
 10
114.012
 20
175.194
 11
114.169
 21
175.309
  0
LINE
  8
0
 10
114.169
 20
175.309
 11
114.34
 21
175.402
  0
LINE
  8
0
 10
114.34
 20
175.402
 11
114.521
 21
175.474
  0
LINE
  8
0
 10
114.521
 20
175.474
 11
114.71
 21
175.523
  0
LINE
  8
0
 10
114.71
 20
175.523
 11
114.903
 21
175.547
  0
LINE
  8
0
 10
114.903
 20
175.547
 11
115.097
 21
175.547
  0
LINE
  8
0
 10
115.097
 20
175.547
 11
115.29
 21
175.523
  0
LINE
  8
0
 10
115.29
 20
175.523
 11
115.479
 21
175.474
  0
LINE
  8
0
 10
115.479
 20
175.474
 11
115.66
 21
175.402
  0
LINE
  8
0
 10
115.66
 20
175.402
 11
115.831
 21
175.309
  0
LINE
  8
0
 10
115.831
 20
175.309
 11
115.988
 21
175.194
  0
LINE
  8
0
 10
115.988
 20
175.194
 11
116.13
 21
175.061
  0
LINE
  8
0
 10
116.13
 20
175.061
 11
116.254
 21
174.911
  0
LINE
  8
0
 10
116.254
 20
174.911
 11
116.358
 21
174.747
  0
LINE
  8
0
 10
116.358
 20
174.747
 11
116.441
 21
174.571
  0
LINE
  8
0
 10
116.441
 20
174.571
 11
116.501
 21
174.385
  0
LINE
  8
0
 10
116.501
 20
174.385
 11
116.538
 21
174.194
  0
LINE
  8
0
 10
116.538
 20
174.194
 11
116.55
 21
174
  0
LINE
  8
0
 10
116.55
 20
174
 11
116.538
 21
173.806
  0
LINE
  8
0
 10
116.538
 20
173.806
 11
116.501
 21
173.615
  0
LINE
  8
0
 10
116.501
 20
173.615
 11
116.441
 21
173.429
  0
LINE
  8
0
 10
116.441
 20
173.429
 11
116.358
 21
173.253
  0
LINE
  8
0
 10
116.358
 20
173.253
 11
116.254
 21
173.089
  0
LINE
  8
0
 10
116.254
 20
173.089
 11
116.13
 21
172.939
  0
LINE
  8
0
 10
116.13
 20
172.939
 11
115.988
 21
172.806
  0
LINE
  8
0
 10
115.988
 20
172.806
 11
115.831
 21
172.691
  0
LINE
  8
0
 10
115.831
 20
172.691
 11
115.66
 21
172.598
  0
LINE
  8
0
 10
115.66
 20
172.598
 11
115.479
 21
172.526
  0
LINE
  8
0
 10
115.479
 20
172.526
 11
115.29
 21
172.477
  0
LINE
  8
0
 10
115.29
 20
172.477
 11
115.097
 21
172.453
  0
LINE
  8
0
 10
115.097
 20
172.453
 11
114.903
 21
172.453
  0
LINE
  8
0
 10
84.9027
 20
172.453
 11
84.7095
 21
172.477
  0
LINE
  8
0
 10
84.7095
 20
172.477
 11
84.521
 21
172.526
  0
LINE
  8
0
 10
84.521
 20
172.526
 11
84.34
 21
172.598
  0
LINE
  8
0
 10
84.34
 20
172.598
 11
84.1695
 21
172.691
  0
LINE
  8
0
 10
84.1695
 20
172.691
 11
84.012
 21
172.806
  0
LINE
  8
0
 10
84.012
 20
172.806
 11
83.8701
 21
172.939
  0
LINE
  8
0
 10
83.8701
 20
172.939
 11
83.746
 21
173.089
  0
LINE
  8
0
 10
83.746
 20
173.089
 11
83.6417
 21
173.253
  0
LINE
  8
0
 10
83.6417
 20
173.253
 11
83.5588
 21
173.429
  0
LINE
  8
0
 10
83.5588
 20
173.429
 11
83.4987
 21
173.615
  0
LINE
  8
0
 10
83.4987
 20
173.615
 11
83.4622
 21
173.806
  0
LINE
  8
0
 10
83.4622
 20
173.806
 11
83.45
 21
174
  0
LINE
  8
0
 10
83.45
 20
174
 11
83.4622
 21
174.194
  0
LINE
  8
0
 10
83.4622
 20
174.194
 11
83.4987
 21
174.385
  0
LINE
  8
0
 10
83.4987
 20
174.385
 11
83.5588
 21
174.571
  0
LINE
  8
0
 10
83.5588
 20
174.571
 11
83.6417
 21
174.747
  0
LINE
  8
0
 10
83.6417
 20
174.747
 11
83.746
 21
174.911
  0
LINE
  8
0
 10
83.746
 20
174.911
 11
83.8701
 21
175.061
  0
LINE
  8
0
 10
83.8701
 20
175.061
 11
84.012
 21
175.194
  0
LINE
  8
0
 10
84.012
 20
175.194
 11
84.1695
 21
175.309
  0
LINE
  8
0
 10
84.1695
 20
175.309
 11
84.34
 21
175.402
  0
LINE
  8
0
 10
84.34
 20
175.402
 11
84.521
 21
175.474
  0
LINE
  8
0
 10
84.521
 20
175.474
 11
84.7095
 21
175.523
  0
LINE
  8
0
 10
84.7095
 20
175.523
 11
84.9027
 21
175.547
  0
LINE
  8
0
 10
84.9027
 20
175.547
 11
85.0973
 21
175.547
  0
LINE
  8
0
 10
85.0973
 20
175.547
 11
85.2904
 21
175.523
  0
LINE
  8
0
 10
85.2904
 20
175.523
 11
85.479
 21
175.474
  0
LINE
  8
0
 10
85.479
 20
175.474
 11
85.66
 21
175.402
  0
LINE
  8
0
 10
85.66
 20
175.402
 11
85.8305
 21
175.309
  0
LINE
  8
0
 10
85.8305
 20
175.309
 11
85.988
 21
175.194
  0
LINE
  8
0
 10
85.988
 20
175.194
 11
86.1299
 21
175.061
  0
LINE
  8
0
 10
86.1299
 20
175.061
 11
86.254
 21
174.911
  0
LINE
  8
0
 10
86.254
 20
174.911
 11
86.3583
 21
174.747
  0
LINE
  8
0
 10
86.3583
 20
174.747
 11
86.4411
 21
174.571
  0
LINE
  8
0
 10
86.4411
 20
174.571
 11
86.5013
 21
174.385
  0
LINE
  8
0
 10
86.5013
 20
174.385
 11
86.5378
 21
174.194
  0
LINE
  8
0
 10
86.5378
 20
174.194
 11
86.55
 21
174
  0
LINE
  8
0
 10
86.55
 20
174
 11
86.5378
 21
173.806
  0
LINE
  8
0
 10
86.5378
 20
173.806
 11
86.5013
 21
173.615
  0
LINE
  8
0
 10
86.5013
 20
173.615
 11
86.4411
 21
173.429
  0
LINE
  8
0
 10
86.4411
 20
173.429
 11
86.3583
 21
173.253
  0
LINE
  8
0
 10
86.3583
 20
173.253
 11
86.254
 21
173.089
  0
LINE
  8
0
 10
86.254
 20
173.089
 11
86.1299
 21
172.939
  0
LINE
  8
0
 10
86.1299
 20
172.939
 11
85.988
 21
172.806
  0
LINE
  8
0
 10
85.988
 20
172.806
 11
85.8305
 21
172.691
  0
LINE
  8
0
 10
85.8305
 20
172.691
 11
85.66
 21
172.598
  0
LINE
  8
0
 10
85.66
 20
172.598
 11
85.479
 21
172.526
  0
LINE
  8
0
 10
85.479
 20
172.526
 11
85.2904
 21
172.477
  0
LINE
  8
0
 10
85.2904
 20
172.477
 11
85.0973
 21
172.453
  0
LINE
  8
0
 10
85.0973
 20
172.453
 11
84.9027
 21
172.453
  0
LINE
  8
0
 10
92.233
 20
168.726
 11
92.0087
 21
168.754
  0
LINE
  8
0
 10
92.0087
 20
168.754
 11
91.7898
 21
168.81
  0
LINE
  8
0
 10
91.7898
 20
168.81
 11
91.5796
 21
168.893
  0
LINE
  8
0
 10
91.5796
 20
168.893
 11
91.3815
 21
169.002
  0
LINE
  8
0
 10
91.3815
 20
169.002
 11
91.1986
 21
169.135
  0
LINE
  8
0
 10
91.1986
 20
169.135
 11
91.0339
 21
169.29
  0
LINE
  8
0
 10
91.0339
 20
169.29
 11
90.8898
 21
169.464
  0
LINE
  8
0
 10
90.8898
 20
169.464
 11
90.7686
 21
169.655
  0
LINE
  8
0
 10
90.7686
 20
169.655
 11
90.6724
 21
169.859
  0
LINE
  8
0
 10
90.6724
 20
169.859
 11
90.6026
 21
170.074
  0
LINE
  8
0
 10
90.6026
 20
170.074
 11
90.5602
 21
170.296
  0
LINE
  8
0
 10
90.5602
 20
170.296
 11
90.546
 21
170.522
  0
LINE
  8
0
 10
90.546
 20
170.522
 11
90.5602
 21
170.748
  0
LINE
  8
0
 10
90.5602
 20
170.748
 11
90.6026
 21
170.97
  0
LINE
  8
0
 10
90.6026
 20
170.97
 11
90.6724
 21
171.185
  0
LINE
  8
0
 10
90.6724
 20
171.185
 11
90.7686
 21
171.389
  0
LINE
  8
0
 10
90.7686
 20
171.389
 11
90.8898
 21
171.58
  0
LINE
  8
0
 10
90.8898
 20
171.58
 11
91.0339
 21
171.754
  0
LINE
  8
0
 10
91.0339
 20
171.754
 11
91.1986
 21
171.909
  0
LINE
  8
0
 10
91.1986
 20
171.909
 11
91.3815
 21
172.042
  0
LINE
  8
0
 10
91.3815
 20
172.042
 11
91.5796
 21
172.151
  0
LINE
  8
0
 10
91.5796
 20
172.151
 11
91.7898
 21
172.234
  0
LINE
  8
0
 10
91.7898
 20
172.234
 11
92.0087
 21
172.29
  0
LINE
  8
0
 10
92.0087
 20
172.29
 11
92.233
 21
172.318
  0
LINE
  8
0
 10
92.233
 20
172.318
 11
92.459
 21
172.318
  0
LINE
  8
0
 10
92.459
 20
172.318
 11
92.6833
 21
172.29
  0
LINE
  8
0
 10
92.6833
 20
172.29
 11
92.9022
 21
172.234
  0
LINE
  8
0
 10
92.9022
 20
172.234
 11
93.1124
 21
172.151
  0
LINE
  8
0
 10
93.1124
 20
172.151
 11
93.3105
 21
172.042
  0
LINE
  8
0
 10
93.3105
 20
172.042
 11
93.4934
 21
171.909
  0
LINE
  8
0
 10
93.4934
 20
171.909
 11
93.6581
 21
171.754
  0
LINE
  8
0
 10
93.6581
 20
171.754
 11
93.8022
 21
171.58
  0
LINE
  8
0
 10
93.8022
 20
171.58
 11
93.9234
 21
171.389
  0
LINE
  8
0
 10
93.9234
 20
171.389
 11
94.0196
 21
171.185
  0
LINE
  8
0
 10
94.0196
 20
171.185
 11
94.0894
 21
170.97
  0
LINE
  8
0
 10
94.0894
 20
170.97
 11
94.1318
 21
170.748
  0
LINE
  8
0
 10
94.1318
 20
170.748
 11
94.146
 21
170.522
  0
LINE
  8
0
 10
94.146
 20
170.522
 11
94.1318
 21
170.296
  0
LINE
  8
0
 10
94.1318
 20
170.296
 11
94.0894
 21
170.074
  0
LINE
  8
0
 10
94.0894
 20
170.074
 11
94.0196
 21
169.859
  0
LINE
  8
0
 10
94.0196
 20
169.859
 11
93.9234
 21
169.655
  0
LINE
  8
0
 10
93.9234
 20
169.655
 11
93.8022
 21
169.464
  0
LINE
  8
0
 10
93.8022
 20
169.464
 11
93.6581
 21
169.29
  0
LINE
  8
0
 10
93.6581
 20
169.29
 11
93.4934
 21
169.135
  0
LINE
  8
0
 10
93.4934
 20
169.135
 11
93.3105
 21
169.002
  0
LINE
  8
0
 10
93.3105
 20
169.002
 11
93.1124
 21
168.893
  0
LINE
  8
0
 10
93.1124
 20
168.893
 11
92.9022
 21
168.81
  0
LINE
  8
0
 10
92.9022
 20
168.81
 11
92.6833
 21
168.754
  0
LINE
  8
0
 10
92.6833
 20
168.754
 11
92.459
 21
168.726
  0
LINE
  8
0
 10
92.459
 20
168.726
 11
92.233
 21
168.726
  0
LINE
  8
0
 10
99.9058
 20
165.003
 11
99.7189
 21
165.027
  0
LINE
  8
0
 10
99.7189
 20
165.027
 11
99.5365
 21
165.073
  0
LINE
  8
0
 10
99.5365
 20
165.073
 11
99.3613
 21
165.143
  0
LINE
  8
0
 10
99.3613
 20
165.143
 11
99.1963
 21
165.234
  0
LINE
  8
0
 10
99.1963
 20
165.234
 11
99.0439
 21
165.344
  0
LINE
  8
0
 10
99.0439
 20
165.344
 11
98.9065
 21
165.473
  0
LINE
  8
0
 10
98.9065
 20
165.473
 11
98.7865
 21
165.618
  0
LINE
  8
0
 10
98.7865
 20
165.618
 11
98.6855
 21
165.777
  0
LINE
  8
0
 10
98.6855
 20
165.777
 11
98.6053
 21
165.948
  0
LINE
  8
0
 10
98.6053
 20
165.948
 11
98.5471
 21
166.127
  0
LINE
  8
0
 10
98.5471
 20
166.127
 11
98.5118
 21
166.312
  0
LINE
  8
0
 10
98.5118
 20
166.312
 11
98.5
 21
166.5
  0
LINE
  8
0
 10
98.5
 20
166.5
 11
98.5118
 21
166.688
  0
LINE
  8
0
 10
98.5118
 20
166.688
 11
98.5471
 21
166.873
  0
LINE
  8
0
 10
98.5471
 20
166.873
 11
98.6053
 21
167.052
  0
LINE
  8
0
 10
98.6053
 20
167.052
 11
98.6855
 21
167.223
  0
LINE
  8
0
 10
98.6855
 20
167.223
 11
98.7865
 21
167.382
  0
LINE
  8
0
 10
98.7865
 20
167.382
 11
98.9065
 21
167.527
  0
LINE
  8
0
 10
98.9065
 20
167.527
 11
99.0439
 21
167.656
  0
LINE
  8
0
 10
99.0439
 20
167.656
 11
99.1963
 21
167.766
  0
LINE
  8
0
 10
99.1963
 20
167.766
 11
99.3613
 21
167.857
  0
LINE
  8
0
 10
99.3613
 20
167.857
 11
99.5365
 21
167.927
  0
LINE
  8
0
 10
99.5365
 20
167.927
 11
99.7189
 21
167.973
  0
LINE
  8
0
 10
99.7189
 20
167.973
 11
99.9058
 21
167.997
  0
LINE
  8
0
 10
99.9058
 20
167.997
 11
100.094
 21
167.997
  0
LINE
  8
0
 10
100.094
 20
167.997
 11
100.281
 21
167.973
  0
LINE
  8
0
 10
100.281
 20
167.973
 11
100.464
 21
167.927
  0
LINE
  8
0
 10
100.464
 20
167.927
 11
100.639
 21
167.857
  0
LINE
  8
0
 10
100.639
 20
167.857
 11
100.804
 21
167.766
  0
LINE
  8
0
 10
100.804
 20
167.766
 11
100.956
 21
167.656
  0
LINE
  8
0
 10
100.956
 20
167.656
 11
101.093
 21
167.527
  0
LINE
  8
0
 10
101.093
 20
167.527
 11
101.214
 21
167.382
  0
LINE
  8
0
 10
101.214
 20
167.382
 11
101.314
 21
167.223
  0
LINE
  8
0
 10
101.314
 20
167.223
 11
101.395
 21
167.052
  0
LINE
  8
0
 10
101.395
 20
167.052
 11
101.453
 21
166.873
  0
LINE
  8
0
 10
101.453
 20
166.873
 11
101.488
 21
166.688
  0
LINE
  8
0
 10
101.488
 20
166.688
 11
101.5
 21
166.5
  0
LINE
  8
0
 10
101.5
 20
166.5
 11
101.488
 21
166.312
  0
LINE
  8
0
 10
101.488
 20
166.312
 11
101.453
 21
166.127
  0
LINE
  8
0
 10
101.453
 20
166.127
 11
101.395
 21
165.948
  0
LINE
  8
0
 10
101.395
 20
165.948
 11
101.314
 21
165.777
  0
LINE
  8
0
 10
101.314
 20
165.777
 11
101.214
 21
165.618
  0
LINE
  8
0
 10
101.214
 20
165.618
 11
101.093
 21
165.473
  0
LINE
  8
0
 10
101.093
 20
165.473
 11
100.956
 21
165.344
  0
LINE
  8
0
 10
100.956
 20
165.344
 11
100.804
 21
165.234
  0
LINE
  8
0
 10
100.804
 20
165.234
 11
100.639
 21
165.143
  0
LINE
  8
0
 10
100.639
 20
165.143
 11
100.464
 21
165.073
  0
LINE
  8
0
 10
100.464
 20
165.073
 11
100.281
 21
165.027
  0
LINE
  8
0
 10
100.281
 20
165.027
 11
100.094
 21
165.003
  0
LINE
  8
0
 10
100.094
 20
165.003
 11
99.9058
 21
165.003
  0
LINE
  8
0
 10
105.153
 20
-27.0129
 11
108.498
 21
-26.1541
  0
LINE
  8
0
 10
108.498
 20
-26.1541
 11
111.709
 21
-24.8827
  0
LINE
  8
0
 10
111.709
 20
-24.8827
 11
114.735
 21
-23.219
  0
LINE
  8
0
 10
114.735
 20
-23.219
 11
117.529
 21
-21.1891
  0
LINE
  8
0
 10
117.529
 20
-21.1891
 11
120.047
 21
-18.825
  0
LINE
  8
0
 10
120.047
 20
-18.825
 11
122.248
 21
-16.1641
  0
LINE
  8
0
 10
122.248
 20
-16.1641
 11
124.098
 21
-13.2482
  0
LINE
  8
0
 10
124.098
 20
-13.2482
 11
125.569
 21
-10.1234
  0
LINE
  8
0
 10
125.569
 20
-10.1234
 11
126.636
 21
-6.83896
  0
LINE
  8
0
 10
126.636
 20
-6.83896
 11
127.283
 21
-3.44666
  0
LINE
  8
0
 10
127.283
 20
-3.44666
 11
127.5
 21
0
  0
LINE
  8
0
 10
127.5
 20
0
 11
127.283
 21
3.44666
  0
LINE
  8
0
 10
127.283
 20
3.44666
 11
126.636
 21
6.83896
  0
LINE
  8
0
 10
126.636
 20
6.83896
 11
125.569
 21
10.1234
  0
LINE
  8
0
 10
125.569
 20
10.1234
 11
124.098
 21
13.2482
  0
LINE
  8
0
 10
124.098
 20
13.2482
 11
122.248
 21
16.1641
  0
LINE
  8
0
 10
122.248
 20
16.1641
 11
120.047
 21
18.825
  0
LINE
  8
0
 10
120.047
 20
18.825
 11
117.529
 21
21.1891
  0
LINE
  8
0
 10
117.529
 20
21.1891
 11
114.735
 21
23.219
  0
LINE
  8
0
 10
114.735
 20
23.219
 11
111.709
 21
24.8827
  0
LINE
  8
0
 10
111.709
 20
24.8827
 11
108.498
 21
26.1541
  0
LINE
  8
0
 10
108.498
 20
26.1541
 11
105.153
 21
27.0129
  0
LINE
  8
0
 10
105.153
 20
27.0129
 11
101.727
 21
27.4457
  0
LINE
  8
0
 10
101.727
 20
27.4457
 11
98.2733
 21
27.4457
  0
LINE
  8
0
 10
98.2733
 20
27.4457
 11
94.847
 21
27.0129
  0
LINE
  8
0
 10
94.847
 20
27.0129
 11
91.502
 21
26.1541
  0
LINE
  8
0
 10
91.502
 20
26.1541
 11
88.2911
 21
24.8827
  0
LINE
  8
0
 10
88.2911
 20
24.8827
 11
85.2648
 21
23.219
  0
LINE
  8
0
 10
85.2648
 20
23.219
 11
82.4708
 21
21.1891
  0
LINE
  8
0
 10
82.4708
 20
21.1891
 11
79.9534
 21
18.825
  0
LINE
  8
0
 10
79.9534
 20
18.825
 11
77.752
 21
16.1641
  0
LINE
  8
0
 10
77.752
 20
16.1641
 11
75.9016
 21
13.2482
  0
LINE
  8
0
 10
75.9016
 20
13.2482
 11
74.4311
 21
10.1234
  0
LINE
  8
0
 10
74.4311
 20
10.1234
 11
73.364
 21
6.83896
  0
LINE
  8
0
 10
73.364
 20
6.83896
 11
72.7168
 21
3.44666
  0
LINE
  8
0
 10
72.7168
 20
3.44666
 11
72.5
 21
0
  0
LINE
  8
0
 10
72.5
 20
0
 11
72.7168
 21
-3.44666
  0
LINE
  8
0
 10
72.7168
 20
-3.44666
 11
73.364
 21
-6.83896
  0
LINE
  8
0
 10
73.364
 20
-6.83896
 11
74.4311
 21
-10.1234
  0
LINE
  8
0
 10
74.4311
 20
-10.1234
 11
75.9016
 21
-13.2482
  0
LINE
  8
0
 10
75.9016
 20
-13.2482
 11
77.752
 21
-16.1641
  0
LINE
  8
0
 10
77.752
 20
-16.1641
 11
79.9534
 21
-18.825
  0
LINE
  8
0
 10
79.9534
 20
-18.825
 11
82.4708
 21
-21.1891
  0
LINE
  8
0
 10
82.4708
 20
-21.1891
 11
85.2648
 21
-23.219
  0
LINE
  8
0
 10
85.2648
 20
-23.219
 11
88.2911
 21
-24.8827
  0
LINE
  8
0
 10
88.2911
 20
-24.8827
 11
91.502
 21
-26.1541
  0
LINE
  8
0
 10
91.502
 20
-26.1541
 11
94.847
 21
-27.0129
  0
LINE
  8
0
 10
94.847
 20
-27.0129
 11
98.2733
 21
-27.4457
  0
LINE
  8
0
 10
98.2733
 20
-27.4457
 11
101.727
 21
-27.4457
  0
LINE
  8
0
 10
101.727
 20
-27.4457
 11
105.153
 21
-27.0129
  0
LINE
  8
0
 10
99.9058
 20
21.003
 11
99.7189
 21
21.0266
  0
LINE
  8
0
 10
99.7189
 20
21.0266
 11
99.5365
 21
21.0734
  0
LINE
  8
0
 10
99.5365
 20
21.0734
 11
99.3613
 21
21.1427
  0
LINE
  8
0
 10
99.3613
 20
21.1427
 11
99.1963
 21
21.2335
  0
LINE
  8
0
 10
99.1963
 20
21.2335
 11
99.0439
 21
21.3442
  0
LINE
  8
0
 10
99.0439
 20
21.3442
 11
98.9065
 21
21.4732
  0
LINE
  8
0
 10
98.9065
 20
21.4732
 11
98.7865
 21
21.6183
  0
LINE
  8
0
 10
98.7865
 20
21.6183
 11
98.6855
 21
21.7774
  0
LINE
  8
0
 10
98.6855
 20
21.7774
 11
98.6053
 21
21.9478
  0
LINE
  8
0
 10
98.6053
 20
21.9478
 11
98.5471
 21
22.127
  0
LINE
  8
0
 10
98.5471
 20
22.127
 11
98.5118
 21
22.312
  0
LINE
  8
0
 10
98.5118
 20
22.312
 11
98.5
 21
22.5
  0
LINE
  8
0
 10
98.5
 20
22.5
 11
98.5118
 21
22.688
  0
LINE
  8
0
 10
98.5118
 20
22.688
 11
98.5471
 21
22.873
  0
LINE
  8
0
 10
98.5471
 20
22.873
 11
98.6053
 21
23.0522
  0
LINE
  8
0
 10
98.6053
 20
23.0522
 11
98.6855
 21
23.2226
  0
LINE
  8
0
 10
98.6855
 20
23.2226
 11
98.7865
 21
23.3817
  0
LINE
  8
0
 10
98.7865
 20
23.3817
 11
98.9065
 21
23.5268
  0
LINE
  8
0
 10
98.9065
 20
23.5268
 11
99.0439
 21
23.6558
  0
LINE
  8
0
 10
99.0439
 20
23.6558
 11
99.1963
 21
23.7665
  0
LINE
  8
0
 10
99.1963
 20
23.7665
 11
99.3613
 21
23.8572
  0
LINE
  8
0
 10
99.3613
 20
23.8572
 11
99.5365
 21
23.9266
  0
LINE
  8
0
 10
99.5365
 20
23.9266
 11
99.7189
 21
23.9734
  0
LINE
  8
0
 10
99.7189
 20
23.9734
 11
99.9058
 21
23.997
  0
LINE
  8
0
 10
99.9058
 20
23.997
 11
100.094
 21
23.997
  0
LINE
  8
0
 10
100.094
 20
23.997
 11
100.281
 21
23.9734
  0
LINE
  8
0
 10
100.281
 20
23.9734
 11
100.464
 21
23.9266
  0
LINE
  8
0
 10
100.464
 20
23.9266
 11
100.639
 21
23.8572
  0
LINE
  8
0
 10
100.639
 20
23.8572
 11
100.804
 21
23.7665
  0
LINE
  8
0
 10
100.804
 20
23.7665
 11
100.956
 21
23.6558
  0
LINE
  8
0
 10
100.956
 20
23.6558
 11
101.093
 21
23.5268
  0
LINE
  8
0
 10
101.093
 20
23.5268
 11
101.214
 21
23.3817
  0
LINE
  8
0
 10
101.214
 20
23.3817
 11
101.314
 21
23.2226
  0
LINE
  8
0
 10
101.314
 20
23.2226
 11
101.395
 21
23.0522
  0
LINE
  8
0
 10
101.395
 20
23.0522
 11
101.453
 21
22.873
  0
LINE
  8
0
 10
101.453
 20
22.873
 11
101.488
 21
22.688
  0
LINE
  8
0
 10
101.488
 20
22.688
 11
101.5
 21
22.5
  0
LINE
  8
0
 10
101.5
 20
22.5
 11
101.488
 21
22.312
  0
LINE
  8
0
 10
101.488
 20
22.312
 11
101.453
 21
22.127
  0
LINE
  8
0
 10
101.453
 20
22.127
 11
101.395
 21
21.9478
  0
LINE
  8
0
 10
101.395
 20
21.9478
 11
101.314
 21
21.7774
  0
LINE
  8
0
 10
101.314
 20
21.7774
 11
101.214
 21
21.6183
  0
LINE
  8
0
 10
101.214
 20
21.6183
 11
101.093
 21
21.4732
  0
LINE
  8
0
 10
101.093
 20
21.4732
 11
100.956
 21
21.3442
  0
LINE
  8
0
 10
100.956
 20
21.3442
 11
100.804
 21
21.2335
  0
LINE
  8
0
 10
100.804
 20
21.2335
 11
100.639
 21
21.1427
  0
LINE
  8
0
 10
100.639
 20
21.1427
 11
100.464
 21
21.0734
  0
LINE
  8
0
 10
100.464
 20
21.0734
 11
100.281
 21
21.0266
  0
LINE
  8
0
 10
100.281
 20
21.0266
 11
100.094
 21
21.003
  0
LINE
  8
0
 10
100.094
 20
21.003
 11
99.9058
 21
21.003
  0
LINE
  8
0
 10
107.541
 20
16.6815
 11
107.317
 21
16.7099
  0
LINE
  8
0
 10
107.317
 20
16.7099
 11
107.098
 21
16.7661
  0
LINE
  8
0
 10
107.098
 20
16.7661
 11
106.888
 21
16.8493
  0
LINE
  8
0
 10
106.888
 20
16.8493
 11
106.69
 21
16.9582
  0
LINE
  8
0
 10
106.69
 20
16.9582
 11
106.507
 21
17.0911
  0
LINE
  8
0
 10
106.507
 20
17.0911
 11
106.342
 21
17.2458
  0
LINE
  8
0
 10
106.342
 20
17.2458
 11
106.198
 21
17.42
  0
LINE
  8
0
 10
106.198
 20
17.42
 11
106.077
 21
17.6108
  0
LINE
  8
0
 10
106.077
 20
17.6108
 11
105.98
 21
17.8154
  0
LINE
  8
0
 10
105.98
 20
17.8154
 11
105.911
 21
18.0303
  0
LINE
  8
0
 10
105.911
 20
18.0303
 11
105.868
 21
18.2524
  0
LINE
  8
0
 10
105.868
 20
18.2524
 11
105.854
 21
18.478
  0
LINE
  8
0
 10
105.854
 20
18.478
 11
105.868
 21
18.7036
  0
LINE
  8
0
 10
105.868
 20
18.7036
 11
105.911
 21
18.9256
  0
LINE
  8
0
 10
105.911
 20
18.9256
 11
105.98
 21
19.1406
  0
LINE
  8
0
 10
105.98
 20
19.1406
 11
106.077
 21
19.3452
  0
LINE
  8
0
 10
106.077
 20
19.3452
 11
106.198
 21
19.536
  0
LINE
  8
0
 10
106.198
 20
19.536
 11
106.342
 21
19.7102
  0
LINE
  8
0
 10
106.342
 20
19.7102
 11
106.507
 21
19.8649
  0
LINE
  8
0
 10
106.507
 20
19.8649
 11
106.69
 21
19.9978
  0
LINE
  8
0
 10
106.69
 20
19.9978
 11
106.888
 21
20.1067
  0
LINE
  8
0
 10
106.888
 20
20.1067
 11
107.098
 21
20.1899
  0
LINE
  8
0
 10
107.098
 20
20.1899
 11
107.317
 21
20.2461
  0
LINE
  8
0
 10
107.317
 20
20.2461
 11
107.541
 21
20.2744
  0
LINE
  8
0
 10
107.541
 20
20.2744
 11
107.767
 21
20.2744
  0
LINE
  8
0
 10
107.767
 20
20.2744
 11
107.991
 21
20.2461
  0
LINE
  8
0
 10
107.991
 20
20.2461
 11
108.21
 21
20.1899
  0
LINE
  8
0
 10
108.21
 20
20.1899
 11
108.42
 21
20.1067
  0
LINE
  8
0
 10
108.42
 20
20.1067
 11
108.618
 21
19.9978
  0
LINE
  8
0
 10
108.618
 20
19.9978
 11
108.801
 21
19.8649
  0
LINE
  8
0
 10
108.801
 20
19.8649
 11
108.966
 21
19.7102
  0
LINE
  8
0
 10
108.966
 20
19.7102
 11
109.11
 21
19.536
  0
LINE
  8
0
 10
109.11
 20
19.536
 11
109.231
 21
19.3452
  0
LINE
  8
0
 10
109.231
 20
19.3452
 11
109.328
 21
19.1406
  0
LINE
  8
0
 10
109.328
 20
19.1406
 11
109.397
 21
18.9256
  0
LINE
  8
0
 10
109.397
 20
18.9256
 11
109.44
 21
18.7036
  0
LINE
  8
0
 10
109.44
 20
18.7036
 11
109.454
 21
18.478
  0
LINE
  8
0
 10
109.454
 20
18.478
 11
109.44
 21
18.2524
  0
LINE
  8
0
 10
109.44
 20
18.2524
 11
109.397
 21
18.0303
  0
LINE
  8
0
 10
109.397
 20
18.0303
 11
109.328
 21
17.8154
  0
LINE
  8
0
 10
109.328
 20
17.8154
 11
109.231
 21
17.6108
  0
LINE
  8
0
 10
109.231
 20
17.6108
 11
109.11
 21
17.42
  0
LINE
  8
0
 10
109.11
 20
17.42
 11
108.966
 21
17.2458
  0
LINE
  8
0
 10
108.966
 20
17.2458
 11
108.801
 21
17.0911
  0
LINE
  8
0
 10
108.801
 20
17.0911
 11
108.618
 21
16.9582
  0
LINE
  8
0
 10
108.618
 20
16.9582
 11
108.42
 21
16.8493
  0
LINE
  8
0
 10
108.42
 20
16.8493
 11
108.21
 21
16.7661
  0
LINE
  8
0
 10
108.21
 20
16.7661
 11
107.991
 21
16.7099
  0
LINE
  8
0
 10
107.991
 20
16.7099
 11
107.767
 21
16.6815
  0
LINE
  8
0
 10
107.767
 20
16.6815
 11
107.541
 21
16.6815
  0
LINE
  8
0
 10
83.5575
 20
12.5015
 11
82.115
 21
15
  0
LINE
  8
0
 10
82.115
 20
15
 11
83.5575
 21
17.4985
  0
LINE
  8
0
 10
83.5575
 20
17.4985
 11
86.4425
 21
17.4985
  0
LINE
  8
0
 10
86.4425
 20
17.4985
 11
87.885
 21
15
  0
LINE
  8
0
 10
87.885
 20
15
 11
86.4425
 21
12.5015
  0
LINE
  8
0
 10
86.4425
 20
12.5015
 11
83.5575
 21
12.5015
  0
LINE
  8
0
 10
113.558
 20
12.5015
 11
112.115
 21
15
  0
LINE
  8
0
 10
112.115
 20
15
 11
113.558
 21
17.4985
  0
LINE
  8
0
 10
113.558
 20
17.4985
 11
116.442
 21
17.4985
  0
LINE
  8
0
 10
116.442
 20
17.4985
 11
117.885
 21
15
  0
LINE
  8
0
 10
117.885
 20
15
 11
116.442
 21
12.5015
  0
LINE
  8
0
 10
116.442
 20
12.5015
 11
113.558
 21
12.5015
  0
LINE
  8
0
 10
99.0738
 20
-14.7209
 11
97.2361
 21
-14.4887
  0
LINE
  8
0
 10
97.2361
 20
-14.4887
 11
95.442
 21
-14.0281
  0
LINE
  8
0
 10
95.442
 20
-14.0281
 11
93.7198
 21
-13.3462
  0
LINE
  8
0
 10
93.7198
 20
-13.3462
 11
92.0966
 21
-12.4538
  0
LINE
  8
0
 10
92.0966
 20
-12.4538
 11
90.598
 21
-11.3651
  0
LINE
  8
0
 10
90.598
 20
-11.3651
 11
89.2477
 21
-10.0971
  0
LINE
  8
0
 10
89.2477
 20
-10.0971
 11
88.067
 21
-8.66983
  0
LINE
  8
0
 10
88.067
 20
-8.66983
 11
87.0745
 21
-7.10587
  0
LINE
  8
0
 10
87.0745
 20
-7.10587
 11
86.2858
 21
-5.42982
  0
LINE
  8
0
 10
86.2858
 20
-5.42982
 11
85.7134
 21
-3.66817
  0
LINE
  8
0
 10
85.7134
 20
-3.66817
 11
85.3663
 21
-1.84866
  0
LINE
  8
0
 10
85.3663
 20
-1.84866
 11
85.25
 21
0
  0
LINE
  8
0
 10
85.25
 20
0
 11
85.3663
 21
1.84866
  0
LINE
  8
0
 10
85.3663
 20
1.84866
 11
85.7134
 21
3.66817
  0
LINE
  8
0
 10
85.7134
 20
3.66817
 11
86.2858
 21
5.42982
  0
LINE
  8
0
 10
86.2858
 20
5.42982
 11
87.0745
 21
7.10587
  0
LINE
  8
0
 10
87.0745
 20
7.10587
 11
88.067
 21
8.66983
  0
LINE
  8
0
 10
88.067
 20
8.66983
 11
89.2477
 21
10.0971
  0
LINE
  8
0
 10
89.2477
 20
10.0971
 11
90.598
 21
11.3651
  0
LINE
  8
0
 10
90.598
 20
11.3651
 11
92.0966
 21
12.4538
  0
LINE
  8
0
 10
92.0966
 20
12.4538
 11
93.7198
 21
13.3462
  0
LINE
  8
0
 10
93.7198
 20
13.3462
 11
95.442
 21
14.0281
  0
LINE
  8
0
 10
95.442
 20
14.0281
 11
97.2361
 21
14.4887
  0
LINE
  8
0
 10
97.2361
 20
14.4887
 11
99.0738
 21
14.7209
  0
LINE
  8
0
 10
99.0738
 20
14.7209
 11
100.926
 21
14.7209
  0
LINE
  8
0
 10
100.926
 20
14.7209
 11
102.764
 21
14.4887
  0
LINE
  8
0
 10
102.764
 20
14.4887
 11
104.558
 21
14.0281
  0
LINE
  8
0
 10
104.558
 20
14.0281
 11
106.28
 21
13.3462
  0
LINE
  8
0
 10
106.28
 20
13.3462
 11
107.903
 21
12.4538
  0
LINE
  8
0
 10
107.903
 20
12.4538
 11
109.402
 21
11.3651
  0
LINE
  8
0
 10
109.402
 20
11.3651
 11
110.752
 21
10.0971
  0
LINE
  8
0
 10
110.752
 20
10.0971
 11
111.933
 21
8.66983
  0
LINE
  8
0
 10
111.933
 20
8.66983
 11
112.926
 21
7.10587
  0
LINE
  8
0
 10
112.926
 20
7.10587
 11
113.714
 21
5.42982
  0
LINE
  8
0
 10
113.714
 20
5.42982
 11
114.287
 21
3.66817
  0
LINE
  8
0
 10
114.287
 20
3.66817
 11
114.634
 21
1.84866
  0
LINE
  8
0
 10
114.634
 20
1.84866
 11
114.75
 21
0
  0
LINE
  8
0
 10
114.75
 20
0
 11
114.634
 21
-1.84866
  0
LINE
  8
0
 10
114.634
 20
-1.84866
 11
114.287
 21
-3.66817
  0
LINE
  8
0
 10
114.287
 20
-3.66817
 11
113.714
 21
-5.42982
  0
LINE
  8
0
 10
113.714
 20
-5.42982
 11
112.926
 21
-7.10587
  0
LINE
  8
0
 10
112.926
 20
-7.10587
 11
111.933
 21
-8.66983
  0
LINE
  8
0
 10
111.933
 20
-8.66983
 11
110.752
 21
-10.0971
  0
LINE
  8
0
 10
110.752
 20
-10.0971
 11
109.402
 21
-11.3651
  0
LINE
  8
0
 10
109.402
 20
-11.3651
 11
107.903
 21
-12.4538
  0
LINE
  8
0
 10
107.903
 20
-12.4538
 11
106.28
 21
-13.3462
  0
LINE
  8
0
 10
106.28
 20
-13.3462
 11
104.558
 21
-14.0281
  0
LINE
  8
0
 10
104.558
 20
-14.0281
 11
102.764
 21
-14.4887
  0
LINE
  8
0
 10
102.764
 20
-14.4887
 11
100.926
 21
-14.7209
  0
LINE
  8
0
 10
100.926
 20
-14.7209
 11
99.0738
 21
-14.7209
  0
LINE
  8
0
 10
102.576
 20
-13.5064
 11
104.249
 21
-13.077
  0
LINE
  8
0
 10
104.249
 20
-13.077
 11
105.854
 21
-12.4414
  0
LINE
  8
0
 10
105.854
 20
-12.4414
 11
107.368
 21
-11.6095
  0
LINE
  8
0
 10
107.368
 20
-11.6095
 11
108.765
 21
-10.5945
  0
LINE
  8
0
 10
108.765
 20
-10.5945
 11
110.023
 21
-9.41252
  0
LINE
  8
0
 10
110.023
 20
-9.41252
 11
111.124
 21
-8.08205
  0
LINE
  8
0
 10
111.124
 20
-8.08205
 11
112.049
 21
-6.6241
  0
LINE
  8
0
 10
112.049
 20
-6.6241
 11
112.784
 21
-5.06171
  0
LINE
  8
0
 10
112.784
 20
-5.06171
 11
113.318
 21
-3.41948
  0
LINE
  8
0
 10
113.318
 20
-3.41948
 11
113.642
 21
-1.72333
  0
LINE
  8
0
 10
113.642
 20
-1.72333
 11
113.75
 21
0
  0
LINE
  8
0
 10
113.75
 20
0
 11
113.642
 21
1.72333
  0
LINE
  8
0
 10
113.642
 20
1.72333
 11
113.318
 21
3.41948
  0
LINE
  8
0
 10
113.318
 20
3.41948
 11
112.784
 21
5.06171
  0
LINE
  8
0
 10
112.784
 20
5.06171
 11
112.049
 21
6.6241
  0
LINE
  8
0
 10
112.049
 20
6.6241
 11
111.124
 21
8.08205
  0
LINE
  8
0
 10
111.124
 20
8.08205
 11
110.023
 21
9.41252
  0
LINE
  8
0
 10
110.023
 20
9.41252
 11
108.765
 21
10.5945
  0
LINE
  8
0
 10
108.765
 20
10.5945
 11
107.368
 21
11.6095
  0
LINE
  8
0
 10
107.368
 20
11.6095
 11
105.854
 21
12.4414
  0
LINE
  8
0
 10
105.854
 20
12.4414
 11
104.249
 21
13.077
  0
LINE
  8
0
 10
104.249
 20
13.077
 11
102.576
 21
13.5064
  0
LINE
  8
0
 10
102.576
 20
13.5064
 11
100.863
 21
13.7229
  0
LINE
  8
0
 10
100.863
 20
13.7229
 11
99.1366
 21
13.7229
  0
LINE
  8
0
 10
99.1366
 20
13.7229
 11
97.4235
 21
13.5064
  0
LINE
  8
0
 10
97.4235
 20
13.5064
 11
95.751
 21
13.077
  0
LINE
  8
0
 10
95.751
 20
13.077
 11
94.1455
 21
12.4414
  0
LINE
  8
0
 10
94.1455
 20
12.4414
 11
92.6324
 21
11.6095
  0
LINE
  8
0
 10
92.6324
 20
11.6095
 11
91.2354
 21
10.5945
  0
LINE
  8
0
 10
91.2354
 20
10.5945
 11
89.9767
 21
9.41252
  0
LINE
  8
0
 10
89.9767
 20
9.41252
 11
88.876
 21
8.08205
  0
LINE
  8
0
 10
88.876
 20
8.08205
 11
87.9508
 21
6.6241
  0
LINE
  8
0
 10
87.9508
 20
6.6241
 11
87.2156
 21
5.06171
  0
LINE
  8
0
 10
87.2156
 20
5.06171
 11
86.682
 21
3.41948
  0
LINE
  8
0
 10
86.682
 20
3.41948
 11
86.3584
 21
1.72333
  0
LINE
  8
0
 10
86.3584
 20
1.72333
 11
86.25
 21
0
  0
LINE
  8
0
 10
86.25
 20
0
 11
86.3584
 21
-1.72333
  0
LINE
  8
0
 10
86.3584
 20
-1.72333
 11
86.682
 21
-3.41948
  0
LINE
  8
0
 10
86.682
 20
-3.41948
 11
87.2156
 21
-5.06171
  0
LINE
  8
0
 10
87.2156
 20
-5.06171
 11
87.9508
 21
-6.6241
  0
LINE
  8
0
 10
87.9508
 20
-6.6241
 11
88.876
 21
-8.08205
  0
LINE
  8
0
 10
88.876
 20
-8.08205
 11
89.9767
 21
-9.41252
  0
LINE
  8
0
 10
89.9767
 20
-9.41252
 11
91.2354
 21
-10.5945
  0
LINE
  8
0
 10
91.2354
 20
-10.5945
 11
92.6324
 21
-11.6095
  0
LINE
  8
0
 10
92.6324
 20
-11.6095
 11
94.1455
 21
-12.4414
  0
LINE
  8
0
 10
94.1455
 20
-12.4414
 11
95.751
 21
-13.077
  0
LINE
  8
0
 10
95.751
 20
-13.077
 11
97.4235
 21
-13.5064
  0
LINE
  8
0
 10
97.4235
 20
-13.5064
 11
99.1366
 21
-13.7229
  0
LINE
  8
0
 10
99.1366
 20
-13.7229
 11
100.863
 21
-13.7229
  0
LINE
  8
0
 10
100.863
 20
-13.7229
 11
102.576
 21
-13.5064
  0
LINE
  8
0
 10
81.409
 20
5.85754
 11
81.1847
 21
5.88588
  0
LINE
  8
0
 10
81.1847
 20
5.88588
 11
80.9658
 21
5.94209
  0
LINE
  8
0
 10
80.9658
 20
5.94209
 11
80.7556
 21
6.0253
  0
LINE
  8
0
 10
80.7556
 20
6.0253
 11
80.5575
 21
6.1342
  0
LINE
  8
0
 10
80.5575
 20
6.1342
 11
80.3746
 21
6.26707
  0
LINE
  8
0
 10
80.3746
 20
6.26707
 11
80.2099
 21
6.42181
  0
LINE
  8
0
 10
80.2099
 20
6.42181
 11
80.0658
 21
6.59598
  0
LINE
  8
0
 10
80.0658
 20
6.59598
 11
79.9446
 21
6.78683
  0
LINE
  8
0
 10
79.9446
 20
6.78683
 11
79.8484
 21
6.99136
  0
LINE
  8
0
 10
79.8484
 20
6.99136
 11
79.7785
 21
7.20634
  0
LINE
  8
0
 10
79.7785
 20
7.20634
 11
79.7362
 21
7.42839
  0
LINE
  8
0
 10
79.7362
 20
7.42839
 11
79.722
 21
7.65399
  0
LINE
  8
0
 10
79.722
 20
7.65399
 11
79.7362
 21
7.87959
  0
LINE
  8
0
 10
79.7362
 20
7.87959
 11
79.7785
 21
8.10164
  0
LINE
  8
0
 10
79.7785
 20
8.10164
 11
79.8484
 21
8.31662
  0
LINE
  8
0
 10
79.8484
 20
8.31662
 11
79.9446
 21
8.52115
  0
LINE
  8
0
 10
79.9446
 20
8.52115
 11
80.0658
 21
8.71201
  0
LINE
  8
0
 10
80.0658
 20
8.71201
 11
80.2099
 21
8.88618
  0
LINE
  8
0
 10
80.2099
 20
8.88618
 11
80.3746
 21
9.04092
  0
LINE
  8
0
 10
80.3746
 20
9.04092
 11
80.5575
 21
9.17378
  0
LINE
  8
0
 10
80.5575
 20
9.17378
 11
80.7556
 21
9.28268
  0
LINE
  8
0
 10
80.7556
 20
9.28268
 11
80.9658
 21
9.36589
  0
LINE
  8
0
 10
80.9658
 20
9.36589
 11
81.1847
 21
9.4221
  0
LINE
  8
0
 10
81.1847
 20
9.4221
 11
81.409
 21
9.45044
  0
LINE
  8
0
 10
81.409
 20
9.45044
 11
81.635
 21
9.45044
  0
LINE
  8
0
 10
81.635
 20
9.45044
 11
81.8593
 21
9.4221
  0
LINE
  8
0
 10
81.8593
 20
9.4221
 11
82.0782
 21
9.36589
  0
LINE
  8
0
 10
82.0782
 20
9.36589
 11
82.2884
 21
9.28268
  0
LINE
  8
0
 10
82.2884
 20
9.28268
 11
82.4865
 21
9.17378
  0
LINE
  8
0
 10
82.4865
 20
9.17378
 11
82.6694
 21
9.04092
  0
LINE
  8
0
 10
82.6694
 20
9.04092
 11
82.8341
 21
8.88618
  0
LINE
  8
0
 10
82.8341
 20
8.88618
 11
82.9782
 21
8.71201
  0
LINE
  8
0
 10
82.9782
 20
8.71201
 11
83.0993
 21
8.52115
  0
LINE
  8
0
 10
83.0993
 20
8.52115
 11
83.1956
 21
8.31662
  0
LINE
  8
0
 10
83.1956
 20
8.31662
 11
83.2654
 21
8.10164
  0
LINE
  8
0
 10
83.2654
 20
8.10164
 11
83.3078
 21
7.87959
  0
LINE
  8
0
 10
83.3078
 20
7.87959
 11
83.322
 21
7.65399
  0
LINE
  8
0
 10
83.322
 20
7.65399
 11
83.3078
 21
7.42839
  0
LINE
  8
0
 10
83.3078
 20
7.42839
 11
83.2654
 21
7.20634
  0
LINE
  8
0
 10
83.2654
 20
7.20634
 11
83.1956
 21
6.99136
  0
LINE
  8
0
 10
83.1956
 20
6.99136
 11
83.0993
 21
6.78683
  0
LINE
  8
0
 10
83.0993
 20
6.78683
 11
82.9782
 21
6.59598
  0
LINE
  8
0
 10
82.9782
 20
6.59598
 11
82.8341
 21
6.42181
  0
LINE
  8
0
 10
82.8341
 20
6.42181
 11
82.6694
 21
6.26707
  0
LINE
  8
0
 10
82.6694
 20
6.26707
 11
82.4865
 21
6.1342
  0
LINE
  8
0
 10
82.4865
 20
6.1342
 11
82.2884
 21
6.0253
  0
LINE
  8
0
 10
82.2884
 20
6.0253
 11
82.0782
 21
5.94209
  0
LINE
  8
0
 10
82.0782
 20
5.94209
 11
81.8593
 21
5.88588
  0
LINE
  8
0
 10
81.8593
 20
5.88588
 11
81.635
 21
5.85754
  0
LINE
  8
0
 10
81.635
 20
5.85754
 11
81.409
 21
5.85754
  0
LINE
  8
0
 10
122.406
 20
-1.49704
 11
122.219
 21
-1.47342
  0
LINE
  8
0
 10
122.219
 20
-1.47342
 11
122.036
 21
-1.42657
  0
LINE
  8
0
 10
122.036
 20
-1.42657
 11
121.861
 21
-1.35724
  0
LINE
  8
0
 10
121.861
 20
-1.35724
 11
121.696
 21
-1.26648
  0
LINE
  8
0
 10
121.696
 20
-1.26648
 11
121.544
 21
-1.15576
  0
LINE
  8
0
 10
121.544
 20
-1.15576
 11
121.407
 21
-1.02681
  0
LINE
  8
0
 10
121.407
 20
-1.02681
 11
121.286
 21
-0.881668
  0
LINE
  8
0
 10
121.286
 20
-0.881668
 11
121.186
 21
-0.722626
  0
LINE
  8
0
 10
121.186
 20
-0.722626
 11
121.105
 21
-0.552185
  0
LINE
  8
0
 10
121.105
 20
-0.552185
 11
121.047
 21
-0.373032
  0
LINE
  8
0
 10
121.047
 20
-0.373032
 11
121.012
 21
-0.187988
  0
LINE
  8
0
 10
121.012
 20
-0.187988
 11
121
 21
0
  0
LINE
  8
0
 10
121
 20
0
 11
121.012
 21
0.187988
  0
LINE
  8
0
 10
121.012
 20
0.187988
 11
121.047
 21
0.373032
  0
LINE
  8
0
 10
121.047
 20
0.373032
 11
121.105
 21
0.552185
  0
LINE
  8
0
 10
121.105
 20
0.552185
 11
121.186
 21
0.722626
  0
LINE
  8
0
 10
121.186
 20
0.722626
 11
121.286
 21
0.881668
  0
LINE
  8
0
 10
121.286
 20
0.881668
 11
121.407
 21
1.02681
  0
LINE
  8
0
 10
121.407
 20
1.02681
 11
121.544
 21
1.15576
  0
LINE
  8
0
 10
121.544
 20
1.15576
 11
121.696
 21
1.26648
  0
LINE
  8
0
 10
121.696
 20
1.26648
 11
121.861
 21
1.35724
  0
LINE
  8
0
 10
121.861
 20
1.35724
 11
122.036
 21
1.42657
  0
LINE
  8
0
 10
122.036
 20
1.42657
 11
122.219
 21
1.47342
  0
LINE
  8
0
 10
122.219
 20
1.47342
 11
122.406
 21
1.49704
  0
LINE
  8
0
 10
122.406
 20
1.49704
 11
122.594
 21
1.49704
  0
LINE
  8
0
 10
122.594
 20
1.49704
 11
122.781
 21
1.47342
  0
LINE
  8
0
 10
122.781
 20
1.47342
 11
122.964
 21
1.42657
  0
LINE
  8
0
 10
122.964
 20
1.42657
 11
123.139
 21
1.35724
  0
LINE
  8
0
 10
123.139
 20
1.35724
 11
123.304
 21
1.26648
  0
LINE
  8
0
 10
123.304
 20
1.26648
 11
123.456
 21
1.15576
  0
LINE
  8
0
 10
123.456
 20
1.15576
 11
123.593
 21
1.02681
  0
LINE
  8
0
 10
123.593
 20
1.02681
 11
123.714
 21
0.881668
  0
LINE
  8
0
 10
123.714
 20
0.881668
 11
123.814
 21
0.722626
  0
LINE
  8
0
 10
123.814
 20
0.722626
 11
123.895
 21
0.552185
  0
LINE
  8
0
 10
123.895
 20
0.552185
 11
123.953
 21
0.373032
  0
LINE
  8
0
 10
123.953
 20
0.373032
 11
123.988
 21
0.187988
  0
LINE
  8
0
 10
123.988
 20
0.187988
 11
124
 21
0
  0
LINE
  8
0
 10
124
 20
0
 11
123.988
 21
-0.187988
  0
LINE
  8
0
 10
123.988
 20
-0.187988
 11
123.953
 21
-0.373032
  0
LINE
  8
0
 10
123.953
 20
-0.373032
 11
123.895
 21
-0.552185
  0
LINE
  8
0
 10
123.895
 20
-0.552185
 11
123.814
 21
-0.722626
  0
LINE
  8
0
 10
123.814
 20
-0.722626
 11
123.714
 21
-0.881668
  0
LINE
  8
0
 10
123.714
 20
-0.881668
 11
123.593
 21
-1.02681
  0
LINE
  8
0
 10
123.593
 20
-1.02681
 11
123.456
 21
-1.15576
  0
LINE
  8
0
 10
123.456
 20
-1.15576
 11
123.304
 21
-1.26648
  0
LINE
  8
0
 10
123.304
 20
-1.26648
 11
123.139
 21
-1.35724
  0
LINE
  8
0
 10
123.139
 20
-1.35724
 11
122.964
 21
-1.42657
  0
LINE
  8
0
 10
122.964
 20
-1.42657
 11
122.781
 21
-1.47342
  0
LINE
  8
0
 10
122.781
 20
-1.47342
 11
122.594
 21
-1.49704
  0
LINE
  8
0
 10
122.594
 20
-1.49704
 11
122.406
 21
-1.49704
  0
LINE
  8
0
 10
77.4058
 20
-1.49704
 11
77.2189
 21
-1.47342
  0
LINE
  8
0
 10
77.2189
 20
-1.47342
 11
77.0365
 21
-1.42657
  0
LINE
  8
0
 10
77.0365
 20
-1.42657
 11
76.8613
 21
-1.35724
  0
LINE
  8
0
 10
76.8613
 20
-1.35724
 11
76.6963
 21
-1.26648
  0
LINE
  8
0
 10
76.6963
 20
-1.26648
 11
76.5439
 21
-1.15576
  0
LINE
  8
0
 10
76.5439
 20
-1.15576
 11
76.4065
 21
-1.02681
  0
LINE
  8
0
 10
76.4065
 20
-1.02681
 11
76.2865
 21
-0.881668
  0
LINE
  8
0
 10
76.2865
 20
-0.881668
 11
76.1855
 21
-0.722626
  0
LINE
  8
0
 10
76.1855
 20
-0.722626
 11
76.1053
 21
-0.552185
  0
LINE
  8
0
 10
76.1053
 20
-0.552185
 11
76.0471
 21
-0.373032
  0
LINE
  8
0
 10
76.0471
 20
-0.373032
 11
76.0118
 21
-0.187988
  0
LINE
  8
0
 10
76.0118
 20
-0.187988
 11
76
 21
0
  0
LINE
  8
0
 10
76
 20
0
 11
76.0118
 21
0.187988
  0
LINE
  8
0
 10
76.0118
 20
0.187988
 11
76.0471
 21
0.373032
  0
LINE
  8
0
 10
76.0471
 20
0.373032
 11
76.1053
 21
0.552185
  0
LINE
  8
0
 10
76.1053
 20
0.552185
 11
76.1855
 21
0.722626
  0
LINE
  8
0
 10
76.1855
 20
0.722626
 11
76.2865
 21
0.881668
  0
LINE
  8
0
 10
76.2865
 20
0.881668
 11
76.4065
 21
1.02681
  0
LINE
  8
0
 10
76.4065
 20
1.02681
 11
76.5439
 21
1.15576
  0
LINE
  8
0
 10
76.5439
 20
1.15576
 11
76.6963
 21
1.26648
  0
LINE
  8
0
 10
76.6963
 20
1.26648
 11
76.8613
 21
1.35724
  0
LINE
  8
0
 10
76.8613
 20
1.35724
 11
77.0365
 21
1.42657
  0
LINE
  8
0
 10
77.0365
 20
1.42657
 11
77.2189
 21
1.47342
  0
LINE
  8
0
 10
77.2189
 20
1.47342
 11
77.4058
 21
1.49704
  0
LINE
  8
0
 10
77.4058
 20
1.49704
 11
77.5942
 21
1.49704
  0
LINE
  8
0
 10
77.5942
 20
1.49704
 11
77.7811
 21
1.47342
  0
LINE
  8
0
 10
77.7811
 20
1.47342
 11
77.9635
 21
1.42657
  0
LINE
  8
0
 10
77.9635
 20
1.42657
 11
78.1387
 21
1.35724
  0
LINE
  8
0
 10
78.1387
 20
1.35724
 11
78.3037
 21
1.26648
  0
LINE
  8
0
 10
78.3037
 20
1.26648
 11
78.4561
 21
1.15576
  0
LINE
  8
0
 10
78.4561
 20
1.15576
 11
78.5934
 21
1.02681
  0
LINE
  8
0
 10
78.5934
 20
1.02681
 11
78.7135
 21
0.881668
  0
LINE
  8
0
 10
78.7135
 20
0.881668
 11
78.8145
 21
0.722626
  0
LINE
  8
0
 10
78.8145
 20
0.722626
 11
78.8947
 21
0.552185
  0
LINE
  8
0
 10
78.8947
 20
0.552185
 11
78.9529
 21
0.373032
  0
LINE
  8
0
 10
78.9529
 20
0.373032
 11
78.9882
 21
0.187988
  0
LINE
  8
0
 10
78.9882
 20
0.187988
 11
79
 21
0
  0
LINE
  8
0
 10
79
 20
0
 11
78.9882
 21
-0.187988
  0
LINE
  8
0
 10
78.9882
 20
-0.187988
 11
78.9529
 21
-0.373032
  0
LINE
  8
0
 10
78.9529
 20
-0.373032
 11
78.8947
 21
-0.552185
  0
LINE
  8
0
 10
78.8947
 20
-0.552185
 11
78.8145
 21
-0.722626
  0
LINE
  8
0
 10
78.8145
 20
-0.722626
 11
78.7135
 21
-0.881668
  0
LINE
  8
0
 10
78.7135
 20
-0.881668
 11
78.5934
 21
-1.02681
  0
LINE
  8
0
 10
78.5934
 20
-1.02681
 11
78.4561
 21
-1.15576
  0
LINE
  8
0
 10
78.4561
 20
-1.15576
 11
78.3037
 21
-1.26648
  0
LINE
  8
0
 10
78.3037
 20
-1.26648
 11
78.1387
 21
-1.35724
  0
LINE
  8
0
 10
78.1387
 20
-1.35724
 11
77.9635
 21
-1.42657
  0
LINE
  8
0
 10
77.9635
 20
-1.42657
 11
77.7811
 21
-1.47342
  0
LINE
  8
0
 10
77.7811
 20
-1.47342
 11
77.5942
 21
-1.49704
  0
LINE
  8
0
 10
77.5942
 20
-1.49704
 11
77.4058
 21
-1.49704
  0
LINE
  8
0
 10
118.365
 20
-9.45044
 11
118.141
 21
-9.4221
  0
LINE
  8
0
 10
118.141
 20
-9.4221
 11
117.922
 21
-9.36589
  0
LINE
  8
0
 10
117.922
 20
-9.36589
 11
117.712
 21
-9.28268
  0
LINE
  8
0
 10
117.712
 20
-9.28268
 11
117.514
 21
-9.17378
  0
LINE
  8
0
 10
117.514
 20
-9.17378
 11
117.331
 21
-9.04092
  0
LINE
  8
0
 10
117.331
 20
-9.04092
 11
117.166
 21
-8.88618
  0
LINE
  8
0
 10
117.166
 20
-8.88618
 11
117.022
 21
-8.71201
  0
LINE
  8
0
 10
117.022
 20
-8.71201
 11
116.901
 21
-8.52115
  0
LINE
  8
0
 10
116.901
 20
-8.52115
 11
116.804
 21
-8.31662
  0
LINE
  8
0
 10
116.804
 20
-8.31662
 11
116.735
 21
-8.10164
  0
LINE
  8
0
 10
116.735
 20
-8.10164
 11
116.692
 21
-7.87959
  0
LINE
  8
0
 10
116.692
 20
-7.87959
 11
116.678
 21
-7.65399
  0
LINE
  8
0
 10
116.678
 20
-7.65399
 11
116.692
 21
-7.42839
  0
LINE
  8
0
 10
116.692
 20
-7.42839
 11
116.735
 21
-7.20634
  0
LINE
  8
0
 10
116.735
 20
-7.20634
 11
116.804
 21
-6.99136
  0
LINE
  8
0
 10
116.804
 20
-6.99136
 11
116.901
 21
-6.78683
  0
LINE
  8
0
 10
116.901
 20
-6.78683
 11
117.022
 21
-6.59598
  0
LINE
  8
0
 10
117.022
 20
-6.59598
 11
117.166
 21
-6.42181
  0
LINE
  8
0
 10
117.166
 20
-6.42181
 11
117.331
 21
-6.26707
  0
LINE
  8
0
 10
117.331
 20
-6.26707
 11
117.514
 21
-6.1342
  0
LINE
  8
0
 10
117.514
 20
-6.1342
 11
117.712
 21
-6.0253
  0
LINE
  8
0
 10
117.712
 20
-6.0253
 11
117.922
 21
-5.94209
  0
LINE
  8
0
 10
117.922
 20
-5.94209
 11
118.141
 21
-5.88588
  0
LINE
  8
0
 10
118.141
 20
-5.88588
 11
118.365
 21
-5.85754
  0
LINE
  8
0
 10
118.365
 20
-5.85754
 11
118.591
 21
-5.85754
  0
LINE
  8
0
 10
118.591
 20
-5.85754
 11
118.815
 21
-5.88588
  0
LINE
  8
0
 10
118.815
 20
-5.88588
 11
119.034
 21
-5.94209
  0
LINE
  8
0
 10
119.034
 20
-5.94209
 11
119.244
 21
-6.0253
  0
LINE
  8
0
 10
119.244
 20
-6.0253
 11
119.442
 21
-6.1342
  0
LINE
  8
0
 10
119.442
 20
-6.1342
 11
119.625
 21
-6.26707
  0
LINE
  8
0
 10
119.625
 20
-6.26707
 11
119.79
 21
-6.42181
  0
LINE
  8
0
 10
119.79
 20
-6.42181
 11
119.934
 21
-6.59598
  0
LINE
  8
0
 10
119.934
 20
-6.59598
 11
120.055
 21
-6.78683
  0
LINE
  8
0
 10
120.055
 20
-6.78683
 11
120.152
 21
-6.99136
  0
LINE
  8
0
 10
120.152
 20
-6.99136
 11
120.221
 21
-7.20634
  0
LINE
  8
0
 10
120.221
 20
-7.20634
 11
120.264
 21
-7.42839
  0
LINE
  8
0
 10
120.264
 20
-7.42839
 11
120.278
 21
-7.65399
  0
LINE
  8
0
 10
120.278
 20
-7.65399
 11
120.264
 21
-7.87959
  0
LINE
  8
0
 10
120.264
 20
-7.87959
 11
120.221
 21
-8.10164
  0
LINE
  8
0
 10
120.221
 20
-8.10164
 11
120.152
 21
-8.31662
  0
LINE
  8
0
 10
120.152
 20
-8.31662
 11
120.055
 21
-8.52115
  0
LINE
  8
0
 10
120.055
 20
-8.52115
 11
119.934
 21
-8.71201
  0
LINE
  8
0
 10
119.934
 20
-8.71201
 11
119.79
 21
-8.88618
  0
LINE
  8
0
 10
119.79
 20
-8.88618
 11
119.625
 21
-9.04092
  0
LINE
  8
0
 10
119.625
 20
-9.04092
 11
119.442
 21
-9.17378
  0
LINE
  8
0
 10
119.442
 20
-9.17378
 11
119.244
 21
-9.28268
  0
LINE
  8
0
 10
119.244
 20
-9.28268
 11
119.034
 21
-9.36589
  0
LINE
  8
0
 10
119.034
 20
-9.36589
 11
118.815
 21
-9.4221
  0
LINE
  8
0
 10
118.815
 20
-9.4221
 11
118.591
 21
-9.45044
  0
LINE
  8
0
 10
118.591
 20
-9.45044
 11
118.365
 21
-9.45044
  0
LINE
  8
0
 10
83.5575
 20
-17.4985
 11
82.115
 21
-15
  0
LINE
  8
0
 10
82.115
 20
-15
 11
83.5575
 21
-12.5015
  0
LINE
  8
0
 10
83.5575
 20
-12.5015
 11
86.4425
 21
-12.5015
  0
LINE
  8
0
 10
86.4425
 20
-12.5015
 11
87.885
 21
-15
  0
LINE
  8
0
 10
87.885
 20
-15
 11
86.4425
 21
-17.4985
  0
LINE
  8
0
 10
86.4425
 20
-17.4985
 11
83.5575
 21
-17.4985
  0
LINE
  8
0
 10
113.558
 20
-17.4985
 11
112.115
 21
-15
  0
LINE
  8
0
 10
112.115
 20
-15
 11
113.558
 21
-12.5015
  0
LINE
  8
0
 10
113.558
 20
-12.5015
 11
116.442
 21
-12.5015
  0
LINE
  8
0
 10
116.442
 20
-12.5015
 11
117.885
 21
-15
  0
LINE
  8
0
 10
117.885
 20
-15
 11
116.442
 21
-17.4985
  0
LINE
  8
0
 10
116.442
 20
-17.4985
 11
113.558
 21
-17.4985
  0
LINE
  8
0
 10
92.233
 20
-20.2744
 11
92.0087
 21
-20.2461
  0
LINE
  8
0
 10
92.0087
 20
-20.2461
 11
91.7898
 21
-20.1899
  0
LINE
  8
0
 10
91.7898
 20
-20.1899
 11
91.5796
 21
-20.1067
  0
LINE
  8
0
 10
91.5796
 20
-20.1067
 11
91.3815
 21
-19.9978
  0
LINE
  8
0
 10
91.3815
 20
-19.9978
 11
91.1986
 21
-19.8649
  0
LINE
  8
0
 10
91.1986
 20
-19.8649
 11
91.0339
 21
-19.7102
  0
LINE
  8
0
 10
91.0339
 20
-19.7102
 11
90.8898
 21
-19.536
  0
LINE
  8
0
 10
90.8898
 20
-19.536
 11
90.7686
 21
-19.3452
  0
LINE
  8
0
 10
90.7686
 20
-19.3452
 11
90.6724
 21
-19.1406
  0
LINE
  8
0
 10
90.6724
 20
-19.1406
 11
90.6026
 21
-18.9256
  0
LINE
  8
0
 10
90.6026
 20
-18.9256
 11
90.5602
 21
-18.7036
  0
LINE
  8
0
 10
90.5602
 20
-18.7036
 11
90.546
 21
-18.478
  0
LINE
  8
0
 10
90.546
 20
-18.478
 11
90.5602
 21
-18.2524
  0
LINE
  8
0
 10
90.5602
 20
-18.2524
 11
90.6026
 21
-18.0303
  0
LINE
  8
0
 10
90.6026
 20
-18.0303
 11
90.6724
 21
-17.8154
  0
LINE
  8
0
 10
90.6724
 20
-17.8154
 11
90.7686
 21
-17.6108
  0
LINE
  8
0
 10
90.7686
 20
-17.6108
 11
90.8898
 21
-17.42
  0
LINE
  8
0
 10
90.8898
 20
-17.42
 11
91.0339
 21
-17.2458
  0
LINE
  8
0
 10
91.0339
 20
-17.2458
 11
91.1986
 21
-17.0911
  0
LINE
  8
0
 10
91.1986
 20
-17.0911
 11
91.3815
 21
-16.9582
  0
LINE
  8
0
 10
91.3815
 20
-16.9582
 11
91.5796
 21
-16.8493
  0
LINE
  8
0
 10
91.5796
 20
-16.8493
 11
91.7898
 21
-16.7661
  0
LINE
  8
0
 10
91.7898
 20
-16.7661
 11
92.0087
 21
-16.7099
  0
LINE
  8
0
 10
92.0087
 20
-16.7099
 11
92.233
 21
-16.6815
  0
LINE
  8
0
 10
92.233
 20
-16.6815
 11
92.459
 21
-16.6815
  0
LINE
  8
0
 10
92.459
 20
-16.6815
 11
92.6833
 21
-16.7099
  0
LINE
  8
0
 10
92.6833
 20
-16.7099
 11
92.9022
 21
-16.7661
  0
LINE
  8
0
 10
92.9022
 20
-16.7661
 11
93.1124
 21
-16.8493
  0
LINE
  8
0
 10
93.1124
 20
-16.8493
 11
93.3105
 21
-16.9582
  0
LINE
  8
0
 10
93.3105
 20
-16.9582
 11
93.4934
 21
-17.0911
  0
LINE
  8
0
 10
93.4934
 20
-17.0911
 11
93.6581
 21
-17.2458
  0
LINE
  8
0
 10
93.6581
 20
-17.2458
 11
93.8022
 21
-17.42
  0
LINE
  8
0
 10
93.8022
 20
-17.42
 11
93.9234
 21
-17.6108
  0
LINE
  8
0
 10
93.9234
 20
-17.6108
 11
94.0196
 21
-17.8154
  0
LINE
  8
0
 10
94.0196
 20
-17.8154
 11
94.0894
 21
-18.0303
  0
LINE
  8
0
 10
94.0894
 20
-18.0303
 11
94.1318
 21
-18.2524
  0
LINE
  8
0
 10
94.1318
 20
-18.2524
 11
94.146
 21
-18.478
  0
LINE
  8
0
 10
94.146
 20
-18.478
 11
94.1318
 21
-18.7036
  0
LINE
  8
0
 10
94.1318
 20
-18.7036
 11
94.0894
 21
-18.9256
  0
LINE
  8
0
 10
94.0894
 20
-18.9256
 11
94.0196
 21
-19.1406
  0
LINE
  8
0
 10
94.0196
 20
-19.1406
 11
93.9234
 21
-19.3452
  0
LINE
  8
0
 10
93.9234
 20
-19.3452
 11
93.8022
 21
-19.536
  0
LINE
  8
0
 10
93.8022
 20
-19.536
 11
93.6581
 21
-19.7102
  0
LINE
  8
0
 10
93.6581
 20
-19.7102
 11
93.4934
 21
-19.8649
  0
LINE
  8
0
 10
93.4934
 20
-19.8649
 11
93.3105
 21
-19.9978
  0
LINE
  8
0
 10
93.3105
 20
-19.9978
 11
93.1124
 21
-20.1067
  0
LINE
  8
0
 10
93.1124
 20
-20.1067
 11
92.9022
 21
-20.1899
  0
LINE
  8
0
 10
92.9022
 20
-20.1899
 11
92.6833
 21
-20.2461
  0
LINE
  8
0
 10
92.6833
 20
-20.2461
 11
92.459
 21
-20.2744
  0
LINE
  8
0
 10
92.459
 20
-20.2744
 11
92.233
 21
-20.2744
  0
LINE
  8
0
 10
99.9058
 20
-23.997
 11
99.7189
 21
-23.9734
  0
LINE
  8
0
 10
99.7189
 20
-23.9734
 11
99.5365
 21
-23.9266
  0
LINE
  8
0
 10
99.5365
 20
-23.9266
 11
99.3613
 21
-23.8572
  0
LINE
  8
0
 10
99.3613
 20
-23.8572
 11
99.1963
 21
-23.7665
  0
LINE
  8
0
 10
99.1963
 20
-23.7665
 11
99.0439
 21
-23.6558
  0
LINE
  8
0
 10
99.0439
 20
-23.6558
 11
98.9065
 21
-23.5268
  0
LINE
  8
0
 10
98.9065
 20
-23.5268
 11
98.7865
 21
-23.3817
  0
LINE
  8
0
 10
98.7865
 20
-23.3817
 11
98.6855
 21
-23.2226
  0
LINE
  8
0
 10
98.6855
 20
-23.2226
 11
98.6053
 21
-23.0522
  0
LINE
  8
0
 10
98.6053
 20
-23.0522
 11
98.5471
 21
-22.873
  0
LINE
  8
0
 10
98.5471
 20
-22.873
 11
98.5118
 21
-22.688
  0
LINE
  8
0
 10
98.5118
 20
-22.688
 11
98.5
 21
-22.5
  0
LINE
  8
0
 10
98.5
 20
-22.5
 11
98.5118
 21
-22.312
  0
LINE
  8
0
 10
98.5118
 20
-22.312
 11
98.5471
 21
-22.127
  0
LINE
  8
0
 10
98.5471
 20
-22.127
 11
98.6053
 21
-21.9478
  0
LINE
  8
0
 10
98.6053
 20
-21.9478
 11
98.6855
 21
-21.7774
  0
LINE
  8
0
 10
98.6855
 20
-21.7774
 11
98.7865
 21
-21.6183
  0
LINE
  8
0
 10
98.7865
 20
-21.6183
 11
98.9065
 21
-21.4732
  0
LINE
  8
0
 10
98.9065
 20
-21.4732
 11
99.0439
 21
-21.3442
  0
LINE
  8
0
 10
99.0439
 20
-21.3442
 11
99.1963
 21
-21.2335
  0
LINE
  8
0
 10
99.1963
 20
-21.2335
 11
99.3613
 21
-21.1427
  0
LINE
  8
0
 10
99.3613
 20
-21.1427
 11
99.5365
 21
-21.0734
  0
LINE
  8
0
 10
99.5365
 20
-21.0734
 11
99.7189
 21
-21.0266
  0
LINE
  8
0
 10
99.7189
 20
-21.0266
 11
99.9058
 21
-21.003
  0
LINE
  8
0
 10
99.9058
 20
-21.003
 11
100.094
 21
-21.003
  0
LINE
  8
0
 10
100.094
 20
-21.003
 11
100.281
 21
-21.0266
  0
LINE
  8
0
 10
100.281
 20
-21.0266
 11
100.464
 21
-21.0734
  0
LINE
  8
0
 10
100.464
 20
-21.0734
 11
100.639
 21
-21.1427
  0
LINE
  8
0
 10
100.639
 20
-21.1427
 11
100.804
 21
-21.2335
  0
LINE
  8
0
 10
100.804
 20
-21.2335
 11
100.956
 21
-21.3442
  0
LINE
  8
0
 10
100.956
 20
-21.3442
 11
101.093
 21
-21.4732
  0
LINE
  8
0
 10
101.093
 20
-21.4732
 11
101.214
 21
-21.6183
  0
LINE
  8
0
 10
101.214
 20
-21.6183
 11
101.314
 21
-21.7774
  0
LINE
  8
0
 10
101.314
 20
-21.7774
 11
101.395
 21
-21.9478
  0
LINE
  8
0
 10
101.395
 20
-21.9478
 11
101.453
 21
-22.127
  0
LINE
  8
0
 10
101.453
 20
-22.127
 11
101.488
 21
-22.312
  0
LINE
  8
0
 10
101.488
 20
-22.312
 11
101.5
 21
-22.5
  0
LINE
  8
0
 10
101.5
 20
-22.5
 11
101.488
 21
-22.688
  0
LINE
  8
0
 10
101.488
 20
-22.688
 11
101.453
 21
-22.873
  0
LINE
  8
0
 10
101.453
 20
-22.873
 11
101.395
 21
-23.0522
  0
LINE
  8
0
 10
101.395
 20
-23.0522
 11
101.314
 21
-23.2226
  0
LINE
  8
0
 10
101.314
 20
-23.2226
 11
101.214
 21
-23.3817
  0
LINE
  8
0
 10
101.214
 20
-23.3817
 11
101.093
 21
-23.5268
  0
LINE
  8
0
 10
101.093
 20
-23.5268
 11
100.956
 21
-23.6558
  0
LINE
  8
0
 10
100.956
 20
-23.6558
 11
100.804
 21
-23.7665
  0
LINE
  8
0
 10
100.804
 20
-23.7665
 11
100.639
 21
-23.8572
  0
LINE
  8
0
 10
100.639
 20
-23.8572
 11
100.464
 21
-23.9266
  0
LINE
  8
0
 10
100.464
 20
-23.9266
 11
100.281
 21
-23.9734
  0
LINE
  8
0
 10
100.281
 20
-23.9734
 11
100.094
 21
-23.997
  0
LINE
  8
0
 10
100.094
 20
-23.997
 11
99.9058
 21
-23.997
  0
LINE
  8
0
 10
5.15298
 20
-27.0129
 11
8.49796
 21
-26.1541
  0
LINE
  8
0
 10
8.49796
 20
-26.1541
 11
11.7089
 21
-24.8827
  0
LINE
  8
0
 10
11.7089
 20
-24.8827
 11
14.7352
 21
-23.219
  0
LINE
  8
0
 10
14.7352
 20
-23.219
 11
17.5292
 21
-21.1891
  0
LINE
  8
0
 10
17.5292
 20
-21.1891
 11
20.0466
 21
-18.825
  0
LINE
  8
0
 10
20.0466
 20
-18.825
 11
22.248
 21
-16.1641
  0
LINE
  8
0
 10
22.248
 20
-16.1641
 11
24.0984
 21
-13.2482
  0
LINE
  8
0
 10
24.0984
 20
-13.2482
 11
25.5688
 21
-10.1234
  0
LINE
  8
0
 10
25.5688
 20
-10.1234
 11
26.636
 21
-6.83896
  0
LINE
  8
0
 10
26.636
 20
-6.83896
 11
27.2831
 21
-3.44666
  0
LINE
  8
0
 10
27.2831
 20
-3.44666
 11
27.5
 21
0
  0
LINE
  8
0
 10
27.5
 20
0
 11
27.2831
 21
3.44666
  0
LINE
  8
0
 10
27.2831
 20
3.44666
 11
26.636
 21
6.83896
  0
LINE
  8
0
 10
26.636
 20
6.83896
 11
25.5688
 21
10.1234
  0
LINE
  8
0
 10
25.5688
 20
10.1234
 11
24.0984
 21
13.2482
  0
LINE
  8
0
 10
24.0984
 20
13.2482
 11
22.248
 21
16.1641
  0
LINE
  8
0
 10
22.248
 20
16.1641
 11
20.0466
 21
18.825
  0
LINE
  8
0
 10
20.0466
 20
18.825
 11
17.5292
 21
21.1891
  0
LINE
  8
0
 10
17.5292
 20
21.1891
 11
14.7352
 21
23.219
  0
LINE
  8
0
 10
14.7352
 20
23.219
 11
11.7089
 21
24.8827
  0
LINE
  8
0
 10
11.7089
 20
24.8827
 11
8.49796
 21
26.1541
  0
LINE
  8
0
 10
8.49796
 20
26.1541
 11
5.15298
 21
27.0129
  0
LINE
  8
0
 10
5.15298
 20
27.0129
 11
1.72673
 21
27.4457
  0
LINE
  8
0
 10
1.72673
 20
27.4457
 11
-1.72673
 21
27.4457
  0
LINE
  8
0
 10
-1.72673
 20
27.4457
 11
-5.15298
 21
27.0129
  0
LINE
  8
0
 10
-5.15298
 20
27.0129
 11
-8.49796
 21
26.1541
  0
LINE
  8
0
 10
-8.49796
 20
26.1541
 11
-11.7089
 21
24.8827
  0
LINE
  8
0
 10
-11.7089
 20
24.8827
 11
-14.7352
 21
23.219
  0
LINE
  8
0
 10
-14.7352
 20
23.219
 11
-17.5292
 21
21.1891
  0
LINE
  8
0
 10
-17.5292
 20
21.1891
 11
-20.0466
 21
18.825
  0
LINE
  8
0
 10
-20.0466
 20
18.825
 11
-22.248
 21
16.1641
  0
LINE
  8
0
 10
-22.248
 20
16.1641
 11
-24.0984
 21
13.2482
  0
LINE
  8
0
 10
-24.0984
 20
13.2482
 11
-25.5688
 21
10.1234
  0
LINE
  8
0
 10
-25.5688
 20
10.1234
 11
-26.636
 21
6.83896
  0
LINE
  8
0
 10
-26.636
 20
6.83896
 11
-27.2831
 21
3.44666
  0
LINE
  8
0
 10
-27.2831
 20
3.44666
 11
-27.5
 21
0
  0
LINE
  8
0
 10
-27.5
 20
0
 11
-27.2831
 21
-3.44666
  0
LINE
  8
0
 10
-27.2831
 20
-3.44666
 11
-26.636
 21
-6.83896
  0
LINE
  8
0
 10
-26.636
 20
-6.83896
 11
-25.5688
 21
-10.1234
  0
LINE
  8
0
 10
-25.5688
 20
-10.1234
 11
-24.0984
 21
-13.2482
  0
LINE
  8
0
 10
-24.0984
 20
-13.2482
 11
-22.248
 21
-16.1641
  0
LINE
  8
0
 10
-22.248
 20
-16.1641
 11
-20.0466
 21
-18.825
  0
LINE
  8
0
 10
-20.0466
 20
-18.825
 11
-17.5292
 21
-21.1891
  0
LINE
  8
0
 10
-17.5292
 20
-21.1891
 11
-14.7352
 21
-23.219
  0
LINE
  8
0
 10
-14.7352
 20
-23.219
 11
-11.7089
 21
-24.8827
  0
LINE
  8
0
 10
-11.7089
 20
-24.8827
 11
-8.49796
 21
-26.1541
  0
LINE
  8
0
 10
-8.49796
 20
-26.1541
 11
-5.15298
 21
-27.0129
  0
LINE
  8
0
 10
-5.15298
 20
-27.0129
 11
-1.72673
 21
-27.4457
  0
LINE
  8
0
 10
-1.72673
 20
-27.4457
 11
1.72673
 21
-27.4457
  0
LINE
  8
0
 10
1.72673
 20
-27.4457
 11
5.15298
 21
-27.0129
  0
LINE
  8
0
 10
-0.0941772
 20
21.003
 11
-0.281067
 21
21.0266
  0
LINE
  8
0
 10
-0.281067
 20
21.0266
 11
-0.463516
 21
21.0734
  0
LINE
  8
0
 10
-0.463516
 20
21.0734
 11
-0.638657
 21
21.1427
  0
LINE
  8
0
 10
-0.638657
 20
21.1427
 11
-0.803726
 21
21.2335
  0
LINE
  8
0
 10
-0.803726
 20
21.2335
 11
-0.956131
 21
21.3442
  0
LINE
  8
0
 10
-0.956131
 20
21.3442
 11
-1.09344
 21
21.4732
  0
LINE
  8
0
 10
-1.09344
 20
21.4732
 11
-1.21352
 21
21.6183
  0
LINE
  8
0
 10
-1.21352
 20
21.6183
 11
-1.31445
 21
21.7774
  0
LINE
  8
0
 10
-1.31445
 20
21.7774
 11
-1.39465
 21
21.9478
  0
LINE
  8
0
 10
-1.39465
 20
21.9478
 11
-1.45287
 21
22.127
  0
LINE
  8
0
 10
-1.45287
 20
22.127
 11
-1.48816
 21
22.312
  0
LINE
  8
0
 10
-1.48816
 20
22.312
 11
-1.5
 21
22.5
  0
LINE
  8
0
 10
-1.5
 20
22.5
 11
-1.48816
 21
22.688
  0
LINE
  8
0
 10
-1.48816
 20
22.688
 11
-1.45287
 21
22.873
  0
LINE
  8
0
 10
-1.45287
 20
22.873
 11
-1.39465
 21
23.0522
  0
LINE
  8
0
 10
-1.39465
 20
23.0522
 11
-1.31445
 21
23.2226
  0
LINE
  8
0
 10
-1.31445
 20
23.2226
 11
-1.21352
 21
23.3817
  0
LINE
  8
0
 10
-1.21352
 20
23.3817
 11
-1.09344
 21
23.5268
  0
LINE
  8
0
 10
-1.09344
 20
23.5268
 11
-0.956131
 21
23.6558
  0
LINE
  8
0
 10
-0.956131
 20
23.6558
 11
-0.803726
 21
23.7665
  0
LINE
  8
0
 10
-0.803726
 20
23.7665
 11
-0.638657
 21
23.8572
  0
LINE
  8
0
 10
-0.638657
 20
23.8572
 11
-0.463516
 21
23.9266
  0
LINE
  8
0
 10
-0.463516
 20
23.9266
 11
-0.281067
 21
23.9734
  0
LINE
  8
0
 10
-0.281067
 20
23.9734
 11
-0.0941772
 21
23.997
  0
LINE
  8
0
 10
-0.0941772
 20
23.997
 11
0.0941772
 21
23.997
  0
LINE
  8
0
 10
0.0941772
 20
23.997
 11
0.281067
 21
23.9734
  0
LINE
  8
0
 10
0.281067
 20
23.9734
 11
0.463516
 21
23.9266
  0
LINE
  8
0
 10
0.463516
 20
23.9266
 11
0.638657
 21
23.8572
  0
LINE
  8
0
 10
0.638657
 20
23.8572
 11
0.803726
 21
23.7665
  0
LINE
  8
0
 10
0.803726
 20
23.7665
 11
0.956131
 21
23.6558
  0
LINE
  8
0
 10
0.956131
 20
23.6558
 11
1.09344
 21
23.5268
  0
LINE
  8
0
 10
1.09344
 20
23.5268
 11
1.21352
 21
23.3817
  0
LINE
  8
0
 10
1.21352
 20
23.3817
 11
1.31445
 21
23.2226
  0
LINE
  8
0
 10
1.31445
 20
23.2226
 11
1.39465
 21
23.0522
  0
LINE
  8
0
 10
1.39465
 20
23.0522
 11
1.45287
 21
22.873
  0
LINE
  8
0
 10
1.45287
 20
22.873
 11
1.48816
 21
22.688
  0
LINE
  8
0
 10
1.48816
 20
22.688
 11
1.5
 21
22.5
  0
LINE
  8
0
 10
1.5
 20
22.5
 11
1.48816
 21
22.312
  0
LINE
  8
0
 10
1.48816
 20
22.312
 11
1.45287
 21
22.127
  0
LINE
  8
0
 10
1.45287
 20
22.127
 11
1.39465
 21
21.9478
  0
LINE
  8
0
 10
1.39465
 20
21.9478
 11
1.31445
 21
21.7774
  0
LINE
  8
0
 10
1.31445
 20
21.7774
 11
1.21352
 21
21.6183
  0
LINE
  8
0
 10
1.21352
 20
21.6183
 11
1.09344
 21
21.4732
  0
LINE
  8
0
 10
1.09344
 20
21.4732
 11
0.956131
 21
21.3442
  0
LINE
  8
0
 10
0.956131
 20
21.3442
 11
0.803726
 21
21.2335
  0
LINE
  8
0
 10
0.803726
 20
21.2335
 11
0.638657
 21
21.1427
  0
LINE
  8
0
 10
0.638657
 20
21.1427
 11
0.463516
 21
21.0734
  0
LINE
  8
0
 10
0.463516
 20
21.0734
 11
0.281067
 21
21.0266
  0
LINE
  8
0
 10
0.281067
 20
21.0266
 11
0.0941772
 21
21.003
  0
LINE
  8
0
 10
0.0941772
 20
21.003
 11
-0.0941772
 21
21.003
  0
LINE
  8
0
 10
-9.24074
 20
15.7297
 11
-10.8275
 21
18.478
  0
LINE
  8
0
 10
-10.8275
 20
18.478
 11
-9.24074
 21
21.2263
  0
LINE
  8
0
 10
-9.24074
 20
21.2263
 11
-6.06725
 21
21.2263
  0
LINE
  8
0
 10
-6.06725
 20
21.2263
 11
-4.4805
 21
18.478
  0
LINE
  8
0
 10
-4.4805
 20
18.478
 11
-6.06725
 21
15.7297
  0
LINE
  8
0
 10
-6.06725
 20
15.7297
 11
-9.24074
 21
15.7297
  0
LINE
  8
0
 10
-0.926147
 20
-14.7209
 11
-2.76387
 21
-14.4887
  0
LINE
  8
0
 10
-2.76387
 20
-14.4887
 11
-4.558
 21
-14.0281
  0
LINE
  8
0
 10
-4.558
 20
-14.0281
 11
-6.28024
 21
-13.3462
  0
LINE
  8
0
 10
-6.28024
 20
-13.3462
 11
-7.90344
 21
-12.4538
  0
LINE
  8
0
 10
-7.90344
 20
-12.4538
 11
-9.40199
 21
-11.3651
  0
LINE
  8
0
 10
-9.40199
 20
-11.3651
 11
-10.7523
 21
-10.0971
  0
LINE
  8
0
 10
-10.7523
 20
-10.0971
 11
-11.933
 21
-8.66983
  0
LINE
  8
0
 10
-11.933
 20
-8.66983
 11
-12.9255
 21
-7.10587
  0
LINE
  8
0
 10
-12.9255
 20
-7.10587
 11
-13.7142
 21
-5.42982
  0
LINE
  8
0
 10
-13.7142
 20
-5.42982
 11
-14.2866
 21
-3.66817
  0
LINE
  8
0
 10
-14.2866
 20
-3.66817
 11
-14.6337
 21
-1.84866
  0
LINE
  8
0
 10
-14.6337
 20
-1.84866
 11
-14.75
 21
0
  0
LINE
  8
0
 10
-14.75
 20
0
 11
-14.6337
 21
1.84866
  0
LINE
  8
0
 10
-14.6337
 20
1.84866
 11
-14.2866
 21
3.66817
  0
LINE
  8
0
 10
-14.2866
 20
3.66817
 11
-13.7142
 21
5.42982
  0
LINE
  8
0
 10
-13.7142
 20
5.42982
 11
-12.9255
 21
7.10587
  0
LINE
  8
0
 10
-12.9255
 20
7.10587
 11
-11.933
 21
8.66983
  0
LINE
  8
0
 10
-11.933
 20
8.66983
 11
-10.7523
 21
10.0971
  0
LINE
  8
0
 10
-10.7523
 20
10.0971
 11
-9.40199
 21
11.3651
  0
LINE
  8
0
 10
-9.40199
 20
11.3651
 11
-7.90344
 21
12.4538
  0
LINE
  8
0
 10
-7.90344
 20
12.4538
 11
-6.28024
 21
13.3462
  0
LINE
  8
0
 10
-6.28024
 20
13.3462
 11
-4.558
 21
14.0281
  0
LINE
  8
0
 10
-4.558
 20
14.0281
 11
-2.76387
 21
14.4887
  0
LINE
  8
0
 10
-2.76387
 20
14.4887
 11
-0.926147
 21
14.7209
  0
LINE
  8
0
 10
-0.926147
 20
14.7209
 11
0.926147
 21
14.7209
  0
LINE
  8
0
 10
0.926147
 20
14.7209
 11
2.76387
 21
14.4887
  0
LINE
  8
0
 10
2.76387
 20
14.4887
 11
4.558
 21
14.0281
  0
LINE
  8
0
 10
4.558
 20
14.0281
 11
6.28024
 21
13.3462
  0
LINE
  8
0
 10
6.28024
 20
13.3462
 11
7.90344
 21
12.4538
  0
LINE
  8
0
 10
7.90344
 20
12.4538
 11
9.40199
 21
11.3651
  0
LINE
  8
0
 10
9.40199
 20
11.3651
 11
10.7523
 21
10.0971
  0
LINE
  8
0
 10
10.7523
 20
10.0971
 11
11.933
 21
8.66983
  0
LINE
  8
0
 10
11.933
 20
8.66983
 11
12.9255
 21
7.10587
  0
LINE
  8
0
 10
12.9255
 20
7.10587
 11
13.7142
 21
5.42982
  0
LINE
  8
0
 10
13.7142
 20
5.42982
 11
14.2866
 21
3.66817
  0
LINE
  8
0
 10
14.2866
 20
3.66817
 11
14.6337
 21
1.84866
  0
LINE
  8
0
 10
14.6337
 20
1.84866
 11
14.75
 21
0
  0
LINE
  8
0
 10
14.75
 20
0
 11
14.6337
 21
-1.84866
  0
LINE
  8
0
 10
14.6337
 20
-1.84866
 11
14.2866
 21
-3.66817
  0
LINE
  8
0
 10
14.2866
 20
-3.66817
 11
13.7142
 21
-5.42982
  0
LINE
  8
0
 10
13.7142
 20
-5.42982
 11
12.9255
 21
-7.10587
  0
LINE
  8
0
 10
12.9255
 20
-7.10587
 11
11.933
 21
-8.66983
  0
LINE
  8
0
 10
11.933
 20
-8.66983
 11
10.7523
 21
-10.0971
  0
LINE
  8
0
 10
10.7523
 20
-10.0971
 11
9.40199
 21
-11.3651
  0
LINE
  8
0
 10
9.40199
 20
-11.3651
 11
7.90344
 21
-12.4538
  0
LINE
  8
0
 10
7.90344
 20
-12.4538
 11
6.28024
 21
-13.3462
  0
LINE
  8
0
 10
6.28024
 20
-13.3462
 11
4.558
 21
-14.0281
  0
LINE
  8
0
 10
4.558
 20
-14.0281
 11
2.76387
 21
-14.4887
  0
LINE
  8
0
 10
2.76387
 20
-14.4887
 11
0.926147
 21
-14.7209
  0
LINE
  8
0
 10
0.926147
 20
-14.7209
 11
-0.926147
 21
-14.7209
  0
LINE
  8
0
 10
2.57649
 20
-13.5064
 11
4.24898
 21
-13.077
  0
LINE
  8
0
 10
4.24898
 20
-13.077
 11
5.85446
 21
-12.4414
  0
LINE
  8
0
 10
5.85446
 20
-12.4414
 11
7.36761
 21
-11.6095
  0
LINE
  8
0
 10
7.36761
 20
-11.6095
 11
8.76457
 21
-10.5945
  0
LINE
  8
0
 10
8.76457
 20
-10.5945
 11
10.0233
 21
-9.41252
  0
LINE
  8
0
 10
10.0233
 20
-9.41252
 11
11.124
 21
-8.08205
  0
LINE
  8
0
 10
11.124
 20
-8.08205
 11
12.0492
 21
-6.6241
  0
LINE
  8
0
 10
12.0492
 20
-6.6241
 11
12.7844
 21
-5.06171
  0
LINE
  8
0
 10
12.7844
 20
-5.06171
 11
13.318
 21
-3.41948
  0
LINE
  8
0
 10
13.318
 20
-3.41948
 11
13.6416
 21
-1.72333
  0
LINE
  8
0
 10
13.6416
 20
-1.72333
 11
13.75
 21
0
  0
LINE
  8
0
 10
13.75
 20
0
 11
13.6416
 21
1.72333
  0
LINE
  8
0
 10
13.6416
 20
1.72333
 11
13.318
 21
3.41948
  0
LINE
  8
0
 10
13.318
 20
3.41948
 11
12.7844
 21
5.06171
  0
LINE
  8
0
 10
12.7844
 20
5.06171
 11
12.0492
 21
6.6241
  0
LINE
  8
0
 10
12.0492
 20
6.6241
 11
11.124
 21
8.08205
  0
LINE
  8
0
 10
11.124
 20
8.08205
 11
10.0233
 21
9.41252
  0
LINE
  8
0
 10
10.0233
 20
9.41252
 11
8.76457
 21
10.5945
  0
LINE
  8
0
 10
8.76457
 20
10.5945
 11
7.36761
 21
11.6095
  0
LINE
  8
0
 10
7.36761
 20
11.6095
 11
5.85446
 21
12.4414
  0
LINE
  8
0
 10
5.85446
 20
12.4414
 11
4.24898
 21
13.077
  0
LINE
  8
0
 10
4.24898
 20
13.077
 11
2.57649
 21
13.5064
  0
LINE
  8
0
 10
2.57649
 20
13.5064
 11
0.863358
 21
13.7229
  0
LINE
  8
0
 10
0.863358
 20
13.7229
 11
-0.863358
 21
13.7229
  0
LINE
  8
0
 10
-0.863358
 20
13.7229
 11
-2.57649
 21
13.5064
  0
LINE
  8
0
 10
-2.57649
 20
13.5064
 11
-4.24898
 21
13.077
  0
LINE
  8
0
 10
-4.24898
 20
13.077
 11
-5.85446
 21
12.4414
  0
LINE
  8
0
 10
-5.85446
 20
12.4414
 11
-7.36761
 21
11.6095
  0
LINE
  8
0
 10
-7.36761
 20
11.6095
 11
-8.76457
 21
10.5945
  0
LINE
  8
0
 10
-8.76457
 20
10.5945
 11
-10.0233
 21
9.41252
  0
LINE
  8
0
 10
-10.0233
 20
9.41252
 11
-11.124
 21
8.08205
  0
LINE
  8
0
 10
-11.124
 20
8.08205
 11
-12.0492
 21
6.6241
  0
LINE
  8
0
 10
-12.0492
 20
6.6241
 11
-12.7844
 21
5.06171
  0
LINE
  8
0
 10
-12.7844
 20
5.06171
 11
-13.318
 21
3.41948
  0
LINE
  8
0
 10
-13.318
 20
3.41948
 11
-13.6416
 21
1.72333
  0
LINE
  8
0
 10
-13.6416
 20
1.72333
 11
-13.75
 21
0
  0
LINE
  8
0
 10
-13.75
 20
0
 11
-13.6416
 21
-1.72333
  0
LINE
  8
0
 10
-13.6416
 20
-1.72333
 11
-13.318
 21
-3.41948
  0
LINE
  8
0
 10
-13.318
 20
-3.41948
 11
-12.7844
 21
-5.06171
  0
LINE
  8
0
 10
-12.7844
 20
-5.06171
 11
-12.0492
 21
-6.6241
  0
LINE
  8
0
 10
-12.0492
 20
-6.6241
 11
-11.124
 21
-8.08205
  0
LINE
  8
0
 10
-11.124
 20
-8.08205
 11
-10.0233
 21
-9.41252
  0
LINE
  8
0
 10
-10.0233
 20
-9.41252
 11
-8.76457
 21
-10.5945
  0
LINE
  8
0
 10
-8.76457
 20
-10.5945
 11
-7.36761
 21
-11.6095
  0
LINE
  8
0
 10
-7.36761
 20
-11.6095
 11
-5.85446
 21
-12.4414
  0
LINE
  8
0
 10
-5.85446
 20
-12.4414
 11
-4.24898
 21
-13.077
  0
LINE
  8
0
 10
-4.24898
 20
-13.077
 11
-2.57649
 21
-13.5064
  0
LINE
  8
0
 10
-2.57649
 20
-13.5064
 11
-0.863358
 21
-13.7229
  0
LINE
  8
0
 10
-0.863358
 20
-13.7229
 11
0.863358
 21
-13.7229
  0
LINE
  8
0
 10
0.863358
 20
-13.7229
 11
2.57649
 21
-13.5064
  0
LINE
  8
0
 10
16.8913
 20
4.90567
 11
15.3045
 21
7.65399
  0
LINE
  8
0
 10
15.3045
 20
7.65399
 11
16.8913
 21
10.4023
  0
LINE
  8
0
 10
16.8913
 20
10.4023
 11
20.0647
 21
10.4023
  0
LINE
  8
0
 10
20.0647
 20
10.4023
 11
21.6515
 21
7.65399
  0
LINE
  8
0
 10
21.6515
 20
7.65399
 11
20.0647
 21
4.90567
  0
LINE
  8
0
 10
20.0647
 20
4.90567
 11
16.8913
 21
4.90567
  0
LINE
  8
0
 10
-22.5942
 20
-1.49704
 11
-22.7811
 21
-1.47342
  0
LINE
  8
0
 10
-22.7811
 20
-1.47342
 11
-22.9635
 21
-1.42657
  0
LINE
  8
0
 10
-22.9635
 20
-1.42657
 11
-23.1387
 21
-1.35724
  0
LINE
  8
0
 10
-23.1387
 20
-1.35724
 11
-23.3037
 21
-1.26648
  0
LINE
  8
0
 10
-23.3037
 20
-1.26648
 11
-23.4561
 21
-1.15576
  0
LINE
  8
0
 10
-23.4561
 20
-1.15576
 11
-23.5934
 21
-1.02681
  0
LINE
  8
0
 10
-23.5934
 20
-1.02681
 11
-23.7135
 21
-0.881668
  0
LINE
  8
0
 10
-23.7135
 20
-0.881668
 11
-23.8145
 21
-0.722626
  0
LINE
  8
0
 10
-23.8145
 20
-0.722626
 11
-23.8947
 21
-0.552185
  0
LINE
  8
0
 10
-23.8947
 20
-0.552185
 11
-23.9529
 21
-0.373032
  0
LINE
  8
0
 10
-23.9529
 20
-0.373032
 11
-23.9882
 21
-0.187988
  0
LINE
  8
0
 10
-23.9882
 20
-0.187988
 11
-24
 21
0
  0
LINE
  8
0
 10
-24
 20
0
 11
-23.9882
 21
0.187988
  0
LINE
  8
0
 10
-23.9882
 20
0.187988
 11
-23.9529
 21
0.373032
  0
LINE
  8
0
 10
-23.9529
 20
0.373032
 11
-23.8947
 21
0.552185
  0
LINE
  8
0
 10
-23.8947
 20
0.552185
 11
-23.8145
 21
0.722626
  0
LINE
  8
0
 10
-23.8145
 20
0.722626
 11
-23.7135
 21
0.881668
  0
LINE
  8
0
 10
-23.7135
 20
0.881668
 11
-23.5934
 21
1.02681
  0
LINE
  8
0
 10
-23.5934
 20
1.02681
 11
-23.4561
 21
1.15576
  0
LINE
  8
0
 10
-23.4561
 20
1.15576
 11
-23.3037
 21
1.26648
  0
LINE
  8
0
 10
-23.3037
 20
1.26648
 11
-23.1387
 21
1.35724
  0
LINE
  8
0
 10
-23.1387
 20
1.35724
 11
-22.9635
 21
1.42657
  0
LINE
  8
0
 10
-22.9635
 20
1.42657
 11
-22.7811
 21
1.47342
  0
LINE
  8
0
 10
-22.7811
 20
1.47342
 11
-22.5942
 21
1.49704
  0
LINE
  8
0
 10
-22.5942
 20
1.49704
 11
-22.4058
 21
1.49704
  0
LINE
  8
0
 10
-22.4058
 20
1.49704
 11
-22.2189
 21
1.47342
  0
LINE
  8
0
 10
-22.2189
 20
1.47342
 11
-22.0365
 21
1.42657
  0
LINE
  8
0
 10
-22.0365
 20
1.42657
 11
-21.8613
 21
1.35724
  0
LINE
  8
0
 10
-21.8613
 20
1.35724
 11
-21.6963
 21
1.26648
  0
LINE
  8
0
 10
-21.6963
 20
1.26648
 11
-21.5439
 21
1.15576
  0
LINE
  8
0
 10
-21.5439
 20
1.15576
 11
-21.4065
 21
1.02681
  0
LINE
  8
0
 10
-21.4065
 20
1.02681
 11
-21.2865
 21
0.881668
  0
LINE
  8
0
 10
-21.2865
 20
0.881668
 11
-21.1855
 21
0.722626
  0
LINE
  8
0
 10
-21.1855
 20
0.722626
 11
-21.1053
 21
0.552185
  0
LINE
  8
0
 10
-21.1053
 20
0.552185
 11
-21.0471
 21
0.373032
  0
LINE
  8
0
 10
-21.0471
 20
0.373032
 11
-21.0118
 21
0.187988
  0
LINE
  8
0
 10
-21.0118
 20
0.187988
 11
-21
 21
0
  0
LINE
  8
0
 10
-21
 20
0
 11
-21.0118
 21
-0.187988
  0
LINE
  8
0
 10
-21.0118
 20
-0.187988
 11
-21.0471
 21
-0.373032
  0
LINE
  8
0
 10
-21.0471
 20
-0.373032
 11
-21.1053
 21
-0.552185
  0
LINE
  8
0
 10
-21.1053
 20
-0.552185
 11
-21.1855
 21
-0.722626
  0
LINE
  8
0
 10
-21.1855
 20
-0.722626
 11
-21.2865
 21
-0.881668
  0
LINE
  8
0
 10
-21.2865
 20
-0.881668
 11
-21.4065
 21
-1.02681
  0
LINE
  8
0
 10
-21.4065
 20
-1.02681
 11
-21.5439
 21
-1.15576
  0
LINE
  8
0
 10
-21.5439
 20
-1.15576
 11
-21.6963
 21
-1.26648
  0
LINE
  8
0
 10
-21.6963
 20
-1.26648
 11
-21.8613
 21
-1.35724
  0
LINE
  8
0
 10
-21.8613
 20
-1.35724
 11
-22.0365
 21
-1.42657
  0
LINE
  8
0
 10
-22.0365
 20
-1.42657
 11
-22.2189
 21
-1.47342
  0
LINE
  8
0
 10
-22.2189
 20
-1.47342
 11
-22.4058
 21
-1.49704
  0
LINE
  8
0
 10
-22.4058
 20
-1.49704
 11
-22.5942
 21
-1.49704
  0
LINE
  8
0
 10
22.4058
 20
-1.49704
 11
22.2189
 21
-1.47342
  0
LINE
  8
0
 10
22.2189
 20
-1.47342
 11
22.0365
 21
-1.42657
  0
LINE
  8
0
 10
22.0365
 20
-1.42657
 11
21.8613
 21
-1.35724
  0
LINE
  8
0
 10
21.8613
 20
-1.35724
 11
21.6963
 21
-1.26648
  0
LINE
  8
0
 10
21.6963
 20
-1.26648
 11
21.5439
 21
-1.15576
  0
LINE
  8
0
 10
21.5439
 20
-1.15576
 11
21.4065
 21
-1.02681
  0
LINE
  8
0
 10
21.4065
 20
-1.02681
 11
21.2865
 21
-0.881668
  0
LINE
  8
0
 10
21.2865
 20
-0.881668
 11
21.1855
 21
-0.722626
  0
LINE
  8
0
 10
21.1855
 20
-0.722626
 11
21.1053
 21
-0.552185
  0
LINE
  8
0
 10
21.1053
 20
-0.552185
 11
21.0471
 21
-0.373032
  0
LINE
  8
0
 10
21.0471
 20
-0.373032
 11
21.0118
 21
-0.187988
  0
LINE
  8
0
 10
21.0118
 20
-0.187988
 11
21
 21
0
  0
LINE
  8
0
 10
21
 20
0
 11
21.0118
 21
0.187988
  0
LINE
  8
0
 10
21.0118
 20
0.187988
 11
21.0471
 21
0.373032
  0
LINE
  8
0
 10
21.0471
 20
0.373032
 11
21.1053
 21
0.552185
  0
LINE
  8
0
 10
21.1053
 20
0.552185
 11
21.1855
 21
0.722626
  0
LINE
  8
0
 10
21.1855
 20
0.722626
 11
21.2865
 21
0.881668
  0
LINE
  8
0
 10
21.2865
 20
0.881668
 11
21.4065
 21
1.02681
  0
LINE
  8
0
 10
21.4065
 20
1.02681
 11
21.5439
 21
1.15576
  0
LINE
  8
0
 10
21.5439
 20
1.15576
 11
21.6963
 21
1.26648
  0
LINE
  8
0
 10
21.6963
 20
1.26648
 11
21.8613
 21
1.35724
  0
LINE
  8
0
 10
21.8613
 20
1.35724
 11
22.0365
 21
1.42657
  0
LINE
  8
0
 10
22.0365
 20
1.42657
 11
22.2189
 21
1.47342
  0
LINE
  8
0
 10
22.2189
 20
1.47342
 11
22.4058
 21
1.49704
  0
LINE
  8
0
 10
22.4058
 20
1.49704
 11
22.5942
 21
1.49704
  0
LINE
  8
0
 10
22.5942
 20
1.49704
 11
22.7811
 21
1.47342
  0
LINE
  8
0
 10
22.7811
 20
1.47342
 11
22.9635
 21
1.42657
  0
LINE
  8
0
 10
22.9635
 20
1.42657
 11
23.1387
 21
1.35724
  0
LINE
  8
0
 10
23.1387
 20
1.35724
 11
23.3037
 21
1.26648
  0
LINE
  8
0
 10
23.3037
 20
1.26648
 11
23.4561
 21
1.15576
  0
LINE
  8
0
 10
23.4561
 20
1.15576
 11
23.5934
 21
1.02681
  0
LINE
  8
0
 10
23.5934
 20
1.02681
 11
23.7135
 21
0.881668
  0
LINE
  8
0
 10
23.7135
 20
0.881668
 11
23.8145
 21
0.722626
  0
LINE
  8
0
 10
23.8145
 20
0.722626
 11
23.8947
 21
0.552185
  0
LINE
  8
0
 10
23.8947
 20
0.552185
 11
23.9529
 21
0.373032
  0
LINE
  8
0
 10
23.9529
 20
0.373032
 11
23.9882
 21
0.187988
  0
LINE
  8
0
 10
23.9882
 20
0.187988
 11
24
 21
0
  0
LINE
  8
0
 10
24
 20
0
 11
23.9882
 21
-0.187988
  0
LINE
  8
0
 10
23.9882
 20
-0.187988
 11
23.9529
 21
-0.373032
  0
LINE
  8
0
 10
23.9529
 20
-0.373032
 11
23.8947
 21
-0.552185
  0
LINE
  8
0
 10
23.8947
 20
-0.552185
 11
23.8145
 21
-0.722626
  0
LINE
  8
0
 10
23.8145
 20
-0.722626
 11
23.7135
 21
-0.881668
  0
LINE
  8
0
 10
23.7135
 20
-0.881668
 11
23.5934
 21
-1.02681
  0
LINE
  8
0
 10
23.5934
 20
-1.02681
 11
23.4561
 21
-1.15576
  0
LINE
  8
0
 10
23.4561
 20
-1.15576
 11
23.3037
 21
-1.26648
  0
LINE
  8
0
 10
23.3037
 20
-1.26648
 11
23.1387
 21
-1.35724
  0
LINE
  8
0
 10
23.1387
 20
-1.35724
 11
22.9635
 21
-1.42657
  0
LINE
  8
0
 10
22.9635
 20
-1.42657
 11
22.7811
 21
-1.47342
  0
LINE
  8
0
 10
22.7811
 20
-1.47342
 11
22.5942
 21
-1.49704
  0
LINE
  8
0
 10
22.5942
 20
-1.49704
 11
22.4058
 21
-1.49704
  0
LINE
  8
0
 10
-20.0647
 20
-10.4023
 11
-21.6515
 21
-7.65399
  0
LINE
  8
0
 10
-21.6515
 20
-7.65399
 11
-20.0647
 21
-4.90567
  0
LINE
  8
0
 10
-20.0647
 20
-4.90567
 11
-16.8913
 21
-4.90567
  0
LINE
  8
0
 10
-16.8913
 20
-4.90567
 11
-15.3045
 21
-7.65399
  0
LINE
  8
0
 10
-15.3045
 20
-7.65399
 11
-16.8913
 21
-10.4023
  0
LINE
  8
0
 10
-16.8913
 20
-10.4023
 11
-20.0647
 21
-10.4023
  0
LINE
  8
0
 10
6.06725
 20
-21.2263
 11
4.4805
 21
-18.478
  0
LINE
  8
0
 10
4.4805
 20
-18.478
 11
6.06725
 21
-15.7297
  0
LINE
  8
0
 10
6.06725
 20
-15.7297
 11
9.24074
 21
-15.7297
  0
LINE
  8
0
 10
9.24074
 20
-15.7297
 11
10.8275
 21
-18.478
  0
LINE
  8
0
 10
10.8275
 20
-18.478
 11
9.24074
 21
-21.2263
  0
LINE
  8
0
 10
9.24074
 20
-21.2263
 11
6.06725
 21
-21.2263
  0
LINE
  8
0
 10
-0.0941772
 20
-23.997
 11
-0.281067
 21
-23.9734
  0
LINE
  8
0
 10
-0.281067
 20
-23.9734
 11
-0.463516
 21
-23.9266
  0
LINE
  8
0
 10
-0.463516
 20
-23.9266
 11
-0.638657
 21
-23.8572
  0
LINE
  8
0
 10
-0.638657
 20
-23.8572
 11
-0.803726
 21
-23.7665
  0
LINE
  8
0
 10
-0.803726
 20
-23.7665
 11
-0.956131
 21
-23.6558
  0
LINE
  8
0
 10
-0.956131
 20
-23.6558
 11
-1.09344
 21
-23.5268
  0
LINE
  8
0
 10
-1.09344
 20
-23.5268
 11
-1.21352
 21
-23.3817
  0
LINE
  8
0
 10
-1.21352
 20
-23.3817
 11
-1.31445
 21
-23.2226
  0
LINE
  8
0
 10
-1.31445
 20
-23.2226
 11
-1.39465
 21
-23.0522
  0
LINE
  8
0
 10
-1.39465
 20
-23.0522
 11
-1.45287
 21
-22.873
  0
LINE
  8
0
 10
-1.45287
 20
-22.873
 11
-1.48816
 21
-22.688
  0
LINE
  8
0
 10
-1.48816
 20
-22.688
 11
-1.5
 21
-22.5
  0
LINE
  8
0
 10
-1.5
 20
-22.5
 11
-1.48816
 21
-22.312
  0
LINE
  8
0
 10
-1.48816
 20
-22.312
 11
-1.45287
 21
-22.127
  0
LINE
  8
0
 10
-1.45287
 20
-22.127
 11
-1.39465
 21
-21.9478
  0
LINE
  8
0
 10
-1.39465
 20
-21.9478
 11
-1.31445
 21
-21.7774
  0
LINE
  8
0
 10
-1.31445
 20
-21.7774
 11
-1.21352
 21
-21.6183
  0
LINE
  8
0
 10
-1.21352
 20
-21.6183
 11
-1.09344
 21
-21.4732
  0
LINE
  8
0
 10
-1.09344
 20
-21.4732
 11
-0.956131
 21
-21.3442
  0
LINE
  8
0
 10
-0.956131
 20
-21.3442
 11
-0.803726
 21
-21.2335
  0
LINE
  8
0
 10
-0.803726
 20
-21.2335
 11
-0.638657
 21
-21.1427
  0
LINE
  8
0
 10
-0.638657
 20
-21.1427
 11
-0.463516
 21
-21.0734
  0
LINE
  8
0
 10
-0.463516
 20
-21.0734
 11
-0.281067
 21
-21.0266
  0
LINE
  8
0
 10
-0.281067
 20
-21.0266
 11
-0.0941772
 21
-21.003
  0
LINE
  8
0
 10
-0.0941772
 20
-21.003
 11
0.0941772
 21
-21.003
  0
LINE
  8
0
 10
0.0941772
 20
-21.003
 11
0.281067
 21
-21.0266
  0
LINE
  8
0
 10
0.281067
 20
-21.0266
 11
0.463516
 21
-21.0734
  0
LINE
  8
0
 10
0.463516
 20
-21.0734
 11
0.638657
 21
-21.1427
  0
LINE
  8
0
 10
0.638657
 20
-21.1427
 11
0.803726
 21
-21.2335
  0
LINE
  8
0
 10
0.803726
 20
-21.2335
 11
0.956131
 21
-21.3442
  0
LINE
  8
0
 10
0.956131
 20
-21.3442
 11
1.09344
 21
-21.4732
  0
LINE
  8
0
 10
1.09344
 20
-21.4732
 11
1.21352
 21
-21.6183
  0
LINE
  8
0
 10
1.21352
 20
-21.6183
 11
1.31445
 21
-21.7774
  0
LINE
  8
0
 10
1.31445
 20
-21.7774
 11
1.39465
 21
-21.9478
  0
LINE
  8
0
 10
1.39465
 20
-21.9478
 11
1.45287
 21
-22.127
  0
LINE
  8
0
 10
1.45287
 20
-22.127
 11
1.48816
 21
-22.312
  0
LINE
  8
0
 10
1.48816
 20
-22.312
 11
1.5
 21
-22.5
  0
LINE
  8
0
 10
1.5
 20
-22.5
 11
1.48816
 21
-22.688
  0
LINE
  8
0
 10
1.48816
 20
-22.688
 11
1.45287
 21
-22.873
  0
LINE
  8
0
 10
1.45287
 20
-22.873
 11
1.39465
 21
-23.0522
  0
LINE
  8
0
 10
1.39465
 20
-23.0522
 11
1.31445
 21
-23.2226
  0
LINE
  8
0
 10
1.31445
 20
-23.2226
 11
1.21352
 21
-23.3817
  0
LINE
  8
0
 10
1.21352
 20
-23.3817
 11
1.09344
 21
-23.5268
  0
LINE
  8
0
 10
1.09344
 20
-23.5268
 11
0.956131
 21
-23.6558
  0
LINE
  8
0
 10
0.956131
 20
-23.6558
 11
0.803726
 21
-23.7665
  0
LINE
  8
0
 10
0.803726
 20
-23.7665
 11
0.638657
 21
-23.8572
  0
LINE
  8
0
 10
0.638657
 20
-23.8572
 11
0.463516
 21
-23.9266
  0
LINE
  8
0
 10
0.463516
 20
-23.9266
 11
0.281067
 21
-23.9734
  0
LINE
  8
0
 10
0.281067
 20
-23.9734
 11
0.0941772
 21
-23.997
  0
LINE
  8
0
 10
0.0941772
 20
-23.997
 11
-0.0941772
 21
-23.997
  0
ENDSEC
  0
SECTION
  2
OBJECTS
  0
DICTIONARY
  0
ENDSEC
  0
EOF
