<?xml version="1.0" standalone="no"?>
<!DOCTYPE svg PUBLIC "-//W3C//DTD SVG 1.1//EN" "http://www.w3.org/Graphics/SVG/1.1/DTD/svg11.dtd">
<svg width="122mm" height="122mm" viewBox="-61 -61 122 122" xmlns="http://www.w3.org/2000/svg" version="1.1">
<title>OpenSCAD Model</title>
<path d="
M -0.939941,60.4793 L -0.687134,60.4026 L -0.455734,60.2751 L -0.255981,60.1023 L -0.0964661,59.8917 L 0.0157318,59.6526
 L 0.0438538,59.5322 L 0.0529022,59.5021 L 0.0656433,59.4734 L 0.0818787,59.4465 L 0.104324,59.4186 L 0.153732,59.3656
 L 0.176529,59.344 L 0.190292,59.3333 L 0.347885,59.2194 L 0.374435,59.2027 L 0.391312,59.1942 L 0.62735,59.0875
 L 0.656708,59.0764 L 0.675171,59.0715 L 0.966782,59.0055 L 0.997787,59.0005 L 1.01698,58.9994 L 1.32941,58.9932
 L 1.36078,58.9945 L 1.37981,58.9973 L 1.6738,59.0516 L 1.70425,59.0592 L 1.72226,59.0658 L 1.96234,59.163
 L 1.99063,59.1766 L 2.00668,59.1864 L 2.16869,59.2939 L 2.1937,59.3129 L 2.20654,59.3248 L 2.25806,59.3759
 L 2.27892,59.3994 L 2.29666,59.4252 L 2.31102,59.4532 L 2.32297,59.4869 L 2.35583,59.606 L 2.47748,59.8405
 L 2.6452,60.0446 L 2.85178,60.2094 L 3.08797,60.3276 L 3.34364,60.3941 L 3.6075,60.406 L 3.8681,60.3628
 L 4.11404,60.2663 L 4.33453,60.1208 L 4.52,59.9326 L 4.66223,59.7101 L 4.7551,59.4628 L 4.77354,59.3405
 L 4.78018,59.3098 L 4.79059,59.2802 L 4.80464,59.2521 L 4.8248,59.2225 L 4.86983,59.1657 L 4.89082,59.1424
 L 4.90373,59.1306 L 5.05179,59.0046 L 5.07693,58.9857 L 5.09306,58.976 L 5.31989,58.8509 L 5.34827,58.8375
 L 5.36629,58.8311 L 5.65172,58.7422 L 5.68222,58.7347 L 5.70128,58.7321 L 6.01222,58.7011 L 6.04359,58.6999
 L 6.06279,58.7012 L 6.36017,58.732 L 6.39114,58.7372 L 6.40958,58.7422 L 6.65665,58.8201 L 6.68593,58.8314
 L 6.70273,58.8399 L 6.87276,58.9342 L 6.89922,58.9511 L 6.91295,58.9619 L 6.96834,59.0088 L 6.991,59.0305
 L 7.01074,59.0549 L 7.02727,59.0816 L 7.04185,59.1142 L 7.08408,59.2304 L 7.224,59.4546 L 7.40742,59.6447
 L 7.62633,59.7924 L 7.87125,59.8915 L 8.13142,59.9375 L 8.39536,59.9284 L 8.65172,59.8646 L 8.88919,59.7489
 L 9.09746,59.5863 L 9.26733,59.3841 L 9.39148,59.1508 L 9.46439,58.897 L 9.47307,58.7736 L 9.47725,58.7425
 L 9.48528,58.7122 L 9.49706,58.6831 L 9.5148,58.652 L 9.55518,58.5918 L 9.57426,58.5668 L 9.58617,58.5541
 L 9.72374,58.4167 L 9.74731,58.3959 L 9.76262,58.385 L 9.97878,58.2422 L 10.006,58.2266 L 10.0235,58.2188
 L 10.3009,58.1074 L 10.3307,58.0976 L 10.3495,58.0935 L 10.657,58.0378 L 10.6882,58.0342 L 10.7075,58.0339
 L 11.0063,58.041 L 11.0376,58.0437 L 11.0564,58.0473 L 11.3089,58.1053 L 11.339,58.1142 L 11.3564,58.1214
 L 11.5334,58.2018 L 11.5611,58.2166 L 11.5756,58.2263 L 11.6345,58.2686 L 11.6588,58.2884 L 11.6805,58.3112
 L 11.6991,58.3365 L 11.7162,58.3679 L 11.7676,58.4804 L 11.9248,58.6927 L 12.1228,58.8676 L 12.3528,58.9975
 L 12.6048,59.0768 L 12.8677,59.102 L 13.1302,59.072 L 13.3806,58.988 L 13.6082,58.8538 L 13.8028,58.6752
 L 13.9561,58.4601 L 14.0613,58.2177 L 14.1138,57.9588 L 14.1127,57.8352 L 14.1144,57.8038 L 14.12,57.773
 L 14.1294,57.743 L 14.1446,57.7106 L 14.1801,57.6474 L 14.1971,57.621 L 14.208,57.6073 L 14.3342,57.4594
 L 14.3561,57.4369 L 14.3705,57.4248 L 14.5746,57.2653 L 14.6005,57.2475 L 14.6173,57.2384 L 14.885,57.1053
 L 14.914,57.0932 L 14.9324,57.0875 L 15.2345,57.0077 L 15.2653,57.0016 L 15.2844,56.9998 L 15.5829,56.9831
 L 15.6143,56.9833 L 15.6333,56.9853 L 15.8896,57.0231 L 15.9203,57.0296 L 15.9382,57.0354 L 16.121,57.1015
 L 16.1498,57.114 L 16.1651,57.1226 L 16.2273,57.16 L 16.2531,57.1779 L 16.2764,57.1989 L 16.297,57.2226
 L 16.3165,57.2525 L 16.3766,57.3605 L 16.5503,57.5597 L 16.7615,57.7183 L 17.0011,57.8296 L 17.2586,57.8886
 L 17.5228,57.8928 L 17.782,57.842 L 18.0249,57.7385 L 18.2411,57.5865 L 18.4209,57.3931 L 18.5567,57.1664
 L 18.6423,56.9165 L 18.6741,56.6543 L 18.6631,56.5311 L 18.6623,56.4997 L 18.6654,56.4685 L 18.6724,56.4379
 L 18.685,56.4044 L 18.7153,56.3385 L 18.7303,56.3109 L 18.74,56.2964 L 18.8541,56.139 L 18.8741,56.1147
 L 18.8874,56.1015 L 19.0782,55.9263 L 19.1026,55.9065 L 19.1187,55.8961 L 19.375,55.7422 L 19.4029,55.7278
 L 19.4208,55.7207 L 19.7156,55.6171 L 19.7458,55.6085 L 19.7647,55.6052 L 20.061,55.5649 L 20.0923,55.5626
 L 20.1114,55.5631 L 20.3698,55.5804 L 20.401,55.5845 L 20.4193,55.5888 L 20.6068,55.6402 L 20.6365,55.6504
 L 20.6524,55.6577 L 20.7173,55.6901 L 20.7445,55.7059 L 20.7694,55.7249 L 20.7918,55.7469 L 20.8137,55.7752
 L 20.8822,55.8781 L 21.0711,56.0628 L 21.2942,56.2041 L 21.5419,56.296 L 21.8033,56.3344 L 22.0669,56.3176
 L 22.3213,56.2464 L 22.5552,56.1239 L 22.7587,55.9552 L 22.9226,55.7482 L 23.0399,55.5113 L 23.1054,55.2555
 L 23.1162,54.9915 L 23.0955,54.8696 L 23.0922,54.8384 L 23.0928,54.807 L 23.0974,54.776 L 23.1073,54.7416
 L 23.1323,54.6735 L 23.1449,54.6448 L 23.1535,54.6295 L 23.2547,54.4635 L 23.2727,54.4378 L 23.285,54.4235
 L 23.4613,54.2337 L 23.4841,54.2121 L 23.4992,54.2004 L 23.7425,54.0266 L 23.7691,54.01 L 23.7864,54.0016
 L 24.072,53.8748 L 24.1015,53.8639 L 24.1201,53.8591 L 24.4122,53.7954 L 24.4432,53.7906 L 24.4623,53.7896
 L 24.7213,53.7863 L 24.7527,53.7879 L 24.7713,53.7907 L 24.9623,53.8271 L 24.9927,53.8349 L 25.0091,53.8409
 L 25.0764,53.868 L 25.1047,53.8816 L 25.1311,53.8986 L 25.1552,53.9188 L 25.1793,53.9452 L 25.2557,54.0424
 L 25.4586,54.2115 L 25.6924,54.3347 L 25.9465,54.4066 L 26.2102,54.4241 L 26.4716,54.3864 L 26.7195,54.2952
 L 26.9431,54.1544 L 27.1324,53.9702 L 27.2793,53.7507 L 27.3774,53.5054 L 27.4224,53.2451 L 27.4122,52.9811
 L 27.3819,52.8612 L 27.3761,52.8304 L 27.3743,52.799 L 27.3763,52.7677 L 27.3835,52.7326 L 27.403,52.6628
 L 27.4133,52.6331 L 27.4207,52.6173 L 27.5083,52.4438 L 27.5242,52.4167 L 27.5354,52.4015 L 27.696,52.1983
 L 27.717,52.1749 L 27.7311,52.1621 L 27.9599,51.9695 L 27.9851,51.9508 L 28.0016,51.941 L 28.2763,51.792
 L 28.3048,51.7788 L 28.323,51.7725 L 28.6091,51.6857 L 28.6396,51.6785 L 28.6586,51.6761 L 28.9165,51.6522
 L 28.9479,51.6513 L 28.9667,51.6526 L 29.16,51.6737 L 29.1909,51.679 L 29.2078,51.6837 L 29.277,51.7054
 L 29.3063,51.7167 L 29.3339,51.7316 L 29.3595,51.7498 L 29.3856,51.7742 L 29.4695,51.865 L 29.6853,52.0174
 L 29.928,52.1216 L 30.1871,52.1731 L 30.4513,52.1696 L 30.7089,52.1113 L 30.9488,52.0006 L 31.1604,51.8426
 L 31.3346,51.6439 L 31.4636,51.4135 L 31.5419,51.1611 L 31.5661,50.8981 L 31.535,50.6358 L 31.4952,50.5186
 L 31.487,50.4883 L 31.4826,50.4572 L 31.4822,50.4258 L 31.4865,50.3903 L 31.5004,50.3191 L 31.5084,50.2888
 L 31.5144,50.2724 L 31.5881,50.0924 L 31.6018,50.0642 L 31.6116,50.0482 L 31.7556,49.8328 L 31.7747,49.8079
 L 31.7877,49.7939 L 32.0004,49.5838 L 32.0241,49.5632 L 32.0398,49.5521 L 32.3018,49.3817 L 32.3291,49.3663
 L 32.3468,49.3586 L 32.6251,49.2494 L 32.655,49.2398 L 32.6736,49.2358 L 32.9289,49.1915 L 32.9601,49.188
 L 32.9789,49.1879 L 33.1733,49.1936 L 33.2045,49.1965 L 33.2217,49.1998 L 33.2924,49.2159 L 33.3225,49.2248
 L 33.3513,49.2374 L 33.3782,49.2536 L 33.4062,49.2759 L 33.497,49.3596 L 33.7242,49.4944 L 33.9745,49.5791
 L 34.2369,49.6098 L 34.5,49.5853 L 34.7521,49.5067 L 34.9825,49.3774 L 35.1808,49.203 L 35.3386,48.9911
 L 35.449,48.7511 L 35.507,48.4934 L 35.5101,48.2292 L 35.4583,47.9702 L 35.4093,47.8566 L 35.3988,47.8271
 L 35.392,47.7964 L 35.389,47.7652 L 35.3905,47.7294 L 35.3987,47.6574 L 35.4042,47.6265 L 35.409,47.6096
 L 35.468,47.4244 L 35.4794,47.3952 L 35.488,47.3784 L 35.6145,47.1523 L 35.6315,47.1259 L 35.6434,47.111
 L 35.8387,46.8846 L 35.8607,46.8622 L 35.8755,46.8499 L 36.1231,46.6592 L 36.1491,46.6417 L 36.1661,46.6326
 L 36.4348,46.5016 L 36.4639,46.4897 L 36.4821,46.4842 L 36.733,46.4198 L 36.7639,46.4139 L 36.7827,46.4122
 L 36.9768,46.4024 L 37.0082,46.4028 L 37.0256,46.4047 L 37.0974,46.4152 L 37.1281,46.4217 L 37.1578,46.432
 L 37.1859,46.4459 L 37.2156,46.466 L 37.3128,46.5423 L 37.55,46.6586 L 37.8062,46.7231 L 38.0701,46.7329
 L 38.3304,46.6876 L 38.5755,46.5892 L 38.7949,46.4419 L 38.9788,46.2523 L 39.1193,46.0286 L 39.2102,45.7805
 L 39.2475,45.5191 L 39.2297,45.2554 L 39.1574,45.0014 L 39.0996,44.8921 L 39.0867,44.8634 L 39.0775,44.8335
 L 39.0721,44.8025 L 39.0708,44.7667 L 39.0732,44.6943 L 39.0762,44.663 L 39.0796,44.6459 L 39.1238,44.4566
 L 39.1328,44.4265 L 39.1401,44.4091 L 39.2481,44.1737 L 39.263,44.146 L 39.2737,44.1302 L 39.4504,43.889
 L 39.4705,43.8649 L 39.4843,43.8515 L 39.716,43.6418 L 39.7405,43.6222 L 39.7567,43.6118 L 40.0142,43.4599
 L 40.0422,43.4456 L 40.06,43.4388 L 40.305,43.3546 L 40.3353,43.3463 L 40.3538,43.3431 L 40.5466,43.3179
 L 40.5779,43.3158 L 40.5954,43.3164 L 40.6678,43.3211 L 40.699,43.3251 L 40.7293,43.333 L 40.7585,43.3447
 L 40.7897,43.3623 L 40.8926,43.4306 L 41.1383,43.5278 L 41.3988,43.5717 L 41.6628,43.5605 L 41.9186,43.4946
 L 42.1551,43.3771 L 42.3621,43.2129 L 42.5303,43.0093 L 42.6526,42.775 L 42.7235,42.5206 L 42.74,42.2569
 L 42.7012,41.9956 L 42.609,41.7481 L 42.5427,41.6437 L 42.5276,41.6162 L 42.516,41.587 L 42.5082,41.5566
 L 42.504,41.5211 L 42.5007,41.4487 L 42.5012,41.4173 L 42.5032,41.3999 L 42.5322,41.2076 L 42.5388,41.1769
 L 42.5446,41.159 L 42.6337,40.9158 L 42.6463,40.887 L 42.6557,40.8704 L 42.8127,40.6159 L 42.8309,40.5903
 L 42.8435,40.5758 L 43.0578,40.3484 L 43.0807,40.3269 L 43.096,40.3152 L 43.3406,40.1433 L 43.3674,40.1269
 L 43.3846,40.1187 L 43.6221,40.0153 L 43.6516,40.0046 L 43.6699,40 L 43.8601,39.9596 L 43.8911,39.955
 L 43.9086,39.9541 L 43.9811,39.9531 L 44.0125,39.9547 L 44.0434,39.9601 L 44.0734,39.9694 L 44.1058,39.9845
 L 44.2139,40.0444 L 44.4666,40.1217 L 44.7297,40.1448 L 44.9919,40.1127 L 45.2418,40.0267 L 45.4682,39.8907
 L 45.6614,39.7106 L 45.813,39.4942 L 45.9163,39.2511 L 45.9667,38.9918 L 45.9622,38.7276 L 45.9028,38.4702
 L 45.7912,38.2308 L 45.7168,38.132 L 45.6995,38.1058 L 45.6857,38.0776 L 45.6755,38.0479 L 45.6685,38.0129
 L 45.6594,37.9409 L 45.6575,37.9096 L 45.6581,37.8921 L 45.6717,37.6982 L 45.6759,37.6671 L 45.6803,37.6488
 L 45.7496,37.3992 L 45.7599,37.3695 L 45.768,37.3521 L 45.9043,37.0861 L 45.9204,37.0591 L 45.9318,37.0436
 L 46.1273,36.7999 L 46.1485,36.7767 L 46.1628,36.7638 L 46.393,36.573 L 46.4184,36.5546 L 46.4349,36.5449
 L 46.6635,36.423 L 46.692,36.41 L 46.7098,36.404 L 46.8962,36.3486 L 46.9268,36.3415 L 46.9442,36.3393
 L 47.0164,36.3325 L 47.0478,36.3316 L 47.079,36.3345 L 47.1097,36.3414 L 47.1432,36.3539 L 47.2558,36.405
 L 47.5137,36.462 L 47.7778,36.4641 L 48.0367,36.4112 L 48.2789,36.3057 L 48.4937,36.1522 L 48.6721,35.9572
 L 48.806,35.7295 L 48.8896,35.479 L 48.9193,35.2164 L 48.8938,34.9535 L 48.8142,34.7017 L 48.6839,34.4718
 L 48.6019,34.3793 L 48.5826,34.3545 L 48.5665,34.3275 L 48.554,34.2987 L 48.5443,34.2643 L 48.5295,34.1934
 L 48.525,34.1623 L 48.5243,34.1448 L 48.5225,33.9504 L 48.5242,33.919 L 48.527,33.9004 L 48.5764,33.6461
 L 48.5843,33.6157 L 48.591,33.5978 L 48.7057,33.3217 L 48.7196,33.2935 L 48.7297,33.2773 L 48.9053,33.0187
 L 48.9245,32.9939 L 48.9378,32.98 L 49.1521,32.7715 L 49.1759,32.751 L 49.1916,32.7401 L 49.4097,32.6004
 L 49.4372,32.5852 L 49.4545,32.5778 L 49.6359,32.5077 L 49.6658,32.4983 L 49.6829,32.4947 L 49.7544,32.4822
 L 49.7856,32.4787 L 49.817,32.4792 L 49.8481,32.4837 L 49.8825,32.4934 L 49.9987,32.5354 L 50.2604,32.5718
 L 50.5239,32.5529 L 50.7776,32.4796 L 51.0107,32.3552 L 51.2128,32.185 L 51.375,31.9766 L 51.4904,31.7389
 L 51.5539,31.4825 L 51.5626,31.2185 L 51.5163,30.9584 L 51.4169,30.7136 L 51.2688,30.4949 L 51.1797,30.4092
 L 51.1585,30.386 L 51.1403,30.3604 L 51.1255,30.3327 L 51.1131,30.2991 L 51.0927,30.2296 L 51.0858,30.1989
 L 51.0837,30.1816 L 51.0665,29.9879 L 51.0656,29.9565 L 51.067,29.9378 L 51.096,29.6803 L 51.1015,29.6494
 L 51.1067,29.631 L 51.1992,29.3467 L 51.2107,29.3175 L 51.2196,29.3004 L 51.374,29.0288 L 51.3912,29.0025
 L 51.4033,28.9876 L 51.6004,28.7627 L 51.6225,28.7405 L 51.6373,28.7284 L 51.8437,28.5718 L 51.8698,28.5544
 L 51.8865,28.5456 L 52.0617,28.4614 L 52.0908,28.4496 L 52.1075,28.4447 L 52.1778,28.4265 L 52.2086,28.4206
 L 52.2399,28.4186 L 52.2713,28.4205 L 52.3064,28.4275 L 52.4256,28.4602 L 52.6893,28.4756 L 52.9505,28.4358
 L 53.1977,28.3427 L 53.4201,28.2001 L 53.608,28.0144 L 53.7532,27.7938 L 53.8493,27.5477 L 53.8922,27.287
 L 53.88,27.0232 L 53.8131,26.7675 L 53.6946,26.5315 L 53.5295,26.3251 L 53.4339,26.2468 L 53.4109,26.2254
 L 53.3908,26.2013 L 53.3739,26.1749 L 53.3588,26.1425 L 53.333,26.0747 L 53.3237,26.0447 L 53.3201,26.0276
 L 53.2876,25.8359 L 53.2843,25.8047 L 53.2842,25.7858 L 53.2926,25.5269 L 53.2956,25.4957 L 53.2993,25.4769
 L 53.3689,25.1862 L 53.3781,25.1562 L 53.3856,25.1384 L 53.518,24.8554 L 53.533,24.8278 L 53.5439,24.812
 L 53.7225,24.5722 L 53.7428,24.5482 L 53.7565,24.5349 L 53.9498,24.3625 L 53.9745,24.3431 L 53.9904,24.333
 L 54.1584,24.2351 L 54.1864,24.2211 L 54.2028,24.2148 L 54.2713,24.1911 L 54.3016,24.1828 L 54.3327,24.1783
 L 54.3641,24.1777 L 54.3996,24.1819 L 54.5211,24.205 L 54.7851,24.1994 L 55.0424,24.139 L 55.2813,24.0265
 L 55.4917,23.8667 L 55.6643,23.6667 L 55.7915,23.4352 L 55.8678,23.1823 L 55.8898,22.919 L 55.8566,22.6569
 L 55.7697,22.4075 L 55.6328,22.1815 L 55.4519,21.989 L 55.3503,21.9185 L 55.3257,21.899 L 55.3037,21.8766
 L 55.2848,21.8516 L 55.2671,21.8204 L 55.236,21.755 L 55.2244,21.7258 L 55.2195,21.709 L 55.1718,21.5205
 L 55.166,21.4897 L 55.1644,21.4709 L 55.1523,21.2121 L 55.1528,21.1807 L 55.155,21.1618 L 55.2012,20.8664
 L 55.208,20.8357 L 55.2141,20.8175 L 55.3235,20.5248 L 55.3364,20.4961 L 55.346,20.4794 L 55.5049,20.2262
 L 55.5233,20.2007 L 55.5359,20.1864 L 55.7149,19.9991 L 55.7379,19.9778 L 55.753,19.9665 L 55.9127,19.8556
 L 55.9395,19.8394 L 55.9553,19.8318 L 56.0218,19.8028 L 56.0513,19.7921 L 56.0819,19.7851 L 56.1132,19.7821
 L 56.1489,19.7834 L 56.2718,19.7968 L 56.5346,19.7702 L 56.7862,19.6896 L 57.0155,19.5584 L 57.2125,19.3825
 L 57.3687,19.1693 L 57.4771,18.9284 L 57.533,18.6703 L 57.534,18.4061 L 57.4802,18.1476 L 57.3736,17.9057
 L 57.2193,17.6914 L 57.0236,17.5138 L 56.9168,17.4516 L 56.8907,17.4342 L 56.867,17.4135 L 56.8461,17.3901
 L 56.826,17.3605 L 56.7898,17.2976 L 56.7759,17.2695 L 56.7697,17.2532 L 56.7072,17.0691 L 56.699,17.0388
 L 56.6959,17.0202 L 56.6632,16.7632 L 56.6612,16.7319 L 56.662,16.7128 L 56.6846,16.4147 L 56.6889,16.3836
 L 56.6935,16.3649 L 56.7794,16.0644 L 56.7899,16.0348 L 56.7981,16.0175 L 56.9364,15.7524 L 56.9527,15.7255
 L 56.9642,15.7103 L 57.1277,15.5094 L 57.149,15.4863 L 57.1631,15.4738 L 57.3134,15.3506 L 57.3389,15.3322
 L 57.3541,15.3235 L 57.418,15.2892 L 57.4466,15.2762 L 57.4766,15.2668 L 57.5075,15.2613 L 57.5432,15.2598
 L 57.6667,15.2634 L 57.9267,15.216 L 58.171,15.1157 L 58.3892,14.9667 L 58.5716,14.7756 L 58.7103,14.5508
 L 58.7992,14.302 L 58.8345,14.0403 L 58.8145,13.7768 L 58.7403,13.5233 L 58.6149,13.2908 L 58.444,13.0894
 L 58.2348,12.9279 L 58.1234,12.8744 L 58.096,12.8591 L 58.0708,12.8404 L 58.0481,12.8187 L 58.0257,12.7907
 L 57.9846,12.731 L 57.9685,12.7041 L 57.961,12.6883 L 57.8841,12.5098 L 57.8735,12.4802 L 57.8689,12.4619
 L 57.816,12.2083 L 57.8115,12.1772 L 57.8107,12.1582 L 57.8095,11.8592 L 57.8114,11.8279 L 57.8145,11.8088
 L 57.8762,11.5025 L 57.8843,11.4722 L 57.8912,11.4542 L 58.008,11.179 L 58.022,11.1509 L 58.0323,11.1348
 L 58.1793,10.9215 L 58.1987,10.8969 L 58.2118,10.8833 L 58.3519,10.7485 L 58.3758,10.7282 L 58.3902,10.7182
 L 58.4512,10.679 L 58.4787,10.6638 L 58.5078,10.6521 L 58.5382,10.6441 L 58.5737,10.6398 L 58.6972,10.6335
 L 58.9525,10.5657 L 59.1881,10.4462 L 59.3937,10.2804 L 59.5603,10.0754 L 59.6808,9.84021 L 59.7496,9.58527
 L 59.764,9.32143 L 59.7232,9.06044 L 59.629,8.81367 L 59.4856,8.59183 L 59.2991,8.40463 L 59.0779,8.26031
 L 58.9626,8.21579 L 58.934,8.20267 L 58.9074,8.18608 L 58.883,8.16628 L 58.8585,8.14018 L 58.8128,8.08389
 L 58.7946,8.05832 L 58.7859,8.04317 L 58.695,7.87129 L 58.6821,7.84267 L 58.6761,7.82481 L 58.6031,7.57625
 L 58.5962,7.54562 L 58.5939,7.52666 L 58.569,7.22871 L 58.5684,7.19733 L 58.5699,7.17815 L 58.6071,6.86787
 L 58.6128,6.83699 L 58.6182,6.81853 L 58.7128,6.53493 L 58.7246,6.50583 L 58.7335,6.48892 L 58.8631,6.26465
 L 58.8805,6.23851 L 58.8925,6.22395 L 59.0214,6.07843 L 59.0437,6.05629 L 59.0572,6.04524 L 59.1149,6.00133
 L 59.141,5.98393 L 59.1691,5.96994 L 59.1988,5.95959 L 59.2339,5.95242 L 59.3564,5.9364 L 59.6056,5.84846
 L 59.8309,5.71066 L 60.0227,5.52901 L 60.1726,5.31146 L 60.2739,5.06749 L 60.3223,4.8078 L 60.3157,4.54372
 L 60.2543,4.28682 L 60.1407,4.04823 L 59.9802,3.83853 L 59.7794,3.66675 L 59.5474,3.54047 L 59.4289,3.50523
 L 59.3994,3.49442 L 59.3715,3.47998 L 59.3457,3.46217 L 59.3192,3.43811 L 59.2692,3.38564 L 59.249,3.3616
 L 59.2391,3.3472 L 59.1348,3.18309 L 59.1197,3.15558 L 59.1123,3.13824 L 59.0198,2.89626 L 59.0105,2.86629
 L 59.0067,2.84756 L 58.9582,2.55255 L 58.955,2.5213 L 58.9551,2.50206 L 58.9675,2.18982 L 58.9707,2.15858
 L 58.9746,2.13976 L 59.0464,1.84952 L 59.0558,1.81958 L 59.0634,1.80202 L 59.1748,1.56816 L 59.19,1.54073
 L 59.2008,1.52527 L 59.3177,1.36996 L 59.3382,1.34612 L 59.3508,1.33401 L 59.4049,1.28566 L 59.4296,1.26624
 L 59.4565,1.25006 L 59.4852,1.2374 L 59.5195,1.22748 L 59.6405,1.20177 L 59.8818,1.09433 L 60.0955,0.939026
 L 60.2723,0.742722 L 60.4044,0.513947 L 60.486,0.262695 L 60.5136,-0 L 60.486,-0.262695 L 60.4044,-0.513947
 L 60.2723,-0.742722 L 60.0955,-0.939026 L 59.8818,-1.09433 L 59.6405,-1.20177 L 59.5195,-1.22748 L 59.4893,-1.23592
 L 59.4603,-1.24809 L 59.4332,-1.26379 L 59.4048,-1.28568 L 59.3508,-1.33401 L 59.3288,-1.35637 L 59.3178,-1.36995
 L 59.2008,-1.52525 L 59.1835,-1.55147 L 59.1748,-1.56815 L 59.0634,-1.80202 L 59.0517,-1.83115 L 59.0464,-1.84952
 L 58.9746,-2.13976 L 58.969,-2.17065 L 58.9675,-2.18983 L 58.9551,-2.50208 L 58.9558,-2.53346 L 58.9582,-2.55255
 L 59.0067,-2.84756 L 59.0137,-2.87816 L 59.0198,-2.89627 L 59.1123,-3.13824 L 59.1253,-3.16681 L 59.1348,-3.18306
 L 59.2391,-3.34717 L 59.2576,-3.37256 L 59.2692,-3.38562 L 59.3192,-3.43813 L 59.3423,-3.45944 L 59.3678,-3.47771
 L 59.3954,-3.49261 L 59.4289,-3.50525 L 59.5474,-3.54047 L 59.7794,-3.66675 L 59.9802,-3.83853 L 60.1407,-4.04823
 L 60.2543,-4.28682 L 60.3157,-4.54372 L 60.3223,-4.8078 L 60.2739,-5.06749 L 60.1726,-5.31146 L 60.0227,-5.52901
 L 59.8309,-5.71066 L 59.6056,-5.84846 L 59.3564,-5.9364 L 59.2338,-5.95242 L 59.203,-5.95844 L 59.1732,-5.96826
 L 59.1449,-5.98175 L 59.1149,-6.00133 L 59.0572,-6.04523 L 59.0334,-6.06577 L 59.0214,-6.07843 L 58.8925,-6.22395
 L 58.8732,-6.2487 L 58.8631,-6.26463 L 58.7335,-6.48891 L 58.7195,-6.51701 L 58.7128,-6.53491 L 58.6182,-6.81853
 L 58.6101,-6.84888 L 58.6071,-6.86787 L 58.5699,-7.17815 L 58.5681,-7.20949 L 58.569,-7.22871 L 58.5939,-7.52664
 L 58.5985,-7.55769 L 58.6031,-7.57623 L 58.6761,-7.8248 L 58.6868,-7.85431 L 58.695,-7.87128 L 58.7859,-8.04314
 L 58.8023,-8.06992 L 58.8128,-8.08388 L 58.8586,-8.1402 L 58.8799,-8.16327 L 58.9039,-8.1835 L 58.9302,-8.20056
 L 58.9626,-8.21579 L 59.0779,-8.26031 L 59.2991,-8.40463 L 59.4856,-8.59183 L 59.629,-8.81367 L 59.7232,-9.06044
 L 59.764,-9.32143 L 59.7496,-9.58527 L 59.6808,-9.84021 L 59.5603,-10.0754 L 59.3937,-10.2804 L 59.1881,-10.4462
 L 58.9525,-10.5657 L 58.6972,-10.6335 L 58.5737,-10.6398 L 58.5425,-10.6433 L 58.512,-10.6507 L 58.4826,-10.6619
 L 58.4512,-10.679 L 58.3902,-10.7182 L 58.3649,-10.7368 L 58.3519,-10.7485 L 58.2118,-10.8833 L 58.1906,-10.9064
 L 58.1793,-10.9215 L 58.0323,-11.1348 L 58.0161,-11.1617 L 58.008,-11.179 L 57.8912,-11.4542 L 57.8807,-11.4838
 L 57.8762,-11.5025 L 57.8145,-11.8089 L 57.8102,-11.84 L 57.8096,-11.8592 L 57.8107,-12.1581 L 57.8128,-12.1895
 L 57.816,-12.2083 L 57.8689,-12.4619 L 57.8773,-12.4922 L 57.8841,-12.5097 L 57.961,-12.6883 L 57.9752,-12.7162
 L 57.9846,-12.731 L 58.0257,-12.7907 L 58.0451,-12.8154 L 58.0674,-12.8375 L 58.0923,-12.8566 L 58.1234,-12.8744
 L 58.2348,-12.9279 L 58.444,-13.0894 L 58.6149,-13.2908 L 58.7403,-13.5233 L 58.8145,-13.7768 L 58.8345,-14.0403
 L 58.7992,-14.302 L 58.7103,-14.5508 L 58.5716,-14.7756 L 58.3892,-14.9667 L 58.171,-15.1157 L 57.9267,-15.216
 L 57.6667,-15.2634 L 57.5432,-15.2598 L 57.5118,-15.2609 L 57.4808,-15.2659 L 57.4507,-15.2747 L 57.418,-15.2893
 L 57.354,-15.3235 L 57.3273,-15.34 L 57.3135,-15.3506 L 57.1631,-15.4738 L 57.1401,-15.4952 L 57.1277,-15.5093
 L 56.9642,-15.7103 L 56.9459,-15.7358 L 56.9364,-15.7524 L 56.7981,-16.0175 L 56.7854,-16.0461 L 56.7794,-16.0644
 L 56.6935,-16.3649 L 56.6868,-16.3955 L 56.6846,-16.4147 L 56.662,-16.7128 L 56.6616,-16.7442 L 56.6633,-16.7632
 L 56.6959,-17.0202 L 56.7018,-17.051 L 56.7072,-17.0691 L 56.7697,-17.2532 L 56.7817,-17.2822 L 56.7899,-17.2976
 L 56.8261,-17.3605 L 56.8434,-17.3866 L 56.8639,-17.4104 L 56.8873,-17.4314 L 56.9168,-17.4516 L 57.0236,-17.5138
 L 57.2193,-17.6914 L 57.3736,-17.9057 L 57.4802,-18.1476 L 57.534,-18.4061 L 57.533,-18.6703 L 57.4771,-18.9284
 L 57.3687,-19.1693 L 57.2125,-19.3825 L 57.0155,-19.5584 L 56.7862,-19.6896 L 56.5346,-19.7702 L 56.2718,-19.7968
 L 56.1489,-19.7834 L 56.1175,-19.7819 L 56.0862,-19.7844 L 56.0555,-19.7908 L 56.0217,-19.8028 L 55.9553,-19.8318
 L 55.9274,-19.8461 L 55.9127,-19.8556 L 55.753,-19.9665 L 55.7284,-19.986 L 55.7149,-19.9991 L 55.5359,-20.1864
 L 55.5157,-20.2104 L 55.5049,-20.2262 L 55.346,-20.4794 L 55.331,-20.507 L 55.3235,-20.5248 L 55.2141,-20.8175
 L 55.205,-20.8475 L 55.2012,-20.8664 L 55.155,-21.1617 L 55.1521,-21.193 L 55.1523,-21.2121 L 55.1644,-21.4709
 L 55.1679,-21.5021 L 55.1718,-21.5205 L 55.2195,-21.709 L 55.2291,-21.7389 L 55.236,-21.7549 L 55.2672,-21.8205
 L 55.2824,-21.8479 L 55.3009,-21.8732 L 55.3225,-21.8961 L 55.3503,-21.9185 L 55.4519,-21.9891 L 55.6328,-22.1815
 L 55.7697,-22.4075 L 55.8566,-22.6569 L 55.8898,-22.919 L 55.8678,-23.1823 L 55.7915,-23.4352 L 55.6643,-23.6667
 L 55.4917,-23.8667 L 55.2813,-24.0265 L 55.0424,-24.139 L 54.7851,-24.1994 L 54.521,-24.205 L 54.3996,-24.1819
 L 54.3685,-24.1779 L 54.3371,-24.178 L 54.3059,-24.1819 L 54.2713,-24.1911 L 54.2028,-24.2148 L 54.1738,-24.2268
 L 54.1584,-24.2351 L 53.9904,-24.333 L 53.9643,-24.3504 L 53.9498,-24.3625 L 53.7565,-24.5349 L 53.7345,-24.5573
 L 53.7225,-24.5722 L 53.5439,-24.812 L 53.5268,-24.8383 L 53.518,-24.8554 L 53.3856,-25.1384 L 53.3741,-25.1676
 L 53.3689,-25.1862 L 53.2994,-25.4769 L 53.294,-25.5079 L 53.2926,-25.5269 L 53.2842,-25.7858 L 53.2851,-25.8172
 L 53.2876,-25.8359 L 53.3202,-26.0276 L 53.3273,-26.0581 L 53.333,-26.0746 L 53.3588,-26.1424 L 53.3718,-26.171
 L 53.3883,-26.1977 L 53.408,-26.2222 L 53.4339,-26.2468 L 53.5295,-26.3251 L 53.6946,-26.5315 L 53.8131,-26.7675
 L 53.88,-27.0232 L 53.8922,-27.287 L 53.8493,-27.5477 L 53.7532,-27.7938 L 53.608,-28.0144 L 53.4201,-28.2001
 L 53.1977,-28.3427 L 52.9505,-28.4358 L 52.6893,-28.4756 L 52.4256,-28.4602 L 52.3064,-28.4275 L 52.2756,-28.4211
 L 52.2443,-28.4186 L 52.213,-28.4201 L 52.1778,-28.4265 L 52.1076,-28.4446 L 52.0777,-28.4544 L 52.0617,-28.4614
 L 51.8865,-28.5456 L 51.8591,-28.561 L 51.8437,-28.5718 L 51.6373,-28.7283 L 51.6135,-28.7488 L 51.6004,-28.7627
 L 51.4033,-28.9876 L 51.3842,-29.0125 L 51.374,-29.0288 L 51.2196,-29.3004 L 51.2058,-29.3287 L 51.1992,-29.3467
 L 51.1067,-29.631 L 51.0989,-29.6615 L 51.0961,-29.6803 L 51.067,-29.9377 L 51.0655,-29.9691 L 51.0665,-29.9879
 L 51.0837,-30.1816 L 51.0884,-30.2126 L 51.0928,-30.2296 L 51.1131,-30.2992 L 51.1238,-30.3287 L 51.1381,-30.3567
 L 51.1558,-30.3826 L 51.1797,-30.4092 L 51.2688,-30.4949 L 51.4169,-30.7136 L 51.5163,-30.9584 L 51.5626,-31.2185
 L 51.5539,-31.4825 L 51.4904,-31.7389 L 51.375,-31.9766 L 51.2128,-32.185 L 51.0107,-32.3552 L 50.7776,-32.4796
 L 50.5239,-32.5529 L 50.2604,-32.5718 L 49.9987,-32.5354 L 49.8824,-32.4934 L 49.8523,-32.4846 L 49.8213,-32.4796
 L 49.7899,-32.4786 L 49.7543,-32.4822 L 49.6829,-32.4947 L 49.6524,-32.502 L 49.6359,-32.5077 L 49.4545,-32.5778
 L 49.426,-32.5909 L 49.4097,-32.6004 L 49.1916,-32.7401 L 49.1663,-32.7587 L 49.1521,-32.7715 L 48.9378,-32.98
 L 48.9167,-33.0032 L 48.9053,-33.0187 L 48.7297,-33.2773 L 48.7138,-33.3043 L 48.7057,-33.3217 L 48.591,-33.5978
 L 48.5808,-33.6275 L 48.5764,-33.6461 L 48.5271,-33.9004 L 48.523,-33.9315 L 48.5225,-33.9504 L 48.5243,-34.1448
 L 48.5266,-34.1761 L 48.5295,-34.1933 L 48.5443,-34.2643 L 48.5526,-34.2946 L 48.5646,-34.3236 L 48.5802,-34.3509
 L 48.6019,-34.3793 L 48.6839,-34.4718 L 48.8142,-34.7017 L 48.8938,-34.9535 L 48.9193,-35.2164 L 48.8896,-35.479
 L 48.806,-35.7295 L 48.6721,-35.9572 L 48.4937,-36.1522 L 48.2789,-36.3057 L 48.0367,-36.4112 L 47.7778,-36.4641
 L 47.5137,-36.462 L 47.2558,-36.405 L 47.1432,-36.3538 L 47.1138,-36.3427 L 47.0833,-36.3353 L 47.0521,-36.3317
 L 47.0164,-36.3325 L 46.9442,-36.3392 L 46.9131,-36.3441 L 46.8962,-36.3485 L 46.7099,-36.404 L 46.6804,-36.4148
 L 46.6635,-36.423 L 46.4349,-36.5449 L 46.4082,-36.5614 L 46.393,-36.573 L 46.1628,-36.7638 L 46.1399,-36.7853
 L 46.1273,-36.7999 L 45.9318,-37.0436 L 45.9137,-37.0693 L 45.9043,-37.0861 L 45.768,-37.3522 L 45.7555,-37.381
 L 45.7497,-37.3992 L 45.6803,-37.6487 L 45.6738,-37.6794 L 45.6717,-37.6982 L 45.6581,-37.8921 L 45.6579,-37.9235
 L 45.6594,-37.9409 L 45.6685,-38.0129 L 45.6744,-38.0437 L 45.6841,-38.0736 L 45.6974,-38.102 L 45.7168,-38.132
 L 45.7912,-38.2308 L 45.9028,-38.4702 L 45.9622,-38.7276 L 45.9667,-38.9918 L 45.9163,-39.2511 L 45.813,-39.4942
 L 45.6614,-39.7106 L 45.4682,-39.8907 L 45.2418,-40.0267 L 44.9919,-40.1127 L 44.7297,-40.1448 L 44.4666,-40.1217
 L 44.2139,-40.0444 L 44.1058,-39.9845 L 44.0775,-39.971 L 44.0476,-39.9612 L 44.0168,-39.9552 L 43.9811,-39.9531
 L 43.9086,-39.9541 L 43.8773,-39.9565 L 43.8601,-39.9595 L 43.6699,-40 L 43.6397,-40.0084 L 43.6221,-40.0153
 L 43.3846,-40.1186 L 43.3566,-40.1329 L 43.3406,-40.1433 L 43.096,-40.3153 L 43.0715,-40.3349 L 43.0578,-40.3484
 L 42.8435,-40.5758 L 42.8235,-40.6 L 42.8127,-40.616 L 42.6557,-40.8704 L 42.6409,-40.8981 L 42.6337,-40.9157
 L 42.5447,-41.159 L 42.5358,-41.1891 L 42.5322,-41.2076 L 42.5032,-41.3999 L 42.5005,-41.4311 L 42.5007,-41.4486
 L 42.504,-41.5211 L 42.5074,-41.5523 L 42.5147,-41.5829 L 42.5258,-41.6122 L 42.5427,-41.6437 L 42.609,-41.7481
 L 42.7012,-41.9956 L 42.74,-42.2569 L 42.7235,-42.5206 L 42.6526,-42.775 L 42.5303,-43.0093 L 42.3621,-43.2129
 L 42.1551,-43.3771 L 41.9186,-43.4946 L 41.6628,-43.5605 L 41.3988,-43.5717 L 41.1383,-43.5278 L 40.8927,-43.4306
 L 40.7896,-43.3623 L 40.7624,-43.3466 L 40.7335,-43.3344 L 40.7032,-43.326 L 40.6678,-43.3211 L 40.5954,-43.3163
 L 40.564,-43.3163 L 40.5466,-43.3179 L 40.3539,-43.3431 L 40.323,-43.3491 L 40.305,-43.3546 L 40.06,-43.4387
 L 40.031,-43.4508 L 40.0142,-43.4599 L 39.7567,-43.6118 L 39.7307,-43.6294 L 39.716,-43.6418 L 39.4843,-43.8515
 L 39.4624,-43.874 L 39.4505,-43.889 L 39.2737,-44.1302 L 39.2568,-44.1566 L 39.2481,-44.1737 L 39.1401,-44.4091
 L 39.1288,-44.4384 L 39.1238,-44.4566 L 39.0796,-44.6459 L 39.0744,-44.6768 L 39.0732,-44.6942 L 39.0708,-44.7668
 L 39.0717,-44.7981 L 39.0765,-44.8292 L 39.0852,-44.8593 L 39.0996,-44.8921 L 39.1574,-45.0014 L 39.2297,-45.2554
 L 39.2475,-45.5191 L 39.2102,-45.7805 L 39.1193,-46.0286 L 38.9788,-46.2523 L 38.7949,-46.4419 L 38.5755,-46.5892
 L 38.3304,-46.6876 L 38.0701,-46.7329 L 37.8062,-46.7231 L 37.55,-46.6586 L 37.3128,-46.5423 L 37.2155,-46.4659
 L 37.1897,-46.4481 L 37.1618,-46.4337 L 37.1323,-46.4229 L 37.0973,-46.4152 L 37.0256,-46.4047 L 36.9943,-46.4022
 L 36.9769,-46.4024 L 36.7827,-46.4122 L 36.7515,-46.4158 L 36.7331,-46.4198 L 36.4822,-46.4842 L 36.4523,-46.4939
 L 36.4348,-46.5016 L 36.1661,-46.6326 L 36.1388,-46.6481 L 36.1231,-46.6592 L 35.8755,-46.8499 L 35.8519,-46.8706
 L 35.8387,-46.8846 L 35.6434,-47.111 L 35.6244,-47.136 L 35.6145,-47.1523 L 35.488,-47.3784 L 35.4745,-47.4067
 L 35.4681,-47.4244 L 35.409,-47.6096 L 35.4013,-47.6401 L 35.3987,-47.6573 L 35.3905,-47.7294 L 35.3889,-47.7608
 L 35.3913,-47.7921 L 35.3976,-47.8228 L 35.4093,-47.8567 L 35.4583,-47.9703 L 35.5101,-48.2292 L 35.507,-48.4934
 L 35.449,-48.7511 L 35.3386,-48.9911 L 35.1808,-49.203 L 34.9825,-49.3774 L 34.7521,-49.5067 L 34.5,-49.5853
 L 34.2369,-49.6098 L 33.9745,-49.5791 L 33.7242,-49.4944 L 33.497,-49.3596 L 33.4062,-49.2758 L 33.3818,-49.256
 L 33.3551,-49.2395 L 33.3266,-49.2263 L 33.2924,-49.2159 L 33.2217,-49.1997 L 33.1907,-49.1947 L 33.1733,-49.1936
 L 32.9789,-49.1879 L 32.9476,-49.1889 L 32.9289,-49.1915 L 32.6737,-49.2358 L 32.6431,-49.2431 L 32.6251,-49.2494
 L 32.3468,-49.3586 L 32.3183,-49.3719 L 32.3018,-49.3817 L 32.0398,-49.5521 L 32.0146,-49.5708 L 32.0005,-49.5838
 L 31.7878,-49.7939 L 31.7668,-49.8173 L 31.7556,-49.8328 L 31.6116,-50.0482 L 31.5959,-50.0753 L 31.5881,-50.0924
 L 31.5145,-50.2724 L 31.5044,-50.3021 L 31.5005,-50.3192 L 31.4866,-50.3904 L 31.4825,-50.4215 L 31.4823,-50.4529
 L 31.4861,-50.484 L 31.4952,-50.5187 L 31.535,-50.6357 L 31.5661,-50.8981 L 31.5419,-51.1611 L 31.4636,-51.4135
 L 31.3346,-51.6439 L 31.1604,-51.8426 L 30.9488,-52.0006 L 30.7089,-52.1113 L 30.4513,-52.1696 L 30.1871,-52.1731
 L 29.928,-52.1216 L 29.6853,-52.0174 L 29.4696,-51.865 L 29.3856,-51.7742 L 29.3629,-51.7525 L 29.3376,-51.7339
 L 29.3102,-51.7185 L 29.2769,-51.7054 L 29.2078,-51.6837 L 29.1773,-51.6762 L 29.16,-51.6737 L 28.9667,-51.6526
 L 28.9353,-51.6511 L 28.9165,-51.6522 L 28.6586,-51.6761 L 28.6276,-51.6809 L 28.6091,-51.6857 L 28.323,-51.7725
 L 28.2936,-51.7835 L 28.2763,-51.792 L 28.0016,-51.941 L 27.975,-51.9577 L 27.9598,-51.9695 L 27.7311,-52.1621
 L 27.7084,-52.1838 L 27.696,-52.1983 L 27.5354,-52.4015 L 27.5175,-52.4273 L 27.5084,-52.4438 L 27.4207,-52.6173
 L 27.4083,-52.6462 L 27.403,-52.6628 L 27.3835,-52.7326 L 27.377,-52.7634 L 27.3743,-52.7946 L 27.3756,-52.826
 L 27.3819,-52.8612 L 27.4122,-52.9811 L 27.4224,-53.2451 L 27.3774,-53.5054 L 27.2793,-53.7507 L 27.1324,-53.9702
 L 26.9431,-54.1544 L 26.7195,-54.2952 L 26.4716,-54.3864 L 26.2102,-54.4241 L 25.9465,-54.4066 L 25.6924,-54.3347
 L 25.4586,-54.2115 L 25.2557,-54.0424 L 25.1792,-53.9452 L 25.1583,-53.9218 L 25.1346,-53.9012 L 25.1085,-53.8837
 L 25.0764,-53.868 L 25.0091,-53.8409 L 24.9794,-53.831 L 24.9623,-53.8271 L 24.7713,-53.7907 L 24.7402,-53.7868
 L 24.7214,-53.7863 L 24.4623,-53.7896 L 24.431,-53.792 L 24.4122,-53.7953 L 24.1201,-53.8591 L 24.0899,-53.8677
 L 24.072,-53.8748 L 23.7864,-54.0016 L 23.7585,-54.0161 L 23.7425,-54.0267 L 23.4992,-54.2004 L 23.4748,-54.2202
 L 23.4613,-54.2337 L 23.285,-54.4235 L 23.2651,-54.4478 L 23.2547,-54.4635 L 23.1535,-54.6295 L 23.1389,-54.6573
 L 23.1323,-54.6735 L 23.1073,-54.7416 L 23.0984,-54.7717 L 23.0933,-54.8027 L 23.0921,-54.8341 L 23.0955,-54.8697
 L 23.1162,-54.9915 L 23.1054,-55.2555 L 23.0399,-55.5113 L 22.9226,-55.7482 L 22.7587,-55.9552 L 22.5552,-56.1239
 L 22.3213,-56.2464 L 22.0669,-56.3176 L 21.8033,-56.3344 L 21.5419,-56.296 L 21.2942,-56.2041 L 21.0711,-56.0628
 L 20.8822,-55.8781 L 20.8137,-55.7752 L 20.7947,-55.7502 L 20.7727,-55.7278 L 20.7481,-55.7083 L 20.7173,-55.6901
 L 20.6524,-55.6577 L 20.6235,-55.6454 L 20.6068,-55.6402 L 20.4193,-55.5888 L 20.3886,-55.5824 L 20.3699,-55.5804
 L 20.1114,-55.5631 L 20.08,-55.563 L 20.061,-55.5648 L 19.7647,-55.6052 L 19.7339,-55.6114 L 19.7156,-55.6171
 L 19.4208,-55.7207 L 19.3919,-55.7329 L 19.375,-55.7422 L 19.1187,-55.8961 L 19.0928,-55.9139 L 19.0783,-55.9263
 L 18.8875,-56.1015 L 18.8657,-56.1241 L 18.8541,-56.1389 L 18.74,-56.2964 L 18.7232,-56.3229 L 18.7153,-56.3386
 L 18.685,-56.4045 L 18.6737,-56.4338 L 18.6662,-56.4642 L 18.6625,-56.4954 L 18.6631,-56.5312 L 18.6741,-56.6543
 L 18.6423,-56.9165 L 18.5567,-57.1664 L 18.4209,-57.3931 L 18.2411,-57.5865 L 18.0249,-57.7385 L 17.782,-57.842
 L 17.5228,-57.8928 L 17.2586,-57.8886 L 17.0011,-57.8296 L 16.7615,-57.7183 L 16.5503,-57.5597 L 16.3766,-57.3605
 L 16.3165,-57.2525 L 16.2996,-57.2261 L 16.2794,-57.202 L 16.2564,-57.1806 L 16.2272,-57.16 L 16.1651,-57.1225
 L 16.1373,-57.108 L 16.1211,-57.1015 L 15.9383,-57.0353 L 15.9081,-57.0265 L 15.8896,-57.0231 L 15.6333,-56.9853
 L 15.602,-56.9827 L 15.5829,-56.9831 L 15.2844,-56.9998 L 15.2532,-57.0035 L 15.2345,-57.0077 L 14.9324,-57.0875
 L 14.9026,-57.0975 L 14.885,-57.1053 L 14.6173,-57.2384 L 14.5901,-57.2541 L 14.5746,-57.2653 L 14.3705,-57.4248
 L 14.347,-57.4456 L 14.3342,-57.4595 L 14.208,-57.6073 L 14.1892,-57.6325 L 14.1801,-57.6474 L 14.1446,-57.7107
 L 14.131,-57.739 L 14.1211,-57.7688 L 14.1149,-57.7996 L 14.1127,-57.8353 L 14.1138,-57.9588 L 14.0613,-58.2177
 L 13.9561,-58.4601 L 13.8028,-58.6752 L 13.6082,-58.8538 L 13.3806,-58.988 L 13.1302,-59.072 L 12.8677,-59.102
 L 12.6048,-59.0768 L 12.3528,-58.9975 L 12.1228,-58.8676 L 11.9248,-58.6927 L 11.7676,-58.4804 L 11.7162,-58.3679
 L 11.7014,-58.3402 L 11.6833,-58.3146 L 11.662,-58.2914 L 11.6345,-58.2686 L 11.5756,-58.2263 L 11.549,-58.2096
 L 11.5334,-58.2018 L 11.3564,-58.1214 L 11.3271,-58.1102 L 11.3089,-58.1053 L 11.0564,-58.0473 L 11.0254,-58.0422
 L 11.0063,-58.041 L 10.7074,-58.0339 L 10.6761,-58.0351 L 10.657,-58.0378 L 10.3495,-58.0935 L 10.3191,-58.101
 L 10.3009,-58.1074 L 10.0235,-58.2188 L 9.99513,-58.2323 L 9.97879,-58.2422 L 9.76263,-58.385 L 9.73758,-58.4039
 L 9.72375,-58.4167 L 9.58618,-58.5541 L 9.56541,-58.5776 L 9.55519,-58.5918 L 9.5148,-58.652 L 9.49899,-58.6791
 L 9.48669,-58.708 L 9.47813,-58.7382 L 9.47307,-58.7737 L 9.46439,-58.897 L 9.39148,-59.1508 L 9.26733,-59.3841
 L 9.09746,-59.5863 L 8.88919,-59.7489 L 8.65172,-59.8646 L 8.39536,-59.9284 L 8.13142,-59.9375 L 7.87125,-59.8915
 L 7.62633,-59.7924 L 7.40742,-59.6447 L 7.224,-59.4546 L 7.08409,-59.2304 L 7.04187,-59.1142 L 7.02931,-59.0855
 L 7.01324,-59.0585 L 6.99393,-59.0337 L 6.96831,-59.0087 L 6.91293,-58.9619 L 6.88773,-58.9432 L 6.87277,-58.9342
 L 6.70274,-58.8399 L 6.67439,-58.8264 L 6.65666,-58.8201 L 6.40959,-58.7422 L 6.3791,-58.7347 L 6.36018,-58.732
 L 6.06281,-58.7012 L 6.03143,-58.6999 L 6.01224,-58.7011 L 5.70129,-58.7321 L 5.6703,-58.7372 L 5.65173,-58.7422
 L 5.36629,-58.8311 L 5.33696,-58.8423 L 5.31989,-58.8509 L 5.09308,-58.976 L 5.0666,-58.9929 L 5.0518,-59.0046
 L 4.90375,-59.1306 L 4.88116,-59.1524 L 4.86986,-59.1657 L 4.82481,-59.2225 L 4.8069,-59.2483 L 4.79236,-59.2761
 L 4.78142,-59.3056 L 4.77354,-59.3405 L 4.7551,-59.4628 L 4.66223,-59.7101 L 4.52,-59.9326 L 4.33453,-60.1208
 L 4.11404,-60.2663 L 3.8681,-60.3628 L 3.6075,-60.406 L 3.34364,-60.3941 L 3.08797,-60.3276 L 2.85178,-60.2094
 L 2.6452,-60.0446 L 2.47748,-59.8405 L 2.35583,-59.606 L 2.32295,-59.4868 L 2.31271,-59.4571 L 2.29884,-59.429
 L 2.28156,-59.4028 L 2.25804,-59.3758 L 2.20657,-59.3248 L 2.18295,-59.3041 L 2.16873,-59.2939 L 2.00673,-59.1864
 L 1.97952,-59.1707 L 1.96234,-59.163 L 1.72224,-59.0658 L 1.69247,-59.0558 L 1.67383,-59.0516 L 1.37982,-58.9973
 L 1.34865,-58.9935 L 1.32941,-58.9932 L 1.01698,-58.9994 L 0.985687,-59.002 L 0.966782,-59.0055 L 0.675186,-59.0715
 L 0.645065,-59.0803 L 0.627365,-59.0875 L 0.391327,-59.1942 L 0.363586,-59.209 L 0.347916,-59.2194 L 0.190323,-59.3333
 L 0.166077,-59.3532 L 0.153732,-59.3656 L 0.104294,-59.4187 L 0.0843964,-59.443 L 0.067688,-59.4696 L 0.0544434,-59.498
 L 0.0438385,-59.5322 L 0.0157318,-59.6526 L -0.0964661,-59.8917 L -0.255981,-60.1023 L -0.455734,-60.2751 L -0.687134,-60.4026
 L -0.939941,-60.4793 L -1.20312,-60.5016 L -1.46523,-60.4688 L -1.71484,-60.3822 L -1.94093,-60.2456 L -2.13367,-60.065
 L -2.28468,-59.8482 L -2.3873,-59.6048 L -2.4106,-59.4834 L -2.41844,-59.453 L -2.43004,-59.4238 L -2.44519,-59.3963
 L -2.46649,-59.3676 L -2.51375,-59.3125 L -2.53566,-59.2901 L -2.54906,-59.2788 L -2.70201,-59.1588 L -2.72787,-59.141
 L -2.74435,-59.1319 L -2.97595,-59.0159 L -3.00484,-59.0036 L -3.02312,-58.9979 L -3.31187,-58.9204 L -3.34265,-58.9142
 L -3.36179,-58.9123 L -3.67372,-58.8937 L -3.70512,-58.8938 L -3.72426,-58.8958 L -4.02017,-58.9384 L -4.0509,-58.9448
 L -4.06912,-58.9506 L -4.3129,-59.0382 L -4.34172,-59.0507 L -4.35817,-59.0598 L -4.52431,-59.1608 L -4.55006,-59.1788
 L -4.56334,-59.1901 L -4.61684,-59.2391 L -4.6386,-59.2618 L -4.65736,-59.2869 L -4.67284,-59.3143 L -4.68613,-59.3475
 L -4.72371,-59.4653 L -4.85457,-59.6947 L -5.0303,-59.892 L -5.24316,-60.0484 L -5.48392,-60.1571 L -5.74205,-60.2134
 L -6.00618,-60.2148 L -6.26488,-60.1612 L -6.50676,-60.0551 L -6.7213,-59.9009 L -6.89909,-59.7056 L -7.03241,-59.4775
 L -7.11537,-59.2267 L -7.12895,-59.1038 L -7.13435,-59.0729 L -7.14359,-59.0428 L -7.15651,-59.0142 L -7.17548,-58.9839
 L -7.21822,-58.9253 L -7.23828,-58.9012 L -7.25069,-58.8889 L -7.3936,-58.7571 L -7.41797,-58.7373 L -7.43372,-58.7269
 L -7.65538,-58.5929 L -7.68321,-58.5783 L -7.70097,-58.5712 L -7.98265,-58.471 L -8.01283,-58.4624 L -8.03175,-58.459
 L -8.34122,-58.4156 L -8.37253,-58.4132 L -8.39175,-58.4137 L -8.69012,-58.4327 L -8.72127,-58.4366 L -8.73988,-58.4409
 L -8.98985,-58.5089 L -9.01958,-58.5191 L -9.0367,-58.5269 L -9.21034,-58.6143 L -9.23744,-58.6302 L -9.2516,-58.6405
 L -9.30881,-58.6851 L -9.33231,-58.7059 L -9.35301,-58.7295 L -9.37059,-58.7555 L -9.38646,-58.7875 L -9.43329,-58.9019
 L -9.58199,-59.1203 L -9.77281,-59.303 L -9.99748,-59.442 L -10.2461,-59.5312 L -10.5078,-59.5668 L -10.7713,-59.5473
 L -11.0249,-59.4733 L -11.2576,-59.3483 L -11.4592,-59.1776 L -11.6209,-58.9687 L -11.7357,-58.7308 L -11.7985,-58.4741
 L -11.8022,-58.3505 L -11.8051,-58.3193 L -11.812,-58.2886 L -11.8226,-58.2591 L -11.8391,-58.2273 L -11.877,-58.1655
 L -11.8951,-58.1399 L -11.9065,-58.1266 L -12.0385,-57.9839 L -12.0612,-57.9622 L -12.0761,-57.9507 L -12.2864,-57.7994
 L -12.313,-57.7827 L -12.3301,-57.7742 L -12.603,-57.652 L -12.6323,-57.641 L -12.6509,-57.6361 L -12.956,-57.5683
 L -12.987,-57.5634 L -13.0062,-57.5623 L -13.3051,-57.5575 L -13.3365,-57.559 L -13.3554,-57.5618 L -13.61,-57.6097
 L -13.6404,-57.6175 L -13.6581,-57.6239 L -13.8381,-57.6973 L -13.8664,-57.7109 L -13.8813,-57.7201 L -13.9419,-57.76
 L -13.967,-57.7789 L -13.9895,-57.8008 L -14.0091,-57.8253 L -14.0275,-57.856 L -14.0832,-57.9663 L -14.2488,-58.1721
 L -14.4536,-58.3391 L -14.6885,-58.4597 L -14.9435,-58.529 L -15.2072,-58.5437 L -15.4683,-58.5033 L -15.7152,-58.4094
 L -15.9372,-58.2663 L -16.1246,-58.0801 L -16.2693,-57.859 L -16.3647,-57.6127 L -16.4069,-57.3519 L -16.4009,-57.2284
 L -16.4013,-57.197 L -16.4057,-57.1659 L -16.4139,-57.1356 L -16.4278,-57.1027 L -16.4607,-57.0381 L -16.4767,-57.011
 L -16.487,-56.9969 L -16.6073,-56.8441 L -16.6282,-56.8207 L -16.6421,-56.808 L -16.8397,-56.6405 L -16.8649,-56.6218
 L -16.8813,-56.612 L -17.1436,-56.4684 L -17.172,-56.4551 L -17.1901,-56.4487 L -17.4888,-56.3569 L -17.5194,-56.3496
 L -17.5384,-56.347 L -17.836,-56.3185 L -17.8674,-56.3174 L -17.8865,-56.3188 L -18.1441,-56.3463 L -18.175,-56.3516
 L -18.1932,-56.3566 L -18.3785,-56.4155 L -18.4077,-56.4268 L -18.4233,-56.4347 L -18.4869,-56.4697 L -18.5134,-56.4865
 L -18.5376,-56.5066 L -18.5591,-56.5295 L -18.5798,-56.5586 L -18.6442,-56.6641 L -18.8255,-56.8562 L -19.0429,-57.0063
 L -19.2867,-57.108 L -19.5464,-57.1567 L -19.8105,-57.1504 L -20.0675,-57.0894 L -20.3062,-56.9762 L -20.5161,-56.8158
 L -20.6882,-56.6154 L -20.8147,-56.3835 L -20.8904,-56.1304 L -20.9117,-55.8671 L -20.8958,-55.7444 L -20.8938,-55.7131
 L -20.8956,-55.6818 L -20.9014,-55.6509 L -20.9127,-55.6169 L -20.9404,-55.5499 L -20.9542,-55.5217 L -20.9633,-55.5069
 L -21.0711,-55.345 L -21.0901,-55.32 L -21.1029,-55.3062 L -21.2866,-55.1236 L -21.3102,-55.1029 L -21.3258,-55.0918
 L -21.5758,-54.9279 L -21.6031,-54.9123 L -21.6207,-54.9045 L -21.9111,-54.7893 L -21.941,-54.7796 L -21.9598,-54.7755
 L -22.2542,-54.7234 L -22.2854,-54.7198 L -22.3045,-54.7196 L -22.5634,-54.7266 L -22.5947,-54.7295 L -22.6132,-54.733
 L -22.8026,-54.7769 L -22.8326,-54.7859 L -22.8489,-54.7926 L -22.915,-54.8224 L -22.9427,-54.8371 L -22.9684,-54.8551
 L -22.9917,-54.8763 L -23.0147,-54.9036 L -23.0872,-55.0037 L -23.2833,-55.1807 L -23.5119,-55.3132 L -23.763,-55.3951
 L -24.0257,-55.4231 L -24.2884,-55.3958 L -24.5398,-55.3145 L -24.7687,-55.1828 L -24.9653,-55.0062 L -25.1208,-54.7927
 L -25.2286,-54.5515 L -25.2839,-54.2932 L -25.2842,-54.0291 L -25.2587,-53.9081 L -25.2542,-53.877 L -25.2535,-53.8456
 L -25.2569,-53.8144 L -25.2654,-53.7796 L -25.2876,-53.7106 L -25.2991,-53.6814 L -25.3071,-53.6658 L -25.4016,-53.4959
 L -25.4186,-53.4695 L -25.4303,-53.4548 L -25.5989,-53.2581 L -25.6208,-53.2356 L -25.6354,-53.2233 L -25.8716,-53.04
 L -25.8976,-53.0224 L -25.9145,-53.0132 L -26.1949,-52.8752 L -26.2239,-52.8632 L -26.2423,-52.8576 L -26.5316,-52.7823
 L -26.5624,-52.7763 L -26.5815,-52.7746 L -26.8401,-52.761 L -26.8716,-52.7613 L -26.8902,-52.7634 L -27.0825,-52.7921
 L -27.1132,-52.7987 L -27.1299,-52.804 L -27.1982,-52.8285 L -27.227,-52.8409 L -27.2541,-52.8569 L -27.2789,-52.8761
 L -27.304,-52.9015 L -27.3843,-52.9956 L -27.5938,-53.1564 L -27.8322,-53.2702 L -28.0891,-53.332 L -28.3531,-53.339
 L -28.6129,-53.291 L -28.857,-53.19 L -29.0747,-53.0404 L -29.2566,-52.8488 L -29.3947,-52.6236 L -29.483,-52.3747
 L -29.5176,-52.1128 L -29.4969,-51.8494 L -29.4618,-51.7309 L -29.4548,-51.7002 L -29.4517,-51.669 L -29.4526,-51.6376
 L -29.4583,-51.6022 L -29.475,-51.5317 L -29.4842,-51.5017 L -29.4909,-51.4856 L -29.5716,-51.3087 L -29.5864,-51.281
 L -29.5969,-51.2654 L -29.7493,-51.0559 L -29.7694,-51.0317 L -29.783,-51.0183 L -30.0039,-50.8168 L -30.0283,-50.7972
 L -30.0445,-50.7867 L -30.313,-50.6269 L -30.341,-50.6126 L -30.3589,-50.6056 L -30.6413,-50.5075 L -30.6715,-50.4991
 L -30.6904,-50.4958 L -30.9472,-50.4617 L -30.9785,-50.4595 L -30.9973,-50.4601 L -31.1913,-50.4735 L -31.2224,-50.4776
 L -31.2394,-50.4816 L -31.3094,-50.5006 L -31.3392,-50.5107 L -31.3674,-50.5244 L -31.3937,-50.5416 L -31.4207,-50.565
 L -31.5082,-50.6524 L -31.7298,-50.7961 L -31.9765,-50.8906 L -32.2375,-50.9317 L -32.5013,-50.9177 L -32.7564,-50.8492
 L -32.9917,-50.7292 L -33.1969,-50.5627 L -33.363,-50.3573 L -33.4827,-50.1219 L -33.551,-49.8666 L -33.5646,-49.6029
 L -33.5231,-49.3419 L -33.4787,-49.2265 L -33.4693,-49.1966 L -33.4637,-49.1657 L -33.4621,-49.1344 L -33.465,-49.0987
 L -33.4761,-49.027 L -33.4828,-48.9963 L -33.4882,-48.9797 L -33.5546,-48.797 L -33.5672,-48.7682 L -33.5764,-48.7518
 L -33.7117,-48.5309 L -33.7297,-48.5052 L -33.7422,-48.4908 L -33.9464,-48.2724 L -33.9693,-48.2509 L -33.9845,-48.2391
 L -34.2395,-48.0585 L -34.2662,-48.042 L -34.2835,-48.0336 L -34.5573,-47.9134 L -34.5867,-47.9026 L -34.6053,-47.8978
 L -34.8585,-47.8434 L -34.8896,-47.8388 L -34.9084,-47.8379 L -35.1028,-47.8358 L -35.1341,-47.8374 L -35.1515,-47.8401
 L -35.2228,-47.8534 L -35.2532,-47.8611 L -35.2824,-47.8726 L -35.31,-47.8876 L -35.3388,-47.9088 L -35.4329,-47.9889
 L -35.6653,-48.1146 L -35.9187,-48.1892 L -36.1822,-48.2095 L -36.444,-48.1746 L -36.6928,-48.086 L -36.9178,-47.9476
 L -37.1091,-47.7654 L -37.2585,-47.5474 L -37.3591,-47.3033 L -37.4068,-47.0434 L -37.3995,-46.7793 L -37.3374,-46.5226
 L -37.284,-46.4111 L -37.2722,-46.382 L -37.2642,-46.3516 L -37.26,-46.3205 L -37.2601,-46.2847 L -37.2654,-46.2124
 L -37.2697,-46.1813 L -37.2738,-46.1643 L -37.3255,-45.9768 L -37.3357,-45.9471 L -37.3436,-45.9301 L -37.4609,-45.6991
 L -37.4769,-45.6721 L -37.4882,-45.6567 L -37.6744,-45.4227 L -37.6954,-45.3994 L -37.7097,-45.3866 L -37.9495,-45.1862
 L -37.9748,-45.1677 L -37.9914,-45.1579 L -38.2547,-45.0163 L -38.2833,-45.0032 L -38.3014,-44.997 L -38.5495,-44.9227
 L -38.5801,-44.9156 L -38.5988,-44.9132 L -38.7924,-44.8957 L -38.8238,-44.8948 L -38.8412,-44.8961 L -38.9134,-44.9037
 L -38.9444,-44.909 L -38.9744,-44.9181 L -39.0031,-44.9309 L -39.0335,-44.9497 L -39.1337,-45.0221 L -39.3753,-45.1289
 L -39.6338,-45.1831 L -39.898,-45.1824 L -40.1562,-45.1268 L -40.3974,-45.0187 L -40.6106,-44.8629 L -40.7868,-44.6661
 L -40.9183,-44.437 L -40.9993,-44.1855 L -41.0262,-43.9227 L -40.9979,-43.6601 L -40.9155,-43.409 L -40.8535,-43.3021
 L -40.8394,-43.274 L -40.829,-43.2444 L -40.8224,-43.2137 L -40.8196,-43.178 L -40.8192,-43.1055 L -40.821,-43.0742
 L -40.8237,-43.0569 L -40.8603,-42.866 L -40.8682,-42.8356 L -40.8747,-42.8179 L -40.9733,-42.5784 L -40.987,-42.5502
 L -40.9971,-42.5339 L -41.1641,-42.2859 L -41.1833,-42.261 L -41.1965,-42.247 L -41.4196,-42.0283 L -41.4434,-42.0078
 L -41.4591,-41.9967 L -41.7104,-41.8347 L -41.7378,-41.8194 L -41.7553,-41.8117 L -41.9968,-41.7179 L -42.0267,-41.7084
 L -42.0451,-41.7045 L -42.2367,-41.6717 L -42.268,-41.6684 L -42.2854,-41.6682 L -42.358,-41.6701 L -42.3892,-41.6729
 L -42.4199,-41.6795 L -42.4495,-41.69 L -42.4813,-41.7063 L -42.5869,-41.7705 L -42.8363,-41.8578 L -43.0983,-41.8913
 L -43.3617,-41.8696 L -43.6146,-41.7937 L -43.8463,-41.6668 L -44.0466,-41.4945 L -44.2066,-41.2843 L -44.3195,-41.0455
 L -44.3802,-40.7885 L -44.3861,-40.5243 L -44.3371,-40.2647 L -44.2351,-40.0211 L -44.1647,-39.9194 L -44.1485,-39.8925
 L -44.1357,-39.8638 L -44.1267,-39.8338 L -44.1211,-39.7984 L -44.1149,-39.7262 L -44.1142,-39.6948 L -44.1155,-39.6774
 L -44.1369,-39.4841 L -44.1423,-39.4532 L -44.1474,-39.4351 L -44.2266,-39.1884 L -44.2381,-39.1592 L -44.2468,-39.1422
 L -44.3936,-38.8817 L -44.4107,-38.8554 L -44.4228,-38.8404 L -44.6278,-38.6046 L -44.6499,-38.5823 L -44.6647,-38.57
 L -44.9023,-38.3885 L -44.9284,-38.3711 L -44.9453,-38.3621 L -45.1785,-38.2494 L -45.2076,-38.2375 L -45.2256,-38.2322
 L -45.4141,-38.1842 L -45.4449,-38.1784 L -45.4623,-38.1769 L -45.5347,-38.173 L -45.5661,-38.1733 L -45.5972,-38.1775
 L -45.6276,-38.1856 L -45.6606,-38.1994 L -45.771,-38.255 L -46.0265,-38.3222 L -46.2904,-38.3348 L -46.5511,-38.2922
 L -46.7973,-38.1964 L -47.0182,-38.0515 L -47.2041,-37.8638 L -47.3469,-37.6417 L -47.4405,-37.3946 L -47.4806,-37.1335
 L -47.4655,-36.8698 L -47.396,-36.6149 L -47.2749,-36.3801 L -47.1967,-36.2843 L -47.1784,-36.2588 L -47.1634,-36.2312
 L -47.152,-36.202 L -47.1436,-36.1672 L -47.1317,-36.0957 L -47.1285,-36.0644 L -47.1284,-36.047 L -47.1344,-35.8526
 L -47.1373,-35.8214 L -47.1409,-35.8029 L -47.2003,-35.5508 L -47.2095,-35.5207 L -47.2168,-35.5031 L -47.3425,-35.2318
 L -47.3574,-35.2042 L -47.3682,-35.1883 L -47.5539,-34.9369 L -47.5741,-34.9129 L -47.5879,-34.8995 L -47.8103,-34.6997
 L -47.835,-34.6802 L -47.8511,-34.6699 L -48.0746,-34.539 L -48.1026,-34.5249 L -48.1202,-34.5182 L -48.3042,-34.4554
 L -48.3345,-34.4471 L -48.3517,-34.4442 L -48.4236,-34.4346 L -48.4549,-34.4324 L -48.4863,-34.4341 L -48.5172,-34.4397
 L -48.5512,-34.4509 L -48.6657,-34.4975 L -48.9257,-34.5442 L -49.1897,-34.5358 L -49.4463,-34.4727 L -49.684,-34.3576
 L -49.8927,-34.1956 L -50.0631,-33.9938 L -50.1879,-33.7609 L -50.2615,-33.5073 L -50.2807,-33.2437 L -50.2448,-32.982
 L -50.1552,-32.7335 L -50.0159,-32.5091 L -49.9303,-32.4199 L -49.91,-32.3959 L -49.8929,-32.3696 L -49.8792,-32.3413
 L -49.8681,-32.3073 L -49.8505,-32.2369 L -49.8448,-32.206 L -49.8434,-32.1887 L -49.8339,-31.9945 L -49.8343,-31.9631
 L -49.8364,-31.9444 L -49.8757,-31.6883 L -49.8823,-31.6576 L -49.8883,-31.6395 L -49.9919,-31.359 L -50.0047,-31.3303
 L -50.0142,-31.3136 L -50.1793,-31.0483 L -50.1976,-31.0227 L -50.2103,-31.0083 L -50.4161,-30.7915 L -50.4391,-30.7701
 L -50.4543,-30.7586 L -50.6668,-30.6103 L -50.6936,-30.594 L -50.7106,-30.5859 L -50.889,-30.5087 L -50.9186,-30.4981
 L -50.9355,-30.4938 L -51.0064,-30.4785 L -51.0375,-30.4738 L -51.0688,-30.473 L -51.1001,-30.4762 L -51.1349,-30.4845
 L -51.2527,-30.522 L -51.5156,-30.5479 L -51.7781,-30.5185 L -52.0288,-30.4352 L -52.2567,-30.3016 L -52.4518,-30.1236
 L -52.6057,-29.9088 L -52.7115,-29.6668 L -52.7648,-29.4081 L -52.763,-29.1438 L -52.7064,-28.8858 L -52.5974,-28.6452
 L -52.4406,-28.4325 L -52.3482,-28.3504 L -52.3261,-28.3281 L -52.3069,-28.3032 L -52.2911,-28.2762 L -52.2773,-28.2431
 L -52.2542,-28.1744 L -52.2461,-28.144 L -52.2432,-28.1268 L -52.2183,-27.934 L -52.2162,-27.9027 L -52.2169,-27.8839
 L -52.2356,-27.6255 L -52.2399,-27.5944 L -52.2443,-27.5758 L -52.3254,-27.288 L -52.3358,-27.2584 L -52.344,-27.241
 L -52.4875,-26.9634 L -52.5036,-26.9365 L -52.5152,-26.9211 L -52.7031,-26.6886 L -52.7243,-26.6654 L -52.7386,-26.6527
 L -52.9386,-26.4881 L -52.9641,-26.4697 L -52.9803,-26.4603 L -53.1521,-26.3691 L -53.1806,-26.3562 L -53.1973,-26.3505
 L -53.2667,-26.3296 L -53.2973,-26.3225 L -53.3285,-26.3193 L -53.3599,-26.3199 L -53.3952,-26.3255 L -53.5156,-26.3535
 L -53.7798,-26.3584 L -54.0391,-26.3082 L -54.2825,-26.2053 L -54.499,-26.054 L -54.6794,-25.861 L -54.8156,-25.6348
 L -54.9019,-25.385 L -54.9344,-25.1228 L -54.9117,-24.8597 L -54.8347,-24.607 L -54.707,-24.3758 L -54.5338,-24.1762
 L -54.4352,-24.1017 L -54.4113,-24.0812 L -54.3903,-24.058 L -54.3723,-24.0322 L -54.3559,-24.0004 L -54.3275,-23.9337
 L -54.317,-23.9042 L -54.3127,-23.8872 L -54.2726,-23.6969 L -54.2681,-23.6659 L -54.2672,-23.6471 L -54.2654,-23.388
 L -54.2671,-23.3567 L -54.2701,-23.3378 L -54.328,-23.0445 L -54.336,-23.0141 L -54.3428,-22.9961 L -54.4638,-22.708
 L -54.4778,-22.6799 L -54.488,-22.6636 L -54.6569,-22.4169 L -54.6762,-22.3922 L -54.6895,-22.3784 L -54.8757,-22.1984
 L -54.8996,-22.178 L -54.9151,-22.1673 L -55.0791,-22.0628 L -55.1066,-22.0476 L -55.1226,-22.0407 L -55.1902,-22.0144
 L -55.2201,-22.0048 L -55.251,-21.9991 L -55.2823,-21.9973 L -55.318,-22 L -55.4402,-22.0183 L -55.7039,-22.0022
 L -55.9585,-21.9316 L -56.1928,-21.8097 L -56.3967,-21.6417 L -56.5612,-21.4349 L -56.6791,-21.1986 L -56.7452,-20.9428
 L -56.7568,-20.679 L -56.7132,-20.4183 L -56.6164,-20.1726 L -56.4707,-19.9523 L -56.2822,-19.7671 L -56.178,-19.7006
 L -56.1526,-19.6821 L -56.1297,-19.6606 L -56.1098,-19.6364 L -56.0909,-19.606 L -56.0573,-19.5417 L -56.0444,-19.5131
 L -56.0389,-19.4965 L -55.9837,-19.3101 L -55.9767,-19.2794 L -55.9744,-19.2608 L -55.952,-19.0027 L -55.9512,-18.9713
 L -55.9527,-18.9523 L -55.9872,-18.6553 L -55.9928,-18.6244 L -55.9981,-18.6059 L -56.0958,-18.3091 L -56.1075,-18.2799
 L -56.1164,-18.2629 L -56.2652,-18.0036 L -56.2824,-17.9774 L -56.2945,-17.9626 L -56.4659,-17.7683 L -56.4881,-17.7461
 L -56.5027,-17.7342 L -56.6579,-17.617 L -56.6841,-17.5997 L -56.6995,-17.5915 L -56.7648,-17.5599 L -56.7939,-17.548
 L -56.8242,-17.5398 L -56.8553,-17.5356 L -56.8911,-17.5355 L -57.0143,-17.544 L -57.2759,-17.507 L -57.5241,-17.4164
 L -57.748,-17.2762 L -57.9379,-17.0925 L -58.0854,-16.8734 L -58.1841,-16.6284 L -58.2298,-16.3682 L -58.2203,-16.1042
 L -58.1562,-15.8479 L -58.0402,-15.6106 L -57.8773,-15.4026 L -57.6749,-15.233 L -57.5656,-15.175 L -57.5388,-15.1586
 L -57.5144,-15.1389 L -57.4925,-15.1164 L -57.4713,-15.0875 L -57.4326,-15.0262 L -57.4176,-14.9987 L -57.4108,-14.9826
 L -57.341,-14.8011 L -57.3315,-14.7711 L -57.3277,-14.7527 L -57.2849,-14.4972 L -57.2816,-14.466 L -57.2816,-14.4469
 L -57.2924,-14.1481 L -57.2955,-14.1169 L -57.2993,-14.098 L -57.3731,-13.7944 L -57.3825,-13.7644 L -57.39,-13.7467
 L -57.5177,-13.4764 L -57.5328,-13.4489 L -57.5437,-13.4332 L -57.6991,-13.2259 L -57.7195,-13.202 L -57.7331,-13.189
 L -57.8784,-13.0599 L -57.9032,-13.0405 L -57.9179,-13.0311 L -57.9805,-12.9944 L -58.0085,-12.9803 L -58.0381,-12.9697
 L -58.0687,-12.963 L -58.1044,-12.96 L -58.228,-12.9587 L -58.4858,-12.9011 L -58.726,-12.791 L -58.938,-12.6335
 L -59.1127,-12.4353 L -59.2424,-12.2052 L -59.3213,-11.9531 L -59.3462,-11.6901 L -59.3158,-11.4277 L -59.2315,-11.1773
 L -59.097,-10.95 L -58.9182,-10.7556 L -58.7027,-10.6025 L -58.5893,-10.5534 L -58.5613,-10.5392 L -58.5353,-10.5215
 L -58.5118,-10.5008 L -58.4883,-10.4737 L -58.4449,-10.4156 L -58.4277,-10.3894 L -58.4196,-10.3739 L -58.3356,-10.1986
 L -58.3239,-10.1695 L -58.3186,-10.1514 L -58.2556,-9.9001 L -58.2499,-9.86922 L -58.2484,-9.85017 L -58.2353,-9.55148
 L -58.2359,-9.5201 L -58.2383,-9.50101 L -58.2878,-9.19247 L -58.2947,-9.16185 L -58.3008,-9.14362 L -58.4066,-8.86398
 L -58.4195,-8.83537 L -58.4291,-8.81882 L -58.5675,-8.59988 L -58.5859,-8.57446 L -58.5984,-8.56041 L -58.7331,-8.42012
 L -58.7562,-8.39888 L -58.7702,-8.38835 L -58.8296,-8.34677 L -58.8564,-8.33043 L -58.8851,-8.31758 L -58.9151,-8.30841
 L -58.9504,-8.30264 L -59.0736,-8.29152 L -59.3259,-8.21358 L -59.5566,-8.08484 L -59.7555,-7.9109 L -59.9138,-7.69954
 L -60.0248,-7.45975 L -60.0835,-7.20221 L -60.0873,-6.93811 L -60.0362,-6.67892 L -59.9323,-6.43604 L -59.7801,-6.22008
 L -59.5864,-6.04047 L -59.3596,-5.90508 L -59.2426,-5.86516 L -59.2135,-5.85318 L -59.1862,-5.83765 L -59.1611,-5.81883
 L -59.1356,-5.79367 L -59.0877,-5.73923 L -59.0685,-5.7144 L -59.0592,-5.69968 L -58.9615,-5.53156 L -58.9475,-5.50348
 L -58.9408,-5.48586 L -58.858,-5.24039 L -58.8499,-5.21007 L -58.8468,-5.19119 L -58.8101,-4.89449 L -58.8082,-4.86314
 L -58.809,-4.84393 L -58.8338,-4.53242 L -58.8383,-4.50136 L -58.8429,-4.48268 L -58.9262,-4.19554 L -58.9368,-4.16599
 L -58.945,-4.14876 L -59.0656,-3.91951 L -59.082,-3.8927 L -59.0933,-3.87769 L -59.2164,-3.72716 L -59.2377,-3.70415
 L -59.2508,-3.69255 L -59.3068,-3.64636 L -59.3322,-3.62794 L -59.3597,-3.61285 L -59.3889,-3.60133 L -59.4237,-3.59277
 L -59.5455,-3.5719 L -59.791,-3.47414 L -60.0107,-3.3275 L -60.1951,-3.13832 L -60.3362,-2.91501 L -60.4277,-2.66721
 L -60.4658,-2.40581 L -60.4486,-2.14223 L -60.377,-1.88791 L -60.2542,-1.65411 L -60.0853,-1.45084 L -59.878,-1.28722
 L -59.6411,-1.17029 L -59.5212,-1.13977 L -59.4914,-1.13013 L -59.4629,-1.11682 L -59.4364,-1.10005 L -59.409,-1.07706
 L -59.3569,-1.02661 L -59.3358,-1.0034 L -59.3253,-0.989395 L -59.2146,-0.829559 L -59.1984,-0.802673 L -59.1903,-0.78566
 L -59.0883,-0.547546 L -59.0778,-0.517975 L -59.0732,-0.499405 L -59.0131,-0.206543 L -59.0087,-0.175461 L -59.0079,-0.156235
 L -59.0079,0.156235 L -59.0099,0.187561 L -59.0131,0.206543 L -59.0732,0.49939 L -59.0815,0.529694 L -59.0883,0.547531
 L -59.1903,0.785645 L -59.2045,0.813675 L -59.2146,0.829544 L -59.3253,0.98938 L -59.3448,1.01401 L -59.3569,1.0266
 L -59.409,1.07707 L -59.4329,1.09746 L -59.4591,1.11469 L -59.4873,1.12849 L -59.5213,1.13979 L -59.6411,1.17029
 L -59.878,1.28722 L -60.0853,1.45084 L -60.2542,1.65411 L -60.377,1.88791 L -60.4486,2.14223 L -60.4658,2.40581
 L -60.4277,2.66721 L -60.3362,2.91501 L -60.1951,3.13832 L -60.0107,3.3275 L -59.791,3.47414 L -59.5455,3.57191
 L -59.4236,3.5928 L -59.3931,3.60004 L -59.3637,3.61104 L -59.3359,3.62566 L -59.3068,3.64635 L -59.2509,3.69249
 L -59.228,3.71394 L -59.2164,3.72713 L -59.0933,3.87767 L -59.075,3.90318 L -59.0657,3.91948 L -58.945,4.14873
 L -58.9322,4.17737 L -58.9262,4.19554 L -58.8429,4.4827 L -58.8361,4.51334 L -58.8338,4.53242 L -58.809,4.84393
 L -58.8085,4.87534 L -58.8101,4.8945 L -58.8468,5.19121 L -58.8526,5.22206 L -58.858,5.2404 L -58.9408,5.48586
 L -58.9527,5.51491 L -58.9615,5.53152 L -59.0592,5.69965 L -59.0766,5.72575 L -59.0877,5.73927 L -59.1357,5.79373
 L -59.1578,5.81595 L -59.1826,5.83521 L -59.2096,5.85121 L -59.2426,5.86514 L -59.3596,5.90506 L -59.5864,6.04047
 L -59.7801,6.22008 L -59.9323,6.43604 L -60.0362,6.67892 L -60.0873,6.93811 L -60.0835,7.20221 L -60.0248,7.45975
 L -59.9138,7.69954 L -59.7555,7.9109 L -59.5566,8.08484 L -59.3259,8.21358 L -59.0736,8.29152 L -58.9504,8.30264
 L -58.9193,8.30743 L -58.8892,8.31607 L -58.8603,8.32841 L -58.8296,8.34679 L -58.7702,8.38835 L -58.7456,8.40793
 L -58.7331,8.42009 L -58.5984,8.56036 L -58.5782,8.58434 L -58.5675,8.59987 L -58.4291,8.81882 L -58.414,8.84634
 L -58.4066,8.86395 L -58.3008,9.14359 L -58.2915,9.17358 L -58.2877,9.19247 L -58.2383,9.50102 L -58.2352,9.53227
 L -58.2353,9.55148 L -58.2484,9.85017 L -58.2517,9.88139 L -58.2556,9.90012 L -58.3186,10.1514 L -58.3282,10.1813
 L -58.3356,10.1985 L -58.4196,10.3739 L -58.435,10.4013 L -58.4449,10.4157 L -58.4884,10.4738 L -58.5088,10.4977
 L -58.532,10.5188 L -58.5576,10.5369 L -58.5893,10.5534 L -58.7028,10.6025 L -58.9182,10.7556 L -59.097,10.95
 L -59.2315,11.1773 L -59.3158,11.4277 L -59.3462,11.6901 L -59.3213,11.9531 L -59.2424,12.2052 L -59.1127,12.4353
 L -58.938,12.6335 L -58.726,12.791 L -58.4858,12.9011 L -58.228,12.9587 L -58.1044,12.96 L -58.0731,12.9623
 L -58.0423,12.9685 L -58.0125,12.9785 L -57.9804,12.9944 L -57.9179,13.0311 L -57.8919,13.0487 L -57.8784,13.0598
 L -57.7331,13.189 L -57.711,13.2113 L -57.6991,13.2259 L -57.5437,13.4331 L -57.5265,13.4594 L -57.5177,13.4763
 L -57.39,13.7467 L -57.3784,13.7759 L -57.3731,13.7944 L -57.2993,14.098 L -57.2938,14.1289 L -57.2924,14.1481
 L -57.2816,14.4469 L -57.2825,14.4783 L -57.2849,14.4972 L -57.3278,14.7527 L -57.3349,14.7833 L -57.341,14.8011
 L -57.4108,14.9826 L -57.4239,15.0111 L -57.4327,15.0262 L -57.4714,15.0876 L -57.4897,15.113 L -57.5112,15.136
 L -57.5353,15.156 L -57.5656,15.175 L -57.6749,15.233 L -57.8773,15.4026 L -58.0402,15.6106 L -58.1562,15.8479
 L -58.2203,16.1042 L -58.2298,16.3682 L -58.1841,16.6284 L -58.0854,16.8734 L -57.9379,17.0925 L -57.748,17.2762
 L -57.5241,17.4164 L -57.2759,17.507 L -57.0143,17.544 L -56.891,17.5355 L -56.8596,17.5353 L -56.8284,17.539
 L -56.798,17.5466 L -56.7647,17.5599 L -56.6995,17.5915 L -56.6721,17.607 L -56.6579,17.617 L -56.5027,17.7342
 L -56.4789,17.7546 L -56.4659,17.7683 L -56.2945,17.9625 L -56.2753,17.9873 L -56.2652,18.0036 L -56.1164,18.2629
 L -56.1025,18.291 L -56.0958,18.3091 L -55.9981,18.6059 L -55.9901,18.6363 L -55.9872,18.6553 L -55.9527,18.9523
 L -55.9511,18.9836 L -55.952,19.0027 L -55.9744,19.2608 L -55.9791,19.2918 L -55.9837,19.3101 L -56.0389,19.4965
 L -56.0497,19.526 L -56.0573,19.5417 L -56.091,19.606 L -56.1073,19.6328 L -56.1268,19.6574 L -56.1493,19.6793
 L -56.178,19.7007 L -56.2822,19.7671 L -56.4707,19.9523 L -56.6164,20.1726 L -56.7132,20.4183 L -56.7568,20.679
 L -56.7452,20.9428 L -56.6791,21.1986 L -56.5612,21.4349 L -56.3967,21.6417 L -56.1928,21.8097 L -55.9585,21.9316
 L -55.7039,22.0022 L -55.4403,22.0183 L -55.318,22 L -55.2867,21.9973 L -55.2553,21.9986 L -55.2244,22.0038
 L -55.1901,22.0144 L -55.1226,22.0407 L -55.0941,22.0539 L -55.0791,22.0628 L -54.9151,22.1673 L -54.8898,22.1858
 L -54.8757,22.1983 L -54.6895,22.3784 L -54.6683,22.4016 L -54.6569,22.4169 L -54.488,22.6636 L -54.4719,22.6906
 L -54.4638,22.708 L -54.3428,22.9961 L -54.3325,23.0258 L -54.328,23.0445 L -54.2701,23.3378 L -54.2659,23.3689
 L -54.2654,23.388 L -54.2672,23.6471 L -54.2694,23.6784 L -54.2726,23.6969 L -54.3128,23.8872 L -54.3212,23.9174
 L -54.3275,23.9337 L -54.3559,24.0004 L -54.3701,24.0284 L -54.3876,24.0545 L -54.4082,24.0781 L -54.4352,24.1017
 L -54.5338,24.1762 L -54.707,24.3758 L -54.8347,24.607 L -54.9117,24.8597 L -54.9344,25.1228 L -54.9019,25.385
 L -54.8156,25.6348 L -54.6794,25.861 L -54.499,26.054 L -54.2825,26.2053 L -54.0391,26.3082 L -53.7798,26.3584
 L -53.5157,26.3535 L -53.3952,26.3255 L -53.3642,26.3203 L -53.3329,26.3191 L -53.3016,26.3218 L -53.2667,26.3296
 L -53.1972,26.3505 L -53.1678,26.3614 L -53.1521,26.3691 L -52.9803,26.4602 L -52.9536,26.4767 L -52.9386,26.4881
 L -52.7386,26.6527 L -52.7157,26.6742 L -52.7031,26.6886 L -52.5152,26.9211 L -52.497,26.9467 L -52.4875,26.9634
 L -52.344,27.241 L -52.3313,27.2697 L -52.3254,27.288 L -52.2444,27.5758 L -52.2377,27.6065 L -52.2356,27.6255
 L -52.2169,27.8838 L -52.2166,27.9152 L -52.2183,27.934 L -52.2432,28.1268 L -52.2492,28.1576 L -52.2542,28.1744
 L -52.2773,28.2432 L -52.2892,28.2723 L -52.3046,28.2996 L -52.3233,28.3248 L -52.3482,28.3504 L -52.4406,28.4325
 L -52.5974,28.6452 L -52.7064,28.8858 L -52.763,29.1438 L -52.7648,29.4081 L -52.7115,29.6668 L -52.6057,29.9088
 L -52.4518,30.1236 L -52.2567,30.3016 L -52.0288,30.4352 L -51.7781,30.5185 L -51.5156,30.5479 L -51.2527,30.522
 L -51.1348,30.4845 L -51.1044,30.4769 L -51.0732,30.4732 L -51.0418,30.4734 L -51.0063,30.4785 L -50.9355,30.4938
 L -50.9053,30.5023 L -50.889,30.5087 L -50.7106,30.5859 L -50.6826,30.6001 L -50.6668,30.6103 L -50.4543,30.7585
 L -50.4298,30.7781 L -50.4161,30.7914 L -50.2103,31.0083 L -50.1901,31.0324 L -50.1793,31.0483 L -50.0142,31.3136
 L -49.9993,31.3413 L -49.992,31.359 L -49.8883,31.6394 L -49.8793,31.6695 L -49.8757,31.6883 L -49.8365,31.9443
 L -49.8337,31.9756 L -49.8339,31.9944 L -49.8434,32.1886 L -49.8469,32.2198 L -49.8505,32.237 L -49.8681,32.3073
 L -49.8776,32.3373 L -49.8908,32.3658 L -49.9075,32.3924 L -49.9303,32.4199 L -50.0159,32.5091 L -50.1552,32.7335
 L -50.2448,32.982 L -50.2807,33.2437 L -50.2615,33.5073 L -50.1879,33.7609 L -50.0631,33.9938 L -49.8927,34.1956
 L -49.684,34.3576 L -49.4463,34.4727 L -49.1897,34.5358 L -48.9257,34.5442 L -48.6657,34.4975 L -48.5512,34.4509
 L -48.5214,34.4408 L -48.4906,34.4347 L -48.4593,34.4324 L -48.4236,34.4346 L -48.3518,34.4442 L -48.321,34.4503
 L -48.3042,34.4554 L -48.1202,34.5181 L -48.0912,34.5301 L -48.0746,34.539 L -47.8511,34.6699 L -47.825,34.6874
 L -47.8103,34.6997 L -47.5879,34.8995 L -47.5659,34.9219 L -47.5539,34.9369 L -47.3682,35.1882 L -47.3512,35.2146
 L -47.3424,35.2318 L -47.2168,35.5031 L -47.2055,35.5323 L -47.2004,35.5507 L -47.1409,35.8029 L -47.1357,35.8338
 L -47.1344,35.8526 L -47.1284,36.0469 L -47.1295,36.0783 L -47.1317,36.0956 L -47.1436,36.1672 L -47.1507,36.1978
 L -47.1616,36.2272 L -47.1761,36.2551 L -47.1967,36.2844 L -47.2749,36.3801 L -47.396,36.6149 L -47.4655,36.8698
 L -47.4806,37.1335 L -47.4405,37.3946 L -47.3469,37.6417 L -47.2041,37.8638 L -47.0182,38.0515 L -46.7973,38.1964
 L -46.5511,38.2922 L -46.2904,38.3348 L -46.0265,38.3222 L -45.771,38.255 L -45.6606,38.1993 L -45.6317,38.187
 L -45.6015,38.1784 L -45.5705,38.1736 L -45.5347,38.173 L -45.4623,38.1769 L -45.4311,38.1805 L -45.4141,38.1842
 L -45.2256,38.2322 L -45.1958,38.2418 L -45.1785,38.2494 L -44.9453,38.3621 L -44.9179,38.3775 L -44.9023,38.3885
 L -44.6647,38.57 L -44.641,38.5906 L -44.6278,38.6046 L -44.4228,38.8404 L -44.4037,38.8654 L -44.3936,38.8817
 L -44.2468,39.1422 L -44.2332,39.1705 L -44.2266,39.1884 L -44.1474,39.435 L -44.1396,39.4655 L -44.1369,39.4841
 L -44.1155,39.6774 L -44.114,39.7087 L -44.1149,39.7262 L -44.1211,39.7985 L -44.1258,39.8295 L -44.1343,39.8598
 L -44.1465,39.8887 L -44.1647,39.9194 L -44.2351,40.0211 L -44.3371,40.2647 L -44.3861,40.5243 L -44.3802,40.7885
 L -44.3195,41.0455 L -44.2066,41.2843 L -44.0466,41.4945 L -43.8463,41.6668 L -43.6146,41.7937 L -43.3617,41.8696
 L -43.0983,41.8913 L -42.8363,41.8578 L -42.5869,41.7705 L -42.4813,41.7063 L -42.4535,41.6917 L -42.4241,41.6808
 L -42.3935,41.6735 L -42.3579,41.67 L -42.2854,41.6682 L -42.2541,41.6693 L -42.2368,41.6717 L -42.0451,41.7045
 L -42.0146,41.7118 L -41.9968,41.7179 L -41.7553,41.8118 L -41.7268,41.8249 L -41.7104,41.8347 L -41.4591,41.9967
 L -41.4339,42.0154 L -41.4196,42.0283 L -41.1965,42.247 L -41.1755,42.2704 L -41.1641,42.2859 L -40.9971,42.5339
 L -40.9812,42.561 L -40.9733,42.5784 L -40.8747,42.8179 L -40.8646,42.8477 L -40.8604,42.866 L -40.8237,43.0569
 L -40.8197,43.088 L -40.8192,43.1055 L -40.8197,43.1781 L -40.8218,43.2094 L -40.8279,43.2402 L -40.8378,43.27
 L -40.8535,43.3021 L -40.9156,43.409 L -40.9979,43.6601 L -41.0262,43.9227 L -40.9993,44.1855 L -40.9183,44.437
 L -40.7868,44.6661 L -40.6106,44.8629 L -40.3974,45.0187 L -40.1562,45.1268 L -39.898,45.1824 L -39.6338,45.1831
 L -39.3753,45.1289 L -39.1337,45.022 L -39.0334,44.9496 L -39.0069,44.9329 L -38.9784,44.9196 L -38.9485,44.91
 L -38.9133,44.9037 L -38.8412,44.896 L -38.8099,44.8947 L -38.7924,44.8957 L -38.5988,44.9132 L -38.5677,44.918
 L -38.5495,44.9227 L -38.3014,44.997 L -38.2719,45.0079 L -38.2547,45.0163 L -37.9914,45.1579 L -37.9648,45.1745
 L -37.9495,45.1862 L -37.7097,45.3866 L -37.6869,45.4082 L -37.6744,45.4227 L -37.4882,45.6567 L -37.4702,45.6824
 L -37.4609,45.6991 L -37.3436,45.93 L -37.3311,45.9589 L -37.3255,45.9768 L -37.2738,46.1643 L -37.2673,46.195
 L -37.2654,46.2124 L -37.2601,46.2847 L -37.2598,46.3161 L -37.2634,46.3473 L -37.2709,46.3778 L -37.284,46.411
 L -37.3374,46.5226 L -37.3995,46.7793 L -37.4068,47.0434 L -37.3591,47.3033 L -37.2585,47.5474 L -37.1091,47.7654
 L -36.9178,47.9476 L -36.6928,48.086 L -36.444,48.1746 L -36.1822,48.2095 L -35.9187,48.1892 L -35.6653,48.1146
 L -35.433,47.9889 L -35.3388,47.9088 L -35.3136,47.89 L -35.2863,47.8744 L -35.2573,47.8625 L -35.2227,47.8534
 L -35.1514,47.8401 L -35.1203,47.8362 L -35.1028,47.8358 L -34.9084,47.8379 L -34.8771,47.8402 L -34.8586,47.8434
 L -34.6053,47.8978 L -34.575,47.9064 L -34.5573,47.9134 L -34.2835,48.0336 L -34.2556,48.048 L -34.2395,48.0585
 L -33.9845,48.2391 L -33.9601,48.2589 L -33.9464,48.2724 L -33.7423,48.4908 L -33.7223,48.515 L -33.7117,48.5309
 L -33.5764,48.7518 L -33.5617,48.7796 L -33.5546,48.797 L -33.4882,48.9797 L -33.4793,49.0099 L -33.4761,49.027
 L -33.465,49.0987 L -33.4622,49.13 L -33.4633,49.1614 L -33.4683,49.1924 L -33.4787,49.2266 L -33.5231,49.3419
 L -33.5646,49.6029 L -33.551,49.8666 L -33.4827,50.1219 L -33.363,50.3573 L -33.1969,50.5627 L -32.9917,50.7292
 L -32.7564,50.8492 L -32.5013,50.9177 L -32.2375,50.9317 L -31.9765,50.8906 L -31.7298,50.7961 L -31.5082,50.6524
 L -31.4207,50.565 L -31.3972,50.5443 L -31.3712,50.5266 L -31.3432,50.5124 L -31.3094,50.5006 L -31.2394,50.4816
 L -31.2086,50.4753 L -31.1913,50.4735 L -30.9973,50.4601 L -30.9659,50.4599 L -30.9472,50.4617 L -30.6904,50.4958
 L -30.6596,50.5019 L -30.6413,50.5075 L -30.3589,50.6055 L -30.3299,50.6177 L -30.313,50.6269 L -30.0445,50.7867
 L -30.0186,50.8044 L -30.0039,50.8168 L -29.783,51.0183 L -29.7612,51.0409 L -29.7493,51.0559 L -29.5969,51.2654
 L -29.58,51.2918 L -29.5716,51.3087 L -29.4909,51.4855 L -29.4797,51.5149 L -29.475,51.5317 L -29.4583,51.6023
 L -29.453,51.6333 L -29.4516,51.6646 L -29.4542,51.6959 L -29.4619,51.7309 L -29.4969,51.8494 L -29.5176,52.1128
 L -29.483,52.3747 L -29.3947,52.6236 L -29.2566,52.8488 L -29.0747,53.0404 L -28.857,53.19 L -28.6129,53.291
 L -28.3531,53.339 L -28.0891,53.332 L -27.8322,53.2702 L -27.5938,53.1564 L -27.3843,52.9956 L -27.304,52.9015
 L -27.2822,52.879 L -27.2577,52.8593 L -27.2309,52.8429 L -27.1982,52.8285 L -27.1299,52.804 L -27.0997,52.7953
 L -27.0826,52.7921 L -26.8903,52.7634 L -26.859,52.7607 L -26.8401,52.761 L -26.5815,52.7746 L -26.5503,52.7782
 L -26.5316,52.7823 L -26.2423,52.8576 L -26.2124,52.8674 L -26.1949,52.8752 L -25.9145,53.0132 L -25.8873,53.0288
 L -25.8716,53.04 L -25.6354,53.2233 L -25.6119,53.2441 L -25.5989,53.2581 L -25.4303,53.4548 L -25.4114,53.4798
 L -25.4016,53.4959 L -25.3071,53.6658 L -25.2936,53.6942 L -25.2877,53.7106 L -25.2654,53.7797 L -25.2576,53.8101
 L -25.2538,53.8412 L -25.2538,53.8726 L -25.2587,53.9081 L -25.2842,54.029 L -25.2839,54.2932 L -25.2286,54.5515
 L -25.1208,54.7927 L -24.9653,55.0062 L -24.7687,55.1828 L -24.5398,55.3145 L -24.2884,55.3958 L -24.0257,55.4231
 L -23.763,55.3951 L -23.5119,55.3132 L -23.2833,55.1807 L -23.0872,55.0038 L -23.0146,54.9036 L -22.9947,54.8794
 L -22.9718,54.8579 L -22.9464,54.8394 L -22.9149,54.8224 L -22.8488,54.7926 L -22.8195,54.7815 L -22.8026,54.7769
 L -22.6132,54.733 L -22.5822,54.7278 L -22.5634,54.7266 L -22.3045,54.7196 L -22.2731,54.7208 L -22.2542,54.7234
 L -21.9598,54.7755 L -21.9293,54.7829 L -21.9111,54.7893 L -21.6207,54.9046 L -21.5923,54.9179 L -21.5758,54.9279
 L -21.3258,55.0918 L -21.3007,55.1106 L -21.2866,55.1236 L -21.1029,55.3062 L -21.0821,55.3297 L -21.0711,55.345
 L -20.9633,55.5069 L -20.9476,55.534 L -20.9404,55.5499 L -20.9127,55.617 L -20.9026,55.6467 L -20.8962,55.6774
 L -20.8938,55.7087 L -20.8958,55.7445 L -20.9117,55.8671 L -20.8904,56.1304 L -20.8147,56.3835 L -20.6882,56.6154
 L -20.5161,56.8158 L -20.3062,56.9762 L -20.0675,57.0894 L -19.8105,57.1504 L -19.5464,57.1567 L -19.2867,57.108
 L -19.0429,57.0063 L -18.8255,56.8562 L -18.6442,56.6642 L -18.5798,56.5585 L -18.5618,56.5328 L -18.5407,56.5096
 L -18.5169,56.4891 L -18.4869,56.4697 L -18.4233,56.4347 L -18.3949,56.4213 L -18.3785,56.4155 L -18.1932,56.3566
 L -18.1627,56.349 L -18.1441,56.3463 L -17.8865,56.3188 L -17.8551,56.3174 L -17.8361,56.3185 L -17.5384,56.347
 L -17.5074,56.352 L -17.4888,56.3569 L -17.1901,56.4487 L -17.1608,56.4598 L -17.1436,56.4684 L -16.8813,56.612
 L -16.8548,56.6288 L -16.8397,56.6405 L -16.6421,56.808 L -16.6195,56.8298 L -16.6073,56.8441 L -16.487,56.9969
 L -16.4692,57.0228 L -16.4607,57.0381 L -16.4278,57.1027 L -16.4153,57.1315 L -16.4066,57.1617 L -16.4017,57.1927
 L -16.4009,57.2284 L -16.4069,57.3519 L -16.3647,57.6127 L -16.2693,57.859 L -16.1246,58.0801 L -15.9372,58.2663
 L -15.7152,58.4094 L -15.4683,58.5033 L -15.2072,58.5437 L -14.9435,58.529 L -14.6885,58.4597 L -14.4536,58.3391
 L -14.2488,58.1721 L -14.0833,57.9663 L -14.0275,57.8559 L -14.0116,57.8289 L -13.9924,57.804 L -13.9703,57.7817
 L -13.9419,57.7599 L -13.8813,57.72 L -13.8541,57.7044 L -13.8382,57.6973 L -13.6581,57.6239 L -13.6284,57.6139
 L -13.61,57.6097 L -13.3554,57.5618 L -13.3242,57.558 L -13.3052,57.5575 L -13.0062,57.5623 L -12.9749,57.5648
 L -12.956,57.5683 L -12.651,57.6361 L -12.6208,57.6448 L -12.603,57.652 L -12.3301,57.7742 L -12.3023,57.7888
 L -12.2864,57.7994 L -12.0761,57.9507 L -12.0518,57.9706 L -12.0385,57.9839 L -11.9065,58.1267 L -11.8867,58.151
 L -11.877,58.1656 L -11.8391,58.2274 L -11.8244,58.2551 L -11.8132,58.2845 L -11.8059,58.315 L -11.8022,58.3506
 L -11.7985,58.4741 L -11.7357,58.7308 L -11.6209,58.9687 L -11.4592,59.1776 L -11.2576,59.3483 L -11.0249,59.4733
 L -10.7713,59.5473 L -10.5078,59.5668 L -10.2461,59.5312 L -9.99748,59.442 L -9.77281,59.303 L -9.58199,59.1203
 L -9.43332,58.902 L -9.38647,58.7875 L -9.37279,58.7593 L -9.35565,58.733 L -9.33537,58.709 L -9.30876,58.685
 L -9.25157,58.6404 L -9.22565,58.6227 L -9.21036,58.6143 L -9.03671,58.5269 L -9.00784,58.5146 L -8.98987,58.5089
 L -8.7399,58.4409 L -8.70915,58.4346 L -8.69014,58.4327 L -8.39177,58.4137 L -8.36038,58.4137 L -8.34122,58.4156
 L -8.03175,58.459 L -8.00101,58.4653 L -7.98267,58.471 L -7.70099,58.5712 L -7.67212,58.5836 L -7.6554,58.5929
 L -7.43375,58.7269 L -7.40794,58.7448 L -7.39363,58.7571 L -7.2507,58.8889 L -7.229,58.9116 L -7.21823,58.9253
 L -7.17548,58.9839 L -7.1586,59.0104 L -7.14517,59.0388 L -7.13542,59.0686 L -7.12895,59.1038 L -7.11537,59.2267
 L -7.03241,59.4775 L -6.89909,59.7056 L -6.7213,59.9009 L -6.50676,60.0551 L -6.26488,60.1612 L -6.00618,60.2148
 L -5.74205,60.2134 L -5.48392,60.1571 L -5.24316,60.0484 L -5.0303,59.892 L -4.85457,59.6947 L -4.72371,59.4653
 L -4.68611,59.3474 L -4.6747,59.3182 L -4.65973,59.2906 L -4.6414,59.2651 L -4.61684,59.2391 L -4.56339,59.1902
 L -4.53896,59.1704 L -4.52432,59.1608 L -4.35817,59.0598 L -4.33037,59.0453 L -4.31291,59.0382 L -4.06914,58.9506
 L -4.03899,58.9418 L -4.02019,58.9384 L -3.72426,58.8958 L -3.69296,58.8933 L -3.67372,58.8937 L -3.36179,58.9123
 L -3.33063,58.9162 L -3.31186,58.9204 L -3.02312,58.9979 L -2.99338,59.008 L -2.97597,59.0159 L -2.74437,59.1319
 L -2.71724,59.1477 L -2.70203,59.1588 L -2.54907,59.2788 L -2.52563,59.2997 L -2.51378,59.3125 L -2.46651,59.3676
 L -2.44757,59.3926 L -2.43195,59.4198 L -2.41985,59.4488 L -2.4106,59.4834 L -2.3873,59.6048 L -2.28468,59.8482
 L -2.13367,60.065 L -1.94093,60.2456 L -1.71484,60.3822 L -1.46523,60.4688 L -1.20312,60.5016 z
M 7.88696,-16.2036 L 7.6627,-16.2319 L 7.44376,-16.2881 L 7.2336,-16.3713 L 7.03551,-16.4802 L 6.85263,-16.6131
 L 6.68785,-16.7678 L 6.54376,-16.942 L 6.42264,-17.1328 L 6.3264,-17.3374 L 6.25655,-17.5524 L 6.21419,-17.7744
 L 6.2,-18 L 6.21419,-18.2256 L 6.25655,-18.4476 L 6.3264,-18.6626 L 6.42264,-18.8672 L 6.54376,-19.058
 L 6.68785,-19.2322 L 6.85263,-19.3869 L 7.03551,-19.5198 L 7.2336,-19.6287 L 7.44376,-19.7119 L 7.6627,-19.7681
 L 7.88696,-19.7964 L 8.11302,-19.7964 L 8.33728,-19.7681 L 8.55623,-19.7119 L 8.76639,-19.6287 L 8.96448,-19.5198
 L 9.14735,-19.3869 L 9.31213,-19.2322 L 9.45622,-19.058 L 9.57735,-18.8672 L 9.67358,-18.6626 L 9.74344,-18.4476
 L 9.7858,-18.2256 L 9.79999,-18 L 9.7858,-17.7744 L 9.74344,-17.5524 L 9.67358,-17.3374 L 9.57735,-17.1328
 L 9.45622,-16.942 L 9.31213,-16.7678 L 9.14735,-16.6131 L 8.96448,-16.4802 L 8.76639,-16.3713 L 8.55623,-16.2881
 L 8.33728,-16.2319 L 8.11302,-16.2036 z
M -8.11302,-16.2036 L -8.33728,-16.2319 L -8.55623,-16.2881 L -8.76639,-16.3713 L -8.96448,-16.4802 L -9.14735,-16.6131
 L -9.31213,-16.7678 L -9.45622,-16.942 L -9.57735,-17.1328 L -9.67358,-17.3374 L -9.74344,-17.5524 L -9.7858,-17.7744
 L -9.79999,-18 L -9.7858,-18.2256 L -9.74344,-18.4476 L -9.67358,-18.6626 L -9.57735,-18.8672 L -9.45622,-19.058
 L -9.31213,-19.2322 L -9.14735,-19.3869 L -8.96448,-19.5198 L -8.76639,-19.6287 L -8.55623,-19.7119 L -8.33728,-19.7681
 L -8.11302,-19.7964 L -7.88696,-19.7964 L -7.6627,-19.7681 L -7.44376,-19.7119 L -7.2336,-19.6287 L -7.03551,-19.5198
 L -6.85263,-19.3869 L -6.68785,-19.2322 L -6.54376,-19.058 L -6.42264,-18.8672 L -6.3264,-18.6626 L -6.25655,-18.4476
 L -6.21419,-18.2256 L -6.2,-18 L -6.21419,-17.7744 L -6.25655,-17.5524 L -6.3264,-17.3374 L -6.42264,-17.1328
 L -6.54376,-16.942 L -6.68785,-16.7678 L -6.85263,-16.6131 L -7.03551,-16.4802 L -7.2336,-16.3713 L -7.44376,-16.2881
 L -7.6627,-16.2319 L -7.88696,-16.2036 z
M -15.1256,-13.0039 L -15.3748,-13.0354 L -15.618,-13.0979 L -15.8515,-13.1903 L -16.0716,-13.3113 L -16.2748,-13.459
 L -16.4579,-13.6309 L -16.618,-13.8244 L -16.7526,-14.0365 L -16.8595,-14.2637 L -16.9372,-14.5026 L -16.9842,-14.7493
 L -17,-15 L -16.9842,-15.2507 L -16.9372,-15.4974 L -16.8595,-15.7362 L -16.7526,-15.9635 L -16.618,-16.1756
 L -16.4579,-16.3691 L -16.2748,-16.541 L -16.0716,-16.6886 L -15.8515,-16.8096 L -15.618,-16.9021 L -15.3748,-16.9646
 L -15.1256,-16.996 L -14.8744,-16.996 L -14.6252,-16.9646 L -14.382,-16.9021 L -14.1484,-16.8096 L -13.9283,-16.6886
 L -13.7251,-16.541 L -13.5421,-16.3691 L -13.382,-16.1756 L -13.2474,-15.9635 L -13.1404,-15.7362 L -13.0628,-15.4974
 L -13.0158,-15.2507 L -13,-15 L -13.0158,-14.7493 L -13.0628,-14.5026 L -13.1404,-14.2637 L -13.2474,-14.0365
 L -13.382,-13.8244 L -13.5421,-13.6309 L -13.7251,-13.459 L -13.9283,-13.3113 L -14.1484,-13.1903 L -14.382,-13.0979
 L -14.6252,-13.0354 L -14.8744,-13.0039 z
M 14.8744,-13.0039 L 14.6252,-13.0354 L 14.382,-13.0979 L 14.1484,-13.1903 L 13.9283,-13.3113 L 13.7251,-13.459
 L 13.5421,-13.6309 L 13.382,-13.8244 L 13.2474,-14.0365 L 13.1404,-14.2637 L 13.0628,-14.5026 L 13.0158,-14.7493
 L 13,-15 L 13.0158,-15.2507 L 13.0628,-15.4974 L 13.1404,-15.7362 L 13.2474,-15.9635 L 13.382,-16.1756
 L 13.5421,-16.3691 L 13.7251,-16.541 L 13.9283,-16.6886 L 14.1484,-16.8096 L 14.382,-16.9021 L 14.6252,-16.9646
 L 14.8744,-16.996 L 15.1256,-16.996 L 15.3748,-16.9646 L 15.618,-16.9021 L 15.8515,-16.8096 L 16.0716,-16.6886
 L 16.2748,-16.541 L 16.4579,-16.3691 L 16.618,-16.1756 L 16.7526,-15.9635 L 16.8595,-15.7362 L 16.9372,-15.4974
 L 16.9842,-15.2507 L 17,-15 L 16.9842,-14.7493 L 16.9372,-14.5026 L 16.8595,-14.2637 L 16.7526,-14.0365
 L 16.618,-13.8244 L 16.4579,-13.6309 L 16.2748,-13.459 L 16.0716,-13.3113 L 15.8515,-13.1903 L 15.618,-13.0979
 L 15.3748,-13.0354 L 15.1256,-13.0039 z
M -1.00464,15.9684 L -2.99809,15.7166 L -4.94426,15.2169 L -6.81245,14.4772 L -8.57323,13.5092 L -10.1988,12.3282
 L -11.6635,10.9527 L -12.9443,9.40456 L -14.0209,7.70805 L -14.8764,5.88998 L -15.4973,3.97903 L -15.8738,2.00533
 L -16,-0 L -15.8738,-2.00533 L -15.4973,-3.97903 L -14.8764,-5.88998 L -14.0209,-7.70805 L -12.9443,-9.40456
 L -11.6635,-10.9527 L -10.1988,-12.3282 L -8.57323,-13.5092 L -6.81245,-14.4772 L -4.94426,-15.2169 L -2.99809,-15.7166
 L -1.00464,-15.9684 L 1.00464,-15.9684 L 2.99809,-15.7166 L 4.94426,-15.2169 L 6.81245,-14.4772 L 8.57323,-13.5092
 L 10.1988,-12.3282 L 11.6635,-10.9527 L 12.9443,-9.40456 L 14.0209,-7.70805 L 14.8764,-5.88998 L 15.4973,-3.97903
 L 15.8738,-2.00533 L 16,-0 L 15.8738,2.00533 L 15.4973,3.97903 L 14.8764,5.88998 L 14.0209,7.70805
 L 12.9443,9.40456 L 11.6635,10.9527 L 10.1988,12.3282 L 8.57323,13.5092 L 6.81245,14.4772 L 4.94426,15.2169
 L 2.99809,15.7166 L 1.00464,15.9684 z
M 2.34225,12.2786 L 3.8627,11.8882 L 5.32224,11.3103 L 6.69783,10.5541 L 7.96779,9.63141 L 9.11211,8.55682
 L 10.1127,7.34731 L 10.9538,6.02191 L 11.6222,4.60155 L 12.1073,3.10861 L 12.4014,1.56665 L 12.5,-0
 L 12.4014,-1.56665 L 12.1073,-3.10861 L 11.6222,-4.60155 L 10.9538,-6.02191 L 10.1127,-7.34731 L 9.11211,-8.55682
 L 7.96779,-9.63141 L 6.69783,-10.5541 L 5.32224,-11.3103 L 3.8627,-11.8882 L 2.34225,-12.2786 L 0.784866,-12.4753
 L -0.784866,-12.4753 L -2.34225,-12.2786 L -3.8627,-11.8882 L -5.32224,-11.3103 L -6.69783,-10.5541 L -7.96779,-9.63141
 L -9.11211,-8.55682 L -10.1127,-7.34731 L -10.9538,-6.02191 L -11.6222,-4.60155 L -12.1073,-3.10861 L -12.4014,-1.56665
 L -12.5,-0 L -12.4014,1.56665 L -12.1073,3.10861 L -11.6222,4.60155 L -10.9538,6.02191 L -10.1127,7.34731
 L -9.11211,8.55682 L -7.96779,9.63141 L -6.69783,10.5541 L -5.32224,11.3103 L -3.8627,11.8882 L -2.34225,12.2786
 L -0.784866,12.4753 L 0.784866,12.4753 z
M 5.18997,-3.50655 L 4.96571,-3.53488 L 4.74677,-3.59109 L 4.53659,-3.6743 L 4.3385,-3.7832 L 4.15562,-3.91606
 L 3.99084,-4.0708 L 3.84676,-4.24498 L 3.72565,-4.43584 L 3.62939,-4.64037 L 3.55954,-4.85535 L 3.51718,-5.07739
 L 3.50299,-5.30299 L 3.51718,-5.52859 L 3.55954,-5.75064 L 3.62939,-5.96562 L 3.72565,-6.17015 L 3.84676,-6.36101
 L 3.99084,-6.53517 L 4.15562,-6.68991 L 4.3385,-6.82278 L 4.53659,-6.93169 L 4.74677,-7.01489 L 4.96571,-7.07111
 L 5.18997,-7.09944 L 5.41602,-7.09944 L 5.64027,-7.07111 L 5.85922,-7.01489 L 6.0694,-6.93169 L 6.26749,-6.82278
 L 6.45035,-6.68991 L 6.61514,-6.53517 L 6.75922,-6.36101 L 6.88034,-6.17015 L 6.97659,-5.96562 L 7.04645,-5.75064
 L 7.08879,-5.52859 L 7.103,-5.30299 L 7.08879,-5.07739 L 7.04645,-4.85535 L 6.97659,-4.64037 L 6.88034,-4.43584
 L 6.75922,-4.24498 L 6.61514,-4.0708 L 6.45035,-3.91606 L 6.26749,-3.7832 L 6.0694,-3.6743 L 5.85922,-3.59109
 L 5.64027,-3.53488 L 5.41602,-3.50655 z
M -5.41602,7.09944 L -5.64027,7.07111 L -5.85922,7.01489 L -6.0694,6.93169 L -6.26749,6.82278 L -6.45035,6.68991
 L -6.61514,6.53517 L -6.75922,6.36101 L -6.88034,6.17015 L -6.97659,5.96562 L -7.04645,5.75064 L -7.08879,5.52859
 L -7.103,5.30299 L -7.08879,5.07739 L -7.04645,4.85535 L -6.97659,4.64037 L -6.88034,4.43584 L -6.75922,4.24498
 L -6.61514,4.0708 L -6.45035,3.91606 L -6.26749,3.7832 L -6.0694,3.6743 L -5.85922,3.59109 L -5.64027,3.53488
 L -5.41602,3.50655 L -5.18997,3.50655 L -4.96571,3.53488 L -4.74677,3.59109 L -4.53659,3.6743 L -4.3385,3.7832
 L -4.15562,3.91606 L -3.99084,4.0708 L -3.84676,4.24498 L -3.72565,4.43584 L -3.62939,4.64037 L -3.55954,4.85535
 L -3.51718,5.07739 L -3.50299,5.30299 L -3.51718,5.52859 L -3.55954,5.75064 L -3.62939,5.96562 L -3.72565,6.17015
 L -3.84676,6.36101 L -3.99084,6.53517 L -4.15562,6.68991 L -4.3385,6.82278 L -4.53659,6.93169 L -4.74677,7.01489
 L -4.96571,7.07111 L -5.18997,7.09944 z
M -15.1256,16.996 L -15.3748,16.9646 L -15.618,16.9021 L -15.8515,16.8096 L -16.0716,16.6886 L -16.2748,16.541
 L -16.4579,16.3691 L -16.618,16.1756 L -16.7526,15.9635 L -16.8595,15.7362 L -16.9372,15.4974 L -16.9842,15.2507
 L -17,15 L -16.9842,14.7493 L -16.9372,14.5026 L -16.8595,14.2637 L -16.7526,14.0365 L -16.618,13.8244
 L -16.4579,13.6309 L -16.2748,13.459 L -16.0716,13.3113 L -15.8515,13.1903 L -15.618,13.0979 L -15.3748,13.0354
 L -15.1256,13.0039 L -14.8744,13.0039 L -14.6252,13.0354 L -14.382,13.0979 L -14.1484,13.1903 L -13.9283,13.3113
 L -13.7251,13.459 L -13.5421,13.6309 L -13.382,13.8244 L -13.2474,14.0365 L -13.1404,14.2637 L -13.0628,14.5026
 L -13.0158,14.7493 L -13,15 L -13.0158,15.2507 L -13.0628,15.4974 L -13.1404,15.7362 L -13.2474,15.9635
 L -13.382,16.1756 L -13.5421,16.3691 L -13.7251,16.541 L -13.9283,16.6886 L -14.1484,16.8096 L -14.382,16.9021
 L -14.6252,16.9646 L -14.8744,16.996 z
M 14.8744,16.996 L 14.6252,16.9646 L 14.382,16.9021 L 14.1484,16.8096 L 13.9283,16.6886 L 13.7251,16.541
 L 13.5421,16.3691 L 13.382,16.1756 L 13.2474,15.9635 L 13.1404,15.7362 L 13.0628,15.4974 L 13.0158,15.2507
 L 13,15 L 13.0158,14.7493 L 13.0628,14.5026 L 13.1404,14.2637 L 13.2474,14.0365 L 13.382,13.8244
 L 13.5421,13.6309 L 13.7251,13.459 L 13.9283,13.3113 L 14.1484,13.1903 L 14.382,13.0979 L 14.6252,13.0354
 L 14.8744,13.0039 L 15.1256,13.0039 L 15.3748,13.0354 L 15.618,13.0979 L 15.8515,13.1903 L 16.0716,13.3113
 L 16.2748,13.459 L 16.4579,13.6309 L 16.618,13.8244 L 16.7526,14.0365 L 16.8595,14.2637 L 16.9372,14.5026
 L 16.9842,14.7493 L 17,15 L 16.9842,15.2507 L 16.9372,15.4974 L 16.8595,15.7362 L 16.7526,15.9635
 L 16.618,16.1756 L 16.4579,16.3691 L 16.2748,16.541 L 16.0716,16.6886 L 15.8515,16.8096 L 15.618,16.9021
 L 15.3748,16.9646 L 15.1256,16.996 z
M -8.11302,19.7964 L -8.33728,19.7681 L -8.55623,19.7119 L -8.76639,19.6287 L -8.96448,19.5198 L -9.14735,19.3869
 L -9.31213,19.2322 L -9.45622,19.058 L -9.57735,18.8672 L -9.67358,18.6626 L -9.74344,18.4476 L -9.7858,18.2256
 L -9.79999,18 L -9.7858,17.7744 L -9.74344,17.5524 L -9.67358,17.3374 L -9.57735,17.1328 L -9.45622,16.942
 L -9.31213,16.7678 L -9.14735,16.6131 L -8.96448,16.4802 L -8.76639,16.3713 L -8.55623,16.2881 L -8.33728,16.2319
 L -8.11302,16.2036 L -7.88696,16.2036 L -7.6627,16.2319 L -7.44376,16.2881 L -7.2336,16.3713 L -7.03551,16.4802
 L -6.85263,16.6131 L -6.68785,16.7678 L -6.54376,16.942 L -6.42264,17.1328 L -6.3264,17.3374 L -6.25655,17.5524
 L -6.21419,17.7744 L -6.2,18 L -6.21419,18.2256 L -6.25655,18.4476 L -6.3264,18.6626 L -6.42264,18.8672
 L -6.54376,19.058 L -6.68785,19.2322 L -6.85263,19.3869 L -7.03551,19.5198 L -7.2336,19.6287 L -7.44376,19.7119
 L -7.6627,19.7681 L -7.88696,19.7964 z
M 7.88696,19.7964 L 7.6627,19.7681 L 7.44376,19.7119 L 7.2336,19.6287 L 7.03551,19.5198 L 6.85263,19.3869
 L 6.68785,19.2322 L 6.54376,19.058 L 6.42264,18.8672 L 6.3264,18.6626 L 6.25655,18.4476 L 6.21419,18.2256
 L 6.2,18 L 6.21419,17.7744 L 6.25655,17.5524 L 6.3264,17.3374 L 6.42264,17.1328 L 6.54376,16.942
 L 6.68785,16.7678 L 6.85263,16.6131 L 7.03551,16.4802 L 7.2336,16.3713 L 7.44376,16.2881 L 7.6627,16.2319
 L 7.88696,16.2036 L 8.11302,16.2036 L 8.33728,16.2319 L 8.55623,16.2881 L 8.76639,16.3713 L 8.96448,16.4802
 L 9.14735,16.6131 L 9.31213,16.7678 L 9.45622,16.942 L 9.57735,17.1328 L 9.67358,17.3374 L 9.74344,17.5524
 L 9.7858,17.7744 L 9.79999,18 L 9.7858,18.2256 L 9.74344,18.4476 L 9.67358,18.6626 L 9.57735,18.8672
 L 9.45622,19.058 L 9.31213,19.2322 L 9.14735,19.3869 L 8.96448,19.5198 L 8.76639,19.6287 L 8.55623,19.7119
 L 8.33728,19.7681 L 8.11302,19.7964 z
" stroke="black" fill="lightgray" stroke-width="0.5"/>
</svg>
