  0
SECTION
  2
BLOCKS
  0
ENDSEC
  0
SECTION
  2
ENTITIES
  0
LINE
  8
0
 10
3.32649
 20
-13.5064
 11
4.99898
 21
-13.077
  0
LINE
  8
0
 10
4.99898
 20
-13.077
 11
6.60446
 21
-12.4414
  0
LINE
  8
0
 10
6.60446
 20
-12.4414
 11
8.11761
 21
-11.6095
  0
LINE
  8
0
 10
8.11761
 20
-11.6095
 11
9.51457
 21
-10.5945
  0
LINE
  8
0
 10
9.51457
 20
-10.5945
 11
10.7733
 21
-9.41252
  0
LINE
  8
0
 10
10.7733
 20
-9.41252
 11
11.874
 21
-8.08205
  0
LINE
  8
0
 10
11.874
 20
-8.08205
 11
12.7992
 21
-6.6241
  0
LINE
  8
0
 10
12.7992
 20
-6.6241
 11
13.5344
 21
-5.06171
  0
LINE
  8
0
 10
13.5344
 20
-5.06171
 11
14.068
 21
-3.41948
  0
LINE
  8
0
 10
14.068
 20
-3.41948
 11
14.3916
 21
-1.72333
  0
LINE
  8
0
 10
14.3916
 20
-1.72333
 11
14.5
 21
0
  0
LINE
  8
0
 10
14.5
 20
0
 11
14.3916
 21
1.72333
  0
LINE
  8
0
 10
14.3916
 20
1.72333
 11
14.068
 21
3.41948
  0
LINE
  8
0
 10
14.068
 20
3.41948
 11
13.5344
 21
5.06171
  0
LINE
  8
0
 10
13.5344
 20
5.06171
 11
12.7992
 21
6.6241
  0
LINE
  8
0
 10
12.7992
 20
6.6241
 11
11.874
 21
8.08205
  0
LINE
  8
0
 10
11.874
 20
8.08205
 11
10.7733
 21
9.41252
  0
LINE
  8
0
 10
10.7733
 20
9.41252
 11
9.51457
 21
10.5945
  0
LINE
  8
0
 10
9.51457
 20
10.5945
 11
8.11761
 21
11.6095
  0
LINE
  8
0
 10
8.11761
 20
11.6095
 11
6.60446
 21
12.4414
  0
LINE
  8
0
 10
6.60446
 20
12.4414
 11
4.99898
 21
13.077
  0
LINE
  8
0
 10
4.99898
 20
13.077
 11
3.32649
 21
13.5064
  0
LINE
  8
0
 10
3.32649
 20
13.5064
 11
1.61336
 21
13.7229
  0
LINE
  8
0
 10
1.61336
 20
13.7229
 11
-0.113358
 21
13.7229
  0
LINE
  8
0
 10
-0.113358
 20
13.7229
 11
-1.82649
 21
13.5064
  0
LINE
  8
0
 10
-1.82649
 20
13.5064
 11
-3.49898
 21
13.077
  0
LINE
  8
0
 10
-3.49898
 20
13.077
 11
-5.10446
 21
12.4414
  0
LINE
  8
0
 10
-5.10446
 20
12.4414
 11
-6.61761
 21
11.6095
  0
LINE
  8
0
 10
-6.61761
 20
11.6095
 11
-8.01457
 21
10.5945
  0
LINE
  8
0
 10
-8.01457
 20
10.5945
 11
-9.27332
 21
9.41252
  0
LINE
  8
0
 10
-9.27332
 20
9.41252
 11
-10.374
 21
8.08205
  0
LINE
  8
0
 10
-10.374
 20
8.08205
 11
-11.2992
 21
6.6241
  0
LINE
  8
0
 10
-11.2992
 20
6.6241
 11
-12.0344
 21
5.06171
  0
LINE
  8
0
 10
-12.0344
 20
5.06171
 11
-12.568
 21
3.41948
  0
LINE
  8
0
 10
-12.568
 20
3.41948
 11
-12.8916
 21
1.72333
  0
LINE
  8
0
 10
-12.8916
 20
1.72333
 11
-13
 21
0
  0
LINE
  8
0
 10
-13
 20
0
 11
-12.8916
 21
-1.72333
  0
LINE
  8
0
 10
-12.8916
 20
-1.72333
 11
-12.568
 21
-3.41948
  0
LINE
  8
0
 10
-12.568
 20
-3.41948
 11
-12.0344
 21
-5.06171
  0
LINE
  8
0
 10
-12.0344
 20
-5.06171
 11
-11.2992
 21
-6.6241
  0
LINE
  8
0
 10
-11.2992
 20
-6.6241
 11
-10.374
 21
-8.08205
  0
LINE
  8
0
 10
-10.374
 20
-8.08205
 11
-9.27332
 21
-9.41252
  0
LINE
  8
0
 10
-9.27332
 20
-9.41252
 11
-8.01457
 21
-10.5945
  0
LINE
  8
0
 10
-8.01457
 20
-10.5945
 11
-6.61761
 21
-11.6095
  0
LINE
  8
0
 10
-6.61761
 20
-11.6095
 11
-5.10446
 21
-12.4414
  0
LINE
  8
0
 10
-5.10446
 20
-12.4414
 11
-3.49898
 21
-13.077
  0
LINE
  8
0
 10
-3.49898
 20
-13.077
 11
-1.82649
 21
-13.5064
  0
LINE
  8
0
 10
-1.82649
 20
-13.5064
 11
-0.113358
 21
-13.7229
  0
LINE
  8
0
 10
-0.113358
 20
-13.7229
 11
1.61336
 21
-13.7229
  0
LINE
  8
0
 10
1.61336
 20
-13.7229
 11
3.32649
 21
-13.5064
  0
LINE
  8
0
 10
-1.58675
 20
4.75168
 11
-3.17349
 21
7.5
  0
LINE
  8
0
 10
-3.17349
 20
7.5
 11
-1.58675
 21
10.2483
  0
LINE
  8
0
 10
-1.58675
 20
10.2483
 11
1.58675
 21
10.2483
  0
LINE
  8
0
 10
1.58675
 20
10.2483
 11
3.17349
 21
7.5
  0
LINE
  8
0
 10
3.17349
 20
7.5
 11
1.58675
 21
4.75168
  0
LINE
  8
0
 10
1.58675
 20
4.75168
 11
-1.58675
 21
4.75168
  0
LINE
  8
0
 10
-5.39717
 20
3.80595
 11
-5.58406
 21
3.82956
  0
LINE
  8
0
 10
-5.58406
 20
3.82956
 11
-5.76653
 21
3.8764
  0
LINE
  8
0
 10
-5.76653
 20
3.8764
 11
-5.94167
 21
3.94576
  0
LINE
  8
0
 10
-5.94167
 20
3.94576
 11
-6.10674
 21
4.0365
  0
LINE
  8
0
 10
-6.10674
 20
4.0365
 11
-6.25912
 21
4.14722
  0
LINE
  8
0
 10
-6.25912
 20
4.14722
 11
-6.39644
 21
4.27617
  0
LINE
  8
0
 10
-6.39644
 20
4.27617
 11
-6.51653
 21
4.42131
  0
LINE
  8
0
 10
-6.51653
 20
4.42131
 11
-6.61745
 21
4.58037
  0
LINE
  8
0
 10
-6.61745
 20
4.58037
 11
-6.69766
 21
4.75081
  0
LINE
  8
0
 10
-6.69766
 20
4.75081
 11
-6.75587
 21
4.92996
  0
LINE
  8
0
 10
-6.75587
 20
4.92996
 11
-6.79117
 21
5.11499
  0
LINE
  8
0
 10
-6.79117
 20
5.11499
 11
-6.80299
 21
5.30299
  0
LINE
  8
0
 10
-6.80299
 20
5.30299
 11
-6.79117
 21
5.491
  0
LINE
  8
0
 10
-6.79117
 20
5.491
 11
-6.75587
 21
5.67603
  0
LINE
  8
0
 10
-6.75587
 20
5.67603
 11
-6.69766
 21
5.85518
  0
LINE
  8
0
 10
-6.69766
 20
5.85518
 11
-6.61745
 21
6.02562
  0
LINE
  8
0
 10
-6.61745
 20
6.02562
 11
-6.51653
 21
6.18468
  0
LINE
  8
0
 10
-6.51653
 20
6.18468
 11
-6.39644
 21
6.32982
  0
LINE
  8
0
 10
-6.39644
 20
6.32982
 11
-6.25912
 21
6.45876
  0
LINE
  8
0
 10
-6.25912
 20
6.45876
 11
-6.10674
 21
6.56949
  0
LINE
  8
0
 10
-6.10674
 20
6.56949
 11
-5.94167
 21
6.66023
  0
LINE
  8
0
 10
-5.94167
 20
6.66023
 11
-5.76653
 21
6.72958
  0
LINE
  8
0
 10
-5.76653
 20
6.72958
 11
-5.58406
 21
6.77643
  0
LINE
  8
0
 10
-5.58406
 20
6.77643
 11
-5.39717
 21
6.80003
  0
LINE
  8
0
 10
-5.39717
 20
6.80003
 11
-5.2088
 21
6.80003
  0
LINE
  8
0
 10
-5.2088
 20
6.80003
 11
-5.02193
 21
6.77643
  0
LINE
  8
0
 10
-5.02193
 20
6.77643
 11
-4.83946
 21
6.72958
  0
LINE
  8
0
 10
-4.83946
 20
6.72958
 11
-4.66432
 21
6.66023
  0
LINE
  8
0
 10
-4.66432
 20
6.66023
 11
-4.49925
 21
6.56949
  0
LINE
  8
0
 10
-4.49925
 20
6.56949
 11
-4.34686
 21
6.45876
  0
LINE
  8
0
 10
-4.34686
 20
6.45876
 11
-4.20953
 21
6.32982
  0
LINE
  8
0
 10
-4.20953
 20
6.32982
 11
-4.08946
 21
6.18468
  0
LINE
  8
0
 10
-4.08946
 20
6.18468
 11
-3.98853
 21
6.02562
  0
LINE
  8
0
 10
-3.98853
 20
6.02562
 11
-3.90833
 21
5.85518
  0
LINE
  8
0
 10
-3.90833
 20
5.85518
 11
-3.85011
 21
5.67603
  0
LINE
  8
0
 10
-3.85011
 20
5.67603
 11
-3.81482
 21
5.491
  0
LINE
  8
0
 10
-3.81482
 20
5.491
 11
-3.80299
 21
5.30299
  0
LINE
  8
0
 10
-3.80299
 20
5.30299
 11
-3.81482
 21
5.11499
  0
LINE
  8
0
 10
-3.81482
 20
5.11499
 11
-3.85011
 21
4.92996
  0
LINE
  8
0
 10
-3.85011
 20
4.92996
 11
-3.90833
 21
4.75081
  0
LINE
  8
0
 10
-3.90833
 20
4.75081
 11
-3.98853
 21
4.58037
  0
LINE
  8
0
 10
-3.98853
 20
4.58037
 11
-4.08946
 21
4.42131
  0
LINE
  8
0
 10
-4.08946
 20
4.42131
 11
-4.20953
 21
4.27617
  0
LINE
  8
0
 10
-4.20953
 20
4.27617
 11
-4.34686
 21
4.14722
  0
LINE
  8
0
 10
-4.34686
 20
4.14722
 11
-4.49925
 21
4.0365
  0
LINE
  8
0
 10
-4.49925
 20
4.0365
 11
-4.66432
 21
3.94576
  0
LINE
  8
0
 10
-4.66432
 20
3.94576
 11
-4.83946
 21
3.8764
  0
LINE
  8
0
 10
-4.83946
 20
3.8764
 11
-5.02193
 21
3.82956
  0
LINE
  8
0
 10
-5.02193
 20
3.82956
 11
-5.2088
 21
3.80595
  0
LINE
  8
0
 10
-5.2088
 20
3.80595
 11
-5.39717
 21
3.80595
  0
LINE
  8
0
 10
5.2088
 20
3.80595
 11
5.02193
 21
3.82956
  0
LINE
  8
0
 10
5.02193
 20
3.82956
 11
4.83946
 21
3.8764
  0
LINE
  8
0
 10
4.83946
 20
3.8764
 11
4.66432
 21
3.94576
  0
LINE
  8
0
 10
4.66432
 20
3.94576
 11
4.49925
 21
4.0365
  0
LINE
  8
0
 10
4.49925
 20
4.0365
 11
4.34686
 21
4.14722
  0
LINE
  8
0
 10
4.34686
 20
4.14722
 11
4.20953
 21
4.27617
  0
LINE
  8
0
 10
4.20953
 20
4.27617
 11
4.08946
 21
4.42131
  0
LINE
  8
0
 10
4.08946
 20
4.42131
 11
3.98853
 21
4.58037
  0
LINE
  8
0
 10
3.98853
 20
4.58037
 11
3.90833
 21
4.75081
  0
LINE
  8
0
 10
3.90833
 20
4.75081
 11
3.85011
 21
4.92996
  0
LINE
  8
0
 10
3.85011
 20
4.92996
 11
3.81482
 21
5.11499
  0
LINE
  8
0
 10
3.81482
 20
5.11499
 11
3.80299
 21
5.30299
  0
LINE
  8
0
 10
3.80299
 20
5.30299
 11
3.81482
 21
5.491
  0
LINE
  8
0
 10
3.81482
 20
5.491
 11
3.85011
 21
5.67603
  0
LINE
  8
0
 10
3.85011
 20
5.67603
 11
3.90833
 21
5.85518
  0
LINE
  8
0
 10
3.90833
 20
5.85518
 11
3.98853
 21
6.02562
  0
LINE
  8
0
 10
3.98853
 20
6.02562
 11
4.08946
 21
6.18468
  0
LINE
  8
0
 10
4.08946
 20
6.18468
 11
4.20953
 21
6.32982
  0
LINE
  8
0
 10
4.20953
 20
6.32982
 11
4.34686
 21
6.45876
  0
LINE
  8
0
 10
4.34686
 20
6.45876
 11
4.49925
 21
6.56949
  0
LINE
  8
0
 10
4.49925
 20
6.56949
 11
4.66432
 21
6.66023
  0
LINE
  8
0
 10
4.66432
 20
6.66023
 11
4.83946
 21
6.72958
  0
LINE
  8
0
 10
4.83946
 20
6.72958
 11
5.02193
 21
6.77643
  0
LINE
  8
0
 10
5.02193
 20
6.77643
 11
5.2088
 21
6.80003
  0
LINE
  8
0
 10
5.2088
 20
6.80003
 11
5.39717
 21
6.80003
  0
LINE
  8
0
 10
5.39717
 20
6.80003
 11
5.58406
 21
6.77643
  0
LINE
  8
0
 10
5.58406
 20
6.77643
 11
5.76653
 21
6.72958
  0
LINE
  8
0
 10
5.76653
 20
6.72958
 11
5.94167
 21
6.66023
  0
LINE
  8
0
 10
5.94167
 20
6.66023
 11
6.10674
 21
6.56949
  0
LINE
  8
0
 10
6.10674
 20
6.56949
 11
6.25912
 21
6.45876
  0
LINE
  8
0
 10
6.25912
 20
6.45876
 11
6.39644
 21
6.32982
  0
LINE
  8
0
 10
6.39644
 20
6.32982
 11
6.51653
 21
6.18468
  0
LINE
  8
0
 10
6.51653
 20
6.18468
 11
6.61745
 21
6.02562
  0
LINE
  8
0
 10
6.61745
 20
6.02562
 11
6.69766
 21
5.85518
  0
LINE
  8
0
 10
6.69766
 20
5.85518
 11
6.75587
 21
5.67603
  0
LINE
  8
0
 10
6.75587
 20
5.67603
 11
6.79117
 21
5.491
  0
LINE
  8
0
 10
6.79117
 20
5.491
 11
6.80299
 21
5.30299
  0
LINE
  8
0
 10
6.80299
 20
5.30299
 11
6.79117
 21
5.11499
  0
LINE
  8
0
 10
6.79117
 20
5.11499
 11
6.75587
 21
4.92996
  0
LINE
  8
0
 10
6.75587
 20
4.92996
 11
6.69766
 21
4.75081
  0
LINE
  8
0
 10
6.69766
 20
4.75081
 11
6.61745
 21
4.58037
  0
LINE
  8
0
 10
6.61745
 20
4.58037
 11
6.51653
 21
4.42131
  0
LINE
  8
0
 10
6.51653
 20
4.42131
 11
6.39644
 21
4.27617
  0
LINE
  8
0
 10
6.39644
 20
4.27617
 11
6.25912
 21
4.14722
  0
LINE
  8
0
 10
6.25912
 20
4.14722
 11
6.10674
 21
4.0365
  0
LINE
  8
0
 10
6.10674
 20
4.0365
 11
5.94167
 21
3.94576
  0
LINE
  8
0
 10
5.94167
 20
3.94576
 11
5.76653
 21
3.8764
  0
LINE
  8
0
 10
5.76653
 20
3.8764
 11
5.58406
 21
3.82956
  0
LINE
  8
0
 10
5.58406
 20
3.82956
 11
5.39717
 21
3.80595
  0
LINE
  8
0
 10
5.39717
 20
3.80595
 11
5.2088
 21
3.80595
  0
LINE
  8
0
 10
-0.18837
 20
-2.99408
 11
-0.562134
 21
-2.94685
  0
LINE
  8
0
 10
-0.562134
 20
-2.94685
 11
-0.927048
 21
-2.85316
  0
LINE
  8
0
 10
-0.927048
 20
-2.85316
 11
-1.27733
 21
-2.71448
  0
LINE
  8
0
 10
-1.27733
 20
-2.71448
 11
-1.60747
 21
-2.53297
  0
LINE
  8
0
 10
-1.60747
 20
-2.53297
 11
-1.91226
 21
-2.31154
  0
LINE
  8
0
 10
-1.91226
 20
-2.31154
 11
-2.1869
 21
-2.05363
  0
LINE
  8
0
 10
-2.1869
 20
-2.05363
 11
-2.42705
 21
-1.76335
  0
LINE
  8
0
 10
-2.42705
 20
-1.76335
 11
-2.62891
 21
-1.44525
  0
LINE
  8
0
 10
-2.62891
 20
-1.44525
 11
-2.78932
 21
-1.10437
  0
LINE
  8
0
 10
-2.78932
 20
-1.10437
 11
-2.90575
 21
-0.746063
  0
LINE
  8
0
 10
-2.90575
 20
-0.746063
 11
-2.97633
 21
-0.375992
  0
LINE
  8
0
 10
-2.97633
 20
-0.375992
 11
-3
 21
0
  0
LINE
  8
0
 10
-3
 20
0
 11
-2.97633
 21
0.375992
  0
LINE
  8
0
 10
-2.97633
 20
0.375992
 11
-2.90575
 21
0.746063
  0
LINE
  8
0
 10
-2.90575
 20
0.746063
 11
-2.78932
 21
1.10437
  0
LINE
  8
0
 10
-2.78932
 20
1.10437
 11
-2.62891
 21
1.44525
  0
LINE
  8
0
 10
-2.62891
 20
1.44525
 11
-2.42705
 21
1.76335
  0
LINE
  8
0
 10
-2.42705
 20
1.76335
 11
-2.1869
 21
2.05363
  0
LINE
  8
0
 10
-2.1869
 20
2.05363
 11
-1.91226
 21
2.31154
  0
LINE
  8
0
 10
-1.91226
 20
2.31154
 11
-1.60747
 21
2.53297
  0
LINE
  8
0
 10
-1.60747
 20
2.53297
 11
-1.27733
 21
2.71448
  0
LINE
  8
0
 10
-1.27733
 20
2.71448
 11
-0.927048
 21
2.85316
  0
LINE
  8
0
 10
-0.927048
 20
2.85316
 11
-0.562134
 21
2.94685
  0
LINE
  8
0
 10
-0.562134
 20
2.94685
 11
-0.18837
 21
2.99408
  0
LINE
  8
0
 10
-0.18837
 20
2.99408
 11
0.18837
 21
2.99408
  0
LINE
  8
0
 10
0.18837
 20
2.99408
 11
0.562134
 21
2.94685
  0
LINE
  8
0
 10
0.562134
 20
2.94685
 11
0.927048
 21
2.85316
  0
LINE
  8
0
 10
0.927048
 20
2.85316
 11
1.27733
 21
2.71448
  0
LINE
  8
0
 10
1.27733
 20
2.71448
 11
1.60747
 21
2.53297
  0
LINE
  8
0
 10
1.60747
 20
2.53297
 11
1.91226
 21
2.31154
  0
LINE
  8
0
 10
1.91226
 20
2.31154
 11
2.1869
 21
2.05363
  0
LINE
  8
0
 10
2.1869
 20
2.05363
 11
2.42705
 21
1.76335
  0
LINE
  8
0
 10
2.42705
 20
1.76335
 11
2.62891
 21
1.44525
  0
LINE
  8
0
 10
2.62891
 20
1.44525
 11
2.78932
 21
1.10437
  0
LINE
  8
0
 10
2.78932
 20
1.10437
 11
2.90575
 21
0.746063
  0
LINE
  8
0
 10
2.90575
 20
0.746063
 11
2.97633
 21
0.375992
  0
LINE
  8
0
 10
2.97633
 20
0.375992
 11
3
 21
0
  0
LINE
  8
0
 10
3
 20
0
 11
2.97633
 21
-0.375992
  0
LINE
  8
0
 10
2.97633
 20
-0.375992
 11
2.90575
 21
-0.746063
  0
LINE
  8
0
 10
2.90575
 20
-0.746063
 11
2.78932
 21
-1.10437
  0
LINE
  8
0
 10
2.78932
 20
-1.10437
 11
2.62891
 21
-1.44525
  0
LINE
  8
0
 10
2.62891
 20
-1.44525
 11
2.42705
 21
-1.76335
  0
LINE
  8
0
 10
2.42705
 20
-1.76335
 11
2.1869
 21
-2.05363
  0
LINE
  8
0
 10
2.1869
 20
-2.05363
 11
1.91226
 21
-2.31154
  0
LINE
  8
0
 10
1.91226
 20
-2.31154
 11
1.60747
 21
-2.53297
  0
LINE
  8
0
 10
1.60747
 20
-2.53297
 11
1.27733
 21
-2.71448
  0
LINE
  8
0
 10
1.27733
 20
-2.71448
 11
0.927048
 21
-2.85316
  0
LINE
  8
0
 10
0.927048
 20
-2.85316
 11
0.562134
 21
-2.94685
  0
LINE
  8
0
 10
0.562134
 20
-2.94685
 11
0.18837
 21
-2.99408
  0
LINE
  8
0
 10
0.18837
 20
-2.99408
 11
-0.18837
 21
-2.99408
  0
LINE
  8
0
 10
7.38696
 20
-1.79645
 11
7.1627
 21
-1.76811
  0
LINE
  8
0
 10
7.1627
 20
-1.76811
 11
6.94376
 21
-1.7119
  0
LINE
  8
0
 10
6.94376
 20
-1.7119
 11
6.7336
 21
-1.62868
  0
LINE
  8
0
 10
6.7336
 20
-1.62868
 11
6.53551
 21
-1.51978
  0
LINE
  8
0
 10
6.53551
 20
-1.51978
 11
6.35263
 21
-1.38692
  0
LINE
  8
0
 10
6.35263
 20
-1.38692
 11
6.18785
 21
-1.23218
  0
LINE
  8
0
 10
6.18785
 20
-1.23218
 11
6.04376
 21
-1.058
  0
LINE
  8
0
 10
6.04376
 20
-1.058
 11
5.92264
 21
-0.867142
  0
LINE
  8
0
 10
5.92264
 20
-0.867142
 11
5.8264
 21
-0.662613
  0
LINE
  8
0
 10
5.8264
 20
-0.662613
 11
5.75655
 21
-0.447632
  0
LINE
  8
0
 10
5.75655
 20
-0.447632
 11
5.71419
 21
-0.225586
  0
LINE
  8
0
 10
5.71419
 20
-0.225586
 11
5.7
 21
0
  0
LINE
  8
0
 10
5.7
 20
0
 11
5.71419
 21
0.225586
  0
LINE
  8
0
 10
5.71419
 20
0.225586
 11
5.75655
 21
0.447632
  0
LINE
  8
0
 10
5.75655
 20
0.447632
 11
5.8264
 21
0.662613
  0
LINE
  8
0
 10
5.8264
 20
0.662613
 11
5.92264
 21
0.867142
  0
LINE
  8
0
 10
5.92264
 20
0.867142
 11
6.04376
 21
1.058
  0
LINE
  8
0
 10
6.04376
 20
1.058
 11
6.18785
 21
1.23218
  0
LINE
  8
0
 10
6.18785
 20
1.23218
 11
6.35263
 21
1.38692
  0
LINE
  8
0
 10
6.35263
 20
1.38692
 11
6.53551
 21
1.51978
  0
LINE
  8
0
 10
6.53551
 20
1.51978
 11
6.7336
 21
1.62868
  0
LINE
  8
0
 10
6.7336
 20
1.62868
 11
6.94376
 21
1.7119
  0
LINE
  8
0
 10
6.94376
 20
1.7119
 11
7.1627
 21
1.76811
  0
LINE
  8
0
 10
7.1627
 20
1.76811
 11
7.38696
 21
1.79645
  0
LINE
  8
0
 10
7.38696
 20
1.79645
 11
7.61302
 21
1.79645
  0
LINE
  8
0
 10
7.61302
 20
1.79645
 11
7.83728
 21
1.76811
  0
LINE
  8
0
 10
7.83728
 20
1.76811
 11
8.05623
 21
1.7119
  0
LINE
  8
0
 10
8.05623
 20
1.7119
 11
8.26639
 21
1.62868
  0
LINE
  8
0
 10
8.26639
 20
1.62868
 11
8.46448
 21
1.51978
  0
LINE
  8
0
 10
8.46448
 20
1.51978
 11
8.64735
 21
1.38692
  0
LINE
  8
0
 10
8.64735
 20
1.38692
 11
8.81213
 21
1.23218
  0
LINE
  8
0
 10
8.81213
 20
1.23218
 11
8.95622
 21
1.058
  0
LINE
  8
0
 10
8.95622
 20
1.058
 11
9.07735
 21
0.867142
  0
LINE
  8
0
 10
9.07735
 20
0.867142
 11
9.17358
 21
0.662613
  0
LINE
  8
0
 10
9.17358
 20
0.662613
 11
9.24344
 21
0.447632
  0
LINE
  8
0
 10
9.24344
 20
0.447632
 11
9.2858
 21
0.225586
  0
LINE
  8
0
 10
9.2858
 20
0.225586
 11
9.29999
 21
0
  0
LINE
  8
0
 10
9.29999
 20
0
 11
9.2858
 21
-0.225586
  0
LINE
  8
0
 10
9.2858
 20
-0.225586
 11
9.24344
 21
-0.447632
  0
LINE
  8
0
 10
9.24344
 20
-0.447632
 11
9.17358
 21
-0.662613
  0
LINE
  8
0
 10
9.17358
 20
-0.662613
 11
9.07735
 21
-0.867142
  0
LINE
  8
0
 10
9.07735
 20
-0.867142
 11
8.95622
 21
-1.058
  0
LINE
  8
0
 10
8.95622
 20
-1.058
 11
8.81213
 21
-1.23218
  0
LINE
  8
0
 10
8.81213
 20
-1.23218
 11
8.64735
 21
-1.38692
  0
LINE
  8
0
 10
8.64735
 20
-1.38692
 11
8.46448
 21
-1.51978
  0
LINE
  8
0
 10
8.46448
 20
-1.51978
 11
8.26639
 21
-1.62868
  0
LINE
  8
0
 10
8.26639
 20
-1.62868
 11
8.05623
 21
-1.7119
  0
LINE
  8
0
 10
8.05623
 20
-1.7119
 11
7.83728
 21
-1.76811
  0
LINE
  8
0
 10
7.83728
 20
-1.76811
 11
7.61302
 21
-1.79645
  0
LINE
  8
0
 10
7.61302
 20
-1.79645
 11
7.38696
 21
-1.79645
  0
LINE
  8
0
 10
-7.61302
 20
-1.79645
 11
-7.83728
 21
-1.76811
  0
LINE
  8
0
 10
-7.83728
 20
-1.76811
 11
-8.05623
 21
-1.7119
  0
LINE
  8
0
 10
-8.05623
 20
-1.7119
 11
-8.26639
 21
-1.62868
  0
LINE
  8
0
 10
-8.26639
 20
-1.62868
 11
-8.46448
 21
-1.51978
  0
LINE
  8
0
 10
-8.46448
 20
-1.51978
 11
-8.64735
 21
-1.38692
  0
LINE
  8
0
 10
-8.64735
 20
-1.38692
 11
-8.81213
 21
-1.23218
  0
LINE
  8
0
 10
-8.81213
 20
-1.23218
 11
-8.95622
 21
-1.058
  0
LINE
  8
0
 10
-8.95622
 20
-1.058
 11
-9.07735
 21
-0.867142
  0
LINE
  8
0
 10
-9.07735
 20
-0.867142
 11
-9.17358
 21
-0.662613
  0
LINE
  8
0
 10
-9.17358
 20
-0.662613
 11
-9.24344
 21
-0.447632
  0
LINE
  8
0
 10
-9.24344
 20
-0.447632
 11
-9.2858
 21
-0.225586
  0
LINE
  8
0
 10
-9.2858
 20
-0.225586
 11
-9.29999
 21
0
  0
LINE
  8
0
 10
-9.29999
 20
0
 11
-9.2858
 21
0.225586
  0
LINE
  8
0
 10
-9.2858
 20
0.225586
 11
-9.24344
 21
0.447632
  0
LINE
  8
0
 10
-9.24344
 20
0.447632
 11
-9.17358
 21
0.662613
  0
LINE
  8
0
 10
-9.17358
 20
0.662613
 11
-9.07735
 21
0.867142
  0
LINE
  8
0
 10
-9.07735
 20
0.867142
 11
-8.95622
 21
1.058
  0
LINE
  8
0
 10
-8.95622
 20
1.058
 11
-8.81213
 21
1.23218
  0
LINE
  8
0
 10
-8.81213
 20
1.23218
 11
-8.64735
 21
1.38692
  0
LINE
  8
0
 10
-8.64735
 20
1.38692
 11
-8.46448
 21
1.51978
  0
LINE
  8
0
 10
-8.46448
 20
1.51978
 11
-8.26639
 21
1.62868
  0
LINE
  8
0
 10
-8.26639
 20
1.62868
 11
-8.05623
 21
1.7119
  0
LINE
  8
0
 10
-8.05623
 20
1.7119
 11
-7.83728
 21
1.76811
  0
LINE
  8
0
 10
-7.83728
 20
1.76811
 11
-7.61302
 21
1.79645
  0
LINE
  8
0
 10
-7.61302
 20
1.79645
 11
-7.38696
 21
1.79645
  0
LINE
  8
0
 10
-7.38696
 20
1.79645
 11
-7.1627
 21
1.76811
  0
LINE
  8
0
 10
-7.1627
 20
1.76811
 11
-6.94376
 21
1.7119
  0
LINE
  8
0
 10
-6.94376
 20
1.7119
 11
-6.7336
 21
1.62868
  0
LINE
  8
0
 10
-6.7336
 20
1.62868
 11
-6.53551
 21
1.51978
  0
LINE
  8
0
 10
-6.53551
 20
1.51978
 11
-6.35263
 21
1.38692
  0
LINE
  8
0
 10
-6.35263
 20
1.38692
 11
-6.18785
 21
1.23218
  0
LINE
  8
0
 10
-6.18785
 20
1.23218
 11
-6.04376
 21
1.058
  0
LINE
  8
0
 10
-6.04376
 20
1.058
 11
-5.92264
 21
0.867142
  0
LINE
  8
0
 10
-5.92264
 20
0.867142
 11
-5.8264
 21
0.662613
  0
LINE
  8
0
 10
-5.8264
 20
0.662613
 11
-5.75655
 21
0.447632
  0
LINE
  8
0
 10
-5.75655
 20
0.447632
 11
-5.71419
 21
0.225586
  0
LINE
  8
0
 10
-5.71419
 20
0.225586
 11
-5.7
 21
0
  0
LINE
  8
0
 10
-5.7
 20
0
 11
-5.71419
 21
-0.225586
  0
LINE
  8
0
 10
-5.71419
 20
-0.225586
 11
-5.75655
 21
-0.447632
  0
LINE
  8
0
 10
-5.75655
 20
-0.447632
 11
-5.8264
 21
-0.662613
  0
LINE
  8
0
 10
-5.8264
 20
-0.662613
 11
-5.92264
 21
-0.867142
  0
LINE
  8
0
 10
-5.92264
 20
-0.867142
 11
-6.04376
 21
-1.058
  0
LINE
  8
0
 10
-6.04376
 20
-1.058
 11
-6.18785
 21
-1.23218
  0
LINE
  8
0
 10
-6.18785
 20
-1.23218
 11
-6.35263
 21
-1.38692
  0
LINE
  8
0
 10
-6.35263
 20
-1.38692
 11
-6.53551
 21
-1.51978
  0
LINE
  8
0
 10
-6.53551
 20
-1.51978
 11
-6.7336
 21
-1.62868
  0
LINE
  8
0
 10
-6.7336
 20
-1.62868
 11
-6.94376
 21
-1.7119
  0
LINE
  8
0
 10
-6.94376
 20
-1.7119
 11
-7.1627
 21
-1.76811
  0
LINE
  8
0
 10
-7.1627
 20
-1.76811
 11
-7.38696
 21
-1.79645
  0
LINE
  8
0
 10
-7.38696
 20
-1.79645
 11
-7.61302
 21
-1.79645
  0
LINE
  8
0
 10
-5.39717
 20
-6.80003
 11
-5.58406
 21
-6.77643
  0
LINE
  8
0
 10
-5.58406
 20
-6.77643
 11
-5.76653
 21
-6.72958
  0
LINE
  8
0
 10
-5.76653
 20
-6.72958
 11
-5.94167
 21
-6.66023
  0
LINE
  8
0
 10
-5.94167
 20
-6.66023
 11
-6.10674
 21
-6.56949
  0
LINE
  8
0
 10
-6.10674
 20
-6.56949
 11
-6.25912
 21
-6.45876
  0
LINE
  8
0
 10
-6.25912
 20
-6.45876
 11
-6.39644
 21
-6.32982
  0
LINE
  8
0
 10
-6.39644
 20
-6.32982
 11
-6.51653
 21
-6.18468
  0
LINE
  8
0
 10
-6.51653
 20
-6.18468
 11
-6.61745
 21
-6.02562
  0
LINE
  8
0
 10
-6.61745
 20
-6.02562
 11
-6.69766
 21
-5.85518
  0
LINE
  8
0
 10
-6.69766
 20
-5.85518
 11
-6.75587
 21
-5.67603
  0
LINE
  8
0
 10
-6.75587
 20
-5.67603
 11
-6.79117
 21
-5.491
  0
LINE
  8
0
 10
-6.79117
 20
-5.491
 11
-6.80299
 21
-5.30299
  0
LINE
  8
0
 10
-6.80299
 20
-5.30299
 11
-6.79117
 21
-5.11499
  0
LINE
  8
0
 10
-6.79117
 20
-5.11499
 11
-6.75587
 21
-4.92996
  0
LINE
  8
0
 10
-6.75587
 20
-4.92996
 11
-6.69766
 21
-4.75081
  0
LINE
  8
0
 10
-6.69766
 20
-4.75081
 11
-6.61745
 21
-4.58037
  0
LINE
  8
0
 10
-6.61745
 20
-4.58037
 11
-6.51653
 21
-4.42131
  0
LINE
  8
0
 10
-6.51653
 20
-4.42131
 11
-6.39644
 21
-4.27617
  0
LINE
  8
0
 10
-6.39644
 20
-4.27617
 11
-6.25912
 21
-4.14722
  0
LINE
  8
0
 10
-6.25912
 20
-4.14722
 11
-6.10674
 21
-4.0365
  0
LINE
  8
0
 10
-6.10674
 20
-4.0365
 11
-5.94167
 21
-3.94576
  0
LINE
  8
0
 10
-5.94167
 20
-3.94576
 11
-5.76653
 21
-3.8764
  0
LINE
  8
0
 10
-5.76653
 20
-3.8764
 11
-5.58406
 21
-3.82956
  0
LINE
  8
0
 10
-5.58406
 20
-3.82956
 11
-5.39717
 21
-3.80595
  0
LINE
  8
0
 10
-5.39717
 20
-3.80595
 11
-5.2088
 21
-3.80595
  0
LINE
  8
0
 10
-5.2088
 20
-3.80595
 11
-5.02193
 21
-3.82956
  0
LINE
  8
0
 10
-5.02193
 20
-3.82956
 11
-4.83946
 21
-3.8764
  0
LINE
  8
0
 10
-4.83946
 20
-3.8764
 11
-4.66432
 21
-3.94576
  0
LINE
  8
0
 10
-4.66432
 20
-3.94576
 11
-4.49925
 21
-4.0365
  0
LINE
  8
0
 10
-4.49925
 20
-4.0365
 11
-4.34686
 21
-4.14722
  0
LINE
  8
0
 10
-4.34686
 20
-4.14722
 11
-4.20953
 21
-4.27617
  0
LINE
  8
0
 10
-4.20953
 20
-4.27617
 11
-4.08946
 21
-4.42131
  0
LINE
  8
0
 10
-4.08946
 20
-4.42131
 11
-3.98853
 21
-4.58037
  0
LINE
  8
0
 10
-3.98853
 20
-4.58037
 11
-3.90833
 21
-4.75081
  0
LINE
  8
0
 10
-3.90833
 20
-4.75081
 11
-3.85011
 21
-4.92996
  0
LINE
  8
0
 10
-3.85011
 20
-4.92996
 11
-3.81482
 21
-5.11499
  0
LINE
  8
0
 10
-3.81482
 20
-5.11499
 11
-3.80299
 21
-5.30299
  0
LINE
  8
0
 10
-3.80299
 20
-5.30299
 11
-3.81482
 21
-5.491
  0
LINE
  8
0
 10
-3.81482
 20
-5.491
 11
-3.85011
 21
-5.67603
  0
LINE
  8
0
 10
-3.85011
 20
-5.67603
 11
-3.90833
 21
-5.85518
  0
LINE
  8
0
 10
-3.90833
 20
-5.85518
 11
-3.98853
 21
-6.02562
  0
LINE
  8
0
 10
-3.98853
 20
-6.02562
 11
-4.08946
 21
-6.18468
  0
LINE
  8
0
 10
-4.08946
 20
-6.18468
 11
-4.20953
 21
-6.32982
  0
LINE
  8
0
 10
-4.20953
 20
-6.32982
 11
-4.34686
 21
-6.45876
  0
LINE
  8
0
 10
-4.34686
 20
-6.45876
 11
-4.49925
 21
-6.56949
  0
LINE
  8
0
 10
-4.49925
 20
-6.56949
 11
-4.66432
 21
-6.66023
  0
LINE
  8
0
 10
-4.66432
 20
-6.66023
 11
-4.83946
 21
-6.72958
  0
LINE
  8
0
 10
-4.83946
 20
-6.72958
 11
-5.02193
 21
-6.77643
  0
LINE
  8
0
 10
-5.02193
 20
-6.77643
 11
-5.2088
 21
-6.80003
  0
LINE
  8
0
 10
-5.2088
 20
-6.80003
 11
-5.39717
 21
-6.80003
  0
LINE
  8
0
 10
5.2088
 20
-6.80003
 11
5.02193
 21
-6.77643
  0
LINE
  8
0
 10
5.02193
 20
-6.77643
 11
4.83946
 21
-6.72958
  0
LINE
  8
0
 10
4.83946
 20
-6.72958
 11
4.66432
 21
-6.66023
  0
LINE
  8
0
 10
4.66432
 20
-6.66023
 11
4.49925
 21
-6.56949
  0
LINE
  8
0
 10
4.49925
 20
-6.56949
 11
4.34686
 21
-6.45876
  0
LINE
  8
0
 10
4.34686
 20
-6.45876
 11
4.20953
 21
-6.32982
  0
LINE
  8
0
 10
4.20953
 20
-6.32982
 11
4.08946
 21
-6.18468
  0
LINE
  8
0
 10
4.08946
 20
-6.18468
 11
3.98853
 21
-6.02562
  0
LINE
  8
0
 10
3.98853
 20
-6.02562
 11
3.90833
 21
-5.85518
  0
LINE
  8
0
 10
3.90833
 20
-5.85518
 11
3.85011
 21
-5.67603
  0
LINE
  8
0
 10
3.85011
 20
-5.67603
 11
3.81482
 21
-5.491
  0
LINE
  8
0
 10
3.81482
 20
-5.491
 11
3.80299
 21
-5.30299
  0
LINE
  8
0
 10
3.80299
 20
-5.30299
 11
3.81482
 21
-5.11499
  0
LINE
  8
0
 10
3.81482
 20
-5.11499
 11
3.85011
 21
-4.92996
  0
LINE
  8
0
 10
3.85011
 20
-4.92996
 11
3.90833
 21
-4.75081
  0
LINE
  8
0
 10
3.90833
 20
-4.75081
 11
3.98853
 21
-4.58037
  0
LINE
  8
0
 10
3.98853
 20
-4.58037
 11
4.08946
 21
-4.42131
  0
LINE
  8
0
 10
4.08946
 20
-4.42131
 11
4.20953
 21
-4.27617
  0
LINE
  8
0
 10
4.20953
 20
-4.27617
 11
4.34686
 21
-4.14722
  0
LINE
  8
0
 10
4.34686
 20
-4.14722
 11
4.49925
 21
-4.0365
  0
LINE
  8
0
 10
4.49925
 20
-4.0365
 11
4.66432
 21
-3.94576
  0
LINE
  8
0
 10
4.66432
 20
-3.94576
 11
4.83946
 21
-3.8764
  0
LINE
  8
0
 10
4.83946
 20
-3.8764
 11
5.02193
 21
-3.82956
  0
LINE
  8
0
 10
5.02193
 20
-3.82956
 11
5.2088
 21
-3.80595
  0
LINE
  8
0
 10
5.2088
 20
-3.80595
 11
5.39717
 21
-3.80595
  0
LINE
  8
0
 10
5.39717
 20
-3.80595
 11
5.58406
 21
-3.82956
  0
LINE
  8
0
 10
5.58406
 20
-3.82956
 11
5.76653
 21
-3.8764
  0
LINE
  8
0
 10
5.76653
 20
-3.8764
 11
5.94167
 21
-3.94576
  0
LINE
  8
0
 10
5.94167
 20
-3.94576
 11
6.10674
 21
-4.0365
  0
LINE
  8
0
 10
6.10674
 20
-4.0365
 11
6.25912
 21
-4.14722
  0
LINE
  8
0
 10
6.25912
 20
-4.14722
 11
6.39644
 21
-4.27617
  0
LINE
  8
0
 10
6.39644
 20
-4.27617
 11
6.51653
 21
-4.42131
  0
LINE
  8
0
 10
6.51653
 20
-4.42131
 11
6.61745
 21
-4.58037
  0
LINE
  8
0
 10
6.61745
 20
-4.58037
 11
6.69766
 21
-4.75081
  0
LINE
  8
0
 10
6.69766
 20
-4.75081
 11
6.75587
 21
-4.92996
  0
LINE
  8
0
 10
6.75587
 20
-4.92996
 11
6.79117
 21
-5.11499
  0
LINE
  8
0
 10
6.79117
 20
-5.11499
 11
6.80299
 21
-5.30299
  0
LINE
  8
0
 10
6.80299
 20
-5.30299
 11
6.79117
 21
-5.491
  0
LINE
  8
0
 10
6.79117
 20
-5.491
 11
6.75587
 21
-5.67603
  0
LINE
  8
0
 10
6.75587
 20
-5.67603
 11
6.69766
 21
-5.85518
  0
LINE
  8
0
 10
6.69766
 20
-5.85518
 11
6.61745
 21
-6.02562
  0
LINE
  8
0
 10
6.61745
 20
-6.02562
 11
6.51653
 21
-6.18468
  0
LINE
  8
0
 10
6.51653
 20
-6.18468
 11
6.39644
 21
-6.32982
  0
LINE
  8
0
 10
6.39644
 20
-6.32982
 11
6.25912
 21
-6.45876
  0
LINE
  8
0
 10
6.25912
 20
-6.45876
 11
6.10674
 21
-6.56949
  0
LINE
  8
0
 10
6.10674
 20
-6.56949
 11
5.94167
 21
-6.66023
  0
LINE
  8
0
 10
5.94167
 20
-6.66023
 11
5.76653
 21
-6.72958
  0
LINE
  8
0
 10
5.76653
 20
-6.72958
 11
5.58406
 21
-6.77643
  0
LINE
  8
0
 10
5.58406
 20
-6.77643
 11
5.39717
 21
-6.80003
  0
LINE
  8
0
 10
5.39717
 20
-6.80003
 11
5.2088
 21
-6.80003
  0
LINE
  8
0
 10
-1.58675
 20
-10.2483
 11
-3.17349
 21
-7.5
  0
LINE
  8
0
 10
-3.17349
 20
-7.5
 11
-1.58675
 21
-4.75168
  0
LINE
  8
0
 10
-1.58675
 20
-4.75168
 11
1.58675
 21
-4.75168
  0
LINE
  8
0
 10
1.58675
 20
-4.75168
 11
3.17349
 21
-7.5
  0
LINE
  8
0
 10
3.17349
 20
-7.5
 11
1.58675
 21
-10.2483
  0
LINE
  8
0
 10
1.58675
 20
-10.2483
 11
-1.58675
 21
-10.2483
  0
LINE
  8
0
 10
53.3265
 20
-13.5064
 11
54.999
 21
-13.077
  0
LINE
  8
0
 10
54.999
 20
-13.077
 11
56.6045
 21
-12.4414
  0
LINE
  8
0
 10
56.6045
 20
-12.4414
 11
58.1176
 21
-11.6095
  0
LINE
  8
0
 10
58.1176
 20
-11.6095
 11
59.5146
 21
-10.5945
  0
LINE
  8
0
 10
59.5146
 20
-10.5945
 11
60.7733
 21
-9.41252
  0
LINE
  8
0
 10
60.7733
 20
-9.41252
 11
61.874
 21
-8.08205
  0
LINE
  8
0
 10
61.874
 20
-8.08205
 11
62.7992
 21
-6.6241
  0
LINE
  8
0
 10
62.7992
 20
-6.6241
 11
63.5344
 21
-5.06171
  0
LINE
  8
0
 10
63.5344
 20
-5.06171
 11
64.068
 21
-3.41948
  0
LINE
  8
0
 10
64.068
 20
-3.41948
 11
64.3916
 21
-1.72333
  0
LINE
  8
0
 10
64.3916
 20
-1.72333
 11
64.5
 21
0
  0
LINE
  8
0
 10
64.5
 20
0
 11
64.3916
 21
1.72333
  0
LINE
  8
0
 10
64.3916
 20
1.72333
 11
64.068
 21
3.41948
  0
LINE
  8
0
 10
64.068
 20
3.41948
 11
63.5344
 21
5.06171
  0
LINE
  8
0
 10
63.5344
 20
5.06171
 11
62.7992
 21
6.6241
  0
LINE
  8
0
 10
62.7992
 20
6.6241
 11
61.874
 21
8.08205
  0
LINE
  8
0
 10
61.874
 20
8.08205
 11
60.7733
 21
9.41252
  0
LINE
  8
0
 10
60.7733
 20
9.41252
 11
59.5146
 21
10.5945
  0
LINE
  8
0
 10
59.5146
 20
10.5945
 11
58.1176
 21
11.6095
  0
LINE
  8
0
 10
58.1176
 20
11.6095
 11
56.6045
 21
12.4414
  0
LINE
  8
0
 10
56.6045
 20
12.4414
 11
54.999
 21
13.077
  0
LINE
  8
0
 10
54.999
 20
13.077
 11
53.3265
 21
13.5064
  0
LINE
  8
0
 10
53.3265
 20
13.5064
 11
51.6134
 21
13.7229
  0
LINE
  8
0
 10
51.6134
 20
13.7229
 11
49.8866
 21
13.7229
  0
LINE
  8
0
 10
49.8866
 20
13.7229
 11
48.1735
 21
13.5064
  0
LINE
  8
0
 10
48.1735
 20
13.5064
 11
46.501
 21
13.077
  0
LINE
  8
0
 10
46.501
 20
13.077
 11
44.8955
 21
12.4414
  0
LINE
  8
0
 10
44.8955
 20
12.4414
 11
43.3824
 21
11.6095
  0
LINE
  8
0
 10
43.3824
 20
11.6095
 11
41.9854
 21
10.5945
  0
LINE
  8
0
 10
41.9854
 20
10.5945
 11
40.7267
 21
9.41252
  0
LINE
  8
0
 10
40.7267
 20
9.41252
 11
39.626
 21
8.08205
  0
LINE
  8
0
 10
39.626
 20
8.08205
 11
38.7008
 21
6.6241
  0
LINE
  8
0
 10
38.7008
 20
6.6241
 11
37.9656
 21
5.06171
  0
LINE
  8
0
 10
37.9656
 20
5.06171
 11
37.432
 21
3.41948
  0
LINE
  8
0
 10
37.432
 20
3.41948
 11
37.1084
 21
1.72333
  0
LINE
  8
0
 10
37.1084
 20
1.72333
 11
37
 21
0
  0
LINE
  8
0
 10
37
 20
0
 11
37.1084
 21
-1.72333
  0
LINE
  8
0
 10
37.1084
 20
-1.72333
 11
37.432
 21
-3.41948
  0
LINE
  8
0
 10
37.432
 20
-3.41948
 11
37.9656
 21
-5.06171
  0
LINE
  8
0
 10
37.9656
 20
-5.06171
 11
38.7008
 21
-6.6241
  0
LINE
  8
0
 10
38.7008
 20
-6.6241
 11
39.626
 21
-8.08205
  0
LINE
  8
0
 10
39.626
 20
-8.08205
 11
40.7267
 21
-9.41252
  0
LINE
  8
0
 10
40.7267
 20
-9.41252
 11
41.9854
 21
-10.5945
  0
LINE
  8
0
 10
41.9854
 20
-10.5945
 11
43.3824
 21
-11.6095
  0
LINE
  8
0
 10
43.3824
 20
-11.6095
 11
44.8955
 21
-12.4414
  0
LINE
  8
0
 10
44.8955
 20
-12.4414
 11
46.501
 21
-13.077
  0
LINE
  8
0
 10
46.501
 20
-13.077
 11
48.1735
 21
-13.5064
  0
LINE
  8
0
 10
48.1735
 20
-13.5064
 11
49.8866
 21
-13.7229
  0
LINE
  8
0
 10
49.8866
 20
-13.7229
 11
51.6134
 21
-13.7229
  0
LINE
  8
0
 10
51.6134
 20
-13.7229
 11
53.3265
 21
-13.5064
  0
LINE
  8
0
 10
49.887
 20
5.70355
 11
49.6627
 21
5.73187
  0
LINE
  8
0
 10
49.6627
 20
5.73187
 11
49.4438
 21
5.78809
  0
LINE
  8
0
 10
49.4438
 20
5.78809
 11
49.2336
 21
5.87131
  0
LINE
  8
0
 10
49.2336
 20
5.87131
 11
49.0355
 21
5.98021
  0
LINE
  8
0
 10
49.0355
 20
5.98021
 11
48.8526
 21
6.11307
  0
LINE
  8
0
 10
48.8526
 20
6.11307
 11
48.6879
 21
6.26781
  0
LINE
  8
0
 10
48.6879
 20
6.26781
 11
48.5438
 21
6.44199
  0
LINE
  8
0
 10
48.5438
 20
6.44199
 11
48.4226
 21
6.63284
  0
LINE
  8
0
 10
48.4226
 20
6.63284
 11
48.3264
 21
6.83737
  0
LINE
  8
0
 10
48.3264
 20
6.83737
 11
48.2565
 21
7.05235
  0
LINE
  8
0
 10
48.2565
 20
7.05235
 11
48.2142
 21
7.2744
  0
LINE
  8
0
 10
48.2142
 20
7.2744
 11
48.2
 21
7.5
  0
LINE
  8
0
 10
48.2
 20
7.5
 11
48.2142
 21
7.72559
  0
LINE
  8
0
 10
48.2142
 20
7.72559
 11
48.2565
 21
7.94763
  0
LINE
  8
0
 10
48.2565
 20
7.94763
 11
48.3264
 21
8.16261
  0
LINE
  8
0
 10
48.3264
 20
8.16261
 11
48.4226
 21
8.36714
  0
LINE
  8
0
 10
48.4226
 20
8.36714
 11
48.5438
 21
8.558
  0
LINE
  8
0
 10
48.5438
 20
8.558
 11
48.6879
 21
8.73218
  0
LINE
  8
0
 10
48.6879
 20
8.73218
 11
48.8526
 21
8.88692
  0
LINE
  8
0
 10
48.8526
 20
8.88692
 11
49.0355
 21
9.01978
  0
LINE
  8
0
 10
49.0355
 20
9.01978
 11
49.2336
 21
9.12868
  0
LINE
  8
0
 10
49.2336
 20
9.12868
 11
49.4438
 21
9.2119
  0
LINE
  8
0
 10
49.4438
 20
9.2119
 11
49.6627
 21
9.26811
  0
LINE
  8
0
 10
49.6627
 20
9.26811
 11
49.887
 21
9.29645
  0
LINE
  8
0
 10
49.887
 20
9.29645
 11
50.113
 21
9.29645
  0
LINE
  8
0
 10
50.113
 20
9.29645
 11
50.3373
 21
9.26811
  0
LINE
  8
0
 10
50.3373
 20
9.26811
 11
50.5562
 21
9.2119
  0
LINE
  8
0
 10
50.5562
 20
9.2119
 11
50.7664
 21
9.12868
  0
LINE
  8
0
 10
50.7664
 20
9.12868
 11
50.9645
 21
9.01978
  0
LINE
  8
0
 10
50.9645
 20
9.01978
 11
51.1474
 21
8.88692
  0
LINE
  8
0
 10
51.1474
 20
8.88692
 11
51.3121
 21
8.73218
  0
LINE
  8
0
 10
51.3121
 20
8.73218
 11
51.4562
 21
8.558
  0
LINE
  8
0
 10
51.4562
 20
8.558
 11
51.5773
 21
8.36714
  0
LINE
  8
0
 10
51.5773
 20
8.36714
 11
51.6736
 21
8.16261
  0
LINE
  8
0
 10
51.6736
 20
8.16261
 11
51.7434
 21
7.94763
  0
LINE
  8
0
 10
51.7434
 20
7.94763
 11
51.7858
 21
7.72559
  0
LINE
  8
0
 10
51.7858
 20
7.72559
 11
51.8
 21
7.5
  0
LINE
  8
0
 10
51.8
 20
7.5
 11
51.7858
 21
7.2744
  0
LINE
  8
0
 10
51.7858
 20
7.2744
 11
51.7434
 21
7.05235
  0
LINE
  8
0
 10
51.7434
 20
7.05235
 11
51.6736
 21
6.83737
  0
LINE
  8
0
 10
51.6736
 20
6.83737
 11
51.5773
 21
6.63284
  0
LINE
  8
0
 10
51.5773
 20
6.63284
 11
51.4562
 21
6.44199
  0
LINE
  8
0
 10
51.4562
 20
6.44199
 11
51.3121
 21
6.26781
  0
LINE
  8
0
 10
51.3121
 20
6.26781
 11
51.1474
 21
6.11307
  0
LINE
  8
0
 10
51.1474
 20
6.11307
 11
50.9645
 21
5.98021
  0
LINE
  8
0
 10
50.9645
 20
5.98021
 11
50.7664
 21
5.87131
  0
LINE
  8
0
 10
50.7664
 20
5.87131
 11
50.5562
 21
5.78809
  0
LINE
  8
0
 10
50.5562
 20
5.78809
 11
50.3373
 21
5.73187
  0
LINE
  8
0
 10
50.3373
 20
5.73187
 11
50.113
 21
5.70355
  0
LINE
  8
0
 10
50.113
 20
5.70355
 11
49.887
 21
5.70355
  0
LINE
  8
0
 10
44.6028
 20
3.80595
 11
44.4159
 21
3.82956
  0
LINE
  8
0
 10
44.4159
 20
3.82956
 11
44.2335
 21
3.8764
  0
LINE
  8
0
 10
44.2335
 20
3.8764
 11
44.0583
 21
3.94576
  0
LINE
  8
0
 10
44.0583
 20
3.94576
 11
43.8932
 21
4.0365
  0
LINE
  8
0
 10
43.8932
 20
4.0365
 11
43.7409
 21
4.14722
  0
LINE
  8
0
 10
43.7409
 20
4.14722
 11
43.6035
 21
4.27617
  0
LINE
  8
0
 10
43.6035
 20
4.27617
 11
43.4835
 21
4.42131
  0
LINE
  8
0
 10
43.4835
 20
4.42131
 11
43.3825
 21
4.58037
  0
LINE
  8
0
 10
43.3825
 20
4.58037
 11
43.3023
 21
4.75081
  0
LINE
  8
0
 10
43.3023
 20
4.75081
 11
43.2441
 21
4.92996
  0
LINE
  8
0
 10
43.2441
 20
4.92996
 11
43.2088
 21
5.11499
  0
LINE
  8
0
 10
43.2088
 20
5.11499
 11
43.197
 21
5.30299
  0
LINE
  8
0
 10
43.197
 20
5.30299
 11
43.2088
 21
5.491
  0
LINE
  8
0
 10
43.2088
 20
5.491
 11
43.2441
 21
5.67603
  0
LINE
  8
0
 10
43.2441
 20
5.67603
 11
43.3023
 21
5.85518
  0
LINE
  8
0
 10
43.3023
 20
5.85518
 11
43.3825
 21
6.02562
  0
LINE
  8
0
 10
43.3825
 20
6.02562
 11
43.4835
 21
6.18468
  0
LINE
  8
0
 10
43.4835
 20
6.18468
 11
43.6035
 21
6.32982
  0
LINE
  8
0
 10
43.6035
 20
6.32982
 11
43.7409
 21
6.45876
  0
LINE
  8
0
 10
43.7409
 20
6.45876
 11
43.8932
 21
6.56949
  0
LINE
  8
0
 10
43.8932
 20
6.56949
 11
44.0583
 21
6.66023
  0
LINE
  8
0
 10
44.0583
 20
6.66023
 11
44.2335
 21
6.72958
  0
LINE
  8
0
 10
44.2335
 20
6.72958
 11
44.4159
 21
6.77643
  0
LINE
  8
0
 10
44.4159
 20
6.77643
 11
44.6028
 21
6.80003
  0
LINE
  8
0
 10
44.6028
 20
6.80003
 11
44.7912
 21
6.80003
  0
LINE
  8
0
 10
44.7912
 20
6.80003
 11
44.9781
 21
6.77643
  0
LINE
  8
0
 10
44.9781
 20
6.77643
 11
45.1605
 21
6.72958
  0
LINE
  8
0
 10
45.1605
 20
6.72958
 11
45.3357
 21
6.66023
  0
LINE
  8
0
 10
45.3357
 20
6.66023
 11
45.5007
 21
6.56949
  0
LINE
  8
0
 10
45.5007
 20
6.56949
 11
45.6531
 21
6.45876
  0
LINE
  8
0
 10
45.6531
 20
6.45876
 11
45.7905
 21
6.32982
  0
LINE
  8
0
 10
45.7905
 20
6.32982
 11
45.9105
 21
6.18468
  0
LINE
  8
0
 10
45.9105
 20
6.18468
 11
46.0115
 21
6.02562
  0
LINE
  8
0
 10
46.0115
 20
6.02562
 11
46.0917
 21
5.85518
  0
LINE
  8
0
 10
46.0917
 20
5.85518
 11
46.1499
 21
5.67603
  0
LINE
  8
0
 10
46.1499
 20
5.67603
 11
46.1852
 21
5.491
  0
LINE
  8
0
 10
46.1852
 20
5.491
 11
46.197
 21
5.30299
  0
LINE
  8
0
 10
46.197
 20
5.30299
 11
46.1852
 21
5.11499
  0
LINE
  8
0
 10
46.1852
 20
5.11499
 11
46.1499
 21
4.92996
  0
LINE
  8
0
 10
46.1499
 20
4.92996
 11
46.0917
 21
4.75081
  0
LINE
  8
0
 10
46.0917
 20
4.75081
 11
46.0115
 21
4.58037
  0
LINE
  8
0
 10
46.0115
 20
4.58037
 11
45.9105
 21
4.42131
  0
LINE
  8
0
 10
45.9105
 20
4.42131
 11
45.7905
 21
4.27617
  0
LINE
  8
0
 10
45.7905
 20
4.27617
 11
45.6531
 21
4.14722
  0
LINE
  8
0
 10
45.6531
 20
4.14722
 11
45.5007
 21
4.0365
  0
LINE
  8
0
 10
45.5007
 20
4.0365
 11
45.3357
 21
3.94576
  0
LINE
  8
0
 10
45.3357
 20
3.94576
 11
45.1605
 21
3.8764
  0
LINE
  8
0
 10
45.1605
 20
3.8764
 11
44.9781
 21
3.82956
  0
LINE
  8
0
 10
44.9781
 20
3.82956
 11
44.7912
 21
3.80595
  0
LINE
  8
0
 10
44.7912
 20
3.80595
 11
44.6028
 21
3.80595
  0
LINE
  8
0
 10
55.2088
 20
3.80595
 11
55.0219
 21
3.82956
  0
LINE
  8
0
 10
55.0219
 20
3.82956
 11
54.8395
 21
3.8764
  0
LINE
  8
0
 10
54.8395
 20
3.8764
 11
54.6643
 21
3.94576
  0
LINE
  8
0
 10
54.6643
 20
3.94576
 11
54.4993
 21
4.0365
  0
LINE
  8
0
 10
54.4993
 20
4.0365
 11
54.3469
 21
4.14722
  0
LINE
  8
0
 10
54.3469
 20
4.14722
 11
54.2095
 21
4.27617
  0
LINE
  8
0
 10
54.2095
 20
4.27617
 11
54.0895
 21
4.42131
  0
LINE
  8
0
 10
54.0895
 20
4.42131
 11
53.9885
 21
4.58037
  0
LINE
  8
0
 10
53.9885
 20
4.58037
 11
53.9083
 21
4.75081
  0
LINE
  8
0
 10
53.9083
 20
4.75081
 11
53.8501
 21
4.92996
  0
LINE
  8
0
 10
53.8501
 20
4.92996
 11
53.8148
 21
5.11499
  0
LINE
  8
0
 10
53.8148
 20
5.11499
 11
53.803
 21
5.30299
  0
LINE
  8
0
 10
53.803
 20
5.30299
 11
53.8148
 21
5.491
  0
LINE
  8
0
 10
53.8148
 20
5.491
 11
53.8501
 21
5.67603
  0
LINE
  8
0
 10
53.8501
 20
5.67603
 11
53.9083
 21
5.85518
  0
LINE
  8
0
 10
53.9083
 20
5.85518
 11
53.9885
 21
6.02562
  0
LINE
  8
0
 10
53.9885
 20
6.02562
 11
54.0895
 21
6.18468
  0
LINE
  8
0
 10
54.0895
 20
6.18468
 11
54.2095
 21
6.32982
  0
LINE
  8
0
 10
54.2095
 20
6.32982
 11
54.3469
 21
6.45876
  0
LINE
  8
0
 10
54.3469
 20
6.45876
 11
54.4993
 21
6.56949
  0
LINE
  8
0
 10
54.4993
 20
6.56949
 11
54.6643
 21
6.66023
  0
LINE
  8
0
 10
54.6643
 20
6.66023
 11
54.8395
 21
6.72958
  0
LINE
  8
0
 10
54.8395
 20
6.72958
 11
55.0219
 21
6.77643
  0
LINE
  8
0
 10
55.0219
 20
6.77643
 11
55.2088
 21
6.80003
  0
LINE
  8
0
 10
55.2088
 20
6.80003
 11
55.3972
 21
6.80003
  0
LINE
  8
0
 10
55.3972
 20
6.80003
 11
55.5841
 21
6.77643
  0
LINE
  8
0
 10
55.5841
 20
6.77643
 11
55.7665
 21
6.72958
  0
LINE
  8
0
 10
55.7665
 20
6.72958
 11
55.9417
 21
6.66023
  0
LINE
  8
0
 10
55.9417
 20
6.66023
 11
56.1067
 21
6.56949
  0
LINE
  8
0
 10
56.1067
 20
6.56949
 11
56.2591
 21
6.45876
  0
LINE
  8
0
 10
56.2591
 20
6.45876
 11
56.3965
 21
6.32982
  0
LINE
  8
0
 10
56.3965
 20
6.32982
 11
56.5165
 21
6.18468
  0
LINE
  8
0
 10
56.5165
 20
6.18468
 11
56.6174
 21
6.02562
  0
LINE
  8
0
 10
56.6174
 20
6.02562
 11
56.6977
 21
5.85518
  0
LINE
  8
0
 10
56.6977
 20
5.85518
 11
56.7559
 21
5.67603
  0
LINE
  8
0
 10
56.7559
 20
5.67603
 11
56.7912
 21
5.491
  0
LINE
  8
0
 10
56.7912
 20
5.491
 11
56.803
 21
5.30299
  0
LINE
  8
0
 10
56.803
 20
5.30299
 11
56.7912
 21
5.11499
  0
LINE
  8
0
 10
56.7912
 20
5.11499
 11
56.7559
 21
4.92996
  0
LINE
  8
0
 10
56.7559
 20
4.92996
 11
56.6977
 21
4.75081
  0
LINE
  8
0
 10
56.6977
 20
4.75081
 11
56.6174
 21
4.58037
  0
LINE
  8
0
 10
56.6174
 20
4.58037
 11
56.5165
 21
4.42131
  0
LINE
  8
0
 10
56.5165
 20
4.42131
 11
56.3965
 21
4.27617
  0
LINE
  8
0
 10
56.3965
 20
4.27617
 11
56.2591
 21
4.14722
  0
LINE
  8
0
 10
56.2591
 20
4.14722
 11
56.1067
 21
4.0365
  0
LINE
  8
0
 10
56.1067
 20
4.0365
 11
55.9417
 21
3.94576
  0
LINE
  8
0
 10
55.9417
 20
3.94576
 11
55.7665
 21
3.8764
  0
LINE
  8
0
 10
55.7665
 20
3.8764
 11
55.5841
 21
3.82956
  0
LINE
  8
0
 10
55.5841
 20
3.82956
 11
55.3972
 21
3.80595
  0
LINE
  8
0
 10
55.3972
 20
3.80595
 11
55.2088
 21
3.80595
  0
LINE
  8
0
 10
49.8116
 20
-2.99408
 11
49.4379
 21
-2.94685
  0
LINE
  8
0
 10
49.4379
 20
-2.94685
 11
49.0729
 21
-2.85316
  0
LINE
  8
0
 10
49.0729
 20
-2.85316
 11
48.7227
 21
-2.71448
  0
LINE
  8
0
 10
48.7227
 20
-2.71448
 11
48.3925
 21
-2.53297
  0
LINE
  8
0
 10
48.3925
 20
-2.53297
 11
48.0877
 21
-2.31154
  0
LINE
  8
0
 10
48.0877
 20
-2.31154
 11
47.8131
 21
-2.05363
  0
LINE
  8
0
 10
47.8131
 20
-2.05363
 11
47.5729
 21
-1.76335
  0
LINE
  8
0
 10
47.5729
 20
-1.76335
 11
47.3711
 21
-1.44525
  0
LINE
  8
0
 10
47.3711
 20
-1.44525
 11
47.2107
 21
-1.10437
  0
LINE
  8
0
 10
47.2107
 20
-1.10437
 11
47.0942
 21
-0.746063
  0
LINE
  8
0
 10
47.0942
 20
-0.746063
 11
47.0237
 21
-0.375992
  0
LINE
  8
0
 10
47.0237
 20
-0.375992
 11
47
 21
0
  0
LINE
  8
0
 10
47
 20
0
 11
47.0237
 21
0.375992
  0
LINE
  8
0
 10
47.0237
 20
0.375992
 11
47.0942
 21
0.746063
  0
LINE
  8
0
 10
47.0942
 20
0.746063
 11
47.2107
 21
1.10437
  0
LINE
  8
0
 10
47.2107
 20
1.10437
 11
47.3711
 21
1.44525
  0
LINE
  8
0
 10
47.3711
 20
1.44525
 11
47.5729
 21
1.76335
  0
LINE
  8
0
 10
47.5729
 20
1.76335
 11
47.8131
 21
2.05363
  0
LINE
  8
0
 10
47.8131
 20
2.05363
 11
48.0877
 21
2.31154
  0
LINE
  8
0
 10
48.0877
 20
2.31154
 11
48.3925
 21
2.53297
  0
LINE
  8
0
 10
48.3925
 20
2.53297
 11
48.7227
 21
2.71448
  0
LINE
  8
0
 10
48.7227
 20
2.71448
 11
49.0729
 21
2.85316
  0
LINE
  8
0
 10
49.0729
 20
2.85316
 11
49.4379
 21
2.94685
  0
LINE
  8
0
 10
49.4379
 20
2.94685
 11
49.8116
 21
2.99408
  0
LINE
  8
0
 10
49.8116
 20
2.99408
 11
50.1884
 21
2.99408
  0
LINE
  8
0
 10
50.1884
 20
2.99408
 11
50.5621
 21
2.94685
  0
LINE
  8
0
 10
50.5621
 20
2.94685
 11
50.927
 21
2.85316
  0
LINE
  8
0
 10
50.927
 20
2.85316
 11
51.2773
 21
2.71448
  0
LINE
  8
0
 10
51.2773
 20
2.71448
 11
51.6075
 21
2.53297
  0
LINE
  8
0
 10
51.6075
 20
2.53297
 11
51.9123
 21
2.31154
  0
LINE
  8
0
 10
51.9123
 20
2.31154
 11
52.1869
 21
2.05363
  0
LINE
  8
0
 10
52.1869
 20
2.05363
 11
52.427
 21
1.76335
  0
LINE
  8
0
 10
52.427
 20
1.76335
 11
52.6289
 21
1.44525
  0
LINE
  8
0
 10
52.6289
 20
1.44525
 11
52.7893
 21
1.10437
  0
LINE
  8
0
 10
52.7893
 20
1.10437
 11
52.9057
 21
0.746063
  0
LINE
  8
0
 10
52.9057
 20
0.746063
 11
52.9763
 21
0.375992
  0
LINE
  8
0
 10
52.9763
 20
0.375992
 11
53
 21
0
  0
LINE
  8
0
 10
53
 20
0
 11
52.9763
 21
-0.375992
  0
LINE
  8
0
 10
52.9763
 20
-0.375992
 11
52.9057
 21
-0.746063
  0
LINE
  8
0
 10
52.9057
 20
-0.746063
 11
52.7893
 21
-1.10437
  0
LINE
  8
0
 10
52.7893
 20
-1.10437
 11
52.6289
 21
-1.44525
  0
LINE
  8
0
 10
52.6289
 20
-1.44525
 11
52.427
 21
-1.76335
  0
LINE
  8
0
 10
52.427
 20
-1.76335
 11
52.1869
 21
-2.05363
  0
LINE
  8
0
 10
52.1869
 20
-2.05363
 11
51.9123
 21
-2.31154
  0
LINE
  8
0
 10
51.9123
 20
-2.31154
 11
51.6075
 21
-2.53297
  0
LINE
  8
0
 10
51.6075
 20
-2.53297
 11
51.2773
 21
-2.71448
  0
LINE
  8
0
 10
51.2773
 20
-2.71448
 11
50.927
 21
-2.85316
  0
LINE
  8
0
 10
50.927
 20
-2.85316
 11
50.5621
 21
-2.94685
  0
LINE
  8
0
 10
50.5621
 20
-2.94685
 11
50.1884
 21
-2.99408
  0
LINE
  8
0
 10
50.1884
 20
-2.99408
 11
49.8116
 21
-2.99408
  0
LINE
  8
0
 10
40.9133
 20
-2.74832
 11
39.3265
 21
0
  0
LINE
  8
0
 10
39.3265
 20
0
 11
40.9133
 21
2.74832
  0
LINE
  8
0
 10
40.9133
 20
2.74832
 11
44.0867
 21
2.74832
  0
LINE
  8
0
 10
44.0867
 20
2.74832
 11
45.6735
 21
0
  0
LINE
  8
0
 10
45.6735
 20
0
 11
44.0867
 21
-2.74832
  0
LINE
  8
0
 10
44.0867
 20
-2.74832
 11
40.9133
 21
-2.74832
  0
LINE
  8
0
 10
55.9133
 20
-2.74832
 11
54.3265
 21
0
  0
LINE
  8
0
 10
54.3265
 20
0
 11
55.9133
 21
2.74832
  0
LINE
  8
0
 10
55.9133
 20
2.74832
 11
59.0867
 21
2.74832
  0
LINE
  8
0
 10
59.0867
 20
2.74832
 11
60.6735
 21
0
  0
LINE
  8
0
 10
60.6735
 20
0
 11
59.0867
 21
-2.74832
  0
LINE
  8
0
 10
59.0867
 20
-2.74832
 11
55.9133
 21
-2.74832
  0
LINE
  8
0
 10
55.2088
 20
-6.80003
 11
55.0219
 21
-6.77643
  0
LINE
  8
0
 10
55.0219
 20
-6.77643
 11
54.8395
 21
-6.72958
  0
LINE
  8
0
 10
54.8395
 20
-6.72958
 11
54.6643
 21
-6.66023
  0
LINE
  8
0
 10
54.6643
 20
-6.66023
 11
54.4993
 21
-6.56949
  0
LINE
  8
0
 10
54.4993
 20
-6.56949
 11
54.3469
 21
-6.45876
  0
LINE
  8
0
 10
54.3469
 20
-6.45876
 11
54.2095
 21
-6.32982
  0
LINE
  8
0
 10
54.2095
 20
-6.32982
 11
54.0895
 21
-6.18468
  0
LINE
  8
0
 10
54.0895
 20
-6.18468
 11
53.9885
 21
-6.02562
  0
LINE
  8
0
 10
53.9885
 20
-6.02562
 11
53.9083
 21
-5.85518
  0
LINE
  8
0
 10
53.9083
 20
-5.85518
 11
53.8501
 21
-5.67603
  0
LINE
  8
0
 10
53.8501
 20
-5.67603
 11
53.8148
 21
-5.491
  0
LINE
  8
0
 10
53.8148
 20
-5.491
 11
53.803
 21
-5.30299
  0
LINE
  8
0
 10
53.803
 20
-5.30299
 11
53.8148
 21
-5.11499
  0
LINE
  8
0
 10
53.8148
 20
-5.11499
 11
53.8501
 21
-4.92996
  0
LINE
  8
0
 10
53.8501
 20
-4.92996
 11
53.9083
 21
-4.75081
  0
LINE
  8
0
 10
53.9083
 20
-4.75081
 11
53.9885
 21
-4.58037
  0
LINE
  8
0
 10
53.9885
 20
-4.58037
 11
54.0895
 21
-4.42131
  0
LINE
  8
0
 10
54.0895
 20
-4.42131
 11
54.2095
 21
-4.27617
  0
LINE
  8
0
 10
54.2095
 20
-4.27617
 11
54.3469
 21
-4.14722
  0
LINE
  8
0
 10
54.3469
 20
-4.14722
 11
54.4993
 21
-4.0365
  0
LINE
  8
0
 10
54.4993
 20
-4.0365
 11
54.6643
 21
-3.94576
  0
LINE
  8
0
 10
54.6643
 20
-3.94576
 11
54.8395
 21
-3.8764
  0
LINE
  8
0
 10
54.8395
 20
-3.8764
 11
55.0219
 21
-3.82956
  0
LINE
  8
0
 10
55.0219
 20
-3.82956
 11
55.2088
 21
-3.80595
  0
LINE
  8
0
 10
55.2088
 20
-3.80595
 11
55.3972
 21
-3.80595
  0
LINE
  8
0
 10
55.3972
 20
-3.80595
 11
55.5841
 21
-3.82956
  0
LINE
  8
0
 10
55.5841
 20
-3.82956
 11
55.7665
 21
-3.8764
  0
LINE
  8
0
 10
55.7665
 20
-3.8764
 11
55.9417
 21
-3.94576
  0
LINE
  8
0
 10
55.9417
 20
-3.94576
 11
56.1067
 21
-4.0365
  0
LINE
  8
0
 10
56.1067
 20
-4.0365
 11
56.2591
 21
-4.14722
  0
LINE
  8
0
 10
56.2591
 20
-4.14722
 11
56.3965
 21
-4.27617
  0
LINE
  8
0
 10
56.3965
 20
-4.27617
 11
56.5165
 21
-4.42131
  0
LINE
  8
0
 10
56.5165
 20
-4.42131
 11
56.6174
 21
-4.58037
  0
LINE
  8
0
 10
56.6174
 20
-4.58037
 11
56.6977
 21
-4.75081
  0
LINE
  8
0
 10
56.6977
 20
-4.75081
 11
56.7559
 21
-4.92996
  0
LINE
  8
0
 10
56.7559
 20
-4.92996
 11
56.7912
 21
-5.11499
  0
LINE
  8
0
 10
56.7912
 20
-5.11499
 11
56.803
 21
-5.30299
  0
LINE
  8
0
 10
56.803
 20
-5.30299
 11
56.7912
 21
-5.491
  0
LINE
  8
0
 10
56.7912
 20
-5.491
 11
56.7559
 21
-5.67603
  0
LINE
  8
0
 10
56.7559
 20
-5.67603
 11
56.6977
 21
-5.85518
  0
LINE
  8
0
 10
56.6977
 20
-5.85518
 11
56.6174
 21
-6.02562
  0
LINE
  8
0
 10
56.6174
 20
-6.02562
 11
56.5165
 21
-6.18468
  0
LINE
  8
0
 10
56.5165
 20
-6.18468
 11
56.3965
 21
-6.32982
  0
LINE
  8
0
 10
56.3965
 20
-6.32982
 11
56.2591
 21
-6.45876
  0
LINE
  8
0
 10
56.2591
 20
-6.45876
 11
56.1067
 21
-6.56949
  0
LINE
  8
0
 10
56.1067
 20
-6.56949
 11
55.9417
 21
-6.66023
  0
LINE
  8
0
 10
55.9417
 20
-6.66023
 11
55.7665
 21
-6.72958
  0
LINE
  8
0
 10
55.7665
 20
-6.72958
 11
55.5841
 21
-6.77643
  0
LINE
  8
0
 10
55.5841
 20
-6.77643
 11
55.3972
 21
-6.80003
  0
LINE
  8
0
 10
55.3972
 20
-6.80003
 11
55.2088
 21
-6.80003
  0
LINE
  8
0
 10
44.6028
 20
-6.80003
 11
44.4159
 21
-6.77643
  0
LINE
  8
0
 10
44.4159
 20
-6.77643
 11
44.2335
 21
-6.72958
  0
LINE
  8
0
 10
44.2335
 20
-6.72958
 11
44.0583
 21
-6.66023
  0
LINE
  8
0
 10
44.0583
 20
-6.66023
 11
43.8932
 21
-6.56949
  0
LINE
  8
0
 10
43.8932
 20
-6.56949
 11
43.7409
 21
-6.45876
  0
LINE
  8
0
 10
43.7409
 20
-6.45876
 11
43.6035
 21
-6.32982
  0
LINE
  8
0
 10
43.6035
 20
-6.32982
 11
43.4835
 21
-6.18468
  0
LINE
  8
0
 10
43.4835
 20
-6.18468
 11
43.3825
 21
-6.02562
  0
LINE
  8
0
 10
43.3825
 20
-6.02562
 11
43.3023
 21
-5.85518
  0
LINE
  8
0
 10
43.3023
 20
-5.85518
 11
43.2441
 21
-5.67603
  0
LINE
  8
0
 10
43.2441
 20
-5.67603
 11
43.2088
 21
-5.491
  0
LINE
  8
0
 10
43.2088
 20
-5.491
 11
43.197
 21
-5.30299
  0
LINE
  8
0
 10
43.197
 20
-5.30299
 11
43.2088
 21
-5.11499
  0
LINE
  8
0
 10
43.2088
 20
-5.11499
 11
43.2441
 21
-4.92996
  0
LINE
  8
0
 10
43.2441
 20
-4.92996
 11
43.3023
 21
-4.75081
  0
LINE
  8
0
 10
43.3023
 20
-4.75081
 11
43.3825
 21
-4.58037
  0
LINE
  8
0
 10
43.3825
 20
-4.58037
 11
43.4835
 21
-4.42131
  0
LINE
  8
0
 10
43.4835
 20
-4.42131
 11
43.6035
 21
-4.27617
  0
LINE
  8
0
 10
43.6035
 20
-4.27617
 11
43.7409
 21
-4.14722
  0
LINE
  8
0
 10
43.7409
 20
-4.14722
 11
43.8932
 21
-4.0365
  0
LINE
  8
0
 10
43.8932
 20
-4.0365
 11
44.0583
 21
-3.94576
  0
LINE
  8
0
 10
44.0583
 20
-3.94576
 11
44.2335
 21
-3.8764
  0
LINE
  8
0
 10
44.2335
 20
-3.8764
 11
44.4159
 21
-3.82956
  0
LINE
  8
0
 10
44.4159
 20
-3.82956
 11
44.6028
 21
-3.80595
  0
LINE
  8
0
 10
44.6028
 20
-3.80595
 11
44.7912
 21
-3.80595
  0
LINE
  8
0
 10
44.7912
 20
-3.80595
 11
44.9781
 21
-3.82956
  0
LINE
  8
0
 10
44.9781
 20
-3.82956
 11
45.1605
 21
-3.8764
  0
LINE
  8
0
 10
45.1605
 20
-3.8764
 11
45.3357
 21
-3.94576
  0
LINE
  8
0
 10
45.3357
 20
-3.94576
 11
45.5007
 21
-4.0365
  0
LINE
  8
0
 10
45.5007
 20
-4.0365
 11
45.6531
 21
-4.14722
  0
LINE
  8
0
 10
45.6531
 20
-4.14722
 11
45.7905
 21
-4.27617
  0
LINE
  8
0
 10
45.7905
 20
-4.27617
 11
45.9105
 21
-4.42131
  0
LINE
  8
0
 10
45.9105
 20
-4.42131
 11
46.0115
 21
-4.58037
  0
LINE
  8
0
 10
46.0115
 20
-4.58037
 11
46.0917
 21
-4.75081
  0
LINE
  8
0
 10
46.0917
 20
-4.75081
 11
46.1499
 21
-4.92996
  0
LINE
  8
0
 10
46.1499
 20
-4.92996
 11
46.1852
 21
-5.11499
  0
LINE
  8
0
 10
46.1852
 20
-5.11499
 11
46.197
 21
-5.30299
  0
LINE
  8
0
 10
46.197
 20
-5.30299
 11
46.1852
 21
-5.491
  0
LINE
  8
0
 10
46.1852
 20
-5.491
 11
46.1499
 21
-5.67603
  0
LINE
  8
0
 10
46.1499
 20
-5.67603
 11
46.0917
 21
-5.85518
  0
LINE
  8
0
 10
46.0917
 20
-5.85518
 11
46.0115
 21
-6.02562
  0
LINE
  8
0
 10
46.0115
 20
-6.02562
 11
45.9105
 21
-6.18468
  0
LINE
  8
0
 10
45.9105
 20
-6.18468
 11
45.7905
 21
-6.32982
  0
LINE
  8
0
 10
45.7905
 20
-6.32982
 11
45.6531
 21
-6.45876
  0
LINE
  8
0
 10
45.6531
 20
-6.45876
 11
45.5007
 21
-6.56949
  0
LINE
  8
0
 10
45.5007
 20
-6.56949
 11
45.3357
 21
-6.66023
  0
LINE
  8
0
 10
45.3357
 20
-6.66023
 11
45.1605
 21
-6.72958
  0
LINE
  8
0
 10
45.1605
 20
-6.72958
 11
44.9781
 21
-6.77643
  0
LINE
  8
0
 10
44.9781
 20
-6.77643
 11
44.7912
 21
-6.80003
  0
LINE
  8
0
 10
44.7912
 20
-6.80003
 11
44.6028
 21
-6.80003
  0
LINE
  8
0
 10
49.887
 20
-9.29645
 11
49.6627
 21
-9.26811
  0
LINE
  8
0
 10
49.6627
 20
-9.26811
 11
49.4438
 21
-9.2119
  0
LINE
  8
0
 10
49.4438
 20
-9.2119
 11
49.2336
 21
-9.12868
  0
LINE
  8
0
 10
49.2336
 20
-9.12868
 11
49.0355
 21
-9.01978
  0
LINE
  8
0
 10
49.0355
 20
-9.01978
 11
48.8526
 21
-8.88692
  0
LINE
  8
0
 10
48.8526
 20
-8.88692
 11
48.6879
 21
-8.73218
  0
LINE
  8
0
 10
48.6879
 20
-8.73218
 11
48.5438
 21
-8.558
  0
LINE
  8
0
 10
48.5438
 20
-8.558
 11
48.4226
 21
-8.36714
  0
LINE
  8
0
 10
48.4226
 20
-8.36714
 11
48.3264
 21
-8.16261
  0
LINE
  8
0
 10
48.3264
 20
-8.16261
 11
48.2565
 21
-7.94763
  0
LINE
  8
0
 10
48.2565
 20
-7.94763
 11
48.2142
 21
-7.72559
  0
LINE
  8
0
 10
48.2142
 20
-7.72559
 11
48.2
 21
-7.5
  0
LINE
  8
0
 10
48.2
 20
-7.5
 11
48.2142
 21
-7.2744
  0
LINE
  8
0
 10
48.2142
 20
-7.2744
 11
48.2565
 21
-7.05235
  0
LINE
  8
0
 10
48.2565
 20
-7.05235
 11
48.3264
 21
-6.83737
  0
LINE
  8
0
 10
48.3264
 20
-6.83737
 11
48.4226
 21
-6.63284
  0
LINE
  8
0
 10
48.4226
 20
-6.63284
 11
48.5438
 21
-6.44199
  0
LINE
  8
0
 10
48.5438
 20
-6.44199
 11
48.6879
 21
-6.26781
  0
LINE
  8
0
 10
48.6879
 20
-6.26781
 11
48.8526
 21
-6.11307
  0
LINE
  8
0
 10
48.8526
 20
-6.11307
 11
49.0355
 21
-5.98021
  0
LINE
  8
0
 10
49.0355
 20
-5.98021
 11
49.2336
 21
-5.87131
  0
LINE
  8
0
 10
49.2336
 20
-5.87131
 11
49.4438
 21
-5.78809
  0
LINE
  8
0
 10
49.4438
 20
-5.78809
 11
49.6627
 21
-5.73187
  0
LINE
  8
0
 10
49.6627
 20
-5.73187
 11
49.887
 21
-5.70355
  0
LINE
  8
0
 10
49.887
 20
-5.70355
 11
50.113
 21
-5.70355
  0
LINE
  8
0
 10
50.113
 20
-5.70355
 11
50.3373
 21
-5.73187
  0
LINE
  8
0
 10
50.3373
 20
-5.73187
 11
50.5562
 21
-5.78809
  0
LINE
  8
0
 10
50.5562
 20
-5.78809
 11
50.7664
 21
-5.87131
  0
LINE
  8
0
 10
50.7664
 20
-5.87131
 11
50.9645
 21
-5.98021
  0
LINE
  8
0
 10
50.9645
 20
-5.98021
 11
51.1474
 21
-6.11307
  0
LINE
  8
0
 10
51.1474
 20
-6.11307
 11
51.3121
 21
-6.26781
  0
LINE
  8
0
 10
51.3121
 20
-6.26781
 11
51.4562
 21
-6.44199
  0
LINE
  8
0
 10
51.4562
 20
-6.44199
 11
51.5773
 21
-6.63284
  0
LINE
  8
0
 10
51.5773
 20
-6.63284
 11
51.6736
 21
-6.83737
  0
LINE
  8
0
 10
51.6736
 20
-6.83737
 11
51.7434
 21
-7.05235
  0
LINE
  8
0
 10
51.7434
 20
-7.05235
 11
51.7858
 21
-7.2744
  0
LINE
  8
0
 10
51.7858
 20
-7.2744
 11
51.8
 21
-7.5
  0
LINE
  8
0
 10
51.8
 20
-7.5
 11
51.7858
 21
-7.72559
  0
LINE
  8
0
 10
51.7858
 20
-7.72559
 11
51.7434
 21
-7.94763
  0
LINE
  8
0
 10
51.7434
 20
-7.94763
 11
51.6736
 21
-8.16261
  0
LINE
  8
0
 10
51.6736
 20
-8.16261
 11
51.5773
 21
-8.36714
  0
LINE
  8
0
 10
51.5773
 20
-8.36714
 11
51.4562
 21
-8.558
  0
LINE
  8
0
 10
51.4562
 20
-8.558
 11
51.3121
 21
-8.73218
  0
LINE
  8
0
 10
51.3121
 20
-8.73218
 11
51.1474
 21
-8.88692
  0
LINE
  8
0
 10
51.1474
 20
-8.88692
 11
50.9645
 21
-9.01978
  0
LINE
  8
0
 10
50.9645
 20
-9.01978
 11
50.7664
 21
-9.12868
  0
LINE
  8
0
 10
50.7664
 20
-9.12868
 11
50.5562
 21
-9.2119
  0
LINE
  8
0
 10
50.5562
 20
-9.2119
 11
50.3373
 21
-9.26811
  0
LINE
  8
0
 10
50.3373
 20
-9.26811
 11
50.113
 21
-9.29645
  0
LINE
  8
0
 10
50.113
 20
-9.29645
 11
49.887
 21
-9.29645
  0
ENDSEC
  0
SECTION
  2
OBJECTS
  0
DICTIONARY
  0
ENDSEC
  0
EOF
