<?xml version="1.0" standalone="no"?>
<!DOCTYPE svg PUBLIC "-//W3C//DTD SVG 1.1//EN" "http://www.w3.org/Graphics/SVG/1.1/DTD/svg11.dtd">
<svg width="78mm" height="28mm" viewBox="-13 -14 78 28" xmlns="http://www.w3.org/2000/svg" version="1.1">
<title>OpenSCAD Model</title>
<path d="
M 3.32649,13.5064 L 4.99898,13.077 L 6.60446,12.4414 L 8.11761,11.6095 L 9.51457,10.5945 L 10.7733,9.41252
 L 11.874,8.08205 L 12.7992,6.6241 L 13.5344,5.06171 L 14.068,3.41948 L 14.3916,1.72333 L 14.5,-0
 L 14.3916,-1.72333 L 14.068,-3.41948 L 13.5344,-5.06171 L 12.7992,-6.6241 L 11.874,-8.08205 L 10.7733,-9.41252
 L 9.51457,-10.5945 L 8.11761,-11.6095 L 6.60446,-12.4414 L 4.99898,-13.077 L 3.32649,-13.5064 L 1.61336,-13.7229
 L -0.113358,-13.7229 L -1.82649,-13.5064 L -3.49898,-13.077 L -5.10446,-12.4414 L -6.61761,-11.6095 L -8.01457,-10.5945
 L -9.27332,-9.41252 L -10.374,-8.08205 L -11.2992,-6.6241 L -12.0344,-5.06171 L -12.568,-3.41948 L -12.8916,-1.72333
 L -13,-0 L -12.8916,1.72333 L -12.568,3.41948 L -12.0344,5.06171 L -11.2992,6.6241 L -10.374,8.08205
 L -9.27332,9.41252 L -8.01457,10.5945 L -6.61761,11.6095 L -5.10446,12.4414 L -3.49898,13.077 L -1.82649,13.5064
 L -0.113358,13.7229 L 1.61336,13.7229 z
M -1.58675,-4.75168 L -3.17349,-7.5 L -1.58675,-10.2483 L 1.58675,-10.2483 L 3.17349,-7.5 L 1.58675,-4.75168
 z
M -5.39717,-3.80595 L -5.58406,-3.82956 L -5.76653,-3.8764 L -5.94167,-3.94576 L -6.10674,-4.0365 L -6.25912,-4.14722
 L -6.39644,-4.27617 L -6.51653,-4.42131 L -6.61745,-4.58037 L -6.69766,-4.75081 L -6.75587,-4.92996 L -6.79117,-5.11499
 L -6.80299,-5.30299 L -6.79117,-5.491 L -6.75587,-5.67603 L -6.69766,-5.85518 L -6.61745,-6.02562 L -6.51653,-6.18468
 L -6.39644,-6.32982 L -6.25912,-6.45876 L -6.10674,-6.56949 L -5.94167,-6.66023 L -5.76653,-6.72958 L -5.58406,-6.77643
 L -5.39717,-6.80003 L -5.2088,-6.80003 L -5.02193,-6.77643 L -4.83946,-6.72958 L -4.66432,-6.66023 L -4.49925,-6.56949
 L -4.34686,-6.45876 L -4.20953,-6.32982 L -4.08946,-6.18468 L -3.98853,-6.02562 L -3.90833,-5.85518 L -3.85011,-5.67603
 L -3.81482,-5.491 L -3.80299,-5.30299 L -3.81482,-5.11499 L -3.85011,-4.92996 L -3.90833,-4.75081 L -3.98853,-4.58037
 L -4.08946,-4.42131 L -4.20953,-4.27617 L -4.34686,-4.14722 L -4.49925,-4.0365 L -4.66432,-3.94576 L -4.83946,-3.8764
 L -5.02193,-3.82956 L -5.2088,-3.80595 z
M 5.2088,-3.80595 L 5.02193,-3.82956 L 4.83946,-3.8764 L 4.66432,-3.94576 L 4.49925,-4.0365 L 4.34686,-4.14722
 L 4.20953,-4.27617 L 4.08946,-4.42131 L 3.98853,-4.58037 L 3.90833,-4.75081 L 3.85011,-4.92996 L 3.81482,-5.11499
 L 3.80299,-5.30299 L 3.81482,-5.491 L 3.85011,-5.67603 L 3.90833,-5.85518 L 3.98853,-6.02562 L 4.08946,-6.18468
 L 4.20953,-6.32982 L 4.34686,-6.45876 L 4.49925,-6.56949 L 4.66432,-6.66023 L 4.83946,-6.72958 L 5.02193,-6.77643
 L 5.2088,-6.80003 L 5.39717,-6.80003 L 5.58406,-6.77643 L 5.76653,-6.72958 L 5.94167,-6.66023 L 6.10674,-6.56949
 L 6.25912,-6.45876 L 6.39644,-6.32982 L 6.51653,-6.18468 L 6.61745,-6.02562 L 6.69766,-5.85518 L 6.75587,-5.67603
 L 6.79117,-5.491 L 6.80299,-5.30299 L 6.79117,-5.11499 L 6.75587,-4.92996 L 6.69766,-4.75081 L 6.61745,-4.58037
 L 6.51653,-4.42131 L 6.39644,-4.27617 L 6.25912,-4.14722 L 6.10674,-4.0365 L 5.94167,-3.94576 L 5.76653,-3.8764
 L 5.58406,-3.82956 L 5.39717,-3.80595 z
M -0.18837,2.99408 L -0.562134,2.94685 L -0.927048,2.85316 L -1.27733,2.71448 L -1.60747,2.53297 L -1.91226,2.31154
 L -2.1869,2.05363 L -2.42705,1.76335 L -2.62891,1.44525 L -2.78932,1.10437 L -2.90575,0.746063 L -2.97633,0.375992
 L -3,-0 L -2.97633,-0.375992 L -2.90575,-0.746063 L -2.78932,-1.10437 L -2.62891,-1.44525 L -2.42705,-1.76335
 L -2.1869,-2.05363 L -1.91226,-2.31154 L -1.60747,-2.53297 L -1.27733,-2.71448 L -0.927048,-2.85316 L -0.562134,-2.94685
 L -0.18837,-2.99408 L 0.18837,-2.99408 L 0.562134,-2.94685 L 0.927048,-2.85316 L 1.27733,-2.71448 L 1.60747,-2.53297
 L 1.91226,-2.31154 L 2.1869,-2.05363 L 2.42705,-1.76335 L 2.62891,-1.44525 L 2.78932,-1.10437 L 2.90575,-0.746063
 L 2.97633,-0.375992 L 3,-0 L 2.97633,0.375992 L 2.90575,0.746063 L 2.78932,1.10437 L 2.62891,1.44525
 L 2.42705,1.76335 L 2.1869,2.05363 L 1.91226,2.31154 L 1.60747,2.53297 L 1.27733,2.71448 L 0.927048,2.85316
 L 0.562134,2.94685 L 0.18837,2.99408 z
M 7.38696,1.79645 L 7.1627,1.76811 L 6.94376,1.7119 L 6.7336,1.62868 L 6.53551,1.51978 L 6.35263,1.38692
 L 6.18785,1.23218 L 6.04376,1.058 L 5.92264,0.867142 L 5.8264,0.662613 L 5.75655,0.447632 L 5.71419,0.225586
 L 5.7,-0 L 5.71419,-0.225586 L 5.75655,-0.447632 L 5.8264,-0.662613 L 5.92264,-0.867142 L 6.04376,-1.058
 L 6.18785,-1.23218 L 6.35263,-1.38692 L 6.53551,-1.51978 L 6.7336,-1.62868 L 6.94376,-1.7119 L 7.1627,-1.76811
 L 7.38696,-1.79645 L 7.61302,-1.79645 L 7.83728,-1.76811 L 8.05623,-1.7119 L 8.26639,-1.62868 L 8.46448,-1.51978
 L 8.64735,-1.38692 L 8.81213,-1.23218 L 8.95622,-1.058 L 9.07735,-0.867142 L 9.17358,-0.662613 L 9.24344,-0.447632
 L 9.2858,-0.225586 L 9.29999,-0 L 9.2858,0.225586 L 9.24344,0.447632 L 9.17358,0.662613 L 9.07735,0.867142
 L 8.95622,1.058 L 8.81213,1.23218 L 8.64735,1.38692 L 8.46448,1.51978 L 8.26639,1.62868 L 8.05623,1.7119
 L 7.83728,1.76811 L 7.61302,1.79645 z
M -7.61302,1.79645 L -7.83728,1.76811 L -8.05623,1.7119 L -8.26639,1.62868 L -8.46448,1.51978 L -8.64735,1.38692
 L -8.81213,1.23218 L -8.95622,1.058 L -9.07735,0.867142 L -9.17358,0.662613 L -9.24344,0.447632 L -9.2858,0.225586
 L -9.29999,-0 L -9.2858,-0.225586 L -9.24344,-0.447632 L -9.17358,-0.662613 L -9.07735,-0.867142 L -8.95622,-1.058
 L -8.81213,-1.23218 L -8.64735,-1.38692 L -8.46448,-1.51978 L -8.26639,-1.62868 L -8.05623,-1.7119 L -7.83728,-1.76811
 L -7.61302,-1.79645 L -7.38696,-1.79645 L -7.1627,-1.76811 L -6.94376,-1.7119 L -6.7336,-1.62868 L -6.53551,-1.51978
 L -6.35263,-1.38692 L -6.18785,-1.23218 L -6.04376,-1.058 L -5.92264,-0.867142 L -5.8264,-0.662613 L -5.75655,-0.447632
 L -5.71419,-0.225586 L -5.7,-0 L -5.71419,0.225586 L -5.75655,0.447632 L -5.8264,0.662613 L -5.92264,0.867142
 L -6.04376,1.058 L -6.18785,1.23218 L -6.35263,1.38692 L -6.53551,1.51978 L -6.7336,1.62868 L -6.94376,1.7119
 L -7.1627,1.76811 L -7.38696,1.79645 z
M -5.39717,6.80003 L -5.58406,6.77643 L -5.76653,6.72958 L -5.94167,6.66023 L -6.10674,6.56949 L -6.25912,6.45876
 L -6.39644,6.32982 L -6.51653,6.18468 L -6.61745,6.02562 L -6.69766,5.85518 L -6.75587,5.67603 L -6.79117,5.491
 L -6.80299,5.30299 L -6.79117,5.11499 L -6.75587,4.92996 L -6.69766,4.75081 L -6.61745,4.58037 L -6.51653,4.42131
 L -6.39644,4.27617 L -6.25912,4.14722 L -6.10674,4.0365 L -5.94167,3.94576 L -5.76653,3.8764 L -5.58406,3.82956
 L -5.39717,3.80595 L -5.2088,3.80595 L -5.02193,3.82956 L -4.83946,3.8764 L -4.66432,3.94576 L -4.49925,4.0365
 L -4.34686,4.14722 L -4.20953,4.27617 L -4.08946,4.42131 L -3.98853,4.58037 L -3.90833,4.75081 L -3.85011,4.92996
 L -3.81482,5.11499 L -3.80299,5.30299 L -3.81482,5.491 L -3.85011,5.67603 L -3.90833,5.85518 L -3.98853,6.02562
 L -4.08946,6.18468 L -4.20953,6.32982 L -4.34686,6.45876 L -4.49925,6.56949 L -4.66432,6.66023 L -4.83946,6.72958
 L -5.02193,6.77643 L -5.2088,6.80003 z
M 5.2088,6.80003 L 5.02193,6.77643 L 4.83946,6.72958 L 4.66432,6.66023 L 4.49925,6.56949 L 4.34686,6.45876
 L 4.20953,6.32982 L 4.08946,6.18468 L 3.98853,6.02562 L 3.90833,5.85518 L 3.85011,5.67603 L 3.81482,5.491
 L 3.80299,5.30299 L 3.81482,5.11499 L 3.85011,4.92996 L 3.90833,4.75081 L 3.98853,4.58037 L 4.08946,4.42131
 L 4.20953,4.27617 L 4.34686,4.14722 L 4.49925,4.0365 L 4.66432,3.94576 L 4.83946,3.8764 L 5.02193,3.82956
 L 5.2088,3.80595 L 5.39717,3.80595 L 5.58406,3.82956 L 5.76653,3.8764 L 5.94167,3.94576 L 6.10674,4.0365
 L 6.25912,4.14722 L 6.39644,4.27617 L 6.51653,4.42131 L 6.61745,4.58037 L 6.69766,4.75081 L 6.75587,4.92996
 L 6.79117,5.11499 L 6.80299,5.30299 L 6.79117,5.491 L 6.75587,5.67603 L 6.69766,5.85518 L 6.61745,6.02562
 L 6.51653,6.18468 L 6.39644,6.32982 L 6.25912,6.45876 L 6.10674,6.56949 L 5.94167,6.66023 L 5.76653,6.72958
 L 5.58406,6.77643 L 5.39717,6.80003 z
M -1.58675,10.2483 L -3.17349,7.5 L -1.58675,4.75168 L 1.58675,4.75168 L 3.17349,7.5 L 1.58675,10.2483
 z
M 53.3265,13.5064 L 54.999,13.077 L 56.6045,12.4414 L 58.1176,11.6095 L 59.5146,10.5945 L 60.7733,9.41252
 L 61.874,8.08205 L 62.7992,6.6241 L 63.5344,5.06171 L 64.068,3.41948 L 64.3916,1.72333 L 64.5,-0
 L 64.3916,-1.72333 L 64.068,-3.41948 L 63.5344,-5.06171 L 62.7992,-6.6241 L 61.874,-8.08205 L 60.7733,-9.41252
 L 59.5146,-10.5945 L 58.1176,-11.6095 L 56.6045,-12.4414 L 54.999,-13.077 L 53.3265,-13.5064 L 51.6134,-13.7229
 L 49.8866,-13.7229 L 48.1735,-13.5064 L 46.501,-13.077 L 44.8955,-12.4414 L 43.3824,-11.6095 L 41.9854,-10.5945
 L 40.7267,-9.41252 L 39.626,-8.08205 L 38.7008,-6.6241 L 37.9656,-5.06171 L 37.432,-3.41948 L 37.1084,-1.72333
 L 37,-0 L 37.1084,1.72333 L 37.432,3.41948 L 37.9656,5.06171 L 38.7008,6.6241 L 39.626,8.08205
 L 40.7267,9.41252 L 41.9854,10.5945 L 43.3824,11.6095 L 44.8955,12.4414 L 46.501,13.077 L 48.1735,13.5064
 L 49.8866,13.7229 L 51.6134,13.7229 z
M 49.887,-5.70355 L 49.6627,-5.73187 L 49.4438,-5.78809 L 49.2336,-5.87131 L 49.0355,-5.98021 L 48.8526,-6.11307
 L 48.6879,-6.26781 L 48.5438,-6.44199 L 48.4226,-6.63284 L 48.3264,-6.83737 L 48.2565,-7.05235 L 48.2142,-7.2744
 L 48.2,-7.5 L 48.2142,-7.72559 L 48.2565,-7.94763 L 48.3264,-8.16261 L 48.4226,-8.36714 L 48.5438,-8.558
 L 48.6879,-8.73218 L 48.8526,-8.88692 L 49.0355,-9.01978 L 49.2336,-9.12868 L 49.4438,-9.2119 L 49.6627,-9.26811
 L 49.887,-9.29645 L 50.113,-9.29645 L 50.3373,-9.26811 L 50.5562,-9.2119 L 50.7664,-9.12868 L 50.9645,-9.01978
 L 51.1474,-8.88692 L 51.3121,-8.73218 L 51.4562,-8.558 L 51.5773,-8.36714 L 51.6736,-8.16261 L 51.7434,-7.94763
 L 51.7858,-7.72559 L 51.8,-7.5 L 51.7858,-7.2744 L 51.7434,-7.05235 L 51.6736,-6.83737 L 51.5773,-6.63284
 L 51.4562,-6.44199 L 51.3121,-6.26781 L 51.1474,-6.11307 L 50.9645,-5.98021 L 50.7664,-5.87131 L 50.5562,-5.78809
 L 50.3373,-5.73187 L 50.113,-5.70355 z
M 44.6028,-3.80595 L 44.4159,-3.82956 L 44.2335,-3.8764 L 44.0583,-3.94576 L 43.8932,-4.0365 L 43.7409,-4.14722
 L 43.6035,-4.27617 L 43.4835,-4.42131 L 43.3825,-4.58037 L 43.3023,-4.75081 L 43.2441,-4.92996 L 43.2088,-5.11499
 L 43.197,-5.30299 L 43.2088,-5.491 L 43.2441,-5.67603 L 43.3023,-5.85518 L 43.3825,-6.02562 L 43.4835,-6.18468
 L 43.6035,-6.32982 L 43.7409,-6.45876 L 43.8932,-6.56949 L 44.0583,-6.66023 L 44.2335,-6.72958 L 44.4159,-6.77643
 L 44.6028,-6.80003 L 44.7912,-6.80003 L 44.9781,-6.77643 L 45.1605,-6.72958 L 45.3357,-6.66023 L 45.5007,-6.56949
 L 45.6531,-6.45876 L 45.7905,-6.32982 L 45.9105,-6.18468 L 46.0115,-6.02562 L 46.0917,-5.85518 L 46.1499,-5.67603
 L 46.1852,-5.491 L 46.197,-5.30299 L 46.1852,-5.11499 L 46.1499,-4.92996 L 46.0917,-4.75081 L 46.0115,-4.58037
 L 45.9105,-4.42131 L 45.7905,-4.27617 L 45.6531,-4.14722 L 45.5007,-4.0365 L 45.3357,-3.94576 L 45.1605,-3.8764
 L 44.9781,-3.82956 L 44.7912,-3.80595 z
M 55.2088,-3.80595 L 55.0219,-3.82956 L 54.8395,-3.8764 L 54.6643,-3.94576 L 54.4993,-4.0365 L 54.3469,-4.14722
 L 54.2095,-4.27617 L 54.0895,-4.42131 L 53.9885,-4.58037 L 53.9083,-4.75081 L 53.8501,-4.92996 L 53.8148,-5.11499
 L 53.803,-5.30299 L 53.8148,-5.491 L 53.8501,-5.67603 L 53.9083,-5.85518 L 53.9885,-6.02562 L 54.0895,-6.18468
 L 54.2095,-6.32982 L 54.3469,-6.45876 L 54.4993,-6.56949 L 54.6643,-6.66023 L 54.8395,-6.72958 L 55.0219,-6.77643
 L 55.2088,-6.80003 L 55.3972,-6.80003 L 55.5841,-6.77643 L 55.7665,-6.72958 L 55.9417,-6.66023 L 56.1067,-6.56949
 L 56.2591,-6.45876 L 56.3965,-6.32982 L 56.5165,-6.18468 L 56.6174,-6.02562 L 56.6977,-5.85518 L 56.7559,-5.67603
 L 56.7912,-5.491 L 56.803,-5.30299 L 56.7912,-5.11499 L 56.7559,-4.92996 L 56.6977,-4.75081 L 56.6174,-4.58037
 L 56.5165,-4.42131 L 56.3965,-4.27617 L 56.2591,-4.14722 L 56.1067,-4.0365 L 55.9417,-3.94576 L 55.7665,-3.8764
 L 55.5841,-3.82956 L 55.3972,-3.80595 z
M 49.8116,2.99408 L 49.4379,2.94685 L 49.0729,2.85316 L 48.7227,2.71448 L 48.3925,2.53297 L 48.0877,2.31154
 L 47.8131,2.05363 L 47.5729,1.76335 L 47.3711,1.44525 L 47.2107,1.10437 L 47.0942,0.746063 L 47.0237,0.375992
 L 47,-0 L 47.0237,-0.375992 L 47.0942,-0.746063 L 47.2107,-1.10437 L 47.3711,-1.44525 L 47.5729,-1.76335
 L 47.8131,-2.05363 L 48.0877,-2.31154 L 48.3925,-2.53297 L 48.7227,-2.71448 L 49.0729,-2.85316 L 49.4379,-2.94685
 L 49.8116,-2.99408 L 50.1884,-2.99408 L 50.5621,-2.94685 L 50.927,-2.85316 L 51.2773,-2.71448 L 51.6075,-2.53297
 L 51.9123,-2.31154 L 52.1869,-2.05363 L 52.427,-1.76335 L 52.6289,-1.44525 L 52.7893,-1.10437 L 52.9057,-0.746063
 L 52.9763,-0.375992 L 53,-0 L 52.9763,0.375992 L 52.9057,0.746063 L 52.7893,1.10437 L 52.6289,1.44525
 L 52.427,1.76335 L 52.1869,2.05363 L 51.9123,2.31154 L 51.6075,2.53297 L 51.2773,2.71448 L 50.927,2.85316
 L 50.5621,2.94685 L 50.1884,2.99408 z
M 40.9133,2.74832 L 39.3265,-0 L 40.9133,-2.74832 L 44.0867,-2.74832 L 45.6735,-0 L 44.0867,2.74832
 z
M 55.9133,2.74832 L 54.3265,-0 L 55.9133,-2.74832 L 59.0867,-2.74832 L 60.6735,-0 L 59.0867,2.74832
 z
M 55.2088,6.80003 L 55.0219,6.77643 L 54.8395,6.72958 L 54.6643,6.66023 L 54.4993,6.56949 L 54.3469,6.45876
 L 54.2095,6.32982 L 54.0895,6.18468 L 53.9885,6.02562 L 53.9083,5.85518 L 53.8501,5.67603 L 53.8148,5.491
 L 53.803,5.30299 L 53.8148,5.11499 L 53.8501,4.92996 L 53.9083,4.75081 L 53.9885,4.58037 L 54.0895,4.42131
 L 54.2095,4.27617 L 54.3469,4.14722 L 54.4993,4.0365 L 54.6643,3.94576 L 54.8395,3.8764 L 55.0219,3.82956
 L 55.2088,3.80595 L 55.3972,3.80595 L 55.5841,3.82956 L 55.7665,3.8764 L 55.9417,3.94576 L 56.1067,4.0365
 L 56.2591,4.14722 L 56.3965,4.27617 L 56.5165,4.42131 L 56.6174,4.58037 L 56.6977,4.75081 L 56.7559,4.92996
 L 56.7912,5.11499 L 56.803,5.30299 L 56.7912,5.491 L 56.7559,5.67603 L 56.6977,5.85518 L 56.6174,6.02562
 L 56.5165,6.18468 L 56.3965,6.32982 L 56.2591,6.45876 L 56.1067,6.56949 L 55.9417,6.66023 L 55.7665,6.72958
 L 55.5841,6.77643 L 55.3972,6.80003 z
M 44.6028,6.80003 L 44.4159,6.77643 L 44.2335,6.72958 L 44.0583,6.66023 L 43.8932,6.56949 L 43.7409,6.45876
 L 43.6035,6.32982 L 43.4835,6.18468 L 43.3825,6.02562 L 43.3023,5.85518 L 43.2441,5.67603 L 43.2088,5.491
 L 43.197,5.30299 L 43.2088,5.11499 L 43.2441,4.92996 L 43.3023,4.75081 L 43.3825,4.58037 L 43.4835,4.42131
 L 43.6035,4.27617 L 43.7409,4.14722 L 43.8932,4.0365 L 44.0583,3.94576 L 44.2335,3.8764 L 44.4159,3.82956
 L 44.6028,3.80595 L 44.7912,3.80595 L 44.9781,3.82956 L 45.1605,3.8764 L 45.3357,3.94576 L 45.5007,4.0365
 L 45.6531,4.14722 L 45.7905,4.27617 L 45.9105,4.42131 L 46.0115,4.58037 L 46.0917,4.75081 L 46.1499,4.92996
 L 46.1852,5.11499 L 46.197,5.30299 L 46.1852,5.491 L 46.1499,5.67603 L 46.0917,5.85518 L 46.0115,6.02562
 L 45.9105,6.18468 L 45.7905,6.32982 L 45.6531,6.45876 L 45.5007,6.56949 L 45.3357,6.66023 L 45.1605,6.72958
 L 44.9781,6.77643 L 44.7912,6.80003 z
M 49.887,9.29645 L 49.6627,9.26811 L 49.4438,9.2119 L 49.2336,9.12868 L 49.0355,9.01978 L 48.8526,8.88692
 L 48.6879,8.73218 L 48.5438,8.558 L 48.4226,8.36714 L 48.3264,8.16261 L 48.2565,7.94763 L 48.2142,7.72559
 L 48.2,7.5 L 48.2142,7.2744 L 48.2565,7.05235 L 48.3264,6.83737 L 48.4226,6.63284 L 48.5438,6.44199
 L 48.6879,6.26781 L 48.8526,6.11307 L 49.0355,5.98021 L 49.2336,5.87131 L 49.4438,5.78809 L 49.6627,5.73187
 L 49.887,5.70355 L 50.113,5.70355 L 50.3373,5.73187 L 50.5562,5.78809 L 50.7664,5.87131 L 50.9645,5.98021
 L 51.1474,6.11307 L 51.3121,6.26781 L 51.4562,6.44199 L 51.5773,6.63284 L 51.6736,6.83737 L 51.7434,7.05235
 L 51.7858,7.2744 L 51.8,7.5 L 51.7858,7.72559 L 51.7434,7.94763 L 51.6736,8.16261 L 51.5773,8.36714
 L 51.4562,8.558 L 51.3121,8.73218 L 51.1474,8.88692 L 50.9645,9.01978 L 50.7664,9.12868 L 50.5562,9.2119
 L 50.3373,9.26811 L 50.113,9.29645 z
" stroke="black" fill="lightgray" stroke-width="0.5"/>
</svg>
