<?xml version="1.0" standalone="no"?>
<!DOCTYPE svg PUBLIC "-//W3C//DTD SVG 1.1//EN" "http://www.w3.org/Graphics/SVG/1.1/DTD/svg11.dtd">
<svg width="76mm" height="76mm" viewBox="-38 -38 76 76" xmlns="http://www.w3.org/2000/svg" version="1.1">
<title>OpenSCAD Model</title>
<path d="
M 33.4369,37.4114 L 34.0451,37.2553 L 34.6289,37.0241 L 35.1791,36.7216 L 35.6871,36.3526 L 36.1448,35.9227
 L 36.5451,35.4389 L 36.8815,34.9088 L 37.1489,34.3406 L 37.3429,33.7434 L 37.4606,33.1267 L 37.5,32.5
 L 37.5,-32.5 L 37.4606,-33.1267 L 37.3429,-33.7434 L 37.1489,-34.3406 L 36.8815,-34.9088 L 36.5451,-35.4389
 L 36.1448,-35.9227 L 35.6871,-36.3526 L 35.1791,-36.7216 L 34.6289,-37.0241 L 34.0451,-37.2553 L 33.4369,-37.4114
 L 32.8139,-37.4901 L -32.8139,-37.4901 L -33.4369,-37.4114 L -34.0451,-37.2553 L -34.6289,-37.0241 L -35.1791,-36.7216
 L -35.6871,-36.3526 L -36.1448,-35.9227 L -36.5451,-35.4389 L -36.8815,-34.9088 L -37.1489,-34.3406 L -37.3429,-33.7434
 L -37.4606,-33.1267 L -37.5,-32.5 L -37.5,32.5 L -37.4606,33.1267 L -37.3429,33.7434 L -37.1489,34.3406
 L -36.8815,34.9088 L -36.5451,35.4389 L -36.1448,35.9227 L -35.6871,36.3526 L -35.1791,36.7216 L -34.6289,37.0241
 L -34.0451,37.2553 L -33.4369,37.4114 L -32.8139,37.4901 L 32.8139,37.4901 z
M 29.8116,-27.0059 L 29.4379,-27.0531 L 29.0729,-27.1468 L 28.7227,-27.2855 L 28.3925,-27.467 L 28.0877,-27.6884
 L 27.8131,-27.9464 L 27.5729,-28.2366 L 27.3711,-28.5547 L 27.2107,-28.8956 L 27.0942,-29.2539 L 27.0237,-29.624
 L 27,-30 L 27.0237,-30.376 L 27.0942,-30.7461 L 27.2107,-31.1044 L 27.3711,-31.4453 L 27.5729,-31.7634
 L 27.8131,-32.0536 L 28.0877,-32.3115 L 28.3925,-32.533 L 28.7227,-32.7145 L 29.0729,-32.8532 L 29.4379,-32.9469
 L 29.8116,-32.9941 L 30.1884,-32.9941 L 30.5621,-32.9469 L 30.927,-32.8532 L 31.2773,-32.7145 L 31.6075,-32.533
 L 31.9123,-32.3115 L 32.1869,-32.0536 L 32.427,-31.7634 L 32.6289,-31.4453 L 32.7893,-31.1044 L 32.9057,-30.7461
 L 32.9763,-30.376 L 33,-30 L 32.9763,-29.624 L 32.9057,-29.2539 L 32.7893,-28.8956 L 32.6289,-28.5547
 L 32.427,-28.2366 L 32.1869,-27.9464 L 31.9123,-27.6884 L 31.6075,-27.467 L 31.2773,-27.2855 L 30.927,-27.1468
 L 30.5621,-27.0531 L 30.1884,-27.0059 z
M -30.1884,-27.0059 L -30.5621,-27.0531 L -30.927,-27.1468 L -31.2773,-27.2855 L -31.6075,-27.467 L -31.9123,-27.6884
 L -32.1869,-27.9464 L -32.427,-28.2366 L -32.6289,-28.5547 L -32.7893,-28.8956 L -32.9057,-29.2539 L -32.9763,-29.624
 L -33,-30 L -32.9763,-30.376 L -32.9057,-30.7461 L -32.7893,-31.1044 L -32.6289,-31.4453 L -32.427,-31.7634
 L -32.1869,-32.0536 L -31.9123,-32.3115 L -31.6075,-32.533 L -31.2773,-32.7145 L -30.927,-32.8532 L -30.5621,-32.9469
 L -30.1884,-32.9941 L -29.8116,-32.9941 L -29.4379,-32.9469 L -29.0729,-32.8532 L -28.7227,-32.7145 L -28.3925,-32.533
 L -28.0877,-32.3115 L -27.8131,-32.0536 L -27.5729,-31.7634 L -27.3711,-31.4453 L -27.2107,-31.1044 L -27.0942,-30.7461
 L -27.0237,-30.376 L -27,-30 L -27.0237,-29.624 L -27.0942,-29.2539 L -27.2107,-28.8956 L -27.3711,-28.5547
 L -27.5729,-28.2366 L -27.8131,-27.9464 L -28.0877,-27.6884 L -28.3925,-27.467 L -28.7227,-27.2855 L -29.0729,-27.1468
 L -29.4379,-27.0531 L -29.8116,-27.0059 z
M -2.04068,32.4359 L -6.08989,31.9243 L -10.043,30.9093 L -13.8378,29.4069 L -17.4144,27.4406 L -20.7163,25.0417
 L -23.6915,22.2478 L -26.293,19.103 L -28.48,15.657 L -30.2177,11.964 L -31.4789,8.08241 L -32.2437,4.07332
 L -32.5,-0 L -32.2437,-4.07332 L -31.4789,-8.08241 L -30.2177,-11.964 L -28.48,-15.657 L -26.293,-19.103
 L -23.6915,-22.2478 L -20.7163,-25.0417 L -17.4144,-27.4406 L -13.8378,-29.4069 L -10.043,-30.9093 L -6.08989,-31.9243
 L -2.04068,-32.4359 L 2.04068,-32.4359 L 6.08989,-31.9243 L 10.043,-30.9093 L 13.8378,-29.4069 L 17.4144,-27.4406
 L 20.7163,-25.0417 L 23.6915,-22.2478 L 26.293,-19.103 L 28.48,-15.657 L 30.2177,-11.964 L 31.4789,-8.08241
 L 32.2437,-4.07332 L 32.5,-0 L 32.2437,4.07332 L 31.4789,8.08241 L 30.2177,11.964 L 28.48,15.657
 L 26.293,19.103 L 23.6915,22.2478 L 20.7163,25.0417 L 17.4144,27.4406 L 13.8378,29.4069 L 10.043,30.9093
 L 6.08989,31.9243 L 2.04068,32.4359 z
M 4.68452,24.5572 L 7.72542,23.7764 L 10.6445,22.6207 L 13.3957,21.1082 L 15.9356,19.2628 L 18.2242,17.1137
 L 20.2254,14.6946 L 21.9077,12.0438 L 23.2444,9.20311 L 24.2146,6.21724 L 24.8029,3.13332 L 25,-0
 L 24.8029,-3.13332 L 24.2146,-6.21724 L 23.2444,-9.20311 L 21.9077,-12.0438 L 20.2254,-14.6946 L 18.2242,-17.1137
 L 15.9356,-19.2628 L 13.3957,-21.1082 L 10.6445,-22.6207 L 7.72542,-23.7764 L 4.68452,-24.5572 L 1.56975,-24.9507
 L -1.56975,-24.9507 L -4.68452,-24.5572 L -7.72542,-23.7764 L -10.6445,-22.6207 L -13.3957,-21.1082 L -15.9356,-19.2628
 L -18.2242,-17.1137 L -20.2254,-14.6946 L -21.9077,-12.0438 L -23.2444,-9.20311 L -24.2146,-6.21724 L -24.8029,-3.13332
 L -25,-0 L -24.8029,3.13332 L -24.2146,6.21724 L -23.2444,9.20311 L -21.9077,12.0438 L -20.2254,14.6946
 L -18.2242,17.1137 L -15.9356,19.2628 L -13.3957,21.1082 L -10.6445,22.6207 L -7.72542,23.7764 L -4.68452,24.5572
 L -1.56975,24.9507 L 1.56975,24.9507 z
M -0.0941772,-21.003 L -0.281067,-21.0266 L -0.463516,-21.0734 L -0.638657,-21.1427 L -0.803726,-21.2335 L -0.956131,-21.3442
 L -1.09344,-21.4732 L -1.21352,-21.6183 L -1.31445,-21.7774 L -1.39465,-21.9478 L -1.45287,-22.127 L -1.48816,-22.312
 L -1.5,-22.5 L -1.48816,-22.688 L -1.45287,-22.873 L -1.39465,-23.0522 L -1.31445,-23.2226 L -1.21352,-23.3817
 L -1.09344,-23.5268 L -0.956131,-23.6558 L -0.803726,-23.7665 L -0.638657,-23.8572 L -0.463516,-23.9266 L -0.281067,-23.9734
 L -0.0941772,-23.997 L 0.0941772,-23.997 L 0.281067,-23.9734 L 0.463516,-23.9266 L 0.638657,-23.8572 L 0.803726,-23.7665
 L 0.956131,-23.6558 L 1.09344,-23.5268 L 1.21352,-23.3817 L 1.31445,-23.2226 L 1.39465,-23.0522 L 1.45287,-22.873
 L 1.48816,-22.688 L 1.5,-22.5 L 1.48816,-22.312 L 1.45287,-22.127 L 1.39465,-21.9478 L 1.31445,-21.7774
 L 1.21352,-21.6183 L 1.09344,-21.4732 L 0.956131,-21.3442 L 0.803726,-21.2335 L 0.638657,-21.1427 L 0.463516,-21.0734
 L 0.281067,-21.0266 L 0.0941772,-21.003 z
M -15.1884,-12.0059 L -15.5621,-12.0531 L -15.927,-12.1468 L -16.2773,-12.2855 L -16.6075,-12.467 L -16.9123,-12.6884
 L -17.1869,-12.9464 L -17.427,-13.2366 L -17.6289,-13.5547 L -17.7893,-13.8956 L -17.9057,-14.2539 L -17.9763,-14.624
 L -18,-15 L -17.9763,-15.376 L -17.9057,-15.7461 L -17.7893,-16.1044 L -17.6289,-16.4453 L -17.427,-16.7634
 L -17.1869,-17.0536 L -16.9123,-17.3115 L -16.6075,-17.533 L -16.2773,-17.7145 L -15.927,-17.8532 L -15.5621,-17.9469
 L -15.1884,-17.9941 L -14.8116,-17.9941 L -14.4379,-17.9469 L -14.0729,-17.8532 L -13.7227,-17.7145 L -13.3925,-17.533
 L -13.0877,-17.3115 L -12.8131,-17.0536 L -12.5729,-16.7634 L -12.3711,-16.4453 L -12.2107,-16.1044 L -12.0942,-15.7461
 L -12.0237,-15.376 L -12,-15 L -12.0237,-14.624 L -12.0942,-14.2539 L -12.2107,-13.8956 L -12.3711,-13.5547
 L -12.5729,-13.2366 L -12.8131,-12.9464 L -13.0877,-12.6884 L -13.3925,-12.467 L -13.7227,-12.2855 L -14.0729,-12.1468
 L -14.4379,-12.0531 L -14.8116,-12.0059 z
M -0.18837,-12.0059 L -0.562134,-12.0531 L -0.927048,-12.1468 L -1.27733,-12.2855 L -1.60747,-12.467 L -1.91226,-12.6884
 L -2.1869,-12.9464 L -2.42705,-13.2366 L -2.62891,-13.5547 L -2.78932,-13.8956 L -2.90575,-14.2539 L -2.97633,-14.624
 L -3,-15 L -2.97633,-15.376 L -2.90575,-15.7461 L -2.78932,-16.1044 L -2.62891,-16.4453 L -2.42705,-16.7634
 L -2.1869,-17.0536 L -1.91226,-17.3115 L -1.60747,-17.533 L -1.27733,-17.7145 L -0.927048,-17.8532 L -0.562134,-17.9469
 L -0.18837,-17.9941 L 0.18837,-17.9941 L 0.562134,-17.9469 L 0.927048,-17.8532 L 1.27733,-17.7145 L 1.60747,-17.533
 L 1.91226,-17.3115 L 2.1869,-17.0536 L 2.42705,-16.7634 L 2.62891,-16.4453 L 2.78932,-16.1044 L 2.90575,-15.7461
 L 2.97633,-15.376 L 3,-15 L 2.97633,-14.624 L 2.90575,-14.2539 L 2.78932,-13.8956 L 2.62891,-13.5547
 L 2.42705,-13.2366 L 2.1869,-12.9464 L 1.91226,-12.6884 L 1.60747,-12.467 L 1.27733,-12.2855 L 0.927048,-12.1468
 L 0.562134,-12.0531 L 0.18837,-12.0059 z
M 14.8116,-12.0059 L 14.4379,-12.0531 L 14.0729,-12.1468 L 13.7227,-12.2855 L 13.3925,-12.467 L 13.0877,-12.6884
 L 12.8131,-12.9464 L 12.5729,-13.2366 L 12.3711,-13.5547 L 12.2107,-13.8956 L 12.0942,-14.2539 L 12.0237,-14.624
 L 12,-15 L 12.0237,-15.376 L 12.0942,-15.7461 L 12.2107,-16.1044 L 12.3711,-16.4453 L 12.5729,-16.7634
 L 12.8131,-17.0536 L 13.0877,-17.3115 L 13.3925,-17.533 L 13.7227,-17.7145 L 14.0729,-17.8532 L 14.4379,-17.9469
 L 14.8116,-17.9941 L 15.1884,-17.9941 L 15.5621,-17.9469 L 15.927,-17.8532 L 16.2773,-17.7145 L 16.6075,-17.533
 L 16.9123,-17.3115 L 17.1869,-17.0536 L 17.427,-16.7634 L 17.6289,-16.4453 L 17.7893,-16.1044 L 17.9057,-15.7461
 L 17.9763,-15.376 L 18,-15 L 17.9763,-14.624 L 17.9057,-14.2539 L 17.7893,-13.8956 L 17.6289,-13.5547
 L 17.427,-13.2366 L 17.1869,-12.9464 L 16.9123,-12.6884 L 16.6075,-12.467 L 16.2773,-12.2855 L 15.927,-12.1468
 L 15.5621,-12.0531 L 15.1884,-12.0059 z
M 7.40581,-13.5029 L 7.21892,-13.5266 L 7.03647,-13.5734 L 6.86133,-13.6427 L 6.69626,-13.7335 L 6.54385,-13.8442
 L 6.40654,-13.9732 L 6.28647,-14.1183 L 6.18553,-14.2774 L 6.10533,-14.4478 L 6.04712,-14.627 L 6.01183,-14.812
 L 6,-15 L 6.01183,-15.188 L 6.04712,-15.373 L 6.10533,-15.5522 L 6.18553,-15.7226 L 6.28647,-15.8817
 L 6.40654,-16.0268 L 6.54385,-16.1558 L 6.69626,-16.2665 L 6.86133,-16.3572 L 7.03647,-16.4266 L 7.21892,-16.4734
 L 7.40581,-16.497 L 7.59418,-16.497 L 7.78107,-16.4734 L 7.96352,-16.4266 L 8.13866,-16.3572 L 8.30373,-16.2665
 L 8.45613,-16.1558 L 8.59344,-16.0268 L 8.71352,-15.8817 L 8.81445,-15.7226 L 8.89465,-15.5522 L 8.95287,-15.373
 L 8.98816,-15.188 L 9,-15 L 8.98816,-14.812 L 8.95287,-14.627 L 8.89465,-14.4478 L 8.81445,-14.2774
 L 8.71352,-14.1183 L 8.59344,-13.9732 L 8.45613,-13.8442 L 8.30373,-13.7335 L 8.13866,-13.6427 L 7.96352,-13.5734
 L 7.78107,-13.5266 L 7.59418,-13.5029 z
M -7.59418,-13.5029 L -7.78107,-13.5266 L -7.96352,-13.5734 L -8.13866,-13.6427 L -8.30373,-13.7335 L -8.45613,-13.8442
 L -8.59344,-13.9732 L -8.71352,-14.1183 L -8.81445,-14.2774 L -8.89465,-14.4478 L -8.95287,-14.627 L -8.98816,-14.812
 L -9,-15 L -8.98816,-15.188 L -8.95287,-15.373 L -8.89465,-15.5522 L -8.81445,-15.7226 L -8.71352,-15.8817
 L -8.59344,-16.0268 L -8.45613,-16.1558 L -8.30373,-16.2665 L -8.13866,-16.3572 L -7.96352,-16.4266 L -7.78107,-16.4734
 L -7.59418,-16.497 L -7.40581,-16.497 L -7.21892,-16.4734 L -7.03647,-16.4266 L -6.86133,-16.3572 L -6.69626,-16.2665
 L -6.54385,-16.1558 L -6.40654,-16.0268 L -6.28647,-15.8817 L -6.18553,-15.7226 L -6.10533,-15.5522 L -6.04712,-15.373
 L -6.01183,-15.188 L -6,-15 L -6.01183,-14.812 L -6.04712,-14.627 L -6.10533,-14.4478 L -6.18553,-14.2774
 L -6.28647,-14.1183 L -6.40654,-13.9732 L -6.54385,-13.8442 L -6.69626,-13.7335 L -6.86133,-13.6427 L -7.03647,-13.5734
 L -7.21892,-13.5266 L -7.40581,-13.5029 z
M -7.61302,-5.70355 L -7.83728,-5.73187 L -8.05623,-5.78809 L -8.26639,-5.87131 L -8.46448,-5.98021 L -8.64735,-6.11307
 L -8.81213,-6.26781 L -8.95622,-6.44199 L -9.07735,-6.63284 L -9.17358,-6.83737 L -9.24344,-7.05235 L -9.2858,-7.2744
 L -9.29999,-7.5 L -9.2858,-7.72559 L -9.24344,-7.94763 L -9.17358,-8.16261 L -9.07735,-8.36714 L -8.95622,-8.558
 L -8.81213,-8.73218 L -8.64735,-8.88692 L -8.46448,-9.01978 L -8.26639,-9.12868 L -8.05623,-9.2119 L -7.83728,-9.26811
 L -7.61302,-9.29645 L -7.38696,-9.29645 L -7.1627,-9.26811 L -6.94376,-9.2119 L -6.7336,-9.12868 L -6.53551,-9.01978
 L -6.35263,-8.88692 L -6.18785,-8.73218 L -6.04376,-8.558 L -5.92264,-8.36714 L -5.8264,-8.16261 L -5.75655,-7.94763
 L -5.71419,-7.72559 L -5.7,-7.5 L -5.71419,-7.2744 L -5.75655,-7.05235 L -5.8264,-6.83737 L -5.92264,-6.63284
 L -6.04376,-6.44199 L -6.18785,-6.26781 L -6.35263,-6.11307 L -6.53551,-5.98021 L -6.7336,-5.87131 L -6.94376,-5.78809
 L -7.1627,-5.73187 L -7.38696,-5.70355 z
M 7.38696,-5.70355 L 7.1627,-5.73187 L 6.94376,-5.78809 L 6.7336,-5.87131 L 6.53551,-5.98021 L 6.35263,-6.11307
 L 6.18785,-6.26781 L 6.04376,-6.44199 L 5.92264,-6.63284 L 5.8264,-6.83737 L 5.75655,-7.05235 L 5.71419,-7.2744
 L 5.7,-7.5 L 5.71419,-7.72559 L 5.75655,-7.94763 L 5.8264,-8.16261 L 5.92264,-8.36714 L 6.04376,-8.558
 L 6.18785,-8.73218 L 6.35263,-8.88692 L 6.53551,-9.01978 L 6.7336,-9.12868 L 6.94376,-9.2119 L 7.1627,-9.26811
 L 7.38696,-9.29645 L 7.61302,-9.29645 L 7.83728,-9.26811 L 8.05623,-9.2119 L 8.26639,-9.12868 L 8.46448,-9.01978
 L 8.64735,-8.88692 L 8.81213,-8.73218 L 8.95622,-8.558 L 9.07735,-8.36714 L 9.17358,-8.16261 L 9.24344,-7.94763
 L 9.2858,-7.72559 L 9.29999,-7.5 L 9.2858,-7.2744 L 9.24344,-7.05235 L 9.17358,-6.83737 L 9.07735,-6.63284
 L 8.95622,-6.44199 L 8.81213,-6.26781 L 8.64735,-6.11307 L 8.46448,-5.98021 L 8.26639,-5.87131 L 8.05623,-5.78809
 L 7.83728,-5.73187 L 7.61302,-5.70355 z
M -0.0941772,-6.00294 L -0.281067,-6.02657 L -0.463516,-6.07341 L -0.638657,-6.14275 L -0.803726,-6.23351 L -0.956131,-6.34422
 L -1.09344,-6.47318 L -1.21352,-6.61832 L -1.31445,-6.77736 L -1.39465,-6.9478 L -1.45287,-7.12695 L -1.48816,-7.312
 L -1.5,-7.5 L -1.48816,-7.68799 L -1.45287,-7.87303 L -1.39465,-8.05219 L -1.31445,-8.22263 L -1.21352,-8.38167
 L -1.09344,-8.52681 L -0.956131,-8.65576 L -0.803726,-8.76648 L -0.638657,-8.85724 L -0.463516,-8.92657 L -0.281067,-8.97342
 L -0.0941772,-8.99704 L 0.0941772,-8.99704 L 0.281067,-8.97342 L 0.463516,-8.92657 L 0.638657,-8.85724 L 0.803726,-8.76648
 L 0.956131,-8.65576 L 1.09344,-8.52681 L 1.21352,-8.38167 L 1.31445,-8.22263 L 1.39465,-8.05219 L 1.45287,-7.87303
 L 1.48816,-7.68799 L 1.5,-7.5 L 1.48816,-7.312 L 1.45287,-7.12695 L 1.39465,-6.9478 L 1.31445,-6.77736
 L 1.21352,-6.61832 L 1.09344,-6.47318 L 0.956131,-6.34422 L 0.803726,-6.23351 L 0.638657,-6.14275 L 0.463516,-6.07341
 L 0.281067,-6.02657 L 0.0941772,-6.00294 z
M -15.0942,-6.00294 L -15.2811,-6.02657 L -15.4635,-6.07341 L -15.6387,-6.14275 L -15.8037,-6.23351 L -15.9561,-6.34422
 L -16.0934,-6.47318 L -16.2135,-6.61832 L -16.3145,-6.77736 L -16.3947,-6.9478 L -16.4529,-7.12695 L -16.4882,-7.312
 L -16.5,-7.5 L -16.4882,-7.68799 L -16.4529,-7.87303 L -16.3947,-8.05219 L -16.3145,-8.22263 L -16.2135,-8.38167
 L -16.0934,-8.52681 L -15.9561,-8.65576 L -15.8037,-8.76648 L -15.6387,-8.85724 L -15.4635,-8.92657 L -15.2811,-8.97342
 L -15.0942,-8.99704 L -14.9058,-8.99704 L -14.7189,-8.97342 L -14.5365,-8.92657 L -14.3613,-8.85724 L -14.1963,-8.76648
 L -14.0439,-8.65576 L -13.9065,-8.52681 L -13.7865,-8.38167 L -13.6855,-8.22263 L -13.6053,-8.05219 L -13.5471,-7.87303
 L -13.5118,-7.68799 L -13.5,-7.5 L -13.5118,-7.312 L -13.5471,-7.12695 L -13.6053,-6.9478 L -13.6855,-6.77736
 L -13.7865,-6.61832 L -13.9065,-6.47318 L -14.0439,-6.34422 L -14.1963,-6.23351 L -14.3613,-6.14275 L -14.5365,-6.07341
 L -14.7189,-6.02657 L -14.9058,-6.00294 z
M 14.9058,-6.00294 L 14.7189,-6.02657 L 14.5365,-6.07341 L 14.3613,-6.14275 L 14.1963,-6.23351 L 14.0439,-6.34422
 L 13.9065,-6.47318 L 13.7865,-6.61832 L 13.6855,-6.77736 L 13.6053,-6.9478 L 13.5471,-7.12695 L 13.5118,-7.312
 L 13.5,-7.5 L 13.5118,-7.68799 L 13.5471,-7.87303 L 13.6053,-8.05219 L 13.6855,-8.22263 L 13.7865,-8.38167
 L 13.9065,-8.52681 L 14.0439,-8.65576 L 14.1963,-8.76648 L 14.3613,-8.85724 L 14.5365,-8.92657 L 14.7189,-8.97342
 L 14.9058,-8.99704 L 15.0942,-8.99704 L 15.2811,-8.97342 L 15.4635,-8.92657 L 15.6387,-8.85724 L 15.8037,-8.76648
 L 15.9561,-8.65576 L 16.0934,-8.52681 L 16.2135,-8.38167 L 16.3145,-8.22263 L 16.3947,-8.05219 L 16.4529,-7.87303
 L 16.4882,-7.68799 L 16.5,-7.5 L 16.4882,-7.312 L 16.4529,-7.12695 L 16.3947,-6.9478 L 16.3145,-6.77736
 L 16.2135,-6.61832 L 16.0934,-6.47318 L 15.9561,-6.34422 L 15.8037,-6.23351 L 15.6387,-6.14275 L 15.4635,-6.07341
 L 15.2811,-6.02657 L 15.0942,-6.00294 z
M -15.1884,2.99408 L -15.5621,2.94685 L -15.927,2.85316 L -16.2773,2.71448 L -16.6075,2.53297 L -16.9123,2.31154
 L -17.1869,2.05363 L -17.427,1.76335 L -17.6289,1.44525 L -17.7893,1.10437 L -17.9057,0.746063 L -17.9763,0.375992
 L -18,-0 L -17.9763,-0.375992 L -17.9057,-0.746063 L -17.7893,-1.10437 L -17.6289,-1.44525 L -17.427,-1.76335
 L -17.1869,-2.05363 L -16.9123,-2.31154 L -16.6075,-2.53297 L -16.2773,-2.71448 L -15.927,-2.85316 L -15.5621,-2.94685
 L -15.1884,-2.99408 L -14.8116,-2.99408 L -14.4379,-2.94685 L -14.0729,-2.85316 L -13.7227,-2.71448 L -13.3925,-2.53297
 L -13.0877,-2.31154 L -12.8131,-2.05363 L -12.5729,-1.76335 L -12.3711,-1.44525 L -12.2107,-1.10437 L -12.0942,-0.746063
 L -12.0237,-0.375992 L -12,-0 L -12.0237,0.375992 L -12.0942,0.746063 L -12.2107,1.10437 L -12.3711,1.44525
 L -12.5729,1.76335 L -12.8131,2.05363 L -13.0877,2.31154 L -13.3925,2.53297 L -13.7227,2.71448 L -14.0729,2.85316
 L -14.4379,2.94685 L -14.8116,2.99408 z
M -0.18837,2.99408 L -0.562134,2.94685 L -0.927048,2.85316 L -1.27733,2.71448 L -1.60747,2.53297 L -1.91226,2.31154
 L -2.1869,2.05363 L -2.42705,1.76335 L -2.62891,1.44525 L -2.78932,1.10437 L -2.90575,0.746063 L -2.97633,0.375992
 L -3,-0 L -2.97633,-0.375992 L -2.90575,-0.746063 L -2.78932,-1.10437 L -2.62891,-1.44525 L -2.42705,-1.76335
 L -2.1869,-2.05363 L -1.91226,-2.31154 L -1.60747,-2.53297 L -1.27733,-2.71448 L -0.927048,-2.85316 L -0.562134,-2.94685
 L -0.18837,-2.99408 L 0.18837,-2.99408 L 0.562134,-2.94685 L 0.927048,-2.85316 L 1.27733,-2.71448 L 1.60747,-2.53297
 L 1.91226,-2.31154 L 2.1869,-2.05363 L 2.42705,-1.76335 L 2.62891,-1.44525 L 2.78932,-1.10437 L 2.90575,-0.746063
 L 2.97633,-0.375992 L 3,-0 L 2.97633,0.375992 L 2.90575,0.746063 L 2.78932,1.10437 L 2.62891,1.44525
 L 2.42705,1.76335 L 2.1869,2.05363 L 1.91226,2.31154 L 1.60747,2.53297 L 1.27733,2.71448 L 0.927048,2.85316
 L 0.562134,2.94685 L 0.18837,2.99408 z
M 14.8116,2.99408 L 14.4379,2.94685 L 14.0729,2.85316 L 13.7227,2.71448 L 13.3925,2.53297 L 13.0877,2.31154
 L 12.8131,2.05363 L 12.5729,1.76335 L 12.3711,1.44525 L 12.2107,1.10437 L 12.0942,0.746063 L 12.0237,0.375992
 L 12,-0 L 12.0237,-0.375992 L 12.0942,-0.746063 L 12.2107,-1.10437 L 12.3711,-1.44525 L 12.5729,-1.76335
 L 12.8131,-2.05363 L 13.0877,-2.31154 L 13.3925,-2.53297 L 13.7227,-2.71448 L 14.0729,-2.85316 L 14.4379,-2.94685
 L 14.8116,-2.99408 L 15.1884,-2.99408 L 15.5621,-2.94685 L 15.927,-2.85316 L 16.2773,-2.71448 L 16.6075,-2.53297
 L 16.9123,-2.31154 L 17.1869,-2.05363 L 17.427,-1.76335 L 17.6289,-1.44525 L 17.7893,-1.10437 L 17.9057,-0.746063
 L 17.9763,-0.375992 L 18,-0 L 17.9763,0.375992 L 17.9057,0.746063 L 17.7893,1.10437 L 17.6289,1.44525
 L 17.427,1.76335 L 17.1869,2.05363 L 16.9123,2.31154 L 16.6075,2.53297 L 16.2773,2.71448 L 15.927,2.85316
 L 15.5621,2.94685 L 15.1884,2.99408 z
M -7.59418,1.49704 L -7.78107,1.47342 L -7.96352,1.42657 L -8.13866,1.35724 L -8.30373,1.26648 L -8.45613,1.15576
 L -8.59344,1.02681 L -8.71352,0.881668 L -8.81445,0.722626 L -8.89465,0.552185 L -8.95287,0.373032 L -8.98816,0.187988
 L -9,-0 L -8.98816,-0.187988 L -8.95287,-0.373032 L -8.89465,-0.552185 L -8.81445,-0.722626 L -8.71352,-0.881668
 L -8.59344,-1.02681 L -8.45613,-1.15576 L -8.30373,-1.26648 L -8.13866,-1.35724 L -7.96352,-1.42657 L -7.78107,-1.47342
 L -7.59418,-1.49704 L -7.40581,-1.49704 L -7.21892,-1.47342 L -7.03647,-1.42657 L -6.86133,-1.35724 L -6.69626,-1.26648
 L -6.54385,-1.15576 L -6.40654,-1.02681 L -6.28647,-0.881668 L -6.18553,-0.722626 L -6.10533,-0.552185 L -6.04712,-0.373032
 L -6.01183,-0.187988 L -6,-0 L -6.01183,0.187988 L -6.04712,0.373032 L -6.10533,0.552185 L -6.18553,0.722626
 L -6.28647,0.881668 L -6.40654,1.02681 L -6.54385,1.15576 L -6.69626,1.26648 L -6.86133,1.35724 L -7.03647,1.42657
 L -7.21892,1.47342 L -7.40581,1.49704 z
M 7.40581,1.49704 L 7.21892,1.47342 L 7.03647,1.42657 L 6.86133,1.35724 L 6.69626,1.26648 L 6.54385,1.15576
 L 6.40654,1.02681 L 6.28647,0.881668 L 6.18553,0.722626 L 6.10533,0.552185 L 6.04712,0.373032 L 6.01183,0.187988
 L 6,-0 L 6.01183,-0.187988 L 6.04712,-0.373032 L 6.10533,-0.552185 L 6.18553,-0.722626 L 6.28647,-0.881668
 L 6.40654,-1.02681 L 6.54385,-1.15576 L 6.69626,-1.26648 L 6.86133,-1.35724 L 7.03647,-1.42657 L 7.21892,-1.47342
 L 7.40581,-1.49704 L 7.59418,-1.49704 L 7.78107,-1.47342 L 7.96352,-1.42657 L 8.13866,-1.35724 L 8.30373,-1.26648
 L 8.45613,-1.15576 L 8.59344,-1.02681 L 8.71352,-0.881668 L 8.81445,-0.722626 L 8.89465,-0.552185 L 8.95287,-0.373032
 L 8.98816,-0.187988 L 9,-0 L 8.98816,0.187988 L 8.95287,0.373032 L 8.89465,0.552185 L 8.81445,0.722626
 L 8.71352,0.881668 L 8.59344,1.02681 L 8.45613,1.15576 L 8.30373,1.26648 L 8.13866,1.35724 L 7.96352,1.42657
 L 7.78107,1.47342 L 7.59418,1.49704 z
M 22.4058,1.49704 L 22.2189,1.47342 L 22.0365,1.42657 L 21.8613,1.35724 L 21.6963,1.26648 L 21.5439,1.15576
 L 21.4065,1.02681 L 21.2865,0.881668 L 21.1855,0.722626 L 21.1053,0.552185 L 21.0471,0.373032 L 21.0118,0.187988
 L 21,-0 L 21.0118,-0.187988 L 21.0471,-0.373032 L 21.1053,-0.552185 L 21.1855,-0.722626 L 21.2865,-0.881668
 L 21.4065,-1.02681 L 21.5439,-1.15576 L 21.6963,-1.26648 L 21.8613,-1.35724 L 22.0365,-1.42657 L 22.2189,-1.47342
 L 22.4058,-1.49704 L 22.5942,-1.49704 L 22.7811,-1.47342 L 22.9635,-1.42657 L 23.1387,-1.35724 L 23.3037,-1.26648
 L 23.4561,-1.15576 L 23.5934,-1.02681 L 23.7135,-0.881668 L 23.8145,-0.722626 L 23.8947,-0.552185 L 23.9529,-0.373032
 L 23.9882,-0.187988 L 24,-0 L 23.9882,0.187988 L 23.9529,0.373032 L 23.8947,0.552185 L 23.8145,0.722626
 L 23.7135,0.881668 L 23.5934,1.02681 L 23.4561,1.15576 L 23.3037,1.26648 L 23.1387,1.35724 L 22.9635,1.42657
 L 22.7811,1.47342 L 22.5942,1.49704 z
M -22.5942,1.49704 L -22.7811,1.47342 L -22.9635,1.42657 L -23.1387,1.35724 L -23.3037,1.26648 L -23.4561,1.15576
 L -23.5934,1.02681 L -23.7135,0.881668 L -23.8145,0.722626 L -23.8947,0.552185 L -23.9529,0.373032 L -23.9882,0.187988
 L -24,-0 L -23.9882,-0.187988 L -23.9529,-0.373032 L -23.8947,-0.552185 L -23.8145,-0.722626 L -23.7135,-0.881668
 L -23.5934,-1.02681 L -23.4561,-1.15576 L -23.3037,-1.26648 L -23.1387,-1.35724 L -22.9635,-1.42657 L -22.7811,-1.47342
 L -22.5942,-1.49704 L -22.4058,-1.49704 L -22.2189,-1.47342 L -22.0365,-1.42657 L -21.8613,-1.35724 L -21.6963,-1.26648
 L -21.5439,-1.15576 L -21.4065,-1.02681 L -21.2865,-0.881668 L -21.1855,-0.722626 L -21.1053,-0.552185 L -21.0471,-0.373032
 L -21.0118,-0.187988 L -21,-0 L -21.0118,0.187988 L -21.0471,0.373032 L -21.1053,0.552185 L -21.1855,0.722626
 L -21.2865,0.881668 L -21.4065,1.02681 L -21.5439,1.15576 L -21.6963,1.26648 L -21.8613,1.35724 L -22.0365,1.42657
 L -22.2189,1.47342 L -22.4058,1.49704 z
M 7.38696,9.29645 L 7.1627,9.26811 L 6.94376,9.2119 L 6.7336,9.12868 L 6.53551,9.01978 L 6.35263,8.88692
 L 6.18785,8.73218 L 6.04376,8.558 L 5.92264,8.36714 L 5.8264,8.16261 L 5.75655,7.94763 L 5.71419,7.72559
 L 5.7,7.5 L 5.71419,7.2744 L 5.75655,7.05235 L 5.8264,6.83737 L 5.92264,6.63284 L 6.04376,6.44199
 L 6.18785,6.26781 L 6.35263,6.11307 L 6.53551,5.98021 L 6.7336,5.87131 L 6.94376,5.78809 L 7.1627,5.73187
 L 7.38696,5.70355 L 7.61302,5.70355 L 7.83728,5.73187 L 8.05623,5.78809 L 8.26639,5.87131 L 8.46448,5.98021
 L 8.64735,6.11307 L 8.81213,6.26781 L 8.95622,6.44199 L 9.07735,6.63284 L 9.17358,6.83737 L 9.24344,7.05235
 L 9.2858,7.2744 L 9.29999,7.5 L 9.2858,7.72559 L 9.24344,7.94763 L 9.17358,8.16261 L 9.07735,8.36714
 L 8.95622,8.558 L 8.81213,8.73218 L 8.64735,8.88692 L 8.46448,9.01978 L 8.26639,9.12868 L 8.05623,9.2119
 L 7.83728,9.26811 L 7.61302,9.29645 z
M -1.45287,7.12695 L -1.39465,6.9478 L -1.31445,6.77736 L -1.21352,6.61832 L -1.09344,6.47318 L -0.956131,6.34422
 L -0.803726,6.23351 L -0.638657,6.14275 L -0.463516,6.07341 L -0.281067,6.02657 L -0.0941772,6.00294 L 0.0941772,6.00294
 L 0.281067,6.02657 L 0.463516,6.07341 L 0.638657,6.14275 L 0.803726,6.23351 L 0.956131,6.34422 L 1.09344,6.47318
 L 1.21352,6.61832 L 1.31445,6.77736 L 1.39465,6.9478 L 1.45287,7.12695 L 1.48816,7.312 L 1.5,7.5
 L 1.48816,7.68799 L 1.45287,7.87303 L 1.39465,8.05219 L 1.31445,8.22263 L 1.21352,8.38167 L 1.09344,8.52681
 L 0.956131,8.65576 L 0.803726,8.76648 L 0.638657,8.85724 L 0.463516,8.92657 L 0.281067,8.97342 L 0.0941772,8.99704
 L -0.0941772,8.99704 L -0.281067,8.97342 L -0.463516,8.92657 L -0.638657,8.85724 L -0.803726,8.76648 L -0.956131,8.65576
 L -1.09344,8.52681 L -1.21352,8.38167 L -1.31445,8.22263 L -1.39465,8.05219 L -1.45287,7.87303 L -1.48816,7.68799
 L -1.5,7.5 L -1.48816,7.312 z
M 14.9058,8.99704 L 14.7189,8.97342 L 14.5365,8.92657 L 14.3613,8.85724 L 14.1963,8.76648 L 14.0439,8.65576
 L 13.9065,8.52681 L 13.7865,8.38167 L 13.6855,8.22263 L 13.6053,8.05219 L 13.5471,7.87303 L 13.5118,7.68799
 L 13.5,7.5 L 13.5118,7.312 L 13.5471,7.12695 L 13.6053,6.9478 L 13.6855,6.77736 L 13.7865,6.61832
 L 13.9065,6.47318 L 14.0439,6.34422 L 14.1963,6.23351 L 14.3613,6.14275 L 14.5365,6.07341 L 14.7189,6.02657
 L 14.9058,6.00294 L 15.0942,6.00294 L 15.2811,6.02657 L 15.4635,6.07341 L 15.6387,6.14275 L 15.8037,6.23351
 L 15.9561,6.34422 L 16.0934,6.47318 L 16.2135,6.61832 L 16.3145,6.77736 L 16.3947,6.9478 L 16.4529,7.12695
 L 16.4882,7.312 L 16.5,7.5 L 16.4882,7.68799 L 16.4529,7.87303 L 16.3947,8.05219 L 16.3145,8.22263
 L 16.2135,8.38167 L 16.0934,8.52681 L 15.9561,8.65576 L 15.8037,8.76648 L 15.6387,8.85724 L 15.4635,8.92657
 L 15.2811,8.97342 L 15.0942,8.99704 z
M -15.0942,8.99704 L -15.2811,8.97342 L -15.4635,8.92657 L -15.6387,8.85724 L -15.8037,8.76648 L -15.9561,8.65576
 L -16.0934,8.52681 L -16.2135,8.38167 L -16.3145,8.22263 L -16.3947,8.05219 L -16.4529,7.87303 L -16.4882,7.68799
 L -16.5,7.5 L -16.4882,7.312 L -16.4529,7.12695 L -16.3947,6.9478 L -16.3145,6.77736 L -16.2135,6.61832
 L -16.0934,6.47318 L -15.9561,6.34422 L -15.8037,6.23351 L -15.6387,6.14275 L -15.4635,6.07341 L -15.2811,6.02657
 L -15.0942,6.00294 L -14.9058,6.00294 L -14.7189,6.02657 L -14.5365,6.07341 L -14.3613,6.14275 L -14.1963,6.23351
 L -14.0439,6.34422 L -13.9065,6.47318 L -13.7865,6.61832 L -13.6855,6.77736 L -13.6053,6.9478 L -13.5471,7.12695
 L -13.5118,7.312 L -13.5,7.5 L -13.5118,7.68799 L -13.5471,7.87303 L -13.6053,8.05219 L -13.6855,8.22263
 L -13.7865,8.38167 L -13.9065,8.52681 L -14.0439,8.65576 L -14.1963,8.76648 L -14.3613,8.85724 L -14.5365,8.92657
 L -14.7189,8.97342 L -14.9058,8.99704 z
M -15.1884,17.9941 L -15.5621,17.9469 L -15.927,17.8532 L -16.2773,17.7145 L -16.6075,17.533 L -16.9123,17.3115
 L -17.1869,17.0536 L -17.427,16.7634 L -17.6289,16.4453 L -17.7893,16.1044 L -17.9057,15.7461 L -17.9763,15.376
 L -18,15 L -17.9763,14.624 L -17.9057,14.2539 L -17.7893,13.8956 L -17.6289,13.5547 L -17.427,13.2366
 L -17.1869,12.9464 L -16.9123,12.6884 L -16.6075,12.467 L -16.2773,12.2855 L -15.927,12.1468 L -15.5621,12.0531
 L -15.1884,12.0059 L -14.8116,12.0059 L -14.4379,12.0531 L -14.0729,12.1468 L -13.7227,12.2855 L -13.3925,12.467
 L -13.0877,12.6884 L -12.8131,12.9464 L -12.5729,13.2366 L -12.3711,13.5547 L -12.2107,13.8956 L -12.0942,14.2539
 L -12.0237,14.624 L -12,15 L -12.0237,15.376 L -12.0942,15.7461 L -12.2107,16.1044 L -12.3711,16.4453
 L -12.5729,16.7634 L -12.8131,17.0536 L -13.0877,17.3115 L -13.3925,17.533 L -13.7227,17.7145 L -14.0729,17.8532
 L -14.4379,17.9469 L -14.8116,17.9941 z
M 14.8116,17.9941 L 14.4379,17.9469 L 14.0729,17.8532 L 13.7227,17.7145 L 13.3925,17.533 L 13.0877,17.3115
 L 12.8131,17.0536 L 12.5729,16.7634 L 12.3711,16.4453 L 12.2107,16.1044 L 12.0942,15.7461 L 12.0237,15.376
 L 12,15 L 12.0237,14.624 L 12.0942,14.2539 L 12.2107,13.8956 L 12.3711,13.5547 L 12.5729,13.2366
 L 12.8131,12.9464 L 13.0877,12.6884 L 13.3925,12.467 L 13.7227,12.2855 L 14.0729,12.1468 L 14.4379,12.0531
 L 14.8116,12.0059 L 15.1884,12.0059 L 15.5621,12.0531 L 15.927,12.1468 L 16.2773,12.2855 L 16.6075,12.467
 L 16.9123,12.6884 L 17.1869,12.9464 L 17.427,13.2366 L 17.6289,13.5547 L 17.7893,13.8956 L 17.9057,14.2539
 L 17.9763,14.624 L 18,15 L 17.9763,15.376 L 17.9057,15.7461 L 17.7893,16.1044 L 17.6289,16.4453
 L 17.427,16.7634 L 17.1869,17.0536 L 16.9123,17.3115 L 16.6075,17.533 L 16.2773,17.7145 L 15.927,17.8532
 L 15.5621,17.9469 L 15.1884,17.9941 z
M -0.18837,17.9941 L -0.562134,17.9469 L -0.927048,17.8532 L -1.27733,17.7145 L -1.60747,17.533 L -1.91226,17.3115
 L -2.1869,17.0536 L -2.42705,16.7634 L -2.62891,16.4453 L -2.78932,16.1044 L -2.90575,15.7461 L -2.97633,15.376
 L -3,15 L -2.97633,14.624 L -2.90575,14.2539 L -2.78932,13.8956 L -2.62891,13.5547 L -2.42705,13.2366
 L -2.1869,12.9464 L -1.91226,12.6884 L -1.60747,12.467 L -1.27733,12.2855 L -0.927048,12.1468 L -0.562134,12.0531
 L -0.18837,12.0059 L 0.18837,12.0059 L 0.562134,12.0531 L 0.927048,12.1468 L 1.27733,12.2855 L 1.60747,12.467
 L 1.91226,12.6884 L 2.1869,12.9464 L 2.42705,13.2366 L 2.62891,13.5547 L 2.78932,13.8956 L 2.90575,14.2539
 L 2.97633,14.624 L 3,15 L 2.97633,15.376 L 2.90575,15.7461 L 2.78932,16.1044 L 2.62891,16.4453
 L 2.42705,16.7634 L 2.1869,17.0536 L 1.91226,17.3115 L 1.60747,17.533 L 1.27733,17.7145 L 0.927048,17.8532
 L 0.562134,17.9469 L 0.18837,17.9941 z
M -7.59418,16.497 L -7.78107,16.4734 L -7.96352,16.4266 L -8.13866,16.3572 L -8.30373,16.2665 L -8.45613,16.1558
 L -8.59344,16.0268 L -8.71352,15.8817 L -8.81445,15.7226 L -8.89465,15.5522 L -8.95287,15.373 L -8.98816,15.188
 L -9,15 L -8.98816,14.812 L -8.95287,14.627 L -8.89465,14.4478 L -8.81445,14.2774 L -8.71352,14.1183
 L -8.59344,13.9732 L -8.45613,13.8442 L -8.30373,13.7335 L -8.13866,13.6427 L -7.96352,13.5734 L -7.78107,13.5266
 L -7.59418,13.5029 L -7.40581,13.5029 L -7.21892,13.5266 L -7.03647,13.5734 L -6.86133,13.6427 L -6.69626,13.7335
 L -6.54385,13.8442 L -6.40654,13.9732 L -6.28647,14.1183 L -6.18553,14.2774 L -6.10533,14.4478 L -6.04712,14.627
 L -6.01183,14.812 L -6,15 L -6.01183,15.188 L -6.04712,15.373 L -6.10533,15.5522 L -6.18553,15.7226
 L -6.28647,15.8817 L -6.40654,16.0268 L -6.54385,16.1558 L -6.69626,16.2665 L -6.86133,16.3572 L -7.03647,16.4266
 L -7.21892,16.4734 L -7.40581,16.497 z
M 7.40581,16.497 L 7.21892,16.4734 L 7.03647,16.4266 L 6.86133,16.3572 L 6.69626,16.2665 L 6.54385,16.1558
 L 6.40654,16.0268 L 6.28647,15.8817 L 6.18553,15.7226 L 6.10533,15.5522 L 6.04712,15.373 L 6.01183,15.188
 L 6,15 L 6.01183,14.812 L 6.04712,14.627 L 6.10533,14.4478 L 6.18553,14.2774 L 6.28647,14.1183
 L 6.40654,13.9732 L 6.54385,13.8442 L 6.69626,13.7335 L 6.86133,13.6427 L 7.03647,13.5734 L 7.21892,13.5266
 L 7.40581,13.5029 L 7.59418,13.5029 L 7.78107,13.5266 L 7.96352,13.5734 L 8.13866,13.6427 L 8.30373,13.7335
 L 8.45613,13.8442 L 8.59344,13.9732 L 8.71352,14.1183 L 8.81445,14.2774 L 8.89465,14.4478 L 8.95287,14.627
 L 8.98816,14.812 L 9,15 L 8.98816,15.188 L 8.95287,15.373 L 8.89465,15.5522 L 8.81445,15.7226
 L 8.71352,15.8817 L 8.59344,16.0268 L 8.45613,16.1558 L 8.30373,16.2665 L 8.13866,16.3572 L 7.96352,16.4266
 L 7.78107,16.4734 L 7.59418,16.497 z
M -0.0941772,23.997 L -0.281067,23.9734 L -0.463516,23.9266 L -0.638657,23.8572 L -0.803726,23.7665 L -0.956131,23.6558
 L -1.09344,23.5268 L -1.21352,23.3817 L -1.31445,23.2226 L -1.39465,23.0522 L -1.45287,22.873 L -1.48816,22.688
 L -1.5,22.5 L -1.48816,22.312 L -1.45287,22.127 L -1.39465,21.9478 L -1.31445,21.7774 L -1.21352,21.6183
 L -1.09344,21.4732 L -0.956131,21.3442 L -0.803726,21.2335 L -0.638657,21.1427 L -0.463516,21.0734 L -0.281067,21.0266
 L -0.0941772,21.003 L 0.0941772,21.003 L 0.281067,21.0266 L 0.463516,21.0734 L 0.638657,21.1427 L 0.803726,21.2335
 L 0.956131,21.3442 L 1.09344,21.4732 L 1.21352,21.6183 L 1.31445,21.7774 L 1.39465,21.9478 L 1.45287,22.127
 L 1.48816,22.312 L 1.5,22.5 L 1.48816,22.688 L 1.45287,22.873 L 1.39465,23.0522 L 1.31445,23.2226
 L 1.21352,23.3817 L 1.09344,23.5268 L 0.956131,23.6558 L 0.803726,23.7665 L 0.638657,23.8572 L 0.463516,23.9266
 L 0.281067,23.9734 L 0.0941772,23.997 z
M -5.75655,7.94763 L -5.8264,8.16261 L -5.92264,8.36714 L -6.04376,8.558 L -6.18785,8.73218 L -6.35263,8.88692
 L -6.53551,9.01978 L -6.7336,9.12868 L -6.94376,9.2119 L -7.1627,9.26811 L -7.38696,9.29645 L -7.61302,9.29645
 L -7.83728,9.26811 L -8.05623,9.2119 L -8.26639,9.12868 L -8.46448,9.01978 L -8.64735,8.88692 L -8.81213,8.73218
 L -8.95622,8.558 L -9.07735,8.36714 L -9.17358,8.16261 L -9.24344,7.94763 L -9.2858,7.72559 L -9.29999,7.5
 L -9.2858,7.2744 L -9.24344,7.05235 L -9.17358,6.83737 L -9.07735,6.63284 L -8.95622,6.44199 L -8.81213,6.26781
 L -8.64735,6.11307 L -8.46448,5.98021 L -8.26639,5.87131 L -8.05623,5.78809 L -7.83728,5.73187 L -7.61302,5.70355
 L -7.38696,5.70355 L -7.1627,5.73187 L -6.94376,5.78809 L -6.7336,5.87131 L -6.53551,5.98021 L -6.35263,6.11307
 L -6.18785,6.26781 L -6.04376,6.44199 L -5.92264,6.63284 L -5.8264,6.83737 L -5.75655,7.05235 L -5.71419,7.2744
 L -5.7,7.5 L -5.71419,7.72559 z
M 22.387,-28.2036 L 22.1627,-28.2319 L 21.9438,-28.2881 L 21.7336,-28.3713 L 21.5355,-28.4802 L 21.3526,-28.6131
 L 21.1879,-28.7678 L 21.0438,-28.942 L 20.9226,-29.1328 L 20.8264,-29.3374 L 20.7565,-29.5524 L 20.7142,-29.7744
 L 20.7,-30 L 20.7142,-30.2256 L 20.7565,-30.4476 L 20.8264,-30.6626 L 20.9226,-30.8672 L 21.0438,-31.058
 L 21.1879,-31.2322 L 21.3526,-31.3869 L 21.5355,-31.5198 L 21.7336,-31.6287 L 21.9438,-31.7119 L 22.1627,-31.7681
 L 22.387,-31.7964 L 22.613,-31.7964 L 22.8373,-31.7681 L 23.0562,-31.7119 L 23.2664,-31.6287 L 23.4645,-31.5198
 L 23.6474,-31.3869 L 23.8121,-31.2322 L 23.9562,-31.058 L 24.0773,-30.8672 L 24.1736,-30.6626 L 24.2434,-30.4476
 L 24.2858,-30.2256 L 24.3,-30 L 24.2858,-29.7744 L 24.2434,-29.5524 L 24.1736,-29.3374 L 24.0773,-29.1328
 L 23.9562,-28.942 L 23.8121,-28.7678 L 23.6474,-28.6131 L 23.4645,-28.4802 L 23.2664,-28.3713 L 23.0562,-28.2881
 L 22.8373,-28.2319 L 22.613,-28.2036 z
M -22.5942,-28.503 L -22.7811,-28.5266 L -22.9635,-28.5734 L -23.1387,-28.6427 L -23.3037,-28.7335 L -23.4561,-28.8442
 L -23.5934,-28.9732 L -23.7135,-29.1183 L -23.8145,-29.2774 L -23.8947,-29.4478 L -23.9529,-29.627 L -23.9882,-29.812
 L -24,-30 L -23.9882,-30.188 L -23.9529,-30.373 L -23.8947,-30.5522 L -23.8145,-30.7226 L -23.7135,-30.8817
 L -23.5934,-31.0268 L -23.4561,-31.1558 L -23.3037,-31.2665 L -23.1387,-31.3572 L -22.9635,-31.4266 L -22.7811,-31.4734
 L -22.5942,-31.497 L -22.4058,-31.497 L -22.2189,-31.4734 L -22.0365,-31.4266 L -21.8613,-31.3572 L -21.6963,-31.2665
 L -21.5439,-31.1558 L -21.4065,-31.0268 L -21.2865,-30.8817 L -21.1855,-30.7226 L -21.1053,-30.5522 L -21.0471,-30.373
 L -21.0118,-30.188 L -21,-30 L -21.0118,-29.812 L -21.0471,-29.627 L -21.1053,-29.4478 L -21.1855,-29.2774
 L -21.2865,-29.1183 L -21.4065,-28.9732 L -21.5439,-28.8442 L -21.6963,-28.7335 L -21.8613,-28.6427 L -22.0365,-28.5734
 L -22.2189,-28.5266 L -22.4058,-28.503 z
M -30.113,-20.7036 L -30.3373,-20.7319 L -30.5562,-20.7881 L -30.7664,-20.8713 L -30.9645,-20.9802 L -31.1474,-21.1131
 L -31.3121,-21.2678 L -31.4562,-21.442 L -31.5773,-21.6328 L -31.6736,-21.8374 L -31.7434,-22.0524 L -31.7858,-22.2744
 L -31.8,-22.5 L -31.7858,-22.7256 L -31.7434,-22.9476 L -31.6736,-23.1626 L -31.5773,-23.3672 L -31.4562,-23.558
 L -31.3121,-23.7322 L -31.1474,-23.8869 L -30.9645,-24.0198 L -30.7664,-24.1287 L -30.5562,-24.2119 L -30.3373,-24.2681
 L -30.113,-24.2964 L -29.887,-24.2964 L -29.6627,-24.2681 L -29.4438,-24.2119 L -29.2336,-24.1287 L -29.0355,-24.0198
 L -28.8526,-23.8869 L -28.6879,-23.7322 L -28.5438,-23.558 L -28.4226,-23.3672 L -28.3264,-23.1626 L -28.2565,-22.9476
 L -28.2142,-22.7256 L -28.2,-22.5 L -28.2142,-22.2744 L -28.2565,-22.0524 L -28.3264,-21.8374 L -28.4226,-21.6328
 L -28.5438,-21.442 L -28.6879,-21.2678 L -28.8526,-21.1131 L -29.0355,-20.9802 L -29.2336,-20.8713 L -29.4438,-20.7881
 L -29.6627,-20.7319 L -29.887,-20.7036 z
M 29.9058,-21.003 L 29.7189,-21.0266 L 29.5365,-21.0734 L 29.3613,-21.1427 L 29.1963,-21.2335 L 29.0439,-21.3442
 L 28.9065,-21.4732 L 28.7865,-21.6183 L 28.6855,-21.7774 L 28.6053,-21.9478 L 28.5471,-22.127 L 28.5118,-22.312
 L 28.5,-22.5 L 28.5118,-22.688 L 28.5471,-22.873 L 28.6053,-23.0522 L 28.6855,-23.2226 L 28.7865,-23.3817
 L 28.9065,-23.5268 L 29.0439,-23.6558 L 29.1963,-23.7665 L 29.3613,-23.8572 L 29.5365,-23.9266 L 29.7189,-23.9734
 L 29.9058,-23.997 L 30.0942,-23.997 L 30.2811,-23.9734 L 30.4635,-23.9266 L 30.6387,-23.8572 L 30.8037,-23.7665
 L 30.9561,-23.6558 L 31.0934,-23.5268 L 31.2135,-23.3817 L 31.3145,-23.2226 L 31.3947,-23.0522 L 31.4529,-22.873
 L 31.4882,-22.688 L 31.5,-22.5 L 31.4882,-22.312 L 31.4529,-22.127 L 31.3947,-21.9478 L 31.3145,-21.7774
 L 31.2135,-21.6183 L 31.0934,-21.4732 L 30.9561,-21.3442 L 30.8037,-21.2335 L 30.6387,-21.1427 L 30.4635,-21.0734
 L 30.2811,-21.0266 L 30.0942,-21.003 z
M 29.887,24.2964 L 29.6627,24.2681 L 29.4438,24.2119 L 29.2336,24.1287 L 29.0355,24.0198 L 28.8526,23.8869
 L 28.6879,23.7322 L 28.5438,23.558 L 28.4226,23.3672 L 28.3264,23.1626 L 28.2565,22.9476 L 28.2142,22.7256
 L 28.2,22.5 L 28.2142,22.2744 L 28.2565,22.0524 L 28.3264,21.8374 L 28.4226,21.6328 L 28.5438,21.442
 L 28.6879,21.2678 L 28.8526,21.1131 L 29.0355,20.9802 L 29.2336,20.8713 L 29.4438,20.7881 L 29.6627,20.7319
 L 29.887,20.7036 L 30.113,20.7036 L 30.3373,20.7319 L 30.5562,20.7881 L 30.7664,20.8713 L 30.9645,20.9802
 L 31.1474,21.1131 L 31.3121,21.2678 L 31.4562,21.442 L 31.5773,21.6328 L 31.6736,21.8374 L 31.7434,22.0524
 L 31.7858,22.2744 L 31.8,22.5 L 31.7858,22.7256 L 31.7434,22.9476 L 31.6736,23.1626 L 31.5773,23.3672
 L 31.4562,23.558 L 31.3121,23.7322 L 31.1474,23.8869 L 30.9645,24.0198 L 30.7664,24.1287 L 30.5562,24.2119
 L 30.3373,24.2681 L 30.113,24.2964 z
M -30.0942,23.997 L -30.2811,23.9734 L -30.4635,23.9266 L -30.6387,23.8572 L -30.8037,23.7665 L -30.9561,23.6558
 L -31.0934,23.5268 L -31.2135,23.3817 L -31.3145,23.2226 L -31.3947,23.0522 L -31.4529,22.873 L -31.4882,22.688
 L -31.5,22.5 L -31.4882,22.312 L -31.4529,22.127 L -31.3947,21.9478 L -31.3145,21.7774 L -31.2135,21.6183
 L -31.0934,21.4732 L -30.9561,21.3442 L -30.8037,21.2335 L -30.6387,21.1427 L -30.4635,21.0734 L -30.2811,21.0266
 L -30.0942,21.003 L -29.9058,21.003 L -29.7189,21.0266 L -29.5365,21.0734 L -29.3613,21.1427 L -29.1963,21.2335
 L -29.0439,21.3442 L -28.9065,21.4732 L -28.7865,21.6183 L -28.6855,21.7774 L -28.6053,21.9478 L -28.5471,22.127
 L -28.5118,22.312 L -28.5,22.5 L -28.5118,22.688 L -28.5471,22.873 L -28.6053,23.0522 L -28.6855,23.2226
 L -28.7865,23.3817 L -28.9065,23.5268 L -29.0439,23.6558 L -29.1963,23.7665 L -29.3613,23.8572 L -29.5365,23.9266
 L -29.7189,23.9734 L -29.9058,23.997 z
M 29.8116,32.9941 L 29.4379,32.9469 L 29.0729,32.8532 L 28.7227,32.7145 L 28.3925,32.533 L 28.0877,32.3115
 L 27.8131,32.0536 L 27.5729,31.7634 L 27.3711,31.4453 L 27.2107,31.1044 L 27.0942,30.7461 L 27.0237,30.376
 L 27,30 L 27.0237,29.624 L 27.0942,29.2539 L 27.2107,28.8956 L 27.3711,28.5547 L 27.5729,28.2366
 L 27.8131,27.9464 L 28.0877,27.6884 L 28.3925,27.467 L 28.7227,27.2855 L 29.0729,27.1468 L 29.4379,27.0531
 L 29.8116,27.0059 L 30.1884,27.0059 L 30.5621,27.0531 L 30.927,27.1468 L 31.2773,27.2855 L 31.6075,27.467
 L 31.9123,27.6884 L 32.1869,27.9464 L 32.427,28.2366 L 32.6289,28.5547 L 32.7893,28.8956 L 32.9057,29.2539
 L 32.9763,29.624 L 33,30 L 32.9763,30.376 L 32.9057,30.7461 L 32.7893,31.1044 L 32.6289,31.4453
 L 32.427,31.7634 L 32.1869,32.0536 L 31.9123,32.3115 L 31.6075,32.533 L 31.2773,32.7145 L 30.927,32.8532
 L 30.5621,32.9469 L 30.1884,32.9941 z
M -30.1884,32.9941 L -30.5621,32.9469 L -30.927,32.8532 L -31.2773,32.7145 L -31.6075,32.533 L -31.9123,32.3115
 L -32.1869,32.0536 L -32.427,31.7634 L -32.6289,31.4453 L -32.7893,31.1044 L -32.9057,30.7461 L -32.9763,30.376
 L -33,30 L -32.9763,29.624 L -32.9057,29.2539 L -32.7893,28.8956 L -32.6289,28.5547 L -32.427,28.2366
 L -32.1869,27.9464 L -31.9123,27.6884 L -31.6075,27.467 L -31.2773,27.2855 L -30.927,27.1468 L -30.5621,27.0531
 L -30.1884,27.0059 L -29.8116,27.0059 L -29.4379,27.0531 L -29.0729,27.1468 L -28.7227,27.2855 L -28.3925,27.467
 L -28.0877,27.6884 L -27.8131,27.9464 L -27.5729,28.2366 L -27.3711,28.5547 L -27.2107,28.8956 L -27.0942,29.2539
 L -27.0237,29.624 L -27,30 L -27.0237,30.376 L -27.0942,30.7461 L -27.2107,31.1044 L -27.3711,31.4453
 L -27.5729,31.7634 L -27.8131,32.0536 L -28.0877,32.3115 L -28.3925,32.533 L -28.7227,32.7145 L -29.0729,32.8532
 L -29.4379,32.9469 L -29.8116,32.9941 z
M -22.613,31.7964 L -22.8373,31.7681 L -23.0562,31.7119 L -23.2664,31.6287 L -23.4645,31.5198 L -23.6474,31.3869
 L -23.8121,31.2322 L -23.9562,31.058 L -24.0773,30.8672 L -24.1736,30.6626 L -24.2434,30.4476 L -24.2858,30.2256
 L -24.3,30 L -24.2858,29.7744 L -24.2434,29.5524 L -24.1736,29.3374 L -24.0773,29.1328 L -23.9562,28.942
 L -23.8121,28.7678 L -23.6474,28.6131 L -23.4645,28.4802 L -23.2664,28.3713 L -23.0562,28.2881 L -22.8373,28.2319
 L -22.613,28.2036 L -22.387,28.2036 L -22.1627,28.2319 L -21.9438,28.2881 L -21.7336,28.3713 L -21.5355,28.4802
 L -21.3526,28.6131 L -21.1879,28.7678 L -21.0438,28.942 L -20.9226,29.1328 L -20.8264,29.3374 L -20.7565,29.5524
 L -20.7142,29.7744 L -20.7,30 L -20.7142,30.2256 L -20.7565,30.4476 L -20.8264,30.6626 L -20.9226,30.8672
 L -21.0438,31.058 L -21.1879,31.2322 L -21.3526,31.3869 L -21.5355,31.5198 L -21.7336,31.6287 L -21.9438,31.7119
 L -22.1627,31.7681 L -22.387,31.7964 z
M 22.4058,31.497 L 22.2189,31.4734 L 22.0365,31.4266 L 21.8613,31.3572 L 21.6963,31.2665 L 21.5439,31.1558
 L 21.4065,31.0268 L 21.2865,30.8817 L 21.1855,30.7226 L 21.1053,30.5522 L 21.0471,30.373 L 21.0118,30.188
 L 21,30 L 21.0118,29.812 L 21.0471,29.627 L 21.1053,29.4478 L 21.1855,29.2774 L 21.2865,29.1183
 L 21.4065,28.9732 L 21.5439,28.8442 L 21.6963,28.7335 L 21.8613,28.6427 L 22.0365,28.5734 L 22.2189,28.5266
 L 22.4058,28.503 L 22.5942,28.503 L 22.7811,28.5266 L 22.9635,28.5734 L 23.1387,28.6427 L 23.3037,28.7335
 L 23.4561,28.8442 L 23.5934,28.9732 L 23.7135,29.1183 L 23.8145,29.2774 L 23.8947,29.4478 L 23.9529,29.627
 L 23.9882,29.812 L 24,30 L 23.9882,30.188 L 23.9529,30.373 L 23.8947,30.5522 L 23.8145,30.7226
 L 23.7135,30.8817 L 23.5934,31.0268 L 23.4561,31.1558 L 23.3037,31.2665 L 23.1387,31.3572 L 22.9635,31.4266
 L 22.7811,31.4734 L 22.5942,31.497 z
" stroke="black" fill="lightgray" stroke-width="0.5"/>
</svg>
