  0
SECTION
  2
BLOCKS
  0
ENDSEC
  0
SECTION
  2
ENTITIES
  0
LINE
  8
0
 10
68.9369
 20
-21.9114
 11
69.5451
 21
-21.7553
  0
LINE
  8
0
 10
69.5451
 20
-21.7553
 11
70.1289
 21
-21.5241
  0
LINE
  8
0
 10
70.1289
 20
-21.5241
 11
70.6791
 21
-21.2216
  0
LINE
  8
0
 10
70.6791
 20
-21.2216
 11
71.1871
 21
-20.8526
  0
LINE
  8
0
 10
71.1871
 20
-20.8526
 11
71.6448
 21
-20.4227
  0
LINE
  8
0
 10
71.6448
 20
-20.4227
 11
72.0451
 21
-19.9389
  0
LINE
  8
0
 10
72.0451
 20
-19.9389
 11
72.3815
 21
-19.4088
  0
LINE
  8
0
 10
72.3815
 20
-19.4088
 11
72.6489
 21
-18.8406
  0
LINE
  8
0
 10
72.6489
 20
-18.8406
 11
72.8429
 21
-18.2434
  0
LINE
  8
0
 10
72.8429
 20
-18.2434
 11
72.9606
 21
-17.6267
  0
LINE
  8
0
 10
72.9606
 20
-17.6267
 11
72.9864
 21
-17.2164
  0
LINE
  8
0
 10
72.9864
 20
-17.2164
 11
72.8131
 21
-17.0536
  0
LINE
  8
0
 10
72.8131
 20
-17.0536
 11
72.573
 21
-16.7634
  0
LINE
  8
0
 10
72.573
 20
-16.7634
 11
72.3711
 21
-16.4453
  0
LINE
  8
0
 10
72.3711
 20
-16.4453
 11
72.2107
 21
-16.1044
  0
LINE
  8
0
 10
72.2107
 20
-16.1044
 11
72.0943
 21
-15.7461
  0
LINE
  8
0
 10
72.0943
 20
-15.7461
 11
72.0237
 21
-15.376
  0
LINE
  8
0
 10
72.0237
 20
-15.376
 11
72
 21
-15
  0
LINE
  8
0
 10
72
 20
-15
 11
72.0237
 21
-14.624
  0
LINE
  8
0
 10
72.0237
 20
-14.624
 11
72.0943
 21
-14.2539
  0
LINE
  8
0
 10
72.0943
 20
-14.2539
 11
72.2107
 21
-13.8956
  0
LINE
  8
0
 10
72.2107
 20
-13.8956
 11
72.3711
 21
-13.5547
  0
LINE
  8
0
 10
72.3711
 20
-13.5547
 11
72.573
 21
-13.2366
  0
LINE
  8
0
 10
72.573
 20
-13.2366
 11
72.8131
 21
-12.9464
  0
LINE
  8
0
 10
72.8131
 20
-12.9464
 11
73
 21
-12.7708
  0
LINE
  8
0
 10
73
 20
-12.7708
 11
73
 21
-11.6858
  0
LINE
  8
0
 10
73
 20
-11.6858
 11
74.1578
 21
-10.2862
  0
LINE
  8
0
 10
74.1578
 20
-10.2862
 11
75.3354
 21
-8.43068
  0
LINE
  8
0
 10
75.3354
 20
-8.43068
 11
76.2711
 21
-6.44217
  0
LINE
  8
0
 10
76.2711
 20
-6.44217
 11
76.9502
 21
-4.35207
  0
LINE
  8
0
 10
76.9502
 20
-4.35207
 11
77.362
 21
-2.19333
  0
LINE
  8
0
 10
77.362
 20
-2.19333
 11
77.5
 21
0
  0
LINE
  8
0
 10
77.5
 20
0
 11
77.362
 21
2.19333
  0
LINE
  8
0
 10
77.362
 20
2.19333
 11
76.9502
 21
4.35207
  0
LINE
  8
0
 10
76.9502
 20
4.35207
 11
76.2711
 21
6.44217
  0
LINE
  8
0
 10
76.2711
 20
6.44217
 11
75.3354
 21
8.43068
  0
LINE
  8
0
 10
75.3354
 20
8.43068
 11
74.1578
 21
10.2862
  0
LINE
  8
0
 10
74.1578
 20
10.2862
 11
73
 21
11.6858
  0
LINE
  8
0
 10
73
 20
11.6858
 11
73
 21
12.7708
  0
LINE
  8
0
 10
73
 20
12.7708
 11
72.8131
 21
12.9464
  0
LINE
  8
0
 10
72.8131
 20
12.9464
 11
72.573
 21
13.2366
  0
LINE
  8
0
 10
72.573
 20
13.2366
 11
72.3711
 21
13.5547
  0
LINE
  8
0
 10
72.3711
 20
13.5547
 11
72.2107
 21
13.8956
  0
LINE
  8
0
 10
72.2107
 20
13.8956
 11
72.0943
 21
14.2539
  0
LINE
  8
0
 10
72.0943
 20
14.2539
 11
72.0237
 21
14.624
  0
LINE
  8
0
 10
72.0237
 20
14.624
 11
72
 21
15
  0
LINE
  8
0
 10
72
 20
15
 11
72.0237
 21
15.376
  0
LINE
  8
0
 10
72.0237
 20
15.376
 11
72.0943
 21
15.7461
  0
LINE
  8
0
 10
72.0943
 20
15.7461
 11
72.2107
 21
16.1044
  0
LINE
  8
0
 10
72.2107
 20
16.1044
 11
72.3711
 21
16.4453
  0
LINE
  8
0
 10
72.3711
 20
16.4453
 11
72.573
 21
16.7634
  0
LINE
  8
0
 10
72.573
 20
16.7634
 11
72.8131
 21
17.0536
  0
LINE
  8
0
 10
72.8131
 20
17.0536
 11
72.9864
 21
17.2164
  0
LINE
  8
0
 10
72.9864
 20
17.2164
 11
72.9606
 21
17.6267
  0
LINE
  8
0
 10
72.9606
 20
17.6267
 11
72.8429
 21
18.2434
  0
LINE
  8
0
 10
72.8429
 20
18.2434
 11
72.6489
 21
18.8406
  0
LINE
  8
0
 10
72.6489
 20
18.8406
 11
72.3815
 21
19.4088
  0
LINE
  8
0
 10
72.3815
 20
19.4088
 11
72.0451
 21
19.9389
  0
LINE
  8
0
 10
72.0451
 20
19.9389
 11
71.6448
 21
20.4227
  0
LINE
  8
0
 10
71.6448
 20
20.4227
 11
71.1871
 21
20.8526
  0
LINE
  8
0
 10
71.1871
 20
20.8526
 11
70.6791
 21
21.2216
  0
LINE
  8
0
 10
70.6791
 20
21.2216
 11
70.1289
 21
21.5241
  0
LINE
  8
0
 10
70.1289
 20
21.5241
 11
69.5451
 21
21.7553
  0
LINE
  8
0
 10
69.5451
 20
21.7553
 11
68.9369
 21
21.9114
  0
LINE
  8
0
 10
68.9369
 20
21.9114
 11
68.3139
 21
21.9901
  0
LINE
  8
0
 10
68.3139
 20
21.9901
 11
51.686
 21
21.9901
  0
LINE
  8
0
 10
51.686
 20
21.9901
 11
51.0631
 21
21.9114
  0
LINE
  8
0
 10
51.0631
 20
21.9114
 11
50.4549
 21
21.7553
  0
LINE
  8
0
 10
50.4549
 20
21.7553
 11
49.8711
 21
21.5241
  0
LINE
  8
0
 10
49.8711
 20
21.5241
 11
49.3209
 21
21.2216
  0
LINE
  8
0
 10
49.3209
 20
21.2216
 11
48.8129
 21
20.8526
  0
LINE
  8
0
 10
48.8129
 20
20.8526
 11
48.3551
 21
20.4227
  0
LINE
  8
0
 10
48.3551
 20
20.4227
 11
47.9549
 21
19.9389
  0
LINE
  8
0
 10
47.9549
 20
19.9389
 11
47.6185
 21
19.4088
  0
LINE
  8
0
 10
47.6185
 20
19.4088
 11
47.3511
 21
18.8406
  0
LINE
  8
0
 10
47.3511
 20
18.8406
 11
47.1571
 21
18.2434
  0
LINE
  8
0
 10
47.1571
 20
18.2434
 11
47.0394
 21
17.6267
  0
LINE
  8
0
 10
47.0394
 20
17.6267
 11
47.0136
 21
17.2164
  0
LINE
  8
0
 10
47.0136
 20
17.2164
 11
47.1869
 21
17.0536
  0
LINE
  8
0
 10
47.1869
 20
17.0536
 11
47.427
 21
16.7634
  0
LINE
  8
0
 10
47.427
 20
16.7634
 11
47.6289
 21
16.4453
  0
LINE
  8
0
 10
47.6289
 20
16.4453
 11
47.7893
 21
16.1044
  0
LINE
  8
0
 10
47.7893
 20
16.1044
 11
47.9057
 21
15.7461
  0
LINE
  8
0
 10
47.9057
 20
15.7461
 11
47.9763
 21
15.376
  0
LINE
  8
0
 10
47.9763
 20
15.376
 11
48
 21
15
  0
LINE
  8
0
 10
48
 20
15
 11
47.9763
 21
14.624
  0
LINE
  8
0
 10
47.9763
 20
14.624
 11
47.9057
 21
14.2539
  0
LINE
  8
0
 10
47.9057
 20
14.2539
 11
47.7893
 21
13.8956
  0
LINE
  8
0
 10
47.7893
 20
13.8956
 11
47.6289
 21
13.5547
  0
LINE
  8
0
 10
47.6289
 20
13.5547
 11
47.427
 21
13.2366
  0
LINE
  8
0
 10
47.427
 20
13.2366
 11
47.1869
 21
12.9464
  0
LINE
  8
0
 10
47.1869
 20
12.9464
 11
47
 21
12.7708
  0
LINE
  8
0
 10
47
 20
12.7708
 11
47
 21
11.6858
  0
LINE
  8
0
 10
47
 20
11.6858
 11
45.8422
 21
10.2862
  0
LINE
  8
0
 10
45.8422
 20
10.2862
 11
44.6646
 21
8.43068
  0
LINE
  8
0
 10
44.6646
 20
8.43068
 11
43.7289
 21
6.44217
  0
LINE
  8
0
 10
43.7289
 20
6.44217
 11
43.0498
 21
4.35207
  0
LINE
  8
0
 10
43.0498
 20
4.35207
 11
42.638
 21
2.19333
  0
LINE
  8
0
 10
42.638
 20
2.19333
 11
42.5
 21
0
  0
LINE
  8
0
 10
42.5
 20
0
 11
42.638
 21
-2.19333
  0
LINE
  8
0
 10
42.638
 20
-2.19333
 11
43.0498
 21
-4.35207
  0
LINE
  8
0
 10
43.0498
 20
-4.35207
 11
43.7289
 21
-6.44217
  0
LINE
  8
0
 10
43.7289
 20
-6.44217
 11
44.6646
 21
-8.43068
  0
LINE
  8
0
 10
44.6646
 20
-8.43068
 11
45.8422
 21
-10.2862
  0
LINE
  8
0
 10
45.8422
 20
-10.2862
 11
47
 21
-11.6858
  0
LINE
  8
0
 10
47
 20
-11.6858
 11
47
 21
-12.7708
  0
LINE
  8
0
 10
47
 20
-12.7708
 11
47.1869
 21
-12.9464
  0
LINE
  8
0
 10
47.1869
 20
-12.9464
 11
47.427
 21
-13.2366
  0
LINE
  8
0
 10
47.427
 20
-13.2366
 11
47.6289
 21
-13.5547
  0
LINE
  8
0
 10
47.6289
 20
-13.5547
 11
47.7893
 21
-13.8956
  0
LINE
  8
0
 10
47.7893
 20
-13.8956
 11
47.9057
 21
-14.2539
  0
LINE
  8
0
 10
47.9057
 20
-14.2539
 11
47.9763
 21
-14.624
  0
LINE
  8
0
 10
47.9763
 20
-14.624
 11
48
 21
-15
  0
LINE
  8
0
 10
48
 20
-15
 11
47.9763
 21
-15.376
  0
LINE
  8
0
 10
47.9763
 20
-15.376
 11
47.9057
 21
-15.7461
  0
LINE
  8
0
 10
47.9057
 20
-15.7461
 11
47.7893
 21
-16.1044
  0
LINE
  8
0
 10
47.7893
 20
-16.1044
 11
47.6289
 21
-16.4453
  0
LINE
  8
0
 10
47.6289
 20
-16.4453
 11
47.427
 21
-16.7634
  0
LINE
  8
0
 10
47.427
 20
-16.7634
 11
47.1869
 21
-17.0536
  0
LINE
  8
0
 10
47.1869
 20
-17.0536
 11
47.0136
 21
-17.2164
  0
LINE
  8
0
 10
47.0136
 20
-17.2164
 11
47.0394
 21
-17.6267
  0
LINE
  8
0
 10
47.0394
 20
-17.6267
 11
47.1571
 21
-18.2434
  0
LINE
  8
0
 10
47.1571
 20
-18.2434
 11
47.3511
 21
-18.8406
  0
LINE
  8
0
 10
47.3511
 20
-18.8406
 11
47.6185
 21
-19.4088
  0
LINE
  8
0
 10
47.6185
 20
-19.4088
 11
47.9549
 21
-19.9389
  0
LINE
  8
0
 10
47.9549
 20
-19.9389
 11
48.3551
 21
-20.4227
  0
LINE
  8
0
 10
48.3551
 20
-20.4227
 11
48.8129
 21
-20.8526
  0
LINE
  8
0
 10
48.8129
 20
-20.8526
 11
49.3209
 21
-21.2216
  0
LINE
  8
0
 10
49.3209
 20
-21.2216
 11
49.8711
 21
-21.5241
  0
LINE
  8
0
 10
49.8711
 20
-21.5241
 11
50.4549
 21
-21.7553
  0
LINE
  8
0
 10
50.4549
 20
-21.7553
 11
51.0631
 21
-21.9114
  0
LINE
  8
0
 10
51.0631
 20
-21.9114
 11
51.686
 21
-21.9901
  0
LINE
  8
0
 10
51.686
 20
-21.9901
 11
68.3139
 21
-21.9901
  0
LINE
  8
0
 10
68.3139
 20
-21.9901
 11
68.9369
 21
-21.9114
  0
LINE
  8
0
 10
51.887
 20
16.2036
 11
51.6627
 21
16.2319
  0
LINE
  8
0
 10
51.6627
 20
16.2319
 11
51.4438
 21
16.2881
  0
LINE
  8
0
 10
51.4438
 20
16.2881
 11
51.2336
 21
16.3713
  0
LINE
  8
0
 10
51.2336
 20
16.3713
 11
51.0355
 21
16.4802
  0
LINE
  8
0
 10
51.0355
 20
16.4802
 11
50.8526
 21
16.6131
  0
LINE
  8
0
 10
50.8526
 20
16.6131
 11
50.6879
 21
16.7678
  0
LINE
  8
0
 10
50.6879
 20
16.7678
 11
50.5438
 21
16.942
  0
LINE
  8
0
 10
50.5438
 20
16.942
 11
50.4226
 21
17.1328
  0
LINE
  8
0
 10
50.4226
 20
17.1328
 11
50.3264
 21
17.3374
  0
LINE
  8
0
 10
50.3264
 20
17.3374
 11
50.2565
 21
17.5524
  0
LINE
  8
0
 10
50.2565
 20
17.5524
 11
50.2142
 21
17.7744
  0
LINE
  8
0
 10
50.2142
 20
17.7744
 11
50.2
 21
18
  0
LINE
  8
0
 10
50.2
 20
18
 11
50.2142
 21
18.2256
  0
LINE
  8
0
 10
50.2142
 20
18.2256
 11
50.2565
 21
18.4476
  0
LINE
  8
0
 10
50.2565
 20
18.4476
 11
50.3264
 21
18.6626
  0
LINE
  8
0
 10
50.3264
 20
18.6626
 11
50.4226
 21
18.8672
  0
LINE
  8
0
 10
50.4226
 20
18.8672
 11
50.5438
 21
19.058
  0
LINE
  8
0
 10
50.5438
 20
19.058
 11
50.6879
 21
19.2322
  0
LINE
  8
0
 10
50.6879
 20
19.2322
 11
50.8526
 21
19.3869
  0
LINE
  8
0
 10
50.8526
 20
19.3869
 11
51.0355
 21
19.5198
  0
LINE
  8
0
 10
51.0355
 20
19.5198
 11
51.2336
 21
19.6287
  0
LINE
  8
0
 10
51.2336
 20
19.6287
 11
51.4438
 21
19.7119
  0
LINE
  8
0
 10
51.4438
 20
19.7119
 11
51.6627
 21
19.7681
  0
LINE
  8
0
 10
51.6627
 20
19.7681
 11
51.887
 21
19.7964
  0
LINE
  8
0
 10
51.887
 20
19.7964
 11
52.113
 21
19.7964
  0
LINE
  8
0
 10
52.113
 20
19.7964
 11
52.3373
 21
19.7681
  0
LINE
  8
0
 10
52.3373
 20
19.7681
 11
52.5562
 21
19.7119
  0
LINE
  8
0
 10
52.5562
 20
19.7119
 11
52.7664
 21
19.6287
  0
LINE
  8
0
 10
52.7664
 20
19.6287
 11
52.9645
 21
19.5198
  0
LINE
  8
0
 10
52.9645
 20
19.5198
 11
53.1474
 21
19.3869
  0
LINE
  8
0
 10
53.1474
 20
19.3869
 11
53.3121
 21
19.2322
  0
LINE
  8
0
 10
53.3121
 20
19.2322
 11
53.4562
 21
19.058
  0
LINE
  8
0
 10
53.4562
 20
19.058
 11
53.5773
 21
18.8672
  0
LINE
  8
0
 10
53.5773
 20
18.8672
 11
53.6736
 21
18.6626
  0
LINE
  8
0
 10
53.6736
 20
18.6626
 11
53.7434
 21
18.4476
  0
LINE
  8
0
 10
53.7434
 20
18.4476
 11
53.7858
 21
18.2256
  0
LINE
  8
0
 10
53.7858
 20
18.2256
 11
53.8
 21
18
  0
LINE
  8
0
 10
53.8
 20
18
 11
53.7858
 21
17.7744
  0
LINE
  8
0
 10
53.7858
 20
17.7744
 11
53.7434
 21
17.5524
  0
LINE
  8
0
 10
53.7434
 20
17.5524
 11
53.6736
 21
17.3374
  0
LINE
  8
0
 10
53.6736
 20
17.3374
 11
53.5773
 21
17.1328
  0
LINE
  8
0
 10
53.5773
 20
17.1328
 11
53.4562
 21
16.942
  0
LINE
  8
0
 10
53.4562
 20
16.942
 11
53.3121
 21
16.7678
  0
LINE
  8
0
 10
53.3121
 20
16.7678
 11
53.1474
 21
16.6131
  0
LINE
  8
0
 10
53.1474
 20
16.6131
 11
52.9645
 21
16.4802
  0
LINE
  8
0
 10
52.9645
 20
16.4802
 11
52.7664
 21
16.3713
  0
LINE
  8
0
 10
52.7664
 20
16.3713
 11
52.5562
 21
16.2881
  0
LINE
  8
0
 10
52.5562
 20
16.2881
 11
52.3373
 21
16.2319
  0
LINE
  8
0
 10
52.3373
 20
16.2319
 11
52.113
 21
16.2036
  0
LINE
  8
0
 10
52.113
 20
16.2036
 11
51.887
 21
16.2036
  0
LINE
  8
0
 10
67.887
 20
16.2036
 11
67.6627
 21
16.2319
  0
LINE
  8
0
 10
67.6627
 20
16.2319
 11
67.4438
 21
16.2881
  0
LINE
  8
0
 10
67.4438
 20
16.2881
 11
67.2336
 21
16.3713
  0
LINE
  8
0
 10
67.2336
 20
16.3713
 11
67.0355
 21
16.4802
  0
LINE
  8
0
 10
67.0355
 20
16.4802
 11
66.8526
 21
16.6131
  0
LINE
  8
0
 10
66.8526
 20
16.6131
 11
66.6879
 21
16.7678
  0
LINE
  8
0
 10
66.6879
 20
16.7678
 11
66.5438
 21
16.942
  0
LINE
  8
0
 10
66.5438
 20
16.942
 11
66.4226
 21
17.1328
  0
LINE
  8
0
 10
66.4226
 20
17.1328
 11
66.3264
 21
17.3374
  0
LINE
  8
0
 10
66.3264
 20
17.3374
 11
66.2565
 21
17.5524
  0
LINE
  8
0
 10
66.2565
 20
17.5524
 11
66.2142
 21
17.7744
  0
LINE
  8
0
 10
66.2142
 20
17.7744
 11
66.2
 21
18
  0
LINE
  8
0
 10
66.2
 20
18
 11
66.2142
 21
18.2256
  0
LINE
  8
0
 10
66.2142
 20
18.2256
 11
66.2565
 21
18.4476
  0
LINE
  8
0
 10
66.2565
 20
18.4476
 11
66.3264
 21
18.6626
  0
LINE
  8
0
 10
66.3264
 20
18.6626
 11
66.4226
 21
18.8672
  0
LINE
  8
0
 10
66.4226
 20
18.8672
 11
66.5438
 21
19.058
  0
LINE
  8
0
 10
66.5438
 20
19.058
 11
66.6879
 21
19.2322
  0
LINE
  8
0
 10
66.6879
 20
19.2322
 11
66.8526
 21
19.3869
  0
LINE
  8
0
 10
66.8526
 20
19.3869
 11
67.0355
 21
19.5198
  0
LINE
  8
0
 10
67.0355
 20
19.5198
 11
67.2336
 21
19.6287
  0
LINE
  8
0
 10
67.2336
 20
19.6287
 11
67.4438
 21
19.7119
  0
LINE
  8
0
 10
67.4438
 20
19.7119
 11
67.6627
 21
19.7681
  0
LINE
  8
0
 10
67.6627
 20
19.7681
 11
67.887
 21
19.7964
  0
LINE
  8
0
 10
67.887
 20
19.7964
 11
68.113
 21
19.7964
  0
LINE
  8
0
 10
68.113
 20
19.7964
 11
68.3373
 21
19.7681
  0
LINE
  8
0
 10
68.3373
 20
19.7681
 11
68.5562
 21
19.7119
  0
LINE
  8
0
 10
68.5562
 20
19.7119
 11
68.7664
 21
19.6287
  0
LINE
  8
0
 10
68.7664
 20
19.6287
 11
68.9645
 21
19.5198
  0
LINE
  8
0
 10
68.9645
 20
19.5198
 11
69.1474
 21
19.3869
  0
LINE
  8
0
 10
69.1474
 20
19.3869
 11
69.3121
 21
19.2322
  0
LINE
  8
0
 10
69.3121
 20
19.2322
 11
69.4562
 21
19.058
  0
LINE
  8
0
 10
69.4562
 20
19.058
 11
69.5773
 21
18.8672
  0
LINE
  8
0
 10
69.5773
 20
18.8672
 11
69.6736
 21
18.6626
  0
LINE
  8
0
 10
69.6736
 20
18.6626
 11
69.7434
 21
18.4476
  0
LINE
  8
0
 10
69.7434
 20
18.4476
 11
69.7858
 21
18.2256
  0
LINE
  8
0
 10
69.7858
 20
18.2256
 11
69.8
 21
18
  0
LINE
  8
0
 10
69.8
 20
18
 11
69.7858
 21
17.7744
  0
LINE
  8
0
 10
69.7858
 20
17.7744
 11
69.7434
 21
17.5524
  0
LINE
  8
0
 10
69.7434
 20
17.5524
 11
69.6736
 21
17.3374
  0
LINE
  8
0
 10
69.6736
 20
17.3374
 11
69.5773
 21
17.1328
  0
LINE
  8
0
 10
69.5773
 20
17.1328
 11
69.4562
 21
16.942
  0
LINE
  8
0
 10
69.4562
 20
16.942
 11
69.3121
 21
16.7678
  0
LINE
  8
0
 10
69.3121
 20
16.7678
 11
69.1474
 21
16.6131
  0
LINE
  8
0
 10
69.1474
 20
16.6131
 11
68.9645
 21
16.4802
  0
LINE
  8
0
 10
68.9645
 20
16.4802
 11
68.7664
 21
16.3713
  0
LINE
  8
0
 10
68.7664
 20
16.3713
 11
68.5562
 21
16.2881
  0
LINE
  8
0
 10
68.5562
 20
16.2881
 11
68.3373
 21
16.2319
  0
LINE
  8
0
 10
68.3373
 20
16.2319
 11
68.113
 21
16.2036
  0
LINE
  8
0
 10
68.113
 20
16.2036
 11
67.887
 21
16.2036
  0
LINE
  8
0
 10
58.9953
 20
-15.9684
 11
57.0019
 21
-15.7166
  0
LINE
  8
0
 10
57.0019
 20
-15.7166
 11
55.0557
 21
-15.2169
  0
LINE
  8
0
 10
55.0557
 20
-15.2169
 11
53.1875
 21
-14.4772
  0
LINE
  8
0
 10
53.1875
 20
-14.4772
 11
51.4268
 21
-13.5092
  0
LINE
  8
0
 10
51.4268
 20
-13.5092
 11
49.8012
 21
-12.3282
  0
LINE
  8
0
 10
49.8012
 20
-12.3282
 11
48.3365
 21
-10.9527
  0
LINE
  8
0
 10
48.3365
 20
-10.9527
 11
47.0557
 21
-9.40456
  0
LINE
  8
0
 10
47.0557
 20
-9.40456
 11
45.9791
 21
-7.70805
  0
LINE
  8
0
 10
45.9791
 20
-7.70805
 11
45.1236
 21
-5.88998
  0
LINE
  8
0
 10
45.1236
 20
-5.88998
 11
44.5027
 21
-3.97903
  0
LINE
  8
0
 10
44.5027
 20
-3.97903
 11
44.1262
 21
-2.00533
  0
LINE
  8
0
 10
44.1262
 20
-2.00533
 11
44
 21
0
  0
LINE
  8
0
 10
44
 20
0
 11
44.1262
 21
2.00533
  0
LINE
  8
0
 10
44.1262
 20
2.00533
 11
44.5027
 21
3.97903
  0
LINE
  8
0
 10
44.5027
 20
3.97903
 11
45.1236
 21
5.88998
  0
LINE
  8
0
 10
45.1236
 20
5.88998
 11
45.9791
 21
7.70805
  0
LINE
  8
0
 10
45.9791
 20
7.70805
 11
47.0557
 21
9.40456
  0
LINE
  8
0
 10
47.0557
 20
9.40456
 11
48.3365
 21
10.9527
  0
LINE
  8
0
 10
48.3365
 20
10.9527
 11
49.8012
 21
12.3282
  0
LINE
  8
0
 10
49.8012
 20
12.3282
 11
51.4268
 21
13.5092
  0
LINE
  8
0
 10
51.4268
 20
13.5092
 11
53.1875
 21
14.4772
  0
LINE
  8
0
 10
53.1875
 20
14.4772
 11
55.0557
 21
15.2169
  0
LINE
  8
0
 10
55.0557
 20
15.2169
 11
57.0019
 21
15.7166
  0
LINE
  8
0
 10
57.0019
 20
15.7166
 11
58.9953
 21
15.9684
  0
LINE
  8
0
 10
58.9953
 20
15.9684
 11
61.0046
 21
15.9684
  0
LINE
  8
0
 10
61.0046
 20
15.9684
 11
62.9981
 21
15.7166
  0
LINE
  8
0
 10
62.9981
 20
15.7166
 11
64.9443
 21
15.2169
  0
LINE
  8
0
 10
64.9443
 20
15.2169
 11
66.8125
 21
14.4772
  0
LINE
  8
0
 10
66.8125
 20
14.4772
 11
68.5732
 21
13.5092
  0
LINE
  8
0
 10
68.5732
 20
13.5092
 11
70.1988
 21
12.3282
  0
LINE
  8
0
 10
70.1988
 20
12.3282
 11
71.6635
 21
10.9527
  0
LINE
  8
0
 10
71.6635
 20
10.9527
 11
72.9443
 21
9.40456
  0
LINE
  8
0
 10
72.9443
 20
9.40456
 11
74.0209
 21
7.70805
  0
LINE
  8
0
 10
74.0209
 20
7.70805
 11
74.8764
 21
5.88998
  0
LINE
  8
0
 10
74.8764
 20
5.88998
 11
75.4973
 21
3.97903
  0
LINE
  8
0
 10
75.4973
 20
3.97903
 11
75.8738
 21
2.00533
  0
LINE
  8
0
 10
75.8738
 20
2.00533
 11
76
 21
0
  0
LINE
  8
0
 10
76
 20
0
 11
75.8738
 21
-2.00533
  0
LINE
  8
0
 10
75.8738
 20
-2.00533
 11
75.4973
 21
-3.97903
  0
LINE
  8
0
 10
75.4973
 20
-3.97903
 11
74.8764
 21
-5.88998
  0
LINE
  8
0
 10
74.8764
 20
-5.88998
 11
74.0209
 21
-7.70805
  0
LINE
  8
0
 10
74.0209
 20
-7.70805
 11
72.9443
 21
-9.40456
  0
LINE
  8
0
 10
72.9443
 20
-9.40456
 11
71.6635
 21
-10.9527
  0
LINE
  8
0
 10
71.6635
 20
-10.9527
 11
70.1988
 21
-12.3282
  0
LINE
  8
0
 10
70.1988
 20
-12.3282
 11
68.5732
 21
-13.5092
  0
LINE
  8
0
 10
68.5732
 20
-13.5092
 11
66.8125
 21
-14.4772
  0
LINE
  8
0
 10
66.8125
 20
-14.4772
 11
64.9443
 21
-15.2169
  0
LINE
  8
0
 10
64.9443
 20
-15.2169
 11
62.9981
 21
-15.7166
  0
LINE
  8
0
 10
62.9981
 20
-15.7166
 11
61.0046
 21
-15.9684
  0
LINE
  8
0
 10
61.0046
 20
-15.9684
 11
58.9953
 21
-15.9684
  0
LINE
  8
0
 10
62.3423
 20
-12.2786
 11
63.8627
 21
-11.8882
  0
LINE
  8
0
 10
63.8627
 20
-11.8882
 11
65.3222
 21
-11.3103
  0
LINE
  8
0
 10
65.3222
 20
-11.3103
 11
66.6978
 21
-10.5541
  0
LINE
  8
0
 10
66.6978
 20
-10.5541
 11
67.9678
 21
-9.63141
  0
LINE
  8
0
 10
67.9678
 20
-9.63141
 11
69.1121
 21
-8.55682
  0
LINE
  8
0
 10
69.1121
 20
-8.55682
 11
70.1127
 21
-7.34731
  0
LINE
  8
0
 10
70.1127
 20
-7.34731
 11
70.9538
 21
-6.02191
  0
LINE
  8
0
 10
70.9538
 20
-6.02191
 11
71.6222
 21
-4.60155
  0
LINE
  8
0
 10
71.6222
 20
-4.60155
 11
72.1073
 21
-3.10861
  0
LINE
  8
0
 10
72.1073
 20
-3.10861
 11
72.4014
 21
-1.56665
  0
LINE
  8
0
 10
72.4014
 20
-1.56665
 11
72.5
 21
0
  0
LINE
  8
0
 10
72.5
 20
0
 11
72.4014
 21
1.56665
  0
LINE
  8
0
 10
72.4014
 20
1.56665
 11
72.1073
 21
3.10861
  0
LINE
  8
0
 10
72.1073
 20
3.10861
 11
71.6222
 21
4.60155
  0
LINE
  8
0
 10
71.6222
 20
4.60155
 11
70.9538
 21
6.02191
  0
LINE
  8
0
 10
70.9538
 20
6.02191
 11
70.1127
 21
7.34731
  0
LINE
  8
0
 10
70.1127
 20
7.34731
 11
69.1121
 21
8.55682
  0
LINE
  8
0
 10
69.1121
 20
8.55682
 11
67.9678
 21
9.63141
  0
LINE
  8
0
 10
67.9678
 20
9.63141
 11
66.6978
 21
10.5541
  0
LINE
  8
0
 10
66.6978
 20
10.5541
 11
65.3222
 21
11.3103
  0
LINE
  8
0
 10
65.3222
 20
11.3103
 11
63.8627
 21
11.8882
  0
LINE
  8
0
 10
63.8627
 20
11.8882
 11
62.3423
 21
12.2786
  0
LINE
  8
0
 10
62.3423
 20
12.2786
 11
60.7849
 21
12.4753
  0
LINE
  8
0
 10
60.7849
 20
12.4753
 11
59.2151
 21
12.4753
  0
LINE
  8
0
 10
59.2151
 20
12.4753
 11
57.6577
 21
12.2786
  0
LINE
  8
0
 10
57.6577
 20
12.2786
 11
56.1373
 21
11.8882
  0
LINE
  8
0
 10
56.1373
 20
11.8882
 11
54.6777
 21
11.3103
  0
LINE
  8
0
 10
54.6777
 20
11.3103
 11
53.3022
 21
10.5541
  0
LINE
  8
0
 10
53.3022
 20
10.5541
 11
52.0322
 21
9.63141
  0
LINE
  8
0
 10
52.0322
 20
9.63141
 11
50.8879
 21
8.55682
  0
LINE
  8
0
 10
50.8879
 20
8.55682
 11
49.8873
 21
7.34731
  0
LINE
  8
0
 10
49.8873
 20
7.34731
 11
49.0462
 21
6.02191
  0
LINE
  8
0
 10
49.0462
 20
6.02191
 11
48.3778
 21
4.60155
  0
LINE
  8
0
 10
48.3778
 20
4.60155
 11
47.8927
 21
3.10861
  0
LINE
  8
0
 10
47.8927
 20
3.10861
 11
47.5986
 21
1.56665
  0
LINE
  8
0
 10
47.5986
 20
1.56665
 11
47.5
 21
0
  0
LINE
  8
0
 10
47.5
 20
0
 11
47.5986
 21
-1.56665
  0
LINE
  8
0
 10
47.5986
 20
-1.56665
 11
47.8927
 21
-3.10861
  0
LINE
  8
0
 10
47.8927
 20
-3.10861
 11
48.3778
 21
-4.60155
  0
LINE
  8
0
 10
48.3778
 20
-4.60155
 11
49.0462
 21
-6.02191
  0
LINE
  8
0
 10
49.0462
 20
-6.02191
 11
49.8873
 21
-7.34731
  0
LINE
  8
0
 10
49.8873
 20
-7.34731
 11
50.8879
 21
-8.55682
  0
LINE
  8
0
 10
50.8879
 20
-8.55682
 11
52.0322
 21
-9.63141
  0
LINE
  8
0
 10
52.0322
 20
-9.63141
 11
53.3022
 21
-10.5541
  0
LINE
  8
0
 10
53.3022
 20
-10.5541
 11
54.6777
 21
-11.3103
  0
LINE
  8
0
 10
54.6777
 20
-11.3103
 11
56.1373
 21
-11.8882
  0
LINE
  8
0
 10
56.1373
 20
-11.8882
 11
57.6577
 21
-12.2786
  0
LINE
  8
0
 10
57.6577
 20
-12.2786
 11
59.2151
 21
-12.4753
  0
LINE
  8
0
 10
59.2151
 20
-12.4753
 11
60.7849
 21
-12.4753
  0
LINE
  8
0
 10
60.7849
 20
-12.4753
 11
62.3423
 21
-12.2786
  0
LINE
  8
0
 10
59.9058
 20
6.00294
 11
59.7189
 21
6.02657
  0
LINE
  8
0
 10
59.7189
 20
6.02657
 11
59.5365
 21
6.07341
  0
LINE
  8
0
 10
59.5365
 20
6.07341
 11
59.3613
 21
6.14275
  0
LINE
  8
0
 10
59.3613
 20
6.14275
 11
59.1963
 21
6.23351
  0
LINE
  8
0
 10
59.1963
 20
6.23351
 11
59.0439
 21
6.34422
  0
LINE
  8
0
 10
59.0439
 20
6.34422
 11
58.9065
 21
6.47318
  0
LINE
  8
0
 10
58.9065
 20
6.47318
 11
58.7865
 21
6.61832
  0
LINE
  8
0
 10
58.7865
 20
6.61832
 11
58.6855
 21
6.77736
  0
LINE
  8
0
 10
58.6855
 20
6.77736
 11
58.6053
 21
6.9478
  0
LINE
  8
0
 10
58.6053
 20
6.9478
 11
58.5471
 21
7.12695
  0
LINE
  8
0
 10
58.5471
 20
7.12695
 11
58.5118
 21
7.312
  0
LINE
  8
0
 10
58.5118
 20
7.312
 11
58.5
 21
7.5
  0
LINE
  8
0
 10
58.5
 20
7.5
 11
58.5118
 21
7.68799
  0
LINE
  8
0
 10
58.5118
 20
7.68799
 11
58.5471
 21
7.87303
  0
LINE
  8
0
 10
58.5471
 20
7.87303
 11
58.6053
 21
8.05219
  0
LINE
  8
0
 10
58.6053
 20
8.05219
 11
58.6855
 21
8.22263
  0
LINE
  8
0
 10
58.6855
 20
8.22263
 11
58.7865
 21
8.38167
  0
LINE
  8
0
 10
58.7865
 20
8.38167
 11
58.9065
 21
8.52681
  0
LINE
  8
0
 10
58.9065
 20
8.52681
 11
59.0439
 21
8.65576
  0
LINE
  8
0
 10
59.0439
 20
8.65576
 11
59.1963
 21
8.76648
  0
LINE
  8
0
 10
59.1963
 20
8.76648
 11
59.3613
 21
8.85724
  0
LINE
  8
0
 10
59.3613
 20
8.85724
 11
59.5365
 21
8.92657
  0
LINE
  8
0
 10
59.5365
 20
8.92657
 11
59.7189
 21
8.97342
  0
LINE
  8
0
 10
59.7189
 20
8.97342
 11
59.9058
 21
8.99704
  0
LINE
  8
0
 10
59.9058
 20
8.99704
 11
60.0942
 21
8.99704
  0
LINE
  8
0
 10
60.0942
 20
8.99704
 11
60.2811
 21
8.97342
  0
LINE
  8
0
 10
60.2811
 20
8.97342
 11
60.4635
 21
8.92657
  0
LINE
  8
0
 10
60.4635
 20
8.92657
 11
60.6387
 21
8.85724
  0
LINE
  8
0
 10
60.6387
 20
8.85724
 11
60.8037
 21
8.76648
  0
LINE
  8
0
 10
60.8037
 20
8.76648
 11
60.9561
 21
8.65576
  0
LINE
  8
0
 10
60.9561
 20
8.65576
 11
61.0934
 21
8.52681
  0
LINE
  8
0
 10
61.0934
 20
8.52681
 11
61.2135
 21
8.38167
  0
LINE
  8
0
 10
61.2135
 20
8.38167
 11
61.3145
 21
8.22263
  0
LINE
  8
0
 10
61.3145
 20
8.22263
 11
61.3947
 21
8.05219
  0
LINE
  8
0
 10
61.3947
 20
8.05219
 11
61.4529
 21
7.87303
  0
LINE
  8
0
 10
61.4529
 20
7.87303
 11
61.4882
 21
7.68799
  0
LINE
  8
0
 10
61.4882
 20
7.68799
 11
61.5
 21
7.5
  0
LINE
  8
0
 10
61.5
 20
7.5
 11
61.4882
 21
7.312
  0
LINE
  8
0
 10
61.4882
 20
7.312
 11
61.4529
 21
7.12695
  0
LINE
  8
0
 10
61.4529
 20
7.12695
 11
61.3947
 21
6.9478
  0
LINE
  8
0
 10
61.3947
 20
6.9478
 11
61.3145
 21
6.77736
  0
LINE
  8
0
 10
61.3145
 20
6.77736
 11
61.2135
 21
6.61832
  0
LINE
  8
0
 10
61.2135
 20
6.61832
 11
61.0934
 21
6.47318
  0
LINE
  8
0
 10
61.0934
 20
6.47318
 11
60.9561
 21
6.34422
  0
LINE
  8
0
 10
60.9561
 20
6.34422
 11
60.8037
 21
6.23351
  0
LINE
  8
0
 10
60.8037
 20
6.23351
 11
60.6387
 21
6.14275
  0
LINE
  8
0
 10
60.6387
 20
6.14275
 11
60.4635
 21
6.07341
  0
LINE
  8
0
 10
60.4635
 20
6.07341
 11
60.2811
 21
6.02657
  0
LINE
  8
0
 10
60.2811
 20
6.02657
 11
60.0942
 21
6.00294
  0
LINE
  8
0
 10
60.0942
 20
6.00294
 11
59.9058
 21
6.00294
  0
LINE
  8
0
 10
54.584
 20
3.50655
 11
54.3597
 21
3.53488
  0
LINE
  8
0
 10
54.3597
 20
3.53488
 11
54.1408
 21
3.59109
  0
LINE
  8
0
 10
54.1408
 20
3.59109
 11
53.9306
 21
3.6743
  0
LINE
  8
0
 10
53.9306
 20
3.6743
 11
53.7325
 21
3.7832
  0
LINE
  8
0
 10
53.7325
 20
3.7832
 11
53.5496
 21
3.91606
  0
LINE
  8
0
 10
53.5496
 20
3.91606
 11
53.3849
 21
4.0708
  0
LINE
  8
0
 10
53.3849
 20
4.0708
 11
53.2408
 21
4.24498
  0
LINE
  8
0
 10
53.2408
 20
4.24498
 11
53.1196
 21
4.43584
  0
LINE
  8
0
 10
53.1196
 20
4.43584
 11
53.0234
 21
4.64037
  0
LINE
  8
0
 10
53.0234
 20
4.64037
 11
52.9536
 21
4.85535
  0
LINE
  8
0
 10
52.9536
 20
4.85535
 11
52.9112
 21
5.07739
  0
LINE
  8
0
 10
52.9112
 20
5.07739
 11
52.897
 21
5.30299
  0
LINE
  8
0
 10
52.897
 20
5.30299
 11
52.9112
 21
5.52859
  0
LINE
  8
0
 10
52.9112
 20
5.52859
 11
52.9536
 21
5.75064
  0
LINE
  8
0
 10
52.9536
 20
5.75064
 11
53.0234
 21
5.96562
  0
LINE
  8
0
 10
53.0234
 20
5.96562
 11
53.1196
 21
6.17015
  0
LINE
  8
0
 10
53.1196
 20
6.17015
 11
53.2408
 21
6.36101
  0
LINE
  8
0
 10
53.2408
 20
6.36101
 11
53.3849
 21
6.53517
  0
LINE
  8
0
 10
53.3849
 20
6.53517
 11
53.5496
 21
6.68991
  0
LINE
  8
0
 10
53.5496
 20
6.68991
 11
53.7325
 21
6.82278
  0
LINE
  8
0
 10
53.7325
 20
6.82278
 11
53.9306
 21
6.93169
  0
LINE
  8
0
 10
53.9306
 20
6.93169
 11
54.1408
 21
7.01489
  0
LINE
  8
0
 10
54.1408
 20
7.01489
 11
54.3597
 21
7.07111
  0
LINE
  8
0
 10
54.3597
 20
7.07111
 11
54.584
 21
7.09944
  0
LINE
  8
0
 10
54.584
 20
7.09944
 11
54.81
 21
7.09944
  0
LINE
  8
0
 10
54.81
 20
7.09944
 11
55.0343
 21
7.07111
  0
LINE
  8
0
 10
55.0343
 20
7.07111
 11
55.2532
 21
7.01489
  0
LINE
  8
0
 10
55.2532
 20
7.01489
 11
55.4634
 21
6.93169
  0
LINE
  8
0
 10
55.4634
 20
6.93169
 11
55.6615
 21
6.82278
  0
LINE
  8
0
 10
55.6615
 20
6.82278
 11
55.8444
 21
6.68991
  0
LINE
  8
0
 10
55.8444
 20
6.68991
 11
56.0091
 21
6.53517
  0
LINE
  8
0
 10
56.0091
 20
6.53517
 11
56.1532
 21
6.36101
  0
LINE
  8
0
 10
56.1532
 20
6.36101
 11
56.2744
 21
6.17015
  0
LINE
  8
0
 10
56.2744
 20
6.17015
 11
56.3706
 21
5.96562
  0
LINE
  8
0
 10
56.3706
 20
5.96562
 11
56.4404
 21
5.75064
  0
LINE
  8
0
 10
56.4404
 20
5.75064
 11
56.4828
 21
5.52859
  0
LINE
  8
0
 10
56.4828
 20
5.52859
 11
56.497
 21
5.30299
  0
LINE
  8
0
 10
56.497
 20
5.30299
 11
56.4828
 21
5.07739
  0
LINE
  8
0
 10
56.4828
 20
5.07739
 11
56.4404
 21
4.85535
  0
LINE
  8
0
 10
56.4404
 20
4.85535
 11
56.3706
 21
4.64037
  0
LINE
  8
0
 10
56.3706
 20
4.64037
 11
56.2744
 21
4.43584
  0
LINE
  8
0
 10
56.2744
 20
4.43584
 11
56.1532
 21
4.24498
  0
LINE
  8
0
 10
56.1532
 20
4.24498
 11
56.0091
 21
4.0708
  0
LINE
  8
0
 10
56.0091
 20
4.0708
 11
55.8444
 21
3.91606
  0
LINE
  8
0
 10
55.8444
 20
3.91606
 11
55.6615
 21
3.7832
  0
LINE
  8
0
 10
55.6615
 20
3.7832
 11
55.4634
 21
3.6743
  0
LINE
  8
0
 10
55.4634
 20
3.6743
 11
55.2532
 21
3.59109
  0
LINE
  8
0
 10
55.2532
 20
3.59109
 11
55.0343
 21
3.53488
  0
LINE
  8
0
 10
55.0343
 20
3.53488
 11
54.81
 21
3.50655
  0
LINE
  8
0
 10
54.81
 20
3.50655
 11
54.584
 21
3.50655
  0
LINE
  8
0
 10
59.8116
 20
-2.99408
 11
59.4379
 21
-2.94685
  0
LINE
  8
0
 10
59.4379
 20
-2.94685
 11
59.0729
 21
-2.85316
  0
LINE
  8
0
 10
59.0729
 20
-2.85316
 11
58.7227
 21
-2.71448
  0
LINE
  8
0
 10
58.7227
 20
-2.71448
 11
58.3925
 21
-2.53297
  0
LINE
  8
0
 10
58.3925
 20
-2.53297
 11
58.0877
 21
-2.31154
  0
LINE
  8
0
 10
58.0877
 20
-2.31154
 11
57.8131
 21
-2.05363
  0
LINE
  8
0
 10
57.8131
 20
-2.05363
 11
57.5729
 21
-1.76335
  0
LINE
  8
0
 10
57.5729
 20
-1.76335
 11
57.3711
 21
-1.44525
  0
LINE
  8
0
 10
57.3711
 20
-1.44525
 11
57.2107
 21
-1.10437
  0
LINE
  8
0
 10
57.2107
 20
-1.10437
 11
57.0942
 21
-0.746063
  0
LINE
  8
0
 10
57.0942
 20
-0.746063
 11
57.0237
 21
-0.375992
  0
LINE
  8
0
 10
57.0237
 20
-0.375992
 11
57
 21
0
  0
LINE
  8
0
 10
57
 20
0
 11
57.0237
 21
0.375992
  0
LINE
  8
0
 10
57.0237
 20
0.375992
 11
57.0942
 21
0.746063
  0
LINE
  8
0
 10
57.0942
 20
0.746063
 11
57.2107
 21
1.10437
  0
LINE
  8
0
 10
57.2107
 20
1.10437
 11
57.3711
 21
1.44525
  0
LINE
  8
0
 10
57.3711
 20
1.44525
 11
57.5729
 21
1.76335
  0
LINE
  8
0
 10
57.5729
 20
1.76335
 11
57.8131
 21
2.05363
  0
LINE
  8
0
 10
57.8131
 20
2.05363
 11
58.0877
 21
2.31154
  0
LINE
  8
0
 10
58.0877
 20
2.31154
 11
58.3925
 21
2.53297
  0
LINE
  8
0
 10
58.3925
 20
2.53297
 11
58.7227
 21
2.71448
  0
LINE
  8
0
 10
58.7227
 20
2.71448
 11
59.0729
 21
2.85316
  0
LINE
  8
0
 10
59.0729
 20
2.85316
 11
59.4379
 21
2.94685
  0
LINE
  8
0
 10
59.4379
 20
2.94685
 11
59.8116
 21
2.99408
  0
LINE
  8
0
 10
59.8116
 20
2.99408
 11
60.1884
 21
2.99408
  0
LINE
  8
0
 10
60.1884
 20
2.99408
 11
60.5621
 21
2.94685
  0
LINE
  8
0
 10
60.5621
 20
2.94685
 11
60.927
 21
2.85316
  0
LINE
  8
0
 10
60.927
 20
2.85316
 11
61.2773
 21
2.71448
  0
LINE
  8
0
 10
61.2773
 20
2.71448
 11
61.6075
 21
2.53297
  0
LINE
  8
0
 10
61.6075
 20
2.53297
 11
61.9123
 21
2.31154
  0
LINE
  8
0
 10
61.9123
 20
2.31154
 11
62.1869
 21
2.05363
  0
LINE
  8
0
 10
62.1869
 20
2.05363
 11
62.427
 21
1.76335
  0
LINE
  8
0
 10
62.427
 20
1.76335
 11
62.6289
 21
1.44525
  0
LINE
  8
0
 10
62.6289
 20
1.44525
 11
62.7893
 21
1.10437
  0
LINE
  8
0
 10
62.7893
 20
1.10437
 11
62.9057
 21
0.746063
  0
LINE
  8
0
 10
62.9057
 20
0.746063
 11
62.9763
 21
0.375992
  0
LINE
  8
0
 10
62.9763
 20
0.375992
 11
63
 21
0
  0
LINE
  8
0
 10
63
 20
0
 11
62.9763
 21
-0.375992
  0
LINE
  8
0
 10
62.9763
 20
-0.375992
 11
62.9057
 21
-0.746063
  0
LINE
  8
0
 10
62.9057
 20
-0.746063
 11
62.7893
 21
-1.10437
  0
LINE
  8
0
 10
62.7893
 20
-1.10437
 11
62.6289
 21
-1.44525
  0
LINE
  8
0
 10
62.6289
 20
-1.44525
 11
62.427
 21
-1.76335
  0
LINE
  8
0
 10
62.427
 20
-1.76335
 11
62.1869
 21
-2.05363
  0
LINE
  8
0
 10
62.1869
 20
-2.05363
 11
61.9123
 21
-2.31154
  0
LINE
  8
0
 10
61.9123
 20
-2.31154
 11
61.6075
 21
-2.53297
  0
LINE
  8
0
 10
61.6075
 20
-2.53297
 11
61.2773
 21
-2.71448
  0
LINE
  8
0
 10
61.2773
 20
-2.71448
 11
60.927
 21
-2.85316
  0
LINE
  8
0
 10
60.927
 20
-2.85316
 11
60.5621
 21
-2.94685
  0
LINE
  8
0
 10
60.5621
 20
-2.94685
 11
60.1884
 21
-2.99408
  0
LINE
  8
0
 10
60.1884
 20
-2.99408
 11
59.8116
 21
-2.99408
  0
LINE
  8
0
 10
52.4058
 20
-1.49704
 11
52.2189
 21
-1.47342
  0
LINE
  8
0
 10
52.2189
 20
-1.47342
 11
52.0365
 21
-1.42657
  0
LINE
  8
0
 10
52.0365
 20
-1.42657
 11
51.8613
 21
-1.35724
  0
LINE
  8
0
 10
51.8613
 20
-1.35724
 11
51.6963
 21
-1.26648
  0
LINE
  8
0
 10
51.6963
 20
-1.26648
 11
51.5439
 21
-1.15576
  0
LINE
  8
0
 10
51.5439
 20
-1.15576
 11
51.4065
 21
-1.02681
  0
LINE
  8
0
 10
51.4065
 20
-1.02681
 11
51.2865
 21
-0.881668
  0
LINE
  8
0
 10
51.2865
 20
-0.881668
 11
51.1855
 21
-0.722626
  0
LINE
  8
0
 10
51.1855
 20
-0.722626
 11
51.1053
 21
-0.552185
  0
LINE
  8
0
 10
51.1053
 20
-0.552185
 11
51.0471
 21
-0.373032
  0
LINE
  8
0
 10
51.0471
 20
-0.373032
 11
51.0118
 21
-0.187988
  0
LINE
  8
0
 10
51.0118
 20
-0.187988
 11
51
 21
0
  0
LINE
  8
0
 10
51
 20
0
 11
51.0118
 21
0.187988
  0
LINE
  8
0
 10
51.0118
 20
0.187988
 11
51.0471
 21
0.373032
  0
LINE
  8
0
 10
51.0471
 20
0.373032
 11
51.1053
 21
0.552185
  0
LINE
  8
0
 10
51.1053
 20
0.552185
 11
51.1855
 21
0.722626
  0
LINE
  8
0
 10
51.1855
 20
0.722626
 11
51.2865
 21
0.881668
  0
LINE
  8
0
 10
51.2865
 20
0.881668
 11
51.4065
 21
1.02681
  0
LINE
  8
0
 10
51.4065
 20
1.02681
 11
51.5439
 21
1.15576
  0
LINE
  8
0
 10
51.5439
 20
1.15576
 11
51.6963
 21
1.26648
  0
LINE
  8
0
 10
51.6963
 20
1.26648
 11
51.8613
 21
1.35724
  0
LINE
  8
0
 10
51.8613
 20
1.35724
 11
52.0365
 21
1.42657
  0
LINE
  8
0
 10
52.0365
 20
1.42657
 11
52.2189
 21
1.47342
  0
LINE
  8
0
 10
52.2189
 20
1.47342
 11
52.4058
 21
1.49704
  0
LINE
  8
0
 10
52.4058
 20
1.49704
 11
52.5942
 21
1.49704
  0
LINE
  8
0
 10
52.5942
 20
1.49704
 11
52.7811
 21
1.47342
  0
LINE
  8
0
 10
52.7811
 20
1.47342
 11
52.9635
 21
1.42657
  0
LINE
  8
0
 10
52.9635
 20
1.42657
 11
53.1387
 21
1.35724
  0
LINE
  8
0
 10
53.1387
 20
1.35724
 11
53.3037
 21
1.26648
  0
LINE
  8
0
 10
53.3037
 20
1.26648
 11
53.4561
 21
1.15576
  0
LINE
  8
0
 10
53.4561
 20
1.15576
 11
53.5934
 21
1.02681
  0
LINE
  8
0
 10
53.5934
 20
1.02681
 11
53.7135
 21
0.881668
  0
LINE
  8
0
 10
53.7135
 20
0.881668
 11
53.8145
 21
0.722626
  0
LINE
  8
0
 10
53.8145
 20
0.722626
 11
53.8947
 21
0.552185
  0
LINE
  8
0
 10
53.8947
 20
0.552185
 11
53.9529
 21
0.373032
  0
LINE
  8
0
 10
53.9529
 20
0.373032
 11
53.9882
 21
0.187988
  0
LINE
  8
0
 10
53.9882
 20
0.187988
 11
54
 21
0
  0
LINE
  8
0
 10
54
 20
0
 11
53.9882
 21
-0.187988
  0
LINE
  8
0
 10
53.9882
 20
-0.187988
 11
53.9529
 21
-0.373032
  0
LINE
  8
0
 10
53.9529
 20
-0.373032
 11
53.8947
 21
-0.552185
  0
LINE
  8
0
 10
53.8947
 20
-0.552185
 11
53.8145
 21
-0.722626
  0
LINE
  8
0
 10
53.8145
 20
-0.722626
 11
53.7135
 21
-0.881668
  0
LINE
  8
0
 10
53.7135
 20
-0.881668
 11
53.5934
 21
-1.02681
  0
LINE
  8
0
 10
53.5934
 20
-1.02681
 11
53.4561
 21
-1.15576
  0
LINE
  8
0
 10
53.4561
 20
-1.15576
 11
53.3037
 21
-1.26648
  0
LINE
  8
0
 10
53.3037
 20
-1.26648
 11
53.1387
 21
-1.35724
  0
LINE
  8
0
 10
53.1387
 20
-1.35724
 11
52.9635
 21
-1.42657
  0
LINE
  8
0
 10
52.9635
 20
-1.42657
 11
52.7811
 21
-1.47342
  0
LINE
  8
0
 10
52.7811
 20
-1.47342
 11
52.5942
 21
-1.49704
  0
LINE
  8
0
 10
52.5942
 20
-1.49704
 11
52.4058
 21
-1.49704
  0
LINE
  8
0
 10
67.4058
 20
-1.49704
 11
67.2189
 21
-1.47342
  0
LINE
  8
0
 10
67.2189
 20
-1.47342
 11
67.0365
 21
-1.42657
  0
LINE
  8
0
 10
67.0365
 20
-1.42657
 11
66.8613
 21
-1.35724
  0
LINE
  8
0
 10
66.8613
 20
-1.35724
 11
66.6963
 21
-1.26648
  0
LINE
  8
0
 10
66.6963
 20
-1.26648
 11
66.5439
 21
-1.15576
  0
LINE
  8
0
 10
66.5439
 20
-1.15576
 11
66.4065
 21
-1.02681
  0
LINE
  8
0
 10
66.4065
 20
-1.02681
 11
66.2865
 21
-0.881668
  0
LINE
  8
0
 10
66.2865
 20
-0.881668
 11
66.1855
 21
-0.722626
  0
LINE
  8
0
 10
66.1855
 20
-0.722626
 11
66.1053
 21
-0.552185
  0
LINE
  8
0
 10
66.1053
 20
-0.552185
 11
66.0471
 21
-0.373032
  0
LINE
  8
0
 10
66.0471
 20
-0.373032
 11
66.0118
 21
-0.187988
  0
LINE
  8
0
 10
66.0118
 20
-0.187988
 11
66
 21
0
  0
LINE
  8
0
 10
66
 20
0
 11
66.0118
 21
0.187988
  0
LINE
  8
0
 10
66.0118
 20
0.187988
 11
66.0471
 21
0.373032
  0
LINE
  8
0
 10
66.0471
 20
0.373032
 11
66.1053
 21
0.552185
  0
LINE
  8
0
 10
66.1053
 20
0.552185
 11
66.1855
 21
0.722626
  0
LINE
  8
0
 10
66.1855
 20
0.722626
 11
66.2865
 21
0.881668
  0
LINE
  8
0
 10
66.2865
 20
0.881668
 11
66.4065
 21
1.02681
  0
LINE
  8
0
 10
66.4065
 20
1.02681
 11
66.5439
 21
1.15576
  0
LINE
  8
0
 10
66.5439
 20
1.15576
 11
66.6963
 21
1.26648
  0
LINE
  8
0
 10
66.6963
 20
1.26648
 11
66.8613
 21
1.35724
  0
LINE
  8
0
 10
66.8613
 20
1.35724
 11
67.0365
 21
1.42657
  0
LINE
  8
0
 10
67.0365
 20
1.42657
 11
67.2189
 21
1.47342
  0
LINE
  8
0
 10
67.2189
 20
1.47342
 11
67.4058
 21
1.49704
  0
LINE
  8
0
 10
67.4058
 20
1.49704
 11
67.5942
 21
1.49704
  0
LINE
  8
0
 10
67.5942
 20
1.49704
 11
67.7811
 21
1.47342
  0
LINE
  8
0
 10
67.7811
 20
1.47342
 11
67.9635
 21
1.42657
  0
LINE
  8
0
 10
67.9635
 20
1.42657
 11
68.1387
 21
1.35724
  0
LINE
  8
0
 10
68.1387
 20
1.35724
 11
68.3037
 21
1.26648
  0
LINE
  8
0
 10
68.3037
 20
1.26648
 11
68.4561
 21
1.15576
  0
LINE
  8
0
 10
68.4561
 20
1.15576
 11
68.5934
 21
1.02681
  0
LINE
  8
0
 10
68.5934
 20
1.02681
 11
68.7135
 21
0.881668
  0
LINE
  8
0
 10
68.7135
 20
0.881668
 11
68.8145
 21
0.722626
  0
LINE
  8
0
 10
68.8145
 20
0.722626
 11
68.8947
 21
0.552185
  0
LINE
  8
0
 10
68.8947
 20
0.552185
 11
68.9529
 21
0.373032
  0
LINE
  8
0
 10
68.9529
 20
0.373032
 11
68.9882
 21
0.187988
  0
LINE
  8
0
 10
68.9882
 20
0.187988
 11
69
 21
0
  0
LINE
  8
0
 10
69
 20
0
 11
68.9882
 21
-0.187988
  0
LINE
  8
0
 10
68.9882
 20
-0.187988
 11
68.9529
 21
-0.373032
  0
LINE
  8
0
 10
68.9529
 20
-0.373032
 11
68.8947
 21
-0.552185
  0
LINE
  8
0
 10
68.8947
 20
-0.552185
 11
68.8145
 21
-0.722626
  0
LINE
  8
0
 10
68.8145
 20
-0.722626
 11
68.7135
 21
-0.881668
  0
LINE
  8
0
 10
68.7135
 20
-0.881668
 11
68.5934
 21
-1.02681
  0
LINE
  8
0
 10
68.5934
 20
-1.02681
 11
68.4561
 21
-1.15576
  0
LINE
  8
0
 10
68.4561
 20
-1.15576
 11
68.3037
 21
-1.26648
  0
LINE
  8
0
 10
68.3037
 20
-1.26648
 11
68.1387
 21
-1.35724
  0
LINE
  8
0
 10
68.1387
 20
-1.35724
 11
67.9635
 21
-1.42657
  0
LINE
  8
0
 10
67.9635
 20
-1.42657
 11
67.7811
 21
-1.47342
  0
LINE
  8
0
 10
67.7811
 20
-1.47342
 11
67.5942
 21
-1.49704
  0
LINE
  8
0
 10
67.5942
 20
-1.49704
 11
67.4058
 21
-1.49704
  0
LINE
  8
0
 10
65.19
 20
-7.09944
 11
64.9657
 21
-7.07111
  0
LINE
  8
0
 10
64.9657
 20
-7.07111
 11
64.7468
 21
-7.01489
  0
LINE
  8
0
 10
64.7468
 20
-7.01489
 11
64.5366
 21
-6.93169
  0
LINE
  8
0
 10
64.5366
 20
-6.93169
 11
64.3385
 21
-6.82278
  0
LINE
  8
0
 10
64.3385
 20
-6.82278
 11
64.1556
 21
-6.68991
  0
LINE
  8
0
 10
64.1556
 20
-6.68991
 11
63.9908
 21
-6.53517
  0
LINE
  8
0
 10
63.9908
 20
-6.53517
 11
63.8468
 21
-6.36101
  0
LINE
  8
0
 10
63.8468
 20
-6.36101
 11
63.7256
 21
-6.17015
  0
LINE
  8
0
 10
63.7256
 20
-6.17015
 11
63.6294
 21
-5.96562
  0
LINE
  8
0
 10
63.6294
 20
-5.96562
 11
63.5595
 21
-5.75064
  0
LINE
  8
0
 10
63.5595
 20
-5.75064
 11
63.5172
 21
-5.52859
  0
LINE
  8
0
 10
63.5172
 20
-5.52859
 11
63.503
 21
-5.30299
  0
LINE
  8
0
 10
63.503
 20
-5.30299
 11
63.5172
 21
-5.07739
  0
LINE
  8
0
 10
63.5172
 20
-5.07739
 11
63.5595
 21
-4.85535
  0
LINE
  8
0
 10
63.5595
 20
-4.85535
 11
63.6294
 21
-4.64037
  0
LINE
  8
0
 10
63.6294
 20
-4.64037
 11
63.7256
 21
-4.43584
  0
LINE
  8
0
 10
63.7256
 20
-4.43584
 11
63.8468
 21
-4.24498
  0
LINE
  8
0
 10
63.8468
 20
-4.24498
 11
63.9908
 21
-4.0708
  0
LINE
  8
0
 10
63.9908
 20
-4.0708
 11
64.1556
 21
-3.91606
  0
LINE
  8
0
 10
64.1556
 20
-3.91606
 11
64.3385
 21
-3.7832
  0
LINE
  8
0
 10
64.3385
 20
-3.7832
 11
64.5366
 21
-3.6743
  0
LINE
  8
0
 10
64.5366
 20
-3.6743
 11
64.7468
 21
-3.59109
  0
LINE
  8
0
 10
64.7468
 20
-3.59109
 11
64.9657
 21
-3.53488
  0
LINE
  8
0
 10
64.9657
 20
-3.53488
 11
65.19
 21
-3.50655
  0
LINE
  8
0
 10
65.19
 20
-3.50655
 11
65.416
 21
-3.50655
  0
LINE
  8
0
 10
65.416
 20
-3.50655
 11
65.6403
 21
-3.53488
  0
LINE
  8
0
 10
65.6403
 20
-3.53488
 11
65.8592
 21
-3.59109
  0
LINE
  8
0
 10
65.8592
 20
-3.59109
 11
66.0694
 21
-3.6743
  0
LINE
  8
0
 10
66.0694
 20
-3.6743
 11
66.2675
 21
-3.7832
  0
LINE
  8
0
 10
66.2675
 20
-3.7832
 11
66.4504
 21
-3.91606
  0
LINE
  8
0
 10
66.4504
 20
-3.91606
 11
66.6151
 21
-4.0708
  0
LINE
  8
0
 10
66.6151
 20
-4.0708
 11
66.7592
 21
-4.24498
  0
LINE
  8
0
 10
66.7592
 20
-4.24498
 11
66.8803
 21
-4.43584
  0
LINE
  8
0
 10
66.8803
 20
-4.43584
 11
66.9766
 21
-4.64037
  0
LINE
  8
0
 10
66.9766
 20
-4.64037
 11
67.0464
 21
-4.85535
  0
LINE
  8
0
 10
67.0464
 20
-4.85535
 11
67.0888
 21
-5.07739
  0
LINE
  8
0
 10
67.0888
 20
-5.07739
 11
67.103
 21
-5.30299
  0
LINE
  8
0
 10
67.103
 20
-5.30299
 11
67.0888
 21
-5.52859
  0
LINE
  8
0
 10
67.0888
 20
-5.52859
 11
67.0464
 21
-5.75064
  0
LINE
  8
0
 10
67.0464
 20
-5.75064
 11
66.9766
 21
-5.96562
  0
LINE
  8
0
 10
66.9766
 20
-5.96562
 11
66.8803
 21
-6.17015
  0
LINE
  8
0
 10
66.8803
 20
-6.17015
 11
66.7592
 21
-6.36101
  0
LINE
  8
0
 10
66.7592
 20
-6.36101
 11
66.6151
 21
-6.53517
  0
LINE
  8
0
 10
66.6151
 20
-6.53517
 11
66.4504
 21
-6.68991
  0
LINE
  8
0
 10
66.4504
 20
-6.68991
 11
66.2675
 21
-6.82278
  0
LINE
  8
0
 10
66.2675
 20
-6.82278
 11
66.0694
 21
-6.93169
  0
LINE
  8
0
 10
66.0694
 20
-6.93169
 11
65.8592
 21
-7.01489
  0
LINE
  8
0
 10
65.8592
 20
-7.01489
 11
65.6403
 21
-7.07111
  0
LINE
  8
0
 10
65.6403
 20
-7.07111
 11
65.416
 21
-7.09944
  0
LINE
  8
0
 10
65.416
 20
-7.09944
 11
65.19
 21
-7.09944
  0
LINE
  8
0
 10
59.9058
 20
-8.99704
 11
59.7189
 21
-8.97342
  0
LINE
  8
0
 10
59.7189
 20
-8.97342
 11
59.5365
 21
-8.92657
  0
LINE
  8
0
 10
59.5365
 20
-8.92657
 11
59.3613
 21
-8.85724
  0
LINE
  8
0
 10
59.3613
 20
-8.85724
 11
59.1963
 21
-8.76648
  0
LINE
  8
0
 10
59.1963
 20
-8.76648
 11
59.0439
 21
-8.65576
  0
LINE
  8
0
 10
59.0439
 20
-8.65576
 11
58.9065
 21
-8.52681
  0
LINE
  8
0
 10
58.9065
 20
-8.52681
 11
58.7865
 21
-8.38167
  0
LINE
  8
0
 10
58.7865
 20
-8.38167
 11
58.6855
 21
-8.22263
  0
LINE
  8
0
 10
58.6855
 20
-8.22263
 11
58.6053
 21
-8.05219
  0
LINE
  8
0
 10
58.6053
 20
-8.05219
 11
58.5471
 21
-7.87303
  0
LINE
  8
0
 10
58.5471
 20
-7.87303
 11
58.5118
 21
-7.68799
  0
LINE
  8
0
 10
58.5118
 20
-7.68799
 11
58.5
 21
-7.5
  0
LINE
  8
0
 10
58.5
 20
-7.5
 11
58.5118
 21
-7.312
  0
LINE
  8
0
 10
58.5118
 20
-7.312
 11
58.5471
 21
-7.12695
  0
LINE
  8
0
 10
58.5471
 20
-7.12695
 11
58.6053
 21
-6.9478
  0
LINE
  8
0
 10
58.6053
 20
-6.9478
 11
58.6855
 21
-6.77736
  0
LINE
  8
0
 10
58.6855
 20
-6.77736
 11
58.7865
 21
-6.61832
  0
LINE
  8
0
 10
58.7865
 20
-6.61832
 11
58.9065
 21
-6.47318
  0
LINE
  8
0
 10
58.9065
 20
-6.47318
 11
59.0439
 21
-6.34422
  0
LINE
  8
0
 10
59.0439
 20
-6.34422
 11
59.1963
 21
-6.23351
  0
LINE
  8
0
 10
59.1963
 20
-6.23351
 11
59.3613
 21
-6.14275
  0
LINE
  8
0
 10
59.3613
 20
-6.14275
 11
59.5365
 21
-6.07341
  0
LINE
  8
0
 10
59.5365
 20
-6.07341
 11
59.7189
 21
-6.02657
  0
LINE
  8
0
 10
59.7189
 20
-6.02657
 11
59.9058
 21
-6.00294
  0
LINE
  8
0
 10
59.9058
 20
-6.00294
 11
60.0942
 21
-6.00294
  0
LINE
  8
0
 10
60.0942
 20
-6.00294
 11
60.2811
 21
-6.02657
  0
LINE
  8
0
 10
60.2811
 20
-6.02657
 11
60.4635
 21
-6.07341
  0
LINE
  8
0
 10
60.4635
 20
-6.07341
 11
60.6387
 21
-6.14275
  0
LINE
  8
0
 10
60.6387
 20
-6.14275
 11
60.8037
 21
-6.23351
  0
LINE
  8
0
 10
60.8037
 20
-6.23351
 11
60.9561
 21
-6.34422
  0
LINE
  8
0
 10
60.9561
 20
-6.34422
 11
61.0934
 21
-6.47318
  0
LINE
  8
0
 10
61.0934
 20
-6.47318
 11
61.2135
 21
-6.61832
  0
LINE
  8
0
 10
61.2135
 20
-6.61832
 11
61.3145
 21
-6.77736
  0
LINE
  8
0
 10
61.3145
 20
-6.77736
 11
61.3947
 21
-6.9478
  0
LINE
  8
0
 10
61.3947
 20
-6.9478
 11
61.4529
 21
-7.12695
  0
LINE
  8
0
 10
61.4529
 20
-7.12695
 11
61.4882
 21
-7.312
  0
LINE
  8
0
 10
61.4882
 20
-7.312
 11
61.5
 21
-7.5
  0
LINE
  8
0
 10
61.5
 20
-7.5
 11
61.4882
 21
-7.68799
  0
LINE
  8
0
 10
61.4882
 20
-7.68799
 11
61.4529
 21
-7.87303
  0
LINE
  8
0
 10
61.4529
 20
-7.87303
 11
61.3947
 21
-8.05219
  0
LINE
  8
0
 10
61.3947
 20
-8.05219
 11
61.3145
 21
-8.22263
  0
LINE
  8
0
 10
61.3145
 20
-8.22263
 11
61.2135
 21
-8.38167
  0
LINE
  8
0
 10
61.2135
 20
-8.38167
 11
61.0934
 21
-8.52681
  0
LINE
  8
0
 10
61.0934
 20
-8.52681
 11
60.9561
 21
-8.65576
  0
LINE
  8
0
 10
60.9561
 20
-8.65576
 11
60.8037
 21
-8.76648
  0
LINE
  8
0
 10
60.8037
 20
-8.76648
 11
60.6387
 21
-8.85724
  0
LINE
  8
0
 10
60.6387
 20
-8.85724
 11
60.4635
 21
-8.92657
  0
LINE
  8
0
 10
60.4635
 20
-8.92657
 11
60.2811
 21
-8.97342
  0
LINE
  8
0
 10
60.2811
 20
-8.97342
 11
60.0942
 21
-8.99704
  0
LINE
  8
0
 10
60.0942
 20
-8.99704
 11
59.9058
 21
-8.99704
  0
LINE
  8
0
 10
67.887
 20
-19.7964
 11
67.6627
 21
-19.7681
  0
LINE
  8
0
 10
67.6627
 20
-19.7681
 11
67.4438
 21
-19.7119
  0
LINE
  8
0
 10
67.4438
 20
-19.7119
 11
67.2336
 21
-19.6287
  0
LINE
  8
0
 10
67.2336
 20
-19.6287
 11
67.0355
 21
-19.5198
  0
LINE
  8
0
 10
67.0355
 20
-19.5198
 11
66.8526
 21
-19.3869
  0
LINE
  8
0
 10
66.8526
 20
-19.3869
 11
66.6879
 21
-19.2322
  0
LINE
  8
0
 10
66.6879
 20
-19.2322
 11
66.5438
 21
-19.058
  0
LINE
  8
0
 10
66.5438
 20
-19.058
 11
66.4226
 21
-18.8672
  0
LINE
  8
0
 10
66.4226
 20
-18.8672
 11
66.3264
 21
-18.6626
  0
LINE
  8
0
 10
66.3264
 20
-18.6626
 11
66.2565
 21
-18.4476
  0
LINE
  8
0
 10
66.2565
 20
-18.4476
 11
66.2142
 21
-18.2256
  0
LINE
  8
0
 10
66.2142
 20
-18.2256
 11
66.2
 21
-18
  0
LINE
  8
0
 10
66.2
 20
-18
 11
66.2142
 21
-17.7744
  0
LINE
  8
0
 10
66.2142
 20
-17.7744
 11
66.2565
 21
-17.5524
  0
LINE
  8
0
 10
66.2565
 20
-17.5524
 11
66.3264
 21
-17.3374
  0
LINE
  8
0
 10
66.3264
 20
-17.3374
 11
66.4226
 21
-17.1328
  0
LINE
  8
0
 10
66.4226
 20
-17.1328
 11
66.5438
 21
-16.942
  0
LINE
  8
0
 10
66.5438
 20
-16.942
 11
66.6879
 21
-16.7678
  0
LINE
  8
0
 10
66.6879
 20
-16.7678
 11
66.8526
 21
-16.6131
  0
LINE
  8
0
 10
66.8526
 20
-16.6131
 11
67.0355
 21
-16.4802
  0
LINE
  8
0
 10
67.0355
 20
-16.4802
 11
67.2336
 21
-16.3713
  0
LINE
  8
0
 10
67.2336
 20
-16.3713
 11
67.4438
 21
-16.2881
  0
LINE
  8
0
 10
67.4438
 20
-16.2881
 11
67.6627
 21
-16.2319
  0
LINE
  8
0
 10
67.6627
 20
-16.2319
 11
67.887
 21
-16.2036
  0
LINE
  8
0
 10
67.887
 20
-16.2036
 11
68.113
 21
-16.2036
  0
LINE
  8
0
 10
68.113
 20
-16.2036
 11
68.3373
 21
-16.2319
  0
LINE
  8
0
 10
68.3373
 20
-16.2319
 11
68.5562
 21
-16.2881
  0
LINE
  8
0
 10
68.5562
 20
-16.2881
 11
68.7664
 21
-16.3713
  0
LINE
  8
0
 10
68.7664
 20
-16.3713
 11
68.9645
 21
-16.4802
  0
LINE
  8
0
 10
68.9645
 20
-16.4802
 11
69.1474
 21
-16.6131
  0
LINE
  8
0
 10
69.1474
 20
-16.6131
 11
69.3121
 21
-16.7678
  0
LINE
  8
0
 10
69.3121
 20
-16.7678
 11
69.4562
 21
-16.942
  0
LINE
  8
0
 10
69.4562
 20
-16.942
 11
69.5773
 21
-17.1328
  0
LINE
  8
0
 10
69.5773
 20
-17.1328
 11
69.6736
 21
-17.3374
  0
LINE
  8
0
 10
69.6736
 20
-17.3374
 11
69.7434
 21
-17.5524
  0
LINE
  8
0
 10
69.7434
 20
-17.5524
 11
69.7858
 21
-17.7744
  0
LINE
  8
0
 10
69.7858
 20
-17.7744
 11
69.8
 21
-18
  0
LINE
  8
0
 10
69.8
 20
-18
 11
69.7858
 21
-18.2256
  0
LINE
  8
0
 10
69.7858
 20
-18.2256
 11
69.7434
 21
-18.4476
  0
LINE
  8
0
 10
69.7434
 20
-18.4476
 11
69.6736
 21
-18.6626
  0
LINE
  8
0
 10
69.6736
 20
-18.6626
 11
69.5773
 21
-18.8672
  0
LINE
  8
0
 10
69.5773
 20
-18.8672
 11
69.4562
 21
-19.058
  0
LINE
  8
0
 10
69.4562
 20
-19.058
 11
69.3121
 21
-19.2322
  0
LINE
  8
0
 10
69.3121
 20
-19.2322
 11
69.1474
 21
-19.3869
  0
LINE
  8
0
 10
69.1474
 20
-19.3869
 11
68.9645
 21
-19.5198
  0
LINE
  8
0
 10
68.9645
 20
-19.5198
 11
68.7664
 21
-19.6287
  0
LINE
  8
0
 10
68.7664
 20
-19.6287
 11
68.5562
 21
-19.7119
  0
LINE
  8
0
 10
68.5562
 20
-19.7119
 11
68.3373
 21
-19.7681
  0
LINE
  8
0
 10
68.3373
 20
-19.7681
 11
68.113
 21
-19.7964
  0
LINE
  8
0
 10
68.113
 20
-19.7964
 11
67.887
 21
-19.7964
  0
LINE
  8
0
 10
51.887
 20
-19.7964
 11
51.6627
 21
-19.7681
  0
LINE
  8
0
 10
51.6627
 20
-19.7681
 11
51.4438
 21
-19.7119
  0
LINE
  8
0
 10
51.4438
 20
-19.7119
 11
51.2336
 21
-19.6287
  0
LINE
  8
0
 10
51.2336
 20
-19.6287
 11
51.0355
 21
-19.5198
  0
LINE
  8
0
 10
51.0355
 20
-19.5198
 11
50.8526
 21
-19.3869
  0
LINE
  8
0
 10
50.8526
 20
-19.3869
 11
50.6879
 21
-19.2322
  0
LINE
  8
0
 10
50.6879
 20
-19.2322
 11
50.5438
 21
-19.058
  0
LINE
  8
0
 10
50.5438
 20
-19.058
 11
50.4226
 21
-18.8672
  0
LINE
  8
0
 10
50.4226
 20
-18.8672
 11
50.3264
 21
-18.6626
  0
LINE
  8
0
 10
50.3264
 20
-18.6626
 11
50.2565
 21
-18.4476
  0
LINE
  8
0
 10
50.2565
 20
-18.4476
 11
50.2142
 21
-18.2256
  0
LINE
  8
0
 10
50.2142
 20
-18.2256
 11
50.2
 21
-18
  0
LINE
  8
0
 10
50.2
 20
-18
 11
50.2142
 21
-17.7744
  0
LINE
  8
0
 10
50.2142
 20
-17.7744
 11
50.2565
 21
-17.5524
  0
LINE
  8
0
 10
50.2565
 20
-17.5524
 11
50.3264
 21
-17.3374
  0
LINE
  8
0
 10
50.3264
 20
-17.3374
 11
50.4226
 21
-17.1328
  0
LINE
  8
0
 10
50.4226
 20
-17.1328
 11
50.5438
 21
-16.942
  0
LINE
  8
0
 10
50.5438
 20
-16.942
 11
50.6879
 21
-16.7678
  0
LINE
  8
0
 10
50.6879
 20
-16.7678
 11
50.8526
 21
-16.6131
  0
LINE
  8
0
 10
50.8526
 20
-16.6131
 11
51.0355
 21
-16.4802
  0
LINE
  8
0
 10
51.0355
 20
-16.4802
 11
51.2336
 21
-16.3713
  0
LINE
  8
0
 10
51.2336
 20
-16.3713
 11
51.4438
 21
-16.2881
  0
LINE
  8
0
 10
51.4438
 20
-16.2881
 11
51.6627
 21
-16.2319
  0
LINE
  8
0
 10
51.6627
 20
-16.2319
 11
51.887
 21
-16.2036
  0
LINE
  8
0
 10
51.887
 20
-16.2036
 11
52.113
 21
-16.2036
  0
LINE
  8
0
 10
52.113
 20
-16.2036
 11
52.3373
 21
-16.2319
  0
LINE
  8
0
 10
52.3373
 20
-16.2319
 11
52.5562
 21
-16.2881
  0
LINE
  8
0
 10
52.5562
 20
-16.2881
 11
52.7664
 21
-16.3713
  0
LINE
  8
0
 10
52.7664
 20
-16.3713
 11
52.9645
 21
-16.4802
  0
LINE
  8
0
 10
52.9645
 20
-16.4802
 11
53.1474
 21
-16.6131
  0
LINE
  8
0
 10
53.1474
 20
-16.6131
 11
53.3121
 21
-16.7678
  0
LINE
  8
0
 10
53.3121
 20
-16.7678
 11
53.4562
 21
-16.942
  0
LINE
  8
0
 10
53.4562
 20
-16.942
 11
53.5773
 21
-17.1328
  0
LINE
  8
0
 10
53.5773
 20
-17.1328
 11
53.6736
 21
-17.3374
  0
LINE
  8
0
 10
53.6736
 20
-17.3374
 11
53.7434
 21
-17.5524
  0
LINE
  8
0
 10
53.7434
 20
-17.5524
 11
53.7858
 21
-17.7744
  0
LINE
  8
0
 10
53.7858
 20
-17.7744
 11
53.8
 21
-18
  0
LINE
  8
0
 10
53.8
 20
-18
 11
53.7858
 21
-18.2256
  0
LINE
  8
0
 10
53.7858
 20
-18.2256
 11
53.7434
 21
-18.4476
  0
LINE
  8
0
 10
53.7434
 20
-18.4476
 11
53.6736
 21
-18.6626
  0
LINE
  8
0
 10
53.6736
 20
-18.6626
 11
53.5773
 21
-18.8672
  0
LINE
  8
0
 10
53.5773
 20
-18.8672
 11
53.4562
 21
-19.058
  0
LINE
  8
0
 10
53.4562
 20
-19.058
 11
53.3121
 21
-19.2322
  0
LINE
  8
0
 10
53.3121
 20
-19.2322
 11
53.1474
 21
-19.3869
  0
LINE
  8
0
 10
53.1474
 20
-19.3869
 11
52.9645
 21
-19.5198
  0
LINE
  8
0
 10
52.9645
 20
-19.5198
 11
52.7664
 21
-19.6287
  0
LINE
  8
0
 10
52.7664
 20
-19.6287
 11
52.5562
 21
-19.7119
  0
LINE
  8
0
 10
52.5562
 20
-19.7119
 11
52.3373
 21
-19.7681
  0
LINE
  8
0
 10
52.3373
 20
-19.7681
 11
52.113
 21
-19.7964
  0
LINE
  8
0
 10
52.113
 20
-19.7964
 11
51.887
 21
-19.7964
  0
LINE
  8
0
 10
8.9369
 20
-21.9114
 11
9.54507
 21
-21.7553
  0
LINE
  8
0
 10
9.54507
 20
-21.7553
 11
10.1289
 21
-21.5241
  0
LINE
  8
0
 10
10.1289
 20
-21.5241
 11
10.6791
 21
-21.2216
  0
LINE
  8
0
 10
10.6791
 20
-21.2216
 11
11.1871
 21
-20.8526
  0
LINE
  8
0
 10
11.1871
 20
-20.8526
 11
11.6448
 21
-20.4227
  0
LINE
  8
0
 10
11.6448
 20
-20.4227
 11
12.0451
 21
-19.9389
  0
LINE
  8
0
 10
12.0451
 20
-19.9389
 11
12.3815
 21
-19.4088
  0
LINE
  8
0
 10
12.3815
 20
-19.4088
 11
12.6489
 21
-18.8406
  0
LINE
  8
0
 10
12.6489
 20
-18.8406
 11
12.8429
 21
-18.2434
  0
LINE
  8
0
 10
12.8429
 20
-18.2434
 11
12.9606
 21
-17.6267
  0
LINE
  8
0
 10
12.9606
 20
-17.6267
 11
12.9864
 21
-17.2164
  0
LINE
  8
0
 10
12.9864
 20
-17.2164
 11
12.8131
 21
-17.0536
  0
LINE
  8
0
 10
12.8131
 20
-17.0536
 11
12.5729
 21
-16.7634
  0
LINE
  8
0
 10
12.5729
 20
-16.7634
 11
12.3711
 21
-16.4453
  0
LINE
  8
0
 10
12.3711
 20
-16.4453
 11
12.2107
 21
-16.1044
  0
LINE
  8
0
 10
12.2107
 20
-16.1044
 11
12.0942
 21
-15.7461
  0
LINE
  8
0
 10
12.0942
 20
-15.7461
 11
12.0237
 21
-15.376
  0
LINE
  8
0
 10
12.0237
 20
-15.376
 11
12
 21
-15
  0
LINE
  8
0
 10
12
 20
-15
 11
12.0237
 21
-14.624
  0
LINE
  8
0
 10
12.0237
 20
-14.624
 11
12.0942
 21
-14.2539
  0
LINE
  8
0
 10
12.0942
 20
-14.2539
 11
12.2107
 21
-13.8956
  0
LINE
  8
0
 10
12.2107
 20
-13.8956
 11
12.3711
 21
-13.5547
  0
LINE
  8
0
 10
12.3711
 20
-13.5547
 11
12.5729
 21
-13.2366
  0
LINE
  8
0
 10
12.5729
 20
-13.2366
 11
12.8131
 21
-12.9464
  0
LINE
  8
0
 10
12.8131
 20
-12.9464
 11
13
 21
-12.7708
  0
LINE
  8
0
 10
13
 20
-12.7708
 11
13
 21
-11.6858
  0
LINE
  8
0
 10
13
 20
-11.6858
 11
14.1578
 21
-10.2862
  0
LINE
  8
0
 10
14.1578
 20
-10.2862
 11
15.3354
 21
-8.43068
  0
LINE
  8
0
 10
15.3354
 20
-8.43068
 11
16.2711
 21
-6.44217
  0
LINE
  8
0
 10
16.2711
 20
-6.44217
 11
16.9502
 21
-4.35207
  0
LINE
  8
0
 10
16.9502
 20
-4.35207
 11
17.362
 21
-2.19333
  0
LINE
  8
0
 10
17.362
 20
-2.19333
 11
17.5
 21
0
  0
LINE
  8
0
 10
17.5
 20
0
 11
17.362
 21
2.19333
  0
LINE
  8
0
 10
17.362
 20
2.19333
 11
16.9502
 21
4.35207
  0
LINE
  8
0
 10
16.9502
 20
4.35207
 11
16.2711
 21
6.44217
  0
LINE
  8
0
 10
16.2711
 20
6.44217
 11
15.3354
 21
8.43068
  0
LINE
  8
0
 10
15.3354
 20
8.43068
 11
14.1578
 21
10.2862
  0
LINE
  8
0
 10
14.1578
 20
10.2862
 11
13
 21
11.6858
  0
LINE
  8
0
 10
13
 20
11.6858
 11
13
 21
12.7708
  0
LINE
  8
0
 10
13
 20
12.7708
 11
12.8131
 21
12.9464
  0
LINE
  8
0
 10
12.8131
 20
12.9464
 11
12.5729
 21
13.2366
  0
LINE
  8
0
 10
12.5729
 20
13.2366
 11
12.3711
 21
13.5547
  0
LINE
  8
0
 10
12.3711
 20
13.5547
 11
12.2107
 21
13.8956
  0
LINE
  8
0
 10
12.2107
 20
13.8956
 11
12.0942
 21
14.2539
  0
LINE
  8
0
 10
12.0942
 20
14.2539
 11
12.0237
 21
14.624
  0
LINE
  8
0
 10
12.0237
 20
14.624
 11
12
 21
15
  0
LINE
  8
0
 10
12
 20
15
 11
12.0237
 21
15.376
  0
LINE
  8
0
 10
12.0237
 20
15.376
 11
12.0942
 21
15.7461
  0
LINE
  8
0
 10
12.0942
 20
15.7461
 11
12.2107
 21
16.1044
  0
LINE
  8
0
 10
12.2107
 20
16.1044
 11
12.3711
 21
16.4453
  0
LINE
  8
0
 10
12.3711
 20
16.4453
 11
12.5729
 21
16.7634
  0
LINE
  8
0
 10
12.5729
 20
16.7634
 11
12.8131
 21
17.0536
  0
LINE
  8
0
 10
12.8131
 20
17.0536
 11
12.9864
 21
17.2164
  0
LINE
  8
0
 10
12.9864
 20
17.2164
 11
12.9606
 21
17.6267
  0
LINE
  8
0
 10
12.9606
 20
17.6267
 11
12.8429
 21
18.2434
  0
LINE
  8
0
 10
12.8429
 20
18.2434
 11
12.6489
 21
18.8406
  0
LINE
  8
0
 10
12.6489
 20
18.8406
 11
12.3815
 21
19.4088
  0
LINE
  8
0
 10
12.3815
 20
19.4088
 11
12.0451
 21
19.9389
  0
LINE
  8
0
 10
12.0451
 20
19.9389
 11
11.6448
 21
20.4227
  0
LINE
  8
0
 10
11.6448
 20
20.4227
 11
11.1871
 21
20.8526
  0
LINE
  8
0
 10
11.1871
 20
20.8526
 11
10.6791
 21
21.2216
  0
LINE
  8
0
 10
10.6791
 20
21.2216
 11
10.1289
 21
21.5241
  0
LINE
  8
0
 10
10.1289
 20
21.5241
 11
9.54507
 21
21.7553
  0
LINE
  8
0
 10
9.54507
 20
21.7553
 11
8.9369
 21
21.9114
  0
LINE
  8
0
 10
8.9369
 20
21.9114
 11
8.31395
 21
21.9901
  0
LINE
  8
0
 10
8.31395
 20
21.9901
 11
-8.31395
 21
21.9901
  0
LINE
  8
0
 10
-8.31395
 20
21.9901
 11
-8.9369
 21
21.9114
  0
LINE
  8
0
 10
-8.9369
 20
21.9114
 11
-9.54507
 21
21.7553
  0
LINE
  8
0
 10
-9.54507
 20
21.7553
 11
-10.1289
 21
21.5241
  0
LINE
  8
0
 10
-10.1289
 20
21.5241
 11
-10.6791
 21
21.2216
  0
LINE
  8
0
 10
-10.6791
 20
21.2216
 11
-11.1871
 21
20.8526
  0
LINE
  8
0
 10
-11.1871
 20
20.8526
 11
-11.6448
 21
20.4227
  0
LINE
  8
0
 10
-11.6448
 20
20.4227
 11
-12.0451
 21
19.9389
  0
LINE
  8
0
 10
-12.0451
 20
19.9389
 11
-12.3815
 21
19.4088
  0
LINE
  8
0
 10
-12.3815
 20
19.4088
 11
-12.6489
 21
18.8406
  0
LINE
  8
0
 10
-12.6489
 20
18.8406
 11
-12.8429
 21
18.2434
  0
LINE
  8
0
 10
-12.8429
 20
18.2434
 11
-12.9606
 21
17.6267
  0
LINE
  8
0
 10
-12.9606
 20
17.6267
 11
-12.9864
 21
17.2164
  0
LINE
  8
0
 10
-12.9864
 20
17.2164
 11
-12.8131
 21
17.0536
  0
LINE
  8
0
 10
-12.8131
 20
17.0536
 11
-12.5729
 21
16.7634
  0
LINE
  8
0
 10
-12.5729
 20
16.7634
 11
-12.3711
 21
16.4453
  0
LINE
  8
0
 10
-12.3711
 20
16.4453
 11
-12.2107
 21
16.1044
  0
LINE
  8
0
 10
-12.2107
 20
16.1044
 11
-12.0942
 21
15.7461
  0
LINE
  8
0
 10
-12.0942
 20
15.7461
 11
-12.0237
 21
15.376
  0
LINE
  8
0
 10
-12.0237
 20
15.376
 11
-12
 21
15
  0
LINE
  8
0
 10
-12
 20
15
 11
-12.0237
 21
14.624
  0
LINE
  8
0
 10
-12.0237
 20
14.624
 11
-12.0942
 21
14.2539
  0
LINE
  8
0
 10
-12.0942
 20
14.2539
 11
-12.2107
 21
13.8956
  0
LINE
  8
0
 10
-12.2107
 20
13.8956
 11
-12.3711
 21
13.5547
  0
LINE
  8
0
 10
-12.3711
 20
13.5547
 11
-12.5729
 21
13.2366
  0
LINE
  8
0
 10
-12.5729
 20
13.2366
 11
-12.8131
 21
12.9464
  0
LINE
  8
0
 10
-12.8131
 20
12.9464
 11
-13
 21
12.7708
  0
LINE
  8
0
 10
-13
 20
12.7708
 11
-13
 21
11.6858
  0
LINE
  8
0
 10
-13
 20
11.6858
 11
-14.1578
 21
10.2862
  0
LINE
  8
0
 10
-14.1578
 20
10.2862
 11
-15.3354
 21
8.43068
  0
LINE
  8
0
 10
-15.3354
 20
8.43068
 11
-16.2711
 21
6.44217
  0
LINE
  8
0
 10
-16.2711
 20
6.44217
 11
-16.9502
 21
4.35207
  0
LINE
  8
0
 10
-16.9502
 20
4.35207
 11
-17.362
 21
2.19333
  0
LINE
  8
0
 10
-17.362
 20
2.19333
 11
-17.5
 21
0
  0
LINE
  8
0
 10
-17.5
 20
0
 11
-17.362
 21
-2.19333
  0
LINE
  8
0
 10
-17.362
 20
-2.19333
 11
-16.9502
 21
-4.35207
  0
LINE
  8
0
 10
-16.9502
 20
-4.35207
 11
-16.2711
 21
-6.44217
  0
LINE
  8
0
 10
-16.2711
 20
-6.44217
 11
-15.3354
 21
-8.43068
  0
LINE
  8
0
 10
-15.3354
 20
-8.43068
 11
-14.1578
 21
-10.2862
  0
LINE
  8
0
 10
-14.1578
 20
-10.2862
 11
-13
 21
-11.6858
  0
LINE
  8
0
 10
-13
 20
-11.6858
 11
-13
 21
-12.7708
  0
LINE
  8
0
 10
-13
 20
-12.7708
 11
-12.8131
 21
-12.9464
  0
LINE
  8
0
 10
-12.8131
 20
-12.9464
 11
-12.5729
 21
-13.2366
  0
LINE
  8
0
 10
-12.5729
 20
-13.2366
 11
-12.3711
 21
-13.5547
  0
LINE
  8
0
 10
-12.3711
 20
-13.5547
 11
-12.2107
 21
-13.8956
  0
LINE
  8
0
 10
-12.2107
 20
-13.8956
 11
-12.0942
 21
-14.2539
  0
LINE
  8
0
 10
-12.0942
 20
-14.2539
 11
-12.0237
 21
-14.624
  0
LINE
  8
0
 10
-12.0237
 20
-14.624
 11
-12
 21
-15
  0
LINE
  8
0
 10
-12
 20
-15
 11
-12.0237
 21
-15.376
  0
LINE
  8
0
 10
-12.0237
 20
-15.376
 11
-12.0942
 21
-15.7461
  0
LINE
  8
0
 10
-12.0942
 20
-15.7461
 11
-12.2107
 21
-16.1044
  0
LINE
  8
0
 10
-12.2107
 20
-16.1044
 11
-12.3711
 21
-16.4453
  0
LINE
  8
0
 10
-12.3711
 20
-16.4453
 11
-12.5729
 21
-16.7634
  0
LINE
  8
0
 10
-12.5729
 20
-16.7634
 11
-12.8131
 21
-17.0536
  0
LINE
  8
0
 10
-12.8131
 20
-17.0536
 11
-12.9864
 21
-17.2164
  0
LINE
  8
0
 10
-12.9864
 20
-17.2164
 11
-12.9606
 21
-17.6267
  0
LINE
  8
0
 10
-12.9606
 20
-17.6267
 11
-12.8429
 21
-18.2434
  0
LINE
  8
0
 10
-12.8429
 20
-18.2434
 11
-12.6489
 21
-18.8406
  0
LINE
  8
0
 10
-12.6489
 20
-18.8406
 11
-12.3815
 21
-19.4088
  0
LINE
  8
0
 10
-12.3815
 20
-19.4088
 11
-12.0451
 21
-19.9389
  0
LINE
  8
0
 10
-12.0451
 20
-19.9389
 11
-11.6448
 21
-20.4227
  0
LINE
  8
0
 10
-11.6448
 20
-20.4227
 11
-11.1871
 21
-20.8526
  0
LINE
  8
0
 10
-11.1871
 20
-20.8526
 11
-10.6791
 21
-21.2216
  0
LINE
  8
0
 10
-10.6791
 20
-21.2216
 11
-10.1289
 21
-21.5241
  0
LINE
  8
0
 10
-10.1289
 20
-21.5241
 11
-9.54507
 21
-21.7553
  0
LINE
  8
0
 10
-9.54507
 20
-21.7553
 11
-8.9369
 21
-21.9114
  0
LINE
  8
0
 10
-8.9369
 20
-21.9114
 11
-8.31395
 21
-21.9901
  0
LINE
  8
0
 10
-8.31395
 20
-21.9901
 11
8.31395
 21
-21.9901
  0
LINE
  8
0
 10
8.31395
 20
-21.9901
 11
8.9369
 21
-21.9114
  0
LINE
  8
0
 10
7.88696
 20
16.2036
 11
7.6627
 21
16.2319
  0
LINE
  8
0
 10
7.6627
 20
16.2319
 11
7.44376
 21
16.2881
  0
LINE
  8
0
 10
7.44376
 20
16.2881
 11
7.2336
 21
16.3713
  0
LINE
  8
0
 10
7.2336
 20
16.3713
 11
7.03551
 21
16.4802
  0
LINE
  8
0
 10
7.03551
 20
16.4802
 11
6.85263
 21
16.6131
  0
LINE
  8
0
 10
6.85263
 20
16.6131
 11
6.68785
 21
16.7678
  0
LINE
  8
0
 10
6.68785
 20
16.7678
 11
6.54376
 21
16.942
  0
LINE
  8
0
 10
6.54376
 20
16.942
 11
6.42264
 21
17.1328
  0
LINE
  8
0
 10
6.42264
 20
17.1328
 11
6.3264
 21
17.3374
  0
LINE
  8
0
 10
6.3264
 20
17.3374
 11
6.25655
 21
17.5524
  0
LINE
  8
0
 10
6.25655
 20
17.5524
 11
6.21419
 21
17.7744
  0
LINE
  8
0
 10
6.21419
 20
17.7744
 11
6.2
 21
18
  0
LINE
  8
0
 10
6.2
 20
18
 11
6.21419
 21
18.2256
  0
LINE
  8
0
 10
6.21419
 20
18.2256
 11
6.25655
 21
18.4476
  0
LINE
  8
0
 10
6.25655
 20
18.4476
 11
6.3264
 21
18.6626
  0
LINE
  8
0
 10
6.3264
 20
18.6626
 11
6.42264
 21
18.8672
  0
LINE
  8
0
 10
6.42264
 20
18.8672
 11
6.54376
 21
19.058
  0
LINE
  8
0
 10
6.54376
 20
19.058
 11
6.68785
 21
19.2322
  0
LINE
  8
0
 10
6.68785
 20
19.2322
 11
6.85263
 21
19.3869
  0
LINE
  8
0
 10
6.85263
 20
19.3869
 11
7.03551
 21
19.5198
  0
LINE
  8
0
 10
7.03551
 20
19.5198
 11
7.2336
 21
19.6287
  0
LINE
  8
0
 10
7.2336
 20
19.6287
 11
7.44376
 21
19.7119
  0
LINE
  8
0
 10
7.44376
 20
19.7119
 11
7.6627
 21
19.7681
  0
LINE
  8
0
 10
7.6627
 20
19.7681
 11
7.88696
 21
19.7964
  0
LINE
  8
0
 10
7.88696
 20
19.7964
 11
8.11302
 21
19.7964
  0
LINE
  8
0
 10
8.11302
 20
19.7964
 11
8.33728
 21
19.7681
  0
LINE
  8
0
 10
8.33728
 20
19.7681
 11
8.55623
 21
19.7119
  0
LINE
  8
0
 10
8.55623
 20
19.7119
 11
8.76639
 21
19.6287
  0
LINE
  8
0
 10
8.76639
 20
19.6287
 11
8.96448
 21
19.5198
  0
LINE
  8
0
 10
8.96448
 20
19.5198
 11
9.14735
 21
19.3869
  0
LINE
  8
0
 10
9.14735
 20
19.3869
 11
9.31213
 21
19.2322
  0
LINE
  8
0
 10
9.31213
 20
19.2322
 11
9.45622
 21
19.058
  0
LINE
  8
0
 10
9.45622
 20
19.058
 11
9.57735
 21
18.8672
  0
LINE
  8
0
 10
9.57735
 20
18.8672
 11
9.67358
 21
18.6626
  0
LINE
  8
0
 10
9.67358
 20
18.6626
 11
9.74344
 21
18.4476
  0
LINE
  8
0
 10
9.74344
 20
18.4476
 11
9.7858
 21
18.2256
  0
LINE
  8
0
 10
9.7858
 20
18.2256
 11
9.79999
 21
18
  0
LINE
  8
0
 10
9.79999
 20
18
 11
9.7858
 21
17.7744
  0
LINE
  8
0
 10
9.7858
 20
17.7744
 11
9.74344
 21
17.5524
  0
LINE
  8
0
 10
9.74344
 20
17.5524
 11
9.67358
 21
17.3374
  0
LINE
  8
0
 10
9.67358
 20
17.3374
 11
9.57735
 21
17.1328
  0
LINE
  8
0
 10
9.57735
 20
17.1328
 11
9.45622
 21
16.942
  0
LINE
  8
0
 10
9.45622
 20
16.942
 11
9.31213
 21
16.7678
  0
LINE
  8
0
 10
9.31213
 20
16.7678
 11
9.14735
 21
16.6131
  0
LINE
  8
0
 10
9.14735
 20
16.6131
 11
8.96448
 21
16.4802
  0
LINE
  8
0
 10
8.96448
 20
16.4802
 11
8.76639
 21
16.3713
  0
LINE
  8
0
 10
8.76639
 20
16.3713
 11
8.55623
 21
16.2881
  0
LINE
  8
0
 10
8.55623
 20
16.2881
 11
8.33728
 21
16.2319
  0
LINE
  8
0
 10
8.33728
 20
16.2319
 11
8.11302
 21
16.2036
  0
LINE
  8
0
 10
8.11302
 20
16.2036
 11
7.88696
 21
16.2036
  0
LINE
  8
0
 10
-8.11302
 20
16.2036
 11
-8.33728
 21
16.2319
  0
LINE
  8
0
 10
-8.33728
 20
16.2319
 11
-8.55623
 21
16.2881
  0
LINE
  8
0
 10
-8.55623
 20
16.2881
 11
-8.76639
 21
16.3713
  0
LINE
  8
0
 10
-8.76639
 20
16.3713
 11
-8.96448
 21
16.4802
  0
LINE
  8
0
 10
-8.96448
 20
16.4802
 11
-9.14735
 21
16.6131
  0
LINE
  8
0
 10
-9.14735
 20
16.6131
 11
-9.31213
 21
16.7678
  0
LINE
  8
0
 10
-9.31213
 20
16.7678
 11
-9.45622
 21
16.942
  0
LINE
  8
0
 10
-9.45622
 20
16.942
 11
-9.57735
 21
17.1328
  0
LINE
  8
0
 10
-9.57735
 20
17.1328
 11
-9.67358
 21
17.3374
  0
LINE
  8
0
 10
-9.67358
 20
17.3374
 11
-9.74344
 21
17.5524
  0
LINE
  8
0
 10
-9.74344
 20
17.5524
 11
-9.7858
 21
17.7744
  0
LINE
  8
0
 10
-9.7858
 20
17.7744
 11
-9.79999
 21
18
  0
LINE
  8
0
 10
-9.79999
 20
18
 11
-9.7858
 21
18.2256
  0
LINE
  8
0
 10
-9.7858
 20
18.2256
 11
-9.74344
 21
18.4476
  0
LINE
  8
0
 10
-9.74344
 20
18.4476
 11
-9.67358
 21
18.6626
  0
LINE
  8
0
 10
-9.67358
 20
18.6626
 11
-9.57735
 21
18.8672
  0
LINE
  8
0
 10
-9.57735
 20
18.8672
 11
-9.45622
 21
19.058
  0
LINE
  8
0
 10
-9.45622
 20
19.058
 11
-9.31213
 21
19.2322
  0
LINE
  8
0
 10
-9.31213
 20
19.2322
 11
-9.14735
 21
19.3869
  0
LINE
  8
0
 10
-9.14735
 20
19.3869
 11
-8.96448
 21
19.5198
  0
LINE
  8
0
 10
-8.96448
 20
19.5198
 11
-8.76639
 21
19.6287
  0
LINE
  8
0
 10
-8.76639
 20
19.6287
 11
-8.55623
 21
19.7119
  0
LINE
  8
0
 10
-8.55623
 20
19.7119
 11
-8.33728
 21
19.7681
  0
LINE
  8
0
 10
-8.33728
 20
19.7681
 11
-8.11302
 21
19.7964
  0
LINE
  8
0
 10
-8.11302
 20
19.7964
 11
-7.88696
 21
19.7964
  0
LINE
  8
0
 10
-7.88696
 20
19.7964
 11
-7.6627
 21
19.7681
  0
LINE
  8
0
 10
-7.6627
 20
19.7681
 11
-7.44376
 21
19.7119
  0
LINE
  8
0
 10
-7.44376
 20
19.7119
 11
-7.2336
 21
19.6287
  0
LINE
  8
0
 10
-7.2336
 20
19.6287
 11
-7.03551
 21
19.5198
  0
LINE
  8
0
 10
-7.03551
 20
19.5198
 11
-6.85263
 21
19.3869
  0
LINE
  8
0
 10
-6.85263
 20
19.3869
 11
-6.68785
 21
19.2322
  0
LINE
  8
0
 10
-6.68785
 20
19.2322
 11
-6.54376
 21
19.058
  0
LINE
  8
0
 10
-6.54376
 20
19.058
 11
-6.42264
 21
18.8672
  0
LINE
  8
0
 10
-6.42264
 20
18.8672
 11
-6.3264
 21
18.6626
  0
LINE
  8
0
 10
-6.3264
 20
18.6626
 11
-6.25655
 21
18.4476
  0
LINE
  8
0
 10
-6.25655
 20
18.4476
 11
-6.21419
 21
18.2256
  0
LINE
  8
0
 10
-6.21419
 20
18.2256
 11
-6.2
 21
18
  0
LINE
  8
0
 10
-6.2
 20
18
 11
-6.21419
 21
17.7744
  0
LINE
  8
0
 10
-6.21419
 20
17.7744
 11
-6.25655
 21
17.5524
  0
LINE
  8
0
 10
-6.25655
 20
17.5524
 11
-6.3264
 21
17.3374
  0
LINE
  8
0
 10
-6.3264
 20
17.3374
 11
-6.42264
 21
17.1328
  0
LINE
  8
0
 10
-6.42264
 20
17.1328
 11
-6.54376
 21
16.942
  0
LINE
  8
0
 10
-6.54376
 20
16.942
 11
-6.68785
 21
16.7678
  0
LINE
  8
0
 10
-6.68785
 20
16.7678
 11
-6.85263
 21
16.6131
  0
LINE
  8
0
 10
-6.85263
 20
16.6131
 11
-7.03551
 21
16.4802
  0
LINE
  8
0
 10
-7.03551
 20
16.4802
 11
-7.2336
 21
16.3713
  0
LINE
  8
0
 10
-7.2336
 20
16.3713
 11
-7.44376
 21
16.2881
  0
LINE
  8
0
 10
-7.44376
 20
16.2881
 11
-7.6627
 21
16.2319
  0
LINE
  8
0
 10
-7.6627
 20
16.2319
 11
-7.88696
 21
16.2036
  0
LINE
  8
0
 10
-7.88696
 20
16.2036
 11
-8.11302
 21
16.2036
  0
LINE
  8
0
 10
-1.00464
 20
-15.9684
 11
-2.99809
 21
-15.7166
  0
LINE
  8
0
 10
-2.99809
 20
-15.7166
 11
-4.94426
 21
-15.2169
  0
LINE
  8
0
 10
-4.94426
 20
-15.2169
 11
-6.81245
 21
-14.4772
  0
LINE
  8
0
 10
-6.81245
 20
-14.4772
 11
-8.57323
 21
-13.5092
  0
LINE
  8
0
 10
-8.57323
 20
-13.5092
 11
-10.1988
 21
-12.3282
  0
LINE
  8
0
 10
-10.1988
 20
-12.3282
 11
-11.6635
 21
-10.9527
  0
LINE
  8
0
 10
-11.6635
 20
-10.9527
 11
-12.9443
 21
-9.40456
  0
LINE
  8
0
 10
-12.9443
 20
-9.40456
 11
-14.0209
 21
-7.70805
  0
LINE
  8
0
 10
-14.0209
 20
-7.70805
 11
-14.8764
 21
-5.88998
  0
LINE
  8
0
 10
-14.8764
 20
-5.88998
 11
-15.4973
 21
-3.97903
  0
LINE
  8
0
 10
-15.4973
 20
-3.97903
 11
-15.8738
 21
-2.00533
  0
LINE
  8
0
 10
-15.8738
 20
-2.00533
 11
-16
 21
0
  0
LINE
  8
0
 10
-16
 20
0
 11
-15.8738
 21
2.00533
  0
LINE
  8
0
 10
-15.8738
 20
2.00533
 11
-15.4973
 21
3.97903
  0
LINE
  8
0
 10
-15.4973
 20
3.97903
 11
-14.8764
 21
5.88998
  0
LINE
  8
0
 10
-14.8764
 20
5.88998
 11
-14.0209
 21
7.70805
  0
LINE
  8
0
 10
-14.0209
 20
7.70805
 11
-12.9443
 21
9.40456
  0
LINE
  8
0
 10
-12.9443
 20
9.40456
 11
-11.6635
 21
10.9527
  0
LINE
  8
0
 10
-11.6635
 20
10.9527
 11
-10.1988
 21
12.3282
  0
LINE
  8
0
 10
-10.1988
 20
12.3282
 11
-8.57323
 21
13.5092
  0
LINE
  8
0
 10
-8.57323
 20
13.5092
 11
-6.81245
 21
14.4772
  0
LINE
  8
0
 10
-6.81245
 20
14.4772
 11
-4.94426
 21
15.2169
  0
LINE
  8
0
 10
-4.94426
 20
15.2169
 11
-2.99809
 21
15.7166
  0
LINE
  8
0
 10
-2.99809
 20
15.7166
 11
-1.00464
 21
15.9684
  0
LINE
  8
0
 10
-1.00464
 20
15.9684
 11
1.00464
 21
15.9684
  0
LINE
  8
0
 10
1.00464
 20
15.9684
 11
2.99809
 21
15.7166
  0
LINE
  8
0
 10
2.99809
 20
15.7166
 11
4.94426
 21
15.2169
  0
LINE
  8
0
 10
4.94426
 20
15.2169
 11
6.81245
 21
14.4772
  0
LINE
  8
0
 10
6.81245
 20
14.4772
 11
8.57323
 21
13.5092
  0
LINE
  8
0
 10
8.57323
 20
13.5092
 11
10.1988
 21
12.3282
  0
LINE
  8
0
 10
10.1988
 20
12.3282
 11
11.6635
 21
10.9527
  0
LINE
  8
0
 10
11.6635
 20
10.9527
 11
12.9443
 21
9.40456
  0
LINE
  8
0
 10
12.9443
 20
9.40456
 11
14.0209
 21
7.70805
  0
LINE
  8
0
 10
14.0209
 20
7.70805
 11
14.8764
 21
5.88998
  0
LINE
  8
0
 10
14.8764
 20
5.88998
 11
15.4973
 21
3.97903
  0
LINE
  8
0
 10
15.4973
 20
3.97903
 11
15.8738
 21
2.00533
  0
LINE
  8
0
 10
15.8738
 20
2.00533
 11
16
 21
0
  0
LINE
  8
0
 10
16
 20
0
 11
15.8738
 21
-2.00533
  0
LINE
  8
0
 10
15.8738
 20
-2.00533
 11
15.4973
 21
-3.97903
  0
LINE
  8
0
 10
15.4973
 20
-3.97903
 11
14.8764
 21
-5.88998
  0
LINE
  8
0
 10
14.8764
 20
-5.88998
 11
14.0209
 21
-7.70805
  0
LINE
  8
0
 10
14.0209
 20
-7.70805
 11
12.9443
 21
-9.40456
  0
LINE
  8
0
 10
12.9443
 20
-9.40456
 11
11.6635
 21
-10.9527
  0
LINE
  8
0
 10
11.6635
 20
-10.9527
 11
10.1988
 21
-12.3282
  0
LINE
  8
0
 10
10.1988
 20
-12.3282
 11
8.57323
 21
-13.5092
  0
LINE
  8
0
 10
8.57323
 20
-13.5092
 11
6.81245
 21
-14.4772
  0
LINE
  8
0
 10
6.81245
 20
-14.4772
 11
4.94426
 21
-15.2169
  0
LINE
  8
0
 10
4.94426
 20
-15.2169
 11
2.99809
 21
-15.7166
  0
LINE
  8
0
 10
2.99809
 20
-15.7166
 11
1.00464
 21
-15.9684
  0
LINE
  8
0
 10
1.00464
 20
-15.9684
 11
-1.00464
 21
-15.9684
  0
LINE
  8
0
 10
2.34225
 20
-12.2786
 11
3.8627
 21
-11.8882
  0
LINE
  8
0
 10
3.8627
 20
-11.8882
 11
5.32224
 21
-11.3103
  0
LINE
  8
0
 10
5.32224
 20
-11.3103
 11
6.69783
 21
-10.5541
  0
LINE
  8
0
 10
6.69783
 20
-10.5541
 11
7.96779
 21
-9.63141
  0
LINE
  8
0
 10
7.96779
 20
-9.63141
 11
9.11211
 21
-8.55682
  0
LINE
  8
0
 10
9.11211
 20
-8.55682
 11
10.1127
 21
-7.34731
  0
LINE
  8
0
 10
10.1127
 20
-7.34731
 11
10.9538
 21
-6.02191
  0
LINE
  8
0
 10
10.9538
 20
-6.02191
 11
11.6222
 21
-4.60155
  0
LINE
  8
0
 10
11.6222
 20
-4.60155
 11
12.1073
 21
-3.10861
  0
LINE
  8
0
 10
12.1073
 20
-3.10861
 11
12.4014
 21
-1.56665
  0
LINE
  8
0
 10
12.4014
 20
-1.56665
 11
12.5
 21
0
  0
LINE
  8
0
 10
12.5
 20
0
 11
12.4014
 21
1.56665
  0
LINE
  8
0
 10
12.4014
 20
1.56665
 11
12.1073
 21
3.10861
  0
LINE
  8
0
 10
12.1073
 20
3.10861
 11
11.6222
 21
4.60155
  0
LINE
  8
0
 10
11.6222
 20
4.60155
 11
10.9538
 21
6.02191
  0
LINE
  8
0
 10
10.9538
 20
6.02191
 11
10.1127
 21
7.34731
  0
LINE
  8
0
 10
10.1127
 20
7.34731
 11
9.11211
 21
8.55682
  0
LINE
  8
0
 10
9.11211
 20
8.55682
 11
7.96779
 21
9.63141
  0
LINE
  8
0
 10
7.96779
 20
9.63141
 11
6.69783
 21
10.5541
  0
LINE
  8
0
 10
6.69783
 20
10.5541
 11
5.32224
 21
11.3103
  0
LINE
  8
0
 10
5.32224
 20
11.3103
 11
3.8627
 21
11.8882
  0
LINE
  8
0
 10
3.8627
 20
11.8882
 11
2.34225
 21
12.2786
  0
LINE
  8
0
 10
2.34225
 20
12.2786
 11
0.784866
 21
12.4753
  0
LINE
  8
0
 10
0.784866
 20
12.4753
 11
-0.784866
 21
12.4753
  0
LINE
  8
0
 10
-0.784866
 20
12.4753
 11
-2.34225
 21
12.2786
  0
LINE
  8
0
 10
-2.34225
 20
12.2786
 11
-3.8627
 21
11.8882
  0
LINE
  8
0
 10
-3.8627
 20
11.8882
 11
-5.32224
 21
11.3103
  0
LINE
  8
0
 10
-5.32224
 20
11.3103
 11
-6.69783
 21
10.5541
  0
LINE
  8
0
 10
-6.69783
 20
10.5541
 11
-7.96779
 21
9.63141
  0
LINE
  8
0
 10
-7.96779
 20
9.63141
 11
-9.11211
 21
8.55682
  0
LINE
  8
0
 10
-9.11211
 20
8.55682
 11
-10.1127
 21
7.34731
  0
LINE
  8
0
 10
-10.1127
 20
7.34731
 11
-10.9538
 21
6.02191
  0
LINE
  8
0
 10
-10.9538
 20
6.02191
 11
-11.6222
 21
4.60155
  0
LINE
  8
0
 10
-11.6222
 20
4.60155
 11
-12.1073
 21
3.10861
  0
LINE
  8
0
 10
-12.1073
 20
3.10861
 11
-12.4014
 21
1.56665
  0
LINE
  8
0
 10
-12.4014
 20
1.56665
 11
-12.5
 21
0
  0
LINE
  8
0
 10
-12.5
 20
0
 11
-12.4014
 21
-1.56665
  0
LINE
  8
0
 10
-12.4014
 20
-1.56665
 11
-12.1073
 21
-3.10861
  0
LINE
  8
0
 10
-12.1073
 20
-3.10861
 11
-11.6222
 21
-4.60155
  0
LINE
  8
0
 10
-11.6222
 20
-4.60155
 11
-10.9538
 21
-6.02191
  0
LINE
  8
0
 10
-10.9538
 20
-6.02191
 11
-10.1127
 21
-7.34731
  0
LINE
  8
0
 10
-10.1127
 20
-7.34731
 11
-9.11211
 21
-8.55682
  0
LINE
  8
0
 10
-9.11211
 20
-8.55682
 11
-7.96779
 21
-9.63141
  0
LINE
  8
0
 10
-7.96779
 20
-9.63141
 11
-6.69783
 21
-10.5541
  0
LINE
  8
0
 10
-6.69783
 20
-10.5541
 11
-5.32224
 21
-11.3103
  0
LINE
  8
0
 10
-5.32224
 20
-11.3103
 11
-3.8627
 21
-11.8882
  0
LINE
  8
0
 10
-3.8627
 20
-11.8882
 11
-2.34225
 21
-12.2786
  0
LINE
  8
0
 10
-2.34225
 20
-12.2786
 11
-0.784866
 21
-12.4753
  0
LINE
  8
0
 10
-0.784866
 20
-12.4753
 11
0.784866
 21
-12.4753
  0
LINE
  8
0
 10
0.784866
 20
-12.4753
 11
2.34225
 21
-12.2786
  0
LINE
  8
0
 10
-0.0941772
 20
6.00294
 11
-0.281067
 21
6.02657
  0
LINE
  8
0
 10
-0.281067
 20
6.02657
 11
-0.463516
 21
6.07341
  0
LINE
  8
0
 10
-0.463516
 20
6.07341
 11
-0.638657
 21
6.14275
  0
LINE
  8
0
 10
-0.638657
 20
6.14275
 11
-0.803726
 21
6.23351
  0
LINE
  8
0
 10
-0.803726
 20
6.23351
 11
-0.956131
 21
6.34422
  0
LINE
  8
0
 10
-0.956131
 20
6.34422
 11
-1.09344
 21
6.47318
  0
LINE
  8
0
 10
-1.09344
 20
6.47318
 11
-1.21352
 21
6.61832
  0
LINE
  8
0
 10
-1.21352
 20
6.61832
 11
-1.31445
 21
6.77736
  0
LINE
  8
0
 10
-1.31445
 20
6.77736
 11
-1.39465
 21
6.9478
  0
LINE
  8
0
 10
-1.39465
 20
6.9478
 11
-1.45287
 21
7.12695
  0
LINE
  8
0
 10
-1.45287
 20
7.12695
 11
-1.48816
 21
7.312
  0
LINE
  8
0
 10
-1.48816
 20
7.312
 11
-1.5
 21
7.5
  0
LINE
  8
0
 10
-1.5
 20
7.5
 11
-1.48816
 21
7.68799
  0
LINE
  8
0
 10
-1.48816
 20
7.68799
 11
-1.45287
 21
7.87303
  0
LINE
  8
0
 10
-1.45287
 20
7.87303
 11
-1.39465
 21
8.05219
  0
LINE
  8
0
 10
-1.39465
 20
8.05219
 11
-1.31445
 21
8.22263
  0
LINE
  8
0
 10
-1.31445
 20
8.22263
 11
-1.21352
 21
8.38167
  0
LINE
  8
0
 10
-1.21352
 20
8.38167
 11
-1.09344
 21
8.52681
  0
LINE
  8
0
 10
-1.09344
 20
8.52681
 11
-0.956131
 21
8.65576
  0
LINE
  8
0
 10
-0.956131
 20
8.65576
 11
-0.803726
 21
8.76648
  0
LINE
  8
0
 10
-0.803726
 20
8.76648
 11
-0.638657
 21
8.85724
  0
LINE
  8
0
 10
-0.638657
 20
8.85724
 11
-0.463516
 21
8.92657
  0
LINE
  8
0
 10
-0.463516
 20
8.92657
 11
-0.281067
 21
8.97342
  0
LINE
  8
0
 10
-0.281067
 20
8.97342
 11
-0.0941772
 21
8.99704
  0
LINE
  8
0
 10
-0.0941772
 20
8.99704
 11
0.0941772
 21
8.99704
  0
LINE
  8
0
 10
0.0941772
 20
8.99704
 11
0.281067
 21
8.97342
  0
LINE
  8
0
 10
0.281067
 20
8.97342
 11
0.463516
 21
8.92657
  0
LINE
  8
0
 10
0.463516
 20
8.92657
 11
0.638657
 21
8.85724
  0
LINE
  8
0
 10
0.638657
 20
8.85724
 11
0.803726
 21
8.76648
  0
LINE
  8
0
 10
0.803726
 20
8.76648
 11
0.956131
 21
8.65576
  0
LINE
  8
0
 10
0.956131
 20
8.65576
 11
1.09344
 21
8.52681
  0
LINE
  8
0
 10
1.09344
 20
8.52681
 11
1.21352
 21
8.38167
  0
LINE
  8
0
 10
1.21352
 20
8.38167
 11
1.31445
 21
8.22263
  0
LINE
  8
0
 10
1.31445
 20
8.22263
 11
1.39465
 21
8.05219
  0
LINE
  8
0
 10
1.39465
 20
8.05219
 11
1.45287
 21
7.87303
  0
LINE
  8
0
 10
1.45287
 20
7.87303
 11
1.48816
 21
7.68799
  0
LINE
  8
0
 10
1.48816
 20
7.68799
 11
1.5
 21
7.5
  0
LINE
  8
0
 10
1.5
 20
7.5
 11
1.48816
 21
7.312
  0
LINE
  8
0
 10
1.48816
 20
7.312
 11
1.45287
 21
7.12695
  0
LINE
  8
0
 10
1.45287
 20
7.12695
 11
1.39465
 21
6.9478
  0
LINE
  8
0
 10
1.39465
 20
6.9478
 11
1.31445
 21
6.77736
  0
LINE
  8
0
 10
1.31445
 20
6.77736
 11
1.21352
 21
6.61832
  0
LINE
  8
0
 10
1.21352
 20
6.61832
 11
1.09344
 21
6.47318
  0
LINE
  8
0
 10
1.09344
 20
6.47318
 11
0.956131
 21
6.34422
  0
LINE
  8
0
 10
0.956131
 20
6.34422
 11
0.803726
 21
6.23351
  0
LINE
  8
0
 10
0.803726
 20
6.23351
 11
0.638657
 21
6.14275
  0
LINE
  8
0
 10
0.638657
 20
6.14275
 11
0.463516
 21
6.07341
  0
LINE
  8
0
 10
0.463516
 20
6.07341
 11
0.281067
 21
6.02657
  0
LINE
  8
0
 10
0.281067
 20
6.02657
 11
0.0941772
 21
6.00294
  0
LINE
  8
0
 10
0.0941772
 20
6.00294
 11
-0.0941772
 21
6.00294
  0
LINE
  8
0
 10
5.18997
 20
3.50655
 11
4.96571
 21
3.53488
  0
LINE
  8
0
 10
4.96571
 20
3.53488
 11
4.74677
 21
3.59109
  0
LINE
  8
0
 10
4.74677
 20
3.59109
 11
4.53659
 21
3.6743
  0
LINE
  8
0
 10
4.53659
 20
3.6743
 11
4.3385
 21
3.7832
  0
LINE
  8
0
 10
4.3385
 20
3.7832
 11
4.15562
 21
3.91606
  0
LINE
  8
0
 10
4.15562
 20
3.91606
 11
3.99084
 21
4.0708
  0
LINE
  8
0
 10
3.99084
 20
4.0708
 11
3.84676
 21
4.24498
  0
LINE
  8
0
 10
3.84676
 20
4.24498
 11
3.72565
 21
4.43584
  0
LINE
  8
0
 10
3.72565
 20
4.43584
 11
3.62939
 21
4.64037
  0
LINE
  8
0
 10
3.62939
 20
4.64037
 11
3.55954
 21
4.85535
  0
LINE
  8
0
 10
3.55954
 20
4.85535
 11
3.51718
 21
5.07739
  0
LINE
  8
0
 10
3.51718
 20
5.07739
 11
3.50299
 21
5.30299
  0
LINE
  8
0
 10
3.50299
 20
5.30299
 11
3.51718
 21
5.52859
  0
LINE
  8
0
 10
3.51718
 20
5.52859
 11
3.55954
 21
5.75064
  0
LINE
  8
0
 10
3.55954
 20
5.75064
 11
3.62939
 21
5.96562
  0
LINE
  8
0
 10
3.62939
 20
5.96562
 11
3.72565
 21
6.17015
  0
LINE
  8
0
 10
3.72565
 20
6.17015
 11
3.84676
 21
6.36101
  0
LINE
  8
0
 10
3.84676
 20
6.36101
 11
3.99084
 21
6.53517
  0
LINE
  8
0
 10
3.99084
 20
6.53517
 11
4.15562
 21
6.68991
  0
LINE
  8
0
 10
4.15562
 20
6.68991
 11
4.3385
 21
6.82278
  0
LINE
  8
0
 10
4.3385
 20
6.82278
 11
4.53659
 21
6.93169
  0
LINE
  8
0
 10
4.53659
 20
6.93169
 11
4.74677
 21
7.01489
  0
LINE
  8
0
 10
4.74677
 20
7.01489
 11
4.96571
 21
7.07111
  0
LINE
  8
0
 10
4.96571
 20
7.07111
 11
5.18997
 21
7.09944
  0
LINE
  8
0
 10
5.18997
 20
7.09944
 11
5.41602
 21
7.09944
  0
LINE
  8
0
 10
5.41602
 20
7.09944
 11
5.64027
 21
7.07111
  0
LINE
  8
0
 10
5.64027
 20
7.07111
 11
5.85922
 21
7.01489
  0
LINE
  8
0
 10
5.85922
 20
7.01489
 11
6.0694
 21
6.93169
  0
LINE
  8
0
 10
6.0694
 20
6.93169
 11
6.26749
 21
6.82278
  0
LINE
  8
0
 10
6.26749
 20
6.82278
 11
6.45035
 21
6.68991
  0
LINE
  8
0
 10
6.45035
 20
6.68991
 11
6.61514
 21
6.53517
  0
LINE
  8
0
 10
6.61514
 20
6.53517
 11
6.75922
 21
6.36101
  0
LINE
  8
0
 10
6.75922
 20
6.36101
 11
6.88034
 21
6.17015
  0
LINE
  8
0
 10
6.88034
 20
6.17015
 11
6.97659
 21
5.96562
  0
LINE
  8
0
 10
6.97659
 20
5.96562
 11
7.04645
 21
5.75064
  0
LINE
  8
0
 10
7.04645
 20
5.75064
 11
7.08879
 21
5.52859
  0
LINE
  8
0
 10
7.08879
 20
5.52859
 11
7.103
 21
5.30299
  0
LINE
  8
0
 10
7.103
 20
5.30299
 11
7.08879
 21
5.07739
  0
LINE
  8
0
 10
7.08879
 20
5.07739
 11
7.04645
 21
4.85535
  0
LINE
  8
0
 10
7.04645
 20
4.85535
 11
6.97659
 21
4.64037
  0
LINE
  8
0
 10
6.97659
 20
4.64037
 11
6.88034
 21
4.43584
  0
LINE
  8
0
 10
6.88034
 20
4.43584
 11
6.75922
 21
4.24498
  0
LINE
  8
0
 10
6.75922
 20
4.24498
 11
6.61514
 21
4.0708
  0
LINE
  8
0
 10
6.61514
 20
4.0708
 11
6.45035
 21
3.91606
  0
LINE
  8
0
 10
6.45035
 20
3.91606
 11
6.26749
 21
3.7832
  0
LINE
  8
0
 10
6.26749
 20
3.7832
 11
6.0694
 21
3.6743
  0
LINE
  8
0
 10
6.0694
 20
3.6743
 11
5.85922
 21
3.59109
  0
LINE
  8
0
 10
5.85922
 20
3.59109
 11
5.64027
 21
3.53488
  0
LINE
  8
0
 10
5.64027
 20
3.53488
 11
5.41602
 21
3.50655
  0
LINE
  8
0
 10
5.41602
 20
3.50655
 11
5.18997
 21
3.50655
  0
LINE
  8
0
 10
-0.18837
 20
-2.99408
 11
-0.562134
 21
-2.94685
  0
LINE
  8
0
 10
-0.562134
 20
-2.94685
 11
-0.927048
 21
-2.85316
  0
LINE
  8
0
 10
-0.927048
 20
-2.85316
 11
-1.27733
 21
-2.71448
  0
LINE
  8
0
 10
-1.27733
 20
-2.71448
 11
-1.60747
 21
-2.53297
  0
LINE
  8
0
 10
-1.60747
 20
-2.53297
 11
-1.91226
 21
-2.31154
  0
LINE
  8
0
 10
-1.91226
 20
-2.31154
 11
-2.1869
 21
-2.05363
  0
LINE
  8
0
 10
-2.1869
 20
-2.05363
 11
-2.42705
 21
-1.76335
  0
LINE
  8
0
 10
-2.42705
 20
-1.76335
 11
-2.62891
 21
-1.44525
  0
LINE
  8
0
 10
-2.62891
 20
-1.44525
 11
-2.78932
 21
-1.10437
  0
LINE
  8
0
 10
-2.78932
 20
-1.10437
 11
-2.90575
 21
-0.746063
  0
LINE
  8
0
 10
-2.90575
 20
-0.746063
 11
-2.97633
 21
-0.375992
  0
LINE
  8
0
 10
-2.97633
 20
-0.375992
 11
-3
 21
0
  0
LINE
  8
0
 10
-3
 20
0
 11
-2.97633
 21
0.375992
  0
LINE
  8
0
 10
-2.97633
 20
0.375992
 11
-2.90575
 21
0.746063
  0
LINE
  8
0
 10
-2.90575
 20
0.746063
 11
-2.78932
 21
1.10437
  0
LINE
  8
0
 10
-2.78932
 20
1.10437
 11
-2.62891
 21
1.44525
  0
LINE
  8
0
 10
-2.62891
 20
1.44525
 11
-2.42705
 21
1.76335
  0
LINE
  8
0
 10
-2.42705
 20
1.76335
 11
-2.1869
 21
2.05363
  0
LINE
  8
0
 10
-2.1869
 20
2.05363
 11
-1.91226
 21
2.31154
  0
LINE
  8
0
 10
-1.91226
 20
2.31154
 11
-1.60747
 21
2.53297
  0
LINE
  8
0
 10
-1.60747
 20
2.53297
 11
-1.27733
 21
2.71448
  0
LINE
  8
0
 10
-1.27733
 20
2.71448
 11
-0.927048
 21
2.85316
  0
LINE
  8
0
 10
-0.927048
 20
2.85316
 11
-0.562134
 21
2.94685
  0
LINE
  8
0
 10
-0.562134
 20
2.94685
 11
-0.18837
 21
2.99408
  0
LINE
  8
0
 10
-0.18837
 20
2.99408
 11
0.18837
 21
2.99408
  0
LINE
  8
0
 10
0.18837
 20
2.99408
 11
0.562134
 21
2.94685
  0
LINE
  8
0
 10
0.562134
 20
2.94685
 11
0.927048
 21
2.85316
  0
LINE
  8
0
 10
0.927048
 20
2.85316
 11
1.27733
 21
2.71448
  0
LINE
  8
0
 10
1.27733
 20
2.71448
 11
1.60747
 21
2.53297
  0
LINE
  8
0
 10
1.60747
 20
2.53297
 11
1.91226
 21
2.31154
  0
LINE
  8
0
 10
1.91226
 20
2.31154
 11
2.1869
 21
2.05363
  0
LINE
  8
0
 10
2.1869
 20
2.05363
 11
2.42705
 21
1.76335
  0
LINE
  8
0
 10
2.42705
 20
1.76335
 11
2.62891
 21
1.44525
  0
LINE
  8
0
 10
2.62891
 20
1.44525
 11
2.78932
 21
1.10437
  0
LINE
  8
0
 10
2.78932
 20
1.10437
 11
2.90575
 21
0.746063
  0
LINE
  8
0
 10
2.90575
 20
0.746063
 11
2.97633
 21
0.375992
  0
LINE
  8
0
 10
2.97633
 20
0.375992
 11
3
 21
0
  0
LINE
  8
0
 10
3
 20
0
 11
2.97633
 21
-0.375992
  0
LINE
  8
0
 10
2.97633
 20
-0.375992
 11
2.90575
 21
-0.746063
  0
LINE
  8
0
 10
2.90575
 20
-0.746063
 11
2.78932
 21
-1.10437
  0
LINE
  8
0
 10
2.78932
 20
-1.10437
 11
2.62891
 21
-1.44525
  0
LINE
  8
0
 10
2.62891
 20
-1.44525
 11
2.42705
 21
-1.76335
  0
LINE
  8
0
 10
2.42705
 20
-1.76335
 11
2.1869
 21
-2.05363
  0
LINE
  8
0
 10
2.1869
 20
-2.05363
 11
1.91226
 21
-2.31154
  0
LINE
  8
0
 10
1.91226
 20
-2.31154
 11
1.60747
 21
-2.53297
  0
LINE
  8
0
 10
1.60747
 20
-2.53297
 11
1.27733
 21
-2.71448
  0
LINE
  8
0
 10
1.27733
 20
-2.71448
 11
0.927048
 21
-2.85316
  0
LINE
  8
0
 10
0.927048
 20
-2.85316
 11
0.562134
 21
-2.94685
  0
LINE
  8
0
 10
0.562134
 20
-2.94685
 11
0.18837
 21
-2.99408
  0
LINE
  8
0
 10
0.18837
 20
-2.99408
 11
-0.18837
 21
-2.99408
  0
LINE
  8
0
 10
7.40581
 20
-1.49704
 11
7.21892
 21
-1.47342
  0
LINE
  8
0
 10
7.21892
 20
-1.47342
 11
7.03647
 21
-1.42657
  0
LINE
  8
0
 10
7.03647
 20
-1.42657
 11
6.86133
 21
-1.35724
  0
LINE
  8
0
 10
6.86133
 20
-1.35724
 11
6.69626
 21
-1.26648
  0
LINE
  8
0
 10
6.69626
 20
-1.26648
 11
6.54385
 21
-1.15576
  0
LINE
  8
0
 10
6.54385
 20
-1.15576
 11
6.40654
 21
-1.02681
  0
LINE
  8
0
 10
6.40654
 20
-1.02681
 11
6.28647
 21
-0.881668
  0
LINE
  8
0
 10
6.28647
 20
-0.881668
 11
6.18553
 21
-0.722626
  0
LINE
  8
0
 10
6.18553
 20
-0.722626
 11
6.10533
 21
-0.552185
  0
LINE
  8
0
 10
6.10533
 20
-0.552185
 11
6.04712
 21
-0.373032
  0
LINE
  8
0
 10
6.04712
 20
-0.373032
 11
6.01183
 21
-0.187988
  0
LINE
  8
0
 10
6.01183
 20
-0.187988
 11
6
 21
0
  0
LINE
  8
0
 10
6
 20
0
 11
6.01183
 21
0.187988
  0
LINE
  8
0
 10
6.01183
 20
0.187988
 11
6.04712
 21
0.373032
  0
LINE
  8
0
 10
6.04712
 20
0.373032
 11
6.10533
 21
0.552185
  0
LINE
  8
0
 10
6.10533
 20
0.552185
 11
6.18553
 21
0.722626
  0
LINE
  8
0
 10
6.18553
 20
0.722626
 11
6.28647
 21
0.881668
  0
LINE
  8
0
 10
6.28647
 20
0.881668
 11
6.40654
 21
1.02681
  0
LINE
  8
0
 10
6.40654
 20
1.02681
 11
6.54385
 21
1.15576
  0
LINE
  8
0
 10
6.54385
 20
1.15576
 11
6.69626
 21
1.26648
  0
LINE
  8
0
 10
6.69626
 20
1.26648
 11
6.86133
 21
1.35724
  0
LINE
  8
0
 10
6.86133
 20
1.35724
 11
7.03647
 21
1.42657
  0
LINE
  8
0
 10
7.03647
 20
1.42657
 11
7.21892
 21
1.47342
  0
LINE
  8
0
 10
7.21892
 20
1.47342
 11
7.40581
 21
1.49704
  0
LINE
  8
0
 10
7.40581
 20
1.49704
 11
7.59418
 21
1.49704
  0
LINE
  8
0
 10
7.59418
 20
1.49704
 11
7.78107
 21
1.47342
  0
LINE
  8
0
 10
7.78107
 20
1.47342
 11
7.96352
 21
1.42657
  0
LINE
  8
0
 10
7.96352
 20
1.42657
 11
8.13866
 21
1.35724
  0
LINE
  8
0
 10
8.13866
 20
1.35724
 11
8.30373
 21
1.26648
  0
LINE
  8
0
 10
8.30373
 20
1.26648
 11
8.45613
 21
1.15576
  0
LINE
  8
0
 10
8.45613
 20
1.15576
 11
8.59344
 21
1.02681
  0
LINE
  8
0
 10
8.59344
 20
1.02681
 11
8.71352
 21
0.881668
  0
LINE
  8
0
 10
8.71352
 20
0.881668
 11
8.81445
 21
0.722626
  0
LINE
  8
0
 10
8.81445
 20
0.722626
 11
8.89465
 21
0.552185
  0
LINE
  8
0
 10
8.89465
 20
0.552185
 11
8.95287
 21
0.373032
  0
LINE
  8
0
 10
8.95287
 20
0.373032
 11
8.98816
 21
0.187988
  0
LINE
  8
0
 10
8.98816
 20
0.187988
 11
9
 21
0
  0
LINE
  8
0
 10
9
 20
0
 11
8.98816
 21
-0.187988
  0
LINE
  8
0
 10
8.98816
 20
-0.187988
 11
8.95287
 21
-0.373032
  0
LINE
  8
0
 10
8.95287
 20
-0.373032
 11
8.89465
 21
-0.552185
  0
LINE
  8
0
 10
8.89465
 20
-0.552185
 11
8.81445
 21
-0.722626
  0
LINE
  8
0
 10
8.81445
 20
-0.722626
 11
8.71352
 21
-0.881668
  0
LINE
  8
0
 10
8.71352
 20
-0.881668
 11
8.59344
 21
-1.02681
  0
LINE
  8
0
 10
8.59344
 20
-1.02681
 11
8.45613
 21
-1.15576
  0
LINE
  8
0
 10
8.45613
 20
-1.15576
 11
8.30373
 21
-1.26648
  0
LINE
  8
0
 10
8.30373
 20
-1.26648
 11
8.13866
 21
-1.35724
  0
LINE
  8
0
 10
8.13866
 20
-1.35724
 11
7.96352
 21
-1.42657
  0
LINE
  8
0
 10
7.96352
 20
-1.42657
 11
7.78107
 21
-1.47342
  0
LINE
  8
0
 10
7.78107
 20
-1.47342
 11
7.59418
 21
-1.49704
  0
LINE
  8
0
 10
7.59418
 20
-1.49704
 11
7.40581
 21
-1.49704
  0
LINE
  8
0
 10
-7.59418
 20
-1.49704
 11
-7.78107
 21
-1.47342
  0
LINE
  8
0
 10
-7.78107
 20
-1.47342
 11
-7.96352
 21
-1.42657
  0
LINE
  8
0
 10
-7.96352
 20
-1.42657
 11
-8.13866
 21
-1.35724
  0
LINE
  8
0
 10
-8.13866
 20
-1.35724
 11
-8.30373
 21
-1.26648
  0
LINE
  8
0
 10
-8.30373
 20
-1.26648
 11
-8.45613
 21
-1.15576
  0
LINE
  8
0
 10
-8.45613
 20
-1.15576
 11
-8.59344
 21
-1.02681
  0
LINE
  8
0
 10
-8.59344
 20
-1.02681
 11
-8.71352
 21
-0.881668
  0
LINE
  8
0
 10
-8.71352
 20
-0.881668
 11
-8.81445
 21
-0.722626
  0
LINE
  8
0
 10
-8.81445
 20
-0.722626
 11
-8.89465
 21
-0.552185
  0
LINE
  8
0
 10
-8.89465
 20
-0.552185
 11
-8.95287
 21
-0.373032
  0
LINE
  8
0
 10
-8.95287
 20
-0.373032
 11
-8.98816
 21
-0.187988
  0
LINE
  8
0
 10
-8.98816
 20
-0.187988
 11
-9
 21
0
  0
LINE
  8
0
 10
-9
 20
0
 11
-8.98816
 21
0.187988
  0
LINE
  8
0
 10
-8.98816
 20
0.187988
 11
-8.95287
 21
0.373032
  0
LINE
  8
0
 10
-8.95287
 20
0.373032
 11
-8.89465
 21
0.552185
  0
LINE
  8
0
 10
-8.89465
 20
0.552185
 11
-8.81445
 21
0.722626
  0
LINE
  8
0
 10
-8.81445
 20
0.722626
 11
-8.71352
 21
0.881668
  0
LINE
  8
0
 10
-8.71352
 20
0.881668
 11
-8.59344
 21
1.02681
  0
LINE
  8
0
 10
-8.59344
 20
1.02681
 11
-8.45613
 21
1.15576
  0
LINE
  8
0
 10
-8.45613
 20
1.15576
 11
-8.30373
 21
1.26648
  0
LINE
  8
0
 10
-8.30373
 20
1.26648
 11
-8.13866
 21
1.35724
  0
LINE
  8
0
 10
-8.13866
 20
1.35724
 11
-7.96352
 21
1.42657
  0
LINE
  8
0
 10
-7.96352
 20
1.42657
 11
-7.78107
 21
1.47342
  0
LINE
  8
0
 10
-7.78107
 20
1.47342
 11
-7.59418
 21
1.49704
  0
LINE
  8
0
 10
-7.59418
 20
1.49704
 11
-7.40581
 21
1.49704
  0
LINE
  8
0
 10
-7.40581
 20
1.49704
 11
-7.21892
 21
1.47342
  0
LINE
  8
0
 10
-7.21892
 20
1.47342
 11
-7.03647
 21
1.42657
  0
LINE
  8
0
 10
-7.03647
 20
1.42657
 11
-6.86133
 21
1.35724
  0
LINE
  8
0
 10
-6.86133
 20
1.35724
 11
-6.69626
 21
1.26648
  0
LINE
  8
0
 10
-6.69626
 20
1.26648
 11
-6.54385
 21
1.15576
  0
LINE
  8
0
 10
-6.54385
 20
1.15576
 11
-6.40654
 21
1.02681
  0
LINE
  8
0
 10
-6.40654
 20
1.02681
 11
-6.28647
 21
0.881668
  0
LINE
  8
0
 10
-6.28647
 20
0.881668
 11
-6.18553
 21
0.722626
  0
LINE
  8
0
 10
-6.18553
 20
0.722626
 11
-6.10533
 21
0.552185
  0
LINE
  8
0
 10
-6.10533
 20
0.552185
 11
-6.04712
 21
0.373032
  0
LINE
  8
0
 10
-6.04712
 20
0.373032
 11
-6.01183
 21
0.187988
  0
LINE
  8
0
 10
-6.01183
 20
0.187988
 11
-6
 21
0
  0
LINE
  8
0
 10
-6
 20
0
 11
-6.01183
 21
-0.187988
  0
LINE
  8
0
 10
-6.01183
 20
-0.187988
 11
-6.04712
 21
-0.373032
  0
LINE
  8
0
 10
-6.04712
 20
-0.373032
 11
-6.10533
 21
-0.552185
  0
LINE
  8
0
 10
-6.10533
 20
-0.552185
 11
-6.18553
 21
-0.722626
  0
LINE
  8
0
 10
-6.18553
 20
-0.722626
 11
-6.28647
 21
-0.881668
  0
LINE
  8
0
 10
-6.28647
 20
-0.881668
 11
-6.40654
 21
-1.02681
  0
LINE
  8
0
 10
-6.40654
 20
-1.02681
 11
-6.54385
 21
-1.15576
  0
LINE
  8
0
 10
-6.54385
 20
-1.15576
 11
-6.69626
 21
-1.26648
  0
LINE
  8
0
 10
-6.69626
 20
-1.26648
 11
-6.86133
 21
-1.35724
  0
LINE
  8
0
 10
-6.86133
 20
-1.35724
 11
-7.03647
 21
-1.42657
  0
LINE
  8
0
 10
-7.03647
 20
-1.42657
 11
-7.21892
 21
-1.47342
  0
LINE
  8
0
 10
-7.21892
 20
-1.47342
 11
-7.40581
 21
-1.49704
  0
LINE
  8
0
 10
-7.40581
 20
-1.49704
 11
-7.59418
 21
-1.49704
  0
LINE
  8
0
 10
-5.41602
 20
-7.09944
 11
-5.64027
 21
-7.07111
  0
LINE
  8
0
 10
-5.64027
 20
-7.07111
 11
-5.85922
 21
-7.01489
  0
LINE
  8
0
 10
-5.85922
 20
-7.01489
 11
-6.0694
 21
-6.93169
  0
LINE
  8
0
 10
-6.0694
 20
-6.93169
 11
-6.26749
 21
-6.82278
  0
LINE
  8
0
 10
-6.26749
 20
-6.82278
 11
-6.45035
 21
-6.68991
  0
LINE
  8
0
 10
-6.45035
 20
-6.68991
 11
-6.61514
 21
-6.53517
  0
LINE
  8
0
 10
-6.61514
 20
-6.53517
 11
-6.75922
 21
-6.36101
  0
LINE
  8
0
 10
-6.75922
 20
-6.36101
 11
-6.88034
 21
-6.17015
  0
LINE
  8
0
 10
-6.88034
 20
-6.17015
 11
-6.97659
 21
-5.96562
  0
LINE
  8
0
 10
-6.97659
 20
-5.96562
 11
-7.04645
 21
-5.75064
  0
LINE
  8
0
 10
-7.04645
 20
-5.75064
 11
-7.08879
 21
-5.52859
  0
LINE
  8
0
 10
-7.08879
 20
-5.52859
 11
-7.103
 21
-5.30299
  0
LINE
  8
0
 10
-7.103
 20
-5.30299
 11
-7.08879
 21
-5.07739
  0
LINE
  8
0
 10
-7.08879
 20
-5.07739
 11
-7.04645
 21
-4.85535
  0
LINE
  8
0
 10
-7.04645
 20
-4.85535
 11
-6.97659
 21
-4.64037
  0
LINE
  8
0
 10
-6.97659
 20
-4.64037
 11
-6.88034
 21
-4.43584
  0
LINE
  8
0
 10
-6.88034
 20
-4.43584
 11
-6.75922
 21
-4.24498
  0
LINE
  8
0
 10
-6.75922
 20
-4.24498
 11
-6.61514
 21
-4.0708
  0
LINE
  8
0
 10
-6.61514
 20
-4.0708
 11
-6.45035
 21
-3.91606
  0
LINE
  8
0
 10
-6.45035
 20
-3.91606
 11
-6.26749
 21
-3.7832
  0
LINE
  8
0
 10
-6.26749
 20
-3.7832
 11
-6.0694
 21
-3.6743
  0
LINE
  8
0
 10
-6.0694
 20
-3.6743
 11
-5.85922
 21
-3.59109
  0
LINE
  8
0
 10
-5.85922
 20
-3.59109
 11
-5.64027
 21
-3.53488
  0
LINE
  8
0
 10
-5.64027
 20
-3.53488
 11
-5.41602
 21
-3.50655
  0
LINE
  8
0
 10
-5.41602
 20
-3.50655
 11
-5.18997
 21
-3.50655
  0
LINE
  8
0
 10
-5.18997
 20
-3.50655
 11
-4.96571
 21
-3.53488
  0
LINE
  8
0
 10
-4.96571
 20
-3.53488
 11
-4.74677
 21
-3.59109
  0
LINE
  8
0
 10
-4.74677
 20
-3.59109
 11
-4.53659
 21
-3.6743
  0
LINE
  8
0
 10
-4.53659
 20
-3.6743
 11
-4.3385
 21
-3.7832
  0
LINE
  8
0
 10
-4.3385
 20
-3.7832
 11
-4.15562
 21
-3.91606
  0
LINE
  8
0
 10
-4.15562
 20
-3.91606
 11
-3.99084
 21
-4.0708
  0
LINE
  8
0
 10
-3.99084
 20
-4.0708
 11
-3.84676
 21
-4.24498
  0
LINE
  8
0
 10
-3.84676
 20
-4.24498
 11
-3.72565
 21
-4.43584
  0
LINE
  8
0
 10
-3.72565
 20
-4.43584
 11
-3.62939
 21
-4.64037
  0
LINE
  8
0
 10
-3.62939
 20
-4.64037
 11
-3.55954
 21
-4.85535
  0
LINE
  8
0
 10
-3.55954
 20
-4.85535
 11
-3.51718
 21
-5.07739
  0
LINE
  8
0
 10
-3.51718
 20
-5.07739
 11
-3.50299
 21
-5.30299
  0
LINE
  8
0
 10
-3.50299
 20
-5.30299
 11
-3.51718
 21
-5.52859
  0
LINE
  8
0
 10
-3.51718
 20
-5.52859
 11
-3.55954
 21
-5.75064
  0
LINE
  8
0
 10
-3.55954
 20
-5.75064
 11
-3.62939
 21
-5.96562
  0
LINE
  8
0
 10
-3.62939
 20
-5.96562
 11
-3.72565
 21
-6.17015
  0
LINE
  8
0
 10
-3.72565
 20
-6.17015
 11
-3.84676
 21
-6.36101
  0
LINE
  8
0
 10
-3.84676
 20
-6.36101
 11
-3.99084
 21
-6.53517
  0
LINE
  8
0
 10
-3.99084
 20
-6.53517
 11
-4.15562
 21
-6.68991
  0
LINE
  8
0
 10
-4.15562
 20
-6.68991
 11
-4.3385
 21
-6.82278
  0
LINE
  8
0
 10
-4.3385
 20
-6.82278
 11
-4.53659
 21
-6.93169
  0
LINE
  8
0
 10
-4.53659
 20
-6.93169
 11
-4.74677
 21
-7.01489
  0
LINE
  8
0
 10
-4.74677
 20
-7.01489
 11
-4.96571
 21
-7.07111
  0
LINE
  8
0
 10
-4.96571
 20
-7.07111
 11
-5.18997
 21
-7.09944
  0
LINE
  8
0
 10
-5.18997
 20
-7.09944
 11
-5.41602
 21
-7.09944
  0
LINE
  8
0
 10
-0.0941772
 20
-8.99704
 11
-0.281067
 21
-8.97342
  0
LINE
  8
0
 10
-0.281067
 20
-8.97342
 11
-0.463516
 21
-8.92657
  0
LINE
  8
0
 10
-0.463516
 20
-8.92657
 11
-0.638657
 21
-8.85724
  0
LINE
  8
0
 10
-0.638657
 20
-8.85724
 11
-0.803726
 21
-8.76648
  0
LINE
  8
0
 10
-0.803726
 20
-8.76648
 11
-0.956131
 21
-8.65576
  0
LINE
  8
0
 10
-0.956131
 20
-8.65576
 11
-1.09344
 21
-8.52681
  0
LINE
  8
0
 10
-1.09344
 20
-8.52681
 11
-1.21352
 21
-8.38167
  0
LINE
  8
0
 10
-1.21352
 20
-8.38167
 11
-1.31445
 21
-8.22263
  0
LINE
  8
0
 10
-1.31445
 20
-8.22263
 11
-1.39465
 21
-8.05219
  0
LINE
  8
0
 10
-1.39465
 20
-8.05219
 11
-1.45287
 21
-7.87303
  0
LINE
  8
0
 10
-1.45287
 20
-7.87303
 11
-1.48816
 21
-7.68799
  0
LINE
  8
0
 10
-1.48816
 20
-7.68799
 11
-1.5
 21
-7.5
  0
LINE
  8
0
 10
-1.5
 20
-7.5
 11
-1.48816
 21
-7.312
  0
LINE
  8
0
 10
-1.48816
 20
-7.312
 11
-1.45287
 21
-7.12695
  0
LINE
  8
0
 10
-1.45287
 20
-7.12695
 11
-1.39465
 21
-6.9478
  0
LINE
  8
0
 10
-1.39465
 20
-6.9478
 11
-1.31445
 21
-6.77736
  0
LINE
  8
0
 10
-1.31445
 20
-6.77736
 11
-1.21352
 21
-6.61832
  0
LINE
  8
0
 10
-1.21352
 20
-6.61832
 11
-1.09344
 21
-6.47318
  0
LINE
  8
0
 10
-1.09344
 20
-6.47318
 11
-0.956131
 21
-6.34422
  0
LINE
  8
0
 10
-0.956131
 20
-6.34422
 11
-0.803726
 21
-6.23351
  0
LINE
  8
0
 10
-0.803726
 20
-6.23351
 11
-0.638657
 21
-6.14275
  0
LINE
  8
0
 10
-0.638657
 20
-6.14275
 11
-0.463516
 21
-6.07341
  0
LINE
  8
0
 10
-0.463516
 20
-6.07341
 11
-0.281067
 21
-6.02657
  0
LINE
  8
0
 10
-0.281067
 20
-6.02657
 11
-0.0941772
 21
-6.00294
  0
LINE
  8
0
 10
-0.0941772
 20
-6.00294
 11
0.0941772
 21
-6.00294
  0
LINE
  8
0
 10
0.0941772
 20
-6.00294
 11
0.281067
 21
-6.02657
  0
LINE
  8
0
 10
0.281067
 20
-6.02657
 11
0.463516
 21
-6.07341
  0
LINE
  8
0
 10
0.463516
 20
-6.07341
 11
0.638657
 21
-6.14275
  0
LINE
  8
0
 10
0.638657
 20
-6.14275
 11
0.803726
 21
-6.23351
  0
LINE
  8
0
 10
0.803726
 20
-6.23351
 11
0.956131
 21
-6.34422
  0
LINE
  8
0
 10
0.956131
 20
-6.34422
 11
1.09344
 21
-6.47318
  0
LINE
  8
0
 10
1.09344
 20
-6.47318
 11
1.21352
 21
-6.61832
  0
LINE
  8
0
 10
1.21352
 20
-6.61832
 11
1.31445
 21
-6.77736
  0
LINE
  8
0
 10
1.31445
 20
-6.77736
 11
1.39465
 21
-6.9478
  0
LINE
  8
0
 10
1.39465
 20
-6.9478
 11
1.45287
 21
-7.12695
  0
LINE
  8
0
 10
1.45287
 20
-7.12695
 11
1.48816
 21
-7.312
  0
LINE
  8
0
 10
1.48816
 20
-7.312
 11
1.5
 21
-7.5
  0
LINE
  8
0
 10
1.5
 20
-7.5
 11
1.48816
 21
-7.68799
  0
LINE
  8
0
 10
1.48816
 20
-7.68799
 11
1.45287
 21
-7.87303
  0
LINE
  8
0
 10
1.45287
 20
-7.87303
 11
1.39465
 21
-8.05219
  0
LINE
  8
0
 10
1.39465
 20
-8.05219
 11
1.31445
 21
-8.22263
  0
LINE
  8
0
 10
1.31445
 20
-8.22263
 11
1.21352
 21
-8.38167
  0
LINE
  8
0
 10
1.21352
 20
-8.38167
 11
1.09344
 21
-8.52681
  0
LINE
  8
0
 10
1.09344
 20
-8.52681
 11
0.956131
 21
-8.65576
  0
LINE
  8
0
 10
0.956131
 20
-8.65576
 11
0.803726
 21
-8.76648
  0
LINE
  8
0
 10
0.803726
 20
-8.76648
 11
0.638657
 21
-8.85724
  0
LINE
  8
0
 10
0.638657
 20
-8.85724
 11
0.463516
 21
-8.92657
  0
LINE
  8
0
 10
0.463516
 20
-8.92657
 11
0.281067
 21
-8.97342
  0
LINE
  8
0
 10
0.281067
 20
-8.97342
 11
0.0941772
 21
-8.99704
  0
LINE
  8
0
 10
0.0941772
 20
-8.99704
 11
-0.0941772
 21
-8.99704
  0
LINE
  8
0
 10
-8.11302
 20
-19.7964
 11
-8.33728
 21
-19.7681
  0
LINE
  8
0
 10
-8.33728
 20
-19.7681
 11
-8.55623
 21
-19.7119
  0
LINE
  8
0
 10
-8.55623
 20
-19.7119
 11
-8.76639
 21
-19.6287
  0
LINE
  8
0
 10
-8.76639
 20
-19.6287
 11
-8.96448
 21
-19.5198
  0
LINE
  8
0
 10
-8.96448
 20
-19.5198
 11
-9.14735
 21
-19.3869
  0
LINE
  8
0
 10
-9.14735
 20
-19.3869
 11
-9.31213
 21
-19.2322
  0
LINE
  8
0
 10
-9.31213
 20
-19.2322
 11
-9.45622
 21
-19.058
  0
LINE
  8
0
 10
-9.45622
 20
-19.058
 11
-9.57735
 21
-18.8672
  0
LINE
  8
0
 10
-9.57735
 20
-18.8672
 11
-9.67358
 21
-18.6626
  0
LINE
  8
0
 10
-9.67358
 20
-18.6626
 11
-9.74344
 21
-18.4476
  0
LINE
  8
0
 10
-9.74344
 20
-18.4476
 11
-9.7858
 21
-18.2256
  0
LINE
  8
0
 10
-9.7858
 20
-18.2256
 11
-9.79999
 21
-18
  0
LINE
  8
0
 10
-9.79999
 20
-18
 11
-9.7858
 21
-17.7744
  0
LINE
  8
0
 10
-9.7858
 20
-17.7744
 11
-9.74344
 21
-17.5524
  0
LINE
  8
0
 10
-9.74344
 20
-17.5524
 11
-9.67358
 21
-17.3374
  0
LINE
  8
0
 10
-9.67358
 20
-17.3374
 11
-9.57735
 21
-17.1328
  0
LINE
  8
0
 10
-9.57735
 20
-17.1328
 11
-9.45622
 21
-16.942
  0
LINE
  8
0
 10
-9.45622
 20
-16.942
 11
-9.31213
 21
-16.7678
  0
LINE
  8
0
 10
-9.31213
 20
-16.7678
 11
-9.14735
 21
-16.6131
  0
LINE
  8
0
 10
-9.14735
 20
-16.6131
 11
-8.96448
 21
-16.4802
  0
LINE
  8
0
 10
-8.96448
 20
-16.4802
 11
-8.76639
 21
-16.3713
  0
LINE
  8
0
 10
-8.76639
 20
-16.3713
 11
-8.55623
 21
-16.2881
  0
LINE
  8
0
 10
-8.55623
 20
-16.2881
 11
-8.33728
 21
-16.2319
  0
LINE
  8
0
 10
-8.33728
 20
-16.2319
 11
-8.11302
 21
-16.2036
  0
LINE
  8
0
 10
-8.11302
 20
-16.2036
 11
-7.88696
 21
-16.2036
  0
LINE
  8
0
 10
-7.88696
 20
-16.2036
 11
-7.6627
 21
-16.2319
  0
LINE
  8
0
 10
-7.6627
 20
-16.2319
 11
-7.44376
 21
-16.2881
  0
LINE
  8
0
 10
-7.44376
 20
-16.2881
 11
-7.2336
 21
-16.3713
  0
LINE
  8
0
 10
-7.2336
 20
-16.3713
 11
-7.03551
 21
-16.4802
  0
LINE
  8
0
 10
-7.03551
 20
-16.4802
 11
-6.85263
 21
-16.6131
  0
LINE
  8
0
 10
-6.85263
 20
-16.6131
 11
-6.68785
 21
-16.7678
  0
LINE
  8
0
 10
-6.68785
 20
-16.7678
 11
-6.54376
 21
-16.942
  0
LINE
  8
0
 10
-6.54376
 20
-16.942
 11
-6.42264
 21
-17.1328
  0
LINE
  8
0
 10
-6.42264
 20
-17.1328
 11
-6.3264
 21
-17.3374
  0
LINE
  8
0
 10
-6.3264
 20
-17.3374
 11
-6.25655
 21
-17.5524
  0
LINE
  8
0
 10
-6.25655
 20
-17.5524
 11
-6.21419
 21
-17.7744
  0
LINE
  8
0
 10
-6.21419
 20
-17.7744
 11
-6.2
 21
-18
  0
LINE
  8
0
 10
-6.2
 20
-18
 11
-6.21419
 21
-18.2256
  0
LINE
  8
0
 10
-6.21419
 20
-18.2256
 11
-6.25655
 21
-18.4476
  0
LINE
  8
0
 10
-6.25655
 20
-18.4476
 11
-6.3264
 21
-18.6626
  0
LINE
  8
0
 10
-6.3264
 20
-18.6626
 11
-6.42264
 21
-18.8672
  0
LINE
  8
0
 10
-6.42264
 20
-18.8672
 11
-6.54376
 21
-19.058
  0
LINE
  8
0
 10
-6.54376
 20
-19.058
 11
-6.68785
 21
-19.2322
  0
LINE
  8
0
 10
-6.68785
 20
-19.2322
 11
-6.85263
 21
-19.3869
  0
LINE
  8
0
 10
-6.85263
 20
-19.3869
 11
-7.03551
 21
-19.5198
  0
LINE
  8
0
 10
-7.03551
 20
-19.5198
 11
-7.2336
 21
-19.6287
  0
LINE
  8
0
 10
-7.2336
 20
-19.6287
 11
-7.44376
 21
-19.7119
  0
LINE
  8
0
 10
-7.44376
 20
-19.7119
 11
-7.6627
 21
-19.7681
  0
LINE
  8
0
 10
-7.6627
 20
-19.7681
 11
-7.88696
 21
-19.7964
  0
LINE
  8
0
 10
-7.88696
 20
-19.7964
 11
-8.11302
 21
-19.7964
  0
LINE
  8
0
 10
7.88696
 20
-19.7964
 11
7.6627
 21
-19.7681
  0
LINE
  8
0
 10
7.6627
 20
-19.7681
 11
7.44376
 21
-19.7119
  0
LINE
  8
0
 10
7.44376
 20
-19.7119
 11
7.2336
 21
-19.6287
  0
LINE
  8
0
 10
7.2336
 20
-19.6287
 11
7.03551
 21
-19.5198
  0
LINE
  8
0
 10
7.03551
 20
-19.5198
 11
6.85263
 21
-19.3869
  0
LINE
  8
0
 10
6.85263
 20
-19.3869
 11
6.68785
 21
-19.2322
  0
LINE
  8
0
 10
6.68785
 20
-19.2322
 11
6.54376
 21
-19.058
  0
LINE
  8
0
 10
6.54376
 20
-19.058
 11
6.42264
 21
-18.8672
  0
LINE
  8
0
 10
6.42264
 20
-18.8672
 11
6.3264
 21
-18.6626
  0
LINE
  8
0
 10
6.3264
 20
-18.6626
 11
6.25655
 21
-18.4476
  0
LINE
  8
0
 10
6.25655
 20
-18.4476
 11
6.21419
 21
-18.2256
  0
LINE
  8
0
 10
6.21419
 20
-18.2256
 11
6.2
 21
-18
  0
LINE
  8
0
 10
6.2
 20
-18
 11
6.21419
 21
-17.7744
  0
LINE
  8
0
 10
6.21419
 20
-17.7744
 11
6.25655
 21
-17.5524
  0
LINE
  8
0
 10
6.25655
 20
-17.5524
 11
6.3264
 21
-17.3374
  0
LINE
  8
0
 10
6.3264
 20
-17.3374
 11
6.42264
 21
-17.1328
  0
LINE
  8
0
 10
6.42264
 20
-17.1328
 11
6.54376
 21
-16.942
  0
LINE
  8
0
 10
6.54376
 20
-16.942
 11
6.68785
 21
-16.7678
  0
LINE
  8
0
 10
6.68785
 20
-16.7678
 11
6.85263
 21
-16.6131
  0
LINE
  8
0
 10
6.85263
 20
-16.6131
 11
7.03551
 21
-16.4802
  0
LINE
  8
0
 10
7.03551
 20
-16.4802
 11
7.2336
 21
-16.3713
  0
LINE
  8
0
 10
7.2336
 20
-16.3713
 11
7.44376
 21
-16.2881
  0
LINE
  8
0
 10
7.44376
 20
-16.2881
 11
7.6627
 21
-16.2319
  0
LINE
  8
0
 10
7.6627
 20
-16.2319
 11
7.88696
 21
-16.2036
  0
LINE
  8
0
 10
7.88696
 20
-16.2036
 11
8.11302
 21
-16.2036
  0
LINE
  8
0
 10
8.11302
 20
-16.2036
 11
8.33728
 21
-16.2319
  0
LINE
  8
0
 10
8.33728
 20
-16.2319
 11
8.55623
 21
-16.2881
  0
LINE
  8
0
 10
8.55623
 20
-16.2881
 11
8.76639
 21
-16.3713
  0
LINE
  8
0
 10
8.76639
 20
-16.3713
 11
8.96448
 21
-16.4802
  0
LINE
  8
0
 10
8.96448
 20
-16.4802
 11
9.14735
 21
-16.6131
  0
LINE
  8
0
 10
9.14735
 20
-16.6131
 11
9.31213
 21
-16.7678
  0
LINE
  8
0
 10
9.31213
 20
-16.7678
 11
9.45622
 21
-16.942
  0
LINE
  8
0
 10
9.45622
 20
-16.942
 11
9.57735
 21
-17.1328
  0
LINE
  8
0
 10
9.57735
 20
-17.1328
 11
9.67358
 21
-17.3374
  0
LINE
  8
0
 10
9.67358
 20
-17.3374
 11
9.74344
 21
-17.5524
  0
LINE
  8
0
 10
9.74344
 20
-17.5524
 11
9.7858
 21
-17.7744
  0
LINE
  8
0
 10
9.7858
 20
-17.7744
 11
9.79999
 21
-18
  0
LINE
  8
0
 10
9.79999
 20
-18
 11
9.7858
 21
-18.2256
  0
LINE
  8
0
 10
9.7858
 20
-18.2256
 11
9.74344
 21
-18.4476
  0
LINE
  8
0
 10
9.74344
 20
-18.4476
 11
9.67358
 21
-18.6626
  0
LINE
  8
0
 10
9.67358
 20
-18.6626
 11
9.57735
 21
-18.8672
  0
LINE
  8
0
 10
9.57735
 20
-18.8672
 11
9.45622
 21
-19.058
  0
LINE
  8
0
 10
9.45622
 20
-19.058
 11
9.31213
 21
-19.2322
  0
LINE
  8
0
 10
9.31213
 20
-19.2322
 11
9.14735
 21
-19.3869
  0
LINE
  8
0
 10
9.14735
 20
-19.3869
 11
8.96448
 21
-19.5198
  0
LINE
  8
0
 10
8.96448
 20
-19.5198
 11
8.76639
 21
-19.6287
  0
LINE
  8
0
 10
8.76639
 20
-19.6287
 11
8.55623
 21
-19.7119
  0
LINE
  8
0
 10
8.55623
 20
-19.7119
 11
8.33728
 21
-19.7681
  0
LINE
  8
0
 10
8.33728
 20
-19.7681
 11
8.11302
 21
-19.7964
  0
LINE
  8
0
 10
8.11302
 20
-19.7964
 11
7.88696
 21
-19.7964
  0
ENDSEC
  0
SECTION
  2
OBJECTS
  0
DICTIONARY
  0
ENDSEC
  0
EOF
