<?xml version="1.0" standalone="no"?>
<!DOCTYPE svg PUBLIC "-//W3C//DTD SVG 1.1//EN" "http://www.w3.org/Graphics/SVG/1.1/DTD/svg11.dtd">
<svg width="96mm" height="44mm" viewBox="-18 -22 96 44" xmlns="http://www.w3.org/2000/svg" version="1.1">
<title>OpenSCAD Model</title>
<path d="
M 68.9369,21.9114 L 69.5451,21.7553 L 70.1289,21.5241 L 70.6791,21.2216 L 71.1871,20.8526 L 71.6448,20.4227
 L 72.0451,19.9389 L 72.3815,19.4088 L 72.6489,18.8406 L 72.8429,18.2434 L 72.9606,17.6267 L 72.9864,17.2164
 L 72.8131,17.0536 L 72.573,16.7634 L 72.3711,16.4453 L 72.2107,16.1044 L 72.0943,15.7461 L 72.0237,15.376
 L 72,15 L 72.0237,14.624 L 72.0943,14.2539 L 72.2107,13.8956 L 72.3711,13.5547 L 72.573,13.2366
 L 72.8131,12.9464 L 73,12.7708 L 73,11.6858 L 74.1578,10.2862 L 75.3354,8.43068 L 76.2711,6.44217
 L 76.9502,4.35207 L 77.362,2.19333 L 77.5,-0 L 77.362,-2.19333 L 76.9502,-4.35207 L 76.2711,-6.44217
 L 75.3354,-8.43068 L 74.1578,-10.2862 L 73,-11.6858 L 73,-12.7708 L 72.8131,-12.9464 L 72.573,-13.2366
 L 72.3711,-13.5547 L 72.2107,-13.8956 L 72.0943,-14.2539 L 72.0237,-14.624 L 72,-15 L 72.0237,-15.376
 L 72.0943,-15.7461 L 72.2107,-16.1044 L 72.3711,-16.4453 L 72.573,-16.7634 L 72.8131,-17.0536 L 72.9864,-17.2164
 L 72.9606,-17.6267 L 72.8429,-18.2434 L 72.6489,-18.8406 L 72.3815,-19.4088 L 72.0451,-19.9389 L 71.6448,-20.4227
 L 71.1871,-20.8526 L 70.6791,-21.2216 L 70.1289,-21.5241 L 69.5451,-21.7553 L 68.9369,-21.9114 L 68.3139,-21.9901
 L 51.686,-21.9901 L 51.0631,-21.9114 L 50.4549,-21.7553 L 49.8711,-21.5241 L 49.3209,-21.2216 L 48.8129,-20.8526
 L 48.3551,-20.4227 L 47.9549,-19.9389 L 47.6185,-19.4088 L 47.3511,-18.8406 L 47.1571,-18.2434 L 47.0394,-17.6267
 L 47.0136,-17.2164 L 47.1869,-17.0536 L 47.427,-16.7634 L 47.6289,-16.4453 L 47.7893,-16.1044 L 47.9057,-15.7461
 L 47.9763,-15.376 L 48,-15 L 47.9763,-14.624 L 47.9057,-14.2539 L 47.7893,-13.8956 L 47.6289,-13.5547
 L 47.427,-13.2366 L 47.1869,-12.9464 L 47,-12.7708 L 47,-11.6858 L 45.8422,-10.2862 L 44.6646,-8.43068
 L 43.7289,-6.44217 L 43.0498,-4.35207 L 42.638,-2.19333 L 42.5,-0 L 42.638,2.19333 L 43.0498,4.35207
 L 43.7289,6.44217 L 44.6646,8.43068 L 45.8422,10.2862 L 47,11.6858 L 47,12.7708 L 47.1869,12.9464
 L 47.427,13.2366 L 47.6289,13.5547 L 47.7893,13.8956 L 47.9057,14.2539 L 47.9763,14.624 L 48,15
 L 47.9763,15.376 L 47.9057,15.7461 L 47.7893,16.1044 L 47.6289,16.4453 L 47.427,16.7634 L 47.1869,17.0536
 L 47.0136,17.2164 L 47.0394,17.6267 L 47.1571,18.2434 L 47.3511,18.8406 L 47.6185,19.4088 L 47.9549,19.9389
 L 48.3551,20.4227 L 48.8129,20.8526 L 49.3209,21.2216 L 49.8711,21.5241 L 50.4549,21.7553 L 51.0631,21.9114
 L 51.686,21.9901 L 68.3139,21.9901 z
M 51.887,-16.2036 L 51.6627,-16.2319 L 51.4438,-16.2881 L 51.2336,-16.3713 L 51.0355,-16.4802 L 50.8526,-16.6131
 L 50.6879,-16.7678 L 50.5438,-16.942 L 50.4226,-17.1328 L 50.3264,-17.3374 L 50.2565,-17.5524 L 50.2142,-17.7744
 L 50.2,-18 L 50.2142,-18.2256 L 50.2565,-18.4476 L 50.3264,-18.6626 L 50.4226,-18.8672 L 50.5438,-19.058
 L 50.6879,-19.2322 L 50.8526,-19.3869 L 51.0355,-19.5198 L 51.2336,-19.6287 L 51.4438,-19.7119 L 51.6627,-19.7681
 L 51.887,-19.7964 L 52.113,-19.7964 L 52.3373,-19.7681 L 52.5562,-19.7119 L 52.7664,-19.6287 L 52.9645,-19.5198
 L 53.1474,-19.3869 L 53.3121,-19.2322 L 53.4562,-19.058 L 53.5773,-18.8672 L 53.6736,-18.6626 L 53.7434,-18.4476
 L 53.7858,-18.2256 L 53.8,-18 L 53.7858,-17.7744 L 53.7434,-17.5524 L 53.6736,-17.3374 L 53.5773,-17.1328
 L 53.4562,-16.942 L 53.3121,-16.7678 L 53.1474,-16.6131 L 52.9645,-16.4802 L 52.7664,-16.3713 L 52.5562,-16.2881
 L 52.3373,-16.2319 L 52.113,-16.2036 z
M 67.887,-16.2036 L 67.6627,-16.2319 L 67.4438,-16.2881 L 67.2336,-16.3713 L 67.0355,-16.4802 L 66.8526,-16.6131
 L 66.6879,-16.7678 L 66.5438,-16.942 L 66.4226,-17.1328 L 66.3264,-17.3374 L 66.2565,-17.5524 L 66.2142,-17.7744
 L 66.2,-18 L 66.2142,-18.2256 L 66.2565,-18.4476 L 66.3264,-18.6626 L 66.4226,-18.8672 L 66.5438,-19.058
 L 66.6879,-19.2322 L 66.8526,-19.3869 L 67.0355,-19.5198 L 67.2336,-19.6287 L 67.4438,-19.7119 L 67.6627,-19.7681
 L 67.887,-19.7964 L 68.113,-19.7964 L 68.3373,-19.7681 L 68.5562,-19.7119 L 68.7664,-19.6287 L 68.9645,-19.5198
 L 69.1474,-19.3869 L 69.3121,-19.2322 L 69.4562,-19.058 L 69.5773,-18.8672 L 69.6736,-18.6626 L 69.7434,-18.4476
 L 69.7858,-18.2256 L 69.8,-18 L 69.7858,-17.7744 L 69.7434,-17.5524 L 69.6736,-17.3374 L 69.5773,-17.1328
 L 69.4562,-16.942 L 69.3121,-16.7678 L 69.1474,-16.6131 L 68.9645,-16.4802 L 68.7664,-16.3713 L 68.5562,-16.2881
 L 68.3373,-16.2319 L 68.113,-16.2036 z
M 58.9953,15.9684 L 57.0019,15.7166 L 55.0557,15.2169 L 53.1875,14.4772 L 51.4268,13.5092 L 49.8012,12.3282
 L 48.3365,10.9527 L 47.0557,9.40456 L 45.9791,7.70805 L 45.1236,5.88998 L 44.5027,3.97903 L 44.1262,2.00533
 L 44,-0 L 44.1262,-2.00533 L 44.5027,-3.97903 L 45.1236,-5.88998 L 45.9791,-7.70805 L 47.0557,-9.40456
 L 48.3365,-10.9527 L 49.8012,-12.3282 L 51.4268,-13.5092 L 53.1875,-14.4772 L 55.0557,-15.2169 L 57.0019,-15.7166
 L 58.9953,-15.9684 L 61.0046,-15.9684 L 62.9981,-15.7166 L 64.9443,-15.2169 L 66.8125,-14.4772 L 68.5732,-13.5092
 L 70.1988,-12.3282 L 71.6635,-10.9527 L 72.9443,-9.40456 L 74.0209,-7.70805 L 74.8764,-5.88998 L 75.4973,-3.97903
 L 75.8738,-2.00533 L 76,-0 L 75.8738,2.00533 L 75.4973,3.97903 L 74.8764,5.88998 L 74.0209,7.70805
 L 72.9443,9.40456 L 71.6635,10.9527 L 70.1988,12.3282 L 68.5732,13.5092 L 66.8125,14.4772 L 64.9443,15.2169
 L 62.9981,15.7166 L 61.0046,15.9684 z
M 62.3423,12.2786 L 63.8627,11.8882 L 65.3222,11.3103 L 66.6978,10.5541 L 67.9678,9.63141 L 69.1121,8.55682
 L 70.1127,7.34731 L 70.9538,6.02191 L 71.6222,4.60155 L 72.1073,3.10861 L 72.4014,1.56665 L 72.5,-0
 L 72.4014,-1.56665 L 72.1073,-3.10861 L 71.6222,-4.60155 L 70.9538,-6.02191 L 70.1127,-7.34731 L 69.1121,-8.55682
 L 67.9678,-9.63141 L 66.6978,-10.5541 L 65.3222,-11.3103 L 63.8627,-11.8882 L 62.3423,-12.2786 L 60.7849,-12.4753
 L 59.2151,-12.4753 L 57.6577,-12.2786 L 56.1373,-11.8882 L 54.6777,-11.3103 L 53.3022,-10.5541 L 52.0322,-9.63141
 L 50.8879,-8.55682 L 49.8873,-7.34731 L 49.0462,-6.02191 L 48.3778,-4.60155 L 47.8927,-3.10861 L 47.5986,-1.56665
 L 47.5,-0 L 47.5986,1.56665 L 47.8927,3.10861 L 48.3778,4.60155 L 49.0462,6.02191 L 49.8873,7.34731
 L 50.8879,8.55682 L 52.0322,9.63141 L 53.3022,10.5541 L 54.6777,11.3103 L 56.1373,11.8882 L 57.6577,12.2786
 L 59.2151,12.4753 L 60.7849,12.4753 z
M 59.9058,-6.00294 L 59.7189,-6.02657 L 59.5365,-6.07341 L 59.3613,-6.14275 L 59.1963,-6.23351 L 59.0439,-6.34422
 L 58.9065,-6.47318 L 58.7865,-6.61832 L 58.6855,-6.77736 L 58.6053,-6.9478 L 58.5471,-7.12695 L 58.5118,-7.312
 L 58.5,-7.5 L 58.5118,-7.68799 L 58.5471,-7.87303 L 58.6053,-8.05219 L 58.6855,-8.22263 L 58.7865,-8.38167
 L 58.9065,-8.52681 L 59.0439,-8.65576 L 59.1963,-8.76648 L 59.3613,-8.85724 L 59.5365,-8.92657 L 59.7189,-8.97342
 L 59.9058,-8.99704 L 60.0942,-8.99704 L 60.2811,-8.97342 L 60.4635,-8.92657 L 60.6387,-8.85724 L 60.8037,-8.76648
 L 60.9561,-8.65576 L 61.0934,-8.52681 L 61.2135,-8.38167 L 61.3145,-8.22263 L 61.3947,-8.05219 L 61.4529,-7.87303
 L 61.4882,-7.68799 L 61.5,-7.5 L 61.4882,-7.312 L 61.4529,-7.12695 L 61.3947,-6.9478 L 61.3145,-6.77736
 L 61.2135,-6.61832 L 61.0934,-6.47318 L 60.9561,-6.34422 L 60.8037,-6.23351 L 60.6387,-6.14275 L 60.4635,-6.07341
 L 60.2811,-6.02657 L 60.0942,-6.00294 z
M 54.584,-3.50655 L 54.3597,-3.53488 L 54.1408,-3.59109 L 53.9306,-3.6743 L 53.7325,-3.7832 L 53.5496,-3.91606
 L 53.3849,-4.0708 L 53.2408,-4.24498 L 53.1196,-4.43584 L 53.0234,-4.64037 L 52.9536,-4.85535 L 52.9112,-5.07739
 L 52.897,-5.30299 L 52.9112,-5.52859 L 52.9536,-5.75064 L 53.0234,-5.96562 L 53.1196,-6.17015 L 53.2408,-6.36101
 L 53.3849,-6.53517 L 53.5496,-6.68991 L 53.7325,-6.82278 L 53.9306,-6.93169 L 54.1408,-7.01489 L 54.3597,-7.07111
 L 54.584,-7.09944 L 54.81,-7.09944 L 55.0343,-7.07111 L 55.2532,-7.01489 L 55.4634,-6.93169 L 55.6615,-6.82278
 L 55.8444,-6.68991 L 56.0091,-6.53517 L 56.1532,-6.36101 L 56.2744,-6.17015 L 56.3706,-5.96562 L 56.4404,-5.75064
 L 56.4828,-5.52859 L 56.497,-5.30299 L 56.4828,-5.07739 L 56.4404,-4.85535 L 56.3706,-4.64037 L 56.2744,-4.43584
 L 56.1532,-4.24498 L 56.0091,-4.0708 L 55.8444,-3.91606 L 55.6615,-3.7832 L 55.4634,-3.6743 L 55.2532,-3.59109
 L 55.0343,-3.53488 L 54.81,-3.50655 z
M 59.8116,2.99408 L 59.4379,2.94685 L 59.0729,2.85316 L 58.7227,2.71448 L 58.3925,2.53297 L 58.0877,2.31154
 L 57.8131,2.05363 L 57.5729,1.76335 L 57.3711,1.44525 L 57.2107,1.10437 L 57.0942,0.746063 L 57.0237,0.375992
 L 57,-0 L 57.0237,-0.375992 L 57.0942,-0.746063 L 57.2107,-1.10437 L 57.3711,-1.44525 L 57.5729,-1.76335
 L 57.8131,-2.05363 L 58.0877,-2.31154 L 58.3925,-2.53297 L 58.7227,-2.71448 L 59.0729,-2.85316 L 59.4379,-2.94685
 L 59.8116,-2.99408 L 60.1884,-2.99408 L 60.5621,-2.94685 L 60.927,-2.85316 L 61.2773,-2.71448 L 61.6075,-2.53297
 L 61.9123,-2.31154 L 62.1869,-2.05363 L 62.427,-1.76335 L 62.6289,-1.44525 L 62.7893,-1.10437 L 62.9057,-0.746063
 L 62.9763,-0.375992 L 63,-0 L 62.9763,0.375992 L 62.9057,0.746063 L 62.7893,1.10437 L 62.6289,1.44525
 L 62.427,1.76335 L 62.1869,2.05363 L 61.9123,2.31154 L 61.6075,2.53297 L 61.2773,2.71448 L 60.927,2.85316
 L 60.5621,2.94685 L 60.1884,2.99408 z
M 52.4058,1.49704 L 52.2189,1.47342 L 52.0365,1.42657 L 51.8613,1.35724 L 51.6963,1.26648 L 51.5439,1.15576
 L 51.4065,1.02681 L 51.2865,0.881668 L 51.1855,0.722626 L 51.1053,0.552185 L 51.0471,0.373032 L 51.0118,0.187988
 L 51,-0 L 51.0118,-0.187988 L 51.0471,-0.373032 L 51.1053,-0.552185 L 51.1855,-0.722626 L 51.2865,-0.881668
 L 51.4065,-1.02681 L 51.5439,-1.15576 L 51.6963,-1.26648 L 51.8613,-1.35724 L 52.0365,-1.42657 L 52.2189,-1.47342
 L 52.4058,-1.49704 L 52.5942,-1.49704 L 52.7811,-1.47342 L 52.9635,-1.42657 L 53.1387,-1.35724 L 53.3037,-1.26648
 L 53.4561,-1.15576 L 53.5934,-1.02681 L 53.7135,-0.881668 L 53.8145,-0.722626 L 53.8947,-0.552185 L 53.9529,-0.373032
 L 53.9882,-0.187988 L 54,-0 L 53.9882,0.187988 L 53.9529,0.373032 L 53.8947,0.552185 L 53.8145,0.722626
 L 53.7135,0.881668 L 53.5934,1.02681 L 53.4561,1.15576 L 53.3037,1.26648 L 53.1387,1.35724 L 52.9635,1.42657
 L 52.7811,1.47342 L 52.5942,1.49704 z
M 67.4058,1.49704 L 67.2189,1.47342 L 67.0365,1.42657 L 66.8613,1.35724 L 66.6963,1.26648 L 66.5439,1.15576
 L 66.4065,1.02681 L 66.2865,0.881668 L 66.1855,0.722626 L 66.1053,0.552185 L 66.0471,0.373032 L 66.0118,0.187988
 L 66,-0 L 66.0118,-0.187988 L 66.0471,-0.373032 L 66.1053,-0.552185 L 66.1855,-0.722626 L 66.2865,-0.881668
 L 66.4065,-1.02681 L 66.5439,-1.15576 L 66.6963,-1.26648 L 66.8613,-1.35724 L 67.0365,-1.42657 L 67.2189,-1.47342
 L 67.4058,-1.49704 L 67.5942,-1.49704 L 67.7811,-1.47342 L 67.9635,-1.42657 L 68.1387,-1.35724 L 68.3037,-1.26648
 L 68.4561,-1.15576 L 68.5934,-1.02681 L 68.7135,-0.881668 L 68.8145,-0.722626 L 68.8947,-0.552185 L 68.9529,-0.373032
 L 68.9882,-0.187988 L 69,-0 L 68.9882,0.187988 L 68.9529,0.373032 L 68.8947,0.552185 L 68.8145,0.722626
 L 68.7135,0.881668 L 68.5934,1.02681 L 68.4561,1.15576 L 68.3037,1.26648 L 68.1387,1.35724 L 67.9635,1.42657
 L 67.7811,1.47342 L 67.5942,1.49704 z
M 65.19,7.09944 L 64.9657,7.07111 L 64.7468,7.01489 L 64.5366,6.93169 L 64.3385,6.82278 L 64.1556,6.68991
 L 63.9908,6.53517 L 63.8468,6.36101 L 63.7256,6.17015 L 63.6294,5.96562 L 63.5595,5.75064 L 63.5172,5.52859
 L 63.503,5.30299 L 63.5172,5.07739 L 63.5595,4.85535 L 63.6294,4.64037 L 63.7256,4.43584 L 63.8468,4.24498
 L 63.9908,4.0708 L 64.1556,3.91606 L 64.3385,3.7832 L 64.5366,3.6743 L 64.7468,3.59109 L 64.9657,3.53488
 L 65.19,3.50655 L 65.416,3.50655 L 65.6403,3.53488 L 65.8592,3.59109 L 66.0694,3.6743 L 66.2675,3.7832
 L 66.4504,3.91606 L 66.6151,4.0708 L 66.7592,4.24498 L 66.8803,4.43584 L 66.9766,4.64037 L 67.0464,4.85535
 L 67.0888,5.07739 L 67.103,5.30299 L 67.0888,5.52859 L 67.0464,5.75064 L 66.9766,5.96562 L 66.8803,6.17015
 L 66.7592,6.36101 L 66.6151,6.53517 L 66.4504,6.68991 L 66.2675,6.82278 L 66.0694,6.93169 L 65.8592,7.01489
 L 65.6403,7.07111 L 65.416,7.09944 z
M 59.9058,8.99704 L 59.7189,8.97342 L 59.5365,8.92657 L 59.3613,8.85724 L 59.1963,8.76648 L 59.0439,8.65576
 L 58.9065,8.52681 L 58.7865,8.38167 L 58.6855,8.22263 L 58.6053,8.05219 L 58.5471,7.87303 L 58.5118,7.68799
 L 58.5,7.5 L 58.5118,7.312 L 58.5471,7.12695 L 58.6053,6.9478 L 58.6855,6.77736 L 58.7865,6.61832
 L 58.9065,6.47318 L 59.0439,6.34422 L 59.1963,6.23351 L 59.3613,6.14275 L 59.5365,6.07341 L 59.7189,6.02657
 L 59.9058,6.00294 L 60.0942,6.00294 L 60.2811,6.02657 L 60.4635,6.07341 L 60.6387,6.14275 L 60.8037,6.23351
 L 60.9561,6.34422 L 61.0934,6.47318 L 61.2135,6.61832 L 61.3145,6.77736 L 61.3947,6.9478 L 61.4529,7.12695
 L 61.4882,7.312 L 61.5,7.5 L 61.4882,7.68799 L 61.4529,7.87303 L 61.3947,8.05219 L 61.3145,8.22263
 L 61.2135,8.38167 L 61.0934,8.52681 L 60.9561,8.65576 L 60.8037,8.76648 L 60.6387,8.85724 L 60.4635,8.92657
 L 60.2811,8.97342 L 60.0942,8.99704 z
M 67.887,19.7964 L 67.6627,19.7681 L 67.4438,19.7119 L 67.2336,19.6287 L 67.0355,19.5198 L 66.8526,19.3869
 L 66.6879,19.2322 L 66.5438,19.058 L 66.4226,18.8672 L 66.3264,18.6626 L 66.2565,18.4476 L 66.2142,18.2256
 L 66.2,18 L 66.2142,17.7744 L 66.2565,17.5524 L 66.3264,17.3374 L 66.4226,17.1328 L 66.5438,16.942
 L 66.6879,16.7678 L 66.8526,16.6131 L 67.0355,16.4802 L 67.2336,16.3713 L 67.4438,16.2881 L 67.6627,16.2319
 L 67.887,16.2036 L 68.113,16.2036 L 68.3373,16.2319 L 68.5562,16.2881 L 68.7664,16.3713 L 68.9645,16.4802
 L 69.1474,16.6131 L 69.3121,16.7678 L 69.4562,16.942 L 69.5773,17.1328 L 69.6736,17.3374 L 69.7434,17.5524
 L 69.7858,17.7744 L 69.8,18 L 69.7858,18.2256 L 69.7434,18.4476 L 69.6736,18.6626 L 69.5773,18.8672
 L 69.4562,19.058 L 69.3121,19.2322 L 69.1474,19.3869 L 68.9645,19.5198 L 68.7664,19.6287 L 68.5562,19.7119
 L 68.3373,19.7681 L 68.113,19.7964 z
M 51.887,19.7964 L 51.6627,19.7681 L 51.4438,19.7119 L 51.2336,19.6287 L 51.0355,19.5198 L 50.8526,19.3869
 L 50.6879,19.2322 L 50.5438,19.058 L 50.4226,18.8672 L 50.3264,18.6626 L 50.2565,18.4476 L 50.2142,18.2256
 L 50.2,18 L 50.2142,17.7744 L 50.2565,17.5524 L 50.3264,17.3374 L 50.4226,17.1328 L 50.5438,16.942
 L 50.6879,16.7678 L 50.8526,16.6131 L 51.0355,16.4802 L 51.2336,16.3713 L 51.4438,16.2881 L 51.6627,16.2319
 L 51.887,16.2036 L 52.113,16.2036 L 52.3373,16.2319 L 52.5562,16.2881 L 52.7664,16.3713 L 52.9645,16.4802
 L 53.1474,16.6131 L 53.3121,16.7678 L 53.4562,16.942 L 53.5773,17.1328 L 53.6736,17.3374 L 53.7434,17.5524
 L 53.7858,17.7744 L 53.8,18 L 53.7858,18.2256 L 53.7434,18.4476 L 53.6736,18.6626 L 53.5773,18.8672
 L 53.4562,19.058 L 53.3121,19.2322 L 53.1474,19.3869 L 52.9645,19.5198 L 52.7664,19.6287 L 52.5562,19.7119
 L 52.3373,19.7681 L 52.113,19.7964 z
M 8.9369,21.9114 L 9.54507,21.7553 L 10.1289,21.5241 L 10.6791,21.2216 L 11.1871,20.8526 L 11.6448,20.4227
 L 12.0451,19.9389 L 12.3815,19.4088 L 12.6489,18.8406 L 12.8429,18.2434 L 12.9606,17.6267 L 12.9864,17.2164
 L 12.8131,17.0536 L 12.5729,16.7634 L 12.3711,16.4453 L 12.2107,16.1044 L 12.0942,15.7461 L 12.0237,15.376
 L 12,15 L 12.0237,14.624 L 12.0942,14.2539 L 12.2107,13.8956 L 12.3711,13.5547 L 12.5729,13.2366
 L 12.8131,12.9464 L 13,12.7708 L 13,11.6858 L 14.1578,10.2862 L 15.3354,8.43068 L 16.2711,6.44217
 L 16.9502,4.35207 L 17.362,2.19333 L 17.5,-0 L 17.362,-2.19333 L 16.9502,-4.35207 L 16.2711,-6.44217
 L 15.3354,-8.43068 L 14.1578,-10.2862 L 13,-11.6858 L 13,-12.7708 L 12.8131,-12.9464 L 12.5729,-13.2366
 L 12.3711,-13.5547 L 12.2107,-13.8956 L 12.0942,-14.2539 L 12.0237,-14.624 L 12,-15 L 12.0237,-15.376
 L 12.0942,-15.7461 L 12.2107,-16.1044 L 12.3711,-16.4453 L 12.5729,-16.7634 L 12.8131,-17.0536 L 12.9864,-17.2164
 L 12.9606,-17.6267 L 12.8429,-18.2434 L 12.6489,-18.8406 L 12.3815,-19.4088 L 12.0451,-19.9389 L 11.6448,-20.4227
 L 11.1871,-20.8526 L 10.6791,-21.2216 L 10.1289,-21.5241 L 9.54507,-21.7553 L 8.9369,-21.9114 L 8.31395,-21.9901
 L -8.31395,-21.9901 L -8.9369,-21.9114 L -9.54507,-21.7553 L -10.1289,-21.5241 L -10.6791,-21.2216 L -11.1871,-20.8526
 L -11.6448,-20.4227 L -12.0451,-19.9389 L -12.3815,-19.4088 L -12.6489,-18.8406 L -12.8429,-18.2434 L -12.9606,-17.6267
 L -12.9864,-17.2164 L -12.8131,-17.0536 L -12.5729,-16.7634 L -12.3711,-16.4453 L -12.2107,-16.1044 L -12.0942,-15.7461
 L -12.0237,-15.376 L -12,-15 L -12.0237,-14.624 L -12.0942,-14.2539 L -12.2107,-13.8956 L -12.3711,-13.5547
 L -12.5729,-13.2366 L -12.8131,-12.9464 L -13,-12.7708 L -13,-11.6858 L -14.1578,-10.2862 L -15.3354,-8.43068
 L -16.2711,-6.44217 L -16.9502,-4.35207 L -17.362,-2.19333 L -17.5,-0 L -17.362,2.19333 L -16.9502,4.35207
 L -16.2711,6.44217 L -15.3354,8.43068 L -14.1578,10.2862 L -13,11.6858 L -13,12.7708 L -12.8131,12.9464
 L -12.5729,13.2366 L -12.3711,13.5547 L -12.2107,13.8956 L -12.0942,14.2539 L -12.0237,14.624 L -12,15
 L -12.0237,15.376 L -12.0942,15.7461 L -12.2107,16.1044 L -12.3711,16.4453 L -12.5729,16.7634 L -12.8131,17.0536
 L -12.9864,17.2164 L -12.9606,17.6267 L -12.8429,18.2434 L -12.6489,18.8406 L -12.3815,19.4088 L -12.0451,19.9389
 L -11.6448,20.4227 L -11.1871,20.8526 L -10.6791,21.2216 L -10.1289,21.5241 L -9.54507,21.7553 L -8.9369,21.9114
 L -8.31395,21.9901 L 8.31395,21.9901 z
M 7.88696,-16.2036 L 7.6627,-16.2319 L 7.44376,-16.2881 L 7.2336,-16.3713 L 7.03551,-16.4802 L 6.85263,-16.6131
 L 6.68785,-16.7678 L 6.54376,-16.942 L 6.42264,-17.1328 L 6.3264,-17.3374 L 6.25655,-17.5524 L 6.21419,-17.7744
 L 6.2,-18 L 6.21419,-18.2256 L 6.25655,-18.4476 L 6.3264,-18.6626 L 6.42264,-18.8672 L 6.54376,-19.058
 L 6.68785,-19.2322 L 6.85263,-19.3869 L 7.03551,-19.5198 L 7.2336,-19.6287 L 7.44376,-19.7119 L 7.6627,-19.7681
 L 7.88696,-19.7964 L 8.11302,-19.7964 L 8.33728,-19.7681 L 8.55623,-19.7119 L 8.76639,-19.6287 L 8.96448,-19.5198
 L 9.14735,-19.3869 L 9.31213,-19.2322 L 9.45622,-19.058 L 9.57735,-18.8672 L 9.67358,-18.6626 L 9.74344,-18.4476
 L 9.7858,-18.2256 L 9.79999,-18 L 9.7858,-17.7744 L 9.74344,-17.5524 L 9.67358,-17.3374 L 9.57735,-17.1328
 L 9.45622,-16.942 L 9.31213,-16.7678 L 9.14735,-16.6131 L 8.96448,-16.4802 L 8.76639,-16.3713 L 8.55623,-16.2881
 L 8.33728,-16.2319 L 8.11302,-16.2036 z
M -8.11302,-16.2036 L -8.33728,-16.2319 L -8.55623,-16.2881 L -8.76639,-16.3713 L -8.96448,-16.4802 L -9.14735,-16.6131
 L -9.31213,-16.7678 L -9.45622,-16.942 L -9.57735,-17.1328 L -9.67358,-17.3374 L -9.74344,-17.5524 L -9.7858,-17.7744
 L -9.79999,-18 L -9.7858,-18.2256 L -9.74344,-18.4476 L -9.67358,-18.6626 L -9.57735,-18.8672 L -9.45622,-19.058
 L -9.31213,-19.2322 L -9.14735,-19.3869 L -8.96448,-19.5198 L -8.76639,-19.6287 L -8.55623,-19.7119 L -8.33728,-19.7681
 L -8.11302,-19.7964 L -7.88696,-19.7964 L -7.6627,-19.7681 L -7.44376,-19.7119 L -7.2336,-19.6287 L -7.03551,-19.5198
 L -6.85263,-19.3869 L -6.68785,-19.2322 L -6.54376,-19.058 L -6.42264,-18.8672 L -6.3264,-18.6626 L -6.25655,-18.4476
 L -6.21419,-18.2256 L -6.2,-18 L -6.21419,-17.7744 L -6.25655,-17.5524 L -6.3264,-17.3374 L -6.42264,-17.1328
 L -6.54376,-16.942 L -6.68785,-16.7678 L -6.85263,-16.6131 L -7.03551,-16.4802 L -7.2336,-16.3713 L -7.44376,-16.2881
 L -7.6627,-16.2319 L -7.88696,-16.2036 z
M -1.00464,15.9684 L -2.99809,15.7166 L -4.94426,15.2169 L -6.81245,14.4772 L -8.57323,13.5092 L -10.1988,12.3282
 L -11.6635,10.9527 L -12.9443,9.40456 L -14.0209,7.70805 L -14.8764,5.88998 L -15.4973,3.97903 L -15.8738,2.00533
 L -16,-0 L -15.8738,-2.00533 L -15.4973,-3.97903 L -14.8764,-5.88998 L -14.0209,-7.70805 L -12.9443,-9.40456
 L -11.6635,-10.9527 L -10.1988,-12.3282 L -8.57323,-13.5092 L -6.81245,-14.4772 L -4.94426,-15.2169 L -2.99809,-15.7166
 L -1.00464,-15.9684 L 1.00464,-15.9684 L 2.99809,-15.7166 L 4.94426,-15.2169 L 6.81245,-14.4772 L 8.57323,-13.5092
 L 10.1988,-12.3282 L 11.6635,-10.9527 L 12.9443,-9.40456 L 14.0209,-7.70805 L 14.8764,-5.88998 L 15.4973,-3.97903
 L 15.8738,-2.00533 L 16,-0 L 15.8738,2.00533 L 15.4973,3.97903 L 14.8764,5.88998 L 14.0209,7.70805
 L 12.9443,9.40456 L 11.6635,10.9527 L 10.1988,12.3282 L 8.57323,13.5092 L 6.81245,14.4772 L 4.94426,15.2169
 L 2.99809,15.7166 L 1.00464,15.9684 z
M 2.34225,12.2786 L 3.8627,11.8882 L 5.32224,11.3103 L 6.69783,10.5541 L 7.96779,9.63141 L 9.11211,8.55682
 L 10.1127,7.34731 L 10.9538,6.02191 L 11.6222,4.60155 L 12.1073,3.10861 L 12.4014,1.56665 L 12.5,-0
 L 12.4014,-1.56665 L 12.1073,-3.10861 L 11.6222,-4.60155 L 10.9538,-6.02191 L 10.1127,-7.34731 L 9.11211,-8.55682
 L 7.96779,-9.63141 L 6.69783,-10.5541 L 5.32224,-11.3103 L 3.8627,-11.8882 L 2.34225,-12.2786 L 0.784866,-12.4753
 L -0.784866,-12.4753 L -2.34225,-12.2786 L -3.8627,-11.8882 L -5.32224,-11.3103 L -6.69783,-10.5541 L -7.96779,-9.63141
 L -9.11211,-8.55682 L -10.1127,-7.34731 L -10.9538,-6.02191 L -11.6222,-4.60155 L -12.1073,-3.10861 L -12.4014,-1.56665
 L -12.5,-0 L -12.4014,1.56665 L -12.1073,3.10861 L -11.6222,4.60155 L -10.9538,6.02191 L -10.1127,7.34731
 L -9.11211,8.55682 L -7.96779,9.63141 L -6.69783,10.5541 L -5.32224,11.3103 L -3.8627,11.8882 L -2.34225,12.2786
 L -0.784866,12.4753 L 0.784866,12.4753 z
M -0.0941772,-6.00294 L -0.281067,-6.02657 L -0.463516,-6.07341 L -0.638657,-6.14275 L -0.803726,-6.23351 L -0.956131,-6.34422
 L -1.09344,-6.47318 L -1.21352,-6.61832 L -1.31445,-6.77736 L -1.39465,-6.9478 L -1.45287,-7.12695 L -1.48816,-7.312
 L -1.5,-7.5 L -1.48816,-7.68799 L -1.45287,-7.87303 L -1.39465,-8.05219 L -1.31445,-8.22263 L -1.21352,-8.38167
 L -1.09344,-8.52681 L -0.956131,-8.65576 L -0.803726,-8.76648 L -0.638657,-8.85724 L -0.463516,-8.92657 L -0.281067,-8.97342
 L -0.0941772,-8.99704 L 0.0941772,-8.99704 L 0.281067,-8.97342 L 0.463516,-8.92657 L 0.638657,-8.85724 L 0.803726,-8.76648
 L 0.956131,-8.65576 L 1.09344,-8.52681 L 1.21352,-8.38167 L 1.31445,-8.22263 L 1.39465,-8.05219 L 1.45287,-7.87303
 L 1.48816,-7.68799 L 1.5,-7.5 L 1.48816,-7.312 L 1.45287,-7.12695 L 1.39465,-6.9478 L 1.31445,-6.77736
 L 1.21352,-6.61832 L 1.09344,-6.47318 L 0.956131,-6.34422 L 0.803726,-6.23351 L 0.638657,-6.14275 L 0.463516,-6.07341
 L 0.281067,-6.02657 L 0.0941772,-6.00294 z
M 5.18997,-3.50655 L 4.96571,-3.53488 L 4.74677,-3.59109 L 4.53659,-3.6743 L 4.3385,-3.7832 L 4.15562,-3.91606
 L 3.99084,-4.0708 L 3.84676,-4.24498 L 3.72565,-4.43584 L 3.62939,-4.64037 L 3.55954,-4.85535 L 3.51718,-5.07739
 L 3.50299,-5.30299 L 3.51718,-5.52859 L 3.55954,-5.75064 L 3.62939,-5.96562 L 3.72565,-6.17015 L 3.84676,-6.36101
 L 3.99084,-6.53517 L 4.15562,-6.68991 L 4.3385,-6.82278 L 4.53659,-6.93169 L 4.74677,-7.01489 L 4.96571,-7.07111
 L 5.18997,-7.09944 L 5.41602,-7.09944 L 5.64027,-7.07111 L 5.85922,-7.01489 L 6.0694,-6.93169 L 6.26749,-6.82278
 L 6.45035,-6.68991 L 6.61514,-6.53517 L 6.75922,-6.36101 L 6.88034,-6.17015 L 6.97659,-5.96562 L 7.04645,-5.75064
 L 7.08879,-5.52859 L 7.103,-5.30299 L 7.08879,-5.07739 L 7.04645,-4.85535 L 6.97659,-4.64037 L 6.88034,-4.43584
 L 6.75922,-4.24498 L 6.61514,-4.0708 L 6.45035,-3.91606 L 6.26749,-3.7832 L 6.0694,-3.6743 L 5.85922,-3.59109
 L 5.64027,-3.53488 L 5.41602,-3.50655 z
M -0.18837,2.99408 L -0.562134,2.94685 L -0.927048,2.85316 L -1.27733,2.71448 L -1.60747,2.53297 L -1.91226,2.31154
 L -2.1869,2.05363 L -2.42705,1.76335 L -2.62891,1.44525 L -2.78932,1.10437 L -2.90575,0.746063 L -2.97633,0.375992
 L -3,-0 L -2.97633,-0.375992 L -2.90575,-0.746063 L -2.78932,-1.10437 L -2.62891,-1.44525 L -2.42705,-1.76335
 L -2.1869,-2.05363 L -1.91226,-2.31154 L -1.60747,-2.53297 L -1.27733,-2.71448 L -0.927048,-2.85316 L -0.562134,-2.94685
 L -0.18837,-2.99408 L 0.18837,-2.99408 L 0.562134,-2.94685 L 0.927048,-2.85316 L 1.27733,-2.71448 L 1.60747,-2.53297
 L 1.91226,-2.31154 L 2.1869,-2.05363 L 2.42705,-1.76335 L 2.62891,-1.44525 L 2.78932,-1.10437 L 2.90575,-0.746063
 L 2.97633,-0.375992 L 3,-0 L 2.97633,0.375992 L 2.90575,0.746063 L 2.78932,1.10437 L 2.62891,1.44525
 L 2.42705,1.76335 L 2.1869,2.05363 L 1.91226,2.31154 L 1.60747,2.53297 L 1.27733,2.71448 L 0.927048,2.85316
 L 0.562134,2.94685 L 0.18837,2.99408 z
M 7.40581,1.49704 L 7.21892,1.47342 L 7.03647,1.42657 L 6.86133,1.35724 L 6.69626,1.26648 L 6.54385,1.15576
 L 6.40654,1.02681 L 6.28647,0.881668 L 6.18553,0.722626 L 6.10533,0.552185 L 6.04712,0.373032 L 6.01183,0.187988
 L 6,-0 L 6.01183,-0.187988 L 6.04712,-0.373032 L 6.10533,-0.552185 L 6.18553,-0.722626 L 6.28647,-0.881668
 L 6.40654,-1.02681 L 6.54385,-1.15576 L 6.69626,-1.26648 L 6.86133,-1.35724 L 7.03647,-1.42657 L 7.21892,-1.47342
 L 7.40581,-1.49704 L 7.59418,-1.49704 L 7.78107,-1.47342 L 7.96352,-1.42657 L 8.13866,-1.35724 L 8.30373,-1.26648
 L 8.45613,-1.15576 L 8.59344,-1.02681 L 8.71352,-0.881668 L 8.81445,-0.722626 L 8.89465,-0.552185 L 8.95287,-0.373032
 L 8.98816,-0.187988 L 9,-0 L 8.98816,0.187988 L 8.95287,0.373032 L 8.89465,0.552185 L 8.81445,0.722626
 L 8.71352,0.881668 L 8.59344,1.02681 L 8.45613,1.15576 L 8.30373,1.26648 L 8.13866,1.35724 L 7.96352,1.42657
 L 7.78107,1.47342 L 7.59418,1.49704 z
M -7.59418,1.49704 L -7.78107,1.47342 L -7.96352,1.42657 L -8.13866,1.35724 L -8.30373,1.26648 L -8.45613,1.15576
 L -8.59344,1.02681 L -8.71352,0.881668 L -8.81445,0.722626 L -8.89465,0.552185 L -8.95287,0.373032 L -8.98816,0.187988
 L -9,-0 L -8.98816,-0.187988 L -8.95287,-0.373032 L -8.89465,-0.552185 L -8.81445,-0.722626 L -8.71352,-0.881668
 L -8.59344,-1.02681 L -8.45613,-1.15576 L -8.30373,-1.26648 L -8.13866,-1.35724 L -7.96352,-1.42657 L -7.78107,-1.47342
 L -7.59418,-1.49704 L -7.40581,-1.49704 L -7.21892,-1.47342 L -7.03647,-1.42657 L -6.86133,-1.35724 L -6.69626,-1.26648
 L -6.54385,-1.15576 L -6.40654,-1.02681 L -6.28647,-0.881668 L -6.18553,-0.722626 L -6.10533,-0.552185 L -6.04712,-0.373032
 L -6.01183,-0.187988 L -6,-0 L -6.01183,0.187988 L -6.04712,0.373032 L -6.10533,0.552185 L -6.18553,0.722626
 L -6.28647,0.881668 L -6.40654,1.02681 L -6.54385,1.15576 L -6.69626,1.26648 L -6.86133,1.35724 L -7.03647,1.42657
 L -7.21892,1.47342 L -7.40581,1.49704 z
M -5.41602,7.09944 L -5.64027,7.07111 L -5.85922,7.01489 L -6.0694,6.93169 L -6.26749,6.82278 L -6.45035,6.68991
 L -6.61514,6.53517 L -6.75922,6.36101 L -6.88034,6.17015 L -6.97659,5.96562 L -7.04645,5.75064 L -7.08879,5.52859
 L -7.103,5.30299 L -7.08879,5.07739 L -7.04645,4.85535 L -6.97659,4.64037 L -6.88034,4.43584 L -6.75922,4.24498
 L -6.61514,4.0708 L -6.45035,3.91606 L -6.26749,3.7832 L -6.0694,3.6743 L -5.85922,3.59109 L -5.64027,3.53488
 L -5.41602,3.50655 L -5.18997,3.50655 L -4.96571,3.53488 L -4.74677,3.59109 L -4.53659,3.6743 L -4.3385,3.7832
 L -4.15562,3.91606 L -3.99084,4.0708 L -3.84676,4.24498 L -3.72565,4.43584 L -3.62939,4.64037 L -3.55954,4.85535
 L -3.51718,5.07739 L -3.50299,5.30299 L -3.51718,5.52859 L -3.55954,5.75064 L -3.62939,5.96562 L -3.72565,6.17015
 L -3.84676,6.36101 L -3.99084,6.53517 L -4.15562,6.68991 L -4.3385,6.82278 L -4.53659,6.93169 L -4.74677,7.01489
 L -4.96571,7.07111 L -5.18997,7.09944 z
M -0.0941772,8.99704 L -0.281067,8.97342 L -0.463516,8.92657 L -0.638657,8.85724 L -0.803726,8.76648 L -0.956131,8.65576
 L -1.09344,8.52681 L -1.21352,8.38167 L -1.31445,8.22263 L -1.39465,8.05219 L -1.45287,7.87303 L -1.48816,7.68799
 L -1.5,7.5 L -1.48816,7.312 L -1.45287,7.12695 L -1.39465,6.9478 L -1.31445,6.77736 L -1.21352,6.61832
 L -1.09344,6.47318 L -0.956131,6.34422 L -0.803726,6.23351 L -0.638657,6.14275 L -0.463516,6.07341 L -0.281067,6.02657
 L -0.0941772,6.00294 L 0.0941772,6.00294 L 0.281067,6.02657 L 0.463516,6.07341 L 0.638657,6.14275 L 0.803726,6.23351
 L 0.956131,6.34422 L 1.09344,6.47318 L 1.21352,6.61832 L 1.31445,6.77736 L 1.39465,6.9478 L 1.45287,7.12695
 L 1.48816,7.312 L 1.5,7.5 L 1.48816,7.68799 L 1.45287,7.87303 L 1.39465,8.05219 L 1.31445,8.22263
 L 1.21352,8.38167 L 1.09344,8.52681 L 0.956131,8.65576 L 0.803726,8.76648 L 0.638657,8.85724 L 0.463516,8.92657
 L 0.281067,8.97342 L 0.0941772,8.99704 z
M -8.11302,19.7964 L -8.33728,19.7681 L -8.55623,19.7119 L -8.76639,19.6287 L -8.96448,19.5198 L -9.14735,19.3869
 L -9.31213,19.2322 L -9.45622,19.058 L -9.57735,18.8672 L -9.67358,18.6626 L -9.74344,18.4476 L -9.7858,18.2256
 L -9.79999,18 L -9.7858,17.7744 L -9.74344,17.5524 L -9.67358,17.3374 L -9.57735,17.1328 L -9.45622,16.942
 L -9.31213,16.7678 L -9.14735,16.6131 L -8.96448,16.4802 L -8.76639,16.3713 L -8.55623,16.2881 L -8.33728,16.2319
 L -8.11302,16.2036 L -7.88696,16.2036 L -7.6627,16.2319 L -7.44376,16.2881 L -7.2336,16.3713 L -7.03551,16.4802
 L -6.85263,16.6131 L -6.68785,16.7678 L -6.54376,16.942 L -6.42264,17.1328 L -6.3264,17.3374 L -6.25655,17.5524
 L -6.21419,17.7744 L -6.2,18 L -6.21419,18.2256 L -6.25655,18.4476 L -6.3264,18.6626 L -6.42264,18.8672
 L -6.54376,19.058 L -6.68785,19.2322 L -6.85263,19.3869 L -7.03551,19.5198 L -7.2336,19.6287 L -7.44376,19.7119
 L -7.6627,19.7681 L -7.88696,19.7964 z
M 7.88696,19.7964 L 7.6627,19.7681 L 7.44376,19.7119 L 7.2336,19.6287 L 7.03551,19.5198 L 6.85263,19.3869
 L 6.68785,19.2322 L 6.54376,19.058 L 6.42264,18.8672 L 6.3264,18.6626 L 6.25655,18.4476 L 6.21419,18.2256
 L 6.2,18 L 6.21419,17.7744 L 6.25655,17.5524 L 6.3264,17.3374 L 6.42264,17.1328 L 6.54376,16.942
 L 6.68785,16.7678 L 6.85263,16.6131 L 7.03551,16.4802 L 7.2336,16.3713 L 7.44376,16.2881 L 7.6627,16.2319
 L 7.88696,16.2036 L 8.11302,16.2036 L 8.33728,16.2319 L 8.55623,16.2881 L 8.76639,16.3713 L 8.96448,16.4802
 L 9.14735,16.6131 L 9.31213,16.7678 L 9.45622,16.942 L 9.57735,17.1328 L 9.67358,17.3374 L 9.74344,17.5524
 L 9.7858,17.7744 L 9.79999,18 L 9.7858,18.2256 L 9.74344,18.4476 L 9.67358,18.6626 L 9.57735,18.8672
 L 9.45622,19.058 L 9.31213,19.2322 L 9.14735,19.3869 L 8.96448,19.5198 L 8.76639,19.6287 L 8.55623,19.7119
 L 8.33728,19.7681 L 8.11302,19.7964 z
" stroke="black" fill="lightgray" stroke-width="0.5"/>
</svg>
