<?xml version="1.0" standalone="no"?>
<!DOCTYPE svg PUBLIC "-//W3C//DTD SVG 1.1//EN" "http://www.w3.org/Graphics/SVG/1.1/DTD/svg11.dtd">
<svg width="164mm" height="164mm" viewBox="-82 -82 164 164" xmlns="http://www.w3.org/2000/svg" version="1.1">
<title>OpenSCAD Model</title>
<path d="
M 2.9369,81.9114 L 3.54507,81.7553 L 4.12889,81.5241 L 4.67912,81.2216 L 5.18712,80.8526 L 5.64484,80.4227
 L 6.04507,79.9389 L 6.38153,79.4088 L 6.64888,78.8406 L 6.84291,78.2434 L 6.96057,77.6267 L 7,77
 L 7,66.012 L 12.4608,65.3221 L 20.5496,63.2453 L 28.3143,60.171 L 35.6325,56.1478 L 42.3887,51.2391
 L 48.4764,45.5224 L 53.7996,39.0877 L 58.2744,32.0366 L 61.8301,24.4803 L 64.4108,16.5379 L 65.9756,8.33466
 L 66.0602,6.99013 L 77.3139,6.99013 L 77.9369,6.91142 L 78.5451,6.75528 L 79.1289,6.52412 L 79.6791,6.22163
 L 80.1871,5.85255 L 80.6448,5.42273 L 81.0451,4.93892 L 81.3815,4.40877 L 81.6489,3.84062 L 81.8429,3.24344
 L 81.9606,2.62666 L 82,2 L 82,-2 L 81.9606,-2.62666 L 81.8429,-3.24344 L 81.6489,-3.84062
 L 81.3815,-4.40877 L 81.0451,-4.93892 L 80.6448,-5.42273 L 80.1871,-5.85255 L 79.6791,-6.22163 L 79.1289,-6.52412
 L 78.5451,-6.75528 L 77.9369,-6.91142 L 77.3139,-6.99013 L 66.0602,-6.99013 L 65.9756,-8.33466 L 64.4108,-16.5379
 L 61.8301,-24.4803 L 58.2744,-32.0366 L 53.7996,-39.0877 L 48.4764,-45.5224 L 42.3887,-51.2391 L 35.6325,-56.1478
 L 28.3143,-60.171 L 20.5496,-63.2453 L 12.4608,-65.3221 L 7,-66.012 L 7,-77 L 6.96057,-77.6267
 L 6.84291,-78.2434 L 6.64888,-78.8406 L 6.38153,-79.4088 L 6.04507,-79.9389 L 5.64484,-80.4227 L 5.18712,-80.8526
 L 4.67912,-81.2216 L 4.12889,-81.5241 L 3.54507,-81.7553 L 2.9369,-81.9114 L 2.31395,-81.9901 L -2.31395,-81.9901
 L -2.9369,-81.9114 L -3.54507,-81.7553 L -4.12889,-81.5241 L -4.67912,-81.2216 L -5.18712,-80.8526 L -5.64484,-80.4227
 L -6.04507,-79.9389 L -6.38153,-79.4088 L -6.64888,-78.8406 L -6.84291,-78.2434 L -6.96057,-77.6267 L -7,-77
 L -7,-66.012 L -12.4608,-65.3221 L -20.5496,-63.2453 L -28.3143,-60.171 L -35.6325,-56.1478 L -42.3887,-51.2391
 L -48.4764,-45.5224 L -53.7996,-39.0877 L -58.2744,-32.0366 L -61.8301,-24.4803 L -64.4108,-16.5379 L -65.9756,-8.33466
 L -66.0602,-6.99013 L -77.3139,-6.99013 L -77.9369,-6.91142 L -78.5451,-6.75528 L -79.1289,-6.52412 L -79.6791,-6.22163
 L -80.1871,-5.85255 L -80.6448,-5.42273 L -81.0451,-4.93892 L -81.3815,-4.40877 L -81.6489,-3.84062 L -81.8429,-3.24344
 L -81.9606,-2.62666 L -82,-2 L -82,2 L -81.9606,2.62666 L -81.8429,3.24344 L -81.6489,3.84062
 L -81.3815,4.40877 L -81.0451,4.93892 L -80.6448,5.42273 L -80.1871,5.85255 L -79.6791,6.22163 L -79.1289,6.52412
 L -78.5451,6.75528 L -77.9369,6.91142 L -77.3139,6.99013 L -66.0602,6.99013 L -65.9756,8.33466 L -64.4108,16.5379
 L -61.8301,24.4803 L -58.2744,32.0366 L -53.7996,39.0877 L -48.4764,45.5224 L -42.3887,51.2391 L -35.6325,56.1478
 L -28.3143,60.171 L -20.5496,63.2453 L -12.4608,65.3221 L -7,66.012 L -7,77 L -6.96057,77.6267
 L -6.84291,78.2434 L -6.64888,78.8406 L -6.38153,79.4088 L -6.04507,79.9389 L -5.64484,80.4227 L -5.18712,80.8526
 L -4.67912,81.2216 L -4.12889,81.5241 L -3.54507,81.7553 L -2.9369,81.9114 L -2.31395,81.9901 L 2.31395,81.9901
 z
M -0.18837,-72.0059 L -0.562134,-72.0531 L -0.927048,-72.1468 L -1.27733,-72.2855 L -1.60747,-72.467 L -1.91226,-72.6885
 L -2.1869,-72.9464 L -2.42705,-73.2366 L -2.62891,-73.5547 L -2.78932,-73.8956 L -2.90575,-74.2539 L -2.97633,-74.624
 L -3,-75 L -2.97633,-75.376 L -2.90575,-75.7461 L -2.78932,-76.1044 L -2.62891,-76.4453 L -2.42705,-76.7634
 L -2.1869,-77.0536 L -1.91226,-77.3115 L -1.60747,-77.533 L -1.27733,-77.7145 L -0.927048,-77.8532 L -0.562134,-77.9469
 L -0.18837,-77.9941 L 0.18837,-77.9941 L 0.562134,-77.9469 L 0.927048,-77.8532 L 1.27733,-77.7145 L 1.60747,-77.533
 L 1.91226,-77.3115 L 2.1869,-77.0536 L 2.42705,-76.7634 L 2.62891,-76.4453 L 2.78932,-76.1044 L 2.90575,-75.7461
 L 2.97633,-75.376 L 3,-75 L 2.97633,-74.624 L 2.90575,-74.2539 L 2.78932,-73.8956 L 2.62891,-73.5547
 L 2.42705,-73.2366 L 2.1869,-72.9464 L 1.91226,-72.6885 L 1.60747,-72.467 L 1.27733,-72.2855 L 0.927048,-72.1468
 L 0.562134,-72.0531 L 0.18837,-72.0059 z
M -0.0941772,-60.003 L -0.281067,-60.0266 L -0.463516,-60.0734 L -0.638657,-60.1428 L -0.803726,-60.2335 L -0.956131,-60.3442
 L -1.09344,-60.4732 L -1.21352,-60.6183 L -1.31445,-60.7774 L -1.39465,-60.9478 L -1.45287,-61.127 L -1.48816,-61.312
 L -1.5,-61.5 L -1.48816,-61.688 L -1.45287,-61.873 L -1.39465,-62.0522 L -1.31445,-62.2226 L -1.21352,-62.3817
 L -1.09344,-62.5268 L -0.956131,-62.6558 L -0.803726,-62.7665 L -0.638657,-62.8572 L -0.463516,-62.9266 L -0.281067,-62.9734
 L -0.0941772,-62.997 L 0.0941772,-62.997 L 0.281067,-62.9734 L 0.463516,-62.9266 L 0.638657,-62.8572 L 0.803726,-62.7665
 L 0.956131,-62.6558 L 1.09344,-62.5268 L 1.21352,-62.3817 L 1.31445,-62.2226 L 1.39465,-62.0522 L 1.45287,-61.873
 L 1.48816,-61.688 L 1.5,-61.5 L 1.48816,-61.312 L 1.45287,-61.127 L 1.39465,-60.9478 L 1.31445,-60.7774
 L 1.21352,-60.6183 L 1.09344,-60.4732 L 0.956131,-60.3442 L 0.803726,-60.2335 L 0.638657,-60.1428 L 0.463516,-60.0734
 L 0.281067,-60.0266 L 0.0941772,-60.003 z
M 4.73105,-59.8134 L 4.54416,-59.837 L 4.36169,-59.8838 L 4.18655,-59.9532 L 4.02148,-60.0439 L 3.86909,-60.1546
 L 3.73178,-60.2836 L 3.61169,-60.4287 L 3.51077,-60.5878 L 3.43056,-60.7582 L 3.37234,-60.9374 L 3.33705,-61.1224
 L 3.32523,-61.3104 L 3.33705,-61.4984 L 3.37234,-61.6834 L 3.43056,-61.8626 L 3.51077,-62.033 L 3.61169,-62.1921
 L 3.73178,-62.3372 L 3.86909,-62.4662 L 4.02148,-62.5769 L 4.18655,-62.6676 L 4.36169,-62.737 L 4.54416,-62.7838
 L 4.73105,-62.8074 L 4.91942,-62.8074 L 5.10629,-62.7838 L 5.28876,-62.737 L 5.4639,-62.6676 L 5.62897,-62.5769
 L 5.78136,-62.4662 L 5.91869,-62.3372 L 6.03876,-62.1921 L 6.13969,-62.033 L 6.21989,-61.8626 L 6.27811,-61.6834
 L 6.3134,-61.4984 L 6.32523,-61.3104 L 6.3134,-61.1224 L 6.27811,-60.9374 L 6.21989,-60.7582 L 6.13969,-60.5878
 L 6.03876,-60.4287 L 5.91869,-60.2836 L 5.78136,-60.1546 L 5.62897,-60.0439 L 5.4639,-59.9532 L 5.28876,-59.8838
 L 5.10629,-59.837 L 4.91942,-59.8134 z
M -4.91942,-59.8134 L -5.10629,-59.837 L -5.28876,-59.8838 L -5.4639,-59.9532 L -5.62897,-60.0439 L -5.78136,-60.1546
 L -5.91869,-60.2836 L -6.03876,-60.4287 L -6.13969,-60.5878 L -6.21989,-60.7582 L -6.27811,-60.9374 L -6.3134,-61.1224
 L -6.32523,-61.3104 L -6.3134,-61.4984 L -6.27811,-61.6834 L -6.21989,-61.8626 L -6.13969,-62.033 L -6.03876,-62.1921
 L -5.91869,-62.3372 L -5.78136,-62.4662 L -5.62897,-62.5769 L -5.4639,-62.6676 L -5.28876,-62.737 L -5.10629,-62.7838
 L -4.91942,-62.8074 L -4.73105,-62.8074 L -4.54416,-62.7838 L -4.36169,-62.737 L -4.18655,-62.6676 L -4.02148,-62.5769
 L -3.86909,-62.4662 L -3.73178,-62.3372 L -3.61169,-62.1921 L -3.51077,-62.033 L -3.43056,-61.8626 L -3.37234,-61.6834
 L -3.33705,-61.4984 L -3.32523,-61.3104 L -3.33705,-61.1224 L -3.37234,-60.9374 L -3.43056,-60.7582 L -3.51077,-60.5878
 L -3.61169,-60.4287 L -3.73178,-60.2836 L -3.86909,-60.1546 L -4.02148,-60.0439 L -4.18655,-59.9532 L -4.36169,-59.8838
 L -4.54416,-59.837 L -4.73105,-59.8134 z
M 9.52652,-59.2458 L 9.33965,-59.2694 L 9.15718,-59.3162 L 8.98204,-59.3856 L 8.81697,-59.4763 L 8.66458,-59.5871
 L 8.52725,-59.716 L 8.40718,-59.8611 L 8.30626,-60.0202 L 8.22604,-60.1906 L 8.16783,-60.3698 L 8.13254,-60.5548
 L 8.12071,-60.7428 L 8.13254,-60.9308 L 8.16783,-61.1159 L 8.22604,-61.295 L 8.30626,-61.4655 L 8.40718,-61.6245
 L 8.52725,-61.7697 L 8.66458,-61.8986 L 8.81697,-62.0093 L 8.98204,-62.1001 L 9.15718,-62.1694 L 9.33965,-62.2163
 L 9.52652,-62.2399 L 9.7149,-62.2399 L 9.90178,-62.2163 L 10.0842,-62.1694 L 10.2594,-62.1001 L 10.4245,-62.0093
 L 10.5768,-61.8986 L 10.7142,-61.7697 L 10.8342,-61.6245 L 10.9352,-61.4655 L 11.0154,-61.295 L 11.0736,-61.1159
 L 11.1089,-60.9308 L 11.1207,-60.7428 L 11.1089,-60.5548 L 11.0736,-60.3698 L 11.0154,-60.1906 L 10.9352,-60.0202
 L 10.8342,-59.8611 L 10.7142,-59.716 L 10.5768,-59.5871 L 10.4245,-59.4763 L 10.2594,-59.3856 L 10.0842,-59.3162
 L 9.90178,-59.2694 L 9.7149,-59.2458 z
M -9.7149,-59.2458 L -9.90178,-59.2694 L -10.0842,-59.3162 L -10.2594,-59.3856 L -10.4245,-59.4763 L -10.5768,-59.5871
 L -10.7142,-59.716 L -10.8342,-59.8611 L -10.9352,-60.0202 L -11.0154,-60.1906 L -11.0736,-60.3698 L -11.1089,-60.5548
 L -11.1207,-60.7428 L -11.1089,-60.9308 L -11.0736,-61.1159 L -11.0154,-61.295 L -10.9352,-61.4655 L -10.8342,-61.6245
 L -10.7142,-61.7697 L -10.5768,-61.8986 L -10.4245,-62.0093 L -10.2594,-62.1001 L -10.0842,-62.1694 L -9.90178,-62.2163
 L -9.7149,-62.2399 L -9.52652,-62.2399 L -9.33965,-62.2163 L -9.15718,-62.1694 L -8.98204,-62.1001 L -8.81697,-62.0093
 L -8.66458,-61.8986 L -8.52725,-61.7697 L -8.40718,-61.6245 L -8.30626,-61.4655 L -8.22604,-61.295 L -8.16783,-61.1159
 L -8.13254,-60.9308 L -8.12071,-60.7428 L -8.13254,-60.5548 L -8.16783,-60.3698 L -8.22604,-60.1906 L -8.30626,-60.0202
 L -8.40718,-59.8611 L -8.52725,-59.716 L -8.66458,-59.5871 L -8.81697,-59.4763 L -8.98204,-59.3856 L -9.15718,-59.3162
 L -9.33965,-59.2694 L -9.52652,-59.2458 z
M 14.2627,-58.3037 L 14.0758,-58.3273 L 13.8934,-58.3742 L 13.7182,-58.4435 L 13.5531,-58.5343 L 13.4007,-58.645
 L 13.2634,-58.7739 L 13.1434,-58.9191 L 13.0424,-59.0781 L 12.9622,-59.2486 L 12.904,-59.4277 L 12.8687,-59.6127
 L 12.8569,-59.8008 L 12.8687,-59.9887 L 12.904,-60.1738 L 12.9622,-60.3529 L 13.0424,-60.5234 L 13.1434,-60.6824
 L 13.2634,-60.8276 L 13.4007,-60.9565 L 13.5531,-61.0672 L 13.7182,-61.158 L 13.8934,-61.2273 L 14.0758,-61.2742
 L 14.2627,-61.2978 L 14.4511,-61.2978 L 14.638,-61.2742 L 14.8204,-61.2273 L 14.9955,-61.158 L 15.1606,-61.0672
 L 15.313,-60.9565 L 15.4503,-60.8276 L 15.5704,-60.6824 L 15.6713,-60.5234 L 15.7515,-60.3529 L 15.8098,-60.1738
 L 15.845,-59.9887 L 15.8569,-59.8008 L 15.845,-59.6127 L 15.8098,-59.4277 L 15.7515,-59.2486 L 15.6713,-59.0781
 L 15.5704,-58.9191 L 15.4503,-58.7739 L 15.313,-58.645 L 15.1606,-58.5343 L 14.9955,-58.4435 L 14.8204,-58.3742
 L 14.638,-58.3273 L 14.4511,-58.3037 z
M -14.4511,-58.3037 L -14.638,-58.3273 L -14.8204,-58.3742 L -14.9955,-58.4435 L -15.1606,-58.5343 L -15.313,-58.645
 L -15.4503,-58.7739 L -15.5704,-58.9191 L -15.6713,-59.0781 L -15.7515,-59.2486 L -15.8098,-59.4277 L -15.845,-59.6127
 L -15.8569,-59.8008 L -15.845,-59.9887 L -15.8098,-60.1738 L -15.7515,-60.3529 L -15.6713,-60.5234 L -15.5704,-60.6824
 L -15.4503,-60.8276 L -15.313,-60.9565 L -15.1606,-61.0672 L -14.9955,-61.158 L -14.8204,-61.2273 L -14.638,-61.2742
 L -14.4511,-61.2978 L -14.2627,-61.2978 L -14.0758,-61.2742 L -13.8934,-61.2273 L -13.7182,-61.158 L -13.5531,-61.0672
 L -13.4007,-60.9565 L -13.2634,-60.8276 L -13.1434,-60.6824 L -13.0424,-60.5234 L -12.9622,-60.3529 L -12.904,-60.1738
 L -12.8687,-59.9887 L -12.8569,-59.8008 L -12.8687,-59.6127 L -12.904,-59.4277 L -12.9622,-59.2486 L -13.0424,-59.0781
 L -13.1434,-58.9191 L -13.2634,-58.7739 L -13.4007,-58.645 L -13.5531,-58.5343 L -13.7182,-58.4435 L -13.8934,-58.3742
 L -14.0758,-58.3273 L -14.2627,-58.3037 z
M 18.9104,-56.9929 L 18.7235,-57.0165 L 18.541,-57.0634 L 18.3659,-57.1327 L 18.2008,-57.2235 L 18.0484,-57.3342
 L 17.9111,-57.4632 L 17.791,-57.6083 L 17.6901,-57.7673 L 17.6099,-57.9378 L 17.5517,-58.1169 L 17.5164,-58.302
 L 17.5045,-58.49 L 17.5164,-58.678 L 17.5517,-58.863 L 17.6099,-59.0422 L 17.6901,-59.2126 L 17.791,-59.3716
 L 17.9111,-59.5168 L 18.0484,-59.6457 L 18.2008,-59.7565 L 18.3659,-59.8472 L 18.541,-59.9165 L 18.7235,-59.9634
 L 18.9104,-59.987 L 19.0987,-59.987 L 19.2856,-59.9634 L 19.4681,-59.9165 L 19.6432,-59.8472 L 19.8083,-59.7565
 L 19.9607,-59.6457 L 20.098,-59.5168 L 20.2181,-59.3716 L 20.319,-59.2126 L 20.3992,-59.0422 L 20.4574,-58.863
 L 20.4927,-58.678 L 20.5045,-58.49 L 20.4927,-58.302 L 20.4574,-58.1169 L 20.3992,-57.9378 L 20.319,-57.7673
 L 20.2181,-57.6083 L 20.098,-57.4632 L 19.9607,-57.3342 L 19.8083,-57.2235 L 19.6432,-57.1327 L 19.4681,-57.0634
 L 19.2856,-57.0165 L 19.0987,-56.9929 z
M -19.0987,-56.9929 L -19.2856,-57.0165 L -19.4681,-57.0634 L -19.6432,-57.1327 L -19.8083,-57.2235 L -19.9607,-57.3342
 L -20.098,-57.4632 L -20.2181,-57.6083 L -20.319,-57.7673 L -20.3992,-57.9378 L -20.4574,-58.1169 L -20.4927,-58.302
 L -20.5045,-58.49 L -20.4927,-58.678 L -20.4574,-58.863 L -20.3992,-59.0422 L -20.319,-59.2126 L -20.2181,-59.3716
 L -20.098,-59.5168 L -19.9607,-59.6457 L -19.8083,-59.7565 L -19.6432,-59.8472 L -19.4681,-59.9165 L -19.2856,-59.9634
 L -19.0987,-59.987 L -18.9104,-59.987 L -18.7235,-59.9634 L -18.541,-59.9165 L -18.3659,-59.8472 L -18.2008,-59.7565
 L -18.0484,-59.6457 L -17.9111,-59.5168 L -17.791,-59.3716 L -17.6901,-59.2126 L -17.6099,-59.0422 L -17.5517,-58.863
 L -17.5164,-58.678 L -17.5045,-58.49 L -17.5164,-58.302 L -17.5517,-58.1169 L -17.6099,-57.9378 L -17.6901,-57.7673
 L -17.791,-57.6083 L -17.9111,-57.4632 L -18.0484,-57.3342 L -18.2008,-57.2235 L -18.3659,-57.1327 L -18.541,-57.0634
 L -18.7235,-57.0165 L -18.9104,-56.9929 z
M -23.6292,-55.3215 L -23.8161,-55.3452 L -23.9986,-55.392 L -24.1737,-55.4613 L -24.3388,-55.5521 L -24.4912,-55.6628
 L -24.6285,-55.7918 L -24.7486,-55.9369 L -24.8495,-56.096 L -24.9297,-56.2664 L -24.9879,-56.4456 L -25.0232,-56.6306
 L -25.035,-56.8186 L -25.0232,-57.0066 L -24.9879,-57.1916 L -24.9297,-57.3708 L -24.8495,-57.5412 L -24.7486,-57.7003
 L -24.6285,-57.8454 L -24.4912,-57.9743 L -24.3388,-58.0851 L -24.1737,-58.1758 L -23.9986,-58.2452 L -23.8161,-58.292
 L -23.6292,-58.3156 L -23.4408,-58.3156 L -23.254,-58.292 L -23.0715,-58.2452 L -22.8964,-58.1758 L -22.7313,-58.0851
 L -22.5789,-57.9743 L -22.4416,-57.8454 L -22.3215,-57.7003 L -22.2206,-57.5412 L -22.1404,-57.3708 L -22.0822,-57.1916
 L -22.0469,-57.0066 L -22.035,-56.8186 L -22.0469,-56.6306 L -22.0822,-56.4456 L -22.1404,-56.2664 L -22.2206,-56.096
 L -22.3215,-55.9369 L -22.4416,-55.7918 L -22.5789,-55.6628 L -22.7313,-55.5521 L -22.8964,-55.4613 L -23.0715,-55.392
 L -23.254,-55.3452 L -23.4408,-55.3215 z
M 23.4408,-55.3215 L 23.254,-55.3452 L 23.0715,-55.392 L 22.8964,-55.4613 L 22.7313,-55.5521 L 22.5789,-55.6628
 L 22.4416,-55.7918 L 22.3215,-55.9369 L 22.2206,-56.096 L 22.1404,-56.2664 L 22.0822,-56.4456 L 22.0469,-56.6306
 L 22.035,-56.8186 L 22.0469,-57.0066 L 22.0822,-57.1916 L 22.1404,-57.3708 L 22.2206,-57.5412 L 22.3215,-57.7003
 L 22.4416,-57.8454 L 22.5789,-57.9743 L 22.7313,-58.0851 L 22.8964,-58.1758 L 23.0715,-58.2452 L 23.254,-58.292
 L 23.4408,-58.3156 L 23.6292,-58.3156 L 23.8161,-58.292 L 23.9986,-58.2452 L 24.1737,-58.1758 L 24.3388,-58.0851
 L 24.4912,-57.9743 L 24.6285,-57.8454 L 24.7486,-57.7003 L 24.8495,-57.5412 L 24.9297,-57.3708 L 24.9879,-57.1916
 L 25.0232,-57.0066 L 25.035,-56.8186 L 25.0232,-56.6306 L 24.9879,-56.4456 L 24.9297,-56.2664 L 24.8495,-56.096
 L 24.7486,-55.9369 L 24.6285,-55.7918 L 24.4912,-55.6628 L 24.3388,-55.5521 L 24.1737,-55.4613 L 23.9986,-55.392
 L 23.8161,-55.3452 L 23.6292,-55.3215 z
M 27.8262,-53.2999 L 27.6393,-53.3235 L 27.4569,-53.3703 L 27.2817,-53.4397 L 27.1167,-53.5304 L 26.9643,-53.6411
 L 26.827,-53.7701 L 26.7069,-53.9152 L 26.6059,-54.0743 L 26.5257,-54.2447 L 26.4675,-54.4239 L 26.4322,-54.6089
 L 26.4204,-54.7969 L 26.4322,-54.9849 L 26.4675,-55.1699 L 26.5257,-55.3491 L 26.6059,-55.5195 L 26.7069,-55.6786
 L 26.827,-55.8237 L 26.9643,-55.9527 L 27.1167,-56.0634 L 27.2817,-56.1541 L 27.4569,-56.2235 L 27.6393,-56.2703
 L 27.8262,-56.2939 L 28.0146,-56.2939 L 28.2015,-56.2703 L 28.3839,-56.2235 L 28.5591,-56.1541 L 28.7242,-56.0634
 L 28.8765,-55.9527 L 29.0139,-55.8237 L 29.1339,-55.6786 L 29.2349,-55.5195 L 29.3151,-55.3491 L 29.3733,-55.1699
 L 29.4086,-54.9849 L 29.4204,-54.7969 L 29.4086,-54.6089 L 29.3733,-54.4239 L 29.3151,-54.2447 L 29.2349,-54.0743
 L 29.1339,-53.9152 L 29.0139,-53.7701 L 28.8765,-53.6411 L 28.7242,-53.5304 L 28.5591,-53.4397 L 28.3839,-53.3703
 L 28.2015,-53.3235 L 28.0146,-53.2999 z
M -28.0146,-53.2999 L -28.2015,-53.3235 L -28.3839,-53.3703 L -28.5591,-53.4397 L -28.7242,-53.5304 L -28.8765,-53.6411
 L -29.0139,-53.7701 L -29.1339,-53.9152 L -29.2349,-54.0743 L -29.3151,-54.2447 L -29.3733,-54.4239 L -29.4086,-54.6089
 L -29.4204,-54.7969 L -29.4086,-54.9849 L -29.3733,-55.1699 L -29.3151,-55.3491 L -29.2349,-55.5195 L -29.1339,-55.6786
 L -29.0139,-55.8237 L -28.8765,-55.9527 L -28.7242,-56.0634 L -28.5591,-56.1541 L -28.3839,-56.2235 L -28.2015,-56.2703
 L -28.0146,-56.2939 L -27.8262,-56.2939 L -27.6393,-56.2703 L -27.4569,-56.2235 L -27.2817,-56.1541 L -27.1167,-56.0634
 L -26.9643,-55.9527 L -26.827,-55.8237 L -26.7069,-55.6786 L -26.6059,-55.5195 L -26.5257,-55.3491 L -26.4675,-55.1699
 L -26.4322,-54.9849 L -26.4204,-54.7969 L -26.4322,-54.6089 L -26.4675,-54.4239 L -26.5257,-54.2447 L -26.6059,-54.0743
 L -26.7069,-53.9152 L -26.827,-53.7701 L -26.9643,-53.6411 L -27.1167,-53.5304 L -27.2817,-53.4397 L -27.4569,-53.3703
 L -27.6393,-53.3235 L -27.8262,-53.2999 z
M -32.2278,-50.9403 L -32.4147,-50.9639 L -32.5972,-51.0108 L -32.7723,-51.0801 L -32.9374,-51.1709 L -33.0898,-51.2816
 L -33.2271,-51.4105 L -33.3472,-51.5557 L -33.4481,-51.7147 L -33.5283,-51.8852 L -33.5865,-52.0643 L -33.6218,-52.2494
 L -33.6337,-52.4374 L -33.6218,-52.6254 L -33.5865,-52.8104 L -33.5283,-52.9895 L -33.4481,-53.16 L -33.3472,-53.319
 L -33.2271,-53.4642 L -33.0898,-53.5931 L -32.9374,-53.7039 L -32.7723,-53.7946 L -32.5972,-53.864 L -32.4147,-53.9108
 L -32.2278,-53.9344 L -32.0395,-53.9344 L -31.8526,-53.9108 L -31.6701,-53.864 L -31.495,-53.7946 L -31.3299,-53.7039
 L -31.1775,-53.5931 L -31.0402,-53.4642 L -30.9201,-53.319 L -30.8192,-53.16 L -30.739,-52.9895 L -30.6808,-52.8104
 L -30.6455,-52.6254 L -30.6337,-52.4374 L -30.6455,-52.2494 L -30.6808,-52.0643 L -30.739,-51.8852 L -30.8192,-51.7147
 L -30.9201,-51.5557 L -31.0402,-51.4105 L -31.1775,-51.2816 L -31.3299,-51.1709 L -31.495,-51.0801 L -31.6701,-51.0108
 L -31.8526,-50.9639 L -32.0395,-50.9403 z
M 32.0395,-50.9403 L 31.8526,-50.9639 L 31.6701,-51.0108 L 31.495,-51.0801 L 31.3299,-51.1709 L 31.1775,-51.2816
 L 31.0402,-51.4105 L 30.9201,-51.5557 L 30.8192,-51.7147 L 30.739,-51.8852 L 30.6808,-52.0643 L 30.6455,-52.2494
 L 30.6337,-52.4374 L 30.6455,-52.6254 L 30.6808,-52.8104 L 30.739,-52.9895 L 30.8192,-53.16 L 30.9201,-53.319
 L 31.0402,-53.4642 L 31.1775,-53.5931 L 31.3299,-53.7039 L 31.495,-53.7946 L 31.6701,-53.864 L 31.8526,-53.9108
 L 32.0395,-53.9344 L 32.2278,-53.9344 L 32.4147,-53.9108 L 32.5972,-53.864 L 32.7723,-53.7946 L 32.9374,-53.7039
 L 33.0898,-53.5931 L 33.2271,-53.4642 L 33.3472,-53.319 L 33.4481,-53.16 L 33.5283,-52.9895 L 33.5865,-52.8104
 L 33.6218,-52.6254 L 33.6337,-52.4374 L 33.6218,-52.2494 L 33.5865,-52.0643 L 33.5283,-51.8852 L 33.4481,-51.7147
 L 33.3472,-51.5557 L 33.2271,-51.4105 L 33.0898,-51.2816 L 32.9374,-51.1709 L 32.7723,-51.0801 L 32.5972,-51.0108
 L 32.4147,-50.9639 L 32.2278,-50.9403 z
M -36.243,-48.2575 L -36.4299,-48.2811 L -36.6123,-48.328 L -36.7875,-48.3973 L -36.9525,-48.4881 L -37.1049,-48.5988
 L -37.2422,-48.7277 L -37.3623,-48.8729 L -37.4632,-49.0319 L -37.5435,-49.2023 L -37.6017,-49.3815 L -37.637,-49.5665
 L -37.6488,-49.7545 L -37.637,-49.9425 L -37.6017,-50.1276 L -37.5435,-50.3067 L -37.4632,-50.4772 L -37.3623,-50.6362
 L -37.2422,-50.7814 L -37.1049,-50.9103 L -36.9525,-51.021 L -36.7875,-51.1118 L -36.6123,-51.1811 L -36.4299,-51.228
 L -36.243,-51.2516 L -36.0546,-51.2516 L -35.8677,-51.228 L -35.6853,-51.1811 L -35.5101,-51.1118 L -35.345,-51.021
 L -35.1927,-50.9103 L -35.0553,-50.7814 L -34.9353,-50.6362 L -34.8343,-50.4772 L -34.7541,-50.3067 L -34.6959,-50.1276
 L -34.6606,-49.9425 L -34.6488,-49.7545 L -34.6606,-49.5665 L -34.6959,-49.3815 L -34.7541,-49.2023 L -34.8343,-49.0319
 L -34.9353,-48.8729 L -35.0553,-48.7277 L -35.1927,-48.5988 L -35.345,-48.4881 L -35.5101,-48.3973 L -35.6853,-48.328
 L -35.8677,-48.2811 L -36.0546,-48.2575 z
M 36.0546,-48.2575 L 35.8677,-48.2811 L 35.6853,-48.328 L 35.5101,-48.3973 L 35.345,-48.4881 L 35.1927,-48.5988
 L 35.0553,-48.7277 L 34.9353,-48.8729 L 34.8343,-49.0319 L 34.7541,-49.2023 L 34.6959,-49.3815 L 34.6606,-49.5665
 L 34.6488,-49.7545 L 34.6606,-49.9425 L 34.6959,-50.1276 L 34.7541,-50.3067 L 34.8343,-50.4772 L 34.9353,-50.6362
 L 35.0553,-50.7814 L 35.1927,-50.9103 L 35.345,-51.021 L 35.5101,-51.1118 L 35.6853,-51.1811 L 35.8677,-51.228
 L 36.0546,-51.2516 L 36.243,-51.2516 L 36.4299,-51.228 L 36.6123,-51.1811 L 36.7875,-51.1118 L 36.9525,-51.021
 L 37.1049,-50.9103 L 37.2422,-50.7814 L 37.3623,-50.6362 L 37.4632,-50.4772 L 37.5435,-50.3067 L 37.6017,-50.1276
 L 37.637,-49.9425 L 37.6488,-49.7545 L 37.637,-49.5665 L 37.6017,-49.3815 L 37.5435,-49.2023 L 37.4632,-49.0319
 L 37.3623,-48.8729 L 37.2422,-48.7277 L 37.1049,-48.5988 L 36.9525,-48.4881 L 36.7875,-48.3973 L 36.6123,-48.328
 L 36.4299,-48.2811 L 36.243,-48.2575 z
M 39.8469,-45.2679 L 39.66,-45.2915 L 39.4775,-45.3384 L 39.3024,-45.4077 L 39.1373,-45.4985 L 38.9849,-45.6092
 L 38.8476,-45.7381 L 38.7275,-45.8833 L 38.6266,-46.0423 L 38.5464,-46.2128 L 38.4882,-46.3919 L 38.4529,-46.577
 L 38.4411,-46.765 L 38.4529,-46.953 L 38.4882,-47.138 L 38.5464,-47.3172 L 38.6266,-47.4876 L 38.7275,-47.6466
 L 38.8476,-47.7918 L 38.9849,-47.9207 L 39.1373,-48.0314 L 39.3024,-48.1222 L 39.4775,-48.1915 L 39.66,-48.2384
 L 39.8469,-48.262 L 40.0352,-48.262 L 40.2221,-48.2384 L 40.4046,-48.1915 L 40.5797,-48.1222 L 40.7448,-48.0314
 L 40.8972,-47.9207 L 41.0345,-47.7918 L 41.1546,-47.6466 L 41.2555,-47.4876 L 41.3357,-47.3172 L 41.3939,-47.138
 L 41.4292,-46.953 L 41.4411,-46.765 L 41.4292,-46.577 L 41.3939,-46.3919 L 41.3357,-46.2128 L 41.2555,-46.0423
 L 41.1546,-45.8833 L 41.0345,-45.7381 L 40.8972,-45.6092 L 40.7448,-45.4985 L 40.5797,-45.4077 L 40.4046,-45.3384
 L 40.2221,-45.2915 L 40.0352,-45.2679 z
M -40.0352,-45.2679 L -40.2221,-45.2915 L -40.4046,-45.3384 L -40.5797,-45.4077 L -40.7448,-45.4985 L -40.8972,-45.6092
 L -41.0345,-45.7381 L -41.1546,-45.8833 L -41.2555,-46.0423 L -41.3357,-46.2128 L -41.3939,-46.3919 L -41.4292,-46.577
 L -41.4411,-46.765 L -41.4292,-46.953 L -41.3939,-47.138 L -41.3357,-47.3172 L -41.2555,-47.4876 L -41.1546,-47.6466
 L -41.0345,-47.7918 L -40.8972,-47.9207 L -40.7448,-48.0314 L -40.5797,-48.1222 L -40.4046,-48.1915 L -40.2221,-48.2384
 L -40.0352,-48.262 L -39.8469,-48.262 L -39.66,-48.2384 L -39.4775,-48.1915 L -39.3024,-48.1222 L -39.1373,-48.0314
 L -38.9849,-47.9207 L -38.8476,-47.7918 L -38.7275,-47.6466 L -38.6266,-47.4876 L -38.5464,-47.3172 L -38.4882,-47.138
 L -38.4529,-46.953 L -38.4411,-46.765 L -38.4529,-46.577 L -38.4882,-46.3919 L -38.5464,-46.2128 L -38.6266,-46.0423
 L -38.7275,-45.8833 L -38.8476,-45.7381 L -38.9849,-45.6092 L -39.1373,-45.4985 L -39.3024,-45.4077 L -39.4775,-45.3384
 L -39.66,-45.2915 L -39.8469,-45.2679 z
M -43.5813,-41.99 L -43.7681,-42.0136 L -43.9506,-42.0605 L -44.1257,-42.1298 L -44.2908,-42.2206 L -44.4432,-42.3313
 L -44.5805,-42.4602 L -44.7006,-42.6054 L -44.8015,-42.7644 L -44.8817,-42.9349 L -44.9399,-43.114 L -44.9752,-43.2991
 L -44.9871,-43.4871 L -44.9752,-43.6751 L -44.9399,-43.8601 L -44.8817,-44.0392 L -44.8015,-44.2097 L -44.7006,-44.3687
 L -44.5805,-44.5139 L -44.4432,-44.6428 L -44.2908,-44.7536 L -44.1257,-44.8443 L -43.9506,-44.9137 L -43.7681,-44.9605
 L -43.5813,-44.9841 L -43.3929,-44.9841 L -43.206,-44.9605 L -43.0235,-44.9137 L -42.8484,-44.8443 L -42.6833,-44.7536
 L -42.5309,-44.6428 L -42.3936,-44.5139 L -42.2735,-44.3687 L -42.1726,-44.2097 L -42.0924,-44.0392 L -42.0342,-43.8601
 L -41.9989,-43.6751 L -41.9871,-43.4871 L -41.9989,-43.2991 L -42.0342,-43.114 L -42.0924,-42.9349 L -42.1726,-42.7644
 L -42.2735,-42.6054 L -42.3936,-42.4602 L -42.5309,-42.3313 L -42.6833,-42.2206 L -42.8484,-42.1298 L -43.0235,-42.0605
 L -43.206,-42.0136 L -43.3929,-41.99 z
M 43.3929,-41.99 L 43.206,-42.0136 L 43.0235,-42.0605 L 42.8484,-42.1298 L 42.6833,-42.2206 L 42.5309,-42.3313
 L 42.3936,-42.4602 L 42.2735,-42.6054 L 42.1726,-42.7644 L 42.0924,-42.9349 L 42.0342,-43.114 L 41.9989,-43.2991
 L 41.9871,-43.4871 L 41.9989,-43.6751 L 42.0342,-43.8601 L 42.0924,-44.0392 L 42.1726,-44.2097 L 42.2735,-44.3687
 L 42.3936,-44.5139 L 42.5309,-44.6428 L 42.6833,-44.7536 L 42.8484,-44.8443 L 43.0235,-44.9137 L 43.206,-44.9605
 L 43.3929,-44.9841 L 43.5813,-44.9841 L 43.7681,-44.9605 L 43.9506,-44.9137 L 44.1257,-44.8443 L 44.2908,-44.7536
 L 44.4432,-44.6428 L 44.5805,-44.5139 L 44.7006,-44.3687 L 44.8015,-44.2097 L 44.8817,-44.0392 L 44.9399,-43.8601
 L 44.9752,-43.6751 L 44.9871,-43.4871 L 44.9752,-43.2991 L 44.9399,-43.114 L 44.8817,-42.9349 L 44.8015,-42.7644
 L 44.7006,-42.6054 L 44.5805,-42.4602 L 44.4432,-42.3313 L 44.2908,-42.2206 L 44.1257,-42.1298 L 43.9506,-42.0605
 L 43.7681,-42.0136 L 43.5813,-41.99 z
M -46.8591,-38.444 L -47.046,-38.4676 L -47.2285,-38.5145 L -47.4036,-38.5838 L -47.5687,-38.6746 L -47.7211,-38.7853
 L -47.8584,-38.9142 L -47.9785,-39.0594 L -48.0794,-39.2184 L -48.1596,-39.3889 L -48.2178,-39.568 L -48.2531,-39.7531
 L -48.265,-39.9411 L -48.2531,-40.129 L -48.2178,-40.3141 L -48.1596,-40.4932 L -48.0794,-40.6637 L -47.9785,-40.8227
 L -47.8584,-40.9679 L -47.7211,-41.0968 L -47.5687,-41.2075 L -47.4036,-41.2983 L -47.2285,-41.3676 L -47.046,-41.4145
 L -46.8591,-41.4381 L -46.6708,-41.4381 L -46.4839,-41.4145 L -46.3014,-41.3676 L -46.1263,-41.2983 L -45.9612,-41.2075
 L -45.8088,-41.0968 L -45.6715,-40.9679 L -45.5514,-40.8227 L -45.4505,-40.6637 L -45.3703,-40.4932 L -45.3121,-40.3141
 L -45.2768,-40.129 L -45.265,-39.9411 L -45.2768,-39.7531 L -45.3121,-39.568 L -45.3703,-39.3889 L -45.4505,-39.2184
 L -45.5514,-39.0594 L -45.6715,-38.9142 L -45.8088,-38.7853 L -45.9612,-38.6746 L -46.1263,-38.5838 L -46.3014,-38.5145
 L -46.4839,-38.4676 L -46.6708,-38.444 z
M 46.6708,-38.444 L 46.4839,-38.4676 L 46.3014,-38.5145 L 46.1263,-38.5838 L 45.9612,-38.6746 L 45.8088,-38.7853
 L 45.6715,-38.9142 L 45.5514,-39.0594 L 45.4505,-39.2184 L 45.3703,-39.3889 L 45.3121,-39.568 L 45.2768,-39.7531
 L 45.265,-39.9411 L 45.2768,-40.129 L 45.3121,-40.3141 L 45.3703,-40.4932 L 45.4505,-40.6637 L 45.5514,-40.8227
 L 45.6715,-40.9679 L 45.8088,-41.0968 L 45.9612,-41.2075 L 46.1263,-41.2983 L 46.3014,-41.3676 L 46.4839,-41.4145
 L 46.6708,-41.4381 L 46.8591,-41.4381 L 47.046,-41.4145 L 47.2285,-41.3676 L 47.4036,-41.2983 L 47.5687,-41.2075
 L 47.7211,-41.0968 L 47.8584,-40.9679 L 47.9785,-40.8227 L 48.0794,-40.6637 L 48.1596,-40.4932 L 48.2178,-40.3141
 L 48.2531,-40.129 L 48.265,-39.9411 L 48.2531,-39.7531 L 48.2178,-39.568 L 48.1596,-39.3889 L 48.0794,-39.2184
 L 47.9785,-39.0594 L 47.8584,-38.9142 L 47.7211,-38.7853 L 47.5687,-38.6746 L 47.4036,-38.5838 L 47.2285,-38.5145
 L 47.046,-38.4676 L 46.8591,-38.444 z
M -49.8487,-34.6517 L -50.0356,-34.6754 L -50.2181,-34.7222 L -50.3932,-34.7915 L -50.5583,-34.8823 L -50.7107,-34.993
 L -50.848,-35.122 L -50.9681,-35.2671 L -51.069,-35.4262 L -51.1492,-35.5966 L -51.2074,-35.7758 L -51.2427,-35.9608
 L -51.2545,-36.1488 L -51.2427,-36.3368 L -51.2074,-36.5218 L -51.1492,-36.701 L -51.069,-36.8714 L -50.9681,-37.0305
 L -50.848,-37.1756 L -50.7107,-37.3046 L -50.5583,-37.4153 L -50.3932,-37.506 L -50.2181,-37.5754 L -50.0356,-37.6222
 L -49.8487,-37.6458 L -49.6604,-37.6458 L -49.4735,-37.6222 L -49.291,-37.5754 L -49.1159,-37.506 L -48.9508,-37.4153
 L -48.7984,-37.3046 L -48.6611,-37.1756 L -48.541,-37.0305 L -48.4401,-36.8714 L -48.3599,-36.701 L -48.3017,-36.5218
 L -48.2664,-36.3368 L -48.2545,-36.1488 L -48.2664,-35.9608 L -48.3017,-35.7758 L -48.3599,-35.5966 L -48.4401,-35.4262
 L -48.541,-35.2671 L -48.6611,-35.122 L -48.7984,-34.993 L -48.9508,-34.8823 L -49.1159,-34.7915 L -49.291,-34.7222
 L -49.4735,-34.6754 L -49.6604,-34.6517 z
M 49.6604,-34.6517 L 49.4735,-34.6754 L 49.291,-34.7222 L 49.1159,-34.7915 L 48.9508,-34.8823 L 48.7984,-34.993
 L 48.6611,-35.122 L 48.541,-35.2671 L 48.4401,-35.4262 L 48.3599,-35.5966 L 48.3017,-35.7758 L 48.2664,-35.9608
 L 48.2545,-36.1488 L 48.2664,-36.3368 L 48.3017,-36.5218 L 48.3599,-36.701 L 48.4401,-36.8714 L 48.541,-37.0305
 L 48.6611,-37.1756 L 48.7984,-37.3046 L 48.9508,-37.4153 L 49.1159,-37.506 L 49.291,-37.5754 L 49.4735,-37.6222
 L 49.6604,-37.6458 L 49.8487,-37.6458 L 50.0356,-37.6222 L 50.2181,-37.5754 L 50.3932,-37.506 L 50.5583,-37.4153
 L 50.7107,-37.3046 L 50.848,-37.1756 L 50.9681,-37.0305 L 51.069,-36.8714 L 51.1492,-36.701 L 51.2074,-36.5218
 L 51.2427,-36.3368 L 51.2545,-36.1488 L 51.2427,-35.9608 L 51.2074,-35.7758 L 51.1492,-35.5966 L 51.069,-35.4262
 L 50.9681,-35.2671 L 50.848,-35.122 L 50.7107,-34.993 L 50.5583,-34.8823 L 50.3932,-34.7915 L 50.2181,-34.7222
 L 50.0356,-34.6754 L 49.8487,-34.6517 z
M 52.3432,-30.6366 L 52.1563,-30.6602 L 51.9738,-30.7071 L 51.7987,-30.7764 L 51.6336,-30.8672 L 51.4812,-30.9779
 L 51.3439,-31.1068 L 51.2238,-31.252 L 51.1229,-31.411 L 51.0427,-31.5815 L 50.9845,-31.7606 L 50.9492,-31.9456
 L 50.9374,-32.1337 L 50.9492,-32.3217 L 50.9845,-32.5067 L 51.0427,-32.6858 L 51.1229,-32.8563 L 51.2238,-33.0153
 L 51.3439,-33.1605 L 51.4812,-33.2894 L 51.6336,-33.4001 L 51.7987,-33.4909 L 51.9738,-33.5602 L 52.1563,-33.6071
 L 52.3432,-33.6307 L 52.5316,-33.6307 L 52.7184,-33.6071 L 52.9009,-33.5602 L 53.076,-33.4909 L 53.2411,-33.4001
 L 53.3935,-33.2894 L 53.5308,-33.1605 L 53.6509,-33.0153 L 53.7518,-32.8563 L 53.832,-32.6858 L 53.8902,-32.5067
 L 53.9255,-32.3217 L 53.9374,-32.1337 L 53.9255,-31.9456 L 53.8902,-31.7606 L 53.832,-31.5815 L 53.7518,-31.411
 L 53.6509,-31.252 L 53.5308,-31.1068 L 53.3935,-30.9779 L 53.2411,-30.8672 L 53.076,-30.7764 L 52.9009,-30.7071
 L 52.7184,-30.6602 L 52.5316,-30.6366 z
M -52.5316,-30.6366 L -52.7184,-30.6602 L -52.9009,-30.7071 L -53.076,-30.7764 L -53.2411,-30.8672 L -53.3935,-30.9779
 L -53.5308,-31.1068 L -53.6509,-31.252 L -53.7518,-31.411 L -53.832,-31.5815 L -53.8902,-31.7606 L -53.9255,-31.9456
 L -53.9374,-32.1337 L -53.9255,-32.3217 L -53.8902,-32.5067 L -53.832,-32.6858 L -53.7518,-32.8563 L -53.6509,-33.0153
 L -53.5308,-33.1605 L -53.3935,-33.2894 L -53.2411,-33.4001 L -53.076,-33.4909 L -52.9009,-33.5602 L -52.7184,-33.6071
 L -52.5316,-33.6307 L -52.3432,-33.6307 L -52.1563,-33.6071 L -51.9738,-33.5602 L -51.7987,-33.4909 L -51.6336,-33.4001
 L -51.4812,-33.2894 L -51.3439,-33.1605 L -51.2238,-33.0153 L -51.1229,-32.8563 L -51.0427,-32.6858 L -50.9845,-32.5067
 L -50.9492,-32.3217 L -50.9374,-32.1337 L -50.9492,-31.9456 L -50.9845,-31.7606 L -51.0427,-31.5815 L -51.1229,-31.411
 L -51.2238,-31.252 L -51.3439,-31.1068 L -51.4812,-30.9779 L -51.6336,-30.8672 L -51.7987,-30.7764 L -51.9738,-30.7071
 L -52.1563,-30.6602 L -52.3432,-30.6366 z
M 22.387,-28.2036 L 22.1627,-28.2319 L 21.9438,-28.2881 L 21.7336,-28.3713 L 21.5355,-28.4802 L 21.3526,-28.6131
 L 21.1879,-28.7678 L 21.0438,-28.942 L 20.9226,-29.1328 L 20.8264,-29.3374 L 20.7565,-29.5524 L 20.7142,-29.7744
 L 20.7,-30 L 20.7142,-30.2256 L 20.7565,-30.4476 L 20.8264,-30.6626 L 20.9226,-30.8672 L 21.0438,-31.058
 L 21.1879,-31.2322 L 21.3526,-31.3869 L 21.5355,-31.5198 L 21.7336,-31.6287 L 21.9438,-31.7119 L 22.1627,-31.7681
 L 22.387,-31.7964 L 22.613,-31.7964 L 22.8373,-31.7681 L 23.0562,-31.7119 L 23.2664,-31.6287 L 23.4645,-31.5198
 L 23.6474,-31.3869 L 23.8121,-31.2322 L 23.9562,-31.058 L 24.0773,-30.8672 L 24.1736,-30.6626 L 24.2434,-30.4476
 L 24.2858,-30.2256 L 24.3,-30 L 24.2858,-29.7744 L 24.2434,-29.5524 L 24.1736,-29.3374 L 24.0773,-29.1328
 L 23.9562,-28.942 L 23.8121,-28.7678 L 23.6474,-28.6131 L 23.4645,-28.4802 L 23.2664,-28.3713 L 23.0562,-28.2881
 L 22.8373,-28.2319 L 22.613,-28.2036 z
M -54.8911,-26.4234 L -55.078,-26.447 L -55.2604,-26.4938 L -55.4356,-26.5632 L -55.6006,-26.6539 L -55.753,-26.7646
 L -55.8904,-26.8936 L -56.0104,-27.0387 L -56.1114,-27.1978 L -56.1916,-27.3682 L -56.2498,-27.5474 L -56.2851,-27.7324
 L -56.2969,-27.9204 L -56.2851,-28.1084 L -56.2498,-28.2934 L -56.1916,-28.4726 L -56.1114,-28.643 L -56.0104,-28.8021
 L -55.8904,-28.9472 L -55.753,-29.0762 L -55.6006,-29.1869 L -55.4356,-29.2776 L -55.2604,-29.347 L -55.078,-29.3938
 L -54.8911,-29.4174 L -54.7027,-29.4174 L -54.5158,-29.3938 L -54.3334,-29.347 L -54.1582,-29.2776 L -53.9931,-29.1869
 L -53.8408,-29.0762 L -53.7034,-28.9472 L -53.5834,-28.8021 L -53.4824,-28.643 L -53.4022,-28.4726 L -53.344,-28.2934
 L -53.3087,-28.1084 L -53.2969,-27.9204 L -53.3087,-27.7324 L -53.344,-27.5474 L -53.4022,-27.3682 L -53.4824,-27.1978
 L -53.5834,-27.0387 L -53.7034,-26.8936 L -53.8408,-26.7646 L -53.9931,-26.6539 L -54.1582,-26.5632 L -54.3334,-26.4938
 L -54.5158,-26.447 L -54.7027,-26.4234 z
M 54.7027,-26.4234 L 54.5158,-26.447 L 54.3334,-26.4938 L 54.1582,-26.5632 L 53.9931,-26.6539 L 53.8408,-26.7646
 L 53.7034,-26.8936 L 53.5834,-27.0387 L 53.4824,-27.1978 L 53.4022,-27.3682 L 53.344,-27.5474 L 53.3087,-27.7324
 L 53.2969,-27.9204 L 53.3087,-28.1084 L 53.344,-28.2934 L 53.4022,-28.4726 L 53.4824,-28.643 L 53.5834,-28.8021
 L 53.7034,-28.9472 L 53.8408,-29.0762 L 53.9931,-29.1869 L 54.1582,-29.2776 L 54.3334,-29.347 L 54.5158,-29.3938
 L 54.7027,-29.4174 L 54.8911,-29.4174 L 55.078,-29.3938 L 55.2604,-29.347 L 55.4356,-29.2776 L 55.6006,-29.1869
 L 55.753,-29.0762 L 55.8904,-28.9472 L 56.0104,-28.8021 L 56.1114,-28.643 L 56.1916,-28.4726 L 56.2498,-28.2934
 L 56.2851,-28.1084 L 56.2969,-27.9204 L 56.2851,-27.7324 L 56.2498,-27.5474 L 56.1916,-27.3682 L 56.1114,-27.1978
 L 56.0104,-27.0387 L 55.8904,-26.8936 L 55.753,-26.7646 L 55.6006,-26.6539 L 55.4356,-26.5632 L 55.2604,-26.4938
 L 55.078,-26.447 L 54.8911,-26.4234 z
M -1.77382,28.1942 L -5.29352,27.7496 L -8.72972,26.8673 L -12.0283,25.5614 L -15.1371,23.8523 L -18.0072,21.767
 L -20.5934,19.3385 L -22.8547,16.6049 L -24.7557,13.6095 L -26.2662,10.3995 L -27.3625,7.02548 L -28.0272,3.54065
 L -28.25,-0 L -28.0272,-3.54065 L -27.3625,-7.02548 L -26.2662,-10.3995 L -24.7557,-13.6095 L -22.8547,-16.6049
 L -20.5934,-19.3385 L -18.0072,-21.767 L -15.1371,-23.8523 L -12.0283,-25.5614 L -8.72972,-26.8673 L -5.29352,-27.7496
 L -1.77382,-28.1942 L 1.77382,-28.1942 L 5.29352,-27.7496 L 8.72972,-26.8673 L 12.0283,-25.5614 L 15.1371,-23.8523
 L 18.0072,-21.767 L 20.5934,-19.3385 L 22.8547,-16.6049 L 24.7557,-13.6095 L 26.2662,-10.3995 L 27.3625,-7.02548
 L 28.0272,-3.54065 L 28.25,-0 L 28.0272,3.54065 L 27.3625,7.02548 L 26.2662,10.3995 L 24.7557,13.6095
 L 22.8547,16.6049 L 20.5934,19.3385 L 18.0072,21.767 L 15.1371,23.8523 L 12.0283,25.5614 L 8.72972,26.8673
 L 5.29352,27.7496 L 1.77382,28.1942 z
M 56.7244,-22.038 L 56.5375,-22.0616 L 56.3551,-22.1084 L 56.1799,-22.1778 L 56.0148,-22.2685 L 55.8624,-22.3793
 L 55.7251,-22.5082 L 55.6051,-22.6534 L 55.5041,-22.8124 L 55.4239,-22.9828 L 55.3657,-23.162 L 55.3304,-23.347
 L 55.3186,-23.535 L 55.3304,-23.723 L 55.3657,-23.9081 L 55.4239,-24.0872 L 55.5041,-24.2577 L 55.6051,-24.4167
 L 55.7251,-24.5618 L 55.8624,-24.6908 L 56.0148,-24.8015 L 56.1799,-24.8923 L 56.3551,-24.9616 L 56.5375,-25.0085
 L 56.7244,-25.0321 L 56.9128,-25.0321 L 57.0997,-25.0085 L 57.2821,-24.9616 L 57.4573,-24.8923 L 57.6223,-24.8015
 L 57.7747,-24.6908 L 57.912,-24.5618 L 58.0321,-24.4167 L 58.133,-24.2577 L 58.2133,-24.0872 L 58.2715,-23.9081
 L 58.3068,-23.723 L 58.3186,-23.535 L 58.3068,-23.347 L 58.2715,-23.162 L 58.2133,-22.9828 L 58.133,-22.8124
 L 58.0321,-22.6534 L 57.912,-22.5082 L 57.7747,-22.3793 L 57.6223,-22.2685 L 57.4573,-22.1778 L 57.2821,-22.1084
 L 57.0997,-22.0616 L 56.9128,-22.038 z
M -56.9128,-22.038 L -57.0997,-22.0616 L -57.2821,-22.1084 L -57.4573,-22.1778 L -57.6223,-22.2685 L -57.7747,-22.3793
 L -57.912,-22.5082 L -58.0321,-22.6534 L -58.133,-22.8124 L -58.2133,-22.9828 L -58.2715,-23.162 L -58.3068,-23.347
 L -58.3186,-23.535 L -58.3068,-23.723 L -58.2715,-23.9081 L -58.2133,-24.0872 L -58.133,-24.2577 L -58.0321,-24.4167
 L -57.912,-24.5618 L -57.7747,-24.6908 L -57.6223,-24.8015 L -57.4573,-24.8923 L -57.2821,-24.9616 L -57.0997,-25.0085
 L -56.9128,-25.0321 L -56.7244,-25.0321 L -56.5375,-25.0085 L -56.3551,-24.9616 L -56.1799,-24.8923 L -56.0148,-24.8015
 L -55.8624,-24.6908 L -55.7251,-24.5618 L -55.6051,-24.4167 L -55.5041,-24.2577 L -55.4239,-24.0872 L -55.3657,-23.9081
 L -55.3304,-23.723 L -55.3186,-23.535 L -55.3304,-23.347 L -55.3657,-23.162 L -55.4239,-22.9828 L -55.5041,-22.8124
 L -55.6051,-22.6534 L -55.7251,-22.5082 L -55.8624,-22.3793 L -56.0148,-22.2685 L -56.1799,-22.1778 L -56.3551,-22.1084
 L -56.5375,-22.0616 L -56.7244,-22.038 z
M -30.113,-20.7036 L -30.3373,-20.7319 L -30.5562,-20.7881 L -30.7664,-20.8713 L -30.9645,-20.9802 L -31.1474,-21.1131
 L -31.3121,-21.2678 L -31.4562,-21.442 L -31.5773,-21.6328 L -31.6736,-21.8374 L -31.7434,-22.0524 L -31.7858,-22.2744
 L -31.8,-22.5 L -31.7858,-22.7256 L -31.7434,-22.9476 L -31.6736,-23.1626 L -31.5773,-23.3672 L -31.4562,-23.558
 L -31.3121,-23.7322 L -31.1474,-23.8869 L -30.9645,-24.0198 L -30.7664,-24.1287 L -30.5562,-24.2119 L -30.3373,-24.2681
 L -30.113,-24.2964 L -29.887,-24.2964 L -29.6627,-24.2681 L -29.4438,-24.2119 L -29.2336,-24.1287 L -29.0355,-24.0198
 L -28.8526,-23.8869 L -28.6879,-23.7322 L -28.5438,-23.558 L -28.4226,-23.3672 L -28.3264,-23.1626 L -28.2565,-22.9476
 L -28.2142,-22.7256 L -28.2,-22.5 L -28.2142,-22.2744 L -28.2565,-22.0524 L -28.3264,-21.8374 L -28.4226,-21.6328
 L -28.5438,-21.442 L -28.6879,-21.2678 L -28.8526,-21.1131 L -29.0355,-20.9802 L -29.2336,-20.8713 L -29.4438,-20.7881
 L -29.6627,-20.7319 L -29.887,-20.7036 z
M -58.5842,-17.5075 L -58.771,-17.5311 L -58.9535,-17.578 L -59.1286,-17.6473 L -59.2937,-17.7381 L -59.4461,-17.8488
 L -59.5834,-17.9777 L -59.7035,-18.1229 L -59.8044,-18.2819 L -59.8846,-18.4523 L -59.9428,-18.6315 L -59.9781,-18.8165
 L -59.99,-19.0045 L -59.9781,-19.1925 L -59.9428,-19.3776 L -59.8846,-19.5567 L -59.8044,-19.7272 L -59.7035,-19.8862
 L -59.5834,-20.0314 L -59.4461,-20.1603 L -59.2937,-20.271 L -59.1286,-20.3618 L -58.9535,-20.4311 L -58.771,-20.478
 L -58.5842,-20.5016 L -58.3958,-20.5016 L -58.2089,-20.478 L -58.0264,-20.4311 L -57.8513,-20.3618 L -57.6862,-20.271
 L -57.5338,-20.1603 L -57.3965,-20.0314 L -57.2764,-19.8862 L -57.1755,-19.7272 L -57.0953,-19.5567 L -57.0371,-19.3776
 L -57.0018,-19.1925 L -56.99,-19.0045 L -57.0018,-18.8165 L -57.0371,-18.6315 L -57.0953,-18.4523 L -57.1755,-18.2819
 L -57.2764,-18.1229 L -57.3965,-17.9777 L -57.5338,-17.8488 L -57.6862,-17.7381 L -57.8513,-17.6473 L -58.0264,-17.578
 L -58.2089,-17.5311 L -58.3958,-17.5075 z
M 58.3958,-17.5075 L 58.2089,-17.5311 L 58.0264,-17.578 L 57.8513,-17.6473 L 57.6862,-17.7381 L 57.5338,-17.8488
 L 57.3965,-17.9777 L 57.2764,-18.1229 L 57.1755,-18.2819 L 57.0953,-18.4523 L 57.0371,-18.6315 L 57.0018,-18.8165
 L 56.99,-19.0045 L 57.0018,-19.1925 L 57.0371,-19.3776 L 57.0953,-19.5567 L 57.1755,-19.7272 L 57.2764,-19.8862
 L 57.3965,-20.0314 L 57.5338,-20.1603 L 57.6862,-20.271 L 57.8513,-20.3618 L 58.0264,-20.4311 L 58.2089,-20.478
 L 58.3958,-20.5016 L 58.5842,-20.5016 L 58.771,-20.478 L 58.9535,-20.4311 L 59.1286,-20.3618 L 59.2937,-20.271
 L 59.4461,-20.1603 L 59.5834,-20.0314 L 59.7035,-19.8862 L 59.8044,-19.7272 L 59.8846,-19.5567 L 59.9428,-19.3776
 L 59.9781,-19.1925 L 59.99,-19.0045 L 59.9781,-18.8165 L 59.9428,-18.6315 L 59.8846,-18.4523 L 59.8044,-18.2819
 L 59.7035,-18.1229 L 59.5834,-17.9777 L 59.4461,-17.8488 L 59.2937,-17.7381 L 59.1286,-17.6473 L 58.9535,-17.578
 L 58.771,-17.5311 L 58.5842,-17.5075 z
M -59.8949,-12.8598 L -60.0818,-12.8835 L -60.2643,-12.9303 L -60.4394,-12.9996 L -60.6045,-13.0904 L -60.7569,-13.2011
 L -60.8942,-13.3301 L -61.0143,-13.4752 L -61.1152,-13.6342 L -61.1954,-13.8047 L -61.2536,-13.9838 L -61.2889,-14.1689
 L -61.3008,-14.3569 L -61.2889,-14.5449 L -61.2536,-14.7299 L -61.1954,-14.9091 L -61.1152,-15.0795 L -61.0143,-15.2386
 L -60.8942,-15.3837 L -60.7569,-15.5126 L -60.6045,-15.6234 L -60.4394,-15.7141 L -60.2643,-15.7835 L -60.0818,-15.8303
 L -59.8949,-15.8539 L -59.7066,-15.8539 L -59.5197,-15.8303 L -59.3372,-15.7835 L -59.1621,-15.7141 L -58.997,-15.6234
 L -58.8446,-15.5126 L -58.7073,-15.3837 L -58.5872,-15.2386 L -58.4863,-15.0795 L -58.4061,-14.9091 L -58.3479,-14.7299
 L -58.3126,-14.5449 L -58.3008,-14.3569 L -58.3126,-14.1689 L -58.3479,-13.9838 L -58.4061,-13.8047 L -58.4863,-13.6342
 L -58.5872,-13.4752 L -58.7073,-13.3301 L -58.8446,-13.2011 L -58.997,-13.0904 L -59.1621,-12.9996 L -59.3372,-12.9303
 L -59.5197,-12.8835 L -59.7066,-12.8598 z
M 59.7066,-12.8598 L 59.5197,-12.8835 L 59.3372,-12.9303 L 59.1621,-12.9996 L 58.997,-13.0904 L 58.8446,-13.2011
 L 58.7073,-13.3301 L 58.5872,-13.4752 L 58.4863,-13.6342 L 58.4061,-13.8047 L 58.3479,-13.9838 L 58.3126,-14.1689
 L 58.3008,-14.3569 L 58.3126,-14.5449 L 58.3479,-14.7299 L 58.4061,-14.9091 L 58.4863,-15.0795 L 58.5872,-15.2386
 L 58.7073,-15.3837 L 58.8446,-15.5126 L 58.997,-15.6234 L 59.1621,-15.7141 L 59.3372,-15.7835 L 59.5197,-15.8303
 L 59.7066,-15.8539 L 59.8949,-15.8539 L 60.0818,-15.8303 L 60.2643,-15.7835 L 60.4394,-15.7141 L 60.6045,-15.6234
 L 60.7569,-15.5126 L 60.8942,-15.3837 L 61.0143,-15.2386 L 61.1152,-15.0795 L 61.1954,-14.9091 L 61.2536,-14.7299
 L 61.2889,-14.5449 L 61.3008,-14.3569 L 61.2889,-14.1689 L 61.2536,-13.9838 L 61.1954,-13.8047 L 61.1152,-13.6342
 L 61.0143,-13.4752 L 60.8942,-13.3301 L 60.7569,-13.2011 L 60.6045,-13.0904 L 60.4394,-12.9996 L 60.2643,-12.9303
 L 60.0818,-12.8835 L 59.8949,-12.8598 z
M 60.6486,-8.12367 L 60.4618,-8.14728 L 60.2793,-8.19412 L 60.1042,-8.26347 L 59.9391,-8.35422 L 59.7867,-8.46494
 L 59.6494,-8.59389 L 59.5293,-8.73903 L 59.4284,-8.89809 L 59.3482,-9.06853 L 59.2899,-9.24768 L 59.2547,-9.43271
 L 59.2428,-9.62071 L 59.2547,-9.80872 L 59.2899,-9.99374 L 59.3482,-10.1729 L 59.4284,-10.3433 L 59.5293,-10.5024
 L 59.6494,-10.6475 L 59.7867,-10.7765 L 59.9391,-10.8872 L 60.1042,-10.978 L 60.2793,-11.0473 L 60.4618,-11.0941
 L 60.6486,-11.1178 L 60.837,-11.1178 L 61.0239,-11.0941 L 61.2064,-11.0473 L 61.3815,-10.978 L 61.5466,-10.8872
 L 61.699,-10.7765 L 61.8363,-10.6475 L 61.9564,-10.5024 L 62.0573,-10.3433 L 62.1375,-10.1729 L 62.1957,-9.99374
 L 62.231,-9.80872 L 62.2428,-9.62071 L 62.231,-9.43271 L 62.1957,-9.24768 L 62.1375,-9.06853 L 62.0573,-8.89809
 L 61.9564,-8.73903 L 61.8363,-8.59389 L 61.699,-8.46494 L 61.5466,-8.35422 L 61.3815,-8.26347 L 61.2064,-8.19412
 L 61.0239,-8.14728 L 60.837,-8.12367 z
M -60.837,-8.12367 L -61.0239,-8.14728 L -61.2064,-8.19412 L -61.3815,-8.26347 L -61.5466,-8.35422 L -61.699,-8.46494
 L -61.8363,-8.59389 L -61.9564,-8.73903 L -62.0573,-8.89809 L -62.1375,-9.06853 L -62.1957,-9.24768 L -62.231,-9.43271
 L -62.2428,-9.62071 L -62.231,-9.80872 L -62.1957,-9.99374 L -62.1375,-10.1729 L -62.0573,-10.3433 L -61.9564,-10.5024
 L -61.8363,-10.6475 L -61.699,-10.7765 L -61.5466,-10.8872 L -61.3815,-10.978 L -61.2064,-11.0473 L -61.0239,-11.0941
 L -60.837,-11.1178 L -60.6486,-11.1178 L -60.4618,-11.0941 L -60.2793,-11.0473 L -60.1042,-10.978 L -59.9391,-10.8872
 L -59.7867,-10.7765 L -59.6494,-10.6475 L -59.5293,-10.5024 L -59.4284,-10.3433 L -59.3482,-10.1729 L -59.2899,-9.99374
 L -59.2547,-9.80872 L -59.2428,-9.62071 L -59.2547,-9.43271 L -59.2899,-9.24768 L -59.3482,-9.06853 L -59.4284,-8.89809
 L -59.5293,-8.73903 L -59.6494,-8.59389 L -59.7867,-8.46494 L -59.9391,-8.35422 L -60.1042,-8.26347 L -60.2793,-8.19412
 L -60.4618,-8.14728 L -60.6486,-8.12367 z
M 61.2162,-3.32819 L 61.0293,-3.35179 L 60.8469,-3.39864 L 60.6717,-3.46799 L 60.5067,-3.55873 L 60.3543,-3.66946
 L 60.217,-3.7984 L 60.0969,-3.94354 L 59.996,-4.1026 L 59.9157,-4.27304 L 59.8575,-4.45219 L 59.8222,-4.63722
 L 59.8104,-4.82523 L 59.8222,-5.01323 L 59.8575,-5.19826 L 59.9157,-5.37741 L 59.996,-5.54785 L 60.0969,-5.70691
 L 60.217,-5.85205 L 60.3543,-5.981 L 60.5067,-6.09172 L 60.6717,-6.18246 L 60.8469,-6.25182 L 61.0293,-6.29866
 L 61.2162,-6.32227 L 61.4046,-6.32227 L 61.5915,-6.29866 L 61.7739,-6.25182 L 61.9491,-6.18246 L 62.1142,-6.09172
 L 62.2665,-5.981 L 62.4039,-5.85205 L 62.5239,-5.70691 L 62.6249,-5.54785 L 62.7051,-5.37741 L 62.7633,-5.19826
 L 62.7986,-5.01323 L 62.8104,-4.82523 L 62.7986,-4.63722 L 62.7633,-4.45219 L 62.7051,-4.27304 L 62.6249,-4.1026
 L 62.5239,-3.94354 L 62.4039,-3.7984 L 62.2665,-3.66946 L 62.1142,-3.55873 L 61.9491,-3.46799 L 61.7739,-3.39864
 L 61.5915,-3.35179 L 61.4046,-3.32819 z
M -61.4046,-3.32819 L -61.5915,-3.35179 L -61.7739,-3.39864 L -61.9491,-3.46799 L -62.1142,-3.55873 L -62.2665,-3.66946
 L -62.4039,-3.7984 L -62.5239,-3.94354 L -62.6249,-4.1026 L -62.7051,-4.27304 L -62.7633,-4.45219 L -62.7986,-4.63722
 L -62.8104,-4.82523 L -62.7986,-5.01323 L -62.7633,-5.19826 L -62.7051,-5.37741 L -62.6249,-5.54785 L -62.5239,-5.70691
 L -62.4039,-5.85205 L -62.2665,-5.981 L -62.1142,-6.09172 L -61.9491,-6.18246 L -61.7739,-6.25182 L -61.5915,-6.29866
 L -61.4046,-6.32227 L -61.2162,-6.32227 L -61.0293,-6.29866 L -60.8469,-6.25182 L -60.6717,-6.18246 L -60.5067,-6.09172
 L -60.3543,-5.981 L -60.217,-5.85205 L -60.0969,-5.70691 L -59.996,-5.54785 L -59.9157,-5.37741 L -59.8575,-5.19826
 L -59.8222,-5.01323 L -59.8104,-4.82523 L -59.8222,-4.63722 L -59.8575,-4.45219 L -59.9157,-4.27304 L -59.996,-4.1026
 L -60.0969,-3.94354 L -60.217,-3.7984 L -60.3543,-3.66946 L -60.5067,-3.55873 L -60.6717,-3.46799 L -60.8469,-3.39864
 L -61.0293,-3.35179 L -61.2162,-3.32819 z
M 74.8116,2.99408 L 74.4379,2.94685 L 74.073,2.85316 L 73.7227,2.71448 L 73.3925,2.53297 L 73.0877,2.31154
 L 72.8131,2.05363 L 72.573,1.76335 L 72.3711,1.44525 L 72.2107,1.10437 L 72.0943,0.746063 L 72.0237,0.375992
 L 72,-0 L 72.0237,-0.375992 L 72.0943,-0.746063 L 72.2107,-1.10437 L 72.3711,-1.44525 L 72.573,-1.76335
 L 72.8131,-2.05363 L 73.0877,-2.31154 L 73.3925,-2.53297 L 73.7227,-2.71448 L 74.073,-2.85316 L 74.4379,-2.94685
 L 74.8116,-2.99408 L 75.1884,-2.99408 L 75.5621,-2.94685 L 75.927,-2.85316 L 76.2773,-2.71448 L 76.6075,-2.53297
 L 76.9123,-2.31154 L 77.1869,-2.05363 L 77.427,-1.76335 L 77.6289,-1.44525 L 77.7893,-1.10437 L 77.9057,-0.746063
 L 77.9763,-0.375992 L 78,-0 L 77.9763,0.375992 L 77.9057,0.746063 L 77.7893,1.10437 L 77.6289,1.44525
 L 77.427,1.76335 L 77.1869,2.05363 L 76.9123,2.31154 L 76.6075,2.53297 L 76.2773,2.71448 L 75.927,2.85316
 L 75.5621,2.94685 L 75.1884,2.99408 z
M -75.1884,2.99408 L -75.5621,2.94685 L -75.927,2.85316 L -76.2773,2.71448 L -76.6075,2.53297 L -76.9123,2.31154
 L -77.1869,2.05363 L -77.427,1.76335 L -77.6289,1.44525 L -77.7893,1.10437 L -77.9057,0.746063 L -77.9763,0.375992
 L -78,-0 L -77.9763,-0.375992 L -77.9057,-0.746063 L -77.7893,-1.10437 L -77.6289,-1.44525 L -77.427,-1.76335
 L -77.1869,-2.05363 L -76.9123,-2.31154 L -76.6075,-2.53297 L -76.2773,-2.71448 L -75.927,-2.85316 L -75.5621,-2.94685
 L -75.1884,-2.99408 L -74.8116,-2.99408 L -74.4379,-2.94685 L -74.073,-2.85316 L -73.7227,-2.71448 L -73.3925,-2.53297
 L -73.0877,-2.31154 L -72.8131,-2.05363 L -72.573,-1.76335 L -72.3711,-1.44525 L -72.2107,-1.10437 L -72.0943,-0.746063
 L -72.0237,-0.375992 L -72,-0 L -72.0237,0.375992 L -72.0943,0.746063 L -72.2107,1.10437 L -72.3711,1.44525
 L -72.573,1.76335 L -72.8131,2.05363 L -73.0877,2.31154 L -73.3925,2.53297 L -73.7227,2.71448 L -74.073,2.85316
 L -74.4379,2.94685 L -74.8116,2.99408 z
M -61.5942,1.49704 L -61.7811,1.47342 L -61.9635,1.42657 L -62.1387,1.35724 L -62.3037,1.26648 L -62.4561,1.15576
 L -62.5934,1.02681 L -62.7135,0.881668 L -62.8145,0.722626 L -62.8947,0.552185 L -62.9529,0.373032 L -62.9882,0.187988
 L -63,-0 L -62.9882,-0.187988 L -62.9529,-0.373032 L -62.8947,-0.552185 L -62.8145,-0.722626 L -62.7135,-0.881668
 L -62.5934,-1.02681 L -62.4561,-1.15576 L -62.3037,-1.26648 L -62.1387,-1.35724 L -61.9635,-1.42657 L -61.7811,-1.47342
 L -61.5942,-1.49704 L -61.4058,-1.49704 L -61.2189,-1.47342 L -61.0365,-1.42657 L -60.8613,-1.35724 L -60.6963,-1.26648
 L -60.5439,-1.15576 L -60.4065,-1.02681 L -60.2865,-0.881668 L -60.1855,-0.722626 L -60.1053,-0.552185 L -60.0471,-0.373032
 L -60.0118,-0.187988 L -60,-0 L -60.0118,0.187988 L -60.0471,0.373032 L -60.1053,0.552185 L -60.1855,0.722626
 L -60.2865,0.881668 L -60.4065,1.02681 L -60.5439,1.15576 L -60.6963,1.26648 L -60.8613,1.35724 L -61.0365,1.42657
 L -61.2189,1.47342 L -61.4058,1.49704 z
M 61.4058,1.49704 L 61.2189,1.47342 L 61.0365,1.42657 L 60.8613,1.35724 L 60.6963,1.26648 L 60.5439,1.15576
 L 60.4065,1.02681 L 60.2865,0.881668 L 60.1855,0.722626 L 60.1053,0.552185 L 60.0471,0.373032 L 60.0118,0.187988
 L 60,-0 L 60.0118,-0.187988 L 60.0471,-0.373032 L 60.1053,-0.552185 L 60.1855,-0.722626 L 60.2865,-0.881668
 L 60.4065,-1.02681 L 60.5439,-1.15576 L 60.6963,-1.26648 L 60.8613,-1.35724 L 61.0365,-1.42657 L 61.2189,-1.47342
 L 61.4058,-1.49704 L 61.5942,-1.49704 L 61.7811,-1.47342 L 61.9635,-1.42657 L 62.1387,-1.35724 L 62.3037,-1.26648
 L 62.4561,-1.15576 L 62.5934,-1.02681 L 62.7135,-0.881668 L 62.8145,-0.722626 L 62.8947,-0.552185 L 62.9529,-0.373032
 L 62.9882,-0.187988 L 63,-0 L 62.9882,0.187988 L 62.9529,0.373032 L 62.8947,0.552185 L 62.8145,0.722626
 L 62.7135,0.881668 L 62.5934,1.02681 L 62.4561,1.15576 L 62.3037,1.26648 L 62.1387,1.35724 L 61.9635,1.42657
 L 61.7811,1.47342 L 61.5942,1.49704 z
M -61.4046,6.32227 L -61.5915,6.29866 L -61.7739,6.25182 L -61.9491,6.18246 L -62.1142,6.09172 L -62.2665,5.981
 L -62.4039,5.85205 L -62.5239,5.70691 L -62.6249,5.54785 L -62.7051,5.37741 L -62.7633,5.19826 L -62.7986,5.01323
 L -62.8104,4.82523 L -62.7986,4.63722 L -62.7633,4.45219 L -62.7051,4.27304 L -62.6249,4.1026 L -62.5239,3.94354
 L -62.4039,3.7984 L -62.2665,3.66946 L -62.1142,3.55873 L -61.9491,3.46799 L -61.7739,3.39864 L -61.5915,3.35179
 L -61.4046,3.32819 L -61.2162,3.32819 L -61.0293,3.35179 L -60.8469,3.39864 L -60.6717,3.46799 L -60.5067,3.55873
 L -60.3543,3.66946 L -60.217,3.7984 L -60.0969,3.94354 L -59.996,4.1026 L -59.9157,4.27304 L -59.8575,4.45219
 L -59.8222,4.63722 L -59.8104,4.82523 L -59.8222,5.01323 L -59.8575,5.19826 L -59.9157,5.37741 L -59.996,5.54785
 L -60.0969,5.70691 L -60.217,5.85205 L -60.3543,5.981 L -60.5067,6.09172 L -60.6717,6.18246 L -60.8469,6.25182
 L -61.0293,6.29866 L -61.2162,6.32227 z
M 61.2162,6.32227 L 61.0293,6.29866 L 60.8469,6.25182 L 60.6717,6.18246 L 60.5067,6.09172 L 60.3543,5.981
 L 60.217,5.85205 L 60.0969,5.70691 L 59.996,5.54785 L 59.9157,5.37741 L 59.8575,5.19826 L 59.8222,5.01323
 L 59.8104,4.82523 L 59.8222,4.63722 L 59.8575,4.45219 L 59.9157,4.27304 L 59.996,4.1026 L 60.0969,3.94354
 L 60.217,3.7984 L 60.3543,3.66946 L 60.5067,3.55873 L 60.6717,3.46799 L 60.8469,3.39864 L 61.0293,3.35179
 L 61.2162,3.32819 L 61.4046,3.32819 L 61.5915,3.35179 L 61.7739,3.39864 L 61.9491,3.46799 L 62.1142,3.55873
 L 62.2665,3.66946 L 62.4039,3.7984 L 62.5239,3.94354 L 62.6249,4.1026 L 62.7051,4.27304 L 62.7633,4.45219
 L 62.7986,4.63722 L 62.8104,4.82523 L 62.7986,5.01323 L 62.7633,5.19826 L 62.7051,5.37741 L 62.6249,5.54785
 L 62.5239,5.70691 L 62.4039,5.85205 L 62.2665,5.981 L 62.1142,6.09172 L 61.9491,6.18246 L 61.7739,6.25182
 L 61.5915,6.29866 L 61.4046,6.32227 z
M 60.6486,11.1178 L 60.4618,11.0941 L 60.2793,11.0473 L 60.1042,10.978 L 59.9391,10.8872 L 59.7867,10.7765
 L 59.6494,10.6475 L 59.5293,10.5024 L 59.4284,10.3433 L 59.3482,10.1729 L 59.2899,9.99374 L 59.2547,9.80872
 L 59.2428,9.62071 L 59.2547,9.43271 L 59.2899,9.24768 L 59.3482,9.06853 L 59.4284,8.89809 L 59.5293,8.73903
 L 59.6494,8.59389 L 59.7867,8.46494 L 59.9391,8.35422 L 60.1042,8.26347 L 60.2793,8.19412 L 60.4618,8.14728
 L 60.6486,8.12367 L 60.837,8.12367 L 61.0239,8.14728 L 61.2064,8.19412 L 61.3815,8.26347 L 61.5466,8.35422
 L 61.699,8.46494 L 61.8363,8.59389 L 61.9564,8.73903 L 62.0573,8.89809 L 62.1375,9.06853 L 62.1957,9.24768
 L 62.231,9.43271 L 62.2428,9.62071 L 62.231,9.80872 L 62.1957,9.99374 L 62.1375,10.1729 L 62.0573,10.3433
 L 61.9564,10.5024 L 61.8363,10.6475 L 61.699,10.7765 L 61.5466,10.8872 L 61.3815,10.978 L 61.2064,11.0473
 L 61.0239,11.0941 L 60.837,11.1178 z
M -60.837,11.1178 L -61.0239,11.0941 L -61.2064,11.0473 L -61.3815,10.978 L -61.5466,10.8872 L -61.699,10.7765
 L -61.8363,10.6475 L -61.9564,10.5024 L -62.0573,10.3433 L -62.1375,10.1729 L -62.1957,9.99374 L -62.231,9.80872
 L -62.2428,9.62071 L -62.231,9.43271 L -62.1957,9.24768 L -62.1375,9.06853 L -62.0573,8.89809 L -61.9564,8.73903
 L -61.8363,8.59389 L -61.699,8.46494 L -61.5466,8.35422 L -61.3815,8.26347 L -61.2064,8.19412 L -61.0239,8.14728
 L -60.837,8.12367 L -60.6486,8.12367 L -60.4618,8.14728 L -60.2793,8.19412 L -60.1042,8.26347 L -59.9391,8.35422
 L -59.7867,8.46494 L -59.6494,8.59389 L -59.5293,8.73903 L -59.4284,8.89809 L -59.3482,9.06853 L -59.2899,9.24768
 L -59.2547,9.43271 L -59.2428,9.62071 L -59.2547,9.80872 L -59.2899,9.99374 L -59.3482,10.1729 L -59.4284,10.3433
 L -59.5293,10.5024 L -59.6494,10.6475 L -59.7867,10.7765 L -59.9391,10.8872 L -60.1042,10.978 L -60.2793,11.0473
 L -60.4618,11.0941 L -60.6486,11.1178 z
M -59.8949,15.8539 L -60.0818,15.8303 L -60.2643,15.7835 L -60.4394,15.7141 L -60.6045,15.6234 L -60.7569,15.5126
 L -60.8942,15.3837 L -61.0143,15.2386 L -61.1152,15.0795 L -61.1954,14.9091 L -61.2536,14.7299 L -61.2889,14.5449
 L -61.3008,14.3569 L -61.2889,14.1689 L -61.2536,13.9838 L -61.1954,13.8047 L -61.1152,13.6342 L -61.0143,13.4752
 L -60.8942,13.3301 L -60.7569,13.2011 L -60.6045,13.0904 L -60.4394,12.9996 L -60.2643,12.9303 L -60.0818,12.8835
 L -59.8949,12.8598 L -59.7066,12.8598 L -59.5197,12.8835 L -59.3372,12.9303 L -59.1621,12.9996 L -58.997,13.0904
 L -58.8446,13.2011 L -58.7073,13.3301 L -58.5872,13.4752 L -58.4863,13.6342 L -58.4061,13.8047 L -58.3479,13.9838
 L -58.3126,14.1689 L -58.3008,14.3569 L -58.3126,14.5449 L -58.3479,14.7299 L -58.4061,14.9091 L -58.4863,15.0795
 L -58.5872,15.2386 L -58.7073,15.3837 L -58.8446,15.5126 L -58.997,15.6234 L -59.1621,15.7141 L -59.3372,15.7835
 L -59.5197,15.8303 L -59.7066,15.8539 z
M 59.7066,15.8539 L 59.5197,15.8303 L 59.3372,15.7835 L 59.1621,15.7141 L 58.997,15.6234 L 58.8446,15.5126
 L 58.7073,15.3837 L 58.5872,15.2386 L 58.4863,15.0795 L 58.4061,14.9091 L 58.3479,14.7299 L 58.3126,14.5449
 L 58.3008,14.3569 L 58.3126,14.1689 L 58.3479,13.9838 L 58.4061,13.8047 L 58.4863,13.6342 L 58.5872,13.4752
 L 58.7073,13.3301 L 58.8446,13.2011 L 58.997,13.0904 L 59.1621,12.9996 L 59.3372,12.9303 L 59.5197,12.8835
 L 59.7066,12.8598 L 59.8949,12.8598 L 60.0818,12.8835 L 60.2643,12.9303 L 60.4394,12.9996 L 60.6045,13.0904
 L 60.7569,13.2011 L 60.8942,13.3301 L 61.0143,13.4752 L 61.1152,13.6342 L 61.1954,13.8047 L 61.2536,13.9838
 L 61.2889,14.1689 L 61.3008,14.3569 L 61.2889,14.5449 L 61.2536,14.7299 L 61.1954,14.9091 L 61.1152,15.0795
 L 61.0143,15.2386 L 60.8942,15.3837 L 60.7569,15.5126 L 60.6045,15.6234 L 60.4394,15.7141 L 60.2643,15.7835
 L 60.0818,15.8303 L 59.8949,15.8539 z
M 58.3958,20.5016 L 58.2089,20.478 L 58.0264,20.4311 L 57.8513,20.3618 L 57.6862,20.271 L 57.5338,20.1603
 L 57.3965,20.0314 L 57.2764,19.8862 L 57.1755,19.7272 L 57.0953,19.5567 L 57.0371,19.3776 L 57.0018,19.1925
 L 56.99,19.0045 L 57.0018,18.8165 L 57.0371,18.6315 L 57.0953,18.4523 L 57.1755,18.2819 L 57.2764,18.1229
 L 57.3965,17.9777 L 57.5338,17.8488 L 57.6862,17.7381 L 57.8513,17.6473 L 58.0264,17.578 L 58.2089,17.5311
 L 58.3958,17.5075 L 58.5842,17.5075 L 58.771,17.5311 L 58.9535,17.578 L 59.1286,17.6473 L 59.2937,17.7381
 L 59.4461,17.8488 L 59.5834,17.9777 L 59.7035,18.1229 L 59.8044,18.2819 L 59.8846,18.4523 L 59.9428,18.6315
 L 59.9781,18.8165 L 59.99,19.0045 L 59.9781,19.1925 L 59.9428,19.3776 L 59.8846,19.5567 L 59.8044,19.7272
 L 59.7035,19.8862 L 59.5834,20.0314 L 59.4461,20.1603 L 59.2937,20.271 L 59.1286,20.3618 L 58.9535,20.4311
 L 58.771,20.478 L 58.5842,20.5016 z
M -58.5842,20.5016 L -58.771,20.478 L -58.9535,20.4311 L -59.1286,20.3618 L -59.2937,20.271 L -59.4461,20.1603
 L -59.5834,20.0314 L -59.7035,19.8862 L -59.8044,19.7272 L -59.8846,19.5567 L -59.9428,19.3776 L -59.9781,19.1925
 L -59.99,19.0045 L -59.9781,18.8165 L -59.9428,18.6315 L -59.8846,18.4523 L -59.8044,18.2819 L -59.7035,18.1229
 L -59.5834,17.9777 L -59.4461,17.8488 L -59.2937,17.7381 L -59.1286,17.6473 L -58.9535,17.578 L -58.771,17.5311
 L -58.5842,17.5075 L -58.3958,17.5075 L -58.2089,17.5311 L -58.0264,17.578 L -57.8513,17.6473 L -57.6862,17.7381
 L -57.5338,17.8488 L -57.3965,17.9777 L -57.2764,18.1229 L -57.1755,18.2819 L -57.0953,18.4523 L -57.0371,18.6315
 L -57.0018,18.8165 L -56.99,19.0045 L -57.0018,19.1925 L -57.0371,19.3776 L -57.0953,19.5567 L -57.1755,19.7272
 L -57.2764,19.8862 L -57.3965,20.0314 L -57.5338,20.1603 L -57.6862,20.271 L -57.8513,20.3618 L -58.0264,20.4311
 L -58.2089,20.478 L -58.3958,20.5016 z
M 29.887,24.2964 L 29.6627,24.2681 L 29.4438,24.2119 L 29.2336,24.1287 L 29.0355,24.0198 L 28.8526,23.8869
 L 28.6879,23.7322 L 28.5438,23.558 L 28.4226,23.3672 L 28.3264,23.1626 L 28.2565,22.9476 L 28.2142,22.7256
 L 28.2,22.5 L 28.2142,22.2744 L 28.2565,22.0524 L 28.3264,21.8374 L 28.4226,21.6328 L 28.5438,21.442
 L 28.6879,21.2678 L 28.8526,21.1131 L 29.0355,20.9802 L 29.2336,20.8713 L 29.4438,20.7881 L 29.6627,20.7319
 L 29.887,20.7036 L 30.113,20.7036 L 30.3373,20.7319 L 30.5562,20.7881 L 30.7664,20.8713 L 30.9645,20.9802
 L 31.1474,21.1131 L 31.3121,21.2678 L 31.4562,21.442 L 31.5773,21.6328 L 31.6736,21.8374 L 31.7434,22.0524
 L 31.7858,22.2744 L 31.8,22.5 L 31.7858,22.7256 L 31.7434,22.9476 L 31.6736,23.1626 L 31.5773,23.3672
 L 31.4562,23.558 L 31.3121,23.7322 L 31.1474,23.8869 L 30.9645,24.0198 L 30.7664,24.1287 L 30.5562,24.2119
 L 30.3373,24.2681 L 30.113,24.2964 z
M 56.7244,25.0321 L 56.5375,25.0085 L 56.3551,24.9616 L 56.1799,24.8923 L 56.0148,24.8015 L 55.8624,24.6908
 L 55.7251,24.5618 L 55.6051,24.4167 L 55.5041,24.2577 L 55.4239,24.0872 L 55.3657,23.9081 L 55.3304,23.723
 L 55.3186,23.535 L 55.3304,23.347 L 55.3657,23.162 L 55.4239,22.9828 L 55.5041,22.8124 L 55.6051,22.6534
 L 55.7251,22.5082 L 55.8624,22.3793 L 56.0148,22.2685 L 56.1799,22.1778 L 56.3551,22.1084 L 56.5375,22.0616
 L 56.7244,22.038 L 56.9128,22.038 L 57.0997,22.0616 L 57.2821,22.1084 L 57.4573,22.1778 L 57.6223,22.2685
 L 57.7747,22.3793 L 57.912,22.5082 L 58.0321,22.6534 L 58.133,22.8124 L 58.2133,22.9828 L 58.2715,23.162
 L 58.3068,23.347 L 58.3186,23.535 L 58.3068,23.723 L 58.2715,23.9081 L 58.2133,24.0872 L 58.133,24.2577
 L 58.0321,24.4167 L 57.912,24.5618 L 57.7747,24.6908 L 57.6223,24.8015 L 57.4573,24.8923 L 57.2821,24.9616
 L 57.0997,25.0085 L 56.9128,25.0321 z
M -56.9128,25.0321 L -57.0997,25.0085 L -57.2821,24.9616 L -57.4573,24.8923 L -57.6223,24.8015 L -57.7747,24.6908
 L -57.912,24.5618 L -58.0321,24.4167 L -58.133,24.2577 L -58.2133,24.0872 L -58.2715,23.9081 L -58.3068,23.723
 L -58.3186,23.535 L -58.3068,23.347 L -58.2715,23.162 L -58.2133,22.9828 L -58.133,22.8124 L -58.0321,22.6534
 L -57.912,22.5082 L -57.7747,22.3793 L -57.6223,22.2685 L -57.4573,22.1778 L -57.2821,22.1084 L -57.0997,22.0616
 L -56.9128,22.038 L -56.7244,22.038 L -56.5375,22.0616 L -56.3551,22.1084 L -56.1799,22.1778 L -56.0148,22.2685
 L -55.8624,22.3793 L -55.7251,22.5082 L -55.6051,22.6534 L -55.5041,22.8124 L -55.4239,22.9828 L -55.3657,23.162
 L -55.3304,23.347 L -55.3186,23.535 L -55.3304,23.723 L -55.3657,23.9081 L -55.4239,24.0872 L -55.5041,24.2577
 L -55.6051,24.4167 L -55.7251,24.5618 L -55.8624,24.6908 L -56.0148,24.8015 L -56.1799,24.8923 L -56.3551,24.9616
 L -56.5375,25.0085 L -56.7244,25.0321 z
M -54.8911,29.4174 L -55.078,29.3938 L -55.2604,29.347 L -55.4356,29.2776 L -55.6006,29.1869 L -55.753,29.0762
 L -55.8904,28.9472 L -56.0104,28.8021 L -56.1114,28.643 L -56.1916,28.4726 L -56.2498,28.2934 L -56.2851,28.1084
 L -56.2969,27.9204 L -56.2851,27.7324 L -56.2498,27.5474 L -56.1916,27.3682 L -56.1114,27.1978 L -56.0104,27.0387
 L -55.8904,26.8936 L -55.753,26.7646 L -55.6006,26.6539 L -55.4356,26.5632 L -55.2604,26.4938 L -55.078,26.447
 L -54.8911,26.4234 L -54.7027,26.4234 L -54.5158,26.447 L -54.3334,26.4938 L -54.1582,26.5632 L -53.9931,26.6539
 L -53.8408,26.7646 L -53.7034,26.8936 L -53.5834,27.0387 L -53.4824,27.1978 L -53.4022,27.3682 L -53.344,27.5474
 L -53.3087,27.7324 L -53.2969,27.9204 L -53.3087,28.1084 L -53.344,28.2934 L -53.4022,28.4726 L -53.4824,28.643
 L -53.5834,28.8021 L -53.7034,28.9472 L -53.8408,29.0762 L -53.9931,29.1869 L -54.1582,29.2776 L -54.3334,29.347
 L -54.5158,29.3938 L -54.7027,29.4174 z
M 54.7027,29.4174 L 54.5158,29.3938 L 54.3334,29.347 L 54.1582,29.2776 L 53.9931,29.1869 L 53.8408,29.0762
 L 53.7034,28.9472 L 53.5834,28.8021 L 53.4824,28.643 L 53.4022,28.4726 L 53.344,28.2934 L 53.3087,28.1084
 L 53.2969,27.9204 L 53.3087,27.7324 L 53.344,27.5474 L 53.4022,27.3682 L 53.4824,27.1978 L 53.5834,27.0387
 L 53.7034,26.8936 L 53.8408,26.7646 L 53.9931,26.6539 L 54.1582,26.5632 L 54.3334,26.4938 L 54.5158,26.447
 L 54.7027,26.4234 L 54.8911,26.4234 L 55.078,26.447 L 55.2604,26.4938 L 55.4356,26.5632 L 55.6006,26.6539
 L 55.753,26.7646 L 55.8904,26.8936 L 56.0104,27.0387 L 56.1114,27.1978 L 56.1916,27.3682 L 56.2498,27.5474
 L 56.2851,27.7324 L 56.2969,27.9204 L 56.2851,28.1084 L 56.2498,28.2934 L 56.1916,28.4726 L 56.1114,28.643
 L 56.0104,28.8021 L 55.8904,28.9472 L 55.753,29.0762 L 55.6006,29.1869 L 55.4356,29.2776 L 55.2604,29.347
 L 55.078,29.3938 L 54.8911,29.4174 z
M -22.613,31.7964 L -22.8373,31.7681 L -23.0562,31.7119 L -23.2664,31.6287 L -23.4645,31.5198 L -23.6474,31.3869
 L -23.8121,31.2322 L -23.9562,31.058 L -24.0773,30.8672 L -24.1736,30.6626 L -24.2434,30.4476 L -24.2858,30.2256
 L -24.3,30 L -24.2858,29.7744 L -24.2434,29.5524 L -24.1736,29.3374 L -24.0773,29.1328 L -23.9562,28.942
 L -23.8121,28.7678 L -23.6474,28.6131 L -23.4645,28.4802 L -23.2664,28.3713 L -23.0562,28.2881 L -22.8373,28.2319
 L -22.613,28.2036 L -22.387,28.2036 L -22.1627,28.2319 L -21.9438,28.2881 L -21.7336,28.3713 L -21.5355,28.4802
 L -21.3526,28.6131 L -21.1879,28.7678 L -21.0438,28.942 L -20.9226,29.1328 L -20.8264,29.3374 L -20.7565,29.5524
 L -20.7142,29.7744 L -20.7,30 L -20.7142,30.2256 L -20.7565,30.4476 L -20.8264,30.6626 L -20.9226,30.8672
 L -21.0438,31.058 L -21.1879,31.2322 L -21.3526,31.3869 L -21.5355,31.5198 L -21.7336,31.6287 L -21.9438,31.7119
 L -22.1627,31.7681 L -22.387,31.7964 z
M -52.5316,33.6307 L -52.7184,33.6071 L -52.9009,33.5602 L -53.076,33.4909 L -53.2411,33.4001 L -53.3935,33.2894
 L -53.5308,33.1605 L -53.6509,33.0153 L -53.7518,32.8563 L -53.832,32.6858 L -53.8902,32.5067 L -53.9255,32.3217
 L -53.9374,32.1337 L -53.9255,31.9456 L -53.8902,31.7606 L -53.832,31.5815 L -53.7518,31.411 L -53.6509,31.252
 L -53.5308,31.1068 L -53.3935,30.9779 L -53.2411,30.8672 L -53.076,30.7764 L -52.9009,30.7071 L -52.7184,30.6602
 L -52.5316,30.6366 L -52.3432,30.6366 L -52.1563,30.6602 L -51.9738,30.7071 L -51.7987,30.7764 L -51.6336,30.8672
 L -51.4812,30.9779 L -51.3439,31.1068 L -51.2238,31.252 L -51.1229,31.411 L -51.0427,31.5815 L -50.9845,31.7606
 L -50.9492,31.9456 L -50.9374,32.1337 L -50.9492,32.3217 L -50.9845,32.5067 L -51.0427,32.6858 L -51.1229,32.8563
 L -51.2238,33.0153 L -51.3439,33.1605 L -51.4812,33.2894 L -51.6336,33.4001 L -51.7987,33.4909 L -51.9738,33.5602
 L -52.1563,33.6071 L -52.3432,33.6307 z
M 52.3432,33.6307 L 52.1563,33.6071 L 51.9738,33.5602 L 51.7987,33.4909 L 51.6336,33.4001 L 51.4812,33.2894
 L 51.3439,33.1605 L 51.2238,33.0153 L 51.1229,32.8563 L 51.0427,32.6858 L 50.9845,32.5067 L 50.9492,32.3217
 L 50.9374,32.1337 L 50.9492,31.9456 L 50.9845,31.7606 L 51.0427,31.5815 L 51.1229,31.411 L 51.2238,31.252
 L 51.3439,31.1068 L 51.4812,30.9779 L 51.6336,30.8672 L 51.7987,30.7764 L 51.9738,30.7071 L 52.1563,30.6602
 L 52.3432,30.6366 L 52.5316,30.6366 L 52.7184,30.6602 L 52.9009,30.7071 L 53.076,30.7764 L 53.2411,30.8672
 L 53.3935,30.9779 L 53.5308,31.1068 L 53.6509,31.252 L 53.7518,31.411 L 53.832,31.5815 L 53.8902,31.7606
 L 53.9255,31.9456 L 53.9374,32.1337 L 53.9255,32.3217 L 53.8902,32.5067 L 53.832,32.6858 L 53.7518,32.8563
 L 53.6509,33.0153 L 53.5308,33.1605 L 53.3935,33.2894 L 53.2411,33.4001 L 53.076,33.4909 L 52.9009,33.5602
 L 52.7184,33.6071 L 52.5316,33.6307 z
M -49.8487,37.6458 L -50.0356,37.6222 L -50.2181,37.5754 L -50.3932,37.506 L -50.5583,37.4153 L -50.7107,37.3046
 L -50.848,37.1756 L -50.9681,37.0305 L -51.069,36.8714 L -51.1492,36.701 L -51.2074,36.5218 L -51.2427,36.3368
 L -51.2545,36.1488 L -51.2427,35.9608 L -51.2074,35.7758 L -51.1492,35.5966 L -51.069,35.4262 L -50.9681,35.2671
 L -50.848,35.122 L -50.7107,34.993 L -50.5583,34.8823 L -50.3932,34.7915 L -50.2181,34.7222 L -50.0356,34.6754
 L -49.8487,34.6517 L -49.6604,34.6517 L -49.4735,34.6754 L -49.291,34.7222 L -49.1159,34.7915 L -48.9508,34.8823
 L -48.7984,34.993 L -48.6611,35.122 L -48.541,35.2671 L -48.4401,35.4262 L -48.3599,35.5966 L -48.3017,35.7758
 L -48.2664,35.9608 L -48.2545,36.1488 L -48.2664,36.3368 L -48.3017,36.5218 L -48.3599,36.701 L -48.4401,36.8714
 L -48.541,37.0305 L -48.6611,37.1756 L -48.7984,37.3046 L -48.9508,37.4153 L -49.1159,37.506 L -49.291,37.5754
 L -49.4735,37.6222 L -49.6604,37.6458 z
M 49.6604,37.6458 L 49.4735,37.6222 L 49.291,37.5754 L 49.1159,37.506 L 48.9508,37.4153 L 48.7984,37.3046
 L 48.6611,37.1756 L 48.541,37.0305 L 48.4401,36.8714 L 48.3599,36.701 L 48.3017,36.5218 L 48.2664,36.3368
 L 48.2545,36.1488 L 48.2664,35.9608 L 48.3017,35.7758 L 48.3599,35.5966 L 48.4401,35.4262 L 48.541,35.2671
 L 48.6611,35.122 L 48.7984,34.993 L 48.9508,34.8823 L 49.1159,34.7915 L 49.291,34.7222 L 49.4735,34.6754
 L 49.6604,34.6517 L 49.8487,34.6517 L 50.0356,34.6754 L 50.2181,34.7222 L 50.3932,34.7915 L 50.5583,34.8823
 L 50.7107,34.993 L 50.848,35.122 L 50.9681,35.2671 L 51.069,35.4262 L 51.1492,35.5966 L 51.2074,35.7758
 L 51.2427,35.9608 L 51.2545,36.1488 L 51.2427,36.3368 L 51.2074,36.5218 L 51.1492,36.701 L 51.069,36.8714
 L 50.9681,37.0305 L 50.848,37.1756 L 50.7107,37.3046 L 50.5583,37.4153 L 50.3932,37.506 L 50.2181,37.5754
 L 50.0356,37.6222 L 49.8487,37.6458 z
M -46.8591,41.4381 L -47.046,41.4145 L -47.2285,41.3676 L -47.4036,41.2983 L -47.5687,41.2075 L -47.7211,41.0968
 L -47.8584,40.9679 L -47.9785,40.8227 L -48.0794,40.6637 L -48.1596,40.4932 L -48.2178,40.3141 L -48.2531,40.129
 L -48.265,39.9411 L -48.2531,39.7531 L -48.2178,39.568 L -48.1596,39.3889 L -48.0794,39.2184 L -47.9785,39.0594
 L -47.8584,38.9142 L -47.7211,38.7853 L -47.5687,38.6746 L -47.4036,38.5838 L -47.2285,38.5145 L -47.046,38.4676
 L -46.8591,38.444 L -46.6708,38.444 L -46.4839,38.4676 L -46.3014,38.5145 L -46.1263,38.5838 L -45.9612,38.6746
 L -45.8088,38.7853 L -45.6715,38.9142 L -45.5514,39.0594 L -45.4505,39.2184 L -45.3703,39.3889 L -45.3121,39.568
 L -45.2768,39.7531 L -45.265,39.9411 L -45.2768,40.129 L -45.3121,40.3141 L -45.3703,40.4932 L -45.4505,40.6637
 L -45.5514,40.8227 L -45.6715,40.9679 L -45.8088,41.0968 L -45.9612,41.2075 L -46.1263,41.2983 L -46.3014,41.3676
 L -46.4839,41.4145 L -46.6708,41.4381 z
M 46.6708,41.4381 L 46.4839,41.4145 L 46.3014,41.3676 L 46.1263,41.2983 L 45.9612,41.2075 L 45.8088,41.0968
 L 45.6715,40.9679 L 45.5514,40.8227 L 45.4505,40.6637 L 45.3703,40.4932 L 45.3121,40.3141 L 45.2768,40.129
 L 45.265,39.9411 L 45.2768,39.7531 L 45.3121,39.568 L 45.3703,39.3889 L 45.4505,39.2184 L 45.5514,39.0594
 L 45.6715,38.9142 L 45.8088,38.7853 L 45.9612,38.6746 L 46.1263,38.5838 L 46.3014,38.5145 L 46.4839,38.4676
 L 46.6708,38.444 L 46.8591,38.444 L 47.046,38.4676 L 47.2285,38.5145 L 47.4036,38.5838 L 47.5687,38.6746
 L 47.7211,38.7853 L 47.8584,38.9142 L 47.9785,39.0594 L 48.0794,39.2184 L 48.1596,39.3889 L 48.2178,39.568
 L 48.2531,39.7531 L 48.265,39.9411 L 48.2531,40.129 L 48.2178,40.3141 L 48.1596,40.4932 L 48.0794,40.6637
 L 47.9785,40.8227 L 47.8584,40.9679 L 47.7211,41.0968 L 47.5687,41.2075 L 47.4036,41.2983 L 47.2285,41.3676
 L 47.046,41.4145 L 46.8591,41.4381 z
M 43.3929,44.9841 L 43.206,44.9605 L 43.0235,44.9137 L 42.8484,44.8443 L 42.6833,44.7536 L 42.5309,44.6428
 L 42.3936,44.5139 L 42.2735,44.3687 L 42.1726,44.2097 L 42.0924,44.0392 L 42.0342,43.8601 L 41.9989,43.6751
 L 41.9871,43.4871 L 41.9989,43.2991 L 42.0342,43.114 L 42.0924,42.9349 L 42.1726,42.7644 L 42.2735,42.6054
 L 42.3936,42.4602 L 42.5309,42.3313 L 42.6833,42.2206 L 42.8484,42.1298 L 43.0235,42.0605 L 43.206,42.0136
 L 43.3929,41.99 L 43.5813,41.99 L 43.7681,42.0136 L 43.9506,42.0605 L 44.1257,42.1298 L 44.2908,42.2206
 L 44.4432,42.3313 L 44.5805,42.4602 L 44.7006,42.6054 L 44.8015,42.7644 L 44.8817,42.9349 L 44.9399,43.114
 L 44.9752,43.2991 L 44.9871,43.4871 L 44.9752,43.6751 L 44.9399,43.8601 L 44.8817,44.0392 L 44.8015,44.2097
 L 44.7006,44.3687 L 44.5805,44.5139 L 44.4432,44.6428 L 44.2908,44.7536 L 44.1257,44.8443 L 43.9506,44.9137
 L 43.7681,44.9605 L 43.5813,44.9841 z
M -43.5813,44.9841 L -43.7681,44.9605 L -43.9506,44.9137 L -44.1257,44.8443 L -44.2908,44.7536 L -44.4432,44.6428
 L -44.5805,44.5139 L -44.7006,44.3687 L -44.8015,44.2097 L -44.8817,44.0392 L -44.9399,43.8601 L -44.9752,43.6751
 L -44.9871,43.4871 L -44.9752,43.2991 L -44.9399,43.114 L -44.8817,42.9349 L -44.8015,42.7644 L -44.7006,42.6054
 L -44.5805,42.4602 L -44.4432,42.3313 L -44.2908,42.2206 L -44.1257,42.1298 L -43.9506,42.0605 L -43.7681,42.0136
 L -43.5813,41.99 L -43.3929,41.99 L -43.206,42.0136 L -43.0235,42.0605 L -42.8484,42.1298 L -42.6833,42.2206
 L -42.5309,42.3313 L -42.3936,42.4602 L -42.2735,42.6054 L -42.1726,42.7644 L -42.0924,42.9349 L -42.0342,43.114
 L -41.9989,43.2991 L -41.9871,43.4871 L -41.9989,43.6751 L -42.0342,43.8601 L -42.0924,44.0392 L -42.1726,44.2097
 L -42.2735,44.3687 L -42.3936,44.5139 L -42.5309,44.6428 L -42.6833,44.7536 L -42.8484,44.8443 L -43.0235,44.9137
 L -43.206,44.9605 L -43.3929,44.9841 z
M 39.8469,48.262 L 39.66,48.2384 L 39.4775,48.1915 L 39.3024,48.1222 L 39.1373,48.0314 L 38.9849,47.9207
 L 38.8476,47.7918 L 38.7275,47.6466 L 38.6266,47.4876 L 38.5464,47.3172 L 38.4882,47.138 L 38.4529,46.953
 L 38.4411,46.765 L 38.4529,46.577 L 38.4882,46.3919 L 38.5464,46.2128 L 38.6266,46.0423 L 38.7275,45.8833
 L 38.8476,45.7381 L 38.9849,45.6092 L 39.1373,45.4985 L 39.3024,45.4077 L 39.4775,45.3384 L 39.66,45.2915
 L 39.8469,45.2679 L 40.0352,45.2679 L 40.2221,45.2915 L 40.4046,45.3384 L 40.5797,45.4077 L 40.7448,45.4985
 L 40.8972,45.6092 L 41.0345,45.7381 L 41.1546,45.8833 L 41.2555,46.0423 L 41.3357,46.2128 L 41.3939,46.3919
 L 41.4292,46.577 L 41.4411,46.765 L 41.4292,46.953 L 41.3939,47.138 L 41.3357,47.3172 L 41.2555,47.4876
 L 41.1546,47.6466 L 41.0345,47.7918 L 40.8972,47.9207 L 40.7448,48.0314 L 40.5797,48.1222 L 40.4046,48.1915
 L 40.2221,48.2384 L 40.0352,48.262 z
M -40.0352,48.262 L -40.2221,48.2384 L -40.4046,48.1915 L -40.5797,48.1222 L -40.7448,48.0314 L -40.8972,47.9207
 L -41.0345,47.7918 L -41.1546,47.6466 L -41.2555,47.4876 L -41.3357,47.3172 L -41.3939,47.138 L -41.4292,46.953
 L -41.4411,46.765 L -41.4292,46.577 L -41.3939,46.3919 L -41.3357,46.2128 L -41.2555,46.0423 L -41.1546,45.8833
 L -41.0345,45.7381 L -40.8972,45.6092 L -40.7448,45.4985 L -40.5797,45.4077 L -40.4046,45.3384 L -40.2221,45.2915
 L -40.0352,45.2679 L -39.8469,45.2679 L -39.66,45.2915 L -39.4775,45.3384 L -39.3024,45.4077 L -39.1373,45.4985
 L -38.9849,45.6092 L -38.8476,45.7381 L -38.7275,45.8833 L -38.6266,46.0423 L -38.5464,46.2128 L -38.4882,46.3919
 L -38.4529,46.577 L -38.4411,46.765 L -38.4529,46.953 L -38.4882,47.138 L -38.5464,47.3172 L -38.6266,47.4876
 L -38.7275,47.6466 L -38.8476,47.7918 L -38.9849,47.9207 L -39.1373,48.0314 L -39.3024,48.1222 L -39.4775,48.1915
 L -39.66,48.2384 L -39.8469,48.262 z
M -36.243,51.2516 L -36.4299,51.228 L -36.6123,51.1811 L -36.7875,51.1118 L -36.9525,51.021 L -37.1049,50.9103
 L -37.2422,50.7814 L -37.3623,50.6362 L -37.4632,50.4772 L -37.5435,50.3067 L -37.6017,50.1276 L -37.637,49.9425
 L -37.6488,49.7545 L -37.637,49.5665 L -37.6017,49.3815 L -37.5435,49.2023 L -37.4632,49.0319 L -37.3623,48.8729
 L -37.2422,48.7277 L -37.1049,48.5988 L -36.9525,48.4881 L -36.7875,48.3973 L -36.6123,48.328 L -36.4299,48.2811
 L -36.243,48.2575 L -36.0546,48.2575 L -35.8677,48.2811 L -35.6853,48.328 L -35.5101,48.3973 L -35.345,48.4881
 L -35.1927,48.5988 L -35.0553,48.7277 L -34.9353,48.8729 L -34.8343,49.0319 L -34.7541,49.2023 L -34.6959,49.3815
 L -34.6606,49.5665 L -34.6488,49.7545 L -34.6606,49.9425 L -34.6959,50.1276 L -34.7541,50.3067 L -34.8343,50.4772
 L -34.9353,50.6362 L -35.0553,50.7814 L -35.1927,50.9103 L -35.345,51.021 L -35.5101,51.1118 L -35.6853,51.1811
 L -35.8677,51.228 L -36.0546,51.2516 z
M 36.0546,51.2516 L 35.8677,51.228 L 35.6853,51.1811 L 35.5101,51.1118 L 35.345,51.021 L 35.1927,50.9103
 L 35.0553,50.7814 L 34.9353,50.6362 L 34.8343,50.4772 L 34.7541,50.3067 L 34.6959,50.1276 L 34.6606,49.9425
 L 34.6488,49.7545 L 34.6606,49.5665 L 34.6959,49.3815 L 34.7541,49.2023 L 34.8343,49.0319 L 34.9353,48.8729
 L 35.0553,48.7277 L 35.1927,48.5988 L 35.345,48.4881 L 35.5101,48.3973 L 35.6853,48.328 L 35.8677,48.2811
 L 36.0546,48.2575 L 36.243,48.2575 L 36.4299,48.2811 L 36.6123,48.328 L 36.7875,48.3973 L 36.9525,48.4881
 L 37.1049,48.5988 L 37.2422,48.7277 L 37.3623,48.8729 L 37.4632,49.0319 L 37.5435,49.2023 L 37.6017,49.3815
 L 37.637,49.5665 L 37.6488,49.7545 L 37.637,49.9425 L 37.6017,50.1276 L 37.5435,50.3067 L 37.4632,50.4772
 L 37.3623,50.6362 L 37.2422,50.7814 L 37.1049,50.9103 L 36.9525,51.021 L 36.7875,51.1118 L 36.6123,51.1811
 L 36.4299,51.228 L 36.243,51.2516 z
M -32.2278,53.9344 L -32.4147,53.9108 L -32.5972,53.864 L -32.7723,53.7946 L -32.9374,53.7039 L -33.0898,53.5931
 L -33.2271,53.4642 L -33.3472,53.319 L -33.4481,53.16 L -33.5283,52.9895 L -33.5865,52.8104 L -33.6218,52.6254
 L -33.6337,52.4374 L -33.6218,52.2494 L -33.5865,52.0643 L -33.5283,51.8852 L -33.4481,51.7147 L -33.3472,51.5557
 L -33.2271,51.4105 L -33.0898,51.2816 L -32.9374,51.1709 L -32.7723,51.0801 L -32.5972,51.0108 L -32.4147,50.9639
 L -32.2278,50.9403 L -32.0395,50.9403 L -31.8526,50.9639 L -31.6701,51.0108 L -31.495,51.0801 L -31.3299,51.1709
 L -31.1775,51.2816 L -31.0402,51.4105 L -30.9201,51.5557 L -30.8192,51.7147 L -30.739,51.8852 L -30.6808,52.0643
 L -30.6455,52.2494 L -30.6337,52.4374 L -30.6455,52.6254 L -30.6808,52.8104 L -30.739,52.9895 L -30.8192,53.16
 L -30.9201,53.319 L -31.0402,53.4642 L -31.1775,53.5931 L -31.3299,53.7039 L -31.495,53.7946 L -31.6701,53.864
 L -31.8526,53.9108 L -32.0395,53.9344 z
M 32.0395,53.9344 L 31.8526,53.9108 L 31.6701,53.864 L 31.495,53.7946 L 31.3299,53.7039 L 31.1775,53.5931
 L 31.0402,53.4642 L 30.9201,53.319 L 30.8192,53.16 L 30.739,52.9895 L 30.6808,52.8104 L 30.6455,52.6254
 L 30.6337,52.4374 L 30.6455,52.2494 L 30.6808,52.0643 L 30.739,51.8852 L 30.8192,51.7147 L 30.9201,51.5557
 L 31.0402,51.4105 L 31.1775,51.2816 L 31.3299,51.1709 L 31.495,51.0801 L 31.6701,51.0108 L 31.8526,50.9639
 L 32.0395,50.9403 L 32.2278,50.9403 L 32.4147,50.9639 L 32.5972,51.0108 L 32.7723,51.0801 L 32.9374,51.1709
 L 33.0898,51.2816 L 33.2271,51.4105 L 33.3472,51.5557 L 33.4481,51.7147 L 33.5283,51.8852 L 33.5865,52.0643
 L 33.6218,52.2494 L 33.6337,52.4374 L 33.6218,52.6254 L 33.5865,52.8104 L 33.5283,52.9895 L 33.4481,53.16
 L 33.3472,53.319 L 33.2271,53.4642 L 33.0898,53.5931 L 32.9374,53.7039 L 32.7723,53.7946 L 32.5972,53.864
 L 32.4147,53.9108 L 32.2278,53.9344 z
M 27.8262,56.2939 L 27.6393,56.2703 L 27.4569,56.2235 L 27.2817,56.1541 L 27.1167,56.0634 L 26.9643,55.9527
 L 26.827,55.8237 L 26.7069,55.6786 L 26.6059,55.5195 L 26.5257,55.3491 L 26.4675,55.1699 L 26.4322,54.9849
 L 26.4204,54.7969 L 26.4322,54.6089 L 26.4675,54.4239 L 26.5257,54.2447 L 26.6059,54.0743 L 26.7069,53.9152
 L 26.827,53.7701 L 26.9643,53.6411 L 27.1167,53.5304 L 27.2817,53.4397 L 27.4569,53.3703 L 27.6393,53.3235
 L 27.8262,53.2999 L 28.0146,53.2999 L 28.2015,53.3235 L 28.3839,53.3703 L 28.5591,53.4397 L 28.7242,53.5304
 L 28.8765,53.6411 L 29.0139,53.7701 L 29.1339,53.9152 L 29.2349,54.0743 L 29.3151,54.2447 L 29.3733,54.4239
 L 29.4086,54.6089 L 29.4204,54.7969 L 29.4086,54.9849 L 29.3733,55.1699 L 29.3151,55.3491 L 29.2349,55.5195
 L 29.1339,55.6786 L 29.0139,55.8237 L 28.8765,55.9527 L 28.7242,56.0634 L 28.5591,56.1541 L 28.3839,56.2235
 L 28.2015,56.2703 L 28.0146,56.2939 z
M -28.0146,56.2939 L -28.2015,56.2703 L -28.3839,56.2235 L -28.5591,56.1541 L -28.7242,56.0634 L -28.8765,55.9527
 L -29.0139,55.8237 L -29.1339,55.6786 L -29.2349,55.5195 L -29.3151,55.3491 L -29.3733,55.1699 L -29.4086,54.9849
 L -29.4204,54.7969 L -29.4086,54.6089 L -29.3733,54.4239 L -29.3151,54.2447 L -29.2349,54.0743 L -29.1339,53.9152
 L -29.0139,53.7701 L -28.8765,53.6411 L -28.7242,53.5304 L -28.5591,53.4397 L -28.3839,53.3703 L -28.2015,53.3235
 L -28.0146,53.2999 L -27.8262,53.2999 L -27.6393,53.3235 L -27.4569,53.3703 L -27.2817,53.4397 L -27.1167,53.5304
 L -26.9643,53.6411 L -26.827,53.7701 L -26.7069,53.9152 L -26.6059,54.0743 L -26.5257,54.2447 L -26.4675,54.4239
 L -26.4322,54.6089 L -26.4204,54.7969 L -26.4322,54.9849 L -26.4675,55.1699 L -26.5257,55.3491 L -26.6059,55.5195
 L -26.7069,55.6786 L -26.827,55.8237 L -26.9643,55.9527 L -27.1167,56.0634 L -27.2817,56.1541 L -27.4569,56.2235
 L -27.6393,56.2703 L -27.8262,56.2939 z
M -23.6292,58.3156 L -23.8161,58.292 L -23.9986,58.2452 L -24.1737,58.1758 L -24.3388,58.0851 L -24.4912,57.9743
 L -24.6285,57.8454 L -24.7486,57.7003 L -24.8495,57.5412 L -24.9297,57.3708 L -24.9879,57.1916 L -25.0232,57.0066
 L -25.035,56.8186 L -25.0232,56.6306 L -24.9879,56.4456 L -24.9297,56.2664 L -24.8495,56.096 L -24.7486,55.9369
 L -24.6285,55.7918 L -24.4912,55.6628 L -24.3388,55.5521 L -24.1737,55.4613 L -23.9986,55.392 L -23.8161,55.3452
 L -23.6292,55.3215 L -23.4408,55.3215 L -23.254,55.3452 L -23.0715,55.392 L -22.8964,55.4613 L -22.7313,55.5521
 L -22.5789,55.6628 L -22.4416,55.7918 L -22.3215,55.9369 L -22.2206,56.096 L -22.1404,56.2664 L -22.0822,56.4456
 L -22.0469,56.6306 L -22.035,56.8186 L -22.0469,57.0066 L -22.0822,57.1916 L -22.1404,57.3708 L -22.2206,57.5412
 L -22.3215,57.7003 L -22.4416,57.8454 L -22.5789,57.9743 L -22.7313,58.0851 L -22.8964,58.1758 L -23.0715,58.2452
 L -23.254,58.292 L -23.4408,58.3156 z
M 23.4408,58.3156 L 23.254,58.292 L 23.0715,58.2452 L 22.8964,58.1758 L 22.7313,58.0851 L 22.5789,57.9743
 L 22.4416,57.8454 L 22.3215,57.7003 L 22.2206,57.5412 L 22.1404,57.3708 L 22.0822,57.1916 L 22.0469,57.0066
 L 22.035,56.8186 L 22.0469,56.6306 L 22.0822,56.4456 L 22.1404,56.2664 L 22.2206,56.096 L 22.3215,55.9369
 L 22.4416,55.7918 L 22.5789,55.6628 L 22.7313,55.5521 L 22.8964,55.4613 L 23.0715,55.392 L 23.254,55.3452
 L 23.4408,55.3215 L 23.6292,55.3215 L 23.8161,55.3452 L 23.9986,55.392 L 24.1737,55.4613 L 24.3388,55.5521
 L 24.4912,55.6628 L 24.6285,55.7918 L 24.7486,55.9369 L 24.8495,56.096 L 24.9297,56.2664 L 24.9879,56.4456
 L 25.0232,56.6306 L 25.035,56.8186 L 25.0232,57.0066 L 24.9879,57.1916 L 24.9297,57.3708 L 24.8495,57.5412
 L 24.7486,57.7003 L 24.6285,57.8454 L 24.4912,57.9743 L 24.3388,58.0851 L 24.1737,58.1758 L 23.9986,58.2452
 L 23.8161,58.292 L 23.6292,58.3156 z
M 18.9104,59.987 L 18.7235,59.9634 L 18.541,59.9165 L 18.3659,59.8472 L 18.2008,59.7565 L 18.0484,59.6457
 L 17.9111,59.5168 L 17.791,59.3716 L 17.6901,59.2126 L 17.6099,59.0422 L 17.5517,58.863 L 17.5164,58.678
 L 17.5045,58.49 L 17.5164,58.302 L 17.5517,58.1169 L 17.6099,57.9378 L 17.6901,57.7673 L 17.791,57.6083
 L 17.9111,57.4632 L 18.0484,57.3342 L 18.2008,57.2235 L 18.3659,57.1327 L 18.541,57.0634 L 18.7235,57.0165
 L 18.9104,56.9929 L 19.0987,56.9929 L 19.2856,57.0165 L 19.4681,57.0634 L 19.6432,57.1327 L 19.8083,57.2235
 L 19.9607,57.3342 L 20.098,57.4632 L 20.2181,57.6083 L 20.319,57.7673 L 20.3992,57.9378 L 20.4574,58.1169
 L 20.4927,58.302 L 20.5045,58.49 L 20.4927,58.678 L 20.4574,58.863 L 20.3992,59.0422 L 20.319,59.2126
 L 20.2181,59.3716 L 20.098,59.5168 L 19.9607,59.6457 L 19.8083,59.7565 L 19.6432,59.8472 L 19.4681,59.9165
 L 19.2856,59.9634 L 19.0987,59.987 z
M -19.0987,59.987 L -19.2856,59.9634 L -19.4681,59.9165 L -19.6432,59.8472 L -19.8083,59.7565 L -19.9607,59.6457
 L -20.098,59.5168 L -20.2181,59.3716 L -20.319,59.2126 L -20.3992,59.0422 L -20.4574,58.863 L -20.4927,58.678
 L -20.5045,58.49 L -20.4927,58.302 L -20.4574,58.1169 L -20.3992,57.9378 L -20.319,57.7673 L -20.2181,57.6083
 L -20.098,57.4632 L -19.9607,57.3342 L -19.8083,57.2235 L -19.6432,57.1327 L -19.4681,57.0634 L -19.2856,57.0165
 L -19.0987,56.9929 L -18.9104,56.9929 L -18.7235,57.0165 L -18.541,57.0634 L -18.3659,57.1327 L -18.2008,57.2235
 L -18.0484,57.3342 L -17.9111,57.4632 L -17.791,57.6083 L -17.6901,57.7673 L -17.6099,57.9378 L -17.5517,58.1169
 L -17.5164,58.302 L -17.5045,58.49 L -17.5164,58.678 L -17.5517,58.863 L -17.6099,59.0422 L -17.6901,59.2126
 L -17.791,59.3716 L -17.9111,59.5168 L -18.0484,59.6457 L -18.2008,59.7565 L -18.3659,59.8472 L -18.541,59.9165
 L -18.7235,59.9634 L -18.9104,59.987 z
M 14.2627,61.2978 L 14.0758,61.2742 L 13.8934,61.2273 L 13.7182,61.158 L 13.5531,61.0672 L 13.4007,60.9565
 L 13.2634,60.8276 L 13.1434,60.6824 L 13.0424,60.5234 L 12.9622,60.3529 L 12.904,60.1738 L 12.8687,59.9887
 L 12.8569,59.8008 L 12.8687,59.6127 L 12.904,59.4277 L 12.9622,59.2486 L 13.0424,59.0781 L 13.1434,58.9191
 L 13.2634,58.7739 L 13.4007,58.645 L 13.5531,58.5343 L 13.7182,58.4435 L 13.8934,58.3742 L 14.0758,58.3273
 L 14.2627,58.3037 L 14.4511,58.3037 L 14.638,58.3273 L 14.8204,58.3742 L 14.9955,58.4435 L 15.1606,58.5343
 L 15.313,58.645 L 15.4503,58.7739 L 15.5704,58.9191 L 15.6713,59.0781 L 15.7515,59.2486 L 15.8098,59.4277
 L 15.845,59.6127 L 15.8569,59.8008 L 15.845,59.9887 L 15.8098,60.1738 L 15.7515,60.3529 L 15.6713,60.5234
 L 15.5704,60.6824 L 15.4503,60.8276 L 15.313,60.9565 L 15.1606,61.0672 L 14.9955,61.158 L 14.8204,61.2273
 L 14.638,61.2742 L 14.4511,61.2978 z
M -14.4511,61.2978 L -14.638,61.2742 L -14.8204,61.2273 L -14.9955,61.158 L -15.1606,61.0672 L -15.313,60.9565
 L -15.4503,60.8276 L -15.5704,60.6824 L -15.6713,60.5234 L -15.7515,60.3529 L -15.8098,60.1738 L -15.845,59.9887
 L -15.8569,59.8008 L -15.845,59.6127 L -15.8098,59.4277 L -15.7515,59.2486 L -15.6713,59.0781 L -15.5704,58.9191
 L -15.4503,58.7739 L -15.313,58.645 L -15.1606,58.5343 L -14.9955,58.4435 L -14.8204,58.3742 L -14.638,58.3273
 L -14.4511,58.3037 L -14.2627,58.3037 L -14.0758,58.3273 L -13.8934,58.3742 L -13.7182,58.4435 L -13.5531,58.5343
 L -13.4007,58.645 L -13.2634,58.7739 L -13.1434,58.9191 L -13.0424,59.0781 L -12.9622,59.2486 L -12.904,59.4277
 L -12.8687,59.6127 L -12.8569,59.8008 L -12.8687,59.9887 L -12.904,60.1738 L -12.9622,60.3529 L -13.0424,60.5234
 L -13.1434,60.6824 L -13.2634,60.8276 L -13.4007,60.9565 L -13.5531,61.0672 L -13.7182,61.158 L -13.8934,61.2273
 L -14.0758,61.2742 L -14.2627,61.2978 z
M 9.52652,62.2399 L 9.33965,62.2163 L 9.15718,62.1694 L 8.98204,62.1001 L 8.81697,62.0093 L 8.66458,61.8986
 L 8.52725,61.7697 L 8.40718,61.6245 L 8.30626,61.4655 L 8.22604,61.295 L 8.16783,61.1159 L 8.13254,60.9308
 L 8.12071,60.7428 L 8.13254,60.5548 L 8.16783,60.3698 L 8.22604,60.1906 L 8.30626,60.0202 L 8.40718,59.8611
 L 8.52725,59.716 L 8.66458,59.5871 L 8.81697,59.4763 L 8.98204,59.3856 L 9.15718,59.3162 L 9.33965,59.2694
 L 9.52652,59.2458 L 9.7149,59.2458 L 9.90178,59.2694 L 10.0842,59.3162 L 10.2594,59.3856 L 10.4245,59.4763
 L 10.5768,59.5871 L 10.7142,59.716 L 10.8342,59.8611 L 10.9352,60.0202 L 11.0154,60.1906 L 11.0736,60.3698
 L 11.1089,60.5548 L 11.1207,60.7428 L 11.1089,60.9308 L 11.0736,61.1159 L 11.0154,61.295 L 10.9352,61.4655
 L 10.8342,61.6245 L 10.7142,61.7697 L 10.5768,61.8986 L 10.4245,62.0093 L 10.2594,62.1001 L 10.0842,62.1694
 L 9.90178,62.2163 L 9.7149,62.2399 z
M -9.7149,62.2399 L -9.90178,62.2163 L -10.0842,62.1694 L -10.2594,62.1001 L -10.4245,62.0093 L -10.5768,61.8986
 L -10.7142,61.7697 L -10.8342,61.6245 L -10.9352,61.4655 L -11.0154,61.295 L -11.0736,61.1159 L -11.1089,60.9308
 L -11.1207,60.7428 L -11.1089,60.5548 L -11.0736,60.3698 L -11.0154,60.1906 L -10.9352,60.0202 L -10.8342,59.8611
 L -10.7142,59.716 L -10.5768,59.5871 L -10.4245,59.4763 L -10.2594,59.3856 L -10.0842,59.3162 L -9.90178,59.2694
 L -9.7149,59.2458 L -9.52652,59.2458 L -9.33965,59.2694 L -9.15718,59.3162 L -8.98204,59.3856 L -8.81697,59.4763
 L -8.66458,59.5871 L -8.52725,59.716 L -8.40718,59.8611 L -8.30626,60.0202 L -8.22604,60.1906 L -8.16783,60.3698
 L -8.13254,60.5548 L -8.12071,60.7428 L -8.13254,60.9308 L -8.16783,61.1159 L -8.22604,61.295 L -8.30626,61.4655
 L -8.40718,61.6245 L -8.52725,61.7697 L -8.66458,61.8986 L -8.81697,62.0093 L -8.98204,62.1001 L -9.15718,62.1694
 L -9.33965,62.2163 L -9.52652,62.2399 z
M -4.91942,62.8074 L -5.10629,62.7838 L -5.28876,62.737 L -5.4639,62.6676 L -5.62897,62.5769 L -5.78136,62.4662
 L -5.91869,62.3372 L -6.03876,62.1921 L -6.13969,62.033 L -6.21989,61.8626 L -6.27811,61.6834 L -6.3134,61.4984
 L -6.32523,61.3104 L -6.3134,61.1224 L -6.27811,60.9374 L -6.21989,60.7582 L -6.13969,60.5878 L -6.03876,60.4287
 L -5.91869,60.2836 L -5.78136,60.1546 L -5.62897,60.0439 L -5.4639,59.9532 L -5.28876,59.8838 L -5.10629,59.837
 L -4.91942,59.8134 L -4.73105,59.8134 L -4.54416,59.837 L -4.36169,59.8838 L -4.18655,59.9532 L -4.02148,60.0439
 L -3.86909,60.1546 L -3.73178,60.2836 L -3.61169,60.4287 L -3.51077,60.5878 L -3.43056,60.7582 L -3.37234,60.9374
 L -3.33705,61.1224 L -3.32523,61.3104 L -3.33705,61.4984 L -3.37234,61.6834 L -3.43056,61.8626 L -3.51077,62.033
 L -3.61169,62.1921 L -3.73178,62.3372 L -3.86909,62.4662 L -4.02148,62.5769 L -4.18655,62.6676 L -4.36169,62.737
 L -4.54416,62.7838 L -4.73105,62.8074 z
M 4.73105,62.8074 L 4.54416,62.7838 L 4.36169,62.737 L 4.18655,62.6676 L 4.02148,62.5769 L 3.86909,62.4662
 L 3.73178,62.3372 L 3.61169,62.1921 L 3.51077,62.033 L 3.43056,61.8626 L 3.37234,61.6834 L 3.33705,61.4984
 L 3.32523,61.3104 L 3.33705,61.1224 L 3.37234,60.9374 L 3.43056,60.7582 L 3.51077,60.5878 L 3.61169,60.4287
 L 3.73178,60.2836 L 3.86909,60.1546 L 4.02148,60.0439 L 4.18655,59.9532 L 4.36169,59.8838 L 4.54416,59.837
 L 4.73105,59.8134 L 4.91942,59.8134 L 5.10629,59.837 L 5.28876,59.8838 L 5.4639,59.9532 L 5.62897,60.0439
 L 5.78136,60.1546 L 5.91869,60.2836 L 6.03876,60.4287 L 6.13969,60.5878 L 6.21989,60.7582 L 6.27811,60.9374
 L 6.3134,61.1224 L 6.32523,61.3104 L 6.3134,61.4984 L 6.27811,61.6834 L 6.21989,61.8626 L 6.13969,62.033
 L 6.03876,62.1921 L 5.91869,62.3372 L 5.78136,62.4662 L 5.62897,62.5769 L 5.4639,62.6676 L 5.28876,62.737
 L 5.10629,62.7838 L 4.91942,62.8074 z
M -0.0941772,62.997 L -0.281067,62.9734 L -0.463516,62.9266 L -0.638657,62.8572 L -0.803726,62.7665 L -0.956131,62.6558
 L -1.09344,62.5268 L -1.21352,62.3817 L -1.31445,62.2226 L -1.39465,62.0522 L -1.45287,61.873 L -1.48816,61.688
 L -1.5,61.5 L -1.48816,61.312 L -1.45287,61.127 L -1.39465,60.9478 L -1.31445,60.7774 L -1.21352,60.6183
 L -1.09344,60.4732 L -0.956131,60.3442 L -0.803726,60.2335 L -0.638657,60.1428 L -0.463516,60.0734 L -0.281067,60.0266
 L -0.0941772,60.003 L 0.0941772,60.003 L 0.281067,60.0266 L 0.463516,60.0734 L 0.638657,60.1428 L 0.803726,60.2335
 L 0.956131,60.3442 L 1.09344,60.4732 L 1.21352,60.6183 L 1.31445,60.7774 L 1.39465,60.9478 L 1.45287,61.127
 L 1.48816,61.312 L 1.5,61.5 L 1.48816,61.688 L 1.45287,61.873 L 1.39465,62.0522 L 1.31445,62.2226
 L 1.21352,62.3817 L 1.09344,62.5268 L 0.956131,62.6558 L 0.803726,62.7665 L 0.638657,62.8572 L 0.463516,62.9266
 L 0.281067,62.9734 L 0.0941772,62.997 z
M -0.18837,77.9941 L -0.562134,77.9469 L -0.927048,77.8532 L -1.27733,77.7145 L -1.60747,77.533 L -1.91226,77.3115
 L -2.1869,77.0536 L -2.42705,76.7634 L -2.62891,76.4453 L -2.78932,76.1044 L -2.90575,75.7461 L -2.97633,75.376
 L -3,75 L -2.97633,74.624 L -2.90575,74.2539 L -2.78932,73.8956 L -2.62891,73.5547 L -2.42705,73.2366
 L -2.1869,72.9464 L -1.91226,72.6885 L -1.60747,72.467 L -1.27733,72.2855 L -0.927048,72.1468 L -0.562134,72.0531
 L -0.18837,72.0059 L 0.18837,72.0059 L 0.562134,72.0531 L 0.927048,72.1468 L 1.27733,72.2855 L 1.60747,72.467
 L 1.91226,72.6885 L 2.1869,72.9464 L 2.42705,73.2366 L 2.62891,73.5547 L 2.78932,73.8956 L 2.90575,74.2539
 L 2.97633,74.624 L 3,75 L 2.97633,75.376 L 2.90575,75.7461 L 2.78932,76.1044 L 2.62891,76.4453
 L 2.42705,76.7634 L 2.1869,77.0536 L 1.91226,77.3115 L 1.60747,77.533 L 1.27733,77.7145 L 0.927048,77.8532
 L 0.562134,77.9469 L 0.18837,77.9941 z
" stroke="black" fill="lightgray" stroke-width="0.5"/>
</svg>
