<?xml version="1.0" standalone="no"?>
<!DOCTYPE svg PUBLIC "-//W3C//DTD SVG 1.1//EN" "http://www.w3.org/Graphics/SVG/1.1/DTD/svg11.dtd">
<svg width="56mm" height="56mm" viewBox="-28 -28 56 56" xmlns="http://www.w3.org/2000/svg" version="1.1">
<title>OpenSCAD Model</title>
<path d="
M 5.15298,27.0129 L 8.49796,26.1541 L 11.7089,24.8827 L 14.7352,23.219 L 17.5292,21.1891 L 20.0466,18.825
 L 22.248,16.1641 L 24.0984,13.2482 L 25.5688,10.1234 L 26.636,6.83896 L 27.242,3.66216 L 26.8738,4.10727
 L 26.3245,4.62308 L 25.715,5.06596 L 25.0547,5.42896 L 24.3541,5.70633 L 23.6243,5.89372 L 22.8767,5.98816
 L 22.1232,5.98816 L 21.3757,5.89372 L 20.6459,5.70633 L 19.9453,5.42896 L 19.285,5.06596 L 18.6754,4.62308
 L 18.1262,4.10727 L 17.6459,3.5267 L 17.2422,2.89052 L 16.9213,2.20874 L 16.6885,1.49213 L 16.5473,0.751999
 L 16.5,-0 L 16.5473,-0.751999 L 16.6885,-1.49213 L 16.9213,-2.20874 L 17.2422,-2.89052 L 17.6459,-3.5267
 L 18.1262,-4.10727 L 18.6754,-4.62308 L 19.285,-5.06596 L 19.9453,-5.42896 L 20.6459,-5.70633 L 21.3757,-5.89372
 L 22.1232,-5.98816 L 22.8767,-5.98816 L 23.6243,-5.89372 L 24.3541,-5.70633 L 25.0547,-5.42896 L 25.715,-5.06596
 L 26.3245,-4.62308 L 26.8738,-4.10727 L 27.242,-3.66216 L 26.636,-6.83896 L 25.5688,-10.1234 L 24.0984,-13.2482
 L 22.248,-16.1641 L 20.0466,-18.825 L 17.5292,-21.1891 L 14.7352,-23.219 L 11.7089,-24.8827 L 8.49796,-26.1541
 L 5.15298,-27.0129 L 3.7285,-27.1928 L 3.82454,-27.1231 L 4.37381,-26.6073 L 4.8541,-26.0267 L 5.25783,-25.3905
 L 5.57864,-24.7087 L 5.81149,-23.9921 L 5.95268,-23.252 L 6,-22.5 L 5.95268,-21.748 L 5.81149,-21.0079
 L 5.57864,-20.2912 L 5.25783,-19.6095 L 4.8541,-18.9733 L 4.37381,-18.3927 L 3.82454,-17.8769 L 3.21495,-17.434
 L 2.55467,-17.071 L 1.8541,-16.7937 L 1.12428,-16.6063 L 0.37674,-16.5118 L -0.37674,-16.5118 L -1.12428,-16.6063
 L -1.8541,-16.7937 L -2.55467,-17.071 L -3.21495,-17.434 L -3.82454,-17.8769 L -4.37381,-18.3927 L -4.8541,-18.9733
 L -5.25783,-19.6095 L -5.57864,-20.2912 L -5.81149,-21.0079 L -5.95268,-21.748 L -6,-22.5 L -5.95268,-23.252
 L -5.81149,-23.9921 L -5.57864,-24.7087 L -5.25783,-25.3905 L -4.8541,-26.0267 L -4.37381,-26.6073 L -3.82454,-27.1231
 L -3.7285,-27.1928 L -5.15298,-27.0129 L -8.49796,-26.1541 L -11.7089,-24.8827 L -14.7352,-23.219 L -17.5292,-21.1891
 L -20.0466,-18.825 L -22.248,-16.1641 L -24.0984,-13.2482 L -25.5688,-10.1234 L -26.636,-6.83896 L -27.242,-3.66216
 L -26.8738,-4.10727 L -26.3245,-4.62308 L -25.715,-5.06596 L -25.0547,-5.42896 L -24.3541,-5.70633 L -23.6243,-5.89372
 L -22.8767,-5.98816 L -22.1232,-5.98816 L -21.3757,-5.89372 L -20.6459,-5.70633 L -19.9453,-5.42896 L -19.285,-5.06596
 L -18.6754,-4.62308 L -18.1262,-4.10727 L -17.6459,-3.5267 L -17.2422,-2.89052 L -16.9213,-2.20874 L -16.6885,-1.49213
 L -16.5473,-0.751999 L -16.5,-0 L -16.5473,0.751999 L -16.6885,1.49213 L -16.9213,2.20874 L -17.2422,2.89052
 L -17.6459,3.5267 L -18.1262,4.10727 L -18.6754,4.62308 L -19.285,5.06596 L -19.9453,5.42896 L -20.6459,5.70633
 L -21.3757,5.89372 L -22.1232,5.98816 L -22.8767,5.98816 L -23.6243,5.89372 L -24.3541,5.70633 L -25.0547,5.42896
 L -25.715,5.06596 L -26.3245,4.62308 L -26.8738,4.10727 L -27.242,3.66216 L -26.636,6.83896 L -25.5688,10.1234
 L -24.0984,13.2482 L -22.248,16.1641 L -20.0466,18.825 L -17.5292,21.1891 L -14.7352,23.219 L -11.7089,24.8827
 L -8.49796,26.1541 L -5.15298,27.0129 L -3.7285,27.1928 L -3.82454,27.1231 L -4.37381,26.6073 L -4.8541,26.0267
 L -5.25783,25.3905 L -5.57864,24.7087 L -5.81149,23.9921 L -5.95268,23.252 L -6,22.5 L -5.95268,21.748
 L -5.81149,21.0079 L -5.57864,20.2912 L -5.25783,19.6095 L -4.8541,18.9733 L -4.37381,18.3927 L -3.82454,17.8769
 L -3.21495,17.434 L -2.55467,17.071 L -1.8541,16.7937 L -1.12428,16.6063 L -0.37674,16.5118 L 0.37674,16.5118
 L 1.12428,16.6063 L 1.8541,16.7937 L 2.55467,17.071 L 3.21495,17.434 L 3.82454,17.8769 L 4.37381,18.3927
 L 4.8541,18.9733 L 5.25783,19.6095 L 5.57864,20.2912 L 5.81149,21.0079 L 5.95268,21.748 L 6,22.5
 L 5.95268,23.252 L 5.81149,23.9921 L 5.57864,24.7087 L 5.25783,25.3905 L 4.8541,26.0267 L 4.37381,26.6073
 L 3.82454,27.1231 L 3.7285,27.1928 z
M 15.8158,-14.4129 L 15.6289,-14.4366 L 15.4465,-14.4834 L 15.2713,-14.5527 L 15.1062,-14.6435 L 14.9539,-14.7542
 L 14.8165,-14.8832 L 14.6965,-15.0283 L 14.5955,-15.1874 L 14.5153,-15.3578 L 14.4571,-15.537 L 14.4218,-15.722
 L 14.41,-15.91 L 14.4218,-16.098 L 14.4571,-16.283 L 14.5153,-16.4622 L 14.5955,-16.6326 L 14.6965,-16.7917
 L 14.8165,-16.9368 L 14.9539,-17.0658 L 15.1062,-17.1765 L 15.2713,-17.2672 L 15.4465,-17.3366 L 15.6289,-17.3834
 L 15.8158,-17.407 L 16.0042,-17.407 L 16.1911,-17.3834 L 16.3735,-17.3366 L 16.5487,-17.2672 L 16.7137,-17.1765
 L 16.8661,-17.0658 L 17.0034,-16.9368 L 17.1235,-16.7917 L 17.2245,-16.6326 L 17.3047,-16.4622 L 17.3629,-16.283
 L 17.3982,-16.098 L 17.41,-15.91 L 17.3982,-15.722 L 17.3629,-15.537 L 17.3047,-15.3578 L 17.2245,-15.1874
 L 17.1235,-15.0283 L 17.0034,-14.8832 L 16.8661,-14.7542 L 16.7137,-14.6435 L 16.5487,-14.5527 L 16.3735,-14.4834
 L 16.1911,-14.4366 L 16.0042,-14.4129 z
M -16.0042,-14.4129 L -16.1911,-14.4366 L -16.3735,-14.4834 L -16.5487,-14.5527 L -16.7137,-14.6435 L -16.8661,-14.7542
 L -17.0034,-14.8832 L -17.1235,-15.0283 L -17.2245,-15.1874 L -17.3047,-15.3578 L -17.3629,-15.537 L -17.3982,-15.722
 L -17.41,-15.91 L -17.3982,-16.098 L -17.3629,-16.283 L -17.3047,-16.4622 L -17.2245,-16.6326 L -17.1235,-16.7917
 L -17.0034,-16.9368 L -16.8661,-17.0658 L -16.7137,-17.1765 L -16.5487,-17.2672 L -16.3735,-17.3366 L -16.1911,-17.3834
 L -16.0042,-17.407 L -15.8158,-17.407 L -15.6289,-17.3834 L -15.4465,-17.3366 L -15.2713,-17.2672 L -15.1062,-17.1765
 L -14.9539,-17.0658 L -14.8165,-16.9368 L -14.6965,-16.7917 L -14.5955,-16.6326 L -14.5153,-16.4622 L -14.4571,-16.283
 L -14.4218,-16.098 L -14.41,-15.91 L -14.4218,-15.722 L -14.4571,-15.537 L -14.5153,-15.3578 L -14.5955,-15.1874
 L -14.6965,-15.0283 L -14.8165,-14.8832 L -14.9539,-14.7542 L -15.1062,-14.6435 L -15.2713,-14.5527 L -15.4465,-14.4834
 L -15.6289,-14.4366 L -15.8158,-14.4129 z
M -0.941849,14.9704 L -2.81071,14.7343 L -4.63525,14.2658 L -6.38669,13.5724 L -8.0374,12.6649 L -9.56136,11.5577
 L -10.9345,10.2682 L -12.1353,8.81677 L -13.1446,7.2263 L -13.9466,5.52187 L -14.5287,3.73035 L -14.8817,1.87999
 L -15,-0 L -14.8817,-1.87999 L -14.5287,-3.73035 L -13.9466,-5.52187 L -13.1446,-7.2263 L -12.1353,-8.81677
 L -10.9345,-10.2682 L -9.56136,-11.5577 L -8.0374,-12.6649 L -6.38669,-13.5724 L -4.63525,-14.2658 L -2.81071,-14.7343
 L -0.941849,-14.9704 L 0.941849,-14.9704 L 2.81071,-14.7343 L 4.63525,-14.2658 L 6.38669,-13.5724 L 8.0374,-12.6649
 L 9.56136,-11.5577 L 10.9345,-10.2682 L 12.1353,-8.81677 L 13.1446,-7.2263 L 13.9466,-5.52187 L 14.5287,-3.73035
 L 14.8817,-1.87999 L 15,-0 L 14.8817,1.87999 L 14.5287,3.73035 L 13.9466,5.52187 L 13.1446,7.2263
 L 12.1353,8.81677 L 10.9345,10.2682 L 9.56136,11.5577 L 8.0374,12.6649 L 6.38669,13.5724 L 4.63525,14.2658
 L 2.81071,14.7343 L 0.941849,14.9704 z
M -16.0042,17.407 L -16.1911,17.3834 L -16.3735,17.3366 L -16.5487,17.2672 L -16.7137,17.1765 L -16.8661,17.0658
 L -17.0034,16.9368 L -17.1235,16.7917 L -17.2245,16.6326 L -17.3047,16.4622 L -17.3629,16.283 L -17.3982,16.098
 L -17.41,15.91 L -17.3982,15.722 L -17.3629,15.537 L -17.3047,15.3578 L -17.2245,15.1874 L -17.1235,15.0283
 L -17.0034,14.8832 L -16.8661,14.7542 L -16.7137,14.6435 L -16.5487,14.5527 L -16.3735,14.4834 L -16.1911,14.4366
 L -16.0042,14.4129 L -15.8158,14.4129 L -15.6289,14.4366 L -15.4465,14.4834 L -15.2713,14.5527 L -15.1062,14.6435
 L -14.9539,14.7542 L -14.8165,14.8832 L -14.6965,15.0283 L -14.5955,15.1874 L -14.5153,15.3578 L -14.4571,15.537
 L -14.4218,15.722 L -14.41,15.91 L -14.4218,16.098 L -14.4571,16.283 L -14.5153,16.4622 L -14.5955,16.6326
 L -14.6965,16.7917 L -14.8165,16.9368 L -14.9539,17.0658 L -15.1062,17.1765 L -15.2713,17.2672 L -15.4465,17.3366
 L -15.6289,17.3834 L -15.8158,17.407 z
M 15.8158,17.407 L 15.6289,17.3834 L 15.4465,17.3366 L 15.2713,17.2672 L 15.1062,17.1765 L 14.9539,17.0658
 L 14.8165,16.9368 L 14.6965,16.7917 L 14.5955,16.6326 L 14.5153,16.4622 L 14.4571,16.283 L 14.4218,16.098
 L 14.41,15.91 L 14.4218,15.722 L 14.4571,15.537 L 14.5153,15.3578 L 14.5955,15.1874 L 14.6965,15.0283
 L 14.8165,14.8832 L 14.9539,14.7542 L 15.1062,14.6435 L 15.2713,14.5527 L 15.4465,14.4834 L 15.6289,14.4366
 L 15.8158,14.4129 L 16.0042,14.4129 L 16.1911,14.4366 L 16.3735,14.4834 L 16.5487,14.5527 L 16.7137,14.6435
 L 16.8661,14.7542 L 17.0034,14.8832 L 17.1235,15.0283 L 17.2245,15.1874 L 17.3047,15.3578 L 17.3629,15.537
 L 17.3982,15.722 L 17.41,15.91 L 17.3982,16.098 L 17.3629,16.283 L 17.3047,16.4622 L 17.2245,16.6326
 L 17.1235,16.7917 L 17.0034,16.9368 L 16.8661,17.0658 L 16.7137,17.1765 L 16.5487,17.2672 L 16.3735,17.3366
 L 16.1911,17.3834 L 16.0042,17.407 z
" stroke="black" fill="lightgray" stroke-width="0.5"/>
</svg>
