  0
SECTION
  2
BLOCKS
  0
ENDSEC
  0
SECTION
  2
ENTITIES
  0
LINE
  8
0
 10
5.15298
 20
-27.0129
 11
8.49796
 21
-26.1541
  0
LINE
  8
0
 10
8.49796
 20
-26.1541
 11
11.7089
 21
-24.8827
  0
LINE
  8
0
 10
11.7089
 20
-24.8827
 11
14.7352
 21
-23.219
  0
LINE
  8
0
 10
14.7352
 20
-23.219
 11
17.5292
 21
-21.1891
  0
LINE
  8
0
 10
17.5292
 20
-21.1891
 11
20.0466
 21
-18.825
  0
LINE
  8
0
 10
20.0466
 20
-18.825
 11
22.248
 21
-16.1641
  0
LINE
  8
0
 10
22.248
 20
-16.1641
 11
24.0984
 21
-13.2482
  0
LINE
  8
0
 10
24.0984
 20
-13.2482
 11
25.5688
 21
-10.1234
  0
LINE
  8
0
 10
25.5688
 20
-10.1234
 11
26.636
 21
-6.83896
  0
LINE
  8
0
 10
26.636
 20
-6.83896
 11
27.242
 21
-3.66216
  0
LINE
  8
0
 10
27.242
 20
-3.66216
 11
26.8738
 21
-4.10727
  0
LINE
  8
0
 10
26.8738
 20
-4.10727
 11
26.3245
 21
-4.62308
  0
LINE
  8
0
 10
26.3245
 20
-4.62308
 11
25.715
 21
-5.06596
  0
LINE
  8
0
 10
25.715
 20
-5.06596
 11
25.0547
 21
-5.42896
  0
LINE
  8
0
 10
25.0547
 20
-5.42896
 11
24.3541
 21
-5.70633
  0
LINE
  8
0
 10
24.3541
 20
-5.70633
 11
23.6243
 21
-5.89372
  0
LINE
  8
0
 10
23.6243
 20
-5.89372
 11
22.8767
 21
-5.98816
  0
LINE
  8
0
 10
22.8767
 20
-5.98816
 11
22.1232
 21
-5.98816
  0
LINE
  8
0
 10
22.1232
 20
-5.98816
 11
21.3757
 21
-5.89372
  0
LINE
  8
0
 10
21.3757
 20
-5.89372
 11
20.6459
 21
-5.70633
  0
LINE
  8
0
 10
20.6459
 20
-5.70633
 11
19.9453
 21
-5.42896
  0
LINE
  8
0
 10
19.9453
 20
-5.42896
 11
19.285
 21
-5.06596
  0
LINE
  8
0
 10
19.285
 20
-5.06596
 11
18.6754
 21
-4.62308
  0
LINE
  8
0
 10
18.6754
 20
-4.62308
 11
18.1262
 21
-4.10727
  0
LINE
  8
0
 10
18.1262
 20
-4.10727
 11
17.6459
 21
-3.5267
  0
LINE
  8
0
 10
17.6459
 20
-3.5267
 11
17.2422
 21
-2.89052
  0
LINE
  8
0
 10
17.2422
 20
-2.89052
 11
16.9213
 21
-2.20874
  0
LINE
  8
0
 10
16.9213
 20
-2.20874
 11
16.6885
 21
-1.49213
  0
LINE
  8
0
 10
16.6885
 20
-1.49213
 11
16.5473
 21
-0.751999
  0
LINE
  8
0
 10
16.5473
 20
-0.751999
 11
16.5
 21
0
  0
LINE
  8
0
 10
16.5
 20
0
 11
16.5473
 21
0.751999
  0
LINE
  8
0
 10
16.5473
 20
0.751999
 11
16.6885
 21
1.49213
  0
LINE
  8
0
 10
16.6885
 20
1.49213
 11
16.9213
 21
2.20874
  0
LINE
  8
0
 10
16.9213
 20
2.20874
 11
17.2422
 21
2.89052
  0
LINE
  8
0
 10
17.2422
 20
2.89052
 11
17.6459
 21
3.5267
  0
LINE
  8
0
 10
17.6459
 20
3.5267
 11
18.1262
 21
4.10727
  0
LINE
  8
0
 10
18.1262
 20
4.10727
 11
18.6754
 21
4.62308
  0
LINE
  8
0
 10
18.6754
 20
4.62308
 11
19.285
 21
5.06596
  0
LINE
  8
0
 10
19.285
 20
5.06596
 11
19.9453
 21
5.42896
  0
LINE
  8
0
 10
19.9453
 20
5.42896
 11
20.6459
 21
5.70633
  0
LINE
  8
0
 10
20.6459
 20
5.70633
 11
21.3757
 21
5.89372
  0
LINE
  8
0
 10
21.3757
 20
5.89372
 11
22.1232
 21
5.98816
  0
LINE
  8
0
 10
22.1232
 20
5.98816
 11
22.8767
 21
5.98816
  0
LINE
  8
0
 10
22.8767
 20
5.98816
 11
23.6243
 21
5.89372
  0
LINE
  8
0
 10
23.6243
 20
5.89372
 11
24.3541
 21
5.70633
  0
LINE
  8
0
 10
24.3541
 20
5.70633
 11
25.0547
 21
5.42896
  0
LINE
  8
0
 10
25.0547
 20
5.42896
 11
25.715
 21
5.06596
  0
LINE
  8
0
 10
25.715
 20
5.06596
 11
26.3245
 21
4.62308
  0
LINE
  8
0
 10
26.3245
 20
4.62308
 11
26.8738
 21
4.10727
  0
LINE
  8
0
 10
26.8738
 20
4.10727
 11
27.242
 21
3.66216
  0
LINE
  8
0
 10
27.242
 20
3.66216
 11
26.636
 21
6.83896
  0
LINE
  8
0
 10
26.636
 20
6.83896
 11
25.5688
 21
10.1234
  0
LINE
  8
0
 10
25.5688
 20
10.1234
 11
24.0984
 21
13.2482
  0
LINE
  8
0
 10
24.0984
 20
13.2482
 11
22.248
 21
16.1641
  0
LINE
  8
0
 10
22.248
 20
16.1641
 11
20.0466
 21
18.825
  0
LINE
  8
0
 10
20.0466
 20
18.825
 11
17.5292
 21
21.1891
  0
LINE
  8
0
 10
17.5292
 20
21.1891
 11
14.7352
 21
23.219
  0
LINE
  8
0
 10
14.7352
 20
23.219
 11
11.7089
 21
24.8827
  0
LINE
  8
0
 10
11.7089
 20
24.8827
 11
8.49796
 21
26.1541
  0
LINE
  8
0
 10
8.49796
 20
26.1541
 11
5.15298
 21
27.0129
  0
LINE
  8
0
 10
5.15298
 20
27.0129
 11
3.7285
 21
27.1928
  0
LINE
  8
0
 10
3.7285
 20
27.1928
 11
3.82454
 21
27.1231
  0
LINE
  8
0
 10
3.82454
 20
27.1231
 11
4.37381
 21
26.6073
  0
LINE
  8
0
 10
4.37381
 20
26.6073
 11
4.8541
 21
26.0267
  0
LINE
  8
0
 10
4.8541
 20
26.0267
 11
5.25783
 21
25.3905
  0
LINE
  8
0
 10
5.25783
 20
25.3905
 11
5.57864
 21
24.7087
  0
LINE
  8
0
 10
5.57864
 20
24.7087
 11
5.81149
 21
23.9921
  0
LINE
  8
0
 10
5.81149
 20
23.9921
 11
5.95268
 21
23.252
  0
LINE
  8
0
 10
5.95268
 20
23.252
 11
6
 21
22.5
  0
LINE
  8
0
 10
6
 20
22.5
 11
5.95268
 21
21.748
  0
LINE
  8
0
 10
5.95268
 20
21.748
 11
5.81149
 21
21.0079
  0
LINE
  8
0
 10
5.81149
 20
21.0079
 11
5.57864
 21
20.2912
  0
LINE
  8
0
 10
5.57864
 20
20.2912
 11
5.25783
 21
19.6095
  0
LINE
  8
0
 10
5.25783
 20
19.6095
 11
4.8541
 21
18.9733
  0
LINE
  8
0
 10
4.8541
 20
18.9733
 11
4.37381
 21
18.3927
  0
LINE
  8
0
 10
4.37381
 20
18.3927
 11
3.82454
 21
17.8769
  0
LINE
  8
0
 10
3.82454
 20
17.8769
 11
3.21495
 21
17.434
  0
LINE
  8
0
 10
3.21495
 20
17.434
 11
2.55467
 21
17.071
  0
LINE
  8
0
 10
2.55467
 20
17.071
 11
1.8541
 21
16.7937
  0
LINE
  8
0
 10
1.8541
 20
16.7937
 11
1.12428
 21
16.6063
  0
LINE
  8
0
 10
1.12428
 20
16.6063
 11
0.37674
 21
16.5118
  0
LINE
  8
0
 10
0.37674
 20
16.5118
 11
-0.37674
 21
16.5118
  0
LINE
  8
0
 10
-0.37674
 20
16.5118
 11
-1.12428
 21
16.6063
  0
LINE
  8
0
 10
-1.12428
 20
16.6063
 11
-1.8541
 21
16.7937
  0
LINE
  8
0
 10
-1.8541
 20
16.7937
 11
-2.55467
 21
17.071
  0
LINE
  8
0
 10
-2.55467
 20
17.071
 11
-3.21495
 21
17.434
  0
LINE
  8
0
 10
-3.21495
 20
17.434
 11
-3.82454
 21
17.8769
  0
LINE
  8
0
 10
-3.82454
 20
17.8769
 11
-4.37381
 21
18.3927
  0
LINE
  8
0
 10
-4.37381
 20
18.3927
 11
-4.8541
 21
18.9733
  0
LINE
  8
0
 10
-4.8541
 20
18.9733
 11
-5.25783
 21
19.6095
  0
LINE
  8
0
 10
-5.25783
 20
19.6095
 11
-5.57864
 21
20.2912
  0
LINE
  8
0
 10
-5.57864
 20
20.2912
 11
-5.81149
 21
21.0079
  0
LINE
  8
0
 10
-5.81149
 20
21.0079
 11
-5.95268
 21
21.748
  0
LINE
  8
0
 10
-5.95268
 20
21.748
 11
-6
 21
22.5
  0
LINE
  8
0
 10
-6
 20
22.5
 11
-5.95268
 21
23.252
  0
LINE
  8
0
 10
-5.95268
 20
23.252
 11
-5.81149
 21
23.9921
  0
LINE
  8
0
 10
-5.81149
 20
23.9921
 11
-5.57864
 21
24.7087
  0
LINE
  8
0
 10
-5.57864
 20
24.7087
 11
-5.25783
 21
25.3905
  0
LINE
  8
0
 10
-5.25783
 20
25.3905
 11
-4.8541
 21
26.0267
  0
LINE
  8
0
 10
-4.8541
 20
26.0267
 11
-4.37381
 21
26.6073
  0
LINE
  8
0
 10
-4.37381
 20
26.6073
 11
-3.82454
 21
27.1231
  0
LINE
  8
0
 10
-3.82454
 20
27.1231
 11
-3.7285
 21
27.1928
  0
LINE
  8
0
 10
-3.7285
 20
27.1928
 11
-5.15298
 21
27.0129
  0
LINE
  8
0
 10
-5.15298
 20
27.0129
 11
-8.49796
 21
26.1541
  0
LINE
  8
0
 10
-8.49796
 20
26.1541
 11
-11.7089
 21
24.8827
  0
LINE
  8
0
 10
-11.7089
 20
24.8827
 11
-14.7352
 21
23.219
  0
LINE
  8
0
 10
-14.7352
 20
23.219
 11
-17.5292
 21
21.1891
  0
LINE
  8
0
 10
-17.5292
 20
21.1891
 11
-20.0466
 21
18.825
  0
LINE
  8
0
 10
-20.0466
 20
18.825
 11
-22.248
 21
16.1641
  0
LINE
  8
0
 10
-22.248
 20
16.1641
 11
-24.0984
 21
13.2482
  0
LINE
  8
0
 10
-24.0984
 20
13.2482
 11
-25.5688
 21
10.1234
  0
LINE
  8
0
 10
-25.5688
 20
10.1234
 11
-26.636
 21
6.83896
  0
LINE
  8
0
 10
-26.636
 20
6.83896
 11
-27.242
 21
3.66216
  0
LINE
  8
0
 10
-27.242
 20
3.66216
 11
-26.8738
 21
4.10727
  0
LINE
  8
0
 10
-26.8738
 20
4.10727
 11
-26.3245
 21
4.62308
  0
LINE
  8
0
 10
-26.3245
 20
4.62308
 11
-25.715
 21
5.06596
  0
LINE
  8
0
 10
-25.715
 20
5.06596
 11
-25.0547
 21
5.42896
  0
LINE
  8
0
 10
-25.0547
 20
5.42896
 11
-24.3541
 21
5.70633
  0
LINE
  8
0
 10
-24.3541
 20
5.70633
 11
-23.6243
 21
5.89372
  0
LINE
  8
0
 10
-23.6243
 20
5.89372
 11
-22.8767
 21
5.98816
  0
LINE
  8
0
 10
-22.8767
 20
5.98816
 11
-22.1232
 21
5.98816
  0
LINE
  8
0
 10
-22.1232
 20
5.98816
 11
-21.3757
 21
5.89372
  0
LINE
  8
0
 10
-21.3757
 20
5.89372
 11
-20.6459
 21
5.70633
  0
LINE
  8
0
 10
-20.6459
 20
5.70633
 11
-19.9453
 21
5.42896
  0
LINE
  8
0
 10
-19.9453
 20
5.42896
 11
-19.285
 21
5.06596
  0
LINE
  8
0
 10
-19.285
 20
5.06596
 11
-18.6754
 21
4.62308
  0
LINE
  8
0
 10
-18.6754
 20
4.62308
 11
-18.1262
 21
4.10727
  0
LINE
  8
0
 10
-18.1262
 20
4.10727
 11
-17.6459
 21
3.5267
  0
LINE
  8
0
 10
-17.6459
 20
3.5267
 11
-17.2422
 21
2.89052
  0
LINE
  8
0
 10
-17.2422
 20
2.89052
 11
-16.9213
 21
2.20874
  0
LINE
  8
0
 10
-16.9213
 20
2.20874
 11
-16.6885
 21
1.49213
  0
LINE
  8
0
 10
-16.6885
 20
1.49213
 11
-16.5473
 21
0.751999
  0
LINE
  8
0
 10
-16.5473
 20
0.751999
 11
-16.5
 21
0
  0
LINE
  8
0
 10
-16.5
 20
0
 11
-16.5473
 21
-0.751999
  0
LINE
  8
0
 10
-16.5473
 20
-0.751999
 11
-16.6885
 21
-1.49213
  0
LINE
  8
0
 10
-16.6885
 20
-1.49213
 11
-16.9213
 21
-2.20874
  0
LINE
  8
0
 10
-16.9213
 20
-2.20874
 11
-17.2422
 21
-2.89052
  0
LINE
  8
0
 10
-17.2422
 20
-2.89052
 11
-17.6459
 21
-3.5267
  0
LINE
  8
0
 10
-17.6459
 20
-3.5267
 11
-18.1262
 21
-4.10727
  0
LINE
  8
0
 10
-18.1262
 20
-4.10727
 11
-18.6754
 21
-4.62308
  0
LINE
  8
0
 10
-18.6754
 20
-4.62308
 11
-19.285
 21
-5.06596
  0
LINE
  8
0
 10
-19.285
 20
-5.06596
 11
-19.9453
 21
-5.42896
  0
LINE
  8
0
 10
-19.9453
 20
-5.42896
 11
-20.6459
 21
-5.70633
  0
LINE
  8
0
 10
-20.6459
 20
-5.70633
 11
-21.3757
 21
-5.89372
  0
LINE
  8
0
 10
-21.3757
 20
-5.89372
 11
-22.1232
 21
-5.98816
  0
LINE
  8
0
 10
-22.1232
 20
-5.98816
 11
-22.8767
 21
-5.98816
  0
LINE
  8
0
 10
-22.8767
 20
-5.98816
 11
-23.6243
 21
-5.89372
  0
LINE
  8
0
 10
-23.6243
 20
-5.89372
 11
-24.3541
 21
-5.70633
  0
LINE
  8
0
 10
-24.3541
 20
-5.70633
 11
-25.0547
 21
-5.42896
  0
LINE
  8
0
 10
-25.0547
 20
-5.42896
 11
-25.715
 21
-5.06596
  0
LINE
  8
0
 10
-25.715
 20
-5.06596
 11
-26.3245
 21
-4.62308
  0
LINE
  8
0
 10
-26.3245
 20
-4.62308
 11
-26.8738
 21
-4.10727
  0
LINE
  8
0
 10
-26.8738
 20
-4.10727
 11
-27.242
 21
-3.66216
  0
LINE
  8
0
 10
-27.242
 20
-3.66216
 11
-26.636
 21
-6.83896
  0
LINE
  8
0
 10
-26.636
 20
-6.83896
 11
-25.5688
 21
-10.1234
  0
LINE
  8
0
 10
-25.5688
 20
-10.1234
 11
-24.0984
 21
-13.2482
  0
LINE
  8
0
 10
-24.0984
 20
-13.2482
 11
-22.248
 21
-16.1641
  0
LINE
  8
0
 10
-22.248
 20
-16.1641
 11
-20.0466
 21
-18.825
  0
LINE
  8
0
 10
-20.0466
 20
-18.825
 11
-17.5292
 21
-21.1891
  0
LINE
  8
0
 10
-17.5292
 20
-21.1891
 11
-14.7352
 21
-23.219
  0
LINE
  8
0
 10
-14.7352
 20
-23.219
 11
-11.7089
 21
-24.8827
  0
LINE
  8
0
 10
-11.7089
 20
-24.8827
 11
-8.49796
 21
-26.1541
  0
LINE
  8
0
 10
-8.49796
 20
-26.1541
 11
-5.15298
 21
-27.0129
  0
LINE
  8
0
 10
-5.15298
 20
-27.0129
 11
-3.7285
 21
-27.1928
  0
LINE
  8
0
 10
-3.7285
 20
-27.1928
 11
-3.82454
 21
-27.1231
  0
LINE
  8
0
 10
-3.82454
 20
-27.1231
 11
-4.37381
 21
-26.6073
  0
LINE
  8
0
 10
-4.37381
 20
-26.6073
 11
-4.8541
 21
-26.0267
  0
LINE
  8
0
 10
-4.8541
 20
-26.0267
 11
-5.25783
 21
-25.3905
  0
LINE
  8
0
 10
-5.25783
 20
-25.3905
 11
-5.57864
 21
-24.7087
  0
LINE
  8
0
 10
-5.57864
 20
-24.7087
 11
-5.81149
 21
-23.9921
  0
LINE
  8
0
 10
-5.81149
 20
-23.9921
 11
-5.95268
 21
-23.252
  0
LINE
  8
0
 10
-5.95268
 20
-23.252
 11
-6
 21
-22.5
  0
LINE
  8
0
 10
-6
 20
-22.5
 11
-5.95268
 21
-21.748
  0
LINE
  8
0
 10
-5.95268
 20
-21.748
 11
-5.81149
 21
-21.0079
  0
LINE
  8
0
 10
-5.81149
 20
-21.0079
 11
-5.57864
 21
-20.2912
  0
LINE
  8
0
 10
-5.57864
 20
-20.2912
 11
-5.25783
 21
-19.6095
  0
LINE
  8
0
 10
-5.25783
 20
-19.6095
 11
-4.8541
 21
-18.9733
  0
LINE
  8
0
 10
-4.8541
 20
-18.9733
 11
-4.37381
 21
-18.3927
  0
LINE
  8
0
 10
-4.37381
 20
-18.3927
 11
-3.82454
 21
-17.8769
  0
LINE
  8
0
 10
-3.82454
 20
-17.8769
 11
-3.21495
 21
-17.434
  0
LINE
  8
0
 10
-3.21495
 20
-17.434
 11
-2.55467
 21
-17.071
  0
LINE
  8
0
 10
-2.55467
 20
-17.071
 11
-1.8541
 21
-16.7937
  0
LINE
  8
0
 10
-1.8541
 20
-16.7937
 11
-1.12428
 21
-16.6063
  0
LINE
  8
0
 10
-1.12428
 20
-16.6063
 11
-0.37674
 21
-16.5118
  0
LINE
  8
0
 10
-0.37674
 20
-16.5118
 11
0.37674
 21
-16.5118
  0
LINE
  8
0
 10
0.37674
 20
-16.5118
 11
1.12428
 21
-16.6063
  0
LINE
  8
0
 10
1.12428
 20
-16.6063
 11
1.8541
 21
-16.7937
  0
LINE
  8
0
 10
1.8541
 20
-16.7937
 11
2.55467
 21
-17.071
  0
LINE
  8
0
 10
2.55467
 20
-17.071
 11
3.21495
 21
-17.434
  0
LINE
  8
0
 10
3.21495
 20
-17.434
 11
3.82454
 21
-17.8769
  0
LINE
  8
0
 10
3.82454
 20
-17.8769
 11
4.37381
 21
-18.3927
  0
LINE
  8
0
 10
4.37381
 20
-18.3927
 11
4.8541
 21
-18.9733
  0
LINE
  8
0
 10
4.8541
 20
-18.9733
 11
5.25783
 21
-19.6095
  0
LINE
  8
0
 10
5.25783
 20
-19.6095
 11
5.57864
 21
-20.2912
  0
LINE
  8
0
 10
5.57864
 20
-20.2912
 11
5.81149
 21
-21.0079
  0
LINE
  8
0
 10
5.81149
 20
-21.0079
 11
5.95268
 21
-21.748
  0
LINE
  8
0
 10
5.95268
 20
-21.748
 11
6
 21
-22.5
  0
LINE
  8
0
 10
6
 20
-22.5
 11
5.95268
 21
-23.252
  0
LINE
  8
0
 10
5.95268
 20
-23.252
 11
5.81149
 21
-23.9921
  0
LINE
  8
0
 10
5.81149
 20
-23.9921
 11
5.57864
 21
-24.7087
  0
LINE
  8
0
 10
5.57864
 20
-24.7087
 11
5.25783
 21
-25.3905
  0
LINE
  8
0
 10
5.25783
 20
-25.3905
 11
4.8541
 21
-26.0267
  0
LINE
  8
0
 10
4.8541
 20
-26.0267
 11
4.37381
 21
-26.6073
  0
LINE
  8
0
 10
4.37381
 20
-26.6073
 11
3.82454
 21
-27.1231
  0
LINE
  8
0
 10
3.82454
 20
-27.1231
 11
3.7285
 21
-27.1928
  0
LINE
  8
0
 10
3.7285
 20
-27.1928
 11
5.15298
 21
-27.0129
  0
LINE
  8
0
 10
15.8158
 20
14.4129
 11
15.6289
 21
14.4366
  0
LINE
  8
0
 10
15.6289
 20
14.4366
 11
15.4465
 21
14.4834
  0
LINE
  8
0
 10
15.4465
 20
14.4834
 11
15.2713
 21
14.5527
  0
LINE
  8
0
 10
15.2713
 20
14.5527
 11
15.1062
 21
14.6435
  0
LINE
  8
0
 10
15.1062
 20
14.6435
 11
14.9539
 21
14.7542
  0
LINE
  8
0
 10
14.9539
 20
14.7542
 11
14.8165
 21
14.8832
  0
LINE
  8
0
 10
14.8165
 20
14.8832
 11
14.6965
 21
15.0283
  0
LINE
  8
0
 10
14.6965
 20
15.0283
 11
14.5955
 21
15.1874
  0
LINE
  8
0
 10
14.5955
 20
15.1874
 11
14.5153
 21
15.3578
  0
LINE
  8
0
 10
14.5153
 20
15.3578
 11
14.4571
 21
15.537
  0
LINE
  8
0
 10
14.4571
 20
15.537
 11
14.4218
 21
15.722
  0
LINE
  8
0
 10
14.4218
 20
15.722
 11
14.41
 21
15.91
  0
LINE
  8
0
 10
14.41
 20
15.91
 11
14.4218
 21
16.098
  0
LINE
  8
0
 10
14.4218
 20
16.098
 11
14.4571
 21
16.283
  0
LINE
  8
0
 10
14.4571
 20
16.283
 11
14.5153
 21
16.4622
  0
LINE
  8
0
 10
14.5153
 20
16.4622
 11
14.5955
 21
16.6326
  0
LINE
  8
0
 10
14.5955
 20
16.6326
 11
14.6965
 21
16.7917
  0
LINE
  8
0
 10
14.6965
 20
16.7917
 11
14.8165
 21
16.9368
  0
LINE
  8
0
 10
14.8165
 20
16.9368
 11
14.9539
 21
17.0658
  0
LINE
  8
0
 10
14.9539
 20
17.0658
 11
15.1062
 21
17.1765
  0
LINE
  8
0
 10
15.1062
 20
17.1765
 11
15.2713
 21
17.2672
  0
LINE
  8
0
 10
15.2713
 20
17.2672
 11
15.4465
 21
17.3366
  0
LINE
  8
0
 10
15.4465
 20
17.3366
 11
15.6289
 21
17.3834
  0
LINE
  8
0
 10
15.6289
 20
17.3834
 11
15.8158
 21
17.407
  0
LINE
  8
0
 10
15.8158
 20
17.407
 11
16.0042
 21
17.407
  0
LINE
  8
0
 10
16.0042
 20
17.407
 11
16.1911
 21
17.3834
  0
LINE
  8
0
 10
16.1911
 20
17.3834
 11
16.3735
 21
17.3366
  0
LINE
  8
0
 10
16.3735
 20
17.3366
 11
16.5487
 21
17.2672
  0
LINE
  8
0
 10
16.5487
 20
17.2672
 11
16.7137
 21
17.1765
  0
LINE
  8
0
 10
16.7137
 20
17.1765
 11
16.8661
 21
17.0658
  0
LINE
  8
0
 10
16.8661
 20
17.0658
 11
17.0034
 21
16.9368
  0
LINE
  8
0
 10
17.0034
 20
16.9368
 11
17.1235
 21
16.7917
  0
LINE
  8
0
 10
17.1235
 20
16.7917
 11
17.2245
 21
16.6326
  0
LINE
  8
0
 10
17.2245
 20
16.6326
 11
17.3047
 21
16.4622
  0
LINE
  8
0
 10
17.3047
 20
16.4622
 11
17.3629
 21
16.283
  0
LINE
  8
0
 10
17.3629
 20
16.283
 11
17.3982
 21
16.098
  0
LINE
  8
0
 10
17.3982
 20
16.098
 11
17.41
 21
15.91
  0
LINE
  8
0
 10
17.41
 20
15.91
 11
17.3982
 21
15.722
  0
LINE
  8
0
 10
17.3982
 20
15.722
 11
17.3629
 21
15.537
  0
LINE
  8
0
 10
17.3629
 20
15.537
 11
17.3047
 21
15.3578
  0
LINE
  8
0
 10
17.3047
 20
15.3578
 11
17.2245
 21
15.1874
  0
LINE
  8
0
 10
17.2245
 20
15.1874
 11
17.1235
 21
15.0283
  0
LINE
  8
0
 10
17.1235
 20
15.0283
 11
17.0034
 21
14.8832
  0
LINE
  8
0
 10
17.0034
 20
14.8832
 11
16.8661
 21
14.7542
  0
LINE
  8
0
 10
16.8661
 20
14.7542
 11
16.7137
 21
14.6435
  0
LINE
  8
0
 10
16.7137
 20
14.6435
 11
16.5487
 21
14.5527
  0
LINE
  8
0
 10
16.5487
 20
14.5527
 11
16.3735
 21
14.4834
  0
LINE
  8
0
 10
16.3735
 20
14.4834
 11
16.1911
 21
14.4366
  0
LINE
  8
0
 10
16.1911
 20
14.4366
 11
16.0042
 21
14.4129
  0
LINE
  8
0
 10
16.0042
 20
14.4129
 11
15.8158
 21
14.4129
  0
LINE
  8
0
 10
-16.0042
 20
14.4129
 11
-16.1911
 21
14.4366
  0
LINE
  8
0
 10
-16.1911
 20
14.4366
 11
-16.3735
 21
14.4834
  0
LINE
  8
0
 10
-16.3735
 20
14.4834
 11
-16.5487
 21
14.5527
  0
LINE
  8
0
 10
-16.5487
 20
14.5527
 11
-16.7137
 21
14.6435
  0
LINE
  8
0
 10
-16.7137
 20
14.6435
 11
-16.8661
 21
14.7542
  0
LINE
  8
0
 10
-16.8661
 20
14.7542
 11
-17.0034
 21
14.8832
  0
LINE
  8
0
 10
-17.0034
 20
14.8832
 11
-17.1235
 21
15.0283
  0
LINE
  8
0
 10
-17.1235
 20
15.0283
 11
-17.2245
 21
15.1874
  0
LINE
  8
0
 10
-17.2245
 20
15.1874
 11
-17.3047
 21
15.3578
  0
LINE
  8
0
 10
-17.3047
 20
15.3578
 11
-17.3629
 21
15.537
  0
LINE
  8
0
 10
-17.3629
 20
15.537
 11
-17.3982
 21
15.722
  0
LINE
  8
0
 10
-17.3982
 20
15.722
 11
-17.41
 21
15.91
  0
LINE
  8
0
 10
-17.41
 20
15.91
 11
-17.3982
 21
16.098
  0
LINE
  8
0
 10
-17.3982
 20
16.098
 11
-17.3629
 21
16.283
  0
LINE
  8
0
 10
-17.3629
 20
16.283
 11
-17.3047
 21
16.4622
  0
LINE
  8
0
 10
-17.3047
 20
16.4622
 11
-17.2245
 21
16.6326
  0
LINE
  8
0
 10
-17.2245
 20
16.6326
 11
-17.1235
 21
16.7917
  0
LINE
  8
0
 10
-17.1235
 20
16.7917
 11
-17.0034
 21
16.9368
  0
LINE
  8
0
 10
-17.0034
 20
16.9368
 11
-16.8661
 21
17.0658
  0
LINE
  8
0
 10
-16.8661
 20
17.0658
 11
-16.7137
 21
17.1765
  0
LINE
  8
0
 10
-16.7137
 20
17.1765
 11
-16.5487
 21
17.2672
  0
LINE
  8
0
 10
-16.5487
 20
17.2672
 11
-16.3735
 21
17.3366
  0
LINE
  8
0
 10
-16.3735
 20
17.3366
 11
-16.1911
 21
17.3834
  0
LINE
  8
0
 10
-16.1911
 20
17.3834
 11
-16.0042
 21
17.407
  0
LINE
  8
0
 10
-16.0042
 20
17.407
 11
-15.8158
 21
17.407
  0
LINE
  8
0
 10
-15.8158
 20
17.407
 11
-15.6289
 21
17.3834
  0
LINE
  8
0
 10
-15.6289
 20
17.3834
 11
-15.4465
 21
17.3366
  0
LINE
  8
0
 10
-15.4465
 20
17.3366
 11
-15.2713
 21
17.2672
  0
LINE
  8
0
 10
-15.2713
 20
17.2672
 11
-15.1062
 21
17.1765
  0
LINE
  8
0
 10
-15.1062
 20
17.1765
 11
-14.9539
 21
17.0658
  0
LINE
  8
0
 10
-14.9539
 20
17.0658
 11
-14.8165
 21
16.9368
  0
LINE
  8
0
 10
-14.8165
 20
16.9368
 11
-14.6965
 21
16.7917
  0
LINE
  8
0
 10
-14.6965
 20
16.7917
 11
-14.5955
 21
16.6326
  0
LINE
  8
0
 10
-14.5955
 20
16.6326
 11
-14.5153
 21
16.4622
  0
LINE
  8
0
 10
-14.5153
 20
16.4622
 11
-14.4571
 21
16.283
  0
LINE
  8
0
 10
-14.4571
 20
16.283
 11
-14.4218
 21
16.098
  0
LINE
  8
0
 10
-14.4218
 20
16.098
 11
-14.41
 21
15.91
  0
LINE
  8
0
 10
-14.41
 20
15.91
 11
-14.4218
 21
15.722
  0
LINE
  8
0
 10
-14.4218
 20
15.722
 11
-14.4571
 21
15.537
  0
LINE
  8
0
 10
-14.4571
 20
15.537
 11
-14.5153
 21
15.3578
  0
LINE
  8
0
 10
-14.5153
 20
15.3578
 11
-14.5955
 21
15.1874
  0
LINE
  8
0
 10
-14.5955
 20
15.1874
 11
-14.6965
 21
15.0283
  0
LINE
  8
0
 10
-14.6965
 20
15.0283
 11
-14.8165
 21
14.8832
  0
LINE
  8
0
 10
-14.8165
 20
14.8832
 11
-14.9539
 21
14.7542
  0
LINE
  8
0
 10
-14.9539
 20
14.7542
 11
-15.1062
 21
14.6435
  0
LINE
  8
0
 10
-15.1062
 20
14.6435
 11
-15.2713
 21
14.5527
  0
LINE
  8
0
 10
-15.2713
 20
14.5527
 11
-15.4465
 21
14.4834
  0
LINE
  8
0
 10
-15.4465
 20
14.4834
 11
-15.6289
 21
14.4366
  0
LINE
  8
0
 10
-15.6289
 20
14.4366
 11
-15.8158
 21
14.4129
  0
LINE
  8
0
 10
-15.8158
 20
14.4129
 11
-16.0042
 21
14.4129
  0
LINE
  8
0
 10
-0.941849
 20
-14.9704
 11
-2.81071
 21
-14.7343
  0
LINE
  8
0
 10
-2.81071
 20
-14.7343
 11
-4.63525
 21
-14.2658
  0
LINE
  8
0
 10
-4.63525
 20
-14.2658
 11
-6.38669
 21
-13.5724
  0
LINE
  8
0
 10
-6.38669
 20
-13.5724
 11
-8.0374
 21
-12.6649
  0
LINE
  8
0
 10
-8.0374
 20
-12.6649
 11
-9.56136
 21
-11.5577
  0
LINE
  8
0
 10
-9.56136
 20
-11.5577
 11
-10.9345
 21
-10.2682
  0
LINE
  8
0
 10
-10.9345
 20
-10.2682
 11
-12.1353
 21
-8.81677
  0
LINE
  8
0
 10
-12.1353
 20
-8.81677
 11
-13.1446
 21
-7.2263
  0
LINE
  8
0
 10
-13.1446
 20
-7.2263
 11
-13.9466
 21
-5.52187
  0
LINE
  8
0
 10
-13.9466
 20
-5.52187
 11
-14.5287
 21
-3.73035
  0
LINE
  8
0
 10
-14.5287
 20
-3.73035
 11
-14.8817
 21
-1.87999
  0
LINE
  8
0
 10
-14.8817
 20
-1.87999
 11
-15
 21
0
  0
LINE
  8
0
 10
-15
 20
0
 11
-14.8817
 21
1.87999
  0
LINE
  8
0
 10
-14.8817
 20
1.87999
 11
-14.5287
 21
3.73035
  0
LINE
  8
0
 10
-14.5287
 20
3.73035
 11
-13.9466
 21
5.52187
  0
LINE
  8
0
 10
-13.9466
 20
5.52187
 11
-13.1446
 21
7.2263
  0
LINE
  8
0
 10
-13.1446
 20
7.2263
 11
-12.1353
 21
8.81677
  0
LINE
  8
0
 10
-12.1353
 20
8.81677
 11
-10.9345
 21
10.2682
  0
LINE
  8
0
 10
-10.9345
 20
10.2682
 11
-9.56136
 21
11.5577
  0
LINE
  8
0
 10
-9.56136
 20
11.5577
 11
-8.0374
 21
12.6649
  0
LINE
  8
0
 10
-8.0374
 20
12.6649
 11
-6.38669
 21
13.5724
  0
LINE
  8
0
 10
-6.38669
 20
13.5724
 11
-4.63525
 21
14.2658
  0
LINE
  8
0
 10
-4.63525
 20
14.2658
 11
-2.81071
 21
14.7343
  0
LINE
  8
0
 10
-2.81071
 20
14.7343
 11
-0.941849
 21
14.9704
  0
LINE
  8
0
 10
-0.941849
 20
14.9704
 11
0.941849
 21
14.9704
  0
LINE
  8
0
 10
0.941849
 20
14.9704
 11
2.81071
 21
14.7343
  0
LINE
  8
0
 10
2.81071
 20
14.7343
 11
4.63525
 21
14.2658
  0
LINE
  8
0
 10
4.63525
 20
14.2658
 11
6.38669
 21
13.5724
  0
LINE
  8
0
 10
6.38669
 20
13.5724
 11
8.0374
 21
12.6649
  0
LINE
  8
0
 10
8.0374
 20
12.6649
 11
9.56136
 21
11.5577
  0
LINE
  8
0
 10
9.56136
 20
11.5577
 11
10.9345
 21
10.2682
  0
LINE
  8
0
 10
10.9345
 20
10.2682
 11
12.1353
 21
8.81677
  0
LINE
  8
0
 10
12.1353
 20
8.81677
 11
13.1446
 21
7.2263
  0
LINE
  8
0
 10
13.1446
 20
7.2263
 11
13.9466
 21
5.52187
  0
LINE
  8
0
 10
13.9466
 20
5.52187
 11
14.5287
 21
3.73035
  0
LINE
  8
0
 10
14.5287
 20
3.73035
 11
14.8817
 21
1.87999
  0
LINE
  8
0
 10
14.8817
 20
1.87999
 11
15
 21
0
  0
LINE
  8
0
 10
15
 20
0
 11
14.8817
 21
-1.87999
  0
LINE
  8
0
 10
14.8817
 20
-1.87999
 11
14.5287
 21
-3.73035
  0
LINE
  8
0
 10
14.5287
 20
-3.73035
 11
13.9466
 21
-5.52187
  0
LINE
  8
0
 10
13.9466
 20
-5.52187
 11
13.1446
 21
-7.2263
  0
LINE
  8
0
 10
13.1446
 20
-7.2263
 11
12.1353
 21
-8.81677
  0
LINE
  8
0
 10
12.1353
 20
-8.81677
 11
10.9345
 21
-10.2682
  0
LINE
  8
0
 10
10.9345
 20
-10.2682
 11
9.56136
 21
-11.5577
  0
LINE
  8
0
 10
9.56136
 20
-11.5577
 11
8.0374
 21
-12.6649
  0
LINE
  8
0
 10
8.0374
 20
-12.6649
 11
6.38669
 21
-13.5724
  0
LINE
  8
0
 10
6.38669
 20
-13.5724
 11
4.63525
 21
-14.2658
  0
LINE
  8
0
 10
4.63525
 20
-14.2658
 11
2.81071
 21
-14.7343
  0
LINE
  8
0
 10
2.81071
 20
-14.7343
 11
0.941849
 21
-14.9704
  0
LINE
  8
0
 10
0.941849
 20
-14.9704
 11
-0.941849
 21
-14.9704
  0
LINE
  8
0
 10
-16.0042
 20
-17.407
 11
-16.1911
 21
-17.3834
  0
LINE
  8
0
 10
-16.1911
 20
-17.3834
 11
-16.3735
 21
-17.3366
  0
LINE
  8
0
 10
-16.3735
 20
-17.3366
 11
-16.5487
 21
-17.2672
  0
LINE
  8
0
 10
-16.5487
 20
-17.2672
 11
-16.7137
 21
-17.1765
  0
LINE
  8
0
 10
-16.7137
 20
-17.1765
 11
-16.8661
 21
-17.0658
  0
LINE
  8
0
 10
-16.8661
 20
-17.0658
 11
-17.0034
 21
-16.9368
  0
LINE
  8
0
 10
-17.0034
 20
-16.9368
 11
-17.1235
 21
-16.7917
  0
LINE
  8
0
 10
-17.1235
 20
-16.7917
 11
-17.2245
 21
-16.6326
  0
LINE
  8
0
 10
-17.2245
 20
-16.6326
 11
-17.3047
 21
-16.4622
  0
LINE
  8
0
 10
-17.3047
 20
-16.4622
 11
-17.3629
 21
-16.283
  0
LINE
  8
0
 10
-17.3629
 20
-16.283
 11
-17.3982
 21
-16.098
  0
LINE
  8
0
 10
-17.3982
 20
-16.098
 11
-17.41
 21
-15.91
  0
LINE
  8
0
 10
-17.41
 20
-15.91
 11
-17.3982
 21
-15.722
  0
LINE
  8
0
 10
-17.3982
 20
-15.722
 11
-17.3629
 21
-15.537
  0
LINE
  8
0
 10
-17.3629
 20
-15.537
 11
-17.3047
 21
-15.3578
  0
LINE
  8
0
 10
-17.3047
 20
-15.3578
 11
-17.2245
 21
-15.1874
  0
LINE
  8
0
 10
-17.2245
 20
-15.1874
 11
-17.1235
 21
-15.0283
  0
LINE
  8
0
 10
-17.1235
 20
-15.0283
 11
-17.0034
 21
-14.8832
  0
LINE
  8
0
 10
-17.0034
 20
-14.8832
 11
-16.8661
 21
-14.7542
  0
LINE
  8
0
 10
-16.8661
 20
-14.7542
 11
-16.7137
 21
-14.6435
  0
LINE
  8
0
 10
-16.7137
 20
-14.6435
 11
-16.5487
 21
-14.5527
  0
LINE
  8
0
 10
-16.5487
 20
-14.5527
 11
-16.3735
 21
-14.4834
  0
LINE
  8
0
 10
-16.3735
 20
-14.4834
 11
-16.1911
 21
-14.4366
  0
LINE
  8
0
 10
-16.1911
 20
-14.4366
 11
-16.0042
 21
-14.4129
  0
LINE
  8
0
 10
-16.0042
 20
-14.4129
 11
-15.8158
 21
-14.4129
  0
LINE
  8
0
 10
-15.8158
 20
-14.4129
 11
-15.6289
 21
-14.4366
  0
LINE
  8
0
 10
-15.6289
 20
-14.4366
 11
-15.4465
 21
-14.4834
  0
LINE
  8
0
 10
-15.4465
 20
-14.4834
 11
-15.2713
 21
-14.5527
  0
LINE
  8
0
 10
-15.2713
 20
-14.5527
 11
-15.1062
 21
-14.6435
  0
LINE
  8
0
 10
-15.1062
 20
-14.6435
 11
-14.9539
 21
-14.7542
  0
LINE
  8
0
 10
-14.9539
 20
-14.7542
 11
-14.8165
 21
-14.8832
  0
LINE
  8
0
 10
-14.8165
 20
-14.8832
 11
-14.6965
 21
-15.0283
  0
LINE
  8
0
 10
-14.6965
 20
-15.0283
 11
-14.5955
 21
-15.1874
  0
LINE
  8
0
 10
-14.5955
 20
-15.1874
 11
-14.5153
 21
-15.3578
  0
LINE
  8
0
 10
-14.5153
 20
-15.3578
 11
-14.4571
 21
-15.537
  0
LINE
  8
0
 10
-14.4571
 20
-15.537
 11
-14.4218
 21
-15.722
  0
LINE
  8
0
 10
-14.4218
 20
-15.722
 11
-14.41
 21
-15.91
  0
LINE
  8
0
 10
-14.41
 20
-15.91
 11
-14.4218
 21
-16.098
  0
LINE
  8
0
 10
-14.4218
 20
-16.098
 11
-14.4571
 21
-16.283
  0
LINE
  8
0
 10
-14.4571
 20
-16.283
 11
-14.5153
 21
-16.4622
  0
LINE
  8
0
 10
-14.5153
 20
-16.4622
 11
-14.5955
 21
-16.6326
  0
LINE
  8
0
 10
-14.5955
 20
-16.6326
 11
-14.6965
 21
-16.7917
  0
LINE
  8
0
 10
-14.6965
 20
-16.7917
 11
-14.8165
 21
-16.9368
  0
LINE
  8
0
 10
-14.8165
 20
-16.9368
 11
-14.9539
 21
-17.0658
  0
LINE
  8
0
 10
-14.9539
 20
-17.0658
 11
-15.1062
 21
-17.1765
  0
LINE
  8
0
 10
-15.1062
 20
-17.1765
 11
-15.2713
 21
-17.2672
  0
LINE
  8
0
 10
-15.2713
 20
-17.2672
 11
-15.4465
 21
-17.3366
  0
LINE
  8
0
 10
-15.4465
 20
-17.3366
 11
-15.6289
 21
-17.3834
  0
LINE
  8
0
 10
-15.6289
 20
-17.3834
 11
-15.8158
 21
-17.407
  0
LINE
  8
0
 10
-15.8158
 20
-17.407
 11
-16.0042
 21
-17.407
  0
LINE
  8
0
 10
15.8158
 20
-17.407
 11
15.6289
 21
-17.3834
  0
LINE
  8
0
 10
15.6289
 20
-17.3834
 11
15.4465
 21
-17.3366
  0
LINE
  8
0
 10
15.4465
 20
-17.3366
 11
15.2713
 21
-17.2672
  0
LINE
  8
0
 10
15.2713
 20
-17.2672
 11
15.1062
 21
-17.1765
  0
LINE
  8
0
 10
15.1062
 20
-17.1765
 11
14.9539
 21
-17.0658
  0
LINE
  8
0
 10
14.9539
 20
-17.0658
 11
14.8165
 21
-16.9368
  0
LINE
  8
0
 10
14.8165
 20
-16.9368
 11
14.6965
 21
-16.7917
  0
LINE
  8
0
 10
14.6965
 20
-16.7917
 11
14.5955
 21
-16.6326
  0
LINE
  8
0
 10
14.5955
 20
-16.6326
 11
14.5153
 21
-16.4622
  0
LINE
  8
0
 10
14.5153
 20
-16.4622
 11
14.4571
 21
-16.283
  0
LINE
  8
0
 10
14.4571
 20
-16.283
 11
14.4218
 21
-16.098
  0
LINE
  8
0
 10
14.4218
 20
-16.098
 11
14.41
 21
-15.91
  0
LINE
  8
0
 10
14.41
 20
-15.91
 11
14.4218
 21
-15.722
  0
LINE
  8
0
 10
14.4218
 20
-15.722
 11
14.4571
 21
-15.537
  0
LINE
  8
0
 10
14.4571
 20
-15.537
 11
14.5153
 21
-15.3578
  0
LINE
  8
0
 10
14.5153
 20
-15.3578
 11
14.5955
 21
-15.1874
  0
LINE
  8
0
 10
14.5955
 20
-15.1874
 11
14.6965
 21
-15.0283
  0
LINE
  8
0
 10
14.6965
 20
-15.0283
 11
14.8165
 21
-14.8832
  0
LINE
  8
0
 10
14.8165
 20
-14.8832
 11
14.9539
 21
-14.7542
  0
LINE
  8
0
 10
14.9539
 20
-14.7542
 11
15.1062
 21
-14.6435
  0
LINE
  8
0
 10
15.1062
 20
-14.6435
 11
15.2713
 21
-14.5527
  0
LINE
  8
0
 10
15.2713
 20
-14.5527
 11
15.4465
 21
-14.4834
  0
LINE
  8
0
 10
15.4465
 20
-14.4834
 11
15.6289
 21
-14.4366
  0
LINE
  8
0
 10
15.6289
 20
-14.4366
 11
15.8158
 21
-14.4129
  0
LINE
  8
0
 10
15.8158
 20
-14.4129
 11
16.0042
 21
-14.4129
  0
LINE
  8
0
 10
16.0042
 20
-14.4129
 11
16.1911
 21
-14.4366
  0
LINE
  8
0
 10
16.1911
 20
-14.4366
 11
16.3735
 21
-14.4834
  0
LINE
  8
0
 10
16.3735
 20
-14.4834
 11
16.5487
 21
-14.5527
  0
LINE
  8
0
 10
16.5487
 20
-14.5527
 11
16.7137
 21
-14.6435
  0
LINE
  8
0
 10
16.7137
 20
-14.6435
 11
16.8661
 21
-14.7542
  0
LINE
  8
0
 10
16.8661
 20
-14.7542
 11
17.0034
 21
-14.8832
  0
LINE
  8
0
 10
17.0034
 20
-14.8832
 11
17.1235
 21
-15.0283
  0
LINE
  8
0
 10
17.1235
 20
-15.0283
 11
17.2245
 21
-15.1874
  0
LINE
  8
0
 10
17.2245
 20
-15.1874
 11
17.3047
 21
-15.3578
  0
LINE
  8
0
 10
17.3047
 20
-15.3578
 11
17.3629
 21
-15.537
  0
LINE
  8
0
 10
17.3629
 20
-15.537
 11
17.3982
 21
-15.722
  0
LINE
  8
0
 10
17.3982
 20
-15.722
 11
17.41
 21
-15.91
  0
LINE
  8
0
 10
17.41
 20
-15.91
 11
17.3982
 21
-16.098
  0
LINE
  8
0
 10
17.3982
 20
-16.098
 11
17.3629
 21
-16.283
  0
LINE
  8
0
 10
17.3629
 20
-16.283
 11
17.3047
 21
-16.4622
  0
LINE
  8
0
 10
17.3047
 20
-16.4622
 11
17.2245
 21
-16.6326
  0
LINE
  8
0
 10
17.2245
 20
-16.6326
 11
17.1235
 21
-16.7917
  0
LINE
  8
0
 10
17.1235
 20
-16.7917
 11
17.0034
 21
-16.9368
  0
LINE
  8
0
 10
17.0034
 20
-16.9368
 11
16.8661
 21
-17.0658
  0
LINE
  8
0
 10
16.8661
 20
-17.0658
 11
16.7137
 21
-17.1765
  0
LINE
  8
0
 10
16.7137
 20
-17.1765
 11
16.5487
 21
-17.2672
  0
LINE
  8
0
 10
16.5487
 20
-17.2672
 11
16.3735
 21
-17.3366
  0
LINE
  8
0
 10
16.3735
 20
-17.3366
 11
16.1911
 21
-17.3834
  0
LINE
  8
0
 10
16.1911
 20
-17.3834
 11
16.0042
 21
-17.407
  0
LINE
  8
0
 10
16.0042
 20
-17.407
 11
15.8158
 21
-17.407
  0
ENDSEC
  0
SECTION
  2
OBJECTS
  0
DICTIONARY
  0
ENDSEC
  0
EOF
