<?xml version="1.0" standalone="no"?>
<!DOCTYPE svg PUBLIC "-//W3C//DTD SVG 1.1//EN" "http://www.w3.org/Graphics/SVG/1.1/DTD/svg11.dtd">
<svg width="78mm" height="216mm" viewBox="-14 -202 78 216" xmlns="http://www.w3.org/2000/svg" version="1.1">
<title>OpenSCAD Model</title>
<path d="
M 2.34225,-176.721 L 3.8627,-177.112 L 5.32224,-177.69 L 6.69783,-178.446 L 7.96779,-179.369 L 9.11211,-180.443
 L 10.1127,-181.653 L 10.9538,-182.978 L 11.6222,-184.398 L 12.1073,-185.891 L 12.4014,-187.433 L 12.5,-189
 L 12.4014,-190.567 L 12.1073,-192.109 L 11.6222,-193.602 L 10.9538,-195.022 L 10.1127,-196.347 L 9.11211,-197.557
 L 7.96779,-198.631 L 6.69783,-199.554 L 5.32224,-200.31 L 3.8627,-200.888 L 2.34225,-201.279 L 0.784866,-201.475
 L -0.784866,-201.475 L -2.34225,-201.279 L -3.8627,-200.888 L -5.32224,-200.31 L -6.69783,-199.554 L -7.96779,-198.631
 L -9.11211,-197.557 L -10.1127,-196.347 L -10.9538,-195.022 L -11.6222,-193.602 L -12.1073,-192.109 L -12.4014,-190.567
 L -12.5,-189 L -12.4014,-187.433 L -12.1073,-185.891 L -11.6222,-184.398 L -10.9538,-182.978 L -10.1127,-181.653
 L -9.11211,-180.443 L -7.96779,-179.369 L -6.69783,-178.446 L -5.32224,-177.69 L -3.8627,-177.112 L -2.34225,-176.721
 L -0.784866,-176.525 L 0.784866,-176.525 z
M -0.113022,-194.704 L -0.33728,-194.732 L -0.556229,-194.788 L -0.766388,-194.871 L -0.964478,-194.98 L -1.14735,-195.113
 L -1.31213,-195.268 L -1.45622,-195.442 L -1.57735,-195.633 L -1.67358,-195.837 L -1.74344,-196.052 L -1.7858,-196.274
 L -1.79999,-196.5 L -1.7858,-196.726 L -1.74344,-196.948 L -1.67358,-197.163 L -1.57735,-197.367 L -1.45622,-197.558
 L -1.31213,-197.732 L -1.14735,-197.887 L -0.964478,-198.02 L -0.766388,-198.129 L -0.556229,-198.212 L -0.33728,-198.268
 L -0.113022,-198.296 L 0.113022,-198.296 L 0.33728,-198.268 L 0.556229,-198.212 L 0.766388,-198.129 L 0.964478,-198.02
 L 1.14735,-197.887 L 1.31213,-197.732 L 1.45622,-197.558 L 1.57735,-197.367 L 1.67358,-197.163 L 1.74344,-196.948
 L 1.7858,-196.726 L 1.79999,-196.5 L 1.7858,-196.274 L 1.74344,-196.052 L 1.67358,-195.837 L 1.57735,-195.633
 L 1.45622,-195.442 L 1.31213,-195.268 L 1.14735,-195.113 L 0.964478,-194.98 L 0.766388,-194.871 L 0.556229,-194.788
 L 0.33728,-194.732 L 0.113022,-194.704 z
M 5.2088,-192.806 L 5.02193,-192.83 L 4.83946,-192.876 L 4.66432,-192.946 L 4.49925,-193.036 L 4.34686,-193.147
 L 4.20953,-193.276 L 4.08946,-193.421 L 3.98853,-193.58 L 3.90833,-193.751 L 3.85011,-193.93 L 3.81482,-194.115
 L 3.80299,-194.303 L 3.81482,-194.491 L 3.85011,-194.676 L 3.90833,-194.855 L 3.98853,-195.026 L 4.08946,-195.185
 L 4.20953,-195.33 L 4.34686,-195.459 L 4.49925,-195.569 L 4.66432,-195.66 L 4.83946,-195.73 L 5.02193,-195.776
 L 5.2088,-195.8 L 5.39717,-195.8 L 5.58406,-195.776 L 5.76653,-195.73 L 5.94167,-195.66 L 6.10674,-195.569
 L 6.25912,-195.459 L 6.39644,-195.33 L 6.51653,-195.185 L 6.61745,-195.026 L 6.69766,-194.855 L 6.75587,-194.676
 L 6.79117,-194.491 L 6.80299,-194.303 L 6.79117,-194.115 L 6.75587,-193.93 L 6.69766,-193.751 L 6.61745,-193.58
 L 6.51653,-193.421 L 6.39644,-193.276 L 6.25912,-193.147 L 6.10674,-193.036 L 5.94167,-192.946 L 5.76653,-192.876
 L 5.58406,-192.83 L 5.39717,-192.806 z
M -5.39717,-192.806 L -5.58406,-192.83 L -5.76653,-192.876 L -5.94167,-192.946 L -6.10674,-193.036 L -6.25912,-193.147
 L -6.39644,-193.276 L -6.51653,-193.421 L -6.61745,-193.58 L -6.69766,-193.751 L -6.75587,-193.93 L -6.79117,-194.115
 L -6.80299,-194.303 L -6.79117,-194.491 L -6.75587,-194.676 L -6.69766,-194.855 L -6.61745,-195.026 L -6.51653,-195.185
 L -6.39644,-195.33 L -6.25912,-195.459 L -6.10674,-195.569 L -5.94167,-195.66 L -5.76653,-195.73 L -5.58406,-195.776
 L -5.39717,-195.8 L -5.2088,-195.8 L -5.02193,-195.776 L -4.83946,-195.73 L -4.66432,-195.66 L -4.49925,-195.569
 L -4.34686,-195.459 L -4.20953,-195.33 L -4.08946,-195.185 L -3.98853,-195.026 L -3.90833,-194.855 L -3.85011,-194.676
 L -3.81482,-194.491 L -3.80299,-194.303 L -3.81482,-194.115 L -3.85011,-193.93 L -3.90833,-193.751 L -3.98853,-193.58
 L -4.08946,-193.421 L -4.20953,-193.276 L -4.34686,-193.147 L -4.49925,-193.036 L -4.66432,-192.946 L -4.83946,-192.876
 L -5.02193,-192.83 L -5.2088,-192.806 z
M -0.18837,-186.006 L -0.562134,-186.053 L -0.927048,-186.147 L -1.27733,-186.286 L -1.60747,-186.467 L -1.91226,-186.688
 L -2.1869,-186.946 L -2.42705,-187.237 L -2.62891,-187.555 L -2.78932,-187.896 L -2.90575,-188.254 L -2.97633,-188.624
 L -3,-189 L -2.97633,-189.376 L -2.90575,-189.746 L -2.78932,-190.104 L -2.62891,-190.445 L -2.42705,-190.763
 L -2.1869,-191.054 L -1.91226,-191.312 L -1.60747,-191.533 L -1.27733,-191.714 L -0.927048,-191.853 L -0.562134,-191.947
 L -0.18837,-191.994 L 0.18837,-191.994 L 0.562134,-191.947 L 0.927048,-191.853 L 1.27733,-191.714 L 1.60747,-191.533
 L 1.91226,-191.312 L 2.1869,-191.054 L 2.42705,-190.763 L 2.62891,-190.445 L 2.78932,-190.104 L 2.90575,-189.746
 L 2.97633,-189.376 L 3,-189 L 2.97633,-188.624 L 2.90575,-188.254 L 2.78932,-187.896 L 2.62891,-187.555
 L 2.42705,-187.237 L 2.1869,-186.946 L 1.91226,-186.688 L 1.60747,-186.467 L 1.27733,-186.286 L 0.927048,-186.147
 L 0.562134,-186.053 L 0.18837,-186.006 z
M -7.61302,-187.204 L -7.83728,-187.232 L -8.05623,-187.288 L -8.26639,-187.371 L -8.46448,-187.48 L -8.64735,-187.613
 L -8.81213,-187.768 L -8.95622,-187.942 L -9.07735,-188.133 L -9.17358,-188.337 L -9.24344,-188.552 L -9.2858,-188.774
 L -9.29999,-189 L -9.2858,-189.226 L -9.24344,-189.448 L -9.17358,-189.663 L -9.07735,-189.867 L -8.95622,-190.058
 L -8.81213,-190.232 L -8.64735,-190.387 L -8.46448,-190.52 L -8.26639,-190.629 L -8.05623,-190.712 L -7.83728,-190.768
 L -7.61302,-190.796 L -7.38696,-190.796 L -7.1627,-190.768 L -6.94376,-190.712 L -6.7336,-190.629 L -6.53551,-190.52
 L -6.35263,-190.387 L -6.18785,-190.232 L -6.04376,-190.058 L -5.92264,-189.867 L -5.8264,-189.663 L -5.75655,-189.448
 L -5.71419,-189.226 L -5.7,-189 L -5.71419,-188.774 L -5.75655,-188.552 L -5.8264,-188.337 L -5.92264,-188.133
 L -6.04376,-187.942 L -6.18785,-187.768 L -6.35263,-187.613 L -6.53551,-187.48 L -6.7336,-187.371 L -6.94376,-187.288
 L -7.1627,-187.232 L -7.38696,-187.204 z
M 7.38696,-187.204 L 7.1627,-187.232 L 6.94376,-187.288 L 6.7336,-187.371 L 6.53551,-187.48 L 6.35263,-187.613
 L 6.18785,-187.768 L 6.04376,-187.942 L 5.92264,-188.133 L 5.8264,-188.337 L 5.75655,-188.552 L 5.71419,-188.774
 L 5.7,-189 L 5.71419,-189.226 L 5.75655,-189.448 L 5.8264,-189.663 L 5.92264,-189.867 L 6.04376,-190.058
 L 6.18785,-190.232 L 6.35263,-190.387 L 6.53551,-190.52 L 6.7336,-190.629 L 6.94376,-190.712 L 7.1627,-190.768
 L 7.38696,-190.796 L 7.61302,-190.796 L 7.83728,-190.768 L 8.05623,-190.712 L 8.26639,-190.629 L 8.46448,-190.52
 L 8.64735,-190.387 L 8.81213,-190.232 L 8.95622,-190.058 L 9.07735,-189.867 L 9.17358,-189.663 L 9.24344,-189.448
 L 9.2858,-189.226 L 9.29999,-189 L 9.2858,-188.774 L 9.24344,-188.552 L 9.17358,-188.337 L 9.07735,-188.133
 L 8.95622,-187.942 L 8.81213,-187.768 L 8.64735,-187.613 L 8.46448,-187.48 L 8.26639,-187.371 L 8.05623,-187.288
 L 7.83728,-187.232 L 7.61302,-187.204 z
M 5.2088,-182.2 L 5.02193,-182.224 L 4.83946,-182.27 L 4.66432,-182.34 L 4.49925,-182.431 L 4.34686,-182.541
 L 4.20953,-182.67 L 4.08946,-182.815 L 3.98853,-182.974 L 3.90833,-183.145 L 3.85011,-183.324 L 3.81482,-183.509
 L 3.80299,-183.697 L 3.81482,-183.885 L 3.85011,-184.07 L 3.90833,-184.249 L 3.98853,-184.42 L 4.08946,-184.579
 L 4.20953,-184.724 L 4.34686,-184.853 L 4.49925,-184.964 L 4.66432,-185.054 L 4.83946,-185.124 L 5.02193,-185.17
 L 5.2088,-185.194 L 5.39717,-185.194 L 5.58406,-185.17 L 5.76653,-185.124 L 5.94167,-185.054 L 6.10674,-184.964
 L 6.25912,-184.853 L 6.39644,-184.724 L 6.51653,-184.579 L 6.61745,-184.42 L 6.69766,-184.249 L 6.75587,-184.07
 L 6.79117,-183.885 L 6.80299,-183.697 L 6.79117,-183.509 L 6.75587,-183.324 L 6.69766,-183.145 L 6.61745,-182.974
 L 6.51653,-182.815 L 6.39644,-182.67 L 6.25912,-182.541 L 6.10674,-182.431 L 5.94167,-182.34 L 5.76653,-182.27
 L 5.58406,-182.224 L 5.39717,-182.2 z
M -5.39717,-182.2 L -5.58406,-182.224 L -5.76653,-182.27 L -5.94167,-182.34 L -6.10674,-182.431 L -6.25912,-182.541
 L -6.39644,-182.67 L -6.51653,-182.815 L -6.61745,-182.974 L -6.69766,-183.145 L -6.75587,-183.324 L -6.79117,-183.509
 L -6.80299,-183.697 L -6.79117,-183.885 L -6.75587,-184.07 L -6.69766,-184.249 L -6.61745,-184.42 L -6.51653,-184.579
 L -6.39644,-184.724 L -6.25912,-184.853 L -6.10674,-184.964 L -5.94167,-185.054 L -5.76653,-185.124 L -5.58406,-185.17
 L -5.39717,-185.194 L -5.2088,-185.194 L -5.02193,-185.17 L -4.83946,-185.124 L -4.66432,-185.054 L -4.49925,-184.964
 L -4.34686,-184.853 L -4.20953,-184.724 L -4.08946,-184.579 L -3.98853,-184.42 L -3.90833,-184.249 L -3.85011,-184.07
 L -3.81482,-183.885 L -3.80299,-183.697 L -3.81482,-183.509 L -3.85011,-183.324 L -3.90833,-183.145 L -3.98853,-182.974
 L -4.08946,-182.815 L -4.20953,-182.67 L -4.34686,-182.541 L -4.49925,-182.431 L -4.66432,-182.34 L -4.83946,-182.27
 L -5.02193,-182.224 L -5.2088,-182.2 z
M -0.113022,-179.704 L -0.33728,-179.732 L -0.556229,-179.788 L -0.766388,-179.871 L -0.964478,-179.98 L -1.14735,-180.113
 L -1.31213,-180.268 L -1.45622,-180.442 L -1.57735,-180.633 L -1.67358,-180.837 L -1.74344,-181.052 L -1.7858,-181.274
 L -1.79999,-181.5 L -1.7858,-181.726 L -1.74344,-181.948 L -1.67358,-182.163 L -1.57735,-182.367 L -1.45622,-182.558
 L -1.31213,-182.732 L -1.14735,-182.887 L -0.964478,-183.02 L -0.766388,-183.129 L -0.556229,-183.212 L -0.33728,-183.268
 L -0.113022,-183.296 L 0.113022,-183.296 L 0.33728,-183.268 L 0.556229,-183.212 L 0.766388,-183.129 L 0.964478,-183.02
 L 1.14735,-182.887 L 1.31213,-182.732 L 1.45622,-182.558 L 1.57735,-182.367 L 1.67358,-182.163 L 1.74344,-181.948
 L 1.7858,-181.726 L 1.79999,-181.5 L 1.7858,-181.274 L 1.74344,-181.052 L 1.67358,-180.837 L 1.57735,-180.633
 L 1.45622,-180.442 L 1.31213,-180.268 L 1.14735,-180.113 L 0.964478,-179.98 L 0.766388,-179.871 L 0.556229,-179.788
 L 0.33728,-179.732 L 0.113022,-179.704 z
M 52.3423,-176.721 L 53.8627,-177.112 L 55.3222,-177.69 L 56.6978,-178.446 L 57.9678,-179.369 L 59.1121,-180.443
 L 60.1127,-181.653 L 60.9538,-182.978 L 61.6222,-184.398 L 62.1073,-185.891 L 62.4014,-187.433 L 62.5,-189
 L 62.4014,-190.567 L 62.1073,-192.109 L 61.6222,-193.602 L 60.9538,-195.022 L 60.1127,-196.347 L 59.1121,-197.557
 L 57.9678,-198.631 L 56.6978,-199.554 L 55.3222,-200.31 L 53.8627,-200.888 L 52.3423,-201.279 L 50.7849,-201.475
 L 49.2151,-201.475 L 47.6577,-201.279 L 46.1373,-200.888 L 44.6777,-200.31 L 43.3022,-199.554 L 42.0322,-198.631
 L 40.8879,-197.557 L 39.8873,-196.347 L 39.0462,-195.022 L 38.3778,-193.602 L 37.8927,-192.109 L 37.5986,-190.567
 L 37.5,-189 L 37.5986,-187.433 L 37.8927,-185.891 L 38.3778,-184.398 L 39.0462,-182.978 L 39.8873,-181.653
 L 40.8879,-180.443 L 42.0322,-179.369 L 43.3022,-178.446 L 44.6777,-177.69 L 46.1373,-177.112 L 47.6577,-176.721
 L 49.2151,-176.525 L 50.7849,-176.525 z
M 49.887,-194.704 L 49.6627,-194.732 L 49.4438,-194.788 L 49.2336,-194.871 L 49.0355,-194.98 L 48.8526,-195.113
 L 48.6879,-195.268 L 48.5438,-195.442 L 48.4226,-195.633 L 48.3264,-195.837 L 48.2565,-196.052 L 48.2142,-196.274
 L 48.2,-196.5 L 48.2142,-196.726 L 48.2565,-196.948 L 48.3264,-197.163 L 48.4226,-197.367 L 48.5438,-197.558
 L 48.6879,-197.732 L 48.8526,-197.887 L 49.0355,-198.02 L 49.2336,-198.129 L 49.4438,-198.212 L 49.6627,-198.268
 L 49.887,-198.296 L 50.113,-198.296 L 50.3373,-198.268 L 50.5562,-198.212 L 50.7664,-198.129 L 50.9645,-198.02
 L 51.1474,-197.887 L 51.3121,-197.732 L 51.4562,-197.558 L 51.5773,-197.367 L 51.6736,-197.163 L 51.7434,-196.948
 L 51.7858,-196.726 L 51.8,-196.5 L 51.7858,-196.274 L 51.7434,-196.052 L 51.6736,-195.837 L 51.5773,-195.633
 L 51.4562,-195.442 L 51.3121,-195.268 L 51.1474,-195.113 L 50.9645,-194.98 L 50.7664,-194.871 L 50.5562,-194.788
 L 50.3373,-194.732 L 50.113,-194.704 z
M 55.2088,-192.806 L 55.0219,-192.83 L 54.8395,-192.876 L 54.6643,-192.946 L 54.4993,-193.036 L 54.3469,-193.147
 L 54.2095,-193.276 L 54.0895,-193.421 L 53.9885,-193.58 L 53.9083,-193.751 L 53.8501,-193.93 L 53.8148,-194.115
 L 53.803,-194.303 L 53.8148,-194.491 L 53.8501,-194.676 L 53.9083,-194.855 L 53.9885,-195.026 L 54.0895,-195.185
 L 54.2095,-195.33 L 54.3469,-195.459 L 54.4993,-195.569 L 54.6643,-195.66 L 54.8395,-195.73 L 55.0219,-195.776
 L 55.2088,-195.8 L 55.3972,-195.8 L 55.5841,-195.776 L 55.7665,-195.73 L 55.9417,-195.66 L 56.1067,-195.569
 L 56.2591,-195.459 L 56.3965,-195.33 L 56.5165,-195.185 L 56.6174,-195.026 L 56.6977,-194.855 L 56.7559,-194.676
 L 56.7912,-194.491 L 56.803,-194.303 L 56.7912,-194.115 L 56.7559,-193.93 L 56.6977,-193.751 L 56.6174,-193.58
 L 56.5165,-193.421 L 56.3965,-193.276 L 56.2591,-193.147 L 56.1067,-193.036 L 55.9417,-192.946 L 55.7665,-192.876
 L 55.5841,-192.83 L 55.3972,-192.806 z
M 44.6028,-192.806 L 44.4159,-192.83 L 44.2335,-192.876 L 44.0583,-192.946 L 43.8932,-193.036 L 43.7409,-193.147
 L 43.6035,-193.276 L 43.4835,-193.421 L 43.3825,-193.58 L 43.3023,-193.751 L 43.2441,-193.93 L 43.2088,-194.115
 L 43.197,-194.303 L 43.2088,-194.491 L 43.2441,-194.676 L 43.3023,-194.855 L 43.3825,-195.026 L 43.4835,-195.185
 L 43.6035,-195.33 L 43.7409,-195.459 L 43.8932,-195.569 L 44.0583,-195.66 L 44.2335,-195.73 L 44.4159,-195.776
 L 44.6028,-195.8 L 44.7912,-195.8 L 44.9781,-195.776 L 45.1605,-195.73 L 45.3357,-195.66 L 45.5007,-195.569
 L 45.6531,-195.459 L 45.7905,-195.33 L 45.9105,-195.185 L 46.0115,-195.026 L 46.0917,-194.855 L 46.1499,-194.676
 L 46.1852,-194.491 L 46.197,-194.303 L 46.1852,-194.115 L 46.1499,-193.93 L 46.0917,-193.751 L 46.0115,-193.58
 L 45.9105,-193.421 L 45.7905,-193.276 L 45.6531,-193.147 L 45.5007,-193.036 L 45.3357,-192.946 L 45.1605,-192.876
 L 44.9781,-192.83 L 44.7912,-192.806 z
M 49.8116,-186.006 L 49.4379,-186.053 L 49.0729,-186.147 L 48.7227,-186.286 L 48.3925,-186.467 L 48.0877,-186.688
 L 47.8131,-186.946 L 47.5729,-187.237 L 47.3711,-187.555 L 47.2107,-187.896 L 47.0942,-188.254 L 47.0237,-188.624
 L 47,-189 L 47.0237,-189.376 L 47.0942,-189.746 L 47.2107,-190.104 L 47.3711,-190.445 L 47.5729,-190.763
 L 47.8131,-191.054 L 48.0877,-191.312 L 48.3925,-191.533 L 48.7227,-191.714 L 49.0729,-191.853 L 49.4379,-191.947
 L 49.8116,-191.994 L 50.1884,-191.994 L 50.5621,-191.947 L 50.927,-191.853 L 51.2773,-191.714 L 51.6075,-191.533
 L 51.9123,-191.312 L 52.1869,-191.054 L 52.427,-190.763 L 52.6289,-190.445 L 52.7893,-190.104 L 52.9057,-189.746
 L 52.9763,-189.376 L 53,-189 L 52.9763,-188.624 L 52.9057,-188.254 L 52.7893,-187.896 L 52.6289,-187.555
 L 52.427,-187.237 L 52.1869,-186.946 L 51.9123,-186.688 L 51.6075,-186.467 L 51.2773,-186.286 L 50.927,-186.147
 L 50.5621,-186.053 L 50.1884,-186.006 z
M 57.387,-187.204 L 57.1627,-187.232 L 56.9438,-187.288 L 56.7336,-187.371 L 56.5355,-187.48 L 56.3526,-187.613
 L 56.1879,-187.768 L 56.0438,-187.942 L 55.9226,-188.133 L 55.8264,-188.337 L 55.7565,-188.552 L 55.7142,-188.774
 L 55.7,-189 L 55.7142,-189.226 L 55.7565,-189.448 L 55.8264,-189.663 L 55.9226,-189.867 L 56.0438,-190.058
 L 56.1879,-190.232 L 56.3526,-190.387 L 56.5355,-190.52 L 56.7336,-190.629 L 56.9438,-190.712 L 57.1627,-190.768
 L 57.387,-190.796 L 57.613,-190.796 L 57.8373,-190.768 L 58.0562,-190.712 L 58.2664,-190.629 L 58.4645,-190.52
 L 58.6474,-190.387 L 58.8121,-190.232 L 58.9562,-190.058 L 59.0773,-189.867 L 59.1736,-189.663 L 59.2434,-189.448
 L 59.2858,-189.226 L 59.3,-189 L 59.2858,-188.774 L 59.2434,-188.552 L 59.1736,-188.337 L 59.0773,-188.133
 L 58.9562,-187.942 L 58.8121,-187.768 L 58.6474,-187.613 L 58.4645,-187.48 L 58.2664,-187.371 L 58.0562,-187.288
 L 57.8373,-187.232 L 57.613,-187.204 z
M 42.387,-187.204 L 42.1627,-187.232 L 41.9438,-187.288 L 41.7336,-187.371 L 41.5355,-187.48 L 41.3526,-187.613
 L 41.1879,-187.768 L 41.0438,-187.942 L 40.9226,-188.133 L 40.8264,-188.337 L 40.7565,-188.552 L 40.7142,-188.774
 L 40.7,-189 L 40.7142,-189.226 L 40.7565,-189.448 L 40.8264,-189.663 L 40.9226,-189.867 L 41.0438,-190.058
 L 41.1879,-190.232 L 41.3526,-190.387 L 41.5355,-190.52 L 41.7336,-190.629 L 41.9438,-190.712 L 42.1627,-190.768
 L 42.387,-190.796 L 42.613,-190.796 L 42.8373,-190.768 L 43.0562,-190.712 L 43.2664,-190.629 L 43.4645,-190.52
 L 43.6474,-190.387 L 43.8121,-190.232 L 43.9562,-190.058 L 44.0773,-189.867 L 44.1736,-189.663 L 44.2434,-189.448
 L 44.2858,-189.226 L 44.3,-189 L 44.2858,-188.774 L 44.2434,-188.552 L 44.1736,-188.337 L 44.0773,-188.133
 L 43.9562,-187.942 L 43.8121,-187.768 L 43.6474,-187.613 L 43.4645,-187.48 L 43.2664,-187.371 L 43.0562,-187.288
 L 42.8373,-187.232 L 42.613,-187.204 z
M 55.2088,-182.2 L 55.0219,-182.224 L 54.8395,-182.27 L 54.6643,-182.34 L 54.4993,-182.431 L 54.3469,-182.541
 L 54.2095,-182.67 L 54.0895,-182.815 L 53.9885,-182.974 L 53.9083,-183.145 L 53.8501,-183.324 L 53.8148,-183.509
 L 53.803,-183.697 L 53.8148,-183.885 L 53.8501,-184.07 L 53.9083,-184.249 L 53.9885,-184.42 L 54.0895,-184.579
 L 54.2095,-184.724 L 54.3469,-184.853 L 54.4993,-184.964 L 54.6643,-185.054 L 54.8395,-185.124 L 55.0219,-185.17
 L 55.2088,-185.194 L 55.3972,-185.194 L 55.5841,-185.17 L 55.7665,-185.124 L 55.9417,-185.054 L 56.1067,-184.964
 L 56.2591,-184.853 L 56.3965,-184.724 L 56.5165,-184.579 L 56.6174,-184.42 L 56.6977,-184.249 L 56.7559,-184.07
 L 56.7912,-183.885 L 56.803,-183.697 L 56.7912,-183.509 L 56.7559,-183.324 L 56.6977,-183.145 L 56.6174,-182.974
 L 56.5165,-182.815 L 56.3965,-182.67 L 56.2591,-182.541 L 56.1067,-182.431 L 55.9417,-182.34 L 55.7665,-182.27
 L 55.5841,-182.224 L 55.3972,-182.2 z
M 44.6028,-182.2 L 44.4159,-182.224 L 44.2335,-182.27 L 44.0583,-182.34 L 43.8932,-182.431 L 43.7409,-182.541
 L 43.6035,-182.67 L 43.4835,-182.815 L 43.3825,-182.974 L 43.3023,-183.145 L 43.2441,-183.324 L 43.2088,-183.509
 L 43.197,-183.697 L 43.2088,-183.885 L 43.2441,-184.07 L 43.3023,-184.249 L 43.3825,-184.42 L 43.4835,-184.579
 L 43.6035,-184.724 L 43.7409,-184.853 L 43.8932,-184.964 L 44.0583,-185.054 L 44.2335,-185.124 L 44.4159,-185.17
 L 44.6028,-185.194 L 44.7912,-185.194 L 44.9781,-185.17 L 45.1605,-185.124 L 45.3357,-185.054 L 45.5007,-184.964
 L 45.6531,-184.853 L 45.7905,-184.724 L 45.9105,-184.579 L 46.0115,-184.42 L 46.0917,-184.249 L 46.1499,-184.07
 L 46.1852,-183.885 L 46.197,-183.697 L 46.1852,-183.509 L 46.1499,-183.324 L 46.0917,-183.145 L 46.0115,-182.974
 L 45.9105,-182.815 L 45.7905,-182.67 L 45.6531,-182.541 L 45.5007,-182.431 L 45.3357,-182.34 L 45.1605,-182.27
 L 44.9781,-182.224 L 44.7912,-182.2 z
M 49.887,-179.704 L 49.6627,-179.732 L 49.4438,-179.788 L 49.2336,-179.871 L 49.0355,-179.98 L 48.8526,-180.113
 L 48.6879,-180.268 L 48.5438,-180.442 L 48.4226,-180.633 L 48.3264,-180.837 L 48.2565,-181.052 L 48.2142,-181.274
 L 48.2,-181.5 L 48.2142,-181.726 L 48.2565,-181.948 L 48.3264,-182.163 L 48.4226,-182.367 L 48.5438,-182.558
 L 48.6879,-182.732 L 48.8526,-182.887 L 49.0355,-183.02 L 49.2336,-183.129 L 49.4438,-183.212 L 49.6627,-183.268
 L 49.887,-183.296 L 50.113,-183.296 L 50.3373,-183.268 L 50.5562,-183.212 L 50.7664,-183.129 L 50.9645,-183.02
 L 51.1474,-182.887 L 51.3121,-182.732 L 51.4562,-182.558 L 51.5773,-182.367 L 51.6736,-182.163 L 51.7434,-181.948
 L 51.7858,-181.726 L 51.8,-181.5 L 51.7858,-181.274 L 51.7434,-181.052 L 51.6736,-180.837 L 51.5773,-180.633
 L 51.4562,-180.442 L 51.3121,-180.268 L 51.1474,-180.113 L 50.9645,-179.98 L 50.7664,-179.871 L 50.5562,-179.788
 L 50.3373,-179.732 L 50.113,-179.704 z
M 2.57649,13.5064 L 4.24898,13.077 L 5.85446,12.4414 L 7.36761,11.6095 L 8.76457,10.5945 L 10.0233,9.41252
 L 11.124,8.08205 L 12.0492,6.6241 L 12.7844,5.06171 L 13.318,3.41948 L 13.6416,1.72333 L 13.75,-0
 L 13.6416,-1.72333 L 13.318,-3.41948 L 12.7844,-5.06171 L 12.0492,-6.6241 L 11.124,-8.08205 L 10.0233,-9.41252
 L 8.76457,-10.5945 L 7.36761,-11.6095 L 5.85446,-12.4414 L 4.24898,-13.077 L 2.57649,-13.5064 L 0.863358,-13.7229
 L -0.863358,-13.7229 L -2.57649,-13.5064 L -4.24898,-13.077 L -5.85446,-12.4414 L -7.36761,-11.6095 L -8.76457,-10.5945
 L -10.0233,-9.41252 L -11.124,-8.08205 L -12.0492,-6.6241 L -12.7844,-5.06171 L -13.318,-3.41948 L -13.6416,-1.72333
 L -13.75,-0 L -13.6416,1.72333 L -13.318,3.41948 L -12.7844,5.06171 L -12.0492,6.6241 L -11.124,8.08205
 L -10.0233,9.41252 L -8.76457,10.5945 L -7.36761,11.6095 L -5.85446,12.4414 L -4.24898,13.077 L -2.57649,13.5064
 L -0.863358,13.7229 L 0.863358,13.7229 z
M -1.58675,-4.75168 L -3.17349,-7.5 L -1.58675,-10.2483 L 1.58675,-10.2483 L 3.17349,-7.5 L 1.58675,-4.75168
 z
M 5.2088,-3.80595 L 5.02193,-3.82956 L 4.83946,-3.8764 L 4.66432,-3.94576 L 4.49925,-4.0365 L 4.34686,-4.14722
 L 4.20953,-4.27617 L 4.08946,-4.42131 L 3.98853,-4.58037 L 3.90833,-4.75081 L 3.85011,-4.92996 L 3.81482,-5.11499
 L 3.80299,-5.30299 L 3.81482,-5.491 L 3.85011,-5.67603 L 3.90833,-5.85518 L 3.98853,-6.02562 L 4.08946,-6.18468
 L 4.20953,-6.32982 L 4.34686,-6.45876 L 4.49925,-6.56949 L 4.66432,-6.66023 L 4.83946,-6.72958 L 5.02193,-6.77643
 L 5.2088,-6.80003 L 5.39717,-6.80003 L 5.58406,-6.77643 L 5.76653,-6.72958 L 5.94167,-6.66023 L 6.10674,-6.56949
 L 6.25912,-6.45876 L 6.39644,-6.32982 L 6.51653,-6.18468 L 6.61745,-6.02562 L 6.69766,-5.85518 L 6.75587,-5.67603
 L 6.79117,-5.491 L 6.80299,-5.30299 L 6.79117,-5.11499 L 6.75587,-4.92996 L 6.69766,-4.75081 L 6.61745,-4.58037
 L 6.51653,-4.42131 L 6.39644,-4.27617 L 6.25912,-4.14722 L 6.10674,-4.0365 L 5.94167,-3.94576 L 5.76653,-3.8764
 L 5.58406,-3.82956 L 5.39717,-3.80595 z
M -5.39717,-3.80595 L -5.58406,-3.82956 L -5.76653,-3.8764 L -5.94167,-3.94576 L -6.10674,-4.0365 L -6.25912,-4.14722
 L -6.39644,-4.27617 L -6.51653,-4.42131 L -6.61745,-4.58037 L -6.69766,-4.75081 L -6.75587,-4.92996 L -6.79117,-5.11499
 L -6.80299,-5.30299 L -6.79117,-5.491 L -6.75587,-5.67603 L -6.69766,-5.85518 L -6.61745,-6.02562 L -6.51653,-6.18468
 L -6.39644,-6.32982 L -6.25912,-6.45876 L -6.10674,-6.56949 L -5.94167,-6.66023 L -5.76653,-6.72958 L -5.58406,-6.77643
 L -5.39717,-6.80003 L -5.2088,-6.80003 L -5.02193,-6.77643 L -4.83946,-6.72958 L -4.66432,-6.66023 L -4.49925,-6.56949
 L -4.34686,-6.45876 L -4.20953,-6.32982 L -4.08946,-6.18468 L -3.98853,-6.02562 L -3.90833,-5.85518 L -3.85011,-5.67603
 L -3.81482,-5.491 L -3.80299,-5.30299 L -3.81482,-5.11499 L -3.85011,-4.92996 L -3.90833,-4.75081 L -3.98853,-4.58037
 L -4.08946,-4.42131 L -4.20953,-4.27617 L -4.34686,-4.14722 L -4.49925,-4.0365 L -4.66432,-3.94576 L -4.83946,-3.8764
 L -5.02193,-3.82956 L -5.2088,-3.80595 z
M -0.18837,2.99408 L -0.562134,2.94685 L -0.927048,2.85316 L -1.27733,2.71448 L -1.60747,2.53297 L -1.91226,2.31154
 L -2.1869,2.05363 L -2.42705,1.76335 L -2.62891,1.44525 L -2.78932,1.10437 L -2.90575,0.746063 L -2.97633,0.375992
 L -3,-0 L -2.97633,-0.375992 L -2.90575,-0.746063 L -2.78932,-1.10437 L -2.62891,-1.44525 L -2.42705,-1.76335
 L -2.1869,-2.05363 L -1.91226,-2.31154 L -1.60747,-2.53297 L -1.27733,-2.71448 L -0.927048,-2.85316 L -0.562134,-2.94685
 L -0.18837,-2.99408 L 0.18837,-2.99408 L 0.562134,-2.94685 L 0.927048,-2.85316 L 1.27733,-2.71448 L 1.60747,-2.53297
 L 1.91226,-2.31154 L 2.1869,-2.05363 L 2.42705,-1.76335 L 2.62891,-1.44525 L 2.78932,-1.10437 L 2.90575,-0.746063
 L 2.97633,-0.375992 L 3,-0 L 2.97633,0.375992 L 2.90575,0.746063 L 2.78932,1.10437 L 2.62891,1.44525
 L 2.42705,1.76335 L 2.1869,2.05363 L 1.91226,2.31154 L 1.60747,2.53297 L 1.27733,2.71448 L 0.927048,2.85316
 L 0.562134,2.94685 L 0.18837,2.99408 z
M 7.38696,1.79645 L 7.1627,1.76811 L 6.94376,1.7119 L 6.7336,1.62868 L 6.53551,1.51978 L 6.35263,1.38692
 L 6.18785,1.23218 L 6.04376,1.058 L 5.92264,0.867142 L 5.8264,0.662613 L 5.75655,0.447632 L 5.71419,0.225586
 L 5.7,-0 L 5.71419,-0.225586 L 5.75655,-0.447632 L 5.8264,-0.662613 L 5.92264,-0.867142 L 6.04376,-1.058
 L 6.18785,-1.23218 L 6.35263,-1.38692 L 6.53551,-1.51978 L 6.7336,-1.62868 L 6.94376,-1.7119 L 7.1627,-1.76811
 L 7.38696,-1.79645 L 7.61302,-1.79645 L 7.83728,-1.76811 L 8.05623,-1.7119 L 8.26639,-1.62868 L 8.46448,-1.51978
 L 8.64735,-1.38692 L 8.81213,-1.23218 L 8.95622,-1.058 L 9.07735,-0.867142 L 9.17358,-0.662613 L 9.24344,-0.447632
 L 9.2858,-0.225586 L 9.29999,-0 L 9.2858,0.225586 L 9.24344,0.447632 L 9.17358,0.662613 L 9.07735,0.867142
 L 8.95622,1.058 L 8.81213,1.23218 L 8.64735,1.38692 L 8.46448,1.51978 L 8.26639,1.62868 L 8.05623,1.7119
 L 7.83728,1.76811 L 7.61302,1.79645 z
M -7.61302,1.79645 L -7.83728,1.76811 L -8.05623,1.7119 L -8.26639,1.62868 L -8.46448,1.51978 L -8.64735,1.38692
 L -8.81213,1.23218 L -8.95622,1.058 L -9.07735,0.867142 L -9.17358,0.662613 L -9.24344,0.447632 L -9.2858,0.225586
 L -9.29999,-0 L -9.2858,-0.225586 L -9.24344,-0.447632 L -9.17358,-0.662613 L -9.07735,-0.867142 L -8.95622,-1.058
 L -8.81213,-1.23218 L -8.64735,-1.38692 L -8.46448,-1.51978 L -8.26639,-1.62868 L -8.05623,-1.7119 L -7.83728,-1.76811
 L -7.61302,-1.79645 L -7.38696,-1.79645 L -7.1627,-1.76811 L -6.94376,-1.7119 L -6.7336,-1.62868 L -6.53551,-1.51978
 L -6.35263,-1.38692 L -6.18785,-1.23218 L -6.04376,-1.058 L -5.92264,-0.867142 L -5.8264,-0.662613 L -5.75655,-0.447632
 L -5.71419,-0.225586 L -5.7,-0 L -5.71419,0.225586 L -5.75655,0.447632 L -5.8264,0.662613 L -5.92264,0.867142
 L -6.04376,1.058 L -6.18785,1.23218 L -6.35263,1.38692 L -6.53551,1.51978 L -6.7336,1.62868 L -6.94376,1.7119
 L -7.1627,1.76811 L -7.38696,1.79645 z
M 5.2088,6.80003 L 5.02193,6.77643 L 4.83946,6.72958 L 4.66432,6.66023 L 4.49925,6.56949 L 4.34686,6.45876
 L 4.20953,6.32982 L 4.08946,6.18468 L 3.98853,6.02562 L 3.90833,5.85518 L 3.85011,5.67603 L 3.81482,5.491
 L 3.80299,5.30299 L 3.81482,5.11499 L 3.85011,4.92996 L 3.90833,4.75081 L 3.98853,4.58037 L 4.08946,4.42131
 L 4.20953,4.27617 L 4.34686,4.14722 L 4.49925,4.0365 L 4.66432,3.94576 L 4.83946,3.8764 L 5.02193,3.82956
 L 5.2088,3.80595 L 5.39717,3.80595 L 5.58406,3.82956 L 5.76653,3.8764 L 5.94167,3.94576 L 6.10674,4.0365
 L 6.25912,4.14722 L 6.39644,4.27617 L 6.51653,4.42131 L 6.61745,4.58037 L 6.69766,4.75081 L 6.75587,4.92996
 L 6.79117,5.11499 L 6.80299,5.30299 L 6.79117,5.491 L 6.75587,5.67603 L 6.69766,5.85518 L 6.61745,6.02562
 L 6.51653,6.18468 L 6.39644,6.32982 L 6.25912,6.45876 L 6.10674,6.56949 L 5.94167,6.66023 L 5.76653,6.72958
 L 5.58406,6.77643 L 5.39717,6.80003 z
M -5.39717,6.80003 L -5.58406,6.77643 L -5.76653,6.72958 L -5.94167,6.66023 L -6.10674,6.56949 L -6.25912,6.45876
 L -6.39644,6.32982 L -6.51653,6.18468 L -6.61745,6.02562 L -6.69766,5.85518 L -6.75587,5.67603 L -6.79117,5.491
 L -6.80299,5.30299 L -6.79117,5.11499 L -6.75587,4.92996 L -6.69766,4.75081 L -6.61745,4.58037 L -6.51653,4.42131
 L -6.39644,4.27617 L -6.25912,4.14722 L -6.10674,4.0365 L -5.94167,3.94576 L -5.76653,3.8764 L -5.58406,3.82956
 L -5.39717,3.80595 L -5.2088,3.80595 L -5.02193,3.82956 L -4.83946,3.8764 L -4.66432,3.94576 L -4.49925,4.0365
 L -4.34686,4.14722 L -4.20953,4.27617 L -4.08946,4.42131 L -3.98853,4.58037 L -3.90833,4.75081 L -3.85011,4.92996
 L -3.81482,5.11499 L -3.80299,5.30299 L -3.81482,5.491 L -3.85011,5.67603 L -3.90833,5.85518 L -3.98853,6.02562
 L -4.08946,6.18468 L -4.20953,6.32982 L -4.34686,6.45876 L -4.49925,6.56949 L -4.66432,6.66023 L -4.83946,6.72958
 L -5.02193,6.77643 L -5.2088,6.80003 z
M -1.58675,10.2483 L -3.17349,7.5 L -1.58675,4.75168 L 1.58675,4.75168 L 3.17349,7.5 L 1.58675,10.2483
 z
M 52.5765,13.5064 L 54.249,13.077 L 55.8545,12.4414 L 57.3676,11.6095 L 58.7646,10.5945 L 60.0233,9.41252
 L 61.124,8.08205 L 62.0492,6.6241 L 62.7844,5.06171 L 63.318,3.41948 L 63.6416,1.72333 L 63.75,-0
 L 63.6416,-1.72333 L 63.318,-3.41948 L 62.7844,-5.06171 L 62.0492,-6.6241 L 61.124,-8.08205 L 60.0233,-9.41252
 L 58.7646,-10.5945 L 57.3676,-11.6095 L 55.8545,-12.4414 L 54.249,-13.077 L 52.5765,-13.5064 L 50.8634,-13.7229
 L 49.1366,-13.7229 L 47.4235,-13.5064 L 45.751,-13.077 L 44.1455,-12.4414 L 42.6324,-11.6095 L 41.2354,-10.5945
 L 39.9767,-9.41252 L 38.876,-8.08205 L 37.9508,-6.6241 L 37.2156,-5.06171 L 36.682,-3.41948 L 36.3584,-1.72333
 L 36.25,-0 L 36.3584,1.72333 L 36.682,3.41948 L 37.2156,5.06171 L 37.9508,6.6241 L 38.876,8.08205
 L 39.9767,9.41252 L 41.2354,10.5945 L 42.6324,11.6095 L 44.1455,12.4414 L 45.751,13.077 L 47.4235,13.5064
 L 49.1366,13.7229 L 50.8634,13.7229 z
M 49.887,-5.70355 L 49.6627,-5.73187 L 49.4438,-5.78809 L 49.2336,-5.87131 L 49.0355,-5.98021 L 48.8526,-6.11307
 L 48.6879,-6.26781 L 48.5438,-6.44199 L 48.4226,-6.63284 L 48.3264,-6.83737 L 48.2565,-7.05235 L 48.2142,-7.2744
 L 48.2,-7.5 L 48.2142,-7.72559 L 48.2565,-7.94763 L 48.3264,-8.16261 L 48.4226,-8.36714 L 48.5438,-8.558
 L 48.6879,-8.73218 L 48.8526,-8.88692 L 49.0355,-9.01978 L 49.2336,-9.12868 L 49.4438,-9.2119 L 49.6627,-9.26811
 L 49.887,-9.29645 L 50.113,-9.29645 L 50.3373,-9.26811 L 50.5562,-9.2119 L 50.7664,-9.12868 L 50.9645,-9.01978
 L 51.1474,-8.88692 L 51.3121,-8.73218 L 51.4562,-8.558 L 51.5773,-8.36714 L 51.6736,-8.16261 L 51.7434,-7.94763
 L 51.7858,-7.72559 L 51.8,-7.5 L 51.7858,-7.2744 L 51.7434,-7.05235 L 51.6736,-6.83737 L 51.5773,-6.63284
 L 51.4562,-6.44199 L 51.3121,-6.26781 L 51.1474,-6.11307 L 50.9645,-5.98021 L 50.7664,-5.87131 L 50.5562,-5.78809
 L 50.3373,-5.73187 L 50.113,-5.70355 z
M 44.6028,-3.80595 L 44.4159,-3.82956 L 44.2335,-3.8764 L 44.0583,-3.94576 L 43.8932,-4.0365 L 43.7409,-4.14722
 L 43.6035,-4.27617 L 43.4835,-4.42131 L 43.3825,-4.58037 L 43.3023,-4.75081 L 43.2441,-4.92996 L 43.2088,-5.11499
 L 43.197,-5.30299 L 43.2088,-5.491 L 43.2441,-5.67603 L 43.3023,-5.85518 L 43.3825,-6.02562 L 43.4835,-6.18468
 L 43.6035,-6.32982 L 43.7409,-6.45876 L 43.8932,-6.56949 L 44.0583,-6.66023 L 44.2335,-6.72958 L 44.4159,-6.77643
 L 44.6028,-6.80003 L 44.7912,-6.80003 L 44.9781,-6.77643 L 45.1605,-6.72958 L 45.3357,-6.66023 L 45.5007,-6.56949
 L 45.6531,-6.45876 L 45.7905,-6.32982 L 45.9105,-6.18468 L 46.0115,-6.02562 L 46.0917,-5.85518 L 46.1499,-5.67603
 L 46.1852,-5.491 L 46.197,-5.30299 L 46.1852,-5.11499 L 46.1499,-4.92996 L 46.0917,-4.75081 L 46.0115,-4.58037
 L 45.9105,-4.42131 L 45.7905,-4.27617 L 45.6531,-4.14722 L 45.5007,-4.0365 L 45.3357,-3.94576 L 45.1605,-3.8764
 L 44.9781,-3.82956 L 44.7912,-3.80595 z
M 55.2088,-3.80595 L 55.0219,-3.82956 L 54.8395,-3.8764 L 54.6643,-3.94576 L 54.4993,-4.0365 L 54.3469,-4.14722
 L 54.2095,-4.27617 L 54.0895,-4.42131 L 53.9885,-4.58037 L 53.9083,-4.75081 L 53.8501,-4.92996 L 53.8148,-5.11499
 L 53.803,-5.30299 L 53.8148,-5.491 L 53.8501,-5.67603 L 53.9083,-5.85518 L 53.9885,-6.02562 L 54.0895,-6.18468
 L 54.2095,-6.32982 L 54.3469,-6.45876 L 54.4993,-6.56949 L 54.6643,-6.66023 L 54.8395,-6.72958 L 55.0219,-6.77643
 L 55.2088,-6.80003 L 55.3972,-6.80003 L 55.5841,-6.77643 L 55.7665,-6.72958 L 55.9417,-6.66023 L 56.1067,-6.56949
 L 56.2591,-6.45876 L 56.3965,-6.32982 L 56.5165,-6.18468 L 56.6174,-6.02562 L 56.6977,-5.85518 L 56.7559,-5.67603
 L 56.7912,-5.491 L 56.803,-5.30299 L 56.7912,-5.11499 L 56.7559,-4.92996 L 56.6977,-4.75081 L 56.6174,-4.58037
 L 56.5165,-4.42131 L 56.3965,-4.27617 L 56.2591,-4.14722 L 56.1067,-4.0365 L 55.9417,-3.94576 L 55.7665,-3.8764
 L 55.5841,-3.82956 L 55.3972,-3.80595 z
M 49.8116,2.99408 L 49.4379,2.94685 L 49.0729,2.85316 L 48.7227,2.71448 L 48.3925,2.53297 L 48.0877,2.31154
 L 47.8131,2.05363 L 47.5729,1.76335 L 47.3711,1.44525 L 47.2107,1.10437 L 47.0942,0.746063 L 47.0237,0.375992
 L 47,-0 L 47.0237,-0.375992 L 47.0942,-0.746063 L 47.2107,-1.10437 L 47.3711,-1.44525 L 47.5729,-1.76335
 L 47.8131,-2.05363 L 48.0877,-2.31154 L 48.3925,-2.53297 L 48.7227,-2.71448 L 49.0729,-2.85316 L 49.4379,-2.94685
 L 49.8116,-2.99408 L 50.1884,-2.99408 L 50.5621,-2.94685 L 50.927,-2.85316 L 51.2773,-2.71448 L 51.6075,-2.53297
 L 51.9123,-2.31154 L 52.1869,-2.05363 L 52.427,-1.76335 L 52.6289,-1.44525 L 52.7893,-1.10437 L 52.9057,-0.746063
 L 52.9763,-0.375992 L 53,-0 L 52.9763,0.375992 L 52.9057,0.746063 L 52.7893,1.10437 L 52.6289,1.44525
 L 52.427,1.76335 L 52.1869,2.05363 L 51.9123,2.31154 L 51.6075,2.53297 L 51.2773,2.71448 L 50.927,2.85316
 L 50.5621,2.94685 L 50.1884,2.99408 z
M 55.9133,2.74832 L 54.3265,-0 L 55.9133,-2.74832 L 59.0867,-2.74832 L 60.6735,-0 L 59.0867,2.74832
 z
M 40.9133,2.74832 L 39.3265,-0 L 40.9133,-2.74832 L 44.0867,-2.74832 L 45.6735,-0 L 44.0867,2.74832
 z
M 44.6028,6.80003 L 44.4159,6.77643 L 44.2335,6.72958 L 44.0583,6.66023 L 43.8932,6.56949 L 43.7409,6.45876
 L 43.6035,6.32982 L 43.4835,6.18468 L 43.3825,6.02562 L 43.3023,5.85518 L 43.2441,5.67603 L 43.2088,5.491
 L 43.197,5.30299 L 43.2088,5.11499 L 43.2441,4.92996 L 43.3023,4.75081 L 43.3825,4.58037 L 43.4835,4.42131
 L 43.6035,4.27617 L 43.7409,4.14722 L 43.8932,4.0365 L 44.0583,3.94576 L 44.2335,3.8764 L 44.4159,3.82956
 L 44.6028,3.80595 L 44.7912,3.80595 L 44.9781,3.82956 L 45.1605,3.8764 L 45.3357,3.94576 L 45.5007,4.0365
 L 45.6531,4.14722 L 45.7905,4.27617 L 45.9105,4.42131 L 46.0115,4.58037 L 46.0917,4.75081 L 46.1499,4.92996
 L 46.1852,5.11499 L 46.197,5.30299 L 46.1852,5.491 L 46.1499,5.67603 L 46.0917,5.85518 L 46.0115,6.02562
 L 45.9105,6.18468 L 45.7905,6.32982 L 45.6531,6.45876 L 45.5007,6.56949 L 45.3357,6.66023 L 45.1605,6.72958
 L 44.9781,6.77643 L 44.7912,6.80003 z
M 55.2088,6.80003 L 55.0219,6.77643 L 54.8395,6.72958 L 54.6643,6.66023 L 54.4993,6.56949 L 54.3469,6.45876
 L 54.2095,6.32982 L 54.0895,6.18468 L 53.9885,6.02562 L 53.9083,5.85518 L 53.8501,5.67603 L 53.8148,5.491
 L 53.803,5.30299 L 53.8148,5.11499 L 53.8501,4.92996 L 53.9083,4.75081 L 53.9885,4.58037 L 54.0895,4.42131
 L 54.2095,4.27617 L 54.3469,4.14722 L 54.4993,4.0365 L 54.6643,3.94576 L 54.8395,3.8764 L 55.0219,3.82956
 L 55.2088,3.80595 L 55.3972,3.80595 L 55.5841,3.82956 L 55.7665,3.8764 L 55.9417,3.94576 L 56.1067,4.0365
 L 56.2591,4.14722 L 56.3965,4.27617 L 56.5165,4.42131 L 56.6174,4.58037 L 56.6977,4.75081 L 56.7559,4.92996
 L 56.7912,5.11499 L 56.803,5.30299 L 56.7912,5.491 L 56.7559,5.67603 L 56.6977,5.85518 L 56.6174,6.02562
 L 56.5165,6.18468 L 56.3965,6.32982 L 56.2591,6.45876 L 56.1067,6.56949 L 55.9417,6.66023 L 55.7665,6.72958
 L 55.5841,6.77643 L 55.3972,6.80003 z
M 49.887,9.29645 L 49.6627,9.26811 L 49.4438,9.2119 L 49.2336,9.12868 L 49.0355,9.01978 L 48.8526,8.88692
 L 48.6879,8.73218 L 48.5438,8.558 L 48.4226,8.36714 L 48.3264,8.16261 L 48.2565,7.94763 L 48.2142,7.72559
 L 48.2,7.5 L 48.2142,7.2744 L 48.2565,7.05235 L 48.3264,6.83737 L 48.4226,6.63284 L 48.5438,6.44199
 L 48.6879,6.26781 L 48.8526,6.11307 L 49.0355,5.98021 L 49.2336,5.87131 L 49.4438,5.78809 L 49.6627,5.73187
 L 49.887,5.70355 L 50.113,5.70355 L 50.3373,5.73187 L 50.5562,5.78809 L 50.7664,5.87131 L 50.9645,5.98021
 L 51.1474,6.11307 L 51.3121,6.26781 L 51.4562,6.44199 L 51.5773,6.63284 L 51.6736,6.83737 L 51.7434,7.05235
 L 51.7858,7.2744 L 51.8,7.5 L 51.7858,7.72559 L 51.7434,7.94763 L 51.6736,8.16261 L 51.5773,8.36714
 L 51.4562,8.558 L 51.3121,8.73218 L 51.1474,8.88692 L 50.9645,9.01978 L 50.7664,9.12868 L 50.5562,9.2119
 L 50.3373,9.26811 L 50.113,9.29645 z
" stroke="black" fill="lightgray" stroke-width="0.5"/>
</svg>
