  0
SECTION
  2
BLOCKS
  0
ENDSEC
  0
SECTION
  2
ENTITIES
  0
LINE
  8
0
 10
2.34225
 20
176.721
 11
3.8627
 21
177.112
  0
LINE
  8
0
 10
3.8627
 20
177.112
 11
5.32224
 21
177.69
  0
LINE
  8
0
 10
5.32224
 20
177.69
 11
6.69783
 21
178.446
  0
LINE
  8
0
 10
6.69783
 20
178.446
 11
7.96779
 21
179.369
  0
LINE
  8
0
 10
7.96779
 20
179.369
 11
9.11211
 21
180.443
  0
LINE
  8
0
 10
9.11211
 20
180.443
 11
10.1127
 21
181.653
  0
LINE
  8
0
 10
10.1127
 20
181.653
 11
10.9538
 21
182.978
  0
LINE
  8
0
 10
10.9538
 20
182.978
 11
11.6222
 21
184.398
  0
LINE
  8
0
 10
11.6222
 20
184.398
 11
12.1073
 21
185.891
  0
LINE
  8
0
 10
12.1073
 20
185.891
 11
12.4014
 21
187.433
  0
LINE
  8
0
 10
12.4014
 20
187.433
 11
12.5
 21
189
  0
LINE
  8
0
 10
12.5
 20
189
 11
12.4014
 21
190.567
  0
LINE
  8
0
 10
12.4014
 20
190.567
 11
12.1073
 21
192.109
  0
LINE
  8
0
 10
12.1073
 20
192.109
 11
11.6222
 21
193.602
  0
LINE
  8
0
 10
11.6222
 20
193.602
 11
10.9538
 21
195.022
  0
LINE
  8
0
 10
10.9538
 20
195.022
 11
10.1127
 21
196.347
  0
LINE
  8
0
 10
10.1127
 20
196.347
 11
9.11211
 21
197.557
  0
LINE
  8
0
 10
9.11211
 20
197.557
 11
7.96779
 21
198.631
  0
LINE
  8
0
 10
7.96779
 20
198.631
 11
6.69783
 21
199.554
  0
LINE
  8
0
 10
6.69783
 20
199.554
 11
5.32224
 21
200.31
  0
LINE
  8
0
 10
5.32224
 20
200.31
 11
3.8627
 21
200.888
  0
LINE
  8
0
 10
3.8627
 20
200.888
 11
2.34225
 21
201.279
  0
LINE
  8
0
 10
2.34225
 20
201.279
 11
0.784866
 21
201.475
  0
LINE
  8
0
 10
0.784866
 20
201.475
 11
-0.784866
 21
201.475
  0
LINE
  8
0
 10
-0.784866
 20
201.475
 11
-2.34225
 21
201.279
  0
LINE
  8
0
 10
-2.34225
 20
201.279
 11
-3.8627
 21
200.888
  0
LINE
  8
0
 10
-3.8627
 20
200.888
 11
-5.32224
 21
200.31
  0
LINE
  8
0
 10
-5.32224
 20
200.31
 11
-6.69783
 21
199.554
  0
LINE
  8
0
 10
-6.69783
 20
199.554
 11
-7.96779
 21
198.631
  0
LINE
  8
0
 10
-7.96779
 20
198.631
 11
-9.11211
 21
197.557
  0
LINE
  8
0
 10
-9.11211
 20
197.557
 11
-10.1127
 21
196.347
  0
LINE
  8
0
 10
-10.1127
 20
196.347
 11
-10.9538
 21
195.022
  0
LINE
  8
0
 10
-10.9538
 20
195.022
 11
-11.6222
 21
193.602
  0
LINE
  8
0
 10
-11.6222
 20
193.602
 11
-12.1073
 21
192.109
  0
LINE
  8
0
 10
-12.1073
 20
192.109
 11
-12.4014
 21
190.567
  0
LINE
  8
0
 10
-12.4014
 20
190.567
 11
-12.5
 21
189
  0
LINE
  8
0
 10
-12.5
 20
189
 11
-12.4014
 21
187.433
  0
LINE
  8
0
 10
-12.4014
 20
187.433
 11
-12.1073
 21
185.891
  0
LINE
  8
0
 10
-12.1073
 20
185.891
 11
-11.6222
 21
184.398
  0
LINE
  8
0
 10
-11.6222
 20
184.398
 11
-10.9538
 21
182.978
  0
LINE
  8
0
 10
-10.9538
 20
182.978
 11
-10.1127
 21
181.653
  0
LINE
  8
0
 10
-10.1127
 20
181.653
 11
-9.11211
 21
180.443
  0
LINE
  8
0
 10
-9.11211
 20
180.443
 11
-7.96779
 21
179.369
  0
LINE
  8
0
 10
-7.96779
 20
179.369
 11
-6.69783
 21
178.446
  0
LINE
  8
0
 10
-6.69783
 20
178.446
 11
-5.32224
 21
177.69
  0
LINE
  8
0
 10
-5.32224
 20
177.69
 11
-3.8627
 21
177.112
  0
LINE
  8
0
 10
-3.8627
 20
177.112
 11
-2.34225
 21
176.721
  0
LINE
  8
0
 10
-2.34225
 20
176.721
 11
-0.784866
 21
176.525
  0
LINE
  8
0
 10
-0.784866
 20
176.525
 11
0.784866
 21
176.525
  0
LINE
  8
0
 10
0.784866
 20
176.525
 11
2.34225
 21
176.721
  0
LINE
  8
0
 10
-0.113022
 20
194.704
 11
-0.33728
 21
194.732
  0
LINE
  8
0
 10
-0.33728
 20
194.732
 11
-0.556229
 21
194.788
  0
LINE
  8
0
 10
-0.556229
 20
194.788
 11
-0.766388
 21
194.871
  0
LINE
  8
0
 10
-0.766388
 20
194.871
 11
-0.964478
 21
194.98
  0
LINE
  8
0
 10
-0.964478
 20
194.98
 11
-1.14735
 21
195.113
  0
LINE
  8
0
 10
-1.14735
 20
195.113
 11
-1.31213
 21
195.268
  0
LINE
  8
0
 10
-1.31213
 20
195.268
 11
-1.45622
 21
195.442
  0
LINE
  8
0
 10
-1.45622
 20
195.442
 11
-1.57735
 21
195.633
  0
LINE
  8
0
 10
-1.57735
 20
195.633
 11
-1.67358
 21
195.837
  0
LINE
  8
0
 10
-1.67358
 20
195.837
 11
-1.74344
 21
196.052
  0
LINE
  8
0
 10
-1.74344
 20
196.052
 11
-1.7858
 21
196.274
  0
LINE
  8
0
 10
-1.7858
 20
196.274
 11
-1.79999
 21
196.5
  0
LINE
  8
0
 10
-1.79999
 20
196.5
 11
-1.7858
 21
196.726
  0
LINE
  8
0
 10
-1.7858
 20
196.726
 11
-1.74344
 21
196.948
  0
LINE
  8
0
 10
-1.74344
 20
196.948
 11
-1.67358
 21
197.163
  0
LINE
  8
0
 10
-1.67358
 20
197.163
 11
-1.57735
 21
197.367
  0
LINE
  8
0
 10
-1.57735
 20
197.367
 11
-1.45622
 21
197.558
  0
LINE
  8
0
 10
-1.45622
 20
197.558
 11
-1.31213
 21
197.732
  0
LINE
  8
0
 10
-1.31213
 20
197.732
 11
-1.14735
 21
197.887
  0
LINE
  8
0
 10
-1.14735
 20
197.887
 11
-0.964478
 21
198.02
  0
LINE
  8
0
 10
-0.964478
 20
198.02
 11
-0.766388
 21
198.129
  0
LINE
  8
0
 10
-0.766388
 20
198.129
 11
-0.556229
 21
198.212
  0
LINE
  8
0
 10
-0.556229
 20
198.212
 11
-0.33728
 21
198.268
  0
LINE
  8
0
 10
-0.33728
 20
198.268
 11
-0.113022
 21
198.296
  0
LINE
  8
0
 10
-0.113022
 20
198.296
 11
0.113022
 21
198.296
  0
LINE
  8
0
 10
0.113022
 20
198.296
 11
0.33728
 21
198.268
  0
LINE
  8
0
 10
0.33728
 20
198.268
 11
0.556229
 21
198.212
  0
LINE
  8
0
 10
0.556229
 20
198.212
 11
0.766388
 21
198.129
  0
LINE
  8
0
 10
0.766388
 20
198.129
 11
0.964478
 21
198.02
  0
LINE
  8
0
 10
0.964478
 20
198.02
 11
1.14735
 21
197.887
  0
LINE
  8
0
 10
1.14735
 20
197.887
 11
1.31213
 21
197.732
  0
LINE
  8
0
 10
1.31213
 20
197.732
 11
1.45622
 21
197.558
  0
LINE
  8
0
 10
1.45622
 20
197.558
 11
1.57735
 21
197.367
  0
LINE
  8
0
 10
1.57735
 20
197.367
 11
1.67358
 21
197.163
  0
LINE
  8
0
 10
1.67358
 20
197.163
 11
1.74344
 21
196.948
  0
LINE
  8
0
 10
1.74344
 20
196.948
 11
1.7858
 21
196.726
  0
LINE
  8
0
 10
1.7858
 20
196.726
 11
1.79999
 21
196.5
  0
LINE
  8
0
 10
1.79999
 20
196.5
 11
1.7858
 21
196.274
  0
LINE
  8
0
 10
1.7858
 20
196.274
 11
1.74344
 21
196.052
  0
LINE
  8
0
 10
1.74344
 20
196.052
 11
1.67358
 21
195.837
  0
LINE
  8
0
 10
1.67358
 20
195.837
 11
1.57735
 21
195.633
  0
LINE
  8
0
 10
1.57735
 20
195.633
 11
1.45622
 21
195.442
  0
LINE
  8
0
 10
1.45622
 20
195.442
 11
1.31213
 21
195.268
  0
LINE
  8
0
 10
1.31213
 20
195.268
 11
1.14735
 21
195.113
  0
LINE
  8
0
 10
1.14735
 20
195.113
 11
0.964478
 21
194.98
  0
LINE
  8
0
 10
0.964478
 20
194.98
 11
0.766388
 21
194.871
  0
LINE
  8
0
 10
0.766388
 20
194.871
 11
0.556229
 21
194.788
  0
LINE
  8
0
 10
0.556229
 20
194.788
 11
0.33728
 21
194.732
  0
LINE
  8
0
 10
0.33728
 20
194.732
 11
0.113022
 21
194.704
  0
LINE
  8
0
 10
0.113022
 20
194.704
 11
-0.113022
 21
194.704
  0
LINE
  8
0
 10
5.2088
 20
192.806
 11
5.02193
 21
192.83
  0
LINE
  8
0
 10
5.02193
 20
192.83
 11
4.83946
 21
192.876
  0
LINE
  8
0
 10
4.83946
 20
192.876
 11
4.66432
 21
192.946
  0
LINE
  8
0
 10
4.66432
 20
192.946
 11
4.49925
 21
193.036
  0
LINE
  8
0
 10
4.49925
 20
193.036
 11
4.34686
 21
193.147
  0
LINE
  8
0
 10
4.34686
 20
193.147
 11
4.20953
 21
193.276
  0
LINE
  8
0
 10
4.20953
 20
193.276
 11
4.08946
 21
193.421
  0
LINE
  8
0
 10
4.08946
 20
193.421
 11
3.98853
 21
193.58
  0
LINE
  8
0
 10
3.98853
 20
193.58
 11
3.90833
 21
193.751
  0
LINE
  8
0
 10
3.90833
 20
193.751
 11
3.85011
 21
193.93
  0
LINE
  8
0
 10
3.85011
 20
193.93
 11
3.81482
 21
194.115
  0
LINE
  8
0
 10
3.81482
 20
194.115
 11
3.80299
 21
194.303
  0
LINE
  8
0
 10
3.80299
 20
194.303
 11
3.81482
 21
194.491
  0
LINE
  8
0
 10
3.81482
 20
194.491
 11
3.85011
 21
194.676
  0
LINE
  8
0
 10
3.85011
 20
194.676
 11
3.90833
 21
194.855
  0
LINE
  8
0
 10
3.90833
 20
194.855
 11
3.98853
 21
195.026
  0
LINE
  8
0
 10
3.98853
 20
195.026
 11
4.08946
 21
195.185
  0
LINE
  8
0
 10
4.08946
 20
195.185
 11
4.20953
 21
195.33
  0
LINE
  8
0
 10
4.20953
 20
195.33
 11
4.34686
 21
195.459
  0
LINE
  8
0
 10
4.34686
 20
195.459
 11
4.49925
 21
195.569
  0
LINE
  8
0
 10
4.49925
 20
195.569
 11
4.66432
 21
195.66
  0
LINE
  8
0
 10
4.66432
 20
195.66
 11
4.83946
 21
195.73
  0
LINE
  8
0
 10
4.83946
 20
195.73
 11
5.02193
 21
195.776
  0
LINE
  8
0
 10
5.02193
 20
195.776
 11
5.2088
 21
195.8
  0
LINE
  8
0
 10
5.2088
 20
195.8
 11
5.39717
 21
195.8
  0
LINE
  8
0
 10
5.39717
 20
195.8
 11
5.58406
 21
195.776
  0
LINE
  8
0
 10
5.58406
 20
195.776
 11
5.76653
 21
195.73
  0
LINE
  8
0
 10
5.76653
 20
195.73
 11
5.94167
 21
195.66
  0
LINE
  8
0
 10
5.94167
 20
195.66
 11
6.10674
 21
195.569
  0
LINE
  8
0
 10
6.10674
 20
195.569
 11
6.25912
 21
195.459
  0
LINE
  8
0
 10
6.25912
 20
195.459
 11
6.39644
 21
195.33
  0
LINE
  8
0
 10
6.39644
 20
195.33
 11
6.51653
 21
195.185
  0
LINE
  8
0
 10
6.51653
 20
195.185
 11
6.61745
 21
195.026
  0
LINE
  8
0
 10
6.61745
 20
195.026
 11
6.69766
 21
194.855
  0
LINE
  8
0
 10
6.69766
 20
194.855
 11
6.75587
 21
194.676
  0
LINE
  8
0
 10
6.75587
 20
194.676
 11
6.79117
 21
194.491
  0
LINE
  8
0
 10
6.79117
 20
194.491
 11
6.80299
 21
194.303
  0
LINE
  8
0
 10
6.80299
 20
194.303
 11
6.79117
 21
194.115
  0
LINE
  8
0
 10
6.79117
 20
194.115
 11
6.75587
 21
193.93
  0
LINE
  8
0
 10
6.75587
 20
193.93
 11
6.69766
 21
193.751
  0
LINE
  8
0
 10
6.69766
 20
193.751
 11
6.61745
 21
193.58
  0
LINE
  8
0
 10
6.61745
 20
193.58
 11
6.51653
 21
193.421
  0
LINE
  8
0
 10
6.51653
 20
193.421
 11
6.39644
 21
193.276
  0
LINE
  8
0
 10
6.39644
 20
193.276
 11
6.25912
 21
193.147
  0
LINE
  8
0
 10
6.25912
 20
193.147
 11
6.10674
 21
193.036
  0
LINE
  8
0
 10
6.10674
 20
193.036
 11
5.94167
 21
192.946
  0
LINE
  8
0
 10
5.94167
 20
192.946
 11
5.76653
 21
192.876
  0
LINE
  8
0
 10
5.76653
 20
192.876
 11
5.58406
 21
192.83
  0
LINE
  8
0
 10
5.58406
 20
192.83
 11
5.39717
 21
192.806
  0
LINE
  8
0
 10
5.39717
 20
192.806
 11
5.2088
 21
192.806
  0
LINE
  8
0
 10
-5.39717
 20
192.806
 11
-5.58406
 21
192.83
  0
LINE
  8
0
 10
-5.58406
 20
192.83
 11
-5.76653
 21
192.876
  0
LINE
  8
0
 10
-5.76653
 20
192.876
 11
-5.94167
 21
192.946
  0
LINE
  8
0
 10
-5.94167
 20
192.946
 11
-6.10674
 21
193.036
  0
LINE
  8
0
 10
-6.10674
 20
193.036
 11
-6.25912
 21
193.147
  0
LINE
  8
0
 10
-6.25912
 20
193.147
 11
-6.39644
 21
193.276
  0
LINE
  8
0
 10
-6.39644
 20
193.276
 11
-6.51653
 21
193.421
  0
LINE
  8
0
 10
-6.51653
 20
193.421
 11
-6.61745
 21
193.58
  0
LINE
  8
0
 10
-6.61745
 20
193.58
 11
-6.69766
 21
193.751
  0
LINE
  8
0
 10
-6.69766
 20
193.751
 11
-6.75587
 21
193.93
  0
LINE
  8
0
 10
-6.75587
 20
193.93
 11
-6.79117
 21
194.115
  0
LINE
  8
0
 10
-6.79117
 20
194.115
 11
-6.80299
 21
194.303
  0
LINE
  8
0
 10
-6.80299
 20
194.303
 11
-6.79117
 21
194.491
  0
LINE
  8
0
 10
-6.79117
 20
194.491
 11
-6.75587
 21
194.676
  0
LINE
  8
0
 10
-6.75587
 20
194.676
 11
-6.69766
 21
194.855
  0
LINE
  8
0
 10
-6.69766
 20
194.855
 11
-6.61745
 21
195.026
  0
LINE
  8
0
 10
-6.61745
 20
195.026
 11
-6.51653
 21
195.185
  0
LINE
  8
0
 10
-6.51653
 20
195.185
 11
-6.39644
 21
195.33
  0
LINE
  8
0
 10
-6.39644
 20
195.33
 11
-6.25912
 21
195.459
  0
LINE
  8
0
 10
-6.25912
 20
195.459
 11
-6.10674
 21
195.569
  0
LINE
  8
0
 10
-6.10674
 20
195.569
 11
-5.94167
 21
195.66
  0
LINE
  8
0
 10
-5.94167
 20
195.66
 11
-5.76653
 21
195.73
  0
LINE
  8
0
 10
-5.76653
 20
195.73
 11
-5.58406
 21
195.776
  0
LINE
  8
0
 10
-5.58406
 20
195.776
 11
-5.39717
 21
195.8
  0
LINE
  8
0
 10
-5.39717
 20
195.8
 11
-5.2088
 21
195.8
  0
LINE
  8
0
 10
-5.2088
 20
195.8
 11
-5.02193
 21
195.776
  0
LINE
  8
0
 10
-5.02193
 20
195.776
 11
-4.83946
 21
195.73
  0
LINE
  8
0
 10
-4.83946
 20
195.73
 11
-4.66432
 21
195.66
  0
LINE
  8
0
 10
-4.66432
 20
195.66
 11
-4.49925
 21
195.569
  0
LINE
  8
0
 10
-4.49925
 20
195.569
 11
-4.34686
 21
195.459
  0
LINE
  8
0
 10
-4.34686
 20
195.459
 11
-4.20953
 21
195.33
  0
LINE
  8
0
 10
-4.20953
 20
195.33
 11
-4.08946
 21
195.185
  0
LINE
  8
0
 10
-4.08946
 20
195.185
 11
-3.98853
 21
195.026
  0
LINE
  8
0
 10
-3.98853
 20
195.026
 11
-3.90833
 21
194.855
  0
LINE
  8
0
 10
-3.90833
 20
194.855
 11
-3.85011
 21
194.676
  0
LINE
  8
0
 10
-3.85011
 20
194.676
 11
-3.81482
 21
194.491
  0
LINE
  8
0
 10
-3.81482
 20
194.491
 11
-3.80299
 21
194.303
  0
LINE
  8
0
 10
-3.80299
 20
194.303
 11
-3.81482
 21
194.115
  0
LINE
  8
0
 10
-3.81482
 20
194.115
 11
-3.85011
 21
193.93
  0
LINE
  8
0
 10
-3.85011
 20
193.93
 11
-3.90833
 21
193.751
  0
LINE
  8
0
 10
-3.90833
 20
193.751
 11
-3.98853
 21
193.58
  0
LINE
  8
0
 10
-3.98853
 20
193.58
 11
-4.08946
 21
193.421
  0
LINE
  8
0
 10
-4.08946
 20
193.421
 11
-4.20953
 21
193.276
  0
LINE
  8
0
 10
-4.20953
 20
193.276
 11
-4.34686
 21
193.147
  0
LINE
  8
0
 10
-4.34686
 20
193.147
 11
-4.49925
 21
193.036
  0
LINE
  8
0
 10
-4.49925
 20
193.036
 11
-4.66432
 21
192.946
  0
LINE
  8
0
 10
-4.66432
 20
192.946
 11
-4.83946
 21
192.876
  0
LINE
  8
0
 10
-4.83946
 20
192.876
 11
-5.02193
 21
192.83
  0
LINE
  8
0
 10
-5.02193
 20
192.83
 11
-5.2088
 21
192.806
  0
LINE
  8
0
 10
-5.2088
 20
192.806
 11
-5.39717
 21
192.806
  0
LINE
  8
0
 10
-0.18837
 20
186.006
 11
-0.562134
 21
186.053
  0
LINE
  8
0
 10
-0.562134
 20
186.053
 11
-0.927048
 21
186.147
  0
LINE
  8
0
 10
-0.927048
 20
186.147
 11
-1.27733
 21
186.286
  0
LINE
  8
0
 10
-1.27733
 20
186.286
 11
-1.60747
 21
186.467
  0
LINE
  8
0
 10
-1.60747
 20
186.467
 11
-1.91226
 21
186.688
  0
LINE
  8
0
 10
-1.91226
 20
186.688
 11
-2.1869
 21
186.946
  0
LINE
  8
0
 10
-2.1869
 20
186.946
 11
-2.42705
 21
187.237
  0
LINE
  8
0
 10
-2.42705
 20
187.237
 11
-2.62891
 21
187.555
  0
LINE
  8
0
 10
-2.62891
 20
187.555
 11
-2.78932
 21
187.896
  0
LINE
  8
0
 10
-2.78932
 20
187.896
 11
-2.90575
 21
188.254
  0
LINE
  8
0
 10
-2.90575
 20
188.254
 11
-2.97633
 21
188.624
  0
LINE
  8
0
 10
-2.97633
 20
188.624
 11
-3
 21
189
  0
LINE
  8
0
 10
-3
 20
189
 11
-2.97633
 21
189.376
  0
LINE
  8
0
 10
-2.97633
 20
189.376
 11
-2.90575
 21
189.746
  0
LINE
  8
0
 10
-2.90575
 20
189.746
 11
-2.78932
 21
190.104
  0
LINE
  8
0
 10
-2.78932
 20
190.104
 11
-2.62891
 21
190.445
  0
LINE
  8
0
 10
-2.62891
 20
190.445
 11
-2.42705
 21
190.763
  0
LINE
  8
0
 10
-2.42705
 20
190.763
 11
-2.1869
 21
191.054
  0
LINE
  8
0
 10
-2.1869
 20
191.054
 11
-1.91226
 21
191.312
  0
LINE
  8
0
 10
-1.91226
 20
191.312
 11
-1.60747
 21
191.533
  0
LINE
  8
0
 10
-1.60747
 20
191.533
 11
-1.27733
 21
191.714
  0
LINE
  8
0
 10
-1.27733
 20
191.714
 11
-0.927048
 21
191.853
  0
LINE
  8
0
 10
-0.927048
 20
191.853
 11
-0.562134
 21
191.947
  0
LINE
  8
0
 10
-0.562134
 20
191.947
 11
-0.18837
 21
191.994
  0
LINE
  8
0
 10
-0.18837
 20
191.994
 11
0.18837
 21
191.994
  0
LINE
  8
0
 10
0.18837
 20
191.994
 11
0.562134
 21
191.947
  0
LINE
  8
0
 10
0.562134
 20
191.947
 11
0.927048
 21
191.853
  0
LINE
  8
0
 10
0.927048
 20
191.853
 11
1.27733
 21
191.714
  0
LINE
  8
0
 10
1.27733
 20
191.714
 11
1.60747
 21
191.533
  0
LINE
  8
0
 10
1.60747
 20
191.533
 11
1.91226
 21
191.312
  0
LINE
  8
0
 10
1.91226
 20
191.312
 11
2.1869
 21
191.054
  0
LINE
  8
0
 10
2.1869
 20
191.054
 11
2.42705
 21
190.763
  0
LINE
  8
0
 10
2.42705
 20
190.763
 11
2.62891
 21
190.445
  0
LINE
  8
0
 10
2.62891
 20
190.445
 11
2.78932
 21
190.104
  0
LINE
  8
0
 10
2.78932
 20
190.104
 11
2.90575
 21
189.746
  0
LINE
  8
0
 10
2.90575
 20
189.746
 11
2.97633
 21
189.376
  0
LINE
  8
0
 10
2.97633
 20
189.376
 11
3
 21
189
  0
LINE
  8
0
 10
3
 20
189
 11
2.97633
 21
188.624
  0
LINE
  8
0
 10
2.97633
 20
188.624
 11
2.90575
 21
188.254
  0
LINE
  8
0
 10
2.90575
 20
188.254
 11
2.78932
 21
187.896
  0
LINE
  8
0
 10
2.78932
 20
187.896
 11
2.62891
 21
187.555
  0
LINE
  8
0
 10
2.62891
 20
187.555
 11
2.42705
 21
187.237
  0
LINE
  8
0
 10
2.42705
 20
187.237
 11
2.1869
 21
186.946
  0
LINE
  8
0
 10
2.1869
 20
186.946
 11
1.91226
 21
186.688
  0
LINE
  8
0
 10
1.91226
 20
186.688
 11
1.60747
 21
186.467
  0
LINE
  8
0
 10
1.60747
 20
186.467
 11
1.27733
 21
186.286
  0
LINE
  8
0
 10
1.27733
 20
186.286
 11
0.927048
 21
186.147
  0
LINE
  8
0
 10
0.927048
 20
186.147
 11
0.562134
 21
186.053
  0
LINE
  8
0
 10
0.562134
 20
186.053
 11
0.18837
 21
186.006
  0
LINE
  8
0
 10
0.18837
 20
186.006
 11
-0.18837
 21
186.006
  0
LINE
  8
0
 10
-7.61302
 20
187.204
 11
-7.83728
 21
187.232
  0
LINE
  8
0
 10
-7.83728
 20
187.232
 11
-8.05623
 21
187.288
  0
LINE
  8
0
 10
-8.05623
 20
187.288
 11
-8.26639
 21
187.371
  0
LINE
  8
0
 10
-8.26639
 20
187.371
 11
-8.46448
 21
187.48
  0
LINE
  8
0
 10
-8.46448
 20
187.48
 11
-8.64735
 21
187.613
  0
LINE
  8
0
 10
-8.64735
 20
187.613
 11
-8.81213
 21
187.768
  0
LINE
  8
0
 10
-8.81213
 20
187.768
 11
-8.95622
 21
187.942
  0
LINE
  8
0
 10
-8.95622
 20
187.942
 11
-9.07735
 21
188.133
  0
LINE
  8
0
 10
-9.07735
 20
188.133
 11
-9.17358
 21
188.337
  0
LINE
  8
0
 10
-9.17358
 20
188.337
 11
-9.24344
 21
188.552
  0
LINE
  8
0
 10
-9.24344
 20
188.552
 11
-9.2858
 21
188.774
  0
LINE
  8
0
 10
-9.2858
 20
188.774
 11
-9.29999
 21
189
  0
LINE
  8
0
 10
-9.29999
 20
189
 11
-9.2858
 21
189.226
  0
LINE
  8
0
 10
-9.2858
 20
189.226
 11
-9.24344
 21
189.448
  0
LINE
  8
0
 10
-9.24344
 20
189.448
 11
-9.17358
 21
189.663
  0
LINE
  8
0
 10
-9.17358
 20
189.663
 11
-9.07735
 21
189.867
  0
LINE
  8
0
 10
-9.07735
 20
189.867
 11
-8.95622
 21
190.058
  0
LINE
  8
0
 10
-8.95622
 20
190.058
 11
-8.81213
 21
190.232
  0
LINE
  8
0
 10
-8.81213
 20
190.232
 11
-8.64735
 21
190.387
  0
LINE
  8
0
 10
-8.64735
 20
190.387
 11
-8.46448
 21
190.52
  0
LINE
  8
0
 10
-8.46448
 20
190.52
 11
-8.26639
 21
190.629
  0
LINE
  8
0
 10
-8.26639
 20
190.629
 11
-8.05623
 21
190.712
  0
LINE
  8
0
 10
-8.05623
 20
190.712
 11
-7.83728
 21
190.768
  0
LINE
  8
0
 10
-7.83728
 20
190.768
 11
-7.61302
 21
190.796
  0
LINE
  8
0
 10
-7.61302
 20
190.796
 11
-7.38696
 21
190.796
  0
LINE
  8
0
 10
-7.38696
 20
190.796
 11
-7.1627
 21
190.768
  0
LINE
  8
0
 10
-7.1627
 20
190.768
 11
-6.94376
 21
190.712
  0
LINE
  8
0
 10
-6.94376
 20
190.712
 11
-6.7336
 21
190.629
  0
LINE
  8
0
 10
-6.7336
 20
190.629
 11
-6.53551
 21
190.52
  0
LINE
  8
0
 10
-6.53551
 20
190.52
 11
-6.35263
 21
190.387
  0
LINE
  8
0
 10
-6.35263
 20
190.387
 11
-6.18785
 21
190.232
  0
LINE
  8
0
 10
-6.18785
 20
190.232
 11
-6.04376
 21
190.058
  0
LINE
  8
0
 10
-6.04376
 20
190.058
 11
-5.92264
 21
189.867
  0
LINE
  8
0
 10
-5.92264
 20
189.867
 11
-5.8264
 21
189.663
  0
LINE
  8
0
 10
-5.8264
 20
189.663
 11
-5.75655
 21
189.448
  0
LINE
  8
0
 10
-5.75655
 20
189.448
 11
-5.71419
 21
189.226
  0
LINE
  8
0
 10
-5.71419
 20
189.226
 11
-5.7
 21
189
  0
LINE
  8
0
 10
-5.7
 20
189
 11
-5.71419
 21
188.774
  0
LINE
  8
0
 10
-5.71419
 20
188.774
 11
-5.75655
 21
188.552
  0
LINE
  8
0
 10
-5.75655
 20
188.552
 11
-5.8264
 21
188.337
  0
LINE
  8
0
 10
-5.8264
 20
188.337
 11
-5.92264
 21
188.133
  0
LINE
  8
0
 10
-5.92264
 20
188.133
 11
-6.04376
 21
187.942
  0
LINE
  8
0
 10
-6.04376
 20
187.942
 11
-6.18785
 21
187.768
  0
LINE
  8
0
 10
-6.18785
 20
187.768
 11
-6.35263
 21
187.613
  0
LINE
  8
0
 10
-6.35263
 20
187.613
 11
-6.53551
 21
187.48
  0
LINE
  8
0
 10
-6.53551
 20
187.48
 11
-6.7336
 21
187.371
  0
LINE
  8
0
 10
-6.7336
 20
187.371
 11
-6.94376
 21
187.288
  0
LINE
  8
0
 10
-6.94376
 20
187.288
 11
-7.1627
 21
187.232
  0
LINE
  8
0
 10
-7.1627
 20
187.232
 11
-7.38696
 21
187.204
  0
LINE
  8
0
 10
-7.38696
 20
187.204
 11
-7.61302
 21
187.204
  0
LINE
  8
0
 10
7.38696
 20
187.204
 11
7.1627
 21
187.232
  0
LINE
  8
0
 10
7.1627
 20
187.232
 11
6.94376
 21
187.288
  0
LINE
  8
0
 10
6.94376
 20
187.288
 11
6.7336
 21
187.371
  0
LINE
  8
0
 10
6.7336
 20
187.371
 11
6.53551
 21
187.48
  0
LINE
  8
0
 10
6.53551
 20
187.48
 11
6.35263
 21
187.613
  0
LINE
  8
0
 10
6.35263
 20
187.613
 11
6.18785
 21
187.768
  0
LINE
  8
0
 10
6.18785
 20
187.768
 11
6.04376
 21
187.942
  0
LINE
  8
0
 10
6.04376
 20
187.942
 11
5.92264
 21
188.133
  0
LINE
  8
0
 10
5.92264
 20
188.133
 11
5.8264
 21
188.337
  0
LINE
  8
0
 10
5.8264
 20
188.337
 11
5.75655
 21
188.552
  0
LINE
  8
0
 10
5.75655
 20
188.552
 11
5.71419
 21
188.774
  0
LINE
  8
0
 10
5.71419
 20
188.774
 11
5.7
 21
189
  0
LINE
  8
0
 10
5.7
 20
189
 11
5.71419
 21
189.226
  0
LINE
  8
0
 10
5.71419
 20
189.226
 11
5.75655
 21
189.448
  0
LINE
  8
0
 10
5.75655
 20
189.448
 11
5.8264
 21
189.663
  0
LINE
  8
0
 10
5.8264
 20
189.663
 11
5.92264
 21
189.867
  0
LINE
  8
0
 10
5.92264
 20
189.867
 11
6.04376
 21
190.058
  0
LINE
  8
0
 10
6.04376
 20
190.058
 11
6.18785
 21
190.232
  0
LINE
  8
0
 10
6.18785
 20
190.232
 11
6.35263
 21
190.387
  0
LINE
  8
0
 10
6.35263
 20
190.387
 11
6.53551
 21
190.52
  0
LINE
  8
0
 10
6.53551
 20
190.52
 11
6.7336
 21
190.629
  0
LINE
  8
0
 10
6.7336
 20
190.629
 11
6.94376
 21
190.712
  0
LINE
  8
0
 10
6.94376
 20
190.712
 11
7.1627
 21
190.768
  0
LINE
  8
0
 10
7.1627
 20
190.768
 11
7.38696
 21
190.796
  0
LINE
  8
0
 10
7.38696
 20
190.796
 11
7.61302
 21
190.796
  0
LINE
  8
0
 10
7.61302
 20
190.796
 11
7.83728
 21
190.768
  0
LINE
  8
0
 10
7.83728
 20
190.768
 11
8.05623
 21
190.712
  0
LINE
  8
0
 10
8.05623
 20
190.712
 11
8.26639
 21
190.629
  0
LINE
  8
0
 10
8.26639
 20
190.629
 11
8.46448
 21
190.52
  0
LINE
  8
0
 10
8.46448
 20
190.52
 11
8.64735
 21
190.387
  0
LINE
  8
0
 10
8.64735
 20
190.387
 11
8.81213
 21
190.232
  0
LINE
  8
0
 10
8.81213
 20
190.232
 11
8.95622
 21
190.058
  0
LINE
  8
0
 10
8.95622
 20
190.058
 11
9.07735
 21
189.867
  0
LINE
  8
0
 10
9.07735
 20
189.867
 11
9.17358
 21
189.663
  0
LINE
  8
0
 10
9.17358
 20
189.663
 11
9.24344
 21
189.448
  0
LINE
  8
0
 10
9.24344
 20
189.448
 11
9.2858
 21
189.226
  0
LINE
  8
0
 10
9.2858
 20
189.226
 11
9.29999
 21
189
  0
LINE
  8
0
 10
9.29999
 20
189
 11
9.2858
 21
188.774
  0
LINE
  8
0
 10
9.2858
 20
188.774
 11
9.24344
 21
188.552
  0
LINE
  8
0
 10
9.24344
 20
188.552
 11
9.17358
 21
188.337
  0
LINE
  8
0
 10
9.17358
 20
188.337
 11
9.07735
 21
188.133
  0
LINE
  8
0
 10
9.07735
 20
188.133
 11
8.95622
 21
187.942
  0
LINE
  8
0
 10
8.95622
 20
187.942
 11
8.81213
 21
187.768
  0
LINE
  8
0
 10
8.81213
 20
187.768
 11
8.64735
 21
187.613
  0
LINE
  8
0
 10
8.64735
 20
187.613
 11
8.46448
 21
187.48
  0
LINE
  8
0
 10
8.46448
 20
187.48
 11
8.26639
 21
187.371
  0
LINE
  8
0
 10
8.26639
 20
187.371
 11
8.05623
 21
187.288
  0
LINE
  8
0
 10
8.05623
 20
187.288
 11
7.83728
 21
187.232
  0
LINE
  8
0
 10
7.83728
 20
187.232
 11
7.61302
 21
187.204
  0
LINE
  8
0
 10
7.61302
 20
187.204
 11
7.38696
 21
187.204
  0
LINE
  8
0
 10
5.2088
 20
182.2
 11
5.02193
 21
182.224
  0
LINE
  8
0
 10
5.02193
 20
182.224
 11
4.83946
 21
182.27
  0
LINE
  8
0
 10
4.83946
 20
182.27
 11
4.66432
 21
182.34
  0
LINE
  8
0
 10
4.66432
 20
182.34
 11
4.49925
 21
182.431
  0
LINE
  8
0
 10
4.49925
 20
182.431
 11
4.34686
 21
182.541
  0
LINE
  8
0
 10
4.34686
 20
182.541
 11
4.20953
 21
182.67
  0
LINE
  8
0
 10
4.20953
 20
182.67
 11
4.08946
 21
182.815
  0
LINE
  8
0
 10
4.08946
 20
182.815
 11
3.98853
 21
182.974
  0
LINE
  8
0
 10
3.98853
 20
182.974
 11
3.90833
 21
183.145
  0
LINE
  8
0
 10
3.90833
 20
183.145
 11
3.85011
 21
183.324
  0
LINE
  8
0
 10
3.85011
 20
183.324
 11
3.81482
 21
183.509
  0
LINE
  8
0
 10
3.81482
 20
183.509
 11
3.80299
 21
183.697
  0
LINE
  8
0
 10
3.80299
 20
183.697
 11
3.81482
 21
183.885
  0
LINE
  8
0
 10
3.81482
 20
183.885
 11
3.85011
 21
184.07
  0
LINE
  8
0
 10
3.85011
 20
184.07
 11
3.90833
 21
184.249
  0
LINE
  8
0
 10
3.90833
 20
184.249
 11
3.98853
 21
184.42
  0
LINE
  8
0
 10
3.98853
 20
184.42
 11
4.08946
 21
184.579
  0
LINE
  8
0
 10
4.08946
 20
184.579
 11
4.20953
 21
184.724
  0
LINE
  8
0
 10
4.20953
 20
184.724
 11
4.34686
 21
184.853
  0
LINE
  8
0
 10
4.34686
 20
184.853
 11
4.49925
 21
184.964
  0
LINE
  8
0
 10
4.49925
 20
184.964
 11
4.66432
 21
185.054
  0
LINE
  8
0
 10
4.66432
 20
185.054
 11
4.83946
 21
185.124
  0
LINE
  8
0
 10
4.83946
 20
185.124
 11
5.02193
 21
185.17
  0
LINE
  8
0
 10
5.02193
 20
185.17
 11
5.2088
 21
185.194
  0
LINE
  8
0
 10
5.2088
 20
185.194
 11
5.39717
 21
185.194
  0
LINE
  8
0
 10
5.39717
 20
185.194
 11
5.58406
 21
185.17
  0
LINE
  8
0
 10
5.58406
 20
185.17
 11
5.76653
 21
185.124
  0
LINE
  8
0
 10
5.76653
 20
185.124
 11
5.94167
 21
185.054
  0
LINE
  8
0
 10
5.94167
 20
185.054
 11
6.10674
 21
184.964
  0
LINE
  8
0
 10
6.10674
 20
184.964
 11
6.25912
 21
184.853
  0
LINE
  8
0
 10
6.25912
 20
184.853
 11
6.39644
 21
184.724
  0
LINE
  8
0
 10
6.39644
 20
184.724
 11
6.51653
 21
184.579
  0
LINE
  8
0
 10
6.51653
 20
184.579
 11
6.61745
 21
184.42
  0
LINE
  8
0
 10
6.61745
 20
184.42
 11
6.69766
 21
184.249
  0
LINE
  8
0
 10
6.69766
 20
184.249
 11
6.75587
 21
184.07
  0
LINE
  8
0
 10
6.75587
 20
184.07
 11
6.79117
 21
183.885
  0
LINE
  8
0
 10
6.79117
 20
183.885
 11
6.80299
 21
183.697
  0
LINE
  8
0
 10
6.80299
 20
183.697
 11
6.79117
 21
183.509
  0
LINE
  8
0
 10
6.79117
 20
183.509
 11
6.75587
 21
183.324
  0
LINE
  8
0
 10
6.75587
 20
183.324
 11
6.69766
 21
183.145
  0
LINE
  8
0
 10
6.69766
 20
183.145
 11
6.61745
 21
182.974
  0
LINE
  8
0
 10
6.61745
 20
182.974
 11
6.51653
 21
182.815
  0
LINE
  8
0
 10
6.51653
 20
182.815
 11
6.39644
 21
182.67
  0
LINE
  8
0
 10
6.39644
 20
182.67
 11
6.25912
 21
182.541
  0
LINE
  8
0
 10
6.25912
 20
182.541
 11
6.10674
 21
182.431
  0
LINE
  8
0
 10
6.10674
 20
182.431
 11
5.94167
 21
182.34
  0
LINE
  8
0
 10
5.94167
 20
182.34
 11
5.76653
 21
182.27
  0
LINE
  8
0
 10
5.76653
 20
182.27
 11
5.58406
 21
182.224
  0
LINE
  8
0
 10
5.58406
 20
182.224
 11
5.39717
 21
182.2
  0
LINE
  8
0
 10
5.39717
 20
182.2
 11
5.2088
 21
182.2
  0
LINE
  8
0
 10
-5.39717
 20
182.2
 11
-5.58406
 21
182.224
  0
LINE
  8
0
 10
-5.58406
 20
182.224
 11
-5.76653
 21
182.27
  0
LINE
  8
0
 10
-5.76653
 20
182.27
 11
-5.94167
 21
182.34
  0
LINE
  8
0
 10
-5.94167
 20
182.34
 11
-6.10674
 21
182.431
  0
LINE
  8
0
 10
-6.10674
 20
182.431
 11
-6.25912
 21
182.541
  0
LINE
  8
0
 10
-6.25912
 20
182.541
 11
-6.39644
 21
182.67
  0
LINE
  8
0
 10
-6.39644
 20
182.67
 11
-6.51653
 21
182.815
  0
LINE
  8
0
 10
-6.51653
 20
182.815
 11
-6.61745
 21
182.974
  0
LINE
  8
0
 10
-6.61745
 20
182.974
 11
-6.69766
 21
183.145
  0
LINE
  8
0
 10
-6.69766
 20
183.145
 11
-6.75587
 21
183.324
  0
LINE
  8
0
 10
-6.75587
 20
183.324
 11
-6.79117
 21
183.509
  0
LINE
  8
0
 10
-6.79117
 20
183.509
 11
-6.80299
 21
183.697
  0
LINE
  8
0
 10
-6.80299
 20
183.697
 11
-6.79117
 21
183.885
  0
LINE
  8
0
 10
-6.79117
 20
183.885
 11
-6.75587
 21
184.07
  0
LINE
  8
0
 10
-6.75587
 20
184.07
 11
-6.69766
 21
184.249
  0
LINE
  8
0
 10
-6.69766
 20
184.249
 11
-6.61745
 21
184.42
  0
LINE
  8
0
 10
-6.61745
 20
184.42
 11
-6.51653
 21
184.579
  0
LINE
  8
0
 10
-6.51653
 20
184.579
 11
-6.39644
 21
184.724
  0
LINE
  8
0
 10
-6.39644
 20
184.724
 11
-6.25912
 21
184.853
  0
LINE
  8
0
 10
-6.25912
 20
184.853
 11
-6.10674
 21
184.964
  0
LINE
  8
0
 10
-6.10674
 20
184.964
 11
-5.94167
 21
185.054
  0
LINE
  8
0
 10
-5.94167
 20
185.054
 11
-5.76653
 21
185.124
  0
LINE
  8
0
 10
-5.76653
 20
185.124
 11
-5.58406
 21
185.17
  0
LINE
  8
0
 10
-5.58406
 20
185.17
 11
-5.39717
 21
185.194
  0
LINE
  8
0
 10
-5.39717
 20
185.194
 11
-5.2088
 21
185.194
  0
LINE
  8
0
 10
-5.2088
 20
185.194
 11
-5.02193
 21
185.17
  0
LINE
  8
0
 10
-5.02193
 20
185.17
 11
-4.83946
 21
185.124
  0
LINE
  8
0
 10
-4.83946
 20
185.124
 11
-4.66432
 21
185.054
  0
LINE
  8
0
 10
-4.66432
 20
185.054
 11
-4.49925
 21
184.964
  0
LINE
  8
0
 10
-4.49925
 20
184.964
 11
-4.34686
 21
184.853
  0
LINE
  8
0
 10
-4.34686
 20
184.853
 11
-4.20953
 21
184.724
  0
LINE
  8
0
 10
-4.20953
 20
184.724
 11
-4.08946
 21
184.579
  0
LINE
  8
0
 10
-4.08946
 20
184.579
 11
-3.98853
 21
184.42
  0
LINE
  8
0
 10
-3.98853
 20
184.42
 11
-3.90833
 21
184.249
  0
LINE
  8
0
 10
-3.90833
 20
184.249
 11
-3.85011
 21
184.07
  0
LINE
  8
0
 10
-3.85011
 20
184.07
 11
-3.81482
 21
183.885
  0
LINE
  8
0
 10
-3.81482
 20
183.885
 11
-3.80299
 21
183.697
  0
LINE
  8
0
 10
-3.80299
 20
183.697
 11
-3.81482
 21
183.509
  0
LINE
  8
0
 10
-3.81482
 20
183.509
 11
-3.85011
 21
183.324
  0
LINE
  8
0
 10
-3.85011
 20
183.324
 11
-3.90833
 21
183.145
  0
LINE
  8
0
 10
-3.90833
 20
183.145
 11
-3.98853
 21
182.974
  0
LINE
  8
0
 10
-3.98853
 20
182.974
 11
-4.08946
 21
182.815
  0
LINE
  8
0
 10
-4.08946
 20
182.815
 11
-4.20953
 21
182.67
  0
LINE
  8
0
 10
-4.20953
 20
182.67
 11
-4.34686
 21
182.541
  0
LINE
  8
0
 10
-4.34686
 20
182.541
 11
-4.49925
 21
182.431
  0
LINE
  8
0
 10
-4.49925
 20
182.431
 11
-4.66432
 21
182.34
  0
LINE
  8
0
 10
-4.66432
 20
182.34
 11
-4.83946
 21
182.27
  0
LINE
  8
0
 10
-4.83946
 20
182.27
 11
-5.02193
 21
182.224
  0
LINE
  8
0
 10
-5.02193
 20
182.224
 11
-5.2088
 21
182.2
  0
LINE
  8
0
 10
-5.2088
 20
182.2
 11
-5.39717
 21
182.2
  0
LINE
  8
0
 10
-0.113022
 20
179.704
 11
-0.33728
 21
179.732
  0
LINE
  8
0
 10
-0.33728
 20
179.732
 11
-0.556229
 21
179.788
  0
LINE
  8
0
 10
-0.556229
 20
179.788
 11
-0.766388
 21
179.871
  0
LINE
  8
0
 10
-0.766388
 20
179.871
 11
-0.964478
 21
179.98
  0
LINE
  8
0
 10
-0.964478
 20
179.98
 11
-1.14735
 21
180.113
  0
LINE
  8
0
 10
-1.14735
 20
180.113
 11
-1.31213
 21
180.268
  0
LINE
  8
0
 10
-1.31213
 20
180.268
 11
-1.45622
 21
180.442
  0
LINE
  8
0
 10
-1.45622
 20
180.442
 11
-1.57735
 21
180.633
  0
LINE
  8
0
 10
-1.57735
 20
180.633
 11
-1.67358
 21
180.837
  0
LINE
  8
0
 10
-1.67358
 20
180.837
 11
-1.74344
 21
181.052
  0
LINE
  8
0
 10
-1.74344
 20
181.052
 11
-1.7858
 21
181.274
  0
LINE
  8
0
 10
-1.7858
 20
181.274
 11
-1.79999
 21
181.5
  0
LINE
  8
0
 10
-1.79999
 20
181.5
 11
-1.7858
 21
181.726
  0
LINE
  8
0
 10
-1.7858
 20
181.726
 11
-1.74344
 21
181.948
  0
LINE
  8
0
 10
-1.74344
 20
181.948
 11
-1.67358
 21
182.163
  0
LINE
  8
0
 10
-1.67358
 20
182.163
 11
-1.57735
 21
182.367
  0
LINE
  8
0
 10
-1.57735
 20
182.367
 11
-1.45622
 21
182.558
  0
LINE
  8
0
 10
-1.45622
 20
182.558
 11
-1.31213
 21
182.732
  0
LINE
  8
0
 10
-1.31213
 20
182.732
 11
-1.14735
 21
182.887
  0
LINE
  8
0
 10
-1.14735
 20
182.887
 11
-0.964478
 21
183.02
  0
LINE
  8
0
 10
-0.964478
 20
183.02
 11
-0.766388
 21
183.129
  0
LINE
  8
0
 10
-0.766388
 20
183.129
 11
-0.556229
 21
183.212
  0
LINE
  8
0
 10
-0.556229
 20
183.212
 11
-0.33728
 21
183.268
  0
LINE
  8
0
 10
-0.33728
 20
183.268
 11
-0.113022
 21
183.296
  0
LINE
  8
0
 10
-0.113022
 20
183.296
 11
0.113022
 21
183.296
  0
LINE
  8
0
 10
0.113022
 20
183.296
 11
0.33728
 21
183.268
  0
LINE
  8
0
 10
0.33728
 20
183.268
 11
0.556229
 21
183.212
  0
LINE
  8
0
 10
0.556229
 20
183.212
 11
0.766388
 21
183.129
  0
LINE
  8
0
 10
0.766388
 20
183.129
 11
0.964478
 21
183.02
  0
LINE
  8
0
 10
0.964478
 20
183.02
 11
1.14735
 21
182.887
  0
LINE
  8
0
 10
1.14735
 20
182.887
 11
1.31213
 21
182.732
  0
LINE
  8
0
 10
1.31213
 20
182.732
 11
1.45622
 21
182.558
  0
LINE
  8
0
 10
1.45622
 20
182.558
 11
1.57735
 21
182.367
  0
LINE
  8
0
 10
1.57735
 20
182.367
 11
1.67358
 21
182.163
  0
LINE
  8
0
 10
1.67358
 20
182.163
 11
1.74344
 21
181.948
  0
LINE
  8
0
 10
1.74344
 20
181.948
 11
1.7858
 21
181.726
  0
LINE
  8
0
 10
1.7858
 20
181.726
 11
1.79999
 21
181.5
  0
LINE
  8
0
 10
1.79999
 20
181.5
 11
1.7858
 21
181.274
  0
LINE
  8
0
 10
1.7858
 20
181.274
 11
1.74344
 21
181.052
  0
LINE
  8
0
 10
1.74344
 20
181.052
 11
1.67358
 21
180.837
  0
LINE
  8
0
 10
1.67358
 20
180.837
 11
1.57735
 21
180.633
  0
LINE
  8
0
 10
1.57735
 20
180.633
 11
1.45622
 21
180.442
  0
LINE
  8
0
 10
1.45622
 20
180.442
 11
1.31213
 21
180.268
  0
LINE
  8
0
 10
1.31213
 20
180.268
 11
1.14735
 21
180.113
  0
LINE
  8
0
 10
1.14735
 20
180.113
 11
0.964478
 21
179.98
  0
LINE
  8
0
 10
0.964478
 20
179.98
 11
0.766388
 21
179.871
  0
LINE
  8
0
 10
0.766388
 20
179.871
 11
0.556229
 21
179.788
  0
LINE
  8
0
 10
0.556229
 20
179.788
 11
0.33728
 21
179.732
  0
LINE
  8
0
 10
0.33728
 20
179.732
 11
0.113022
 21
179.704
  0
LINE
  8
0
 10
0.113022
 20
179.704
 11
-0.113022
 21
179.704
  0
LINE
  8
0
 10
52.3423
 20
176.721
 11
53.8627
 21
177.112
  0
LINE
  8
0
 10
53.8627
 20
177.112
 11
55.3222
 21
177.69
  0
LINE
  8
0
 10
55.3222
 20
177.69
 11
56.6978
 21
178.446
  0
LINE
  8
0
 10
56.6978
 20
178.446
 11
57.9678
 21
179.369
  0
LINE
  8
0
 10
57.9678
 20
179.369
 11
59.1121
 21
180.443
  0
LINE
  8
0
 10
59.1121
 20
180.443
 11
60.1127
 21
181.653
  0
LINE
  8
0
 10
60.1127
 20
181.653
 11
60.9538
 21
182.978
  0
LINE
  8
0
 10
60.9538
 20
182.978
 11
61.6222
 21
184.398
  0
LINE
  8
0
 10
61.6222
 20
184.398
 11
62.1073
 21
185.891
  0
LINE
  8
0
 10
62.1073
 20
185.891
 11
62.4014
 21
187.433
  0
LINE
  8
0
 10
62.4014
 20
187.433
 11
62.5
 21
189
  0
LINE
  8
0
 10
62.5
 20
189
 11
62.4014
 21
190.567
  0
LINE
  8
0
 10
62.4014
 20
190.567
 11
62.1073
 21
192.109
  0
LINE
  8
0
 10
62.1073
 20
192.109
 11
61.6222
 21
193.602
  0
LINE
  8
0
 10
61.6222
 20
193.602
 11
60.9538
 21
195.022
  0
LINE
  8
0
 10
60.9538
 20
195.022
 11
60.1127
 21
196.347
  0
LINE
  8
0
 10
60.1127
 20
196.347
 11
59.1121
 21
197.557
  0
LINE
  8
0
 10
59.1121
 20
197.557
 11
57.9678
 21
198.631
  0
LINE
  8
0
 10
57.9678
 20
198.631
 11
56.6978
 21
199.554
  0
LINE
  8
0
 10
56.6978
 20
199.554
 11
55.3222
 21
200.31
  0
LINE
  8
0
 10
55.3222
 20
200.31
 11
53.8627
 21
200.888
  0
LINE
  8
0
 10
53.8627
 20
200.888
 11
52.3423
 21
201.279
  0
LINE
  8
0
 10
52.3423
 20
201.279
 11
50.7849
 21
201.475
  0
LINE
  8
0
 10
50.7849
 20
201.475
 11
49.2151
 21
201.475
  0
LINE
  8
0
 10
49.2151
 20
201.475
 11
47.6577
 21
201.279
  0
LINE
  8
0
 10
47.6577
 20
201.279
 11
46.1373
 21
200.888
  0
LINE
  8
0
 10
46.1373
 20
200.888
 11
44.6777
 21
200.31
  0
LINE
  8
0
 10
44.6777
 20
200.31
 11
43.3022
 21
199.554
  0
LINE
  8
0
 10
43.3022
 20
199.554
 11
42.0322
 21
198.631
  0
LINE
  8
0
 10
42.0322
 20
198.631
 11
40.8879
 21
197.557
  0
LINE
  8
0
 10
40.8879
 20
197.557
 11
39.8873
 21
196.347
  0
LINE
  8
0
 10
39.8873
 20
196.347
 11
39.0462
 21
195.022
  0
LINE
  8
0
 10
39.0462
 20
195.022
 11
38.3778
 21
193.602
  0
LINE
  8
0
 10
38.3778
 20
193.602
 11
37.8927
 21
192.109
  0
LINE
  8
0
 10
37.8927
 20
192.109
 11
37.5986
 21
190.567
  0
LINE
  8
0
 10
37.5986
 20
190.567
 11
37.5
 21
189
  0
LINE
  8
0
 10
37.5
 20
189
 11
37.5986
 21
187.433
  0
LINE
  8
0
 10
37.5986
 20
187.433
 11
37.8927
 21
185.891
  0
LINE
  8
0
 10
37.8927
 20
185.891
 11
38.3778
 21
184.398
  0
LINE
  8
0
 10
38.3778
 20
184.398
 11
39.0462
 21
182.978
  0
LINE
  8
0
 10
39.0462
 20
182.978
 11
39.8873
 21
181.653
  0
LINE
  8
0
 10
39.8873
 20
181.653
 11
40.8879
 21
180.443
  0
LINE
  8
0
 10
40.8879
 20
180.443
 11
42.0322
 21
179.369
  0
LINE
  8
0
 10
42.0322
 20
179.369
 11
43.3022
 21
178.446
  0
LINE
  8
0
 10
43.3022
 20
178.446
 11
44.6777
 21
177.69
  0
LINE
  8
0
 10
44.6777
 20
177.69
 11
46.1373
 21
177.112
  0
LINE
  8
0
 10
46.1373
 20
177.112
 11
47.6577
 21
176.721
  0
LINE
  8
0
 10
47.6577
 20
176.721
 11
49.2151
 21
176.525
  0
LINE
  8
0
 10
49.2151
 20
176.525
 11
50.7849
 21
176.525
  0
LINE
  8
0
 10
50.7849
 20
176.525
 11
52.3423
 21
176.721
  0
LINE
  8
0
 10
49.887
 20
194.704
 11
49.6627
 21
194.732
  0
LINE
  8
0
 10
49.6627
 20
194.732
 11
49.4438
 21
194.788
  0
LINE
  8
0
 10
49.4438
 20
194.788
 11
49.2336
 21
194.871
  0
LINE
  8
0
 10
49.2336
 20
194.871
 11
49.0355
 21
194.98
  0
LINE
  8
0
 10
49.0355
 20
194.98
 11
48.8526
 21
195.113
  0
LINE
  8
0
 10
48.8526
 20
195.113
 11
48.6879
 21
195.268
  0
LINE
  8
0
 10
48.6879
 20
195.268
 11
48.5438
 21
195.442
  0
LINE
  8
0
 10
48.5438
 20
195.442
 11
48.4226
 21
195.633
  0
LINE
  8
0
 10
48.4226
 20
195.633
 11
48.3264
 21
195.837
  0
LINE
  8
0
 10
48.3264
 20
195.837
 11
48.2565
 21
196.052
  0
LINE
  8
0
 10
48.2565
 20
196.052
 11
48.2142
 21
196.274
  0
LINE
  8
0
 10
48.2142
 20
196.274
 11
48.2
 21
196.5
  0
LINE
  8
0
 10
48.2
 20
196.5
 11
48.2142
 21
196.726
  0
LINE
  8
0
 10
48.2142
 20
196.726
 11
48.2565
 21
196.948
  0
LINE
  8
0
 10
48.2565
 20
196.948
 11
48.3264
 21
197.163
  0
LINE
  8
0
 10
48.3264
 20
197.163
 11
48.4226
 21
197.367
  0
LINE
  8
0
 10
48.4226
 20
197.367
 11
48.5438
 21
197.558
  0
LINE
  8
0
 10
48.5438
 20
197.558
 11
48.6879
 21
197.732
  0
LINE
  8
0
 10
48.6879
 20
197.732
 11
48.8526
 21
197.887
  0
LINE
  8
0
 10
48.8526
 20
197.887
 11
49.0355
 21
198.02
  0
LINE
  8
0
 10
49.0355
 20
198.02
 11
49.2336
 21
198.129
  0
LINE
  8
0
 10
49.2336
 20
198.129
 11
49.4438
 21
198.212
  0
LINE
  8
0
 10
49.4438
 20
198.212
 11
49.6627
 21
198.268
  0
LINE
  8
0
 10
49.6627
 20
198.268
 11
49.887
 21
198.296
  0
LINE
  8
0
 10
49.887
 20
198.296
 11
50.113
 21
198.296
  0
LINE
  8
0
 10
50.113
 20
198.296
 11
50.3373
 21
198.268
  0
LINE
  8
0
 10
50.3373
 20
198.268
 11
50.5562
 21
198.212
  0
LINE
  8
0
 10
50.5562
 20
198.212
 11
50.7664
 21
198.129
  0
LINE
  8
0
 10
50.7664
 20
198.129
 11
50.9645
 21
198.02
  0
LINE
  8
0
 10
50.9645
 20
198.02
 11
51.1474
 21
197.887
  0
LINE
  8
0
 10
51.1474
 20
197.887
 11
51.3121
 21
197.732
  0
LINE
  8
0
 10
51.3121
 20
197.732
 11
51.4562
 21
197.558
  0
LINE
  8
0
 10
51.4562
 20
197.558
 11
51.5773
 21
197.367
  0
LINE
  8
0
 10
51.5773
 20
197.367
 11
51.6736
 21
197.163
  0
LINE
  8
0
 10
51.6736
 20
197.163
 11
51.7434
 21
196.948
  0
LINE
  8
0
 10
51.7434
 20
196.948
 11
51.7858
 21
196.726
  0
LINE
  8
0
 10
51.7858
 20
196.726
 11
51.8
 21
196.5
  0
LINE
  8
0
 10
51.8
 20
196.5
 11
51.7858
 21
196.274
  0
LINE
  8
0
 10
51.7858
 20
196.274
 11
51.7434
 21
196.052
  0
LINE
  8
0
 10
51.7434
 20
196.052
 11
51.6736
 21
195.837
  0
LINE
  8
0
 10
51.6736
 20
195.837
 11
51.5773
 21
195.633
  0
LINE
  8
0
 10
51.5773
 20
195.633
 11
51.4562
 21
195.442
  0
LINE
  8
0
 10
51.4562
 20
195.442
 11
51.3121
 21
195.268
  0
LINE
  8
0
 10
51.3121
 20
195.268
 11
51.1474
 21
195.113
  0
LINE
  8
0
 10
51.1474
 20
195.113
 11
50.9645
 21
194.98
  0
LINE
  8
0
 10
50.9645
 20
194.98
 11
50.7664
 21
194.871
  0
LINE
  8
0
 10
50.7664
 20
194.871
 11
50.5562
 21
194.788
  0
LINE
  8
0
 10
50.5562
 20
194.788
 11
50.3373
 21
194.732
  0
LINE
  8
0
 10
50.3373
 20
194.732
 11
50.113
 21
194.704
  0
LINE
  8
0
 10
50.113
 20
194.704
 11
49.887
 21
194.704
  0
LINE
  8
0
 10
55.2088
 20
192.806
 11
55.0219
 21
192.83
  0
LINE
  8
0
 10
55.0219
 20
192.83
 11
54.8395
 21
192.876
  0
LINE
  8
0
 10
54.8395
 20
192.876
 11
54.6643
 21
192.946
  0
LINE
  8
0
 10
54.6643
 20
192.946
 11
54.4993
 21
193.036
  0
LINE
  8
0
 10
54.4993
 20
193.036
 11
54.3469
 21
193.147
  0
LINE
  8
0
 10
54.3469
 20
193.147
 11
54.2095
 21
193.276
  0
LINE
  8
0
 10
54.2095
 20
193.276
 11
54.0895
 21
193.421
  0
LINE
  8
0
 10
54.0895
 20
193.421
 11
53.9885
 21
193.58
  0
LINE
  8
0
 10
53.9885
 20
193.58
 11
53.9083
 21
193.751
  0
LINE
  8
0
 10
53.9083
 20
193.751
 11
53.8501
 21
193.93
  0
LINE
  8
0
 10
53.8501
 20
193.93
 11
53.8148
 21
194.115
  0
LINE
  8
0
 10
53.8148
 20
194.115
 11
53.803
 21
194.303
  0
LINE
  8
0
 10
53.803
 20
194.303
 11
53.8148
 21
194.491
  0
LINE
  8
0
 10
53.8148
 20
194.491
 11
53.8501
 21
194.676
  0
LINE
  8
0
 10
53.8501
 20
194.676
 11
53.9083
 21
194.855
  0
LINE
  8
0
 10
53.9083
 20
194.855
 11
53.9885
 21
195.026
  0
LINE
  8
0
 10
53.9885
 20
195.026
 11
54.0895
 21
195.185
  0
LINE
  8
0
 10
54.0895
 20
195.185
 11
54.2095
 21
195.33
  0
LINE
  8
0
 10
54.2095
 20
195.33
 11
54.3469
 21
195.459
  0
LINE
  8
0
 10
54.3469
 20
195.459
 11
54.4993
 21
195.569
  0
LINE
  8
0
 10
54.4993
 20
195.569
 11
54.6643
 21
195.66
  0
LINE
  8
0
 10
54.6643
 20
195.66
 11
54.8395
 21
195.73
  0
LINE
  8
0
 10
54.8395
 20
195.73
 11
55.0219
 21
195.776
  0
LINE
  8
0
 10
55.0219
 20
195.776
 11
55.2088
 21
195.8
  0
LINE
  8
0
 10
55.2088
 20
195.8
 11
55.3972
 21
195.8
  0
LINE
  8
0
 10
55.3972
 20
195.8
 11
55.5841
 21
195.776
  0
LINE
  8
0
 10
55.5841
 20
195.776
 11
55.7665
 21
195.73
  0
LINE
  8
0
 10
55.7665
 20
195.73
 11
55.9417
 21
195.66
  0
LINE
  8
0
 10
55.9417
 20
195.66
 11
56.1067
 21
195.569
  0
LINE
  8
0
 10
56.1067
 20
195.569
 11
56.2591
 21
195.459
  0
LINE
  8
0
 10
56.2591
 20
195.459
 11
56.3965
 21
195.33
  0
LINE
  8
0
 10
56.3965
 20
195.33
 11
56.5165
 21
195.185
  0
LINE
  8
0
 10
56.5165
 20
195.185
 11
56.6174
 21
195.026
  0
LINE
  8
0
 10
56.6174
 20
195.026
 11
56.6977
 21
194.855
  0
LINE
  8
0
 10
56.6977
 20
194.855
 11
56.7559
 21
194.676
  0
LINE
  8
0
 10
56.7559
 20
194.676
 11
56.7912
 21
194.491
  0
LINE
  8
0
 10
56.7912
 20
194.491
 11
56.803
 21
194.303
  0
LINE
  8
0
 10
56.803
 20
194.303
 11
56.7912
 21
194.115
  0
LINE
  8
0
 10
56.7912
 20
194.115
 11
56.7559
 21
193.93
  0
LINE
  8
0
 10
56.7559
 20
193.93
 11
56.6977
 21
193.751
  0
LINE
  8
0
 10
56.6977
 20
193.751
 11
56.6174
 21
193.58
  0
LINE
  8
0
 10
56.6174
 20
193.58
 11
56.5165
 21
193.421
  0
LINE
  8
0
 10
56.5165
 20
193.421
 11
56.3965
 21
193.276
  0
LINE
  8
0
 10
56.3965
 20
193.276
 11
56.2591
 21
193.147
  0
LINE
  8
0
 10
56.2591
 20
193.147
 11
56.1067
 21
193.036
  0
LINE
  8
0
 10
56.1067
 20
193.036
 11
55.9417
 21
192.946
  0
LINE
  8
0
 10
55.9417
 20
192.946
 11
55.7665
 21
192.876
  0
LINE
  8
0
 10
55.7665
 20
192.876
 11
55.5841
 21
192.83
  0
LINE
  8
0
 10
55.5841
 20
192.83
 11
55.3972
 21
192.806
  0
LINE
  8
0
 10
55.3972
 20
192.806
 11
55.2088
 21
192.806
  0
LINE
  8
0
 10
44.6028
 20
192.806
 11
44.4159
 21
192.83
  0
LINE
  8
0
 10
44.4159
 20
192.83
 11
44.2335
 21
192.876
  0
LINE
  8
0
 10
44.2335
 20
192.876
 11
44.0583
 21
192.946
  0
LINE
  8
0
 10
44.0583
 20
192.946
 11
43.8932
 21
193.036
  0
LINE
  8
0
 10
43.8932
 20
193.036
 11
43.7409
 21
193.147
  0
LINE
  8
0
 10
43.7409
 20
193.147
 11
43.6035
 21
193.276
  0
LINE
  8
0
 10
43.6035
 20
193.276
 11
43.4835
 21
193.421
  0
LINE
  8
0
 10
43.4835
 20
193.421
 11
43.3825
 21
193.58
  0
LINE
  8
0
 10
43.3825
 20
193.58
 11
43.3023
 21
193.751
  0
LINE
  8
0
 10
43.3023
 20
193.751
 11
43.2441
 21
193.93
  0
LINE
  8
0
 10
43.2441
 20
193.93
 11
43.2088
 21
194.115
  0
LINE
  8
0
 10
43.2088
 20
194.115
 11
43.197
 21
194.303
  0
LINE
  8
0
 10
43.197
 20
194.303
 11
43.2088
 21
194.491
  0
LINE
  8
0
 10
43.2088
 20
194.491
 11
43.2441
 21
194.676
  0
LINE
  8
0
 10
43.2441
 20
194.676
 11
43.3023
 21
194.855
  0
LINE
  8
0
 10
43.3023
 20
194.855
 11
43.3825
 21
195.026
  0
LINE
  8
0
 10
43.3825
 20
195.026
 11
43.4835
 21
195.185
  0
LINE
  8
0
 10
43.4835
 20
195.185
 11
43.6035
 21
195.33
  0
LINE
  8
0
 10
43.6035
 20
195.33
 11
43.7409
 21
195.459
  0
LINE
  8
0
 10
43.7409
 20
195.459
 11
43.8932
 21
195.569
  0
LINE
  8
0
 10
43.8932
 20
195.569
 11
44.0583
 21
195.66
  0
LINE
  8
0
 10
44.0583
 20
195.66
 11
44.2335
 21
195.73
  0
LINE
  8
0
 10
44.2335
 20
195.73
 11
44.4159
 21
195.776
  0
LINE
  8
0
 10
44.4159
 20
195.776
 11
44.6028
 21
195.8
  0
LINE
  8
0
 10
44.6028
 20
195.8
 11
44.7912
 21
195.8
  0
LINE
  8
0
 10
44.7912
 20
195.8
 11
44.9781
 21
195.776
  0
LINE
  8
0
 10
44.9781
 20
195.776
 11
45.1605
 21
195.73
  0
LINE
  8
0
 10
45.1605
 20
195.73
 11
45.3357
 21
195.66
  0
LINE
  8
0
 10
45.3357
 20
195.66
 11
45.5007
 21
195.569
  0
LINE
  8
0
 10
45.5007
 20
195.569
 11
45.6531
 21
195.459
  0
LINE
  8
0
 10
45.6531
 20
195.459
 11
45.7905
 21
195.33
  0
LINE
  8
0
 10
45.7905
 20
195.33
 11
45.9105
 21
195.185
  0
LINE
  8
0
 10
45.9105
 20
195.185
 11
46.0115
 21
195.026
  0
LINE
  8
0
 10
46.0115
 20
195.026
 11
46.0917
 21
194.855
  0
LINE
  8
0
 10
46.0917
 20
194.855
 11
46.1499
 21
194.676
  0
LINE
  8
0
 10
46.1499
 20
194.676
 11
46.1852
 21
194.491
  0
LINE
  8
0
 10
46.1852
 20
194.491
 11
46.197
 21
194.303
  0
LINE
  8
0
 10
46.197
 20
194.303
 11
46.1852
 21
194.115
  0
LINE
  8
0
 10
46.1852
 20
194.115
 11
46.1499
 21
193.93
  0
LINE
  8
0
 10
46.1499
 20
193.93
 11
46.0917
 21
193.751
  0
LINE
  8
0
 10
46.0917
 20
193.751
 11
46.0115
 21
193.58
  0
LINE
  8
0
 10
46.0115
 20
193.58
 11
45.9105
 21
193.421
  0
LINE
  8
0
 10
45.9105
 20
193.421
 11
45.7905
 21
193.276
  0
LINE
  8
0
 10
45.7905
 20
193.276
 11
45.6531
 21
193.147
  0
LINE
  8
0
 10
45.6531
 20
193.147
 11
45.5007
 21
193.036
  0
LINE
  8
0
 10
45.5007
 20
193.036
 11
45.3357
 21
192.946
  0
LINE
  8
0
 10
45.3357
 20
192.946
 11
45.1605
 21
192.876
  0
LINE
  8
0
 10
45.1605
 20
192.876
 11
44.9781
 21
192.83
  0
LINE
  8
0
 10
44.9781
 20
192.83
 11
44.7912
 21
192.806
  0
LINE
  8
0
 10
44.7912
 20
192.806
 11
44.6028
 21
192.806
  0
LINE
  8
0
 10
49.8116
 20
186.006
 11
49.4379
 21
186.053
  0
LINE
  8
0
 10
49.4379
 20
186.053
 11
49.0729
 21
186.147
  0
LINE
  8
0
 10
49.0729
 20
186.147
 11
48.7227
 21
186.286
  0
LINE
  8
0
 10
48.7227
 20
186.286
 11
48.3925
 21
186.467
  0
LINE
  8
0
 10
48.3925
 20
186.467
 11
48.0877
 21
186.688
  0
LINE
  8
0
 10
48.0877
 20
186.688
 11
47.8131
 21
186.946
  0
LINE
  8
0
 10
47.8131
 20
186.946
 11
47.5729
 21
187.237
  0
LINE
  8
0
 10
47.5729
 20
187.237
 11
47.3711
 21
187.555
  0
LINE
  8
0
 10
47.3711
 20
187.555
 11
47.2107
 21
187.896
  0
LINE
  8
0
 10
47.2107
 20
187.896
 11
47.0942
 21
188.254
  0
LINE
  8
0
 10
47.0942
 20
188.254
 11
47.0237
 21
188.624
  0
LINE
  8
0
 10
47.0237
 20
188.624
 11
47
 21
189
  0
LINE
  8
0
 10
47
 20
189
 11
47.0237
 21
189.376
  0
LINE
  8
0
 10
47.0237
 20
189.376
 11
47.0942
 21
189.746
  0
LINE
  8
0
 10
47.0942
 20
189.746
 11
47.2107
 21
190.104
  0
LINE
  8
0
 10
47.2107
 20
190.104
 11
47.3711
 21
190.445
  0
LINE
  8
0
 10
47.3711
 20
190.445
 11
47.5729
 21
190.763
  0
LINE
  8
0
 10
47.5729
 20
190.763
 11
47.8131
 21
191.054
  0
LINE
  8
0
 10
47.8131
 20
191.054
 11
48.0877
 21
191.312
  0
LINE
  8
0
 10
48.0877
 20
191.312
 11
48.3925
 21
191.533
  0
LINE
  8
0
 10
48.3925
 20
191.533
 11
48.7227
 21
191.714
  0
LINE
  8
0
 10
48.7227
 20
191.714
 11
49.0729
 21
191.853
  0
LINE
  8
0
 10
49.0729
 20
191.853
 11
49.4379
 21
191.947
  0
LINE
  8
0
 10
49.4379
 20
191.947
 11
49.8116
 21
191.994
  0
LINE
  8
0
 10
49.8116
 20
191.994
 11
50.1884
 21
191.994
  0
LINE
  8
0
 10
50.1884
 20
191.994
 11
50.5621
 21
191.947
  0
LINE
  8
0
 10
50.5621
 20
191.947
 11
50.927
 21
191.853
  0
LINE
  8
0
 10
50.927
 20
191.853
 11
51.2773
 21
191.714
  0
LINE
  8
0
 10
51.2773
 20
191.714
 11
51.6075
 21
191.533
  0
LINE
  8
0
 10
51.6075
 20
191.533
 11
51.9123
 21
191.312
  0
LINE
  8
0
 10
51.9123
 20
191.312
 11
52.1869
 21
191.054
  0
LINE
  8
0
 10
52.1869
 20
191.054
 11
52.427
 21
190.763
  0
LINE
  8
0
 10
52.427
 20
190.763
 11
52.6289
 21
190.445
  0
LINE
  8
0
 10
52.6289
 20
190.445
 11
52.7893
 21
190.104
  0
LINE
  8
0
 10
52.7893
 20
190.104
 11
52.9057
 21
189.746
  0
LINE
  8
0
 10
52.9057
 20
189.746
 11
52.9763
 21
189.376
  0
LINE
  8
0
 10
52.9763
 20
189.376
 11
53
 21
189
  0
LINE
  8
0
 10
53
 20
189
 11
52.9763
 21
188.624
  0
LINE
  8
0
 10
52.9763
 20
188.624
 11
52.9057
 21
188.254
  0
LINE
  8
0
 10
52.9057
 20
188.254
 11
52.7893
 21
187.896
  0
LINE
  8
0
 10
52.7893
 20
187.896
 11
52.6289
 21
187.555
  0
LINE
  8
0
 10
52.6289
 20
187.555
 11
52.427
 21
187.237
  0
LINE
  8
0
 10
52.427
 20
187.237
 11
52.1869
 21
186.946
  0
LINE
  8
0
 10
52.1869
 20
186.946
 11
51.9123
 21
186.688
  0
LINE
  8
0
 10
51.9123
 20
186.688
 11
51.6075
 21
186.467
  0
LINE
  8
0
 10
51.6075
 20
186.467
 11
51.2773
 21
186.286
  0
LINE
  8
0
 10
51.2773
 20
186.286
 11
50.927
 21
186.147
  0
LINE
  8
0
 10
50.927
 20
186.147
 11
50.5621
 21
186.053
  0
LINE
  8
0
 10
50.5621
 20
186.053
 11
50.1884
 21
186.006
  0
LINE
  8
0
 10
50.1884
 20
186.006
 11
49.8116
 21
186.006
  0
LINE
  8
0
 10
57.387
 20
187.204
 11
57.1627
 21
187.232
  0
LINE
  8
0
 10
57.1627
 20
187.232
 11
56.9438
 21
187.288
  0
LINE
  8
0
 10
56.9438
 20
187.288
 11
56.7336
 21
187.371
  0
LINE
  8
0
 10
56.7336
 20
187.371
 11
56.5355
 21
187.48
  0
LINE
  8
0
 10
56.5355
 20
187.48
 11
56.3526
 21
187.613
  0
LINE
  8
0
 10
56.3526
 20
187.613
 11
56.1879
 21
187.768
  0
LINE
  8
0
 10
56.1879
 20
187.768
 11
56.0438
 21
187.942
  0
LINE
  8
0
 10
56.0438
 20
187.942
 11
55.9226
 21
188.133
  0
LINE
  8
0
 10
55.9226
 20
188.133
 11
55.8264
 21
188.337
  0
LINE
  8
0
 10
55.8264
 20
188.337
 11
55.7565
 21
188.552
  0
LINE
  8
0
 10
55.7565
 20
188.552
 11
55.7142
 21
188.774
  0
LINE
  8
0
 10
55.7142
 20
188.774
 11
55.7
 21
189
  0
LINE
  8
0
 10
55.7
 20
189
 11
55.7142
 21
189.226
  0
LINE
  8
0
 10
55.7142
 20
189.226
 11
55.7565
 21
189.448
  0
LINE
  8
0
 10
55.7565
 20
189.448
 11
55.8264
 21
189.663
  0
LINE
  8
0
 10
55.8264
 20
189.663
 11
55.9226
 21
189.867
  0
LINE
  8
0
 10
55.9226
 20
189.867
 11
56.0438
 21
190.058
  0
LINE
  8
0
 10
56.0438
 20
190.058
 11
56.1879
 21
190.232
  0
LINE
  8
0
 10
56.1879
 20
190.232
 11
56.3526
 21
190.387
  0
LINE
  8
0
 10
56.3526
 20
190.387
 11
56.5355
 21
190.52
  0
LINE
  8
0
 10
56.5355
 20
190.52
 11
56.7336
 21
190.629
  0
LINE
  8
0
 10
56.7336
 20
190.629
 11
56.9438
 21
190.712
  0
LINE
  8
0
 10
56.9438
 20
190.712
 11
57.1627
 21
190.768
  0
LINE
  8
0
 10
57.1627
 20
190.768
 11
57.387
 21
190.796
  0
LINE
  8
0
 10
57.387
 20
190.796
 11
57.613
 21
190.796
  0
LINE
  8
0
 10
57.613
 20
190.796
 11
57.8373
 21
190.768
  0
LINE
  8
0
 10
57.8373
 20
190.768
 11
58.0562
 21
190.712
  0
LINE
  8
0
 10
58.0562
 20
190.712
 11
58.2664
 21
190.629
  0
LINE
  8
0
 10
58.2664
 20
190.629
 11
58.4645
 21
190.52
  0
LINE
  8
0
 10
58.4645
 20
190.52
 11
58.6474
 21
190.387
  0
LINE
  8
0
 10
58.6474
 20
190.387
 11
58.8121
 21
190.232
  0
LINE
  8
0
 10
58.8121
 20
190.232
 11
58.9562
 21
190.058
  0
LINE
  8
0
 10
58.9562
 20
190.058
 11
59.0773
 21
189.867
  0
LINE
  8
0
 10
59.0773
 20
189.867
 11
59.1736
 21
189.663
  0
LINE
  8
0
 10
59.1736
 20
189.663
 11
59.2434
 21
189.448
  0
LINE
  8
0
 10
59.2434
 20
189.448
 11
59.2858
 21
189.226
  0
LINE
  8
0
 10
59.2858
 20
189.226
 11
59.3
 21
189
  0
LINE
  8
0
 10
59.3
 20
189
 11
59.2858
 21
188.774
  0
LINE
  8
0
 10
59.2858
 20
188.774
 11
59.2434
 21
188.552
  0
LINE
  8
0
 10
59.2434
 20
188.552
 11
59.1736
 21
188.337
  0
LINE
  8
0
 10
59.1736
 20
188.337
 11
59.0773
 21
188.133
  0
LINE
  8
0
 10
59.0773
 20
188.133
 11
58.9562
 21
187.942
  0
LINE
  8
0
 10
58.9562
 20
187.942
 11
58.8121
 21
187.768
  0
LINE
  8
0
 10
58.8121
 20
187.768
 11
58.6474
 21
187.613
  0
LINE
  8
0
 10
58.6474
 20
187.613
 11
58.4645
 21
187.48
  0
LINE
  8
0
 10
58.4645
 20
187.48
 11
58.2664
 21
187.371
  0
LINE
  8
0
 10
58.2664
 20
187.371
 11
58.0562
 21
187.288
  0
LINE
  8
0
 10
58.0562
 20
187.288
 11
57.8373
 21
187.232
  0
LINE
  8
0
 10
57.8373
 20
187.232
 11
57.613
 21
187.204
  0
LINE
  8
0
 10
57.613
 20
187.204
 11
57.387
 21
187.204
  0
LINE
  8
0
 10
42.387
 20
187.204
 11
42.1627
 21
187.232
  0
LINE
  8
0
 10
42.1627
 20
187.232
 11
41.9438
 21
187.288
  0
LINE
  8
0
 10
41.9438
 20
187.288
 11
41.7336
 21
187.371
  0
LINE
  8
0
 10
41.7336
 20
187.371
 11
41.5355
 21
187.48
  0
LINE
  8
0
 10
41.5355
 20
187.48
 11
41.3526
 21
187.613
  0
LINE
  8
0
 10
41.3526
 20
187.613
 11
41.1879
 21
187.768
  0
LINE
  8
0
 10
41.1879
 20
187.768
 11
41.0438
 21
187.942
  0
LINE
  8
0
 10
41.0438
 20
187.942
 11
40.9226
 21
188.133
  0
LINE
  8
0
 10
40.9226
 20
188.133
 11
40.8264
 21
188.337
  0
LINE
  8
0
 10
40.8264
 20
188.337
 11
40.7565
 21
188.552
  0
LINE
  8
0
 10
40.7565
 20
188.552
 11
40.7142
 21
188.774
  0
LINE
  8
0
 10
40.7142
 20
188.774
 11
40.7
 21
189
  0
LINE
  8
0
 10
40.7
 20
189
 11
40.7142
 21
189.226
  0
LINE
  8
0
 10
40.7142
 20
189.226
 11
40.7565
 21
189.448
  0
LINE
  8
0
 10
40.7565
 20
189.448
 11
40.8264
 21
189.663
  0
LINE
  8
0
 10
40.8264
 20
189.663
 11
40.9226
 21
189.867
  0
LINE
  8
0
 10
40.9226
 20
189.867
 11
41.0438
 21
190.058
  0
LINE
  8
0
 10
41.0438
 20
190.058
 11
41.1879
 21
190.232
  0
LINE
  8
0
 10
41.1879
 20
190.232
 11
41.3526
 21
190.387
  0
LINE
  8
0
 10
41.3526
 20
190.387
 11
41.5355
 21
190.52
  0
LINE
  8
0
 10
41.5355
 20
190.52
 11
41.7336
 21
190.629
  0
LINE
  8
0
 10
41.7336
 20
190.629
 11
41.9438
 21
190.712
  0
LINE
  8
0
 10
41.9438
 20
190.712
 11
42.1627
 21
190.768
  0
LINE
  8
0
 10
42.1627
 20
190.768
 11
42.387
 21
190.796
  0
LINE
  8
0
 10
42.387
 20
190.796
 11
42.613
 21
190.796
  0
LINE
  8
0
 10
42.613
 20
190.796
 11
42.8373
 21
190.768
  0
LINE
  8
0
 10
42.8373
 20
190.768
 11
43.0562
 21
190.712
  0
LINE
  8
0
 10
43.0562
 20
190.712
 11
43.2664
 21
190.629
  0
LINE
  8
0
 10
43.2664
 20
190.629
 11
43.4645
 21
190.52
  0
LINE
  8
0
 10
43.4645
 20
190.52
 11
43.6474
 21
190.387
  0
LINE
  8
0
 10
43.6474
 20
190.387
 11
43.8121
 21
190.232
  0
LINE
  8
0
 10
43.8121
 20
190.232
 11
43.9562
 21
190.058
  0
LINE
  8
0
 10
43.9562
 20
190.058
 11
44.0773
 21
189.867
  0
LINE
  8
0
 10
44.0773
 20
189.867
 11
44.1736
 21
189.663
  0
LINE
  8
0
 10
44.1736
 20
189.663
 11
44.2434
 21
189.448
  0
LINE
  8
0
 10
44.2434
 20
189.448
 11
44.2858
 21
189.226
  0
LINE
  8
0
 10
44.2858
 20
189.226
 11
44.3
 21
189
  0
LINE
  8
0
 10
44.3
 20
189
 11
44.2858
 21
188.774
  0
LINE
  8
0
 10
44.2858
 20
188.774
 11
44.2434
 21
188.552
  0
LINE
  8
0
 10
44.2434
 20
188.552
 11
44.1736
 21
188.337
  0
LINE
  8
0
 10
44.1736
 20
188.337
 11
44.0773
 21
188.133
  0
LINE
  8
0
 10
44.0773
 20
188.133
 11
43.9562
 21
187.942
  0
LINE
  8
0
 10
43.9562
 20
187.942
 11
43.8121
 21
187.768
  0
LINE
  8
0
 10
43.8121
 20
187.768
 11
43.6474
 21
187.613
  0
LINE
  8
0
 10
43.6474
 20
187.613
 11
43.4645
 21
187.48
  0
LINE
  8
0
 10
43.4645
 20
187.48
 11
43.2664
 21
187.371
  0
LINE
  8
0
 10
43.2664
 20
187.371
 11
43.0562
 21
187.288
  0
LINE
  8
0
 10
43.0562
 20
187.288
 11
42.8373
 21
187.232
  0
LINE
  8
0
 10
42.8373
 20
187.232
 11
42.613
 21
187.204
  0
LINE
  8
0
 10
42.613
 20
187.204
 11
42.387
 21
187.204
  0
LINE
  8
0
 10
55.2088
 20
182.2
 11
55.0219
 21
182.224
  0
LINE
  8
0
 10
55.0219
 20
182.224
 11
54.8395
 21
182.27
  0
LINE
  8
0
 10
54.8395
 20
182.27
 11
54.6643
 21
182.34
  0
LINE
  8
0
 10
54.6643
 20
182.34
 11
54.4993
 21
182.431
  0
LINE
  8
0
 10
54.4993
 20
182.431
 11
54.3469
 21
182.541
  0
LINE
  8
0
 10
54.3469
 20
182.541
 11
54.2095
 21
182.67
  0
LINE
  8
0
 10
54.2095
 20
182.67
 11
54.0895
 21
182.815
  0
LINE
  8
0
 10
54.0895
 20
182.815
 11
53.9885
 21
182.974
  0
LINE
  8
0
 10
53.9885
 20
182.974
 11
53.9083
 21
183.145
  0
LINE
  8
0
 10
53.9083
 20
183.145
 11
53.8501
 21
183.324
  0
LINE
  8
0
 10
53.8501
 20
183.324
 11
53.8148
 21
183.509
  0
LINE
  8
0
 10
53.8148
 20
183.509
 11
53.803
 21
183.697
  0
LINE
  8
0
 10
53.803
 20
183.697
 11
53.8148
 21
183.885
  0
LINE
  8
0
 10
53.8148
 20
183.885
 11
53.8501
 21
184.07
  0
LINE
  8
0
 10
53.8501
 20
184.07
 11
53.9083
 21
184.249
  0
LINE
  8
0
 10
53.9083
 20
184.249
 11
53.9885
 21
184.42
  0
LINE
  8
0
 10
53.9885
 20
184.42
 11
54.0895
 21
184.579
  0
LINE
  8
0
 10
54.0895
 20
184.579
 11
54.2095
 21
184.724
  0
LINE
  8
0
 10
54.2095
 20
184.724
 11
54.3469
 21
184.853
  0
LINE
  8
0
 10
54.3469
 20
184.853
 11
54.4993
 21
184.964
  0
LINE
  8
0
 10
54.4993
 20
184.964
 11
54.6643
 21
185.054
  0
LINE
  8
0
 10
54.6643
 20
185.054
 11
54.8395
 21
185.124
  0
LINE
  8
0
 10
54.8395
 20
185.124
 11
55.0219
 21
185.17
  0
LINE
  8
0
 10
55.0219
 20
185.17
 11
55.2088
 21
185.194
  0
LINE
  8
0
 10
55.2088
 20
185.194
 11
55.3972
 21
185.194
  0
LINE
  8
0
 10
55.3972
 20
185.194
 11
55.5841
 21
185.17
  0
LINE
  8
0
 10
55.5841
 20
185.17
 11
55.7665
 21
185.124
  0
LINE
  8
0
 10
55.7665
 20
185.124
 11
55.9417
 21
185.054
  0
LINE
  8
0
 10
55.9417
 20
185.054
 11
56.1067
 21
184.964
  0
LINE
  8
0
 10
56.1067
 20
184.964
 11
56.2591
 21
184.853
  0
LINE
  8
0
 10
56.2591
 20
184.853
 11
56.3965
 21
184.724
  0
LINE
  8
0
 10
56.3965
 20
184.724
 11
56.5165
 21
184.579
  0
LINE
  8
0
 10
56.5165
 20
184.579
 11
56.6174
 21
184.42
  0
LINE
  8
0
 10
56.6174
 20
184.42
 11
56.6977
 21
184.249
  0
LINE
  8
0
 10
56.6977
 20
184.249
 11
56.7559
 21
184.07
  0
LINE
  8
0
 10
56.7559
 20
184.07
 11
56.7912
 21
183.885
  0
LINE
  8
0
 10
56.7912
 20
183.885
 11
56.803
 21
183.697
  0
LINE
  8
0
 10
56.803
 20
183.697
 11
56.7912
 21
183.509
  0
LINE
  8
0
 10
56.7912
 20
183.509
 11
56.7559
 21
183.324
  0
LINE
  8
0
 10
56.7559
 20
183.324
 11
56.6977
 21
183.145
  0
LINE
  8
0
 10
56.6977
 20
183.145
 11
56.6174
 21
182.974
  0
LINE
  8
0
 10
56.6174
 20
182.974
 11
56.5165
 21
182.815
  0
LINE
  8
0
 10
56.5165
 20
182.815
 11
56.3965
 21
182.67
  0
LINE
  8
0
 10
56.3965
 20
182.67
 11
56.2591
 21
182.541
  0
LINE
  8
0
 10
56.2591
 20
182.541
 11
56.1067
 21
182.431
  0
LINE
  8
0
 10
56.1067
 20
182.431
 11
55.9417
 21
182.34
  0
LINE
  8
0
 10
55.9417
 20
182.34
 11
55.7665
 21
182.27
  0
LINE
  8
0
 10
55.7665
 20
182.27
 11
55.5841
 21
182.224
  0
LINE
  8
0
 10
55.5841
 20
182.224
 11
55.3972
 21
182.2
  0
LINE
  8
0
 10
55.3972
 20
182.2
 11
55.2088
 21
182.2
  0
LINE
  8
0
 10
44.6028
 20
182.2
 11
44.4159
 21
182.224
  0
LINE
  8
0
 10
44.4159
 20
182.224
 11
44.2335
 21
182.27
  0
LINE
  8
0
 10
44.2335
 20
182.27
 11
44.0583
 21
182.34
  0
LINE
  8
0
 10
44.0583
 20
182.34
 11
43.8932
 21
182.431
  0
LINE
  8
0
 10
43.8932
 20
182.431
 11
43.7409
 21
182.541
  0
LINE
  8
0
 10
43.7409
 20
182.541
 11
43.6035
 21
182.67
  0
LINE
  8
0
 10
43.6035
 20
182.67
 11
43.4835
 21
182.815
  0
LINE
  8
0
 10
43.4835
 20
182.815
 11
43.3825
 21
182.974
  0
LINE
  8
0
 10
43.3825
 20
182.974
 11
43.3023
 21
183.145
  0
LINE
  8
0
 10
43.3023
 20
183.145
 11
43.2441
 21
183.324
  0
LINE
  8
0
 10
43.2441
 20
183.324
 11
43.2088
 21
183.509
  0
LINE
  8
0
 10
43.2088
 20
183.509
 11
43.197
 21
183.697
  0
LINE
  8
0
 10
43.197
 20
183.697
 11
43.2088
 21
183.885
  0
LINE
  8
0
 10
43.2088
 20
183.885
 11
43.2441
 21
184.07
  0
LINE
  8
0
 10
43.2441
 20
184.07
 11
43.3023
 21
184.249
  0
LINE
  8
0
 10
43.3023
 20
184.249
 11
43.3825
 21
184.42
  0
LINE
  8
0
 10
43.3825
 20
184.42
 11
43.4835
 21
184.579
  0
LINE
  8
0
 10
43.4835
 20
184.579
 11
43.6035
 21
184.724
  0
LINE
  8
0
 10
43.6035
 20
184.724
 11
43.7409
 21
184.853
  0
LINE
  8
0
 10
43.7409
 20
184.853
 11
43.8932
 21
184.964
  0
LINE
  8
0
 10
43.8932
 20
184.964
 11
44.0583
 21
185.054
  0
LINE
  8
0
 10
44.0583
 20
185.054
 11
44.2335
 21
185.124
  0
LINE
  8
0
 10
44.2335
 20
185.124
 11
44.4159
 21
185.17
  0
LINE
  8
0
 10
44.4159
 20
185.17
 11
44.6028
 21
185.194
  0
LINE
  8
0
 10
44.6028
 20
185.194
 11
44.7912
 21
185.194
  0
LINE
  8
0
 10
44.7912
 20
185.194
 11
44.9781
 21
185.17
  0
LINE
  8
0
 10
44.9781
 20
185.17
 11
45.1605
 21
185.124
  0
LINE
  8
0
 10
45.1605
 20
185.124
 11
45.3357
 21
185.054
  0
LINE
  8
0
 10
45.3357
 20
185.054
 11
45.5007
 21
184.964
  0
LINE
  8
0
 10
45.5007
 20
184.964
 11
45.6531
 21
184.853
  0
LINE
  8
0
 10
45.6531
 20
184.853
 11
45.7905
 21
184.724
  0
LINE
  8
0
 10
45.7905
 20
184.724
 11
45.9105
 21
184.579
  0
LINE
  8
0
 10
45.9105
 20
184.579
 11
46.0115
 21
184.42
  0
LINE
  8
0
 10
46.0115
 20
184.42
 11
46.0917
 21
184.249
  0
LINE
  8
0
 10
46.0917
 20
184.249
 11
46.1499
 21
184.07
  0
LINE
  8
0
 10
46.1499
 20
184.07
 11
46.1852
 21
183.885
  0
LINE
  8
0
 10
46.1852
 20
183.885
 11
46.197
 21
183.697
  0
LINE
  8
0
 10
46.197
 20
183.697
 11
46.1852
 21
183.509
  0
LINE
  8
0
 10
46.1852
 20
183.509
 11
46.1499
 21
183.324
  0
LINE
  8
0
 10
46.1499
 20
183.324
 11
46.0917
 21
183.145
  0
LINE
  8
0
 10
46.0917
 20
183.145
 11
46.0115
 21
182.974
  0
LINE
  8
0
 10
46.0115
 20
182.974
 11
45.9105
 21
182.815
  0
LINE
  8
0
 10
45.9105
 20
182.815
 11
45.7905
 21
182.67
  0
LINE
  8
0
 10
45.7905
 20
182.67
 11
45.6531
 21
182.541
  0
LINE
  8
0
 10
45.6531
 20
182.541
 11
45.5007
 21
182.431
  0
LINE
  8
0
 10
45.5007
 20
182.431
 11
45.3357
 21
182.34
  0
LINE
  8
0
 10
45.3357
 20
182.34
 11
45.1605
 21
182.27
  0
LINE
  8
0
 10
45.1605
 20
182.27
 11
44.9781
 21
182.224
  0
LINE
  8
0
 10
44.9781
 20
182.224
 11
44.7912
 21
182.2
  0
LINE
  8
0
 10
44.7912
 20
182.2
 11
44.6028
 21
182.2
  0
LINE
  8
0
 10
49.887
 20
179.704
 11
49.6627
 21
179.732
  0
LINE
  8
0
 10
49.6627
 20
179.732
 11
49.4438
 21
179.788
  0
LINE
  8
0
 10
49.4438
 20
179.788
 11
49.2336
 21
179.871
  0
LINE
  8
0
 10
49.2336
 20
179.871
 11
49.0355
 21
179.98
  0
LINE
  8
0
 10
49.0355
 20
179.98
 11
48.8526
 21
180.113
  0
LINE
  8
0
 10
48.8526
 20
180.113
 11
48.6879
 21
180.268
  0
LINE
  8
0
 10
48.6879
 20
180.268
 11
48.5438
 21
180.442
  0
LINE
  8
0
 10
48.5438
 20
180.442
 11
48.4226
 21
180.633
  0
LINE
  8
0
 10
48.4226
 20
180.633
 11
48.3264
 21
180.837
  0
LINE
  8
0
 10
48.3264
 20
180.837
 11
48.2565
 21
181.052
  0
LINE
  8
0
 10
48.2565
 20
181.052
 11
48.2142
 21
181.274
  0
LINE
  8
0
 10
48.2142
 20
181.274
 11
48.2
 21
181.5
  0
LINE
  8
0
 10
48.2
 20
181.5
 11
48.2142
 21
181.726
  0
LINE
  8
0
 10
48.2142
 20
181.726
 11
48.2565
 21
181.948
  0
LINE
  8
0
 10
48.2565
 20
181.948
 11
48.3264
 21
182.163
  0
LINE
  8
0
 10
48.3264
 20
182.163
 11
48.4226
 21
182.367
  0
LINE
  8
0
 10
48.4226
 20
182.367
 11
48.5438
 21
182.558
  0
LINE
  8
0
 10
48.5438
 20
182.558
 11
48.6879
 21
182.732
  0
LINE
  8
0
 10
48.6879
 20
182.732
 11
48.8526
 21
182.887
  0
LINE
  8
0
 10
48.8526
 20
182.887
 11
49.0355
 21
183.02
  0
LINE
  8
0
 10
49.0355
 20
183.02
 11
49.2336
 21
183.129
  0
LINE
  8
0
 10
49.2336
 20
183.129
 11
49.4438
 21
183.212
  0
LINE
  8
0
 10
49.4438
 20
183.212
 11
49.6627
 21
183.268
  0
LINE
  8
0
 10
49.6627
 20
183.268
 11
49.887
 21
183.296
  0
LINE
  8
0
 10
49.887
 20
183.296
 11
50.113
 21
183.296
  0
LINE
  8
0
 10
50.113
 20
183.296
 11
50.3373
 21
183.268
  0
LINE
  8
0
 10
50.3373
 20
183.268
 11
50.5562
 21
183.212
  0
LINE
  8
0
 10
50.5562
 20
183.212
 11
50.7664
 21
183.129
  0
LINE
  8
0
 10
50.7664
 20
183.129
 11
50.9645
 21
183.02
  0
LINE
  8
0
 10
50.9645
 20
183.02
 11
51.1474
 21
182.887
  0
LINE
  8
0
 10
51.1474
 20
182.887
 11
51.3121
 21
182.732
  0
LINE
  8
0
 10
51.3121
 20
182.732
 11
51.4562
 21
182.558
  0
LINE
  8
0
 10
51.4562
 20
182.558
 11
51.5773
 21
182.367
  0
LINE
  8
0
 10
51.5773
 20
182.367
 11
51.6736
 21
182.163
  0
LINE
  8
0
 10
51.6736
 20
182.163
 11
51.7434
 21
181.948
  0
LINE
  8
0
 10
51.7434
 20
181.948
 11
51.7858
 21
181.726
  0
LINE
  8
0
 10
51.7858
 20
181.726
 11
51.8
 21
181.5
  0
LINE
  8
0
 10
51.8
 20
181.5
 11
51.7858
 21
181.274
  0
LINE
  8
0
 10
51.7858
 20
181.274
 11
51.7434
 21
181.052
  0
LINE
  8
0
 10
51.7434
 20
181.052
 11
51.6736
 21
180.837
  0
LINE
  8
0
 10
51.6736
 20
180.837
 11
51.5773
 21
180.633
  0
LINE
  8
0
 10
51.5773
 20
180.633
 11
51.4562
 21
180.442
  0
LINE
  8
0
 10
51.4562
 20
180.442
 11
51.3121
 21
180.268
  0
LINE
  8
0
 10
51.3121
 20
180.268
 11
51.1474
 21
180.113
  0
LINE
  8
0
 10
51.1474
 20
180.113
 11
50.9645
 21
179.98
  0
LINE
  8
0
 10
50.9645
 20
179.98
 11
50.7664
 21
179.871
  0
LINE
  8
0
 10
50.7664
 20
179.871
 11
50.5562
 21
179.788
  0
LINE
  8
0
 10
50.5562
 20
179.788
 11
50.3373
 21
179.732
  0
LINE
  8
0
 10
50.3373
 20
179.732
 11
50.113
 21
179.704
  0
LINE
  8
0
 10
50.113
 20
179.704
 11
49.887
 21
179.704
  0
LINE
  8
0
 10
2.57649
 20
-13.5064
 11
4.24898
 21
-13.077
  0
LINE
  8
0
 10
4.24898
 20
-13.077
 11
5.85446
 21
-12.4414
  0
LINE
  8
0
 10
5.85446
 20
-12.4414
 11
7.36761
 21
-11.6095
  0
LINE
  8
0
 10
7.36761
 20
-11.6095
 11
8.76457
 21
-10.5945
  0
LINE
  8
0
 10
8.76457
 20
-10.5945
 11
10.0233
 21
-9.41252
  0
LINE
  8
0
 10
10.0233
 20
-9.41252
 11
11.124
 21
-8.08205
  0
LINE
  8
0
 10
11.124
 20
-8.08205
 11
12.0492
 21
-6.6241
  0
LINE
  8
0
 10
12.0492
 20
-6.6241
 11
12.7844
 21
-5.06171
  0
LINE
  8
0
 10
12.7844
 20
-5.06171
 11
13.318
 21
-3.41948
  0
LINE
  8
0
 10
13.318
 20
-3.41948
 11
13.6416
 21
-1.72333
  0
LINE
  8
0
 10
13.6416
 20
-1.72333
 11
13.75
 21
0
  0
LINE
  8
0
 10
13.75
 20
0
 11
13.6416
 21
1.72333
  0
LINE
  8
0
 10
13.6416
 20
1.72333
 11
13.318
 21
3.41948
  0
LINE
  8
0
 10
13.318
 20
3.41948
 11
12.7844
 21
5.06171
  0
LINE
  8
0
 10
12.7844
 20
5.06171
 11
12.0492
 21
6.6241
  0
LINE
  8
0
 10
12.0492
 20
6.6241
 11
11.124
 21
8.08205
  0
LINE
  8
0
 10
11.124
 20
8.08205
 11
10.0233
 21
9.41252
  0
LINE
  8
0
 10
10.0233
 20
9.41252
 11
8.76457
 21
10.5945
  0
LINE
  8
0
 10
8.76457
 20
10.5945
 11
7.36761
 21
11.6095
  0
LINE
  8
0
 10
7.36761
 20
11.6095
 11
5.85446
 21
12.4414
  0
LINE
  8
0
 10
5.85446
 20
12.4414
 11
4.24898
 21
13.077
  0
LINE
  8
0
 10
4.24898
 20
13.077
 11
2.57649
 21
13.5064
  0
LINE
  8
0
 10
2.57649
 20
13.5064
 11
0.863358
 21
13.7229
  0
LINE
  8
0
 10
0.863358
 20
13.7229
 11
-0.863358
 21
13.7229
  0
LINE
  8
0
 10
-0.863358
 20
13.7229
 11
-2.57649
 21
13.5064
  0
LINE
  8
0
 10
-2.57649
 20
13.5064
 11
-4.24898
 21
13.077
  0
LINE
  8
0
 10
-4.24898
 20
13.077
 11
-5.85446
 21
12.4414
  0
LINE
  8
0
 10
-5.85446
 20
12.4414
 11
-7.36761
 21
11.6095
  0
LINE
  8
0
 10
-7.36761
 20
11.6095
 11
-8.76457
 21
10.5945
  0
LINE
  8
0
 10
-8.76457
 20
10.5945
 11
-10.0233
 21
9.41252
  0
LINE
  8
0
 10
-10.0233
 20
9.41252
 11
-11.124
 21
8.08205
  0
LINE
  8
0
 10
-11.124
 20
8.08205
 11
-12.0492
 21
6.6241
  0
LINE
  8
0
 10
-12.0492
 20
6.6241
 11
-12.7844
 21
5.06171
  0
LINE
  8
0
 10
-12.7844
 20
5.06171
 11
-13.318
 21
3.41948
  0
LINE
  8
0
 10
-13.318
 20
3.41948
 11
-13.6416
 21
1.72333
  0
LINE
  8
0
 10
-13.6416
 20
1.72333
 11
-13.75
 21
0
  0
LINE
  8
0
 10
-13.75
 20
0
 11
-13.6416
 21
-1.72333
  0
LINE
  8
0
 10
-13.6416
 20
-1.72333
 11
-13.318
 21
-3.41948
  0
LINE
  8
0
 10
-13.318
 20
-3.41948
 11
-12.7844
 21
-5.06171
  0
LINE
  8
0
 10
-12.7844
 20
-5.06171
 11
-12.0492
 21
-6.6241
  0
LINE
  8
0
 10
-12.0492
 20
-6.6241
 11
-11.124
 21
-8.08205
  0
LINE
  8
0
 10
-11.124
 20
-8.08205
 11
-10.0233
 21
-9.41252
  0
LINE
  8
0
 10
-10.0233
 20
-9.41252
 11
-8.76457
 21
-10.5945
  0
LINE
  8
0
 10
-8.76457
 20
-10.5945
 11
-7.36761
 21
-11.6095
  0
LINE
  8
0
 10
-7.36761
 20
-11.6095
 11
-5.85446
 21
-12.4414
  0
LINE
  8
0
 10
-5.85446
 20
-12.4414
 11
-4.24898
 21
-13.077
  0
LINE
  8
0
 10
-4.24898
 20
-13.077
 11
-2.57649
 21
-13.5064
  0
LINE
  8
0
 10
-2.57649
 20
-13.5064
 11
-0.863358
 21
-13.7229
  0
LINE
  8
0
 10
-0.863358
 20
-13.7229
 11
0.863358
 21
-13.7229
  0
LINE
  8
0
 10
0.863358
 20
-13.7229
 11
2.57649
 21
-13.5064
  0
LINE
  8
0
 10
-1.58675
 20
4.75168
 11
-3.17349
 21
7.5
  0
LINE
  8
0
 10
-3.17349
 20
7.5
 11
-1.58675
 21
10.2483
  0
LINE
  8
0
 10
-1.58675
 20
10.2483
 11
1.58675
 21
10.2483
  0
LINE
  8
0
 10
1.58675
 20
10.2483
 11
3.17349
 21
7.5
  0
LINE
  8
0
 10
3.17349
 20
7.5
 11
1.58675
 21
4.75168
  0
LINE
  8
0
 10
1.58675
 20
4.75168
 11
-1.58675
 21
4.75168
  0
LINE
  8
0
 10
5.2088
 20
3.80595
 11
5.02193
 21
3.82956
  0
LINE
  8
0
 10
5.02193
 20
3.82956
 11
4.83946
 21
3.8764
  0
LINE
  8
0
 10
4.83946
 20
3.8764
 11
4.66432
 21
3.94576
  0
LINE
  8
0
 10
4.66432
 20
3.94576
 11
4.49925
 21
4.0365
  0
LINE
  8
0
 10
4.49925
 20
4.0365
 11
4.34686
 21
4.14722
  0
LINE
  8
0
 10
4.34686
 20
4.14722
 11
4.20953
 21
4.27617
  0
LINE
  8
0
 10
4.20953
 20
4.27617
 11
4.08946
 21
4.42131
  0
LINE
  8
0
 10
4.08946
 20
4.42131
 11
3.98853
 21
4.58037
  0
LINE
  8
0
 10
3.98853
 20
4.58037
 11
3.90833
 21
4.75081
  0
LINE
  8
0
 10
3.90833
 20
4.75081
 11
3.85011
 21
4.92996
  0
LINE
  8
0
 10
3.85011
 20
4.92996
 11
3.81482
 21
5.11499
  0
LINE
  8
0
 10
3.81482
 20
5.11499
 11
3.80299
 21
5.30299
  0
LINE
  8
0
 10
3.80299
 20
5.30299
 11
3.81482
 21
5.491
  0
LINE
  8
0
 10
3.81482
 20
5.491
 11
3.85011
 21
5.67603
  0
LINE
  8
0
 10
3.85011
 20
5.67603
 11
3.90833
 21
5.85518
  0
LINE
  8
0
 10
3.90833
 20
5.85518
 11
3.98853
 21
6.02562
  0
LINE
  8
0
 10
3.98853
 20
6.02562
 11
4.08946
 21
6.18468
  0
LINE
  8
0
 10
4.08946
 20
6.18468
 11
4.20953
 21
6.32982
  0
LINE
  8
0
 10
4.20953
 20
6.32982
 11
4.34686
 21
6.45876
  0
LINE
  8
0
 10
4.34686
 20
6.45876
 11
4.49925
 21
6.56949
  0
LINE
  8
0
 10
4.49925
 20
6.56949
 11
4.66432
 21
6.66023
  0
LINE
  8
0
 10
4.66432
 20
6.66023
 11
4.83946
 21
6.72958
  0
LINE
  8
0
 10
4.83946
 20
6.72958
 11
5.02193
 21
6.77643
  0
LINE
  8
0
 10
5.02193
 20
6.77643
 11
5.2088
 21
6.80003
  0
LINE
  8
0
 10
5.2088
 20
6.80003
 11
5.39717
 21
6.80003
  0
LINE
  8
0
 10
5.39717
 20
6.80003
 11
5.58406
 21
6.77643
  0
LINE
  8
0
 10
5.58406
 20
6.77643
 11
5.76653
 21
6.72958
  0
LINE
  8
0
 10
5.76653
 20
6.72958
 11
5.94167
 21
6.66023
  0
LINE
  8
0
 10
5.94167
 20
6.66023
 11
6.10674
 21
6.56949
  0
LINE
  8
0
 10
6.10674
 20
6.56949
 11
6.25912
 21
6.45876
  0
LINE
  8
0
 10
6.25912
 20
6.45876
 11
6.39644
 21
6.32982
  0
LINE
  8
0
 10
6.39644
 20
6.32982
 11
6.51653
 21
6.18468
  0
LINE
  8
0
 10
6.51653
 20
6.18468
 11
6.61745
 21
6.02562
  0
LINE
  8
0
 10
6.61745
 20
6.02562
 11
6.69766
 21
5.85518
  0
LINE
  8
0
 10
6.69766
 20
5.85518
 11
6.75587
 21
5.67603
  0
LINE
  8
0
 10
6.75587
 20
5.67603
 11
6.79117
 21
5.491
  0
LINE
  8
0
 10
6.79117
 20
5.491
 11
6.80299
 21
5.30299
  0
LINE
  8
0
 10
6.80299
 20
5.30299
 11
6.79117
 21
5.11499
  0
LINE
  8
0
 10
6.79117
 20
5.11499
 11
6.75587
 21
4.92996
  0
LINE
  8
0
 10
6.75587
 20
4.92996
 11
6.69766
 21
4.75081
  0
LINE
  8
0
 10
6.69766
 20
4.75081
 11
6.61745
 21
4.58037
  0
LINE
  8
0
 10
6.61745
 20
4.58037
 11
6.51653
 21
4.42131
  0
LINE
  8
0
 10
6.51653
 20
4.42131
 11
6.39644
 21
4.27617
  0
LINE
  8
0
 10
6.39644
 20
4.27617
 11
6.25912
 21
4.14722
  0
LINE
  8
0
 10
6.25912
 20
4.14722
 11
6.10674
 21
4.0365
  0
LINE
  8
0
 10
6.10674
 20
4.0365
 11
5.94167
 21
3.94576
  0
LINE
  8
0
 10
5.94167
 20
3.94576
 11
5.76653
 21
3.8764
  0
LINE
  8
0
 10
5.76653
 20
3.8764
 11
5.58406
 21
3.82956
  0
LINE
  8
0
 10
5.58406
 20
3.82956
 11
5.39717
 21
3.80595
  0
LINE
  8
0
 10
5.39717
 20
3.80595
 11
5.2088
 21
3.80595
  0
LINE
  8
0
 10
-5.39717
 20
3.80595
 11
-5.58406
 21
3.82956
  0
LINE
  8
0
 10
-5.58406
 20
3.82956
 11
-5.76653
 21
3.8764
  0
LINE
  8
0
 10
-5.76653
 20
3.8764
 11
-5.94167
 21
3.94576
  0
LINE
  8
0
 10
-5.94167
 20
3.94576
 11
-6.10674
 21
4.0365
  0
LINE
  8
0
 10
-6.10674
 20
4.0365
 11
-6.25912
 21
4.14722
  0
LINE
  8
0
 10
-6.25912
 20
4.14722
 11
-6.39644
 21
4.27617
  0
LINE
  8
0
 10
-6.39644
 20
4.27617
 11
-6.51653
 21
4.42131
  0
LINE
  8
0
 10
-6.51653
 20
4.42131
 11
-6.61745
 21
4.58037
  0
LINE
  8
0
 10
-6.61745
 20
4.58037
 11
-6.69766
 21
4.75081
  0
LINE
  8
0
 10
-6.69766
 20
4.75081
 11
-6.75587
 21
4.92996
  0
LINE
  8
0
 10
-6.75587
 20
4.92996
 11
-6.79117
 21
5.11499
  0
LINE
  8
0
 10
-6.79117
 20
5.11499
 11
-6.80299
 21
5.30299
  0
LINE
  8
0
 10
-6.80299
 20
5.30299
 11
-6.79117
 21
5.491
  0
LINE
  8
0
 10
-6.79117
 20
5.491
 11
-6.75587
 21
5.67603
  0
LINE
  8
0
 10
-6.75587
 20
5.67603
 11
-6.69766
 21
5.85518
  0
LINE
  8
0
 10
-6.69766
 20
5.85518
 11
-6.61745
 21
6.02562
  0
LINE
  8
0
 10
-6.61745
 20
6.02562
 11
-6.51653
 21
6.18468
  0
LINE
  8
0
 10
-6.51653
 20
6.18468
 11
-6.39644
 21
6.32982
  0
LINE
  8
0
 10
-6.39644
 20
6.32982
 11
-6.25912
 21
6.45876
  0
LINE
  8
0
 10
-6.25912
 20
6.45876
 11
-6.10674
 21
6.56949
  0
LINE
  8
0
 10
-6.10674
 20
6.56949
 11
-5.94167
 21
6.66023
  0
LINE
  8
0
 10
-5.94167
 20
6.66023
 11
-5.76653
 21
6.72958
  0
LINE
  8
0
 10
-5.76653
 20
6.72958
 11
-5.58406
 21
6.77643
  0
LINE
  8
0
 10
-5.58406
 20
6.77643
 11
-5.39717
 21
6.80003
  0
LINE
  8
0
 10
-5.39717
 20
6.80003
 11
-5.2088
 21
6.80003
  0
LINE
  8
0
 10
-5.2088
 20
6.80003
 11
-5.02193
 21
6.77643
  0
LINE
  8
0
 10
-5.02193
 20
6.77643
 11
-4.83946
 21
6.72958
  0
LINE
  8
0
 10
-4.83946
 20
6.72958
 11
-4.66432
 21
6.66023
  0
LINE
  8
0
 10
-4.66432
 20
6.66023
 11
-4.49925
 21
6.56949
  0
LINE
  8
0
 10
-4.49925
 20
6.56949
 11
-4.34686
 21
6.45876
  0
LINE
  8
0
 10
-4.34686
 20
6.45876
 11
-4.20953
 21
6.32982
  0
LINE
  8
0
 10
-4.20953
 20
6.32982
 11
-4.08946
 21
6.18468
  0
LINE
  8
0
 10
-4.08946
 20
6.18468
 11
-3.98853
 21
6.02562
  0
LINE
  8
0
 10
-3.98853
 20
6.02562
 11
-3.90833
 21
5.85518
  0
LINE
  8
0
 10
-3.90833
 20
5.85518
 11
-3.85011
 21
5.67603
  0
LINE
  8
0
 10
-3.85011
 20
5.67603
 11
-3.81482
 21
5.491
  0
LINE
  8
0
 10
-3.81482
 20
5.491
 11
-3.80299
 21
5.30299
  0
LINE
  8
0
 10
-3.80299
 20
5.30299
 11
-3.81482
 21
5.11499
  0
LINE
  8
0
 10
-3.81482
 20
5.11499
 11
-3.85011
 21
4.92996
  0
LINE
  8
0
 10
-3.85011
 20
4.92996
 11
-3.90833
 21
4.75081
  0
LINE
  8
0
 10
-3.90833
 20
4.75081
 11
-3.98853
 21
4.58037
  0
LINE
  8
0
 10
-3.98853
 20
4.58037
 11
-4.08946
 21
4.42131
  0
LINE
  8
0
 10
-4.08946
 20
4.42131
 11
-4.20953
 21
4.27617
  0
LINE
  8
0
 10
-4.20953
 20
4.27617
 11
-4.34686
 21
4.14722
  0
LINE
  8
0
 10
-4.34686
 20
4.14722
 11
-4.49925
 21
4.0365
  0
LINE
  8
0
 10
-4.49925
 20
4.0365
 11
-4.66432
 21
3.94576
  0
LINE
  8
0
 10
-4.66432
 20
3.94576
 11
-4.83946
 21
3.8764
  0
LINE
  8
0
 10
-4.83946
 20
3.8764
 11
-5.02193
 21
3.82956
  0
LINE
  8
0
 10
-5.02193
 20
3.82956
 11
-5.2088
 21
3.80595
  0
LINE
  8
0
 10
-5.2088
 20
3.80595
 11
-5.39717
 21
3.80595
  0
LINE
  8
0
 10
-0.18837
 20
-2.99408
 11
-0.562134
 21
-2.94685
  0
LINE
  8
0
 10
-0.562134
 20
-2.94685
 11
-0.927048
 21
-2.85316
  0
LINE
  8
0
 10
-0.927048
 20
-2.85316
 11
-1.27733
 21
-2.71448
  0
LINE
  8
0
 10
-1.27733
 20
-2.71448
 11
-1.60747
 21
-2.53297
  0
LINE
  8
0
 10
-1.60747
 20
-2.53297
 11
-1.91226
 21
-2.31154
  0
LINE
  8
0
 10
-1.91226
 20
-2.31154
 11
-2.1869
 21
-2.05363
  0
LINE
  8
0
 10
-2.1869
 20
-2.05363
 11
-2.42705
 21
-1.76335
  0
LINE
  8
0
 10
-2.42705
 20
-1.76335
 11
-2.62891
 21
-1.44525
  0
LINE
  8
0
 10
-2.62891
 20
-1.44525
 11
-2.78932
 21
-1.10437
  0
LINE
  8
0
 10
-2.78932
 20
-1.10437
 11
-2.90575
 21
-0.746063
  0
LINE
  8
0
 10
-2.90575
 20
-0.746063
 11
-2.97633
 21
-0.375992
  0
LINE
  8
0
 10
-2.97633
 20
-0.375992
 11
-3
 21
0
  0
LINE
  8
0
 10
-3
 20
0
 11
-2.97633
 21
0.375992
  0
LINE
  8
0
 10
-2.97633
 20
0.375992
 11
-2.90575
 21
0.746063
  0
LINE
  8
0
 10
-2.90575
 20
0.746063
 11
-2.78932
 21
1.10437
  0
LINE
  8
0
 10
-2.78932
 20
1.10437
 11
-2.62891
 21
1.44525
  0
LINE
  8
0
 10
-2.62891
 20
1.44525
 11
-2.42705
 21
1.76335
  0
LINE
  8
0
 10
-2.42705
 20
1.76335
 11
-2.1869
 21
2.05363
  0
LINE
  8
0
 10
-2.1869
 20
2.05363
 11
-1.91226
 21
2.31154
  0
LINE
  8
0
 10
-1.91226
 20
2.31154
 11
-1.60747
 21
2.53297
  0
LINE
  8
0
 10
-1.60747
 20
2.53297
 11
-1.27733
 21
2.71448
  0
LINE
  8
0
 10
-1.27733
 20
2.71448
 11
-0.927048
 21
2.85316
  0
LINE
  8
0
 10
-0.927048
 20
2.85316
 11
-0.562134
 21
2.94685
  0
LINE
  8
0
 10
-0.562134
 20
2.94685
 11
-0.18837
 21
2.99408
  0
LINE
  8
0
 10
-0.18837
 20
2.99408
 11
0.18837
 21
2.99408
  0
LINE
  8
0
 10
0.18837
 20
2.99408
 11
0.562134
 21
2.94685
  0
LINE
  8
0
 10
0.562134
 20
2.94685
 11
0.927048
 21
2.85316
  0
LINE
  8
0
 10
0.927048
 20
2.85316
 11
1.27733
 21
2.71448
  0
LINE
  8
0
 10
1.27733
 20
2.71448
 11
1.60747
 21
2.53297
  0
LINE
  8
0
 10
1.60747
 20
2.53297
 11
1.91226
 21
2.31154
  0
LINE
  8
0
 10
1.91226
 20
2.31154
 11
2.1869
 21
2.05363
  0
LINE
  8
0
 10
2.1869
 20
2.05363
 11
2.42705
 21
1.76335
  0
LINE
  8
0
 10
2.42705
 20
1.76335
 11
2.62891
 21
1.44525
  0
LINE
  8
0
 10
2.62891
 20
1.44525
 11
2.78932
 21
1.10437
  0
LINE
  8
0
 10
2.78932
 20
1.10437
 11
2.90575
 21
0.746063
  0
LINE
  8
0
 10
2.90575
 20
0.746063
 11
2.97633
 21
0.375992
  0
LINE
  8
0
 10
2.97633
 20
0.375992
 11
3
 21
0
  0
LINE
  8
0
 10
3
 20
0
 11
2.97633
 21
-0.375992
  0
LINE
  8
0
 10
2.97633
 20
-0.375992
 11
2.90575
 21
-0.746063
  0
LINE
  8
0
 10
2.90575
 20
-0.746063
 11
2.78932
 21
-1.10437
  0
LINE
  8
0
 10
2.78932
 20
-1.10437
 11
2.62891
 21
-1.44525
  0
LINE
  8
0
 10
2.62891
 20
-1.44525
 11
2.42705
 21
-1.76335
  0
LINE
  8
0
 10
2.42705
 20
-1.76335
 11
2.1869
 21
-2.05363
  0
LINE
  8
0
 10
2.1869
 20
-2.05363
 11
1.91226
 21
-2.31154
  0
LINE
  8
0
 10
1.91226
 20
-2.31154
 11
1.60747
 21
-2.53297
  0
LINE
  8
0
 10
1.60747
 20
-2.53297
 11
1.27733
 21
-2.71448
  0
LINE
  8
0
 10
1.27733
 20
-2.71448
 11
0.927048
 21
-2.85316
  0
LINE
  8
0
 10
0.927048
 20
-2.85316
 11
0.562134
 21
-2.94685
  0
LINE
  8
0
 10
0.562134
 20
-2.94685
 11
0.18837
 21
-2.99408
  0
LINE
  8
0
 10
0.18837
 20
-2.99408
 11
-0.18837
 21
-2.99408
  0
LINE
  8
0
 10
7.38696
 20
-1.79645
 11
7.1627
 21
-1.76811
  0
LINE
  8
0
 10
7.1627
 20
-1.76811
 11
6.94376
 21
-1.7119
  0
LINE
  8
0
 10
6.94376
 20
-1.7119
 11
6.7336
 21
-1.62868
  0
LINE
  8
0
 10
6.7336
 20
-1.62868
 11
6.53551
 21
-1.51978
  0
LINE
  8
0
 10
6.53551
 20
-1.51978
 11
6.35263
 21
-1.38692
  0
LINE
  8
0
 10
6.35263
 20
-1.38692
 11
6.18785
 21
-1.23218
  0
LINE
  8
0
 10
6.18785
 20
-1.23218
 11
6.04376
 21
-1.058
  0
LINE
  8
0
 10
6.04376
 20
-1.058
 11
5.92264
 21
-0.867142
  0
LINE
  8
0
 10
5.92264
 20
-0.867142
 11
5.8264
 21
-0.662613
  0
LINE
  8
0
 10
5.8264
 20
-0.662613
 11
5.75655
 21
-0.447632
  0
LINE
  8
0
 10
5.75655
 20
-0.447632
 11
5.71419
 21
-0.225586
  0
LINE
  8
0
 10
5.71419
 20
-0.225586
 11
5.7
 21
0
  0
LINE
  8
0
 10
5.7
 20
0
 11
5.71419
 21
0.225586
  0
LINE
  8
0
 10
5.71419
 20
0.225586
 11
5.75655
 21
0.447632
  0
LINE
  8
0
 10
5.75655
 20
0.447632
 11
5.8264
 21
0.662613
  0
LINE
  8
0
 10
5.8264
 20
0.662613
 11
5.92264
 21
0.867142
  0
LINE
  8
0
 10
5.92264
 20
0.867142
 11
6.04376
 21
1.058
  0
LINE
  8
0
 10
6.04376
 20
1.058
 11
6.18785
 21
1.23218
  0
LINE
  8
0
 10
6.18785
 20
1.23218
 11
6.35263
 21
1.38692
  0
LINE
  8
0
 10
6.35263
 20
1.38692
 11
6.53551
 21
1.51978
  0
LINE
  8
0
 10
6.53551
 20
1.51978
 11
6.7336
 21
1.62868
  0
LINE
  8
0
 10
6.7336
 20
1.62868
 11
6.94376
 21
1.7119
  0
LINE
  8
0
 10
6.94376
 20
1.7119
 11
7.1627
 21
1.76811
  0
LINE
  8
0
 10
7.1627
 20
1.76811
 11
7.38696
 21
1.79645
  0
LINE
  8
0
 10
7.38696
 20
1.79645
 11
7.61302
 21
1.79645
  0
LINE
  8
0
 10
7.61302
 20
1.79645
 11
7.83728
 21
1.76811
  0
LINE
  8
0
 10
7.83728
 20
1.76811
 11
8.05623
 21
1.7119
  0
LINE
  8
0
 10
8.05623
 20
1.7119
 11
8.26639
 21
1.62868
  0
LINE
  8
0
 10
8.26639
 20
1.62868
 11
8.46448
 21
1.51978
  0
LINE
  8
0
 10
8.46448
 20
1.51978
 11
8.64735
 21
1.38692
  0
LINE
  8
0
 10
8.64735
 20
1.38692
 11
8.81213
 21
1.23218
  0
LINE
  8
0
 10
8.81213
 20
1.23218
 11
8.95622
 21
1.058
  0
LINE
  8
0
 10
8.95622
 20
1.058
 11
9.07735
 21
0.867142
  0
LINE
  8
0
 10
9.07735
 20
0.867142
 11
9.17358
 21
0.662613
  0
LINE
  8
0
 10
9.17358
 20
0.662613
 11
9.24344
 21
0.447632
  0
LINE
  8
0
 10
9.24344
 20
0.447632
 11
9.2858
 21
0.225586
  0
LINE
  8
0
 10
9.2858
 20
0.225586
 11
9.29999
 21
0
  0
LINE
  8
0
 10
9.29999
 20
0
 11
9.2858
 21
-0.225586
  0
LINE
  8
0
 10
9.2858
 20
-0.225586
 11
9.24344
 21
-0.447632
  0
LINE
  8
0
 10
9.24344
 20
-0.447632
 11
9.17358
 21
-0.662613
  0
LINE
  8
0
 10
9.17358
 20
-0.662613
 11
9.07735
 21
-0.867142
  0
LINE
  8
0
 10
9.07735
 20
-0.867142
 11
8.95622
 21
-1.058
  0
LINE
  8
0
 10
8.95622
 20
-1.058
 11
8.81213
 21
-1.23218
  0
LINE
  8
0
 10
8.81213
 20
-1.23218
 11
8.64735
 21
-1.38692
  0
LINE
  8
0
 10
8.64735
 20
-1.38692
 11
8.46448
 21
-1.51978
  0
LINE
  8
0
 10
8.46448
 20
-1.51978
 11
8.26639
 21
-1.62868
  0
LINE
  8
0
 10
8.26639
 20
-1.62868
 11
8.05623
 21
-1.7119
  0
LINE
  8
0
 10
8.05623
 20
-1.7119
 11
7.83728
 21
-1.76811
  0
LINE
  8
0
 10
7.83728
 20
-1.76811
 11
7.61302
 21
-1.79645
  0
LINE
  8
0
 10
7.61302
 20
-1.79645
 11
7.38696
 21
-1.79645
  0
LINE
  8
0
 10
-7.61302
 20
-1.79645
 11
-7.83728
 21
-1.76811
  0
LINE
  8
0
 10
-7.83728
 20
-1.76811
 11
-8.05623
 21
-1.7119
  0
LINE
  8
0
 10
-8.05623
 20
-1.7119
 11
-8.26639
 21
-1.62868
  0
LINE
  8
0
 10
-8.26639
 20
-1.62868
 11
-8.46448
 21
-1.51978
  0
LINE
  8
0
 10
-8.46448
 20
-1.51978
 11
-8.64735
 21
-1.38692
  0
LINE
  8
0
 10
-8.64735
 20
-1.38692
 11
-8.81213
 21
-1.23218
  0
LINE
  8
0
 10
-8.81213
 20
-1.23218
 11
-8.95622
 21
-1.058
  0
LINE
  8
0
 10
-8.95622
 20
-1.058
 11
-9.07735
 21
-0.867142
  0
LINE
  8
0
 10
-9.07735
 20
-0.867142
 11
-9.17358
 21
-0.662613
  0
LINE
  8
0
 10
-9.17358
 20
-0.662613
 11
-9.24344
 21
-0.447632
  0
LINE
  8
0
 10
-9.24344
 20
-0.447632
 11
-9.2858
 21
-0.225586
  0
LINE
  8
0
 10
-9.2858
 20
-0.225586
 11
-9.29999
 21
0
  0
LINE
  8
0
 10
-9.29999
 20
0
 11
-9.2858
 21
0.225586
  0
LINE
  8
0
 10
-9.2858
 20
0.225586
 11
-9.24344
 21
0.447632
  0
LINE
  8
0
 10
-9.24344
 20
0.447632
 11
-9.17358
 21
0.662613
  0
LINE
  8
0
 10
-9.17358
 20
0.662613
 11
-9.07735
 21
0.867142
  0
LINE
  8
0
 10
-9.07735
 20
0.867142
 11
-8.95622
 21
1.058
  0
LINE
  8
0
 10
-8.95622
 20
1.058
 11
-8.81213
 21
1.23218
  0
LINE
  8
0
 10
-8.81213
 20
1.23218
 11
-8.64735
 21
1.38692
  0
LINE
  8
0
 10
-8.64735
 20
1.38692
 11
-8.46448
 21
1.51978
  0
LINE
  8
0
 10
-8.46448
 20
1.51978
 11
-8.26639
 21
1.62868
  0
LINE
  8
0
 10
-8.26639
 20
1.62868
 11
-8.05623
 21
1.7119
  0
LINE
  8
0
 10
-8.05623
 20
1.7119
 11
-7.83728
 21
1.76811
  0
LINE
  8
0
 10
-7.83728
 20
1.76811
 11
-7.61302
 21
1.79645
  0
LINE
  8
0
 10
-7.61302
 20
1.79645
 11
-7.38696
 21
1.79645
  0
LINE
  8
0
 10
-7.38696
 20
1.79645
 11
-7.1627
 21
1.76811
  0
LINE
  8
0
 10
-7.1627
 20
1.76811
 11
-6.94376
 21
1.7119
  0
LINE
  8
0
 10
-6.94376
 20
1.7119
 11
-6.7336
 21
1.62868
  0
LINE
  8
0
 10
-6.7336
 20
1.62868
 11
-6.53551
 21
1.51978
  0
LINE
  8
0
 10
-6.53551
 20
1.51978
 11
-6.35263
 21
1.38692
  0
LINE
  8
0
 10
-6.35263
 20
1.38692
 11
-6.18785
 21
1.23218
  0
LINE
  8
0
 10
-6.18785
 20
1.23218
 11
-6.04376
 21
1.058
  0
LINE
  8
0
 10
-6.04376
 20
1.058
 11
-5.92264
 21
0.867142
  0
LINE
  8
0
 10
-5.92264
 20
0.867142
 11
-5.8264
 21
0.662613
  0
LINE
  8
0
 10
-5.8264
 20
0.662613
 11
-5.75655
 21
0.447632
  0
LINE
  8
0
 10
-5.75655
 20
0.447632
 11
-5.71419
 21
0.225586
  0
LINE
  8
0
 10
-5.71419
 20
0.225586
 11
-5.7
 21
0
  0
LINE
  8
0
 10
-5.7
 20
0
 11
-5.71419
 21
-0.225586
  0
LINE
  8
0
 10
-5.71419
 20
-0.225586
 11
-5.75655
 21
-0.447632
  0
LINE
  8
0
 10
-5.75655
 20
-0.447632
 11
-5.8264
 21
-0.662613
  0
LINE
  8
0
 10
-5.8264
 20
-0.662613
 11
-5.92264
 21
-0.867142
  0
LINE
  8
0
 10
-5.92264
 20
-0.867142
 11
-6.04376
 21
-1.058
  0
LINE
  8
0
 10
-6.04376
 20
-1.058
 11
-6.18785
 21
-1.23218
  0
LINE
  8
0
 10
-6.18785
 20
-1.23218
 11
-6.35263
 21
-1.38692
  0
LINE
  8
0
 10
-6.35263
 20
-1.38692
 11
-6.53551
 21
-1.51978
  0
LINE
  8
0
 10
-6.53551
 20
-1.51978
 11
-6.7336
 21
-1.62868
  0
LINE
  8
0
 10
-6.7336
 20
-1.62868
 11
-6.94376
 21
-1.7119
  0
LINE
  8
0
 10
-6.94376
 20
-1.7119
 11
-7.1627
 21
-1.76811
  0
LINE
  8
0
 10
-7.1627
 20
-1.76811
 11
-7.38696
 21
-1.79645
  0
LINE
  8
0
 10
-7.38696
 20
-1.79645
 11
-7.61302
 21
-1.79645
  0
LINE
  8
0
 10
5.2088
 20
-6.80003
 11
5.02193
 21
-6.77643
  0
LINE
  8
0
 10
5.02193
 20
-6.77643
 11
4.83946
 21
-6.72958
  0
LINE
  8
0
 10
4.83946
 20
-6.72958
 11
4.66432
 21
-6.66023
  0
LINE
  8
0
 10
4.66432
 20
-6.66023
 11
4.49925
 21
-6.56949
  0
LINE
  8
0
 10
4.49925
 20
-6.56949
 11
4.34686
 21
-6.45876
  0
LINE
  8
0
 10
4.34686
 20
-6.45876
 11
4.20953
 21
-6.32982
  0
LINE
  8
0
 10
4.20953
 20
-6.32982
 11
4.08946
 21
-6.18468
  0
LINE
  8
0
 10
4.08946
 20
-6.18468
 11
3.98853
 21
-6.02562
  0
LINE
  8
0
 10
3.98853
 20
-6.02562
 11
3.90833
 21
-5.85518
  0
LINE
  8
0
 10
3.90833
 20
-5.85518
 11
3.85011
 21
-5.67603
  0
LINE
  8
0
 10
3.85011
 20
-5.67603
 11
3.81482
 21
-5.491
  0
LINE
  8
0
 10
3.81482
 20
-5.491
 11
3.80299
 21
-5.30299
  0
LINE
  8
0
 10
3.80299
 20
-5.30299
 11
3.81482
 21
-5.11499
  0
LINE
  8
0
 10
3.81482
 20
-5.11499
 11
3.85011
 21
-4.92996
  0
LINE
  8
0
 10
3.85011
 20
-4.92996
 11
3.90833
 21
-4.75081
  0
LINE
  8
0
 10
3.90833
 20
-4.75081
 11
3.98853
 21
-4.58037
  0
LINE
  8
0
 10
3.98853
 20
-4.58037
 11
4.08946
 21
-4.42131
  0
LINE
  8
0
 10
4.08946
 20
-4.42131
 11
4.20953
 21
-4.27617
  0
LINE
  8
0
 10
4.20953
 20
-4.27617
 11
4.34686
 21
-4.14722
  0
LINE
  8
0
 10
4.34686
 20
-4.14722
 11
4.49925
 21
-4.0365
  0
LINE
  8
0
 10
4.49925
 20
-4.0365
 11
4.66432
 21
-3.94576
  0
LINE
  8
0
 10
4.66432
 20
-3.94576
 11
4.83946
 21
-3.8764
  0
LINE
  8
0
 10
4.83946
 20
-3.8764
 11
5.02193
 21
-3.82956
  0
LINE
  8
0
 10
5.02193
 20
-3.82956
 11
5.2088
 21
-3.80595
  0
LINE
  8
0
 10
5.2088
 20
-3.80595
 11
5.39717
 21
-3.80595
  0
LINE
  8
0
 10
5.39717
 20
-3.80595
 11
5.58406
 21
-3.82956
  0
LINE
  8
0
 10
5.58406
 20
-3.82956
 11
5.76653
 21
-3.8764
  0
LINE
  8
0
 10
5.76653
 20
-3.8764
 11
5.94167
 21
-3.94576
  0
LINE
  8
0
 10
5.94167
 20
-3.94576
 11
6.10674
 21
-4.0365
  0
LINE
  8
0
 10
6.10674
 20
-4.0365
 11
6.25912
 21
-4.14722
  0
LINE
  8
0
 10
6.25912
 20
-4.14722
 11
6.39644
 21
-4.27617
  0
LINE
  8
0
 10
6.39644
 20
-4.27617
 11
6.51653
 21
-4.42131
  0
LINE
  8
0
 10
6.51653
 20
-4.42131
 11
6.61745
 21
-4.58037
  0
LINE
  8
0
 10
6.61745
 20
-4.58037
 11
6.69766
 21
-4.75081
  0
LINE
  8
0
 10
6.69766
 20
-4.75081
 11
6.75587
 21
-4.92996
  0
LINE
  8
0
 10
6.75587
 20
-4.92996
 11
6.79117
 21
-5.11499
  0
LINE
  8
0
 10
6.79117
 20
-5.11499
 11
6.80299
 21
-5.30299
  0
LINE
  8
0
 10
6.80299
 20
-5.30299
 11
6.79117
 21
-5.491
  0
LINE
  8
0
 10
6.79117
 20
-5.491
 11
6.75587
 21
-5.67603
  0
LINE
  8
0
 10
6.75587
 20
-5.67603
 11
6.69766
 21
-5.85518
  0
LINE
  8
0
 10
6.69766
 20
-5.85518
 11
6.61745
 21
-6.02562
  0
LINE
  8
0
 10
6.61745
 20
-6.02562
 11
6.51653
 21
-6.18468
  0
LINE
  8
0
 10
6.51653
 20
-6.18468
 11
6.39644
 21
-6.32982
  0
LINE
  8
0
 10
6.39644
 20
-6.32982
 11
6.25912
 21
-6.45876
  0
LINE
  8
0
 10
6.25912
 20
-6.45876
 11
6.10674
 21
-6.56949
  0
LINE
  8
0
 10
6.10674
 20
-6.56949
 11
5.94167
 21
-6.66023
  0
LINE
  8
0
 10
5.94167
 20
-6.66023
 11
5.76653
 21
-6.72958
  0
LINE
  8
0
 10
5.76653
 20
-6.72958
 11
5.58406
 21
-6.77643
  0
LINE
  8
0
 10
5.58406
 20
-6.77643
 11
5.39717
 21
-6.80003
  0
LINE
  8
0
 10
5.39717
 20
-6.80003
 11
5.2088
 21
-6.80003
  0
LINE
  8
0
 10
-5.39717
 20
-6.80003
 11
-5.58406
 21
-6.77643
  0
LINE
  8
0
 10
-5.58406
 20
-6.77643
 11
-5.76653
 21
-6.72958
  0
LINE
  8
0
 10
-5.76653
 20
-6.72958
 11
-5.94167
 21
-6.66023
  0
LINE
  8
0
 10
-5.94167
 20
-6.66023
 11
-6.10674
 21
-6.56949
  0
LINE
  8
0
 10
-6.10674
 20
-6.56949
 11
-6.25912
 21
-6.45876
  0
LINE
  8
0
 10
-6.25912
 20
-6.45876
 11
-6.39644
 21
-6.32982
  0
LINE
  8
0
 10
-6.39644
 20
-6.32982
 11
-6.51653
 21
-6.18468
  0
LINE
  8
0
 10
-6.51653
 20
-6.18468
 11
-6.61745
 21
-6.02562
  0
LINE
  8
0
 10
-6.61745
 20
-6.02562
 11
-6.69766
 21
-5.85518
  0
LINE
  8
0
 10
-6.69766
 20
-5.85518
 11
-6.75587
 21
-5.67603
  0
LINE
  8
0
 10
-6.75587
 20
-5.67603
 11
-6.79117
 21
-5.491
  0
LINE
  8
0
 10
-6.79117
 20
-5.491
 11
-6.80299
 21
-5.30299
  0
LINE
  8
0
 10
-6.80299
 20
-5.30299
 11
-6.79117
 21
-5.11499
  0
LINE
  8
0
 10
-6.79117
 20
-5.11499
 11
-6.75587
 21
-4.92996
  0
LINE
  8
0
 10
-6.75587
 20
-4.92996
 11
-6.69766
 21
-4.75081
  0
LINE
  8
0
 10
-6.69766
 20
-4.75081
 11
-6.61745
 21
-4.58037
  0
LINE
  8
0
 10
-6.61745
 20
-4.58037
 11
-6.51653
 21
-4.42131
  0
LINE
  8
0
 10
-6.51653
 20
-4.42131
 11
-6.39644
 21
-4.27617
  0
LINE
  8
0
 10
-6.39644
 20
-4.27617
 11
-6.25912
 21
-4.14722
  0
LINE
  8
0
 10
-6.25912
 20
-4.14722
 11
-6.10674
 21
-4.0365
  0
LINE
  8
0
 10
-6.10674
 20
-4.0365
 11
-5.94167
 21
-3.94576
  0
LINE
  8
0
 10
-5.94167
 20
-3.94576
 11
-5.76653
 21
-3.8764
  0
LINE
  8
0
 10
-5.76653
 20
-3.8764
 11
-5.58406
 21
-3.82956
  0
LINE
  8
0
 10
-5.58406
 20
-3.82956
 11
-5.39717
 21
-3.80595
  0
LINE
  8
0
 10
-5.39717
 20
-3.80595
 11
-5.2088
 21
-3.80595
  0
LINE
  8
0
 10
-5.2088
 20
-3.80595
 11
-5.02193
 21
-3.82956
  0
LINE
  8
0
 10
-5.02193
 20
-3.82956
 11
-4.83946
 21
-3.8764
  0
LINE
  8
0
 10
-4.83946
 20
-3.8764
 11
-4.66432
 21
-3.94576
  0
LINE
  8
0
 10
-4.66432
 20
-3.94576
 11
-4.49925
 21
-4.0365
  0
LINE
  8
0
 10
-4.49925
 20
-4.0365
 11
-4.34686
 21
-4.14722
  0
LINE
  8
0
 10
-4.34686
 20
-4.14722
 11
-4.20953
 21
-4.27617
  0
LINE
  8
0
 10
-4.20953
 20
-4.27617
 11
-4.08946
 21
-4.42131
  0
LINE
  8
0
 10
-4.08946
 20
-4.42131
 11
-3.98853
 21
-4.58037
  0
LINE
  8
0
 10
-3.98853
 20
-4.58037
 11
-3.90833
 21
-4.75081
  0
LINE
  8
0
 10
-3.90833
 20
-4.75081
 11
-3.85011
 21
-4.92996
  0
LINE
  8
0
 10
-3.85011
 20
-4.92996
 11
-3.81482
 21
-5.11499
  0
LINE
  8
0
 10
-3.81482
 20
-5.11499
 11
-3.80299
 21
-5.30299
  0
LINE
  8
0
 10
-3.80299
 20
-5.30299
 11
-3.81482
 21
-5.491
  0
LINE
  8
0
 10
-3.81482
 20
-5.491
 11
-3.85011
 21
-5.67603
  0
LINE
  8
0
 10
-3.85011
 20
-5.67603
 11
-3.90833
 21
-5.85518
  0
LINE
  8
0
 10
-3.90833
 20
-5.85518
 11
-3.98853
 21
-6.02562
  0
LINE
  8
0
 10
-3.98853
 20
-6.02562
 11
-4.08946
 21
-6.18468
  0
LINE
  8
0
 10
-4.08946
 20
-6.18468
 11
-4.20953
 21
-6.32982
  0
LINE
  8
0
 10
-4.20953
 20
-6.32982
 11
-4.34686
 21
-6.45876
  0
LINE
  8
0
 10
-4.34686
 20
-6.45876
 11
-4.49925
 21
-6.56949
  0
LINE
  8
0
 10
-4.49925
 20
-6.56949
 11
-4.66432
 21
-6.66023
  0
LINE
  8
0
 10
-4.66432
 20
-6.66023
 11
-4.83946
 21
-6.72958
  0
LINE
  8
0
 10
-4.83946
 20
-6.72958
 11
-5.02193
 21
-6.77643
  0
LINE
  8
0
 10
-5.02193
 20
-6.77643
 11
-5.2088
 21
-6.80003
  0
LINE
  8
0
 10
-5.2088
 20
-6.80003
 11
-5.39717
 21
-6.80003
  0
LINE
  8
0
 10
-1.58675
 20
-10.2483
 11
-3.17349
 21
-7.5
  0
LINE
  8
0
 10
-3.17349
 20
-7.5
 11
-1.58675
 21
-4.75168
  0
LINE
  8
0
 10
-1.58675
 20
-4.75168
 11
1.58675
 21
-4.75168
  0
LINE
  8
0
 10
1.58675
 20
-4.75168
 11
3.17349
 21
-7.5
  0
LINE
  8
0
 10
3.17349
 20
-7.5
 11
1.58675
 21
-10.2483
  0
LINE
  8
0
 10
1.58675
 20
-10.2483
 11
-1.58675
 21
-10.2483
  0
LINE
  8
0
 10
52.5765
 20
-13.5064
 11
54.249
 21
-13.077
  0
LINE
  8
0
 10
54.249
 20
-13.077
 11
55.8545
 21
-12.4414
  0
LINE
  8
0
 10
55.8545
 20
-12.4414
 11
57.3676
 21
-11.6095
  0
LINE
  8
0
 10
57.3676
 20
-11.6095
 11
58.7646
 21
-10.5945
  0
LINE
  8
0
 10
58.7646
 20
-10.5945
 11
60.0233
 21
-9.41252
  0
LINE
  8
0
 10
60.0233
 20
-9.41252
 11
61.124
 21
-8.08205
  0
LINE
  8
0
 10
61.124
 20
-8.08205
 11
62.0492
 21
-6.6241
  0
LINE
  8
0
 10
62.0492
 20
-6.6241
 11
62.7844
 21
-5.06171
  0
LINE
  8
0
 10
62.7844
 20
-5.06171
 11
63.318
 21
-3.41948
  0
LINE
  8
0
 10
63.318
 20
-3.41948
 11
63.6416
 21
-1.72333
  0
LINE
  8
0
 10
63.6416
 20
-1.72333
 11
63.75
 21
0
  0
LINE
  8
0
 10
63.75
 20
0
 11
63.6416
 21
1.72333
  0
LINE
  8
0
 10
63.6416
 20
1.72333
 11
63.318
 21
3.41948
  0
LINE
  8
0
 10
63.318
 20
3.41948
 11
62.7844
 21
5.06171
  0
LINE
  8
0
 10
62.7844
 20
5.06171
 11
62.0492
 21
6.6241
  0
LINE
  8
0
 10
62.0492
 20
6.6241
 11
61.124
 21
8.08205
  0
LINE
  8
0
 10
61.124
 20
8.08205
 11
60.0233
 21
9.41252
  0
LINE
  8
0
 10
60.0233
 20
9.41252
 11
58.7646
 21
10.5945
  0
LINE
  8
0
 10
58.7646
 20
10.5945
 11
57.3676
 21
11.6095
  0
LINE
  8
0
 10
57.3676
 20
11.6095
 11
55.8545
 21
12.4414
  0
LINE
  8
0
 10
55.8545
 20
12.4414
 11
54.249
 21
13.077
  0
LINE
  8
0
 10
54.249
 20
13.077
 11
52.5765
 21
13.5064
  0
LINE
  8
0
 10
52.5765
 20
13.5064
 11
50.8634
 21
13.7229
  0
LINE
  8
0
 10
50.8634
 20
13.7229
 11
49.1366
 21
13.7229
  0
LINE
  8
0
 10
49.1366
 20
13.7229
 11
47.4235
 21
13.5064
  0
LINE
  8
0
 10
47.4235
 20
13.5064
 11
45.751
 21
13.077
  0
LINE
  8
0
 10
45.751
 20
13.077
 11
44.1455
 21
12.4414
  0
LINE
  8
0
 10
44.1455
 20
12.4414
 11
42.6324
 21
11.6095
  0
LINE
  8
0
 10
42.6324
 20
11.6095
 11
41.2354
 21
10.5945
  0
LINE
  8
0
 10
41.2354
 20
10.5945
 11
39.9767
 21
9.41252
  0
LINE
  8
0
 10
39.9767
 20
9.41252
 11
38.876
 21
8.08205
  0
LINE
  8
0
 10
38.876
 20
8.08205
 11
37.9508
 21
6.6241
  0
LINE
  8
0
 10
37.9508
 20
6.6241
 11
37.2156
 21
5.06171
  0
LINE
  8
0
 10
37.2156
 20
5.06171
 11
36.682
 21
3.41948
  0
LINE
  8
0
 10
36.682
 20
3.41948
 11
36.3584
 21
1.72333
  0
LINE
  8
0
 10
36.3584
 20
1.72333
 11
36.25
 21
0
  0
LINE
  8
0
 10
36.25
 20
0
 11
36.3584
 21
-1.72333
  0
LINE
  8
0
 10
36.3584
 20
-1.72333
 11
36.682
 21
-3.41948
  0
LINE
  8
0
 10
36.682
 20
-3.41948
 11
37.2156
 21
-5.06171
  0
LINE
  8
0
 10
37.2156
 20
-5.06171
 11
37.9508
 21
-6.6241
  0
LINE
  8
0
 10
37.9508
 20
-6.6241
 11
38.876
 21
-8.08205
  0
LINE
  8
0
 10
38.876
 20
-8.08205
 11
39.9767
 21
-9.41252
  0
LINE
  8
0
 10
39.9767
 20
-9.41252
 11
41.2354
 21
-10.5945
  0
LINE
  8
0
 10
41.2354
 20
-10.5945
 11
42.6324
 21
-11.6095
  0
LINE
  8
0
 10
42.6324
 20
-11.6095
 11
44.1455
 21
-12.4414
  0
LINE
  8
0
 10
44.1455
 20
-12.4414
 11
45.751
 21
-13.077
  0
LINE
  8
0
 10
45.751
 20
-13.077
 11
47.4235
 21
-13.5064
  0
LINE
  8
0
 10
47.4235
 20
-13.5064
 11
49.1366
 21
-13.7229
  0
LINE
  8
0
 10
49.1366
 20
-13.7229
 11
50.8634
 21
-13.7229
  0
LINE
  8
0
 10
50.8634
 20
-13.7229
 11
52.5765
 21
-13.5064
  0
LINE
  8
0
 10
49.887
 20
5.70355
 11
49.6627
 21
5.73187
  0
LINE
  8
0
 10
49.6627
 20
5.73187
 11
49.4438
 21
5.78809
  0
LINE
  8
0
 10
49.4438
 20
5.78809
 11
49.2336
 21
5.87131
  0
LINE
  8
0
 10
49.2336
 20
5.87131
 11
49.0355
 21
5.98021
  0
LINE
  8
0
 10
49.0355
 20
5.98021
 11
48.8526
 21
6.11307
  0
LINE
  8
0
 10
48.8526
 20
6.11307
 11
48.6879
 21
6.26781
  0
LINE
  8
0
 10
48.6879
 20
6.26781
 11
48.5438
 21
6.44199
  0
LINE
  8
0
 10
48.5438
 20
6.44199
 11
48.4226
 21
6.63284
  0
LINE
  8
0
 10
48.4226
 20
6.63284
 11
48.3264
 21
6.83737
  0
LINE
  8
0
 10
48.3264
 20
6.83737
 11
48.2565
 21
7.05235
  0
LINE
  8
0
 10
48.2565
 20
7.05235
 11
48.2142
 21
7.2744
  0
LINE
  8
0
 10
48.2142
 20
7.2744
 11
48.2
 21
7.5
  0
LINE
  8
0
 10
48.2
 20
7.5
 11
48.2142
 21
7.72559
  0
LINE
  8
0
 10
48.2142
 20
7.72559
 11
48.2565
 21
7.94763
  0
LINE
  8
0
 10
48.2565
 20
7.94763
 11
48.3264
 21
8.16261
  0
LINE
  8
0
 10
48.3264
 20
8.16261
 11
48.4226
 21
8.36714
  0
LINE
  8
0
 10
48.4226
 20
8.36714
 11
48.5438
 21
8.558
  0
LINE
  8
0
 10
48.5438
 20
8.558
 11
48.6879
 21
8.73218
  0
LINE
  8
0
 10
48.6879
 20
8.73218
 11
48.8526
 21
8.88692
  0
LINE
  8
0
 10
48.8526
 20
8.88692
 11
49.0355
 21
9.01978
  0
LINE
  8
0
 10
49.0355
 20
9.01978
 11
49.2336
 21
9.12868
  0
LINE
  8
0
 10
49.2336
 20
9.12868
 11
49.4438
 21
9.2119
  0
LINE
  8
0
 10
49.4438
 20
9.2119
 11
49.6627
 21
9.26811
  0
LINE
  8
0
 10
49.6627
 20
9.26811
 11
49.887
 21
9.29645
  0
LINE
  8
0
 10
49.887
 20
9.29645
 11
50.113
 21
9.29645
  0
LINE
  8
0
 10
50.113
 20
9.29645
 11
50.3373
 21
9.26811
  0
LINE
  8
0
 10
50.3373
 20
9.26811
 11
50.5562
 21
9.2119
  0
LINE
  8
0
 10
50.5562
 20
9.2119
 11
50.7664
 21
9.12868
  0
LINE
  8
0
 10
50.7664
 20
9.12868
 11
50.9645
 21
9.01978
  0
LINE
  8
0
 10
50.9645
 20
9.01978
 11
51.1474
 21
8.88692
  0
LINE
  8
0
 10
51.1474
 20
8.88692
 11
51.3121
 21
8.73218
  0
LINE
  8
0
 10
51.3121
 20
8.73218
 11
51.4562
 21
8.558
  0
LINE
  8
0
 10
51.4562
 20
8.558
 11
51.5773
 21
8.36714
  0
LINE
  8
0
 10
51.5773
 20
8.36714
 11
51.6736
 21
8.16261
  0
LINE
  8
0
 10
51.6736
 20
8.16261
 11
51.7434
 21
7.94763
  0
LINE
  8
0
 10
51.7434
 20
7.94763
 11
51.7858
 21
7.72559
  0
LINE
  8
0
 10
51.7858
 20
7.72559
 11
51.8
 21
7.5
  0
LINE
  8
0
 10
51.8
 20
7.5
 11
51.7858
 21
7.2744
  0
LINE
  8
0
 10
51.7858
 20
7.2744
 11
51.7434
 21
7.05235
  0
LINE
  8
0
 10
51.7434
 20
7.05235
 11
51.6736
 21
6.83737
  0
LINE
  8
0
 10
51.6736
 20
6.83737
 11
51.5773
 21
6.63284
  0
LINE
  8
0
 10
51.5773
 20
6.63284
 11
51.4562
 21
6.44199
  0
LINE
  8
0
 10
51.4562
 20
6.44199
 11
51.3121
 21
6.26781
  0
LINE
  8
0
 10
51.3121
 20
6.26781
 11
51.1474
 21
6.11307
  0
LINE
  8
0
 10
51.1474
 20
6.11307
 11
50.9645
 21
5.98021
  0
LINE
  8
0
 10
50.9645
 20
5.98021
 11
50.7664
 21
5.87131
  0
LINE
  8
0
 10
50.7664
 20
5.87131
 11
50.5562
 21
5.78809
  0
LINE
  8
0
 10
50.5562
 20
5.78809
 11
50.3373
 21
5.73187
  0
LINE
  8
0
 10
50.3373
 20
5.73187
 11
50.113
 21
5.70355
  0
LINE
  8
0
 10
50.113
 20
5.70355
 11
49.887
 21
5.70355
  0
LINE
  8
0
 10
44.6028
 20
3.80595
 11
44.4159
 21
3.82956
  0
LINE
  8
0
 10
44.4159
 20
3.82956
 11
44.2335
 21
3.8764
  0
LINE
  8
0
 10
44.2335
 20
3.8764
 11
44.0583
 21
3.94576
  0
LINE
  8
0
 10
44.0583
 20
3.94576
 11
43.8932
 21
4.0365
  0
LINE
  8
0
 10
43.8932
 20
4.0365
 11
43.7409
 21
4.14722
  0
LINE
  8
0
 10
43.7409
 20
4.14722
 11
43.6035
 21
4.27617
  0
LINE
  8
0
 10
43.6035
 20
4.27617
 11
43.4835
 21
4.42131
  0
LINE
  8
0
 10
43.4835
 20
4.42131
 11
43.3825
 21
4.58037
  0
LINE
  8
0
 10
43.3825
 20
4.58037
 11
43.3023
 21
4.75081
  0
LINE
  8
0
 10
43.3023
 20
4.75081
 11
43.2441
 21
4.92996
  0
LINE
  8
0
 10
43.2441
 20
4.92996
 11
43.2088
 21
5.11499
  0
LINE
  8
0
 10
43.2088
 20
5.11499
 11
43.197
 21
5.30299
  0
LINE
  8
0
 10
43.197
 20
5.30299
 11
43.2088
 21
5.491
  0
LINE
  8
0
 10
43.2088
 20
5.491
 11
43.2441
 21
5.67603
  0
LINE
  8
0
 10
43.2441
 20
5.67603
 11
43.3023
 21
5.85518
  0
LINE
  8
0
 10
43.3023
 20
5.85518
 11
43.3825
 21
6.02562
  0
LINE
  8
0
 10
43.3825
 20
6.02562
 11
43.4835
 21
6.18468
  0
LINE
  8
0
 10
43.4835
 20
6.18468
 11
43.6035
 21
6.32982
  0
LINE
  8
0
 10
43.6035
 20
6.32982
 11
43.7409
 21
6.45876
  0
LINE
  8
0
 10
43.7409
 20
6.45876
 11
43.8932
 21
6.56949
  0
LINE
  8
0
 10
43.8932
 20
6.56949
 11
44.0583
 21
6.66023
  0
LINE
  8
0
 10
44.0583
 20
6.66023
 11
44.2335
 21
6.72958
  0
LINE
  8
0
 10
44.2335
 20
6.72958
 11
44.4159
 21
6.77643
  0
LINE
  8
0
 10
44.4159
 20
6.77643
 11
44.6028
 21
6.80003
  0
LINE
  8
0
 10
44.6028
 20
6.80003
 11
44.7912
 21
6.80003
  0
LINE
  8
0
 10
44.7912
 20
6.80003
 11
44.9781
 21
6.77643
  0
LINE
  8
0
 10
44.9781
 20
6.77643
 11
45.1605
 21
6.72958
  0
LINE
  8
0
 10
45.1605
 20
6.72958
 11
45.3357
 21
6.66023
  0
LINE
  8
0
 10
45.3357
 20
6.66023
 11
45.5007
 21
6.56949
  0
LINE
  8
0
 10
45.5007
 20
6.56949
 11
45.6531
 21
6.45876
  0
LINE
  8
0
 10
45.6531
 20
6.45876
 11
45.7905
 21
6.32982
  0
LINE
  8
0
 10
45.7905
 20
6.32982
 11
45.9105
 21
6.18468
  0
LINE
  8
0
 10
45.9105
 20
6.18468
 11
46.0115
 21
6.02562
  0
LINE
  8
0
 10
46.0115
 20
6.02562
 11
46.0917
 21
5.85518
  0
LINE
  8
0
 10
46.0917
 20
5.85518
 11
46.1499
 21
5.67603
  0
LINE
  8
0
 10
46.1499
 20
5.67603
 11
46.1852
 21
5.491
  0
LINE
  8
0
 10
46.1852
 20
5.491
 11
46.197
 21
5.30299
  0
LINE
  8
0
 10
46.197
 20
5.30299
 11
46.1852
 21
5.11499
  0
LINE
  8
0
 10
46.1852
 20
5.11499
 11
46.1499
 21
4.92996
  0
LINE
  8
0
 10
46.1499
 20
4.92996
 11
46.0917
 21
4.75081
  0
LINE
  8
0
 10
46.0917
 20
4.75081
 11
46.0115
 21
4.58037
  0
LINE
  8
0
 10
46.0115
 20
4.58037
 11
45.9105
 21
4.42131
  0
LINE
  8
0
 10
45.9105
 20
4.42131
 11
45.7905
 21
4.27617
  0
LINE
  8
0
 10
45.7905
 20
4.27617
 11
45.6531
 21
4.14722
  0
LINE
  8
0
 10
45.6531
 20
4.14722
 11
45.5007
 21
4.0365
  0
LINE
  8
0
 10
45.5007
 20
4.0365
 11
45.3357
 21
3.94576
  0
LINE
  8
0
 10
45.3357
 20
3.94576
 11
45.1605
 21
3.8764
  0
LINE
  8
0
 10
45.1605
 20
3.8764
 11
44.9781
 21
3.82956
  0
LINE
  8
0
 10
44.9781
 20
3.82956
 11
44.7912
 21
3.80595
  0
LINE
  8
0
 10
44.7912
 20
3.80595
 11
44.6028
 21
3.80595
  0
LINE
  8
0
 10
55.2088
 20
3.80595
 11
55.0219
 21
3.82956
  0
LINE
  8
0
 10
55.0219
 20
3.82956
 11
54.8395
 21
3.8764
  0
LINE
  8
0
 10
54.8395
 20
3.8764
 11
54.6643
 21
3.94576
  0
LINE
  8
0
 10
54.6643
 20
3.94576
 11
54.4993
 21
4.0365
  0
LINE
  8
0
 10
54.4993
 20
4.0365
 11
54.3469
 21
4.14722
  0
LINE
  8
0
 10
54.3469
 20
4.14722
 11
54.2095
 21
4.27617
  0
LINE
  8
0
 10
54.2095
 20
4.27617
 11
54.0895
 21
4.42131
  0
LINE
  8
0
 10
54.0895
 20
4.42131
 11
53.9885
 21
4.58037
  0
LINE
  8
0
 10
53.9885
 20
4.58037
 11
53.9083
 21
4.75081
  0
LINE
  8
0
 10
53.9083
 20
4.75081
 11
53.8501
 21
4.92996
  0
LINE
  8
0
 10
53.8501
 20
4.92996
 11
53.8148
 21
5.11499
  0
LINE
  8
0
 10
53.8148
 20
5.11499
 11
53.803
 21
5.30299
  0
LINE
  8
0
 10
53.803
 20
5.30299
 11
53.8148
 21
5.491
  0
LINE
  8
0
 10
53.8148
 20
5.491
 11
53.8501
 21
5.67603
  0
LINE
  8
0
 10
53.8501
 20
5.67603
 11
53.9083
 21
5.85518
  0
LINE
  8
0
 10
53.9083
 20
5.85518
 11
53.9885
 21
6.02562
  0
LINE
  8
0
 10
53.9885
 20
6.02562
 11
54.0895
 21
6.18468
  0
LINE
  8
0
 10
54.0895
 20
6.18468
 11
54.2095
 21
6.32982
  0
LINE
  8
0
 10
54.2095
 20
6.32982
 11
54.3469
 21
6.45876
  0
LINE
  8
0
 10
54.3469
 20
6.45876
 11
54.4993
 21
6.56949
  0
LINE
  8
0
 10
54.4993
 20
6.56949
 11
54.6643
 21
6.66023
  0
LINE
  8
0
 10
54.6643
 20
6.66023
 11
54.8395
 21
6.72958
  0
LINE
  8
0
 10
54.8395
 20
6.72958
 11
55.0219
 21
6.77643
  0
LINE
  8
0
 10
55.0219
 20
6.77643
 11
55.2088
 21
6.80003
  0
LINE
  8
0
 10
55.2088
 20
6.80003
 11
55.3972
 21
6.80003
  0
LINE
  8
0
 10
55.3972
 20
6.80003
 11
55.5841
 21
6.77643
  0
LINE
  8
0
 10
55.5841
 20
6.77643
 11
55.7665
 21
6.72958
  0
LINE
  8
0
 10
55.7665
 20
6.72958
 11
55.9417
 21
6.66023
  0
LINE
  8
0
 10
55.9417
 20
6.66023
 11
56.1067
 21
6.56949
  0
LINE
  8
0
 10
56.1067
 20
6.56949
 11
56.2591
 21
6.45876
  0
LINE
  8
0
 10
56.2591
 20
6.45876
 11
56.3965
 21
6.32982
  0
LINE
  8
0
 10
56.3965
 20
6.32982
 11
56.5165
 21
6.18468
  0
LINE
  8
0
 10
56.5165
 20
6.18468
 11
56.6174
 21
6.02562
  0
LINE
  8
0
 10
56.6174
 20
6.02562
 11
56.6977
 21
5.85518
  0
LINE
  8
0
 10
56.6977
 20
5.85518
 11
56.7559
 21
5.67603
  0
LINE
  8
0
 10
56.7559
 20
5.67603
 11
56.7912
 21
5.491
  0
LINE
  8
0
 10
56.7912
 20
5.491
 11
56.803
 21
5.30299
  0
LINE
  8
0
 10
56.803
 20
5.30299
 11
56.7912
 21
5.11499
  0
LINE
  8
0
 10
56.7912
 20
5.11499
 11
56.7559
 21
4.92996
  0
LINE
  8
0
 10
56.7559
 20
4.92996
 11
56.6977
 21
4.75081
  0
LINE
  8
0
 10
56.6977
 20
4.75081
 11
56.6174
 21
4.58037
  0
LINE
  8
0
 10
56.6174
 20
4.58037
 11
56.5165
 21
4.42131
  0
LINE
  8
0
 10
56.5165
 20
4.42131
 11
56.3965
 21
4.27617
  0
LINE
  8
0
 10
56.3965
 20
4.27617
 11
56.2591
 21
4.14722
  0
LINE
  8
0
 10
56.2591
 20
4.14722
 11
56.1067
 21
4.0365
  0
LINE
  8
0
 10
56.1067
 20
4.0365
 11
55.9417
 21
3.94576
  0
LINE
  8
0
 10
55.9417
 20
3.94576
 11
55.7665
 21
3.8764
  0
LINE
  8
0
 10
55.7665
 20
3.8764
 11
55.5841
 21
3.82956
  0
LINE
  8
0
 10
55.5841
 20
3.82956
 11
55.3972
 21
3.80595
  0
LINE
  8
0
 10
55.3972
 20
3.80595
 11
55.2088
 21
3.80595
  0
LINE
  8
0
 10
49.8116
 20
-2.99408
 11
49.4379
 21
-2.94685
  0
LINE
  8
0
 10
49.4379
 20
-2.94685
 11
49.0729
 21
-2.85316
  0
LINE
  8
0
 10
49.0729
 20
-2.85316
 11
48.7227
 21
-2.71448
  0
LINE
  8
0
 10
48.7227
 20
-2.71448
 11
48.3925
 21
-2.53297
  0
LINE
  8
0
 10
48.3925
 20
-2.53297
 11
48.0877
 21
-2.31154
  0
LINE
  8
0
 10
48.0877
 20
-2.31154
 11
47.8131
 21
-2.05363
  0
LINE
  8
0
 10
47.8131
 20
-2.05363
 11
47.5729
 21
-1.76335
  0
LINE
  8
0
 10
47.5729
 20
-1.76335
 11
47.3711
 21
-1.44525
  0
LINE
  8
0
 10
47.3711
 20
-1.44525
 11
47.2107
 21
-1.10437
  0
LINE
  8
0
 10
47.2107
 20
-1.10437
 11
47.0942
 21
-0.746063
  0
LINE
  8
0
 10
47.0942
 20
-0.746063
 11
47.0237
 21
-0.375992
  0
LINE
  8
0
 10
47.0237
 20
-0.375992
 11
47
 21
0
  0
LINE
  8
0
 10
47
 20
0
 11
47.0237
 21
0.375992
  0
LINE
  8
0
 10
47.0237
 20
0.375992
 11
47.0942
 21
0.746063
  0
LINE
  8
0
 10
47.0942
 20
0.746063
 11
47.2107
 21
1.10437
  0
LINE
  8
0
 10
47.2107
 20
1.10437
 11
47.3711
 21
1.44525
  0
LINE
  8
0
 10
47.3711
 20
1.44525
 11
47.5729
 21
1.76335
  0
LINE
  8
0
 10
47.5729
 20
1.76335
 11
47.8131
 21
2.05363
  0
LINE
  8
0
 10
47.8131
 20
2.05363
 11
48.0877
 21
2.31154
  0
LINE
  8
0
 10
48.0877
 20
2.31154
 11
48.3925
 21
2.53297
  0
LINE
  8
0
 10
48.3925
 20
2.53297
 11
48.7227
 21
2.71448
  0
LINE
  8
0
 10
48.7227
 20
2.71448
 11
49.0729
 21
2.85316
  0
LINE
  8
0
 10
49.0729
 20
2.85316
 11
49.4379
 21
2.94685
  0
LINE
  8
0
 10
49.4379
 20
2.94685
 11
49.8116
 21
2.99408
  0
LINE
  8
0
 10
49.8116
 20
2.99408
 11
50.1884
 21
2.99408
  0
LINE
  8
0
 10
50.1884
 20
2.99408
 11
50.5621
 21
2.94685
  0
LINE
  8
0
 10
50.5621
 20
2.94685
 11
50.927
 21
2.85316
  0
LINE
  8
0
 10
50.927
 20
2.85316
 11
51.2773
 21
2.71448
  0
LINE
  8
0
 10
51.2773
 20
2.71448
 11
51.6075
 21
2.53297
  0
LINE
  8
0
 10
51.6075
 20
2.53297
 11
51.9123
 21
2.31154
  0
LINE
  8
0
 10
51.9123
 20
2.31154
 11
52.1869
 21
2.05363
  0
LINE
  8
0
 10
52.1869
 20
2.05363
 11
52.427
 21
1.76335
  0
LINE
  8
0
 10
52.427
 20
1.76335
 11
52.6289
 21
1.44525
  0
LINE
  8
0
 10
52.6289
 20
1.44525
 11
52.7893
 21
1.10437
  0
LINE
  8
0
 10
52.7893
 20
1.10437
 11
52.9057
 21
0.746063
  0
LINE
  8
0
 10
52.9057
 20
0.746063
 11
52.9763
 21
0.375992
  0
LINE
  8
0
 10
52.9763
 20
0.375992
 11
53
 21
0
  0
LINE
  8
0
 10
53
 20
0
 11
52.9763
 21
-0.375992
  0
LINE
  8
0
 10
52.9763
 20
-0.375992
 11
52.9057
 21
-0.746063
  0
LINE
  8
0
 10
52.9057
 20
-0.746063
 11
52.7893
 21
-1.10437
  0
LINE
  8
0
 10
52.7893
 20
-1.10437
 11
52.6289
 21
-1.44525
  0
LINE
  8
0
 10
52.6289
 20
-1.44525
 11
52.427
 21
-1.76335
  0
LINE
  8
0
 10
52.427
 20
-1.76335
 11
52.1869
 21
-2.05363
  0
LINE
  8
0
 10
52.1869
 20
-2.05363
 11
51.9123
 21
-2.31154
  0
LINE
  8
0
 10
51.9123
 20
-2.31154
 11
51.6075
 21
-2.53297
  0
LINE
  8
0
 10
51.6075
 20
-2.53297
 11
51.2773
 21
-2.71448
  0
LINE
  8
0
 10
51.2773
 20
-2.71448
 11
50.927
 21
-2.85316
  0
LINE
  8
0
 10
50.927
 20
-2.85316
 11
50.5621
 21
-2.94685
  0
LINE
  8
0
 10
50.5621
 20
-2.94685
 11
50.1884
 21
-2.99408
  0
LINE
  8
0
 10
50.1884
 20
-2.99408
 11
49.8116
 21
-2.99408
  0
LINE
  8
0
 10
55.9133
 20
-2.74832
 11
54.3265
 21
0
  0
LINE
  8
0
 10
54.3265
 20
0
 11
55.9133
 21
2.74832
  0
LINE
  8
0
 10
55.9133
 20
2.74832
 11
59.0867
 21
2.74832
  0
LINE
  8
0
 10
59.0867
 20
2.74832
 11
60.6735
 21
0
  0
LINE
  8
0
 10
60.6735
 20
0
 11
59.0867
 21
-2.74832
  0
LINE
  8
0
 10
59.0867
 20
-2.74832
 11
55.9133
 21
-2.74832
  0
LINE
  8
0
 10
40.9133
 20
-2.74832
 11
39.3265
 21
0
  0
LINE
  8
0
 10
39.3265
 20
0
 11
40.9133
 21
2.74832
  0
LINE
  8
0
 10
40.9133
 20
2.74832
 11
44.0867
 21
2.74832
  0
LINE
  8
0
 10
44.0867
 20
2.74832
 11
45.6735
 21
0
  0
LINE
  8
0
 10
45.6735
 20
0
 11
44.0867
 21
-2.74832
  0
LINE
  8
0
 10
44.0867
 20
-2.74832
 11
40.9133
 21
-2.74832
  0
LINE
  8
0
 10
44.6028
 20
-6.80003
 11
44.4159
 21
-6.77643
  0
LINE
  8
0
 10
44.4159
 20
-6.77643
 11
44.2335
 21
-6.72958
  0
LINE
  8
0
 10
44.2335
 20
-6.72958
 11
44.0583
 21
-6.66023
  0
LINE
  8
0
 10
44.0583
 20
-6.66023
 11
43.8932
 21
-6.56949
  0
LINE
  8
0
 10
43.8932
 20
-6.56949
 11
43.7409
 21
-6.45876
  0
LINE
  8
0
 10
43.7409
 20
-6.45876
 11
43.6035
 21
-6.32982
  0
LINE
  8
0
 10
43.6035
 20
-6.32982
 11
43.4835
 21
-6.18468
  0
LINE
  8
0
 10
43.4835
 20
-6.18468
 11
43.3825
 21
-6.02562
  0
LINE
  8
0
 10
43.3825
 20
-6.02562
 11
43.3023
 21
-5.85518
  0
LINE
  8
0
 10
43.3023
 20
-5.85518
 11
43.2441
 21
-5.67603
  0
LINE
  8
0
 10
43.2441
 20
-5.67603
 11
43.2088
 21
-5.491
  0
LINE
  8
0
 10
43.2088
 20
-5.491
 11
43.197
 21
-5.30299
  0
LINE
  8
0
 10
43.197
 20
-5.30299
 11
43.2088
 21
-5.11499
  0
LINE
  8
0
 10
43.2088
 20
-5.11499
 11
43.2441
 21
-4.92996
  0
LINE
  8
0
 10
43.2441
 20
-4.92996
 11
43.3023
 21
-4.75081
  0
LINE
  8
0
 10
43.3023
 20
-4.75081
 11
43.3825
 21
-4.58037
  0
LINE
  8
0
 10
43.3825
 20
-4.58037
 11
43.4835
 21
-4.42131
  0
LINE
  8
0
 10
43.4835
 20
-4.42131
 11
43.6035
 21
-4.27617
  0
LINE
  8
0
 10
43.6035
 20
-4.27617
 11
43.7409
 21
-4.14722
  0
LINE
  8
0
 10
43.7409
 20
-4.14722
 11
43.8932
 21
-4.0365
  0
LINE
  8
0
 10
43.8932
 20
-4.0365
 11
44.0583
 21
-3.94576
  0
LINE
  8
0
 10
44.0583
 20
-3.94576
 11
44.2335
 21
-3.8764
  0
LINE
  8
0
 10
44.2335
 20
-3.8764
 11
44.4159
 21
-3.82956
  0
LINE
  8
0
 10
44.4159
 20
-3.82956
 11
44.6028
 21
-3.80595
  0
LINE
  8
0
 10
44.6028
 20
-3.80595
 11
44.7912
 21
-3.80595
  0
LINE
  8
0
 10
44.7912
 20
-3.80595
 11
44.9781
 21
-3.82956
  0
LINE
  8
0
 10
44.9781
 20
-3.82956
 11
45.1605
 21
-3.8764
  0
LINE
  8
0
 10
45.1605
 20
-3.8764
 11
45.3357
 21
-3.94576
  0
LINE
  8
0
 10
45.3357
 20
-3.94576
 11
45.5007
 21
-4.0365
  0
LINE
  8
0
 10
45.5007
 20
-4.0365
 11
45.6531
 21
-4.14722
  0
LINE
  8
0
 10
45.6531
 20
-4.14722
 11
45.7905
 21
-4.27617
  0
LINE
  8
0
 10
45.7905
 20
-4.27617
 11
45.9105
 21
-4.42131
  0
LINE
  8
0
 10
45.9105
 20
-4.42131
 11
46.0115
 21
-4.58037
  0
LINE
  8
0
 10
46.0115
 20
-4.58037
 11
46.0917
 21
-4.75081
  0
LINE
  8
0
 10
46.0917
 20
-4.75081
 11
46.1499
 21
-4.92996
  0
LINE
  8
0
 10
46.1499
 20
-4.92996
 11
46.1852
 21
-5.11499
  0
LINE
  8
0
 10
46.1852
 20
-5.11499
 11
46.197
 21
-5.30299
  0
LINE
  8
0
 10
46.197
 20
-5.30299
 11
46.1852
 21
-5.491
  0
LINE
  8
0
 10
46.1852
 20
-5.491
 11
46.1499
 21
-5.67603
  0
LINE
  8
0
 10
46.1499
 20
-5.67603
 11
46.0917
 21
-5.85518
  0
LINE
  8
0
 10
46.0917
 20
-5.85518
 11
46.0115
 21
-6.02562
  0
LINE
  8
0
 10
46.0115
 20
-6.02562
 11
45.9105
 21
-6.18468
  0
LINE
  8
0
 10
45.9105
 20
-6.18468
 11
45.7905
 21
-6.32982
  0
LINE
  8
0
 10
45.7905
 20
-6.32982
 11
45.6531
 21
-6.45876
  0
LINE
  8
0
 10
45.6531
 20
-6.45876
 11
45.5007
 21
-6.56949
  0
LINE
  8
0
 10
45.5007
 20
-6.56949
 11
45.3357
 21
-6.66023
  0
LINE
  8
0
 10
45.3357
 20
-6.66023
 11
45.1605
 21
-6.72958
  0
LINE
  8
0
 10
45.1605
 20
-6.72958
 11
44.9781
 21
-6.77643
  0
LINE
  8
0
 10
44.9781
 20
-6.77643
 11
44.7912
 21
-6.80003
  0
LINE
  8
0
 10
44.7912
 20
-6.80003
 11
44.6028
 21
-6.80003
  0
LINE
  8
0
 10
55.2088
 20
-6.80003
 11
55.0219
 21
-6.77643
  0
LINE
  8
0
 10
55.0219
 20
-6.77643
 11
54.8395
 21
-6.72958
  0
LINE
  8
0
 10
54.8395
 20
-6.72958
 11
54.6643
 21
-6.66023
  0
LINE
  8
0
 10
54.6643
 20
-6.66023
 11
54.4993
 21
-6.56949
  0
LINE
  8
0
 10
54.4993
 20
-6.56949
 11
54.3469
 21
-6.45876
  0
LINE
  8
0
 10
54.3469
 20
-6.45876
 11
54.2095
 21
-6.32982
  0
LINE
  8
0
 10
54.2095
 20
-6.32982
 11
54.0895
 21
-6.18468
  0
LINE
  8
0
 10
54.0895
 20
-6.18468
 11
53.9885
 21
-6.02562
  0
LINE
  8
0
 10
53.9885
 20
-6.02562
 11
53.9083
 21
-5.85518
  0
LINE
  8
0
 10
53.9083
 20
-5.85518
 11
53.8501
 21
-5.67603
  0
LINE
  8
0
 10
53.8501
 20
-5.67603
 11
53.8148
 21
-5.491
  0
LINE
  8
0
 10
53.8148
 20
-5.491
 11
53.803
 21
-5.30299
  0
LINE
  8
0
 10
53.803
 20
-5.30299
 11
53.8148
 21
-5.11499
  0
LINE
  8
0
 10
53.8148
 20
-5.11499
 11
53.8501
 21
-4.92996
  0
LINE
  8
0
 10
53.8501
 20
-4.92996
 11
53.9083
 21
-4.75081
  0
LINE
  8
0
 10
53.9083
 20
-4.75081
 11
53.9885
 21
-4.58037
  0
LINE
  8
0
 10
53.9885
 20
-4.58037
 11
54.0895
 21
-4.42131
  0
LINE
  8
0
 10
54.0895
 20
-4.42131
 11
54.2095
 21
-4.27617
  0
LINE
  8
0
 10
54.2095
 20
-4.27617
 11
54.3469
 21
-4.14722
  0
LINE
  8
0
 10
54.3469
 20
-4.14722
 11
54.4993
 21
-4.0365
  0
LINE
  8
0
 10
54.4993
 20
-4.0365
 11
54.6643
 21
-3.94576
  0
LINE
  8
0
 10
54.6643
 20
-3.94576
 11
54.8395
 21
-3.8764
  0
LINE
  8
0
 10
54.8395
 20
-3.8764
 11
55.0219
 21
-3.82956
  0
LINE
  8
0
 10
55.0219
 20
-3.82956
 11
55.2088
 21
-3.80595
  0
LINE
  8
0
 10
55.2088
 20
-3.80595
 11
55.3972
 21
-3.80595
  0
LINE
  8
0
 10
55.3972
 20
-3.80595
 11
55.5841
 21
-3.82956
  0
LINE
  8
0
 10
55.5841
 20
-3.82956
 11
55.7665
 21
-3.8764
  0
LINE
  8
0
 10
55.7665
 20
-3.8764
 11
55.9417
 21
-3.94576
  0
LINE
  8
0
 10
55.9417
 20
-3.94576
 11
56.1067
 21
-4.0365
  0
LINE
  8
0
 10
56.1067
 20
-4.0365
 11
56.2591
 21
-4.14722
  0
LINE
  8
0
 10
56.2591
 20
-4.14722
 11
56.3965
 21
-4.27617
  0
LINE
  8
0
 10
56.3965
 20
-4.27617
 11
56.5165
 21
-4.42131
  0
LINE
  8
0
 10
56.5165
 20
-4.42131
 11
56.6174
 21
-4.58037
  0
LINE
  8
0
 10
56.6174
 20
-4.58037
 11
56.6977
 21
-4.75081
  0
LINE
  8
0
 10
56.6977
 20
-4.75081
 11
56.7559
 21
-4.92996
  0
LINE
  8
0
 10
56.7559
 20
-4.92996
 11
56.7912
 21
-5.11499
  0
LINE
  8
0
 10
56.7912
 20
-5.11499
 11
56.803
 21
-5.30299
  0
LINE
  8
0
 10
56.803
 20
-5.30299
 11
56.7912
 21
-5.491
  0
LINE
  8
0
 10
56.7912
 20
-5.491
 11
56.7559
 21
-5.67603
  0
LINE
  8
0
 10
56.7559
 20
-5.67603
 11
56.6977
 21
-5.85518
  0
LINE
  8
0
 10
56.6977
 20
-5.85518
 11
56.6174
 21
-6.02562
  0
LINE
  8
0
 10
56.6174
 20
-6.02562
 11
56.5165
 21
-6.18468
  0
LINE
  8
0
 10
56.5165
 20
-6.18468
 11
56.3965
 21
-6.32982
  0
LINE
  8
0
 10
56.3965
 20
-6.32982
 11
56.2591
 21
-6.45876
  0
LINE
  8
0
 10
56.2591
 20
-6.45876
 11
56.1067
 21
-6.56949
  0
LINE
  8
0
 10
56.1067
 20
-6.56949
 11
55.9417
 21
-6.66023
  0
LINE
  8
0
 10
55.9417
 20
-6.66023
 11
55.7665
 21
-6.72958
  0
LINE
  8
0
 10
55.7665
 20
-6.72958
 11
55.5841
 21
-6.77643
  0
LINE
  8
0
 10
55.5841
 20
-6.77643
 11
55.3972
 21
-6.80003
  0
LINE
  8
0
 10
55.3972
 20
-6.80003
 11
55.2088
 21
-6.80003
  0
LINE
  8
0
 10
49.887
 20
-9.29645
 11
49.6627
 21
-9.26811
  0
LINE
  8
0
 10
49.6627
 20
-9.26811
 11
49.4438
 21
-9.2119
  0
LINE
  8
0
 10
49.4438
 20
-9.2119
 11
49.2336
 21
-9.12868
  0
LINE
  8
0
 10
49.2336
 20
-9.12868
 11
49.0355
 21
-9.01978
  0
LINE
  8
0
 10
49.0355
 20
-9.01978
 11
48.8526
 21
-8.88692
  0
LINE
  8
0
 10
48.8526
 20
-8.88692
 11
48.6879
 21
-8.73218
  0
LINE
  8
0
 10
48.6879
 20
-8.73218
 11
48.5438
 21
-8.558
  0
LINE
  8
0
 10
48.5438
 20
-8.558
 11
48.4226
 21
-8.36714
  0
LINE
  8
0
 10
48.4226
 20
-8.36714
 11
48.3264
 21
-8.16261
  0
LINE
  8
0
 10
48.3264
 20
-8.16261
 11
48.2565
 21
-7.94763
  0
LINE
  8
0
 10
48.2565
 20
-7.94763
 11
48.2142
 21
-7.72559
  0
LINE
  8
0
 10
48.2142
 20
-7.72559
 11
48.2
 21
-7.5
  0
LINE
  8
0
 10
48.2
 20
-7.5
 11
48.2142
 21
-7.2744
  0
LINE
  8
0
 10
48.2142
 20
-7.2744
 11
48.2565
 21
-7.05235
  0
LINE
  8
0
 10
48.2565
 20
-7.05235
 11
48.3264
 21
-6.83737
  0
LINE
  8
0
 10
48.3264
 20
-6.83737
 11
48.4226
 21
-6.63284
  0
LINE
  8
0
 10
48.4226
 20
-6.63284
 11
48.5438
 21
-6.44199
  0
LINE
  8
0
 10
48.5438
 20
-6.44199
 11
48.6879
 21
-6.26781
  0
LINE
  8
0
 10
48.6879
 20
-6.26781
 11
48.8526
 21
-6.11307
  0
LINE
  8
0
 10
48.8526
 20
-6.11307
 11
49.0355
 21
-5.98021
  0
LINE
  8
0
 10
49.0355
 20
-5.98021
 11
49.2336
 21
-5.87131
  0
LINE
  8
0
 10
49.2336
 20
-5.87131
 11
49.4438
 21
-5.78809
  0
LINE
  8
0
 10
49.4438
 20
-5.78809
 11
49.6627
 21
-5.73187
  0
LINE
  8
0
 10
49.6627
 20
-5.73187
 11
49.887
 21
-5.70355
  0
LINE
  8
0
 10
49.887
 20
-5.70355
 11
50.113
 21
-5.70355
  0
LINE
  8
0
 10
50.113
 20
-5.70355
 11
50.3373
 21
-5.73187
  0
LINE
  8
0
 10
50.3373
 20
-5.73187
 11
50.5562
 21
-5.78809
  0
LINE
  8
0
 10
50.5562
 20
-5.78809
 11
50.7664
 21
-5.87131
  0
LINE
  8
0
 10
50.7664
 20
-5.87131
 11
50.9645
 21
-5.98021
  0
LINE
  8
0
 10
50.9645
 20
-5.98021
 11
51.1474
 21
-6.11307
  0
LINE
  8
0
 10
51.1474
 20
-6.11307
 11
51.3121
 21
-6.26781
  0
LINE
  8
0
 10
51.3121
 20
-6.26781
 11
51.4562
 21
-6.44199
  0
LINE
  8
0
 10
51.4562
 20
-6.44199
 11
51.5773
 21
-6.63284
  0
LINE
  8
0
 10
51.5773
 20
-6.63284
 11
51.6736
 21
-6.83737
  0
LINE
  8
0
 10
51.6736
 20
-6.83737
 11
51.7434
 21
-7.05235
  0
LINE
  8
0
 10
51.7434
 20
-7.05235
 11
51.7858
 21
-7.2744
  0
LINE
  8
0
 10
51.7858
 20
-7.2744
 11
51.8
 21
-7.5
  0
LINE
  8
0
 10
51.8
 20
-7.5
 11
51.7858
 21
-7.72559
  0
LINE
  8
0
 10
51.7858
 20
-7.72559
 11
51.7434
 21
-7.94763
  0
LINE
  8
0
 10
51.7434
 20
-7.94763
 11
51.6736
 21
-8.16261
  0
LINE
  8
0
 10
51.6736
 20
-8.16261
 11
51.5773
 21
-8.36714
  0
LINE
  8
0
 10
51.5773
 20
-8.36714
 11
51.4562
 21
-8.558
  0
LINE
  8
0
 10
51.4562
 20
-8.558
 11
51.3121
 21
-8.73218
  0
LINE
  8
0
 10
51.3121
 20
-8.73218
 11
51.1474
 21
-8.88692
  0
LINE
  8
0
 10
51.1474
 20
-8.88692
 11
50.9645
 21
-9.01978
  0
LINE
  8
0
 10
50.9645
 20
-9.01978
 11
50.7664
 21
-9.12868
  0
LINE
  8
0
 10
50.7664
 20
-9.12868
 11
50.5562
 21
-9.2119
  0
LINE
  8
0
 10
50.5562
 20
-9.2119
 11
50.3373
 21
-9.26811
  0
LINE
  8
0
 10
50.3373
 20
-9.26811
 11
50.113
 21
-9.29645
  0
LINE
  8
0
 10
50.113
 20
-9.29645
 11
49.887
 21
-9.29645
  0
ENDSEC
  0
SECTION
  2
OBJECTS
  0
DICTIONARY
  0
ENDSEC
  0
EOF
